<svg xmlns="http://www.w3.org/2000/svg" xmlns:xlink="http://www.w3.org/1999/xlink" fill="none" version="1.1" width="10" height="6" viewBox="0 0 10 6"><g style="mix-blend-mode:passthrough" transform="matrix(1,0,0,-1,0,12)"><path d="M9.75072,11.75121C9.45829,12.04831,8.99607,12.07991,8.66759,11.84283L8.55868,11.74898L8.55868,11.74898L5.00319,8.109449999999999L1.46533,11.71986C1.13594,12.056000000000001,0.595106,12.06338,0.256578,11.73635C-0.0481225,11.442,-0.0822775,10.974969999999999,0.158611,10.642019999999999L0.244735,10.54078L0.244735,10.54078L4.57558,6.188873C4.79674,5.9666352,5.14168,5.9403099,5.39215,6.111009L5.48905,6.192103L5.48905,6.192103L9.75171,10.536850000000001C10.0831,10.87467,10.0827,11.413920000000001,9.75072,11.75121Z" fill="#BDBDBD" fill-opacity="1"/></g></svg>