<svg xmlns="http://www.w3.org/2000/svg" xmlns:xlink="http://www.w3.org/1999/xlink" fill="none" version="1.1" width="16" height="16" viewBox="0 0 16 16"><g style="mix-blend-mode:passthrough"><g style="opacity:0.20000000298023224;mix-blend-mode:passthrough"><path d="M-14015.6669921875,10603.00016309375L-14015.6669921875,10615.00019609375C-14015.6669921875,10615.36829609375,-14015.9654921875,10615.66679609375,-14016.3336621875,10615.66679609375L-14018.3336621875,10615.66679609375C-14019.0366211875,10615.66679609375,-14019.6124674875,10615.12289609375,-14019.6634114575,10614.43299609375L-14019.6669921875,10614.33349609375L-14019.6669921875,10603.66682609375C-14019.6669921875,10602.96394909375,-14019.1230471875,10602.38802079375,-14018.4331021875,10602.33715820375L-14018.3336621875,10602.33349609375L-14016.3336621875,10602.33349609375C-14015.9654921875,10602.33349609375,-14015.6669921875,10602.63199909375,-14015.6669921875,10603.00016309375Z" fill-rule="evenodd" fill="#36A4FF" fill-opacity="1"/></g><g style="mix-blend-mode:passthrough"><path d="M-14015.0003221875,10615.66679609375L-14007.6669921875,10615.66679609375Q-14007.1147921875,10615.66679609375,-14006.7240921875,10615.27629609375Q-14006.3336921875,10614.88569609375,-14006.3336921875,10614.33349609375L-14006.3336921875,10603.66682609375Q-14006.3336921875,10603.11458309375,-14006.7240921875,10602.72404009375Q-14007.1147921875,10602.33349609375,-14007.6669921875,10602.33349609375L-14018.3336621875,10602.33349609375Q-14018.8859051875,10602.33349609375,-14019.2765301875,10602.72404009375Q-14019.6669921875,10603.11458309375,-14019.6669921875,10603.66682609375L-14019.6669921875,10614.33349609375Q-14019.6669921875,10614.88569609375,-14019.2765301875,10615.27629609375Q-14018.8859051875,10615.66679609375,-14018.3336621875,10615.66679609375L-14015.0003221875,10615.66679609375ZM-14014.3336621875,10614.33349609375L-14007.6669921875,10614.33349609375L-14007.6669921875,10603.66682609375L-14014.3336621875,10603.66682609375L-14014.3336621875,10614.33349609375ZM-14015.6669921875,10614.33349609375L-14015.6669921875,10603.66682609375L-14018.3336621875,10603.66682609375L-14018.3336621875,10614.33349609375L-14015.6669921875,10614.33349609375Z" fill-rule="evenodd" fill="#36A4FF" fill-opacity="1"/></g></g></svg>