<svg xmlns="http://www.w3.org/2000/svg" xmlns:xlink="http://www.w3.org/1999/xlink" fill="none" version="1.1" width="16" height="16" viewBox="0 0 16 16"><g style="mix-blend-mode:passthrough"><g style="opacity:0.20000000298023224;mix-blend-mode:passthrough"><path d="M-14163.39193,9666.343506L-14170.610026,9673.571045C-14170.859701,9673.821045,-14171,9674.159915,-14171,9674.513265L-14171,9677.010725C-14171,9677.378925,-14170.701497,9677.677425,-14170.333333,9677.677425L-14167.8221,9677.677425C-14167.46826,9677.677425,-14167.12907,9677.536825,-14166.87907,9677.286725L-14159.6665,9670.070885C-14159.1463,9669.549805,-14159.1463,9668.706465,-14159.666,9668.185705L-14161.50667,9666.34432C-14162.02604,9665.823079,-14162.87093,9665.822673,-14163.39193,9666.343506Z" fill-rule="evenodd" fill="#36A4FF" fill-opacity="1"/></g><g style="mix-blend-mode:passthrough"><path d="M-14162.4498721875,9665.943359375Q-14163.0026021875,9665.9434407552,-14163.3930621875,9666.334472375L-14170.6103521875,9673.560469375Q-14171.0003251875,9673.950929375,-14171.0003251875,9674.502689375L-14171.0003251875,9677.000159375C-14171.0003251875,9677.368359375,-14170.7018231875,9677.666859375,-14170.3336621875,9677.666859375L-14167.8224321875,9677.666859375Q-14167.2700221875,9677.666859375,-14166.8793921875,9677.276159375L-14159.6666921875,9670.060139375Q-14159.2761921875,9669.669599375,-14159.2761921875,9669.117509375Q-14159.2761921875,9668.565429375,-14159.6666921875,9668.174889375L-14161.5066921875,9666.334065375Q-14161.8973021875,9665.9432779948,-14162.4498721875,9665.943359375ZM-14169.6669921875,9674.502689375L-14162.4497021875,9667.276689375L-14160.6094921875,9669.117509375L-14167.8224321875,9676.333459375L-14169.6669921875,9676.333459375L-14169.6669921875,9674.502689375ZM-14171.0003251875,9679.000159375L-14159.0002921875,9679.000159375C-14158.6321921875,9679.000159375,-14158.3336921875,9679.298659375,-14158.3336921875,9679.666859375C-14158.3336921875,9680.034959375,-14158.6321921875,9680.333459375,-14159.0002921875,9680.333459375L-14171.0003251875,9680.333459375C-14171.3684891875,9680.333459375,-14171.6669921875,9680.034959375,-14171.6669921875,9679.666859375C-14171.6669921875,9679.298659375,-14171.3684891875,9679.000159375,-14171.0003251875,9679.000159375Z" fill-rule="evenodd" fill="#36A4FF" fill-opacity="1"/></g></g></svg>