<svg xmlns="http://www.w3.org/2000/svg" xmlns:xlink="http://www.w3.org/1999/xlink" fill="none" version="1.1" width="32" height="32" viewBox="0 0 32 32"><g style="mix-blend-mode:passthrough"><rect x="0" y="0" width="32" height="32" rx="3" fill="#FFFFFF" fill-opacity="1"/><g style="mix-blend-mode:passthrough"><g style="opacity:0.20000000298023224;mix-blend-mode:passthrough"><path d="M8.4996337890625,15.9996337890625L23.4996337890625,15.9996337890625L23.4996337890625,8.4996337890625L8.4996337890625,8.4996337890625L8.4996337890625,15.9996337890625Z" fill="#FFFFFF" fill-opacity="1"/></g><g style="opacity:0.20000000298023224;mix-blend-mode:passthrough"><path d="M8.4996337890625,23.9996337890625L23.4996337890625,23.9996337890625L23.4996337890625,17.4996337890625L8.4996337890625,17.4996337890625L8.4996337890625,23.9996337890625Z" fill="#4B4B4B" fill-opacity="1"/></g><g style="mix-blend-mode:passthrough"><path d="M6.9996337890625,25.4996337890625L24.9996337890625,25.4996337890625L24.9996337890625,6.9996337890625L6.9996337890625,6.9996337890625L6.9996337890625,25.4996337890625ZM8.4996337890625,17.4996337890625L8.4996337890625,23.9996337890625L23.4996337890625,23.9996337890625L23.4996337890625,17.4996337890625L8.4996337890625,17.4996337890625ZM8.4996337890625,15.9996337890625L23.4996337890625,15.9996337890625L23.4996337890625,8.4996337890625L8.4996337890625,8.4996337890625L8.4996337890625,15.9996337890625ZM9.9996337890625,11.4996337890625L17.9996337890625,11.4996337890625L17.9996337890625,9.9996337890625L9.9996337890625,9.9996337890625L9.9996337890625,11.4996337890625ZM9.9996337890625,14.4996337890625L14.9996337890625,14.4996337890625L14.9996337890625,12.9996337890625L9.9996337890625,12.9996337890625L9.9996337890625,14.4996337890625ZM9.9996337890625,20.4996337890625L14.9996337890625,20.4996337890625L14.9996337890625,18.9996337890625L9.9996337890625,18.9996337890625L9.9996337890625,20.4996337890625Z" fill-rule="evenodd" fill="#8A8A8A" fill-opacity="1"/></g></g><rect x="0.75" y="0.75" width="30.5" height="30.5" rx="2.25" fill-opacity="0" stroke-opacity="1" stroke="#E4E9ED" fill="none" stroke-width="1.5"/></g></svg>