<svg xmlns="http://www.w3.org/2000/svg" xmlns:xlink="http://www.w3.org/1999/xlink" fill="none" version="1.1" width="24" height="24" viewBox="0 0 24 24"><defs><clipPath id="master_svg0_1768_54549"><rect x="0" y="0" width="24" height="24" rx="0"/></clipPath></defs><g style="mix-blend-mode:passthrough" clip-path="url(#master_svg0_1768_54549)"><g style="mix-blend-mode:passthrough"><g style="mix-blend-mode:passthrough"><path d="M4,3L8,3C9.6356,3,11.08777,3.785343,12,4.99951L12,23.0014C11.6508,23.0054,11.29816,22.8332,11.10518,22.4464L11.01693,22.2841C10.54949,21.4923,9.69574,21,8.767140000000001,21L4,21C2.895431,21,2,20.1046,2,19L2,5C2,3.895431,2.895431,3,4,3Z" fill-rule="evenodd" fill="#36A4FF" fill-opacity="1"/></g><g style="opacity:0.3199999928474426;mix-blend-mode:passthrough"><path d="M12.000000953174316,23.0015C12.339179391174316,23.0054,12.682106391174317,22.8422,12.880300391174316,22.4744L12.982571391174316,22.2847C13.436074391174316,21.5007,14.301844391174317,21,15.239804391174317,21L20.000004391174315,21C21.104574391174317,21,22.000024391174314,20.1046,22.000024391174314,19L22.000024391174314,5C22.000024391174314,3.895431,21.104574391174317,3,20.000004391174315,3L16.000004391174315,3C14.364404391174316,3,12.912229391174316,3.785343,12.000000953174316,4.99951L12.000000953174316,23.0015Z" fill-rule="evenodd" fill="#36A4FF" fill-opacity="1"/></g></g></g></svg>