<svg xmlns="http://www.w3.org/2000/svg" xmlns:xlink="http://www.w3.org/1999/xlink" fill="none" version="1.1" width="12" height="12" viewBox="0 0 12 12"><g style="mix-blend-mode:passthrough"><g style="opacity:0.20000000298023224;mix-blend-mode:passthrough"><path d="M6,0.5C2.9624,0.5,0.5,2.96243,0.5,6C0.5,9.03757,2.9624,11.5,6,11.5C9.0376,11.5,11.5,9.03757,11.5,6C11.5,2.96243,9.0376,0.5,6,0.5Z" fill="#36A4FF" fill-opacity="1"/></g><g style="mix-blend-mode:passthrough"><path d="M8.14099,0.932434Q7.11865,0.5,6,0.5Q4.88135,0.5,3.85901,0.932434Q2.87195,1.349945,2.11096,2.1109Q1.3499759999999998,2.87189,0.932373,3.85901Q0.5,4.88135,0.5,6Q0.5,7.11865,0.932373,8.14099Q1.3499759999999998,9.12811,2.11096,9.8891Q2.87195,10.6501,3.85901,11.0676Q4.88135,11.5,6,11.5Q7.11865,11.5,8.14099,11.0676Q9.12805,10.6501,9.88904,9.8891Q10.65,9.12811,11.0676,8.14099Q11.5,7.11865,11.5,6Q11.5,4.88135,11.0676,3.85901Q10.65,2.87189,9.88904,2.1109Q9.12805,1.349945,8.14099,0.932434ZM4.24854,1.85342Q5.08411,1.5,6,1.5Q6.91589,1.5,7.75146,1.85342Q8.55896,2.19495,9.18201,2.81802Q9.80505,3.44107,10.14661,4.24854Q10.5,5.08414,10.5,6Q10.5,6.91586,10.14661,7.75146Q9.80505,8.5589,9.18201,9.18198Q8.55896,9.80505,7.75146,10.14658Q6.91589,10.5,6,10.5Q5.08411,10.5,4.24854,10.14658Q3.44104,9.80505,2.81799,9.18198Q2.19495,8.55893,1.85339,7.75146Q1.5,6.91586,1.5,6Q1.5,5.08414,1.85339,4.24854Q2.19495,3.44107,2.81799,2.81802Q3.44104,2.19495,4.24854,1.85342ZM7.64624,5.8533L7.64648,5.85355C7.74023,5.94733,7.86743,6,8,6C8.132570000000001,6,8.25977,5.94733,8.35352,5.85355C8.44727,5.7598,8.5,5.6326,8.5,5.5C8.5,5.3674,8.44727,5.2402,8.35352,5.14645L6.35352,3.14645C6.25977,3.05267,6.13257,3,6,3C5.86743,3,5.74023,3.05267,5.64648,3.14645L3.64648,5.14645C3.55273,5.2402,3.5,5.3674,3.5,5.5C3.5,5.6326,3.55273,5.7598,3.64648,5.85355C3.74023,5.94733,3.86743,6,4,6C4.132569999999999,6,4.25977,5.94733,4.35352,5.85355L5.5,4.70709L5.5,8.5C5.5,8.77615,5.72388,9,6,9C6.27612,9,6.5,8.77615,6.5,8.5L6.5,4.70709L7.64624,5.8533Z" fill-rule="evenodd" fill="#36A4FF" fill-opacity="1"/></g></g></svg>