<svg xmlns="http://www.w3.org/2000/svg" xmlns:xlink="http://www.w3.org/1999/xlink" fill="none" version="1.1" width="16" height="16" viewBox="0 0 16 16"><g style="mix-blend-mode:passthrough"><g style="opacity:0.20000000298023224;mix-blend-mode:passthrough"></g><g style="mix-blend-mode:passthrough"><path d="M14.4093609375,1.4763595C14.2923609375,1.3853353,14.1482609375,1.3359375,13.9999609375,1.3359375L2.0016279375,1.3359375C1.6334639375,1.3359375,1.3349609375,1.6343995,1.3349609375,2.0026045C1.3349609375,2.1509195,1.3844401375,2.2950035,1.4755859375,2.4120274999999998L6.0026009375,8.2291275L6.0026009375,14.6686375C6.0026009375,15.0368375,6.3011109375,15.3353375,6.6692709375,15.3353375C6.7727909375,15.3353375,6.8748409375,15.3112375,6.9674509375,15.2649375L9.6333009375,13.9315375C9.8590509375,13.8186375,10.0016309375,13.5878375,10.0016309375,13.3353375L10.0016309375,8.2290475L14.5261609375,2.4119075C14.7522609375,2.1212565,14.6998609375,1.7024335,14.4093609375,1.4763595ZM12.6368609375,2.6692675L3.3652309375,2.6692675L7.1953109375,7.5908575C7.2864609375,7.7078875,7.3359409375,7.8519675,7.3359409375,8.000287499999999L7.3359409375,13.5898375L8.6682909375,12.9233375L8.6682909375,8.000287499999999C8.6682909375,7.8520475,8.7177709375,7.7080075,8.8087609375,7.5909875L12.6368609375,2.6692675Z" fill-rule="evenodd" fill="#4B4B4B" fill-opacity="1"/></g></g></svg>