<svg xmlns="http://www.w3.org/2000/svg" xmlns:xlink="http://www.w3.org/1999/xlink" fill="none" version="1.1" width="16" height="16" viewBox="0 0 16 16"><g style="mix-blend-mode:passthrough"><g style="opacity:0.3199999928474426;mix-blend-mode:passthrough"><path d="M8.246841996879578,0.7141831875C8.062341996879578,0.6407749875,7.8528719968795775,0.6530096875,7.676691996879578,0.7508872875L2.5205219968795776,3.6152421875C2.465991996879578,3.6455321875,2.421061996879578,3.6905121875,2.3908319968795775,3.7450621875C2.3015999968795775,3.9060921875,2.3598019968795776,4.1089621874999995,2.5208219968795778,4.1981921875L7.672861996879577,7.0532521875C7.8738919968795775,7.1646521875,8.118121996879577,7.1646521875,8.319151996879578,7.0532521875L13.475871996879578,4.1955421875C13.530371996879577,4.1653121875,13.575371996879579,4.1203721875,13.605671996879577,4.0658521875C13.695071996879578,3.9049121875,13.637071996879577,3.7019821875,13.476171996879577,3.6125921875L8.324221996879578,0.7508872875L8.246841996879578,0.7141831875ZM6.989831996879578,8.199302187499999L1.8282889968795777,5.3386621875C1.7788349968795776,5.3112521875,1.7232229968795776,5.2968721875,1.6666809968795777,5.2968721875C1.4825869968795775,5.2968921875,1.3333588190795775,5.4461421875,1.3333719968795776,5.6302321875L1.3337802528795777,11.3335921875L1.3385719868795776,11.4134921875C1.3639417968795777,11.6239921875,1.4885569968795775,11.8117921875,1.6766849968795776,11.9163921875L6.838111996879578,14.7838921875C6.887631996879578,14.8113921875,6.943351996879578,14.8257921875,7.000001996879577,14.8257921875C7.184091996879578,14.8257921875,7.333331996879577,14.6765921875,7.333331996879577,14.4924921875L7.333331996879577,8.7824021875C7.333331996879577,8.5400421875,7.201811996879577,8.3167821875,6.989831996879578,8.199302187499999Z" fill-rule="evenodd" fill="#36A4FF" fill-opacity="1"/></g><g style="mix-blend-mode:passthrough"><path d="M14.666055625,5.62633975L14.666465625,11.333728749999999C14.666465625,11.54893875,14.562755625000001,11.749108750000001,14.391065625,11.873518749999999L14.323555625000001,11.916498749999999L9.161217625,14.78417875C9.000285625,14.87357875,8.797353625,14.81558875,8.707956325,14.65464875C8.680450025,14.60513875,8.666015625,14.54942875,8.666015625,14.49278875L8.666015625,8.77802875C8.666015625,8.53564875,8.797560625,8.312368750000001,9.009564625,8.19489875L14.171165625,5.33479875C14.332185625000001,5.24557215,14.535055625,5.30377755,14.624285624999999,5.46480375C14.651675625,5.51423775,14.666055625,5.56982375,14.666055625,5.62633975Z" fill-rule="evenodd" fill="#36A4FF" fill-opacity="1"/></g></g></svg>