<svg xmlns="http://www.w3.org/2000/svg" xmlns:xlink="http://www.w3.org/1999/xlink" fill="none" version="1.1" width="12" height="12" viewBox="0 0 12 12"><g style="mix-blend-mode:passthrough"><g style="opacity:0.20000000298023224;mix-blend-mode:passthrough"><path d="M6,0.5C2.9624,0.5,0.5,2.96243,0.5,6C0.5,9.03757,2.9624,11.5,6,11.5C9.0376,11.5,11.5,9.03757,11.5,6C11.5,2.96243,9.0376,0.5,6,0.5Z" fill="#FF4D4F" fill-opacity="1"/></g><g style="mix-blend-mode:passthrough"><path d="M8.14099,0.932434Q7.11865,0.5,6,0.5Q4.88135,0.5,3.85901,0.932434Q2.87195,1.349945,2.11096,2.1109Q1.3499759999999998,2.87189,0.932373,3.85901Q0.5,4.88135,0.5,6Q0.5,7.11865,0.932373,8.14099Q1.3499759999999998,9.12811,2.11096,9.8891Q2.87195,10.6501,3.85901,11.0676Q4.88135,11.5,6,11.5Q7.11865,11.5,8.14099,11.0676Q9.12805,10.6501,9.88904,9.8891Q10.65,9.12811,11.0676,8.14099Q11.5,7.11865,11.5,6Q11.5,4.88135,11.0676,3.85901Q10.65,2.87189,9.88904,2.1109Q9.12805,1.349945,8.14099,0.932434ZM4.24854,1.85342Q5.08411,1.5,6,1.5Q6.91589,1.5,7.75146,1.85342Q8.55896,2.19495,9.18201,2.81802Q9.80505,3.44107,10.14661,4.24854Q10.5,5.08414,10.5,6Q10.5,6.91586,10.14661,7.75146Q9.80505,8.5589,9.18201,9.18198Q8.55896,9.80505,7.75146,10.14658Q6.91589,10.5,6,10.5Q5.08411,10.5,4.24854,10.14658Q3.44104,9.80505,2.81799,9.18198Q2.19495,8.55893,1.85339,7.75146Q1.5,6.91586,1.5,6Q1.5,5.08414,1.85339,4.24854Q2.19495,3.44107,2.81799,2.81802Q3.44104,2.19495,4.24854,1.85342ZM4.9397,4.23248L4.93945,4.23224C4.8457,4.13846,4.71851,4.08578,4.58594,4.08578C4.45337,4.08578,4.326169999999999,4.13846,4.232419999999999,4.23224C4.138669999999999,4.32599,4.08594,4.45319,4.08594,4.58578C4.08594,4.71838,4.138669999999999,4.84558,4.232419999999999,4.93933L4.232670000000001,4.93961L5.29297,6L4.232670000000001,7.06039L4.232419999999999,7.06067C4.138669999999999,7.15442,4.08594,7.28162,4.08594,7.41422C4.08594,7.54681,4.138669999999999,7.67401,4.232419999999999,7.76776C4.326169999999999,7.86154,4.45337,7.91422,4.58594,7.91422C4.71851,7.91422,4.8457,7.86154,4.93945,7.76776L4.9397,7.76752L6.00012,6.70712L7.06055,7.76752L7.06079,7.76776C7.15454,7.86154,7.28174,7.91422,7.41431,7.91422C7.42297,7.91422,7.43152,7.914,7.44019,7.91354C7.56372,7.90714,7.68042,7.85522,7.76782,7.76776C7.86157,7.67401,7.91431,7.54681,7.91431,7.41422C7.91431,7.40558,7.91406,7.39697,7.9137,7.38834C7.90723,7.26486,7.85535,7.1481,7.76782,7.06067L7.76758,7.06039L6.70728,6L7.76758,4.93961L7.76782,4.93933C7.76782,4.93933,7.77014,4.93704,7.77014,4.93704C7.86255,4.84348,7.91431,4.71729,7.91431,4.58578C7.91431,4.45319,7.86157,4.32599,7.76782,4.23224C7.76782,4.23224,7.76562,4.2299500000000005,7.76562,4.2299500000000005C7.672,4.13757,7.54578,4.08578,7.41431,4.08578C7.28174,4.08578,7.15454,4.13846,7.06079,4.23224L7.06055,4.23248L6.00012,5.29288L4.9397,4.23248Z" fill-rule="evenodd" fill="#FF4D4F" fill-opacity="1"/></g></g></svg>