<svg xmlns="http://www.w3.org/2000/svg" xmlns:xlink="http://www.w3.org/1999/xlink" fill="none" version="1.1" width="16" height="16" viewBox="0 0 16 16"><g style="mix-blend-mode:passthrough"><path d="M1.05449,6.14561Q2.10879,7.2,3.6,7.2L5.6,7.2Q6.2627,7.2,6.73145,6.73135Q7.2,6.26274,7.2,5.6L7.2,3.6Q7.2,2.10884,6.14551,1.05439Q5.09121,0,3.6,0Q2.10879,0,1.05449,1.05439Q0,2.10884,0,3.6Q0,5.09116,1.05449,6.14561ZM8.8,3.6L8.8,5.6Q8.8,6.26274,9.26855,6.73135Q9.7373,7.2,10.4,7.2L12.4,7.2Q13.8912,7.2,14.9455,6.14561Q16,5.09116,16,3.6Q16,2.10884,14.9455,1.05439Q13.8912,0,12.4,0Q10.9088,0,9.85449,1.05439Q8.8,2.10884,8.8,3.6ZM5.6,5.6L3.6,5.6Q2.77148,5.6,2.18574,5.01421Q1.6,4.42842,1.6,3.6Q1.6,2.77158,2.18574,2.18579Q2.77148,1.6,3.6,1.6Q4.42852,1.6,5.01426,2.18579Q5.6,2.77158,5.6,3.6L5.6,5.6ZM12.4,5.6L10.4,5.6L10.4,3.6Q10.4,2.77158,10.9857,2.18579Q11.5715,1.6,12.4,1.6Q13.2285,1.6,13.8143,2.18579Q14.4,2.77158,14.4,3.6Q14.4,4.42842,13.8143,5.01421Q13.2285,5.6,12.4,5.6ZM1.05449,14.9456Q2.10879,16,3.6,16Q5.09121,16,6.14551,14.9456Q7.2,13.8912,7.2,12.4L7.2,10.4Q7.2,9.73726,6.73145,9.26865Q6.2627,8.8,5.6,8.8L3.6,8.8Q2.10879,8.8,1.05449,9.85439Q0,10.9088,0,12.4Q0,13.8912,1.05449,14.9456ZM8.8,10.4L8.8,12.4Q8.8,13.8912,9.85449,14.9456Q10.9088,16,12.4,16Q13.8912,16,14.9455,14.9456Q16,13.8912,16,12.4Q16,10.9088,14.9455,9.85439Q13.8912,8.8,12.4,8.8L10.4,8.8Q9.7373,8.8,9.26855,9.26865Q8.8,9.73726,8.8,10.4ZM5.01426,13.8142Q4.42852,14.4,3.6,14.4Q2.77148,14.4,2.18574,13.8142Q1.6,13.2284,1.6,12.4Q1.6,11.5716,2.18574,10.9858Q2.77148,10.4,3.6,10.4L5.6,10.4L5.6,12.4Q5.6,13.2284,5.01426,13.8142ZM10.9857,13.8142Q10.4,13.2284,10.4,12.4L10.4,10.4L12.4,10.4Q13.2285,10.4,13.8143,10.9858Q14.4,11.5716,14.4,12.4Q14.4,13.2284,13.8143,13.8142Q13.2285,14.4,12.4,14.4Q11.5715,14.4,10.9857,13.8142Z" fill-rule="evenodd" fill="#36A4FF" fill-opacity="1"/></g></svg>