<svg xmlns="http://www.w3.org/2000/svg" xmlns:xlink="http://www.w3.org/1999/xlink" fill="none" version="1.1" width="14.40000057220459" height="13.600000381469727" viewBox="0 0 14.40000057220459 13.600000381469727"><g style="mix-blend-mode:passthrough"><path d="M0,0.8C0,1.24182,0.358203,1.6,0.8,1.6L1.6,1.6C2.0418,1.6,2.4,1.24182,2.4,0.8C2.4,0.358179,2.0418,0,1.6,0L0.8,0C0.358203,0,0,0.358179,0,0.8ZM4.8,1.6L13.6,1.6C14.0418,1.6,14.4,1.24182,14.4,0.8C14.4,0.358179,14.0418,0,13.6,0L4.8,0C4.3582,0,4,0.358179,4,0.8C4,1.24182,4.3582,1.6,4.8,1.6ZM0,4.8C0,5.24182,0.358203,5.6,0.8,5.6L1.6,5.6C2.0418,5.6,2.4,5.24182,2.4,4.8C2.4,4.35818,2.0418,4,1.6,4L0.8,4C0.358203,4,0,4.35818,0,4.8ZM4.8,5.6L13.6,5.6C14.0418,5.6,14.4,5.24182,14.4,4.8C14.4,4.35818,14.0418,4,13.6,4L4.8,4C4.3582,4,4,4.35818,4,4.8C4,5.24182,4.3582,5.6,4.8,5.6ZM0,8.8C0,9.24182,0.358203,9.6,0.8,9.6L1.6,9.6C2.0418,9.6,2.4,9.24182,2.4,8.8C2.4,8.35818,2.0418,8,1.6,8L0.8,8C0.358203,8,0,8.35818,0,8.8ZM4.8,9.6L13.6,9.6C14.0418,9.6,14.4,9.24182,14.4,8.8C14.4,8.35818,14.0418,8,13.6,8L4.8,8C4.3582,8,4,8.35818,4,8.8C4,9.24182,4.3582,9.6,4.8,9.6ZM0,12.8C0,13.2418,0.358203,13.6,0.8,13.6L1.6,13.6C2.0418,13.6,2.4,13.2418,2.4,12.8C2.4,12.3582,2.0418,12,1.6,12L0.8,12C0.358203,12,0,12.3582,0,12.8ZM4.8,13.6L13.6,13.6C14.0418,13.6,14.4,13.2418,14.4,12.8C14.4,12.3582,14.0418,12,13.6,12L4.8,12C4.3582,12,4,12.3582,4,12.8C4,13.2418,4.3582,13.6,4.8,13.6Z" fill-rule="evenodd" fill="#4B4B4B" fill-opacity="1"/></g></svg>