<svg xmlns="http://www.w3.org/2000/svg" xmlns:xlink="http://www.w3.org/1999/xlink" fill="none" version="1.1" width="14.400390625" height="12.229248046875" viewBox="0 0 14.400390625 12.229248046875"><defs><linearGradient x1="0.4142119288444519" y1="0.5353595614433289" x2="0.4169851243495941" y2="0.5388266444206238" id="master_svg0_2271_05643"><stop offset="0%" stop-color="#36A4FF" stop-opacity="1"/><stop offset="100%" stop-color="#BDBDBD" stop-opacity="1"/></linearGradient></defs><g style="mix-blend-mode:passthrough"><path d="M11.0207,0.005685461875L10.9874,-1.2500000004262574e-10L3.49599,-1.2500000004262574e-10L3.39346,0.031375221875L3.33586,0.053120621875L3.25143,0.098685721875L3.19634,0.136443421875L3.12908,0.191765421875L3.04347,0.281087421875L0.148909,3.941012421875L0.0968369,4.020792421875L0.065356,4.075932421875L0.0452111,4.120842421875L0.00574607,4.232502421875C0.00402864,4.247772421875,0.00288369,4.261042421875,0.00219813,4.272982421875L0.00269291,4.333892421875C0.00133085,4.337232421875,0.000422805,4.343132421875,0,4.350722421875L0.00353574,4.409532421875C0.00235387,4.419112421875,0.00156596,4.430942421875,0.00113526,4.444272421875L0.00267547,4.674732421875C0.00249691,4.693532421875,0.00764648,4.712042421875,0.0171153,4.731572421875L0.0344319,4.761782421875L0.0681608,4.837472421875L0.16021,4.969842421875L6.48408,11.951432421875L6.52106,11.984932421875L6.53665,12.004232421875L6.58505,12.045232421875L6.63931,12.084432421875L6.72271,12.133032421875L6.77679,12.158632421875L6.83082,12.178432421875L6.88635,12.193432421875L6.95086,12.196632421875L6.9999,12.212532421875L7.08798,12.224532421875L7.17,12.229332421875L7.2511,12.224732421875L7.2789,12.225332421875L7.35118,12.209832421875L7.40545,12.190732421875L7.46011,12.165732421875L7.54272,12.118732421875L7.60115,12.077332421875L7.64115,12.045232421875L7.67886,12.004232421875L7.69801,11.988532421875L14.2256,5.006922421875L14.2928,4.886722421875L14.3218,4.847352421875L14.3636,4.758482421875L14.3763,4.724032421875L14.3866,4.705242421875L14.3953,4.651112421875C14.3988,4.621532421875,14.3984,4.603092421875,14.397,4.584712421875L14.399,4.453832421875L14.3971,4.382162421875C14.3984,4.378052421875,14.3993,4.371632421875,14.3997,4.363692421875L14.3961,4.304182421875C14.3971,4.302452421875,14.3978,4.298202421875,14.3981,4.292272421875L14.397,4.243402421875C14.3871,4.199412421875,14.3782,4.174092421875,14.3674,4.149572421875L14.3219,4.036792421875L14.2672,3.948982421875L11.4472,0.285521421875L11.3716,0.201423421875L11.2951,0.139749421875L11.2443,0.104131421875L11.1642,0.059192721875L11.0207,0.005685461875ZM4.10878,1.558592421875L1.84766,4.404762421875L7.09966,10.179432421875L12.5407,4.403762421875L10.4,1.595552421875L4.10878,1.558592421875ZM9.69738,3.615232421875L9.79738,3.715232421875L9.79738,5.151342421875L9.69738,5.251342421875L4.70547,5.251342421875L4.60547,5.151342421875L4.60547,3.715232421875L4.70547,3.615232421875L9.69738,3.615232421875Z" fill-rule="evenodd" fill="url(#master_svg0_2271_05643)" fill-opacity="1"/></g></svg>