<svg xmlns="http://www.w3.org/2000/svg" xmlns:xlink="http://www.w3.org/1999/xlink" fill="none" version="1.1" width="16" height="16" viewBox="0 0 16 16"><g style="mix-blend-mode:passthrough"><g style="mix-blend-mode:passthrough"><path d="M11.318526661196094,14.666548046875L11.333335833496093,14.666548046875C11.701526333496094,14.666548046875,12.000003333496094,14.368148046875,12.000003333496094,13.999948046875L12.000003333496094,2.6667480468749996L13.333374333496094,2.666748046875C14.069754333496094,2.666748046875,14.666714333496094,3.263702046875,14.666714333496094,4.000078046875L14.666714333496094,13.333448046875C14.666714333496094,14.069748046875,14.069754333496094,14.666748046875,13.333374333496094,14.666748046875L11.333376633496094,14.666748046875L11.318526661196094,14.666548046875Z" fill-rule="evenodd" fill="#5281E9" fill-opacity="1"/></g><g style="opacity:0.3199999928474426;mix-blend-mode:passthrough"><path d="M2.66664298828125,1.333251953125L10.66664298828125,1.333251953125C11.40301298828125,1.333251953125,12.00001298828125,1.930205953125,12.00001298828125,2.666581953125L12.00001298828125,13.999951953125C12.00001298828125,14.368151953125,11.70151298828125,14.666551953125,11.33331298828125,14.666551953125L2.66664298828125,14.666551953125C1.93026698828125,14.666551953125,1.33331298828125,14.069651953125,1.33331298828125,13.333251953125L1.33331298828125,2.666581953125C1.33331298828125,1.930205953125,1.93026698828125,1.333251953125,2.66664298828125,1.333251953125ZM8.66666298828125,5.333251953125C9.03485298828125,5.333251953125,9.33333298828125,5.631731953125,9.33333298828125,5.999921953125C9.33333298828125,6.341811953125,9.07597298828125,6.623591953125,8.744412988281251,6.662101953125L8.66666298828125,6.666581953125L4.666662988281249,6.666581953125C4.29847298828125,6.666581953125,4.00000298828125,6.368111953125,4.00000298828125,5.999921953125C4.00000298828125,5.658031953125,4.257362988281249,5.376251953125,4.58892298828125,5.337741953125L4.666662988281249,5.333251953125L8.66666298828125,5.333251953125ZM6.66666298828125,8.000001953125C7.03485298828125,8.000001953125,7.33333298828125,8.298481953125,7.33333298828125,8.666671953125C7.33333298828125,9.008561953125,7.07597298828125,9.290341953125,6.74441298828125,9.328851953125L6.66666298828125,9.333331953125L4.666662988281249,9.333331953125C4.29847298828125,9.333331953125,4.00000298828125,9.034851953125,4.00000298828125,8.666671953125C4.00000298828125,8.324771953125001,4.257362988281249,8.042991953125,4.58892298828125,8.004481953125001L4.666662988281249,8.000001953125L6.66666298828125,8.000001953125Z" fill-rule="evenodd" fill="#5281E9" fill-opacity="1"/></g></g></svg>