<svg xmlns="http://www.w3.org/2000/svg" xmlns:xlink="http://www.w3.org/1999/xlink" fill="none" version="1.1" width="16" height="16" viewBox="0 0 16 16"><g style="mix-blend-mode:passthrough"><g style="mix-blend-mode:passthrough"><path d="M11.318465626007969,14.666548046875L11.333335915917969,14.666548046875C11.701526815917969,14.666548046875,12.000002815917968,14.368148046875,12.000002815917968,13.999948046875L12.000002815917968,2.6667480468749996L13.333313815917968,2.666748046875C14.069693815917969,2.666748046875,14.666653815917968,3.263702046875,14.666653815917968,4.000078046875L14.666653815917968,13.333448046875C14.666653815917968,14.069748046875,14.069693815917969,14.666748046875,13.333313815917968,14.666748046875L11.333315515917969,14.666748046875L11.318465626007969,14.666548046875Z" fill-rule="evenodd" fill="#FFFFFF" fill-opacity="1"/></g><g style="opacity:0.3199999928474426;mix-blend-mode:passthrough"><path d="M2.666673505859375,1.333251953125L10.666673505859375,1.333251953125C11.403043505859374,1.333251953125,12.000043505859376,1.930205953125,12.000043505859376,2.666581953125L12.000043505859376,13.999951953125C12.000043505859376,14.368151953125,11.701543505859375,14.666551953125,11.333343505859375,14.666551953125L2.666673505859375,14.666551953125C1.930297505859375,14.666551953125,1.333343505859375,14.069651953125,1.333343505859375,13.333251953125L1.333343505859375,2.666581953125C1.333343505859375,1.930205953125,1.930297505859375,1.333251953125,2.666673505859375,1.333251953125ZM8.666663505859376,5.333251953125C9.034853505859374,5.333251953125,9.333333505859375,5.631731953125,9.333333505859375,5.999921953125C9.333333505859375,6.341811953125,9.075973505859375,6.623591953125,8.744413505859374,6.662101953125L8.666663505859376,6.666581953125L4.6666635058593755,6.666581953125C4.298473505859375,6.666581953125,4.000003505859375,6.368111953125,4.000003505859375,5.999921953125C4.000003505859375,5.658031953125,4.2573635058593755,5.376251953125,4.588923505859375,5.337741953125L4.6666635058593755,5.333251953125L8.666663505859376,5.333251953125ZM6.666663505859375,8.000001953125C7.034853505859375,8.000001953125,7.333333505859375,8.298481953125,7.333333505859375,8.666671953125C7.333333505859375,9.008561953125,7.075973505859375,9.290341953125,6.744413505859375,9.328851953125L6.666663505859375,9.333331953125L4.6666635058593755,9.333331953125C4.298473505859375,9.333331953125,4.000003505859375,9.034851953125,4.000003505859375,8.666671953125C4.000003505859375,8.324771953125001,4.2573635058593755,8.042991953125,4.588923505859375,8.004481953125001L4.6666635058593755,8.000001953125L6.666663505859375,8.000001953125Z" fill-rule="evenodd" fill="#FFFFFF" fill-opacity="1"/></g></g></svg>