<svg width="28" height="28" xmlns="http://www.w3.org/2000/svg"><path opacity=".01" d="M0 0h28v28H0z"/><path d="M8.4 15.15v8.1a1.35 1.35 0 0 1-1.35 1.35h-2.7A1.35 1.35 0 0 1 3 23.25v-8.1c0-.746.604-1.35 1.35-1.35h2.7c.746 0 1.35.604 1.35 1.35zM15.15 3h-2.7a1.35 1.35 0 0 0-1.35 1.35v18.9c0 .746.604 1.35 1.35 1.35h2.7a1.35 1.35 0 0 0 1.35-1.35V4.35A1.35 1.35 0 0 0 15.15 3zm8.1 5.4h-2.7a1.35 1.35 0 0 0-1.35 1.35v13.5c0 .746.604 1.35 1.35 1.35h2.7a1.35 1.35 0 0 0 1.35-1.35V9.75a1.35 1.35 0 0 0-1.35-1.35z"/></svg>