<?xml version="1.0" encoding="UTF-8"?>
<svg width="16px" height="16px" viewBox="0 0 16 16" version="1.1" xmlns="http://www.w3.org/2000/svg" xmlns:xlink="http://www.w3.org/1999/xlink">
    <!-- Generator: Sketch 64 (93537) - https://sketch.com -->
    <title></title>
    <desc>Created with Sketch.</desc>
    <g id="指标中心" stroke="none" stroke-width="1" fill="none" fill-rule="evenodd">
        <g id="画板" transform="translate(-120.000000, -272.000000)" fill-rule="nonzero">
            <g id="icon/导航/指标备份" transform="translate(120.000000, 272.000000)">
                <g id="icon/导航/指标">
                    <rect id="矩形" fill="#FFFFFF" opacity="0.01" x="0" y="0" width="16" height="16"></rect>
                    <path d="M15.4666667,0.533333328 L15.4666667,15.4666667 L0.533333328,15.4666667 L0.533333328,0.533333328 L15.4666667,0.533333328 Z M13.8663333,6.34033333 L2.13233333,6.34033333 L2.13333333,13.8666667 L13.8666667,13.8666667 L13.8663333,6.34033333 Z M5.02460182,7.66889209 L6.07227318,8.71500094 L4.783,10.002 L6.07071068,11.2892046 L5.02460182,12.3353134 L2.72311812,10 L5.02460182,7.66889209 Z M11.1188336,7.66889209 L13.4203173,10 L11.1188336,12.3353134 L10.0727248,11.2892046 L11.3604355,10.002 L10.0711623,8.71500094 L11.1188336,7.66889209 Z M13.8666667,2.13333333 L2.13333333,2.13333333 L2.13233333,4.74033333 L13.8663333,4.74033333 L13.8666667,2.13333333 Z" id="形状结合" fill="#4B4B4B"></path>
                    <polygon id="路径" fill="#FCC53A" transform="translate(7.903296, 10.136527) rotate(20.000000) translate(-7.903296, -10.136527) " points="7.10329626 7.63652733 8.70329626 7.63652733 8.70329626 12.6365273 7.10329626 12.6365273"></polygon>
                </g>
            </g>
        </g>
    </g>
</svg>
