<svg xmlns="http://www.w3.org/2000/svg" xmlns:xlink="http://www.w3.org/1999/xlink" fill="none" version="1.1" width="16" height="16" viewBox="0 0 16 16"><g style="mix-blend-mode:passthrough"><g style="mix-blend-mode:passthrough"><path d="M4.57141,4.571429999999999L4.57141,2.8571429999999998Q4.57141,2.772722,4.58788,2.689923Q4.60435,2.607123,4.63666,2.529128Q4.66896,2.451133,4.71587,2.38094Q4.76277,2.310746,4.8224599999999995,2.251051Q4.88216,2.191356,4.95235,2.144455Q5.022539999999999,2.0975527,5.1005400000000005,2.0652461Q5.17853,2.0329395,5.26133,2.0164698Q5.34413,2,5.4285499999999995,2L6.2857,2Q6.37012,2,6.45292,2.0164698Q6.53572,2.0329395,6.61371,2.0652461Q6.69171,2.0975527,6.7619,2.144455Q6.83209,2.191356,6.89179,2.251051Q6.95148,2.310746,6.99838,2.38094Q7.04529,2.451133,7.07759,2.529128Q7.1099,2.607123,7.12637,2.689923Q7.14284,2.772722,7.14284,2.8571429999999998L7.14284,4.571429999999999Q7.14284,4.65585,7.12637,4.73865Q7.1099,4.8214500000000005,7.07759,4.89944Q7.04529,4.97744,6.99838,5.04763Q6.95148,5.11782,6.89179,5.1775199999999995Q6.83209,5.23721,6.7619,5.28412Q6.69171,5.3310200000000005,6.61371,5.36332Q6.53572,5.395630000000001,6.45292,5.412100000000001Q6.37012,5.428570000000001,6.2857,5.428570000000001L5.4285499999999995,5.428570000000001Q5.34413,5.428570000000001,5.26133,5.412100000000001Q5.17853,5.395630000000001,5.1005400000000005,5.36332Q5.022539999999999,5.3310200000000005,4.95235,5.28412Q4.88216,5.23721,4.8224599999999995,5.1775199999999995Q4.76277,5.11782,4.71587,5.04763Q4.66896,4.97744,4.63666,4.89944Q4.60435,4.8214500000000005,4.58788,4.73865Q4.57141,4.65585,4.57141,4.571429999999999ZM2.428571,3.28564Q2.386361,3.28564,2.344961,3.2938799999999997Q2.303562,3.30211,2.264564,3.31827Q2.225567,3.3344199999999997,2.19047,3.35787Q2.155373,3.38132,2.125526,3.4111700000000003Q2.0956782,3.44102,2.0722272999999998,3.4761100000000003Q2.0487763,3.51121,2.0326231,3.55021Q2.0164698,3.58921,2.00823488,3.63061Q2,3.67201,2,3.71422Q2,3.75643,2.00823488,3.7978300000000003Q2.0164698,3.8392299999999997,2.0326231,3.87822Q2.0487763,3.91722,2.0722272999999998,3.9523200000000003Q2.0956782,3.9874099999999997,2.125526,4.01726Q2.155373,4.04711,2.19047,4.07056Q2.225567,4.09401,2.264564,4.1101600000000005Q2.303562,4.12632,2.344961,4.13455Q2.386361,4.14279,2.428571,4.14279L3.28571,4.14279Q3.3279199999999998,4.14279,3.36932,4.13455Q3.41072,4.12632,3.44972,4.1101600000000005Q3.48872,4.09401,3.5238199999999997,4.07056Q3.55891,4.04711,3.5887599999999997,4.01726Q3.6186100000000003,3.9874099999999997,3.64206,3.9523200000000003Q3.6655100000000003,3.91722,3.68166,3.87822Q3.69782,3.8392299999999997,3.7060500000000003,3.7978300000000003Q3.71429,3.75643,3.71429,3.71422Q3.71429,3.67201,3.7060500000000003,3.63061Q3.69782,3.58921,3.68166,3.55021Q3.6655100000000003,3.51121,3.64206,3.4761100000000003Q3.6186100000000003,3.44102,3.5887599999999997,3.4111700000000003Q3.55891,3.38132,3.5238199999999997,3.35787Q3.48872,3.3344199999999997,3.44972,3.31827Q3.41072,3.30211,3.36932,3.2938799999999997Q3.3279199999999998,3.28564,3.28571,3.28564L2.428571,3.28564ZM8.42857,3.28564Q8.38636,3.28564,8.34496,3.2938799999999997Q8.303560000000001,3.30211,8.26456,3.31827Q8.225570000000001,3.3344199999999997,8.190470000000001,3.35787Q8.15537,3.38132,8.125530000000001,3.4111700000000003Q8.09568,3.44102,8.072230000000001,3.4761100000000003Q8.04878,3.51121,8.03262,3.55021Q8.01647,3.58921,8.008230000000001,3.63061Q8,3.67201,8,3.71422Q8,3.75643,8.008230000000001,3.7978300000000003Q8.01647,3.8392299999999997,8.03262,3.87822Q8.04878,3.91722,8.072230000000001,3.9523200000000003Q8.09568,3.9874099999999997,8.125530000000001,4.01726Q8.15537,4.04711,8.190470000000001,4.07056Q8.225570000000001,4.09401,8.26456,4.1101600000000005Q8.303560000000001,4.12632,8.34496,4.13455Q8.38636,4.14279,8.42857,4.14279L13.5714,4.14279Q13.6136,4.14279,13.655,4.13455Q13.6964,4.12632,13.7354,4.1101600000000005Q13.7744,4.09401,13.8095,4.07056Q13.8446,4.04711,13.8745,4.01726Q13.9043,3.9874099999999997,13.9278,3.9523200000000003Q13.9512,3.91722,13.9674,3.87822Q13.9835,3.8392299999999997,13.9918,3.7978300000000003Q14,3.75643,14,3.71422Q14,3.67201,13.9918,3.63061Q13.9835,3.58921,13.9674,3.55021Q13.9512,3.51121,13.9278,3.4761100000000003Q13.9043,3.44102,13.8745,3.4111700000000003Q13.8446,3.38132,13.8095,3.35787Q13.7744,3.3344199999999997,13.7354,3.31827Q13.6964,3.30211,13.655,3.2938799999999997Q13.6136,3.28564,13.5714,3.28564L8.42857,3.28564ZM4.57141,13.143L4.57141,11.42868Q4.57141,11.34425,4.58788,11.26146Q4.60435,11.17866,4.63666,11.10066Q4.66896,11.02267,4.71587,10.95247Q4.76277,10.88228,4.8224599999999995,10.82258Q4.88216,10.76289,4.95235,10.71599Q5.022539999999999,10.66909,5.1005400000000005,10.63678Q5.17853,10.60447,5.26133,10.588Q5.34413,10.57153,5.4285499999999995,10.57153L6.2857,10.57153Q6.37012,10.57153,6.45292,10.588Q6.53572,10.60447,6.61371,10.63678Q6.69171,10.66909,6.7619,10.71599Q6.83209,10.76289,6.89179,10.82258Q6.95148,10.88228,6.99838,10.95247Q7.04529,11.02267,7.07759,11.10066Q7.1099,11.17866,7.12637,11.26145Q7.14284,11.34425,7.14284,11.42868L7.14284,13.143Q7.14284,13.2274,7.12637,13.3102Q7.1099,13.393,7.07759,13.471Q7.04529,13.549,6.99838,13.6192Q6.95148,13.6894,6.89179,13.7491Q6.83209,13.8087,6.7619,13.8556Q6.69171,13.9026,6.61371,13.9349Q6.53572,13.9672,6.45292,13.9836Q6.37012,14.0001,6.2857,14.0001L5.4285499999999995,14.0001Q5.34413,14.0001,5.26133,13.9836Q5.17853,13.9672,5.1005400000000005,13.9349Q5.022539999999999,13.9026,4.95235,13.8556Q4.88216,13.8087,4.8224599999999995,13.7491Q4.76277,13.6894,4.71587,13.6192Q4.66896,13.549,4.63666,13.471Q4.60435,13.393,4.58788,13.3102Q4.57141,13.2274,4.57141,13.143ZM2.428571,11.85718Q2.386361,11.85718,2.344961,11.86541Q2.303562,11.87365,2.264564,11.8898Q2.225567,11.90595,2.19047,11.9294Q2.155373,11.95286,2.125526,11.9827Q2.0956782,12.0126,2.0722272999999998,12.0476Q2.0487763,12.0827,2.0326231,12.1217Q2.0164698,12.1607,2.00823488,12.2021Q2,12.2435,2,12.2857Q2,12.328,2.00823488,12.3694Q2.0164698,12.4108,2.0326231,12.4498Q2.0487763,12.4888,2.0722272999999998,12.5239Q2.0956782,12.5589,2.125526,12.5888Q2.155373,12.6186,2.19047,12.6421Q2.225567,12.6655,2.264564,12.6817Q2.303562,12.6978,2.344961,12.7061Q2.386361,12.7143,2.428571,12.7143L3.28571,12.7143Q3.3279199999999998,12.7143,3.36932,12.7061Q3.41072,12.6978,3.44972,12.6817Q3.48872,12.6655,3.5238199999999997,12.6421Q3.55891,12.6186,3.5887599999999997,12.5888Q3.6186100000000003,12.5589,3.64206,12.5239Q3.6655100000000003,12.4888,3.68166,12.4498Q3.69782,12.4108,3.7060500000000003,12.3694Q3.71429,12.328,3.71429,12.2857Q3.71429,12.2435,3.7060500000000003,12.2021Q3.69782,12.1607,3.68166,12.1217Q3.6655100000000003,12.0827,3.64206,12.0476Q3.6186100000000003,12.0125,3.5887599999999997,11.9827Q3.55891,11.95285,3.5238199999999997,11.9294Q3.48872,11.90595,3.44972,11.8898Q3.41072,11.87365,3.36932,11.86541Q3.3279199999999998,11.85718,3.28571,11.85718L2.428571,11.85718ZM8.42857,11.85718Q8.38636,11.85718,8.34496,11.86541Q8.303560000000001,11.87365,8.26456,11.8898Q8.225570000000001,11.90595,8.190470000000001,11.9294Q8.15537,11.95286,8.125530000000001,11.9827Q8.09568,12.0126,8.072230000000001,12.0476Q8.04878,12.0827,8.03262,12.1217Q8.01647,12.1607,8.008230000000001,12.2021Q8,12.2435,8,12.2857Q8,12.328,8.008230000000001,12.3694Q8.01647,12.4108,8.03262,12.4498Q8.04878,12.4888,8.072230000000001,12.5239Q8.09568,12.5589,8.125530000000001,12.5888Q8.15537,12.6186,8.190470000000001,12.6421Q8.225570000000001,12.6655,8.26456,12.6817Q8.303560000000001,12.6978,8.34496,12.7061Q8.38636,12.7143,8.42857,12.7143L13.5714,12.7143Q13.6136,12.7143,13.655,12.7061Q13.6964,12.6978,13.7354,12.6817Q13.7744,12.6655,13.8095,12.6421Q13.8446,12.6186,13.8745,12.5888Q13.9043,12.5589,13.9278,12.5239Q13.9512,12.4888,13.9674,12.4498Q13.9835,12.4108,13.9918,12.3694Q14,12.328,14,12.2857Q14,12.2435,13.9918,12.2021Q13.9835,12.1607,13.9674,12.1217Q13.9512,12.0827,13.9278,12.0476Q13.9043,12.0125,13.8745,11.9827Q13.8446,11.95285,13.8095,11.9294Q13.7744,11.90595,13.7354,11.8898Q13.6964,11.87365,13.655,11.86541Q13.6136,11.85718,13.5714,11.85718L8.42857,11.85718Z" fill-rule="evenodd" fill="#FFFFFF" fill-opacity="1"/></g><g style="opacity:0.3199999928474426;mix-blend-mode:passthrough"><path d="M8.85718,7.1428924354248045L8.85718,8.857179435424804Q8.85718,8.941599435424806,8.87365,9.024399435424804Q8.89012,9.107199435424805,8.922419999999999,9.185189435424805Q8.95473,9.263189435424804,9.001629999999999,9.333379435424805Q9.04853,9.403569435424805,9.108229999999999,9.463269435424804Q9.167919999999999,9.522959435424806,9.23812,9.569869435424804Q9.308309999999999,9.616769435424805,9.38631,9.649069435424805Q9.4643,9.681379435424805,9.5471,9.697849435424805Q9.6299,9.714319435424805,9.71432,9.714319435424805L10.57146,9.714319435424805Q10.65588,9.714319435424805,10.73868,9.697849435424805Q10.82148,9.681379435424805,10.89948,9.649069435424805Q10.97747,9.616769435424805,11.04766,9.569869435424804Q11.11786,9.522959435424806,11.17755,9.463269435424804Q11.23725,9.403569435424805,11.28415,9.333379435424805Q11.33105,9.263189435424804,11.36336,9.185189435424805Q11.39567,9.107199435424805,11.41214,9.024399435424804Q11.42861,8.941599435424806,11.42861,8.857179435424804L11.42861,7.1428924354248045Q11.42861,7.058471435424805,11.41214,6.975672435424805Q11.39567,6.892872435424804,11.36336,6.814877435424805Q11.33105,6.736882435424805,11.28415,6.6666894354248045Q11.23725,6.596495435424805,11.17755,6.536800435424805Q11.11786,6.4771054354248045,11.04766,6.4302044354248045Q10.97747,6.383302135424804,10.89948,6.350995535424805Q10.82148,6.318688935424805,10.73868,6.302219235424805Q10.65588,6.285749435424805,10.57146,6.285749435424805L9.71432,6.285749435424805Q9.6299,6.285749435424805,9.5471,6.302219235424805Q9.4643,6.318688935424805,9.38631,6.350995535424805Q9.308309999999999,6.383302135424804,9.23812,6.4302044354248045Q9.167919999999999,6.4771054354248045,9.108229999999999,6.536800435424805Q9.04853,6.596495435424805,9.001629999999999,6.6666894354248045Q8.95473,6.736882435424805,8.922419999999999,6.814877435424805Q8.89012,6.892872435424804,8.87365,6.975672435424805Q8.85718,7.058471435424805,8.85718,7.1428924354248045ZM2,7.999969435424805Q2,7.957759435424805,2.00823488,7.916359435424805Q2.0164698,7.874959435424804,2.0326231,7.8359594354248046Q2.0487763,7.796959435424805,2.0722272999999998,7.761859435424805Q2.0956782,7.726769435424805,2.125526,7.696919435424805Q2.155373,7.667069435424805,2.19047,7.643619435424805Q2.225567,7.620169435424804,2.264564,7.604019435424805Q2.303562,7.587859435424805,2.344961,7.579629435424804Q2.386361,7.571389435424805,2.428571,7.571389435424805L7.57143,7.571389435424805Q7.61364,7.571389435424805,7.65504,7.579629435424804Q7.69644,7.587859435424805,7.73544,7.604019435424805Q7.77443,7.620169435424804,7.80953,7.643619435424805Q7.84463,7.667069435424805,7.87447,7.696919435424805Q7.90432,7.726769435424805,7.92777,7.761859435424805Q7.95122,7.796959435424805,7.96738,7.8359594354248046Q7.98353,7.874959435424804,7.99176,7.916359435424805Q8,7.957759435424805,8,7.999969435424805Q8,8.042179435424805,7.99176,8.083579435424804Q7.98353,8.124979435424805,7.96738,8.163969435424805Q7.95122,8.202969435424805,7.92777,8.238069435424805Q7.90432,8.273159435424805,7.87447,8.303009435424805Q7.84463,8.332859435424805,7.80953,8.356309435424805Q7.77443,8.379759435424806,7.73544,8.395909435424805Q7.69644,8.412069435424804,7.65504,8.420299435424806Q7.61364,8.428539435424804,7.57143,8.428539435424804L2.428571,8.428539435424804Q2.386361,8.428539435424804,2.344961,8.420299435424806Q2.303562,8.412069435424804,2.264564,8.395909435424805Q2.225567,8.379759435424806,2.19047,8.356309435424805Q2.155373,8.332859435424805,2.125526,8.303009435424805Q2.0956782,8.273159435424805,2.0722272999999998,8.238069435424805Q2.0487763,8.202969435424805,2.0326231,8.163969435424805Q2.0164698,8.124979435424805,2.00823488,8.083579435424804Q2,8.042179435424805,2,7.999969435424805ZM12.2858,7.999969435424805Q12.2858,7.957759435424805,12.294,7.916359435424805Q12.3022,7.874959435424804,12.3184,7.8359594354248046Q12.3345,7.796959435424805,12.358,7.761859435424805Q12.3814,7.726769435424805,12.4113,7.696919435424805Q12.4411,7.667069435424805,12.4762,7.643619435424805Q12.5113,7.620169435424804,12.5503,7.604019435424805Q12.5893,7.587859435424805,12.6307,7.579629435424804Q12.6721,7.571389435424805,12.7143,7.571389435424805L13.5715,7.571389435424805Q13.6137,7.571389435424805,13.6551,7.579629435424804Q13.6965,7.587859435424805,13.7355,7.604019435424805Q13.7745,7.620169435424804,13.8096,7.643619435424805Q13.8447,7.667069435424805,13.8745,7.696919435424805Q13.9044,7.726769435424805,13.9278,7.761859435424805Q13.9513,7.796959435424805,13.9674,7.8359594354248046Q13.9836,7.874959435424804,13.9918,7.916359435424805Q14.0001,7.957759435424805,14.0001,7.999969435424805Q14.0001,8.042179435424805,13.9918,8.083579435424804Q13.9836,8.124979435424805,13.9674,8.163969435424805Q13.9513,8.202969435424805,13.9278,8.238069435424805Q13.9044,8.273159435424805,13.8745,8.303009435424805Q13.8447,8.332859435424805,13.8096,8.356309435424805Q13.7745,8.379759435424806,13.7355,8.395909435424805Q13.6965,8.412069435424804,13.6551,8.420299435424806Q13.6137,8.428539435424804,13.5715,8.428539435424804L12.7143,8.428539435424804Q12.6721,8.428539435424804,12.6307,8.420299435424806Q12.5893,8.412069435424804,12.5503,8.395909435424805Q12.5113,8.379759435424806,12.4762,8.356309435424805Q12.4411,8.332859435424805,12.4113,8.303009435424805Q12.3814,8.273159435424805,12.358,8.238069435424805Q12.3345,8.202969435424805,12.3184,8.163969435424805Q12.3022,8.124979435424805,12.294,8.083579435424804Q12.2858,8.042179435424805,12.2858,7.999969435424805Z" fill-rule="evenodd" fill="#FFFFFF" fill-opacity="1"/></g></g></svg>