<svg xmlns="http://www.w3.org/2000/svg" xmlns:xlink="http://www.w3.org/1999/xlink" fill="none" version="1.1" width="16" height="16" viewBox="0 0 16 16"><g style="mix-blend-mode:passthrough"><g style="mix-blend-mode:passthrough"><path d="M14.3282,2.060293C14.2935,2.0217383,14.2458,2,14.1961,2L9.18464,2L9.13556,2.00714527C9.05741,2.0304332,9,2.107969,9,2.20003L9,7.5006L9.0066,7.55378C9.02809,7.63844,9.09966,7.70063,9.18464,7.70063L9.23184,7.69398C9.26239,7.68523,9.29063,7.66805,9.31363,7.64373L10.9488,5.91652Q12.8513,7.41044,12.6184,9.94812C12.491,11.33633,11.7263,12.9106,10.32313,14.6698C10.26855,14.7384,10.26328,14.8381,10.31028,14.913C10.36762,15.0043,10.48247,15.028,10.56544,14.9637C13.6775,13.1431,15,10.75331,15,8.96101Q15,6.06149,13.0511,4.09007L12.8546,3.89711L14.3251,2.343158L14.3603,2.291694C14.3957,2.21723,14.3852,2.123531,14.3282,2.060293ZM1,12L1,14Q1,14.0985,1.0192147,14.1951Q1.0384294,14.2917,1.0761205,14.3827Q1.113811,14.4737,1.16853,14.5556Q1.223249,14.6375,1.292893,14.7071Q1.362537,14.7767,1.44443,14.8315Q1.526322,14.8862,1.617316,14.9239Q1.7083110000000001,14.9616,1.80491,14.9808Q1.901509,15,2,15L6,15Q6.09849,15,6.19509,14.9808Q6.29169,14.9616,6.38268,14.9239Q6.47368,14.8862,6.55557,14.8315Q6.63746,14.7767,6.70711,14.7071Q6.77675,14.6375,6.83147,14.5556Q6.88619,14.4737,6.92388,14.3827Q6.96157,14.2917,6.98078,14.1951Q7,14.0985,7,14L7,12Q7,11.90151,6.98078,11.80491Q6.96157,11.70831,6.92388,11.61732Q6.88619,11.52632,6.83147,11.44443Q6.77675,11.36254,6.70711,11.29289Q6.63746,11.22325,6.55557,11.16853Q6.47368,11.11381,6.38268,11.07612Q6.29169,11.03843,6.19509,11.01921Q6.09849,11,6,11L2,11Q1.901509,11,1.80491,11.01921Q1.7083110000000001,11.03843,1.617316,11.07612Q1.526322,11.11381,1.44443,11.16853Q1.362537,11.22325,1.292893,11.29289Q1.223249,11.36254,1.16853,11.44443Q1.113811,11.52632,1.0761205,11.61732Q1.0384294,11.70831,1.0192147,11.80491Q1,11.90151,1,12Z" fill-rule="evenodd" fill="#FFFFFF" fill-opacity="1"/></g><g style="opacity:0.3199999928474426;mix-blend-mode:passthrough"><path d="M6,1C6.55229,1,7,1.447715,7,2L7,4C7,4.55228,6.55229,5,6,5L2,5C1.447715,5,1,4.55228,1,4L1,2C1,1.447715,1.447715,1,2,1L6,1ZM6,2L2,2L2,4L6,4L6,2ZM6,6C6.55229,6,7,6.44772,7,7L7,9C7,9.55229,6.55229,10,6,10L2,10C1.447715,10,1,9.55229,1,9L1,7C1,6.44772,1.447715,6,2,6L6,6ZM6,7L2,7L2,9L6,9L6,7Z" fill-rule="evenodd" fill="#FFFFFF" fill-opacity="1"/></g></g></svg>