<svg width="28" height="28" xmlns="http://www.w3.org/2000/svg"><path opacity=".01" d="M0 0h28v28H0z"/><path d="M23.308 21.615V5.538a.845.845 0 0 0-.846-.846H6.385C6.385 3.757 7.142 3 8.077 3h15.23A1.69 1.69 0 0 1 25 4.692v15.23c0 .936-.757 1.693-1.692 1.693zM21.615 8.077v15.23c0 .936-.757 1.693-1.692 1.693H4.693A1.692 1.692 0 0 1 3 23.308V8.078c0-.936.757-1.693 1.692-1.693h15.23c.936 0 1.693.757 1.693 1.692zm-3.385 3.385H6.385a.845.845 0 1 0 0 1.691H18.23a.845.845 0 0 0 0-1.69zm0 5.076H6.385a.845.845 0 0 0 0 1.69H18.23a.845.845 0 0 0 0-1.69z"/></svg>