<svg xmlns="http://www.w3.org/2000/svg" xmlns:xlink="http://www.w3.org/1999/xlink" fill="none" version="1.1" width="16" height="16" viewBox="0 0 16 16"><defs><clipPath id="master_svg0_2102_7263"><rect x="0" y="0" width="16" height="16" rx="0"/></clipPath></defs><g style="mix-blend-mode:passthrough" clip-path="url(#master_svg0_2102_7263)"><g style="mix-blend-mode:passthrough"><g style="opacity:0.3199999928474426;mix-blend-mode:passthrough"><path d="M7.9999559765625,1.3333320617675781C3.9498759765625,1.3333320617675781,0.6666259765625,4.616582061767578,0.6666259765625,8.666662061767578C0.6666259765625,10.663322061767579,1.4692959765625,12.534132061767577,2.8670559765625,13.904132061767578L3.0092059765625,14.037432061767579L3.1841959765625,14.191132061767577L3.3927559765625,14.365932061767579C3.6310259765625,14.562232061767578,3.9304759765625,14.669632061767578,4.2395559765624995,14.669732061767577L11.7639259765625,14.667232061767578C12.0733259765625,14.666932061767579,12.3725259765625,14.559332061767579,12.6109259765625,14.362932061767578L12.8192259765625,14.188132061767577C12.8830259765625,14.133432061767579,12.9412259765625,14.082232061767579,12.9940259765625,14.034432061767578L13.1359259765625,13.901132061767578C14.5318259765625,12.531332061767579,15.3333259765625,10.661802061767577,15.3333259765625,8.666662061767578C15.3333259765625,4.616582061767578,12.0500259765625,1.3333320617675781,7.9999559765625,1.3333320617675781ZM8.6622259765625,3.922252061767578C8.6237159765625,3.590692061767578,8.3419359765625,3.333332061767578,8.0000359765625,3.333332061767578C7.6318459765625,3.333332061767578,7.3333759765625,3.631812061767578,7.3333759765625,4.000002061767578L7.3333759765625,4.666662061767578L7.3378559765625,4.744412061767578C7.3763659765625,5.075972061767578,7.6581459765625,5.333332061767578,8.0000359765625,5.333332061767578C8.3682259765625,5.333332061767578,8.6667059765625,5.0348520617675785,8.6667059765625,4.666662061767578L8.6667059765625,4.000002061767578L8.6622259765625,3.922252061767578ZM11.8230259765625,5.780092061767578C12.0302259765625,5.518412061767578,12.0129259765625,5.137182061767579,11.7712259765625,4.895432061767578C11.5108259765625,4.635082061767578,11.0887259765625,4.635082061767578,10.8284259765625,4.895432061767578L10.3569959765625,5.366832061767578L10.3051959765625,5.424982061767578C10.0979759765625,5.686662061767578,10.1152459765625,6.067892061767578,10.3569959765625,6.309642061767578C10.6173459765625,6.569992061767578,11.0394259765625,6.569992061767578,11.2998259765625,6.309642061767578L11.7712259765625,5.838232061767578L11.8230259765625,5.780092061767578ZM4.2287259765625,4.895432061767578C4.4704859765625,4.653672061767578,4.8517159765625,4.636402061767578,5.1133859765625,4.843622061767578L5.1715359765625,4.895432061767578L5.6429459765625,5.366832061767578C5.9032959765625,5.627182061767578,5.9032959765625,6.049292061767578,5.6429459765625,6.309642061767578C5.4011859765625,6.5513920617675785,5.0199559765625,6.568662061767578,4.7582759765625,6.361442061767578L4.7001359765625,6.309642061767578L4.2287259765625,5.838242061767578C3.9683759765625,5.577892061767578,3.9683759765625,5.155782061767578,4.2287259765625,4.895432061767578ZM7.3377759765625,10.077752061767578C7.3762859765625,10.409312061767578,7.6580659765625,10.666672061767578,7.9999559765625,10.666672061767578C8.3681459765625,10.666672061767578,8.6666259765625,10.368192061767578,8.6666259765625,10.000002061767578L8.6666259765625,7.333332061767578L8.6621359765625,7.255592061767578C8.6236259765625,6.924032061767578,8.3418459765625,6.666672061767578,7.9999559765625,6.666672061767578C7.6317659765625,6.666672061767578,7.3332959765625,6.965142061767578,7.3332959765625,7.333332061767578L7.3332959765625,10.000002061767578L7.3377759765625,10.077752061767578ZM13.3333259765625,8.666662061767578C13.3333259765625,9.008562061767577,13.0760259765625,9.290342061767578,12.7444259765625,9.328852061767577L12.6667259765625,9.333332061767578L12.0000259765625,9.333332061767578C11.6318259765625,9.333332061767578,11.3333259765625,9.034852061767578,11.3333259765625,8.666662061767578C11.3333259765625,8.324772061767579,11.5907259765625,8.042992061767578,11.9223259765625,8.004482061767579L12.0000259765625,8.000002061767578L12.6667259765625,8.000002061767578C13.0349259765625,8.000002061767578,13.3333259765625,8.298472061767578,13.3333259765625,8.666662061767578ZM2.6666259765625,8.666672061767578C2.6666259765625,8.324782061767579,2.9239859765625,8.043002061767577,3.2555459765625,8.004492061767579L3.3332959765625,8.000002061767578L3.9999559765625,8.000002061767578C4.3681459765625,8.000002061767578,4.6666259765625,8.29848206176758,4.6666259765625,8.666672061767578C4.6666259765625,9.008562061767577,4.4092659765625,9.290342061767578,4.0777059765625,9.328852061767577L3.9999559765625,9.333332061767578L3.3332959765625,9.333332061767578C2.9651059765625,9.333332061767578,2.6666259765625,9.034862061767578,2.6666259765625,8.666672061767578Z" fill-rule="evenodd" fill="#5281E9" fill-opacity="1"/></g><g style="mix-blend-mode:passthrough"><path d="M8.0000359765625,3.333332061767578C8.3419359765625,3.333332061767578,8.6237159765625,3.590692061767578,8.6622259765625,3.922251061767578L8.6667059765625,3.999999061767578L8.6667059765625,4.666662061767578C8.6667059765625,5.0348520617675785,8.3682259765625,5.333332061767578,8.0000359765625,5.333332061767578C7.6581459765625,5.333332061767578,7.3763659765625,5.075972061767578,7.3378559765625,4.744412061767578L7.3333759765625,4.666662061767578L7.3333759765625,3.999999061767578C7.3333759765625,3.6318090617675782,7.6318459765625,3.333332061767578,8.0000359765625,3.333332061767578ZM11.7712059765625,4.895432061767578C12.0129659765625,5.137182061767578,12.0302259765625,5.518412061767578,11.8230159765625,5.7800920617675775L11.7712059765625,5.838232061767578L11.2998059765625,6.309642061767578C11.0394559765625,6.569992061767579,10.6173459765625,6.569992061767579,10.3569959765625,6.309642061767578C10.1152459765625,6.067892061767578,10.0979759765625,5.686662061767578,10.3051959765625,5.424982061767578L10.3569959765625,5.366832061767578L10.8283959765625,4.895432061767578C11.0887459765625,4.635082061767578,11.5108559765625,4.635082061767578,11.7712059765625,4.895432061767578ZM5.113385976562499,4.843622061767578C4.851715976562501,4.636402061767578,4.4704859765625,4.653672061767578,4.2287259765625,4.895432061767578C3.9683759765625,5.155782061767578,3.9683759765625,5.577892061767578,4.2287259765625,5.838242061767579L4.7001359765625,6.309642061767578L4.7582759765625,6.361442061767578C5.0199559765625,6.5686620617675775,5.4011859765625,6.551392061767578,5.642945976562499,6.309642061767578C5.9032959765625,6.049292061767578,5.9032959765625,5.627182061767578,5.642945976562499,5.366832061767578L5.171535976562501,4.895432061767578L5.113385976562499,4.843622061767578ZM7.3377759765625,10.077752061767578C7.3762859765625,10.40931206176758,7.6580659765625,10.666672061767578,7.9999559765625,10.666672061767578C8.3681459765625,10.666672061767578,8.6666259765625,10.368192061767578,8.6666259765625,10.000002061767578L8.6666259765625,7.333332061767578L8.6621359765625,7.255592061767578C8.6236259765625,6.924032061767578,8.3418459765625,6.666672061767578,7.9999559765625,6.666672061767578C7.6317659765625,6.666672061767578,7.3332959765625,6.965142061767578,7.3332959765625,7.333332061767578L7.3332959765625,10.000002061767578L7.3377759765625,10.077752061767578ZM12.7444259765625,9.328852061767577C13.0760259765625,9.290342061767578,13.3333259765625,9.008562061767577,13.3333259765625,8.666662061767578C13.3333259765625,8.298472061767578,13.0349259765625,8.000002061767578,12.6667259765625,8.000002061767578L12.0000459765625,8.000002061767578L11.9222959765625,8.004482061767579C11.5907359765625,8.042992061767578,11.3333759765625,8.324772061767579,11.3333759765625,8.666662061767578C11.3333759765625,9.034852061767578,11.6318559765625,9.333332061767578,12.0000459765625,9.333332061767578L12.6667259765625,9.333332061767578L12.7444259765625,9.328852061767577ZM3.2555449765624997,8.004492061767579C2.9239859765625,8.043002061767577,2.6666259765625,8.324782061767579,2.6666259765625,8.666672061767578C2.6666259765625,9.034862061767578,2.9651029765625,9.333332061767578,3.3332929765625,9.333332061767578L3.9999559765625,9.333332061767578L4.0777059765625,9.328852061767577C4.4092659765625,9.290342061767578,4.6666259765625,9.008562061767577,4.6666259765625,8.666672061767578C4.6666259765625,8.29848206176758,4.3681459765625,8.000002061767578,3.9999559765625,8.000002061767578L3.3332929765625,8.000002061767578L3.2555449765624997,8.004492061767579Z" fill-rule="evenodd" fill="#5281E9" fill-opacity="1"/></g></g></g></svg>