<svg xmlns="http://www.w3.org/2000/svg" xmlns:xlink="http://www.w3.org/1999/xlink" fill="none" version="1.1" width="16" height="16" viewBox="0 0 16 16"><g style="mix-blend-mode:passthrough"><g style="opacity:0.3199999928474426;mix-blend-mode:passthrough"><path d="M7.9999559765625,1.333343505859375C3.9498759765625,1.333343505859375,0.6666259765625,4.616593505859375,0.6666259765625,8.666673505859375C0.6666259765625,10.663333505859375,1.4692959765625,12.534143505859374,2.8670559765625,13.904143505859375L3.0092059765625,14.037443505859375L3.1841959765625,14.191143505859374L3.3927559765625,14.365943505859375C3.6310259765625,14.562243505859374,3.9304759765625,14.669643505859375,4.2395559765624995,14.669743505859374L11.7639259765625,14.667243505859375C12.0733259765625,14.666943505859376,12.3725259765625,14.559343505859376,12.6109259765625,14.362943505859375L12.8192259765625,14.188143505859374C12.8830259765625,14.133443505859375,12.9412259765625,14.082243505859376,12.9940259765625,14.034443505859375L13.1359259765625,13.901143505859375C14.5318259765625,12.531343505859375,15.3333259765625,10.661813505859374,15.3333259765625,8.666673505859375C15.3333259765625,4.616593505859375,12.0500259765625,1.333343505859375,7.9999559765625,1.333343505859375ZM8.6622259765625,3.922263505859375C8.6237159765625,3.590703505859375,8.3419359765625,3.333343505859375,8.0000359765625,3.333343505859375C7.6318459765625,3.333343505859375,7.3333759765625,3.631823505859375,7.3333759765625,4.000013505859375L7.3333759765625,4.666673505859375L7.3378559765625,4.744423505859375C7.3763659765625,5.075983505859375,7.6581459765625,5.333343505859375,8.0000359765625,5.333343505859375C8.3682259765625,5.333343505859375,8.6667059765625,5.034863505859375,8.6667059765625,4.666673505859375L8.6667059765625,4.000013505859375L8.6622259765625,3.922263505859375ZM11.8230259765625,5.780073505859375C12.0303259765625,5.518403505859375,12.0130259765625,5.137173505859375,11.7712259765625,4.895413505859375C11.5109259765625,4.6350635058593745,11.0888259765625,4.6350635058593745,10.8284259765625,4.895413505859375L10.3570559765625,5.366823505859375L10.3052559765625,5.424963505859375C10.0980359765625,5.686643505859375,10.1153059765625,6.067873505859375,10.3570559765625,6.309623505859375C10.6174059765625,6.569973505859375,11.0395259765625,6.569973505859375,11.2998259765625,6.309623505859375L11.7712259765625,5.838223505859375L11.8230259765625,5.780073505859375ZM4.2287259765625,4.895413505859375C4.4704859765625,4.653663505859376,4.8517159765625,4.636393505859375,5.1133859765625,4.843613505859375L5.1715359765625,4.895413505859375L5.6429459765625,5.366823505859375C5.9032959765625,5.627173505859375,5.9032859765625,6.049283505859375,5.6429459765625,6.309633505859375C5.4011859765625,6.551383505859375,5.0199559765625,6.568653505859375,4.7582759765625,6.361433505859375L4.7001359765625,6.309633505859375L4.2287259765625,5.838223505859375C3.9683759765625,5.577873505859375,3.9683759765625,5.155763505859375,4.2287259765625,4.895413505859375ZM7.3377759765625,10.077733505859374C7.3762859765625,10.409293505859376,7.6580659765625,10.666653505859376,7.9999559765625,10.666653505859376C8.3681459765625,10.666653505859376,8.6666259765625,10.368183505859376,8.6666259765625,9.999993505859376L8.6666259765625,7.333323505859375L8.6621359765625,7.255573505859375C8.6236259765625,6.924013505859375,8.3418459765625,6.666653505859375,7.9999559765625,6.666653505859375C7.6317659765625,6.666653505859375,7.3332959765625,6.965133505859375,7.3332959765625,7.333323505859375L7.3332959765625,9.999993505859376L7.3377759765625,10.077733505859374ZM13.3333259765625,8.666663505859376C13.3333259765625,9.008553505859375,13.0760259765625,9.290333505859376,12.7444259765625,9.328843505859375L12.6667259765625,9.333333505859375L12.0000259765625,9.333333505859375C11.6318259765625,9.333333505859375,11.3333259765625,9.034853505859374,11.3333259765625,8.666663505859376C11.3333259765625,8.324773505859376,11.5907259765625,8.042993505859375,11.9223259765625,8.004483505859376L12.0000259765625,8.000003505859375L12.6667259765625,8.000003505859375C13.0349259765625,8.000003505859375,13.3333259765625,8.298473505859375,13.3333259765625,8.666663505859376ZM2.6666259765625,8.666673505859375C2.6666259765625,8.324783505859376,2.9239859765625,8.043003505859375,3.2555459765625,8.004493505859376L3.3332959765625,8.000013505859375L3.9999559765625,8.000013505859375C4.3681459765625,8.000013505859375,4.6666259765625,8.298483505859375,4.6666259765625,8.666673505859375C4.6666259765625,9.008563505859374,4.4092659765625,9.290343505859376,4.0777059765625,9.328853505859374L3.9999559765625,9.333343505859375L3.3332959765625,9.333343505859375C2.9651059765625,9.333343505859375,2.6666259765625,9.034863505859375,2.6666259765625,8.666673505859375Z" fill-rule="evenodd" fill="#FFFFFF" fill-opacity="1"/></g><g style="mix-blend-mode:passthrough"><path d="M8.0000359765625,3.333343505859375C8.3419359765625,3.333343505859375,8.6237159765625,3.590703505859375,8.6622259765625,3.9222625058593747L8.6667059765625,4.000010505859375L8.6667059765625,4.666673505859375C8.6667059765625,5.034863505859375,8.3682259765625,5.333343505859375,8.0000359765625,5.333343505859375C7.6581459765625,5.333343505859375,7.3763659765625,5.075983505859375,7.3378559765625,4.744423505859375L7.3333759765625,4.666673505859375L7.3333759765625,4.000010505859375C7.3333759765625,3.631820505859375,7.6318459765625,3.333343505859375,8.0000359765625,3.333343505859375ZM11.7712659765625,4.895413505859375C12.0130259765625,5.137173505859375,12.0302959765625,5.518403505859375,11.8230759765625,5.7800735058593755L11.7712659765625,5.838223505859375L11.2998659765625,6.3096335058593755C11.0395159765625,6.569973505859375,10.6174059765625,6.569973505859375,10.3570559765625,6.309623505859375C10.1153059765625,6.0678735058593745,10.0980359765625,5.686643505859375,10.3052559765625,5.424963505859375L10.3570559765625,5.366823505859375L10.8284659765625,4.895413505859375C11.0888059765625,4.6350635058593745,11.5109159765625,4.6350635058593745,11.7712659765625,4.895413505859375ZM5.113385976562499,4.843613505859375C4.851715976562501,4.636393505859375,4.4704859765625,4.653663505859375,4.2287259765625,4.895413505859375C3.9683759765625,5.155763505859375,3.9683759765625,5.577873505859375,4.2287259765625,5.838223505859375L4.7001359765625,6.3096335058593755L4.7582759765625,6.361433505859376C5.0199559765625,6.568653505859375,5.4011859765625,6.551383505859375,5.642945976562499,6.3096335058593755C5.9032959765625,6.049283505859375,5.9032959765625,5.627173505859375,5.642945976562499,5.366823505859375L5.171535976562501,4.895413505859375L5.113385976562499,4.843613505859375ZM7.3377759765625,10.077733505859374C7.3762859765625,10.409293505859374,7.6580659765625,10.666653505859376,7.9999559765625,10.666653505859376C8.3681459765625,10.666653505859376,8.6666259765625,10.368183505859374,8.6666259765625,9.999993505859376L8.6666259765625,7.333323505859375L8.6621359765625,7.255573505859375C8.6236259765625,6.924013505859374,8.3418459765625,6.666653505859375,7.9999559765625,6.666653505859375C7.6317659765625,6.666653505859375,7.3332959765625,6.9651335058593755,7.3332959765625,7.333323505859375L7.3332959765625,9.999993505859376L7.3377759765625,10.077733505859374ZM12.7444259765625,9.328843505859375C13.0760259765625,9.290333505859376,13.3333259765625,9.008553505859375,13.3333259765625,8.666663505859376C13.3333259765625,8.298473505859375,13.0349259765625,8.000003505859375,12.6667259765625,8.000003505859375L12.0000459765625,8.000003505859375L11.9222959765625,8.004483505859376C11.5907359765625,8.042993505859375,11.3333759765625,8.324773505859376,11.3333759765625,8.666663505859376C11.3333759765625,9.034853505859374,11.6318559765625,9.333333505859375,12.0000459765625,9.333333505859375L12.6667259765625,9.333333505859375L12.7444259765625,9.328843505859375ZM3.2555449765624997,8.004493505859376C2.9239859765625,8.043003505859375,2.6666259765625,8.324783505859376,2.6666259765625,8.666673505859375C2.6666259765625,9.034863505859375,2.9651029765625,9.333343505859375,3.3332929765625,9.333343505859375L3.9999559765625,9.333343505859375L4.0777059765625,9.328853505859374C4.4092659765625,9.290343505859376,4.6666259765625,9.008563505859374,4.6666259765625,8.666673505859375C4.6666259765625,8.298483505859375,4.3681459765625,8.000013505859375,3.9999559765625,8.000013505859375L3.3332929765625,8.000013505859375L3.2555449765624997,8.004493505859376Z" fill-rule="evenodd" fill="#FFFFFF" fill-opacity="1"/></g></g></svg>