<svg xmlns="http://www.w3.org/2000/svg" xmlns:xlink="http://www.w3.org/1999/xlink" fill="none" version="1.1" width="108" height="108" viewBox="0 0 108 108"><defs><linearGradient x1="0.14645147323608398" y1="0.853548526763916" x2="0.8585201501846313" y2="0.14147983491420746" id="master_svg0_0_489"><stop offset="0%" stop-color="#FFED46" stop-opacity="1"/><stop offset="100%" stop-color="#E49E14" stop-opacity="1"/></linearGradient></defs><g style="mix-blend-mode:passthrough"><g style="mix-blend-mode:passthrough"></g><g style="mix-blend-mode:passthrough"><path d="M32.018463134765625,54.00147211914063C32.018463134765625,66.13827211914062,41.859663134765626,75.98117211914062,53.99976313476563,75.98117211914062L53.99976313476563,75.98117211914062C66.13826313476562,75.98117211914062,75.97946313476562,66.13827211914062,75.97946313476562,54.00147211914063L75.97946313476562,54.00147211914063C75.97946313476562,41.861372119140626,66.13826313476562,32.020172119140625,53.99976313476563,32.020172119140625L53.99976313476563,32.020172119140625C41.859663134765626,32.020172119140625,32.018463134765625,41.861372119140626,32.018463134765625,54.00147211914063Z" fill-rule="evenodd" fill="url(#master_svg0_0_489)" fill-opacity="1"/></g><g style="mix-blend-mode:passthrough"><path d="M57.35703343658447,8.54028256439209C57.13263343658447,6.88647256439209,55.71503343658447,5.61179256439209,53.999633436584475,5.61179256439209C52.12833343658447,5.61179256439209,50.61143343658447,7.12877256439209,50.61143343658447,9.000052564392089L50.61143343658447,24.14729256439209L50.64233343658447,24.60699256439209C50.866733436584475,26.26089256439209,52.284333436584475,27.53549256439209,53.999633436584475,27.53549256439209C55.87093343658447,27.53549256439209,57.387933436584476,26.01859256439209,57.387933436584476,24.14729256439209L57.387933436584476,9.000052564392089L57.35703343658447,8.54028256439209ZM20.196133436584475,20.19689256439209C21.399033436584475,18.993992564392087,23.28143343658447,18.88459256439209,24.60783343658447,19.868792564392088L24.987933436584473,20.19689256439209L34.87313343658447,30.08209256439209C36.19633343658447,31.40529256439209,36.19633343658447,33.550692564392094,34.87313343658447,34.873892564392094C33.67023343658447,36.07679256439209,31.787833436584474,36.18609256439209,30.46143343658447,35.20189256439209L30.081433436584472,34.873892564392094L20.196133436584475,24.98859256439209C18.872933436584475,23.66539256439209,18.872933436584475,21.52009256439209,20.196133436584475,20.19689256439209ZM83.01123343658448,20.19689256439209C84.33443343658448,18.87369256439209,86.47983343658447,18.87369256439209,87.80303343658447,20.19689256439209C89.00593343658447,21.39979256439209,89.11523343658448,23.28209256439209,88.13103343658447,24.60859256439209L87.80303343658447,24.98859256439209L77.91773343658447,34.873892564392094C76.59453343658447,36.19709256439209,74.44923343658448,36.19709256439209,73.12603343658448,34.873892564392094C71.92313343658448,33.67089256439209,71.81373343658447,31.78859256439209,72.79793343658447,30.46209256439209L73.12603343658448,30.08209256439209L83.01123343658448,20.19689256439209ZM27.533733436584473,54.00039256439209C27.533733436584473,52.12909256439209,26.016833436584474,50.61209256439209,24.145533436584472,50.61209256439209L8.999993436584472,50.61209256439209L8.540223436584473,50.64309256439209C6.886413436584473,50.86739256439209,5.611733436584473,52.28509256439209,5.611733436584473,54.00039256439209C5.611733436584473,55.87169256439209,7.128713436584473,57.38869256439209,8.999993436584472,57.38869256439209L24.145533436584472,57.38869256439209L24.605333436584473,57.35769256439209C26.259133436584474,57.13339256439209,27.533733436584473,55.71569256439209,27.533733436584473,54.00039256439209ZM99.00003343658447,50.61209256439209C100.87133343658448,50.61209256439209,102.38823343658447,52.12909256439209,102.38823343658447,54.00039256439209C102.38823343658447,55.71569256439209,101.11363343658448,57.13339256439209,99.45973343658447,57.35769256439209L99.00003343658447,57.38869256439209L83.85453343658448,57.38869256439209C81.98323343658447,57.38869256439209,80.46623343658447,55.87169256439209,80.46623343658447,54.00039256439209C80.46623343658447,52.28509256439209,81.74093343658447,50.86739256439209,83.39473343658447,50.64309256439209L83.85453343658448,50.61209256439209L99.00003343658447,50.61209256439209ZM73.12603343658448,73.12679256439209C74.32893343658448,71.92379256439209,76.21133343658447,71.81449256439208,77.53773343658447,72.79869256439208L77.91773343658447,73.12679256439209L87.80303343658447,83.01199256439209C89.12623343658447,84.33519256439209,89.12623343658447,86.4804925643921,87.80303343658447,87.8036925643921C86.60013343658447,89.0065925643921,84.71773343658447,89.11599256439209,83.39133343658447,88.13179256439209L83.01123343658448,87.8036925643921L73.12603343658448,77.9184925643921C71.80283343658448,76.5952925643921,71.80283343658448,74.44999256439209,73.12603343658448,73.12679256439209ZM34.87313343658447,73.12699256439208C33.54993343658447,71.80379256439208,31.404633436584472,71.80379256439208,30.081433436584472,73.12699256439208L20.196133436584475,83.0121925643921L19.868133436584472,83.39219256439209C18.88393343658447,84.71869256439209,18.993233436584475,86.60099256439209,20.196133436584475,87.80389256439209C21.519333436584475,89.12709256439209,23.664733436584473,89.12709256439209,24.987933436584473,87.80389256439209L34.87313343658447,77.91869256439209L35.201233436584474,77.5386925643921C36.185433436584475,76.21219256439208,36.076033436584474,74.3298925643921,34.87313343658447,73.12699256439208ZM57.35703343658447,83.39479256439209C57.13263343658447,81.74099256439209,55.71503343658447,80.46629256439209,53.999633436584475,80.46629256439209C52.12833343658447,80.46629256439209,50.61143343658447,81.98329256439209,50.61143343658447,83.85459256439209L50.61143343658447,99.00009256439209L50.64233343658447,99.45979256439209C50.866733436584475,101.1136925643921,52.284333436584475,102.38829256439209,53.999633436584475,102.38829256439209C55.87093343658447,102.38829256439209,57.387933436584476,100.8713925643921,57.387933436584476,99.00009256439209L57.387933436584476,83.85459256439209L57.35703343658447,83.39479256439209Z" fill-rule="evenodd" fill="#F4EA31" fill-opacity="1"/></g></g></svg>