<svg xmlns="http://www.w3.org/2000/svg" xmlns:xlink="http://www.w3.org/1999/xlink" fill="none" version="1.1" width="108" height="108" viewBox="0 0 108 108"><defs><linearGradient x1="0.6900754570960999" y1="0.1611122339963913" x2="0.3220152258872986" y2="1.1484318971633911" id="master_svg0_0_481"><stop offset="0%" stop-color="#FFFFFF" stop-opacity="1"/><stop offset="100%" stop-color="#C8CACD" stop-opacity="1"/></linearGradient><linearGradient x1="0.2803618311882019" y1="0.7838586568832397" x2="0.8461295962333679" y2="0.1683339625597" id="master_svg1_0_483"><stop offset="0%" stop-color="#FFED46" stop-opacity="1"/><stop offset="100%" stop-color="#E49E14" stop-opacity="1"/></linearGradient></defs><g style="mix-blend-mode:passthrough"><g style="mix-blend-mode:passthrough"><path d="M19.34203433227539,56.544646337890626C10.816354332275392,58.58664633789063,4.500034332275391,66.18574633789062,4.500034332275391,75.26664633789062L4.500034332275391,75.26664633789062C4.500034332275391,84.95964633789063,11.22658433227539,93.17374633789063,20.67723433227539,94.49994633789063L20.67723433227539,94.49994633789063L75.9385343322754,94.49994633789063C84.36133433227539,93.68344633789062,91.03713433227539,86.54074633789062,91.03713433227539,77.97114633789062L91.03713433227539,77.97114633789062C91.03713433227539,68.83974633789063,83.53933433227539,61.187346337890624,74.29453433227539,61.187346337890624L74.29453433227539,61.187346337890624C71.21393433227539,61.187346337890624,68.33773433227539,62.309146337890624,65.87333433227539,63.737646337890624L65.87333433227539,63.737646337890624C65.87333433227539,63.38054633789062,65.9224343322754,63.12564633789063,65.9224343322754,62.818846337890626L65.9224343322754,62.818846337890626C65.9224343322754,49.91324633789063,55.60063433227539,38.996246337890625,42.45323433227539,38.996246337890625L42.45323433227539,38.996246337890625C31.56453433227539,38.996246337890625,22.115334332275392,46.596776337890624,19.34203433227539,56.544646337890626Z" fill-rule="evenodd" fill="url(#master_svg0_0_481)" fill-opacity="1"/></g><g style="mix-blend-mode:passthrough"><path d="M56.358009338378906,37.26105783691406C62.829509338378905,41.23985783691406,67.70920933837891,47.72015783691406,69.65900933837891,55.31915783691406L69.65900933837891,55.31915783691406C70.7376093383789,55.16805783691406,71.7655093383789,55.06575783691406,72.79180933837891,55.06575783691406L72.79180933837891,55.06575783691406C77.1568093383789,55.06575783691406,81.2146093383789,56.28985783691407,84.7069093383789,58.43265783691406L84.7069093383789,58.43265783691406C88.35290933837891,55.11615783691406,90.6653093383789,50.42305783691406,90.6653093383789,45.06605783691406L90.6653093383789,45.06605783691406C90.6653093383789,35.11821783691406,82.5498093383789,27.108657836914062,72.58590933837891,27.108657836914062L72.58590933837891,27.108657836914062C65.4491493383789,27.108657836914062,59.23422933837891,31.241637836914062,56.358009338378906,37.26105783691406Z" fill-rule="evenodd" fill="url(#master_svg1_0_483)" fill-opacity="1"/></g><g style="mix-blend-mode:passthrough"><path d="M47.07816340161133,21.079551435058594C48.147975401611326,19.989392435058594,49.83085540161133,19.865531435058593,51.03976540161133,20.718208435058592L51.42368540161133,21.038616435058593L55.492195401611326,25.031188435058596C56.70350540161133,26.219868435058594,56.72180540161133,28.165428435058594,55.53312540161133,29.376708435058596C54.463315401611325,30.466858435058594,52.78043540161133,30.590758435058596,51.571525401611325,29.738058435058594L51.18760540161133,29.417648435058595L47.119098401611325,25.425078435058595C45.90781040161133,24.236398435058593,45.88948340161133,22.290838435058593,47.07816340161133,21.079551435058594Z" fill="#F4EA31" fill-opacity="1"/></g><g style="mix-blend-mode:passthrough"><path d="M94.21969526855469,21.81369659094238C95.42396526855468,20.617904590942384,97.36959526855469,20.624774590942383,98.56538526855469,21.82904159094238C99.64162526855469,22.912877590942383,99.7436252685547,24.59722759094238,98.87539526855468,25.794987590942384L98.55004526855468,26.17473759094238L94.50458526855469,30.191717590942382C93.30031526855468,31.387527590942383,91.35468526855469,31.38062759094238,90.15889426855469,30.176377590942383C89.0826812685547,29.092537590942385,88.98062426855469,27.408187590942383,89.8488862685547,26.210427590942384L90.17423926855469,25.830687590942382L94.21969526855469,21.81369659094238Z" fill="#F4EA31" fill-opacity="1"/></g><g style="mix-blend-mode:passthrough"><path d="M103.49999557617187,43.06481170654297C105.19706557617188,43.06481170654297,106.57286557617188,44.44059170654297,106.57286557617188,46.13770170654297C106.57286557617188,47.680531706542965,105.43586557617188,48.95779170654297,103.95408557617188,49.17727170654297L103.49999557617187,49.21059170654297L97.78135557617188,49.21059170654297C96.08424557617188,49.21059170654297,94.70846557617188,47.834811706542965,94.70846557617188,46.13770170654297C94.70846557617188,44.59487170654297,95.84547557617188,43.31760870654297,97.32726557617187,43.09812970654297L97.78135557617188,43.06481170654297L103.49999557617187,43.06481170654297Z" fill="#F4EA31" fill-opacity="1"/></g><g style="mix-blend-mode:passthrough"><path d="M72.75491135742188,10.427247698642383C74.29771135742187,10.417650105942382,75.58202135742188,11.546686965942383,75.81072135742187,13.027086965942383L75.84686135742187,13.480956965942383L75.88220135742188,19.161516965942383C75.89275135742187,20.858586965942383,74.52556135742188,22.242886965942382,72.82848135742188,22.253486965942383C71.28569135742187,22.263086965942385,70.00137535742188,21.133986965942384,69.77268245742188,19.653626965942383L69.73654025742188,19.19974696594238L69.70120209012188,13.519196965942383C69.69064475742188,11.822116965942383,71.05784135742188,10.437805065942383,72.75491135742188,10.427247698642383Z" fill="#F4EA31" fill-opacity="1"/></g></g></svg>