<svg xmlns="http://www.w3.org/2000/svg" xmlns:xlink="http://www.w3.org/1999/xlink" fill="none" version="1.1" width="108" height="108" viewBox="0 0 108 108"><defs><linearGradient x1="0.6900659799575806" y1="0.1611224263906479" x2="0.32200995087623596" y2="1.1484285593032837" id="master_svg0_0_485"><stop offset="0%" stop-color="#70798A" stop-opacity="1"/><stop offset="100%" stop-color="#C1D3DF" stop-opacity="1"/></linearGradient><linearGradient x1="0.391143798828125" y1="0.6277036666870117" x2="0.7121800780296326" y2="0.23774482309818268" id="master_svg1_0_487"><stop offset="0%" stop-color="#C1CDE1" stop-opacity="1"/><stop offset="100%" stop-color="#9EAABA" stop-opacity="1"/></linearGradient></defs><g style="mix-blend-mode:passthrough"><g style="mix-blend-mode:passthrough"><path d="M18.827330517578126,57.40993537597656C10.598900517578125,59.403435375976564,4.500030517578125,66.83013537597657,4.500030517578125,75.70643537597655L4.500030517578125,75.70643537597655C4.500030517578125,85.17803537597656,10.994120517578125,93.20323537597656,20.115330517578123,94.50003537597657L20.115330517578123,94.50003537597657L73.45833051757812,94.50003537597657C81.58753051757813,93.70203537597656,88.03353051757813,86.72263537597657,88.03353051757813,78.34823537597657L88.03353051757813,78.34823537597657C88.03353051757813,69.42523537597657,80.79393051757812,61.94703537597656,71.86963051757813,61.94703537597656L71.86963051757813,61.94703537597656C68.89693051757813,61.94703537597656,66.12103051757813,63.04433537597656,63.740430517578126,64.43923537597657L63.740430517578126,64.43923537597657C63.740430517578126,64.09013537597656,63.791530517578124,63.840735375976564,63.791530517578124,63.541535375976565L63.791530517578124,63.541535375976565C63.791530517578124,50.92923537597656,53.825630517578126,40.26063537597656,41.136630517578126,40.26063537597656L41.136630517578126,40.26063537597656C30.625230517578125,40.26063537597656,21.502430517578127,47.68893537597656,18.827330517578126,57.40993537597656Z" fill-rule="evenodd" fill="url(#master_svg0_0_485)" fill-opacity="1"/></g><g style="mix-blend-mode:passthrough"><path d="M60.370878222656245,27C54.02556822265625,27,48.22272822265625,29.94108,44.30767822265625,34.47818L44.30767822265625,34.47818C56.156678222656254,35.82325,65.87297822265626,44.6481,68.79927822265626,56.212900000000005L68.79927822265626,56.212900000000005C69.83917822265624,56.0633,70.83117822265625,55.963499999999996,71.82307822265625,55.963499999999996L71.82307822265625,55.963499999999996C83.22257822265625,55.963499999999996,92.64287822265625,64.7385,93.78367822265625,76.0041L93.78367822265625,76.0041C99.48417822265625,73.86099999999999,103.49997822265625,68.3762,103.49997822265625,62.0468L103.49997822265625,62.0468C103.49997822265625,53.8204,96.85707822265624,46.940799999999996,88.62717822265626,46.940799999999996L88.62717822265626,46.940799999999996C85.90087822265625,46.940799999999996,83.32337822265626,47.9367,81.14107822265625,49.2335L81.14107822265625,49.2335C81.14107822265625,48.934200000000004,81.19067822265626,48.6849,81.19067822265626,48.3856L81.19067822265626,48.3856C81.19067822265626,36.76933,72.01997822265625,27,60.370878222656245,27Z" fill-rule="evenodd" fill="url(#master_svg1_0_487)" fill-opacity="1"/></g></g></svg>