<svg xmlns="http://www.w3.org/2000/svg" xmlns:xlink="http://www.w3.org/1999/xlink" fill="none" version="1.1" width="108" height="108" viewBox="0 0 108 108"><defs><linearGradient x1="0.1415155827999115" y1="0.09256812930107117" x2="0.6930335164070129" y2="1.0093649625778198" id="master_svg0_0_491"><stop offset="0%" stop-color="#E2DD4D" stop-opacity="1"/><stop offset="100%" stop-color="#DDB617" stop-opacity="1"/></linearGradient></defs><g style="mix-blend-mode:passthrough"><g style="mix-blend-mode:passthrough"><path d="M34.12166948242188,13.339053948242187C18.657509482421872,20.938961948242188,8.184886482421875,37.31222194824218,9.049815882421875,56.07072194824219L9.049815882421875,56.07072194824219C10.125429482421875,79.37532194824219,29.073069482421875,98.24132194824219,52.117269482421875,98.97702194824218L52.117269482421875,98.97702194824218C67.86026948242187,99.47882194824219,81.83856948242187,91.71382194824218,90.14406948242187,79.64952194824218L90.14406948242187,79.64952194824218C90.75236948242187,78.7646219482422,89.98726948242188,77.57842194824218,88.94336948242187,77.78512194824219L88.94336948242187,77.78512194824219C85.97156948242187,78.3686219482422,82.90306948242187,78.6764219482422,79.75856948242188,78.6764219482422L79.75856948242188,78.6764219482422C53.701369482421875,78.6764219482422,32.57716948242188,57.67052194824219,32.57716948242188,31.75612194824219L32.57716948242188,31.75612194824219C32.57716948242188,25.799321948242188,33.700269482421874,20.105391948242186,35.74066948242188,14.865121948242187L35.74066948242188,14.865121948242187C36.06536948242187,14.028351948242188,35.42066948242187,13.215621948242188,34.64286948242187,13.215621948242188L34.64286948242187,13.215621948242188C34.47176948242188,13.215621948242188,34.295969482421874,13.254094348242187,34.12166948242188,13.339053948242187Z" fill-rule="evenodd" fill="url(#master_svg0_0_491)" fill-opacity="1"/></g><g style="mix-blend-mode:passthrough"><path d="M89.27948654541015,10.966877111816407C89.27948654541015,9.881637111816406,90.15233654541015,8.999977111816406,91.22636654541016,8.999977111816406C92.29723654541016,8.999977111816406,93.17008654541016,9.881637111816406,93.17008654541016,10.966877111816407L93.17008654541016,14.900247111816405L97.05624654541016,14.900247111816405C98.12864654541016,14.900247111816405,98.99994654541015,15.783507111816405,98.99994654541015,16.870357111816407C98.99994654541015,17.955597111816406,98.12864654541016,18.837257111816406,97.05624654541016,18.837257111816406L93.17008654541016,18.837257111816406L93.17008654541016,22.771477111816406C93.17008654541016,23.858377111816406,92.29723654541016,24.738377111816405,91.22636654541016,24.738377111816405C90.15075654541016,24.738377111816405,89.27948654541015,23.858377111816406,89.27948654541015,22.771477111816406L89.27948654541015,18.837257111816406L85.39077654541016,18.837257111816406C84.31674454541016,18.837257111816406,83.44864654541016,17.955597111816406,83.44864654541016,16.870357111816407C83.44864654541016,15.783507111816405,84.31674454541016,14.900247111816405,85.39077654541016,14.900247111816405L89.27948654541015,14.900247111816405L89.27948654541015,10.966877111816407Z" fill-rule="evenodd" fill="#F4EA31" fill-opacity="1"/></g><g style="mix-blend-mode:passthrough"><path d="M66.54512404296875,51.25332773925781C66.54512404296875,50.32357873925781,67.29282404296875,49.56855773925781,68.21161404296875,49.56855773925781C69.12882404296874,49.56855773925781,69.87494404296875,50.32357873925781,69.87494404296875,51.25332773925781L69.87494404296875,54.62066773925781L73.20349404296874,54.62066773925781C74.12069404296875,54.62066773925781,74.86679404296875,55.37568773925781,74.86679404296875,56.307037739257815C74.86679404296875,57.23518773925781,74.12069404296875,57.99020773925781,73.20349404296874,57.99020773925781L69.87494404296875,57.99020773925781L69.87494404296875,61.35875773925781C69.87494404296875,62.288457739257815,69.12882404296874,63.04195773925781,68.21161404296875,63.04195773925781C67.29124404296876,63.04195773925781,66.54512404296875,62.288457739257815,66.54512404296875,61.35875773925781L66.54512404296875,57.99020773925781L63.21722404296875,57.99020773925781C62.29684604296875,57.99020773925781,61.55389404296875,57.23518773925781,61.55389404296875,56.307037739257815C61.55389404296875,55.37568773925781,62.29684604296875,54.62066773925781,63.21722404296875,54.62066773925781L66.54512404296875,54.62066773925781L66.54512404296875,51.25332773925781Z" fill-rule="evenodd" fill="#F4EA31" fill-opacity="1"/></g></g></svg>