<svg xmlns="http://www.w3.org/2000/svg" xmlns:xlink="http://www.w3.org/1999/xlink" fill="none" version="1.1" width="108" height="108" viewBox="0 0 108 108"><defs><linearGradient x1="0.14152474701404572" y1="0.09257712215185165" x2="0.6891966462135315" y2="1.0029758214950562" id="master_svg0_0_477"><stop offset="0%" stop-color="#E2DD4D" stop-opacity="1"/><stop offset="100%" stop-color="#DDB617" stop-opacity="1"/></linearGradient><linearGradient x1="0.6900765299797058" y1="0.1611396074295044" x2="0.3220157325267792" y2="1.148427128791809" id="master_svg1_0_479"><stop offset="0%" stop-color="#FFFFFF" stop-opacity="1"/><stop offset="100%" stop-color="#C8CACD" stop-opacity="1"/></linearGradient></defs><g style="mix-blend-mode:passthrough"><g style="mix-blend-mode:passthrough"><path d="M64.90410092773438,13.5834646C54.28994092773438,18.70945,47.10403592773437,29.752,47.69626402773437,42.4055L47.69626402773437,42.4055C48.43417392773438,58.1252,61.439400927734376,70.84960000000001,77.25380092773437,71.3457L77.25380092773437,71.3457C88.05960092773438,71.68430000000001,97.65400092773437,66.4465,103.35140092773437,58.3094L103.35140092773437,58.3094C103.76950092773438,57.7142,103.24530092773438,56.9126,102.52800092773438,57.0512L102.52800092773438,57.0512C100.49010092773437,57.4449,98.38240092773438,57.6543,96.22410092773438,57.6543L96.22410092773438,57.6543C78.34170092773438,57.6543,63.844800927734376,43.4827,63.844800927734376,26.0071L63.844800927734376,26.0071C63.844800927734376,21.98819,64.61590092773437,18.14882,66.01420092773438,14.61181L66.01420092773438,14.61181C66.23740092773437,14.049606,65.79560092773437,13.5,65.26040092773437,13.5L65.26040092773437,13.5C65.14320092773437,13.5,65.02290092773438,13.5267717,64.90410092773438,13.5834646Z" fill-rule="evenodd" fill="url(#master_svg0_0_477)" fill-opacity="1"/></g><g style="mix-blend-mode:passthrough"><path d="M18.924130517578124,57.572458862304686C10.637660517578125,59.55825886230468,4.500030517578125,66.95355886230469,4.500030517578125,75.78825886230469L4.500030517578125,75.78825886230469C4.500030517578125,85.21975886230469,11.038290517578126,93.21025886230468,20.221030517578125,94.50005886230468L20.221030517578125,94.50005886230468L73.92053051757813,94.50005886230468C82.10563051757812,93.70635886230468,88.59323051757812,86.75675886230468,88.59323051757812,78.41975886230469L88.59323051757812,78.41975886230469C88.59323051757812,69.53305886230469,81.30753051757813,62.09055886230469,72.32283051757813,62.09055886230469L72.32283051757813,62.09055886230469C69.32843051757813,62.09055886230469,66.53513051757812,63.18195886230468,64.13923051757813,64.57245886230469L64.13923051757813,64.57245886230469C64.13923051757813,64.22445886230469,64.18993051757812,63.975658862304684,64.18993051757812,63.67955886230469L64.18993051757812,63.67955886230469C64.18993051757812,51.122058862304684,54.15853051757812,40.49845886230469,41.381230517578125,40.49845886230469L41.381230517578125,40.49845886230469C30.800330517578125,40.49845886230469,21.619230517578124,47.89373886230469,18.924130517578124,57.572458862304686Z" fill-rule="evenodd" fill="url(#master_svg1_0_479)" fill-opacity="1"/></g></g></svg>