<svg xmlns="http://www.w3.org/2000/svg" xmlns:xlink="http://www.w3.org/1999/xlink" fill="none" version="1.1" width="108" height="108" viewBox="0 0 108 108"><defs><mask id="master_svg0_1_02/0_35"><g style="mix-blend-mode:passthrough"><path d="M47.92073051757812,2.249972343444824C35.46433051757813,2.249972343444824,24.652330517578125,11.170902343444824,21.480930517578123,22.844472343444824L21.480930517578123,22.844472343444824C11.725960517578125,25.240872343444824,4.500030517578125,34.161772343444824,4.500030517578125,44.817872343444826L4.500030517578125,44.817872343444826C4.500030517578125,56.19487234344482,12.195980517578125,65.83167234344482,23.008030517578124,67.38947234344482L23.008030517578124,67.38947234344482L86.22643051757812,67.38947234344482C95.86263051757813,66.43157234344483,103.50003051757812,58.04927234344483,103.50003051757812,47.991472343444826L103.50003051757812,47.991472343444826C103.50003051757812,37.27407234344482,94.92263051757813,28.293472343444826,84.34633051757812,28.293472343444826L84.34633051757812,28.293472343444826C80.82363051757812,28.293472343444826,77.53193051757812,29.610972343444825,74.71173051757812,31.286472343444824L74.71173051757812,31.286472343444824C74.71173051757812,30.868872343444824,74.77033051757813,30.568872343444824,74.77033051757813,30.210972343444823L74.77033051757813,30.210972343444823C74.77033051757813,15.062072343444823,62.961330517578126,2.249972343444824,47.92073051757812,2.249972343444824Z" fill-rule="evenodd" fill="#FFFFFF" fill-opacity="1"/></g></mask><linearGradient x1="0.6900879144668579" y1="0.161128431558609" x2="0.3220210373401642" y2="1.1484214067459106" id="master_svg1_0_389"><stop offset="0%" stop-color="#FFFFFF" stop-opacity="1"/><stop offset="100%" stop-color="#C8CACD" stop-opacity="1"/></linearGradient></defs><g style="mix-blend-mode:passthrough"><g style="mix-blend-mode:passthrough"><path d="M27.864850326538086,81.70436774169922C28.988500326538087,80.25926674169922,31.070800326538084,79.99866074169923,32.516000326538084,81.12229174169921C33.82970032653809,82.14377774169922,34.16450032653809,83.95759774169922,33.370300326538086,85.36467774169923L33.098000326538084,85.77339774169921L24.356330326538085,97.01614774169921C23.232690326538087,98.46124774169922,21.150320326538086,98.72184774169922,19.705220326538086,97.59814774169922C18.391491926538087,96.57674774169922,18.056685326538087,94.76284774169922,18.850869326538085,93.35584774169922L19.123144326538085,92.94704774169922L27.864850326538086,81.70436774169922ZM80.13870032653809,81.70436774169922C81.26240032653808,80.25926674169922,83.34470032653809,79.99866074169923,84.78980032653809,81.12229174169921C86.10360032653809,82.14377774169922,86.43840032653809,83.95759774169922,85.64420032653808,85.36467774169923L85.37190032653808,85.77339774169921L76.63020032653809,97.01614774169921C75.50660032653809,98.46124774169922,73.42420032653808,98.72184774169922,71.97910032653809,97.59814774169922C70.66540032653808,96.57674774169922,70.33060032653809,94.76284774169922,71.12470032653809,93.35584774169922L71.39700032653809,92.94704774169922L80.13870032653809,81.70436774169922Z" fill="#55ADE1" fill-opacity="1"/></g><g style="mix-blend-mode:passthrough"><path d="M46.390371496582034,60.240474700927734L42.78797149658203,82.99437470092774L53.59357149658203,82.99437470092774L47.832951496582034,105.74997470092774L65.83837149658203,76.38867470092774L55.75497149658203,76.38867470092774L62.23767149658203,60.240474700927734L46.390371496582034,60.240474700927734Z" fill-rule="evenodd" fill="#F4EA31" fill-opacity="1"/></g><g style="mix-blend-mode:passthrough"></g><g mask="url(#master_svg0_1_02/0_35)"></g><g style="mix-blend-mode:passthrough"><path d="M47.92073051757812,2.249969482421875C35.46433051757813,2.249969482421875,24.652330517578125,11.170899482421875,21.480930517578123,22.844469482421875L21.480930517578123,22.844469482421875C11.725960517578125,25.240869482421875,4.500030517578125,34.161769482421874,4.500030517578125,44.81786948242188L4.500030517578125,44.81786948242188C4.500030517578125,56.19486948242187,12.195980517578125,65.83166948242187,23.008030517578124,67.38946948242187L23.008030517578124,67.38946948242187L86.22643051757812,67.38946948242187C95.86263051757813,66.43156948242188,103.50003051757812,58.04926948242188,103.50003051757812,47.99146948242188L103.50003051757812,47.99146948242188C103.50003051757812,37.27406948242187,94.92263051757813,28.293469482421877,84.34633051757812,28.293469482421877L84.34633051757812,28.293469482421877C80.82363051757812,28.293469482421877,77.53193051757812,29.610969482421876,74.71173051757812,31.286469482421875L74.71173051757812,31.286469482421875C74.71173051757812,30.868869482421875,74.77033051757813,30.568869482421874,74.77033051757813,30.210969482421874L74.77033051757813,30.210969482421874C74.77033051757813,15.062069482421874,62.961330517578126,2.249969482421875,47.92073051757812,2.249969482421875Z" fill-rule="evenodd" fill="url(#master_svg1_0_389)" fill-opacity="1"/></g></g></svg>