<svg xmlns="http://www.w3.org/2000/svg" xmlns:xlink="http://www.w3.org/1999/xlink" fill="none" version="1.1" width="108" height="108" viewBox="0 0 108 108"><defs><linearGradient x1="0.6900765895843506" y1="0.16113072633743286" x2="0.3220157325267792" y2="1.148423671722412" id="master_svg0_0_391"><stop offset="0%" stop-color="#FFFFFF" stop-opacity="1"/><stop offset="100%" stop-color="#C8CACD" stop-opacity="1"/></linearGradient></defs><g style="mix-blend-mode:passthrough"><g style="mix-blend-mode:passthrough"><path d="M46.389693515625,58.45008087158203L42.787353515625,80.97428087158204L53.594353515625,80.97428087158204L47.830623515625,103.50008087158203L65.839053515625,74.43518087158203L55.752553515624996,74.43518087158203L62.236753515625,58.45008087158203L46.389693515625,58.45008087158203Z" fill-rule="evenodd" fill="#F4EA31" fill-opacity="1"/></g><g style="mix-blend-mode:passthrough"><path d="M47.91993433227539,4.500030517578125C35.46383433227539,4.500030517578125,24.65363433227539,13.330880517578125,21.48063433227539,24.886630517578126L21.48063433227539,24.886630517578126C11.72584433227539,27.258830517578126,4.500034332275391,36.08963051757813,4.500034332275391,46.638130517578126L4.500034332275391,46.638130517578126C4.500034332275391,57.90013051757813,12.195864332275391,67.44133051757812,23.00773433227539,68.98183051757813L23.00773433227539,68.98183051757813L86.22673433227538,68.98183051757813C95.8627343322754,68.03363051757813,103.50003433227539,59.735930517578126,103.50003433227539,49.77963051757813L103.50003433227539,49.77963051757813C103.50003433227539,39.17053051757812,94.92113433227539,30.280630517578125,84.34663433227539,30.280630517578125L84.34663433227539,30.280630517578125C80.82073433227539,30.280630517578125,77.5323343322754,31.586430517578126,74.71063433227539,33.24333051757813L74.71063433227539,33.24333051757813C74.71063433227539,32.828330517578124,74.76913433227539,32.53463051757812,74.76913433227539,32.17863051757813L74.76913433227539,32.17863051757813C74.76913433227539,17.182830517578125,62.95873433227539,4.500030517578125,47.91993433227539,4.500030517578125Z" fill-rule="evenodd" fill="url(#master_svg0_0_391)" fill-opacity="1"/></g><g style="mix-blend-mode:passthrough"><path d="M87.00204026794434,83.15719450683594C86.77434026794434,82.74871450683594,86.39374026794434,82.44849450683594,85.94654026794434,82.32710450683594C85.49604026794434,82.20406450683593,85.01784026794434,82.26968450683594,84.61784026794433,82.50755450683593L81.68874026794433,84.22680450683593L81.68874026794433,80.78666450683593C81.69034026794434,80.31747450683594,81.50824026794433,79.86633950683594,81.18134026794434,79.53331650683593C80.85284026794434,79.19865250683594,80.40724026794433,79.01163501683594,79.94204026794434,79.00999450683594C79.47694026794434,79.01163501683594,79.03134026794433,79.19865250683594,78.70284026794434,79.53331650683593C78.37594026794434,79.86633950683594,78.19374026794434,80.31747450683594,78.19534026794435,80.78666450683593L78.19534026794435,84.22680450683593L75.26474026794433,82.50755450683593C74.86464026794434,82.27132450683594,74.38654026794433,82.20734450683594,73.93924026794434,82.33038450683594C73.49044026794434,82.45177450683593,73.10984026794434,82.75035450683593,72.88054026794433,83.15719450683594C72.39914026794433,84.00697450683593,72.68374026794433,85.08643450683594,73.51964026794434,85.58350450683594L76.44874026794434,87.30275450683594L73.51964026794434,89.02369450683594C72.67884026794434,89.51579450683593,72.39424026794433,90.60349450683594,72.88054026794433,91.45159450683593C73.10824026794434,91.86009450683594,73.48874026794434,92.15869450683594,73.93764026794435,92.28169450683593C74.38654026794433,92.40309450683594,74.86464026794434,92.33909450683593,75.26474026794433,92.10119450683594L78.19534026794435,90.38199450683594L78.19534026794435,93.82049450683594C78.19534026794435,94.80639450683594,78.97274026794435,95.59719450683593,79.94204026794434,95.59719450683593C80.90974026794433,95.59719450683593,81.68874026794433,94.80639450683594,81.68874026794433,93.82049450683594L81.68874026794433,90.38199450683594L84.61784026794433,92.10119450683594C85.01954026794434,92.33749450683594,85.49604026794434,92.39979450683593,85.94484026794433,92.27839450683594C86.39214026794434,92.15539450683593,86.77264026794434,91.85849450683594,87.00204026794434,91.45159450683593C87.48344026794433,90.60349450683594,87.20044026794433,89.52069450683594,86.36444026794433,89.02369450683594L83.43544026794433,87.30275450683594L86.36444026794433,85.58350450683594C87.20044026794433,85.08643450683594,87.48344026794433,84.00533450683594,87.00204026794434,83.15719450683594ZM35.12284026794433,83.15719450683594C34.895140267944335,82.74871450683594,34.514540267944334,82.44849450683594,34.06734026794434,82.32710450683594C33.61684026794434,82.20406450683593,33.13864026794434,82.26968450683594,32.73854026794434,82.50755450683593L29.80955026794434,84.22680450683593L29.80955026794434,80.78666450683593C29.811180267944337,80.31747450683594,29.629030267944337,79.86633950683594,29.302130267944335,79.53331650683593C28.973610267944338,79.19865250683594,28.526370267944337,79.01163501683594,28.061240267944335,79.00999450683594C27.596100267944337,79.01163501683594,27.152110267944337,79.19865250683594,26.821970267944337,79.53331650683593C26.495070267944335,79.86633950683594,26.312920267944335,80.31747450683594,26.316180267944336,80.78666450683593L26.316180267944336,84.22680450683593L23.385520267944337,82.50755450683593C22.983810267944335,82.27132450683594,22.507300267944338,82.20734450683594,22.058430267944335,82.33038450683594C21.609558267944337,82.45177450683593,21.230622267944337,82.75035450683593,20.999682267944337,83.15719450683594C20.519913267944336,84.00697450683593,20.804521767944337,85.08643450683594,21.640459267944337,85.58350450683594L24.569490267944335,87.30275450683594L21.640459267944337,89.02369450683594C20.799642767944334,89.51579450683593,20.515034267944337,90.60349450683594,20.999682267944337,91.45159450683593C21.228995267944335,91.86009450683594,21.609558267944337,92.15869450683594,22.058430267944335,92.28169450683593C22.505670267944335,92.40309450683594,22.985440267944337,92.33909450683593,23.385520267944337,92.10119450683594L26.316180267944336,90.38199450683594L26.316180267944336,93.82049450683594C26.316180267944336,94.80639450683594,27.093570267944337,95.59719450683593,28.061240267944335,95.59719450683593C29.030530267944336,95.59719450683593,29.80955026794434,94.80639450683594,29.80955026794434,93.82049450683594L29.80955026794434,90.38199450683594L32.73854026794434,92.10119450683594C33.13864026794434,92.33749450683594,33.61684026794434,92.39979450683593,34.06564026794433,92.27839450683594C34.51294026794434,92.15539450683593,34.893440267944335,91.85849450683594,35.12284026794433,91.45159450683593C35.60414026794434,90.60349450683594,35.31954026794433,89.52069450683594,34.485240267944334,89.02369450683594L31.556240267944336,87.30275450683594L34.485240267944334,85.58350450683594C35.31954026794433,85.08643450683594,35.60414026794434,84.00533450683594,35.12284026794433,83.15719450683594Z" fill-rule="evenodd" fill="#55ADE1" fill-opacity="1"/></g></g></svg>