<svg xmlns="http://www.w3.org/2000/svg" xmlns:xlink="http://www.w3.org/1999/xlink" fill="none" version="1.1" width="108" height="108" viewBox="0 0 108 108"><defs><linearGradient x1="0.6900765895843506" y1="0.16113921999931335" x2="0.3220157325267792" y2="1.1484321355819702" id="master_svg0_0_393"><stop offset="0%" stop-color="#FFFFFF" stop-opacity="1"/><stop offset="100%" stop-color="#C8CACD" stop-opacity="1"/></linearGradient></defs><g style="mix-blend-mode:passthrough"><g style="mix-blend-mode:passthrough"><path d="M35.77340758911133,81.67754019287109C36.90549758911133,80.28271619287109,38.95389758911133,80.06969219287109,40.348697589111325,81.2017371928711C41.616697589111325,82.2308701928711,41.90809758911133,84.01734019287109,41.099997589111325,85.3816101928711L40.82449758911133,85.7770401928711L32.081327589111325,96.54971019287109C30.94928758911133,97.9446101928711,28.90084758911133,98.15761019287109,27.506027589111326,97.0256101928711C26.238005889111328,95.9964101928711,25.946677589111328,94.20991019287109,26.754711589111327,92.8457101928711L27.030224589111327,92.45031019287109L35.77340758911133,81.67754019287109ZM66.15909758911133,81.6777701928711C67.29099758911133,80.2828431928711,69.33939758911133,80.0696321928711,70.73439758911132,81.2015501928711C72.00249758911133,82.2305701928711,72.29399758911133,84.01702019287109,71.48609758911132,85.3813501928711L71.21059758911133,85.7768101928711L62.468997589111325,96.5495101928711C61.33709758911133,97.94441019287109,59.28869758911133,98.1577101928711,57.89379758911133,97.02571019287109C56.625697589111326,95.99671019287109,56.33419758911133,94.21031019287109,57.14209758911133,92.84591019287109L57.417597589111324,92.45051019287109L66.15909758911133,81.6777701928711Z" fill="#55ADE1" fill-opacity="1"/></g><g style="mix-blend-mode:passthrough"><path d="M47.91993051757812,8.999969482421875C35.463830517578124,8.999969482421875,24.653630517578126,17.546699482421875,21.480630517578124,28.733769482421874L21.480630517578124,28.733769482421874C11.725840517578124,31.028069482421873,4.500030517578125,39.57326948242188,4.500030517578125,49.78386948242188L4.500030517578125,49.78386948242188C4.500030517578125,60.68206948242187,12.195860517578126,69.91626948242188,23.007730517578125,71.40716948242188L23.007730517578125,71.40716948242188L86.22673051757812,71.40716948242188C95.86273051757813,70.48946948242187,103.50003051757812,62.458669482421875,103.50003051757812,52.82436948242187L103.50003051757812,52.82436948242187C103.50003051757812,42.55656948242188,94.92113051757812,33.95106948242187,84.34663051757812,33.95106948242187L84.34663051757812,33.95106948242187C80.82073051757813,33.95106948242187,77.53233051757813,35.213369482421875,74.71063051757812,36.82006948242187L74.71063051757812,36.82006948242187C74.71063051757812,36.41836948242187,74.76913051757812,36.132669482421875,74.76913051757812,35.788069482421875L74.76913051757812,35.788069482421875C74.76913051757812,21.276269482421874,62.958730517578125,8.999969482421875,47.91993051757812,8.999969482421875Z" fill-rule="evenodd" fill="url(#master_svg0_0_393)" fill-opacity="1"/></g></g></svg>