<svg xmlns="http://www.w3.org/2000/svg" xmlns:xlink="http://www.w3.org/1999/xlink" fill="none" version="1.1" width="108" height="108" viewBox="0 0 108 108"><defs><linearGradient x1="0.6900714635848999" y1="0.16113921999931335" x2="0.32200461626052856" y2="1.1484321355819702" id="master_svg0_0_395"><stop offset="0%" stop-color="#FFFFFF" stop-opacity="1"/><stop offset="100%" stop-color="#C8CACD" stop-opacity="1"/></linearGradient></defs><g style="mix-blend-mode:passthrough"><g style="mix-blend-mode:passthrough"><path d="M77.54367991027831,81.67767101074219C78.67567991027832,80.2827320107422,80.72407991027832,80.06953101074218,82.11907991027832,81.20147601074218C83.38717991027832,82.2305210107422,83.67867991027832,84.01700101074219,82.87067991027833,85.3813510107422L82.59527991027832,85.7768110107422L73.85357991027831,96.54961101074218C72.72157991027832,97.94451101074219,70.67317991027832,98.15771101074219,69.27817991027831,97.02581101074219C68.01007991027832,95.99671101074219,67.71857991027832,94.21021101074219,68.52647991027831,92.84591101074218L68.80197991027832,92.45041101074219L77.54367991027831,81.67767101074219ZM27.63934991027832,81.67767101074219C28.77127991027832,80.2827320107422,30.81977991027832,80.06953101074218,32.21467991027832,81.20147601074218C33.482779910278325,82.2305210107422,33.774279910278324,84.01700101074219,32.96637991027832,85.3813510107422L32.69087991027832,85.7768110107422L23.94917991027832,96.54961101074218C22.81723991027832,97.94451101074219,20.768789910278322,98.15771101074219,19.37383991027832,97.02581101074219C18.10571421027832,95.99671101074219,17.81422991027832,94.21021101074219,18.62216091027832,92.84591101074218L18.89764491027832,92.45041101074219L27.63934991027832,81.67767101074219ZM52.59257991027832,81.67744101074219C53.72467991027832,80.28260501074219,55.77307991027832,80.06959001074219,57.16797991027832,81.20166301074218C58.43597991027832,82.23082101074219,58.72727991027832,84.01733101074218,57.91927991027832,85.38160101074219L57.64377991027832,85.77704101074218L48.90037991027832,96.54981101074219C47.76837991027832,97.9446110107422,45.71987991027832,98.15761101074219,44.324979910278316,97.02561101074218C43.056979910278315,95.9964110107422,42.76567991027832,94.20991101074219,43.573679910278315,92.84561101074219L43.84927991027832,92.45021101074218L52.59257991027832,81.67744101074219Z" fill="#55ADE1" fill-opacity="1"/></g><g style="mix-blend-mode:passthrough"><path d="M47.91906103515625,8.999969482421875C35.46276103515625,8.999969482421875,24.65066103515625,17.546729482421874,21.47926103515625,28.733869482421873L21.47926103515625,28.733869482421873C11.72599103515625,31.026569482421873,4.50006103515625,39.573369482421874,4.50006103515625,49.78406948242188L4.50006103515625,49.78406948242188C4.50006103515625,60.68226948242187,12.19601103515625,69.91806948242188,23.00646103515625,71.40736948242187L23.00646103515625,71.40736948242187L86.22486103515625,71.40736948242187C95.86266103515625,70.48966948242187,103.50006103515625,62.46046948242188,103.50006103515625,52.82456948242187L103.50006103515625,52.82456948242187C103.50006103515625,42.556669482421874,94.92266103515625,33.951169482421875,84.34636103515625,33.951169482421875L84.34636103515625,33.951169482421875C80.82046103515626,33.951169482421875,77.53026103515624,35.21346948242187,74.71016103515625,36.820169482421875L74.71016103515625,36.820169482421875C74.71016103515625,36.41846948242188,74.76876103515625,36.13276948242188,74.76876103515625,35.78816948242188L74.76876103515625,35.78816948242188C74.76876103515625,21.276269482421874,62.95966103515625,8.999969482421875,47.91906103515625,8.999969482421875Z" fill-rule="evenodd" fill="url(#master_svg0_0_395)" fill-opacity="1"/></g></g></svg>