<svg xmlns="http://www.w3.org/2000/svg" xmlns:xlink="http://www.w3.org/1999/xlink" fill="none" version="1.1" width="108" height="108" viewBox="0 0 108 108"><defs><linearGradient x1="0.6900765895843506" y1="0.16113921999931335" x2="0.3220157325267792" y2="1.1484321355819702" id="master_svg0_0_393"><stop offset="0%" stop-color="#FFFFFF" stop-opacity="1"/><stop offset="100%" stop-color="#C8CACD" stop-opacity="1"/></linearGradient></defs><g style="mix-blend-mode:passthrough"><g style="mix-blend-mode:passthrough"><path d="M24.388876478881834,81.67895533691406C25.520856478881836,80.28409433691407,27.569356478881836,80.07100733691406,28.964156478881836,81.20300933691406C30.232256478881837,82.23210533691406,30.523556478881837,84.01856533691407,29.715656478881836,85.38285533691406L29.440156478881836,85.77829533691406L20.698546478881838,96.54964533691407C19.566546478881836,97.94454533691406,17.518126478881836,98.15764533691406,16.123266478881835,97.02564533691407C14.855210778881837,95.99654533691407,14.563828478881836,94.21004533691406,15.371819478881836,92.84574533691406L15.647320478881836,92.45034533691407L24.388876478881834,81.67895533691406ZM45.39155647888184,81.67895533691406C46.52355647888184,80.28409433691407,48.572056478881834,80.07100733691406,49.96685647888184,81.20300933691406C51.234956478881834,82.23210533691406,51.52635647888184,84.01856533691407,50.71835647888184,85.38285533691406L50.442856478881836,85.77829533691406L41.70125647888183,96.54964533691407C40.56925647888184,97.94454533691406,38.52085647888184,98.15764533691406,37.12595647888183,97.02564533691407C35.85795647888183,95.99654533691407,35.566556478881836,94.21004533691406,36.374556478881836,92.84574533691406L36.65005647888184,92.45034533691407L45.39155647888184,81.67895533691406ZM87.39835647888184,81.67895533691406C88.53035647888184,80.28409433691407,90.57875647888184,80.07100733691406,91.97365647888184,81.20300933691406C93.24175647888184,82.23210533691406,93.53305647888183,84.01856533691407,92.72505647888184,85.38285533691406L92.44955647888183,85.77829533691406L83.70805647888183,96.54964533691407C82.57605647888184,97.94454533691406,80.52765647888184,98.15764533691406,79.13275647888183,97.02564533691407C77.86465647888184,95.99654533691407,77.57335647888183,94.21004533691406,78.38135647888183,92.84574533691406L78.65685647888183,92.45034533691407L87.39835647888184,81.67895533691406ZM66.39565647888183,81.67895533691406C67.52765647888184,80.28409433691407,69.57615647888184,80.07100733691406,70.97095647888185,81.20300933691406C72.23905647888184,82.23210533691406,72.53045647888183,84.01856533691407,71.72245647888184,85.38285533691406L71.44695647888184,85.77829533691406L62.70535647888184,96.54964533691407C61.573356478881834,97.94454533691406,59.52495647888183,98.15764533691406,58.13005647888183,97.02564533691407C56.86205647888183,95.99654533691407,56.57065647888184,94.21004533691406,57.37865647888184,92.84574533691406L57.65415647888184,92.45034533691407L66.39565647888183,81.67895533691406Z" fill="#55ADE1" fill-opacity="1"/></g><g style="mix-blend-mode:passthrough"><path d="M47.91986948242187,8.999969482421875C35.463769482421874,8.999969482421875,24.651869482421876,17.546909482421874,21.478969482421874,28.734269482421876L21.478969482421874,28.734269482421876C11.725779482421874,31.028569482421876,4.499969482421875,39.57396948242187,4.499969482421875,49.784869482421875L4.499969482421875,49.784869482421875C4.499969482421875,60.68326948242188,12.195799482421876,69.91926948242187,23.007669482421875,71.40866948242189L23.007669482421875,71.40866948242189L86.22506948242187,71.40866948242189C95.86266948242188,70.49086948242189,103.49996948242188,62.459969482421876,103.49996948242188,52.82546948242187L103.49996948242188,52.82546948242187C103.49996948242188,42.55576948242187,94.92106948242187,33.95166948242188,84.34656948242187,33.95166948242188L84.34656948242187,33.95166948242188C80.82236948242188,33.95166948242188,77.53226948242188,35.21556948242187,74.71056948242187,36.82236948242188L74.71056948242187,36.82236948242188C74.71056948242187,36.42066948242187,74.76906948242187,36.13326948242187,74.76906948242187,35.78876948242187L74.76906948242187,35.78876948242187C74.76906948242187,21.276569482421877,62.958669482421875,8.999969482421875,47.91986948242187,8.999969482421875Z" fill-rule="evenodd" fill="url(#master_svg0_0_393)" fill-opacity="1"/></g></g></svg>