<svg xmlns="http://www.w3.org/2000/svg" xmlns:xlink="http://www.w3.org/1999/xlink" fill="none" version="1.1" width="108" height="108" viewBox="0 0 108 108"><defs><linearGradient x1="0.6900765895843506" y1="0.16113921999931335" x2="0.3220157325267792" y2="1.1484321355819702" id="master_svg0_0_393"><stop offset="0%" stop-color="#FFFFFF" stop-opacity="1"/><stop offset="100%" stop-color="#C8CACD" stop-opacity="1"/></linearGradient></defs><g style="mix-blend-mode:passthrough"><g style="mix-blend-mode:passthrough"><path d="M25.1874326171875,81.20300933691406C23.7926326171875,80.07100733691406,21.7441326171875,80.28409433691407,20.612152617187498,81.67895533691406L11.8705966171875,92.45034533691407L11.5950956171875,92.84574533691406C10.7871046171875,94.21004533691406,11.078486917187501,95.99654533691407,12.3465426171875,97.02564533691407C13.7414026171875,98.15764533691406,15.7898226171875,97.94454533691406,16.9218226171875,96.54964533691407L25.6634326171875,85.77829533691406L25.9389326171875,85.38285533691406C26.7468326171875,84.01856533691407,26.4555326171875,82.23210533691406,25.1874326171875,81.20300933691406ZM41.7874326171875,81.20300933691406C40.3925326171875,80.07100733691406,38.3441326171875,80.28409433691407,37.2121326171875,81.67895533691406L28.4706326171875,92.45034533691407L28.1951326171875,92.84574533691406C27.3871326171875,94.21004533691406,27.6784326171875,95.99654533691407,28.9465326171875,97.02564533691407C30.3414326171875,98.15764533691406,32.3898326171875,97.94454533691406,33.5218326171875,96.54964533691407L42.2633326171875,85.77829533691406L42.538832617187495,85.38285533691406C43.3468326171875,84.01856533691407,43.055532617187495,82.23210533691406,41.7874326171875,81.20300933691406ZM58.3876326171875,81.20300933691406C56.9927326171875,80.07100733691406,54.9443326171875,80.28409433691407,53.8123326171875,81.67895533691406L45.0708326171875,92.45034533691407L44.7953326171875,92.84574533691406C43.9873326171875,94.21004533691406,44.2787326171875,95.99654533691407,45.5467326171875,97.02564533691407C46.9416326171875,98.15764533691406,48.9900326171875,97.94454533691406,50.1220326171875,96.54964533691407L58.8635326171875,85.77829533691406L59.1391326171875,85.38285533691406C59.9470326171875,84.01856533691407,59.6557326171875,82.23210533691406,58.3876326171875,81.20300933691406ZM91.5893326171875,81.20300933691406C90.1944326171875,80.07100733691406,88.1460326171875,80.28409433691407,87.0140326171875,81.67895533691406L78.2724326171875,92.45034533691407L77.9969326171875,92.84574533691406C77.1889326171875,94.21004533691406,77.4803326171875,95.99654533691407,78.7484326171875,97.02564533691407C80.1432326171875,98.15764533691406,82.1916326171875,97.94454533691406,83.3237326171875,96.54964533691407L92.0652326171875,85.77829533691406L92.3407326171875,85.38285533691406C93.1487326171875,84.01856533691407,92.8573326171875,82.23210533691406,91.5893326171875,81.20300933691406ZM74.9895326171875,81.20319533691406C73.5947326171875,80.07106633691406,71.5463326171875,80.28396733691406,70.4141326171875,81.67872533691406L61.6710326171875,92.45014533691406L61.3954326171875,92.84554533691406C60.5873326171875,94.20974533691407,60.8785326171875,95.99624533691406,62.1465326171875,97.02544533691406C63.5412326171875,98.15754533691407,65.58973261718751,97.94464533691406,66.7218326171875,96.54994533691406L75.4650326171875,85.77852533691406L75.7405326171875,85.38311533691406C76.5487326171875,84.01889533691406,76.2574326171875,82.23240533691406,74.9895326171875,81.20319533691406Z" fill-rule="evenodd" fill="#55ADE1" fill-opacity="1"/></g><g style="mix-blend-mode:passthrough"><path d="M47.91993051757812,8.999969482421875C35.465530517578124,8.999969482421875,24.651930517578126,17.546909482421874,21.480630517578124,28.734269482421876L21.480630517578124,28.734269482421876C11.725840517578124,31.028569482421876,4.500030517578125,39.57396948242187,4.500030517578125,49.784869482421875L4.500030517578125,49.784869482421875C4.500030517578125,60.68326948242188,12.195860517578126,69.91926948242187,23.007730517578125,71.40866948242189L23.007730517578125,71.40866948242189L86.22673051757812,71.40866948242189C95.86273051757813,70.49086948242189,103.50003051757812,62.459969482421876,103.50003051757812,52.82546948242187L103.50003051757812,52.82546948242187C103.50003051757812,42.55576948242187,94.92113051757812,33.95166948242188,84.34663051757812,33.95166948242188L84.34663051757812,33.95166948242188C80.82073051757813,33.95166948242188,77.53233051757813,35.21556948242187,74.71063051757812,36.82236948242188L74.71063051757812,36.82236948242188C74.71063051757812,36.42066948242187,74.76913051757812,36.13326948242187,74.76913051757812,35.78876948242187L74.76913051757812,35.78876948242187C74.76913051757812,21.276569482421877,62.958730517578125,8.999969482421875,47.91993051757812,8.999969482421875Z" fill-rule="evenodd" fill="url(#master_svg0_0_393)" fill-opacity="1"/></g></g></svg>