<svg xmlns="http://www.w3.org/2000/svg" xmlns:xlink="http://www.w3.org/1999/xlink" fill="none" version="1.1" width="108" height="108" viewBox="0 0 108 108"><defs><linearGradient x1="0.6900765895843506" y1="0.16113921999931335" x2="0.3220157325267792" y2="1.1484321355819702" id="master_svg0_0_393"><stop offset="0%" stop-color="#FFFFFF" stop-opacity="1"/><stop offset="100%" stop-color="#C8CACD" stop-opacity="1"/></linearGradient></defs><g style="mix-blend-mode:passthrough"><g style="mix-blend-mode:passthrough"><path d="M29.052898336029052,82.20880912841797C30.174798336029053,80.80582312841797,32.221598336029054,80.57796812841796,33.62459833602905,81.69988012841797C34.89999833602906,82.71979912841797,35.204298336029055,84.50411912841797,34.40619833602905,85.87419912841797L34.13349833602905,86.27161912841797L25.39029833602905,97.20521912841797C24.26839833602905,98.60821912841797,22.221598336029054,98.83611912841798,20.818598336029055,97.71421912841797C19.54319833602905,96.69421912841797,19.238898336029052,94.90991912841797,20.03699833602905,93.53981912841797L20.30969833602905,93.14241912841797L29.052898336029052,82.20880912841797ZM43.262498336029054,82.20903912841797C44.38419833602905,80.80595212841797,46.43109833602905,80.57791112841797,47.83409833602905,81.69969612841797C49.109698336029055,82.71949912841797,49.414098336029056,84.50378912841796,48.616098336029054,85.87393912841797L48.34349833602905,86.27138912841797L39.60189833602905,97.20501912841797C38.48009833602905,98.60811912841797,36.433298336029054,98.83611912841798,35.03019833602905,97.71431912841797C33.75469833602905,96.69451912841797,33.45029833602905,94.91021912841796,34.24829833602905,93.54011912841797L34.52089833602905,93.14271912841797L43.262498336029054,82.20903912841797ZM62.04539833602905,82.31340912841797C60.642198336029054,81.19172712841797,58.59539833602905,81.41991612841797,57.47369833602905,82.82308912841796L48.732098336029054,93.75831912841797L48.45959833602905,94.15581912841797C47.661698336029055,95.52601912841797,47.96619833602905,97.31021912841797,49.24179833602905,98.33001912841797C50.644998336029055,99.45161912841797,52.69179833602905,99.22351912841796,53.813498336029056,97.82031912841796L62.55499833602905,86.88505912841796L62.827598336029055,86.48759912841797C63.625498336029054,85.11739912841797,63.32099833602905,83.33312912841797,62.04539833602905,82.31340912841797ZM76.25689833602905,82.31340912841797C74.85369833602905,81.19172712841797,72.80689833602905,81.41991612841797,71.68519833602905,82.82308912841796L62.94369833602905,93.75831912841797L62.671098336029054,94.15581912841797C61.873198336029056,95.52601912841797,62.17769833602905,97.31021912841797,63.45329833602905,98.33001912841797C64.85649833602906,99.45161912841797,66.90329833602905,99.22351912841796,68.02499833602906,97.82031912841796L76.76649833602906,86.88505912841796L77.03909833602906,86.48759912841797C77.83699833602905,85.11739912841797,77.53249833602905,83.33312912841797,76.25689833602905,82.31340912841797ZM90.46829833602905,82.31340912841797C89.06509833602905,81.19172712841797,87.01829833602905,81.41991612841797,85.89659833602906,82.82308912841796L77.15509833602906,93.75831912841797L76.88249833602906,94.15581912841797C76.08459833602905,95.52601912841797,76.38909833602905,97.31021912841797,77.66469833602905,98.33001912841797C79.06789833602905,99.45161912841797,81.11469833602905,99.22351912841796,82.23639833602905,97.82031912841796L90.97789833602906,86.88505912841796L91.25049833602905,86.48759912841797C92.04839833602905,85.11739912841797,91.74389833602905,83.33312912841797,90.46829833602905,82.31340912841797ZM7.495428336029053,88.02496912841796C5.439740336029053,89.29819912841796,4.990871336029053,91.98321912841797,6.402531336029053,94.22511912841797C7.558858336029052,96.05921912841796,11.966228336029053,98.28811912841797,13.932468336029054,98.91021912841796C14.228468336029053,99.15361912841797,14.470788336029052,98.86031912841797,14.548848336029053,98.52831912841796C14.638298336029052,96.63131912841797,14.714738336029052,91.76891912841796,13.558418336029053,89.93480912841797C12.145128336029053,87.69296912841797,9.551118336029052,86.75174912841797,7.495428336029053,88.02496912841796ZM100.68889833602906,89.06943912841797C102.54129833602906,90.61825912841798,102.60149833602905,93.34041912841796,100.88239833602906,95.35981912841797C99.47559833602905,97.01021912841797,94.79339833602906,98.59771912841796,92.75889833602905,98.93931912841796C92.43199833602905,99.13761912841797,92.23189833602905,98.81361912841797,92.20269833602906,98.47521912841796C92.38479833602905,96.58471912841797,93.00439833602906,91.75931912841797,94.41119833602906,90.10574912841797C96.13189833602905,88.08631912841797,98.83489833602906,87.51900912841796,100.68889833602906,89.06943912841797Z" fill-rule="evenodd" fill="#55ADE1" fill-opacity="1"/></g><g style="mix-blend-mode:passthrough"><path d="M47.91833433227539,8.999969482421875C35.46383433227539,8.999969482421875,24.651934332275392,17.675639482421875,21.47903433227539,29.031569482421876L21.47903433227539,29.031569482421876C11.72584433227539,31.360369482421873,4.500034332275391,40.034469482421876,4.500034332275391,50.399169482421875L4.500034332275391,50.399169482421875C4.500034332275391,61.46176948242187,12.195864332275391,70.83526948242186,23.00773433227539,72.34866948242188L23.00773433227539,72.34866948242188L86.22513433227539,72.34866948242188C95.86113433227538,71.41706948242188,103.50003433227539,63.265169482421875,103.50003433227539,53.48556948242187L103.50003433227539,53.48556948242187C103.50003433227539,43.061169482421874,94.92113433227539,34.327469482421876,84.34663433227539,34.327469482421876L84.34663433227539,34.327469482421876C80.82243433227539,34.327469482421876,77.5323343322754,35.61036948242187,74.7090343322754,37.24146948242188L74.7090343322754,37.24146948242188C74.7090343322754,36.833669482421875,74.76913433227539,36.54196948242188,74.76913433227539,36.192169482421875L74.76913433227539,36.192169482421875C74.76913433227539,21.461469482421876,62.96033433227539,8.999969482421875,47.91833433227539,8.999969482421875Z" fill-rule="evenodd" fill="url(#master_svg0_0_393)" fill-opacity="1"/></g></g></svg>