<svg xmlns="http://www.w3.org/2000/svg" xmlns:xlink="http://www.w3.org/1999/xlink" fill="none" version="1.1" width="108" height="108" viewBox="0 0 108 108"><defs><linearGradient x1="0.6900765895843506" y1="0.16111786663532257" x2="0.3220157325267792" y2="1.1484359502792358" id="master_svg0_0_433"><stop offset="0%" stop-color="#FFFFFF" stop-opacity="1"/><stop offset="100%" stop-color="#C8CACD" stop-opacity="1"/></linearGradient></defs><g style="mix-blend-mode:passthrough"><g style="mix-blend-mode:passthrough"><path d="M35.70418680419922,86.29022791748046C36.68578680419922,85.06257691748047,38.47678680419922,84.86313791748047,39.70448680419922,85.84476691748047C40.80928680419922,86.72822791748047,41.08138680419922,88.26726791748047,40.40908680419922,89.46119791748046L40.14988680419922,89.84501791748048L31.40833680419922,100.77742791748047C30.42670680419922,102.00512791748046,28.63573680419922,102.20452791748048,27.40808680419922,101.22292791748046C26.30320100419922,100.33942791748046,26.03116680419922,98.80042791748048,26.703415804199217,97.60642791748047L26.96262580419922,97.22262791748047L35.70418680419922,86.29022791748046ZM71.89658680419922,86.29022791748046C72.87828680419922,85.06257691748047,74.66918680419923,84.86313791748047,75.89688680419923,85.84476691748047C77.00178680419921,86.72822791748047,77.27378680419922,88.26726791748047,76.60158680419923,89.46119791748046L76.34238680419922,89.84501791748048L67.60078680419922,100.77742791748047C66.61918680419922,102.00512791748046,64.82818680419922,102.20452791748048,63.60048680419922,101.22292791748046C62.49568680419922,100.33942791748046,62.22358680419922,98.80042791748048,62.89588680419922,97.60642791748047L63.15508680419922,97.22262791748047L71.89658680419922,86.29022791748046Z" fill="#55ADE1" fill-opacity="1"/></g><g style="mix-blend-mode:passthrough"><path d="M47.91993051757812,8.999969482421875C35.463830517578124,8.999969482421875,24.651930517578126,17.674669482421876,21.479030517578124,29.026069482421875L21.479030517578124,29.026069482421875C11.725840517578124,31.354669482421876,4.500030517578125,40.02936948242187,4.500030517578125,50.392969482421876L4.500030517578125,50.392969482421876C4.500030517578125,61.45426948242188,12.195860517578126,70.82676948242187,23.007730517578125,72.33996948242188L23.007730517578125,72.33996948242188L86.22513051757812,72.33996948242188C95.86273051757813,71.41016948242188,103.50003051757812,63.259169482421875,103.50003051757812,53.478969482421874L103.50003051757812,53.478969482421874C103.50003051757812,43.057369482421876,94.92113051757812,34.324669482421875,84.34663051757812,34.324669482421875L84.34663051757812,34.324669482421875C80.82243051757813,34.324669482421875,77.53233051757813,35.604169482421874,74.71063051757812,37.233469482421874L74.71063051757812,37.233469482421874C74.71063051757812,36.825769482421876,74.76913051757812,36.53726948242188,74.76913051757812,36.18756948242188L74.76913051757812,36.18756948242188C74.76913051757812,21.458469482421876,62.958730517578125,8.999969482421875,47.91993051757812,8.999969482421875Z" fill-rule="evenodd" fill="url(#master_svg0_0_433)" fill-opacity="1"/></g><g style="mix-blend-mode:passthrough"><path d="M25.775757179260253,79.79281073486328C25.548057179260255,79.39155073486329,25.167457179260253,79.09664073486329,24.718657179260255,78.97578073486328C24.269757179260253,78.85653073486328,23.791557179260252,78.92099073486328,23.391557179260253,79.15466073486328L20.460867179260255,80.84351073486329L20.460867179260255,77.46419073486328C20.464117179260256,77.00331073486328,20.281967179260256,76.55853173486328,19.95344717926025,76.23139773486328C19.626557179260253,75.90426273486328,19.179307179260256,75.71894073486328,18.714177179260254,75.71894073486328C18.249047179260252,75.71894073486328,17.805057179260253,75.90426273486328,17.474907179260253,76.23139773486328C17.148017179260254,76.55853173486328,16.965867179260254,77.00331073486328,16.96911717926025,77.46419073486328L16.96911717926025,80.84351073486329L14.038457179260254,79.15466073486328C13.636757179260254,78.92260073486328,13.158607179260255,78.85975073486328,12.711367179260254,78.97900073486328C12.262498179260254,79.09825073486329,11.881935179260253,79.39155073486329,11.652622179260254,79.79281073486328C11.172852179260254,80.62596073486328,11.457461479260253,81.68794073486328,12.293398179260254,82.17622073486328L15.222427179260254,83.86507073486328L12.293398179260254,85.55392073486328C11.452582479260254,86.03894073486327,11.166347179260255,87.10584073486328,11.652622179260254,87.94054073486328C11.881935179260253,88.34184073486328,12.260872179260254,88.63354073486329,12.711367179260254,88.75594073486329C13.158607179260255,88.87524073486328,13.636757179260254,88.81234073486328,14.038457179260254,88.57874073486329L16.96911717926025,86.88824073486327L16.96911717926025,90.26594073486328C16.96911717926025,91.23444073486328,17.746507179260256,92.01284073486329,18.714177179260254,92.01284073486329C19.683477179260255,92.01284073486329,20.460867179260255,91.23444073486328,20.460867179260255,90.26594073486328L20.460867179260255,86.88824073486327L23.391557179260253,88.57874073486329C23.791557179260252,88.80914073486328,24.269757179260253,88.87204073486328,24.718657179260255,88.75274073486328C25.165857179260254,88.63184073486329,25.54645717926025,88.34024073486329,25.775757179260253,87.94054073486328C26.257157179260254,87.10584073486328,25.972557179260257,86.04384073486328,25.138257179260254,85.55392073486328L22.209157179260252,83.86507073486328L25.138257179260254,82.17622073486328C25.972557179260257,81.68794073486328,26.257157179260254,80.62596073486328,25.775757179260253,79.79281073486328ZM60.341757179260256,79.79281073486328C60.11405717926026,79.39155073486329,59.73355717926025,79.09664073486329,59.28465717926025,78.97578073486328C58.835757179260256,78.85653073486328,58.35765717926025,78.92099073486328,57.95595717926025,79.15466073486328L55.026857179260254,80.84351073486329L55.026857179260254,77.46419073486328C55.03015717926026,77.00331073486328,54.847957179260256,76.55853173486328,54.51945717926026,76.23139773486328C54.192557179260255,75.90426273486328,53.74535717926025,75.71894073486328,53.28015717926026,75.71894073486328C52.81505717926025,75.71894073486328,52.36945717926025,75.90426273486328,52.04095717926025,76.23139773486328C51.71405717926025,76.55853173486328,51.53185717926026,77.00331073486328,51.53515717926025,77.46419073486328L51.53515717926025,80.84351073486329L48.60445717926025,79.15466073486328C48.20275717926025,78.92260073486328,47.724657179260255,78.85975073486328,47.27735717926026,78.97900073486328C46.82855717926025,79.09825073486329,46.44795717926026,79.39155073486329,46.218657179260255,79.79281073486328C45.737257179260254,80.62596073486328,46.023457179260255,81.68794073486328,46.857757179260254,82.17622073486328L49.788457179260256,83.86507073486328L46.857757179260254,85.55392073486328C46.01695717926025,86.03894073486327,45.732357179260255,87.10584073486328,46.218657179260255,87.94054073486328C46.446357179260254,88.34184073486328,46.82685717926025,88.63354073486329,47.27735717926026,88.75594073486329C47.724657179260255,88.87524073486328,48.20275717926025,88.81234073486328,48.60445717926025,88.57874073486329L51.53515717926025,86.88824073486327L51.53515717926025,90.26594073486328C51.53515717926025,91.23444073486328,52.31255717926025,92.01284073486329,53.28015717926026,92.01284073486329C54.24785717926025,92.01284073486329,55.026857179260254,91.23444073486328,55.026857179260254,90.26594073486328L55.026857179260254,86.88824073486327L57.95595717926025,88.57874073486329C58.35765717926025,88.80914073486328,58.835757179260256,88.87204073486328,59.28465717926025,88.75274073486328C59.73185717926025,88.63184073486329,60.112457179260254,88.34024073486329,60.341757179260256,87.94054073486328C60.82315717926026,87.10584073486328,60.53855717926025,86.04384073486328,59.70425717926025,85.55392073486328L56.77355717926025,83.86507073486328L59.70425717926025,82.17622073486328C60.53855717926025,81.68794073486328,60.82315717926026,80.62596073486328,60.341757179260256,79.79281073486328ZM94.90775717926026,79.79281073486328C94.67845717926025,79.39155073486329,94.29945717926026,79.09664073486329,93.85065717926025,78.97578073486328C93.40175717926026,78.85653073486328,92.92195717926026,78.92099073486328,92.52185717926025,79.15466073486328L89.59285717926025,80.84351073486329L89.59285717926025,77.46419073486328C89.59445717926026,77.00331073486328,89.41235717926025,76.55853173486328,89.08545717926026,76.23139773486328C88.75855717926025,75.90426273486328,88.31135717926026,75.71894073486328,87.84615717926026,75.71894073486328C87.38105717926025,75.71894073486328,86.93545717926025,75.90426273486328,86.60695717926025,76.23139773486328C86.28005717926025,76.55853173486328,86.09785717926026,77.00331073486328,86.10115717926026,77.46419073486328L86.10115717926026,80.84351073486329L83.16885717926026,79.15466073486328C82.76875717926025,78.92260073486328,82.29065717926025,78.85975073486328,81.84335717926025,78.97900073486328C81.39445717926026,79.09825073486329,81.01395717926026,79.39155073486329,80.78465717926025,79.79281073486328C80.30485717926025,80.62596073486328,80.58785717926025,81.68794073486328,81.42375717926025,82.17622073486328L84.35285717926025,83.86507073486328L81.42375717926025,85.55392073486328C80.58295717926025,86.03894073486327,80.29835717926025,87.10584073486328,80.78465717926025,87.94054073486328C81.01235717926025,88.34184073486328,81.39285717926025,88.63354073486329,81.84335717926025,88.75594073486329C82.29065717926025,88.87524073486328,82.76875717926025,88.81234073486328,83.16885717926026,88.57874073486329L86.10115717926026,86.88824073486327L86.10115717926026,90.26594073486328C86.10115717926026,91.23444073486328,86.87855717926026,92.01284073486329,87.84615717926026,92.01284073486329C88.81385717926025,92.01284073486329,89.59285717926025,91.23444073486328,89.59285717926025,90.26594073486328L89.59285717926025,86.88824073486327L92.52185717926025,88.57874073486329C92.92365717926026,88.80914073486328,93.40015717926025,88.87204073486328,93.85065717926025,88.75274073486328C94.29785717926025,88.63184073486329,94.67675717926025,88.34024073486329,94.90775717926026,87.94054073486328C95.38915717926025,87.10584073486328,95.10455717926025,86.04384073486328,94.26855717926026,85.55392073486328L91.33955717926025,83.86507073486328L94.26855717926026,82.17622073486328C95.10455717926025,81.68794073486328,95.38745717926025,80.62596073486328,94.90775717926026,79.79281073486328Z" fill-rule="evenodd" fill="#55ADE1" fill-opacity="1"/></g></g></svg>