<svg xmlns="http://www.w3.org/2000/svg" xmlns:xlink="http://www.w3.org/1999/xlink" fill="none" version="1.1" width="108" height="108" viewBox="0 0 108 108"><defs><linearGradient x1="0.6900765895843506" y1="0.16112695634365082" x2="0.3220157325267792" y2="1.1484450101852417" id="master_svg0_0_475"><stop offset="0%" stop-color="#FFFFFF" stop-opacity="1"/><stop offset="100%" stop-color="#C8CACD" stop-opacity="1"/></linearGradient></defs><g style="mix-blend-mode:passthrough"><g style="mix-blend-mode:passthrough"><path d="M47.91993051757812,8.999969482421875C35.463830517578124,8.999969482421875,24.651930517578126,17.727119482421877,21.480630517578124,29.147169482421877L21.480630517578124,29.147169482421877C11.725840517578124,31.491469482421873,4.500030517578125,40.21856948242187,4.500030517578125,50.643169482421875L4.500030517578125,50.643169482421875C4.500030517578125,61.771369482421875,12.197480517578125,71.20216948242188,23.007730517578125,72.72286948242188L23.007730517578125,72.72286948242188L86.22673051757812,72.72286948242188C95.86273051757813,71.78746948242187,103.50003051757812,63.58716948242188,103.50003051757812,53.747869482421876L103.50003051757812,53.747869482421876C103.50003051757812,43.263269482421876,94.92273051757813,34.47776948242188,84.34663051757812,34.47776948242188L84.34663051757812,34.47776948242188C80.82073051757813,34.47776948242188,77.53233051757813,35.76826948242187,74.71063051757812,37.405769482421874L74.71063051757812,37.405769482421874C74.71063051757812,36.99556948242187,74.76913051757812,36.703769482421876,74.76913051757812,36.353569482421875L74.76913051757812,36.353569482421875C74.76913051757812,21.533769482421874,62.96033051757812,8.999969482421875,47.91993051757812,8.999969482421875Z" fill-rule="evenodd" fill="url(#master_svg0_0_475)" fill-opacity="1"/></g><g style="mix-blend-mode:passthrough"><path d="M44.71573196411133,86.7062880859375C44.48803196411133,86.3025980859375,44.10743196411133,86.0059080859375,43.65863196411133,85.8843180859375C43.20973196411133,85.7643480859375,42.731531964111326,85.8291980859375,42.33153196411133,86.0642780859375L39.40084196411133,87.7633380859375L39.40084196411133,84.3635980859375C39.40409196411133,83.8999180859375,39.22194196411133,83.4524550859375,38.893421964111326,83.1233430859375C38.56653196411133,82.7942310859375,38.11928196411133,82.6077880859375,37.65415196411133,82.6077880859375C37.189021964111326,82.6077880859375,36.74503196411133,82.7942310859375,36.41488196411133,83.1233430859375C36.087991964111325,83.4524550859375,35.90584196411133,83.8999180859375,35.909091964111326,84.3635980859375L35.909091964111326,87.7633380859375L32.97843196411133,86.0642780859375C32.57673196411133,85.8308180859375,32.098581964111325,85.7675880859375,31.651341964111328,85.8875580859375C31.20247296411133,86.0075280859375,30.821909964111327,86.3025980859375,30.59259696411133,86.7062880859375C30.112826964111328,87.5444680859375,30.397436264111327,88.6128680859375,31.23337296411133,89.1041080859375L34.162401964111325,90.8031680859375L31.23337296411133,92.5022280859375C30.39255726411133,92.9901880859375,30.106321964111327,94.06348808593751,30.59259696411133,94.9032880859375C30.821909964111327,95.3069880859375,31.200846964111328,95.6003880859375,31.651341964111328,95.72358808593751C32.098581964111325,95.8435880859375,32.57673196411133,95.7803880859375,32.97843196411133,95.5452880859375L35.909091964111326,93.8445880859375L35.909091964111326,97.2427880859375C35.909091964111326,98.2170880859375,36.68648196411133,99.0001880859375,37.65415196411133,99.0001880859375C38.623451964111325,99.0001880859375,39.40084196411133,98.2170880859375,39.40084196411133,97.2427880859375L39.40084196411133,93.8445880859375L42.33153196411133,95.5452880859375C42.731531964111326,95.77708808593749,43.20973196411133,95.8403880859375,43.65863196411133,95.7203880859375C44.10583196411133,95.5987880859375,44.486431964111325,95.3053880859375,44.71573196411133,94.9032880859375C45.19713196411133,94.06348808593751,44.91253196411133,92.9950880859375,44.078231964111325,92.5022280859375L41.14913196411133,90.8031680859375L44.078231964111325,89.1041080859375C44.91253196411133,88.6128680859375,45.19713196411133,87.5444680859375,44.71573196411133,86.7062880859375ZM72.44773196411133,86.7062880859375C72.22003196411133,86.3025980859375,71.83943196411133,86.0059080859375,71.39053196411132,85.8843180859375C70.94173196411133,85.7643480859375,70.46193196411133,85.8291980859375,70.06183196411132,86.0642780859375L67.13283196411132,87.7633380859375L67.13283196411132,84.3635980859375C67.13603196411133,83.8999180859375,66.95233196411132,83.4524550859375,66.62543196411133,83.1233430859375C66.29853196411133,82.7942310859375,65.85123196411132,82.6077880859375,65.38613196411133,82.6077880859375C64.92103196411134,82.6077880859375,64.47543196411132,82.7942310859375,64.14683196411133,83.1233430859375C63.819931964111326,83.4524550859375,63.63783196411133,83.8999180859375,63.64103196411133,84.3635980859375L63.64103196411133,87.7633380859375L60.708831964111326,86.0642780859375C60.30873196411133,85.8308180859375,59.83053196411133,85.7675880859375,59.38333196411133,85.8875580859375C58.934431964111326,86.0075280859375,58.55393196411133,86.3025980859375,58.32453196411133,86.7062880859375C57.84483196411133,87.5444680859375,58.12783196411132,88.6128680859375,58.96373196411133,89.1041080859375L61.89273196411133,90.8031680859375L58.96373196411133,92.5022280859375C58.12293196411133,92.9901880859375,57.83833196411133,94.06348808593751,58.32453196411133,94.9032880859375C58.55223196411133,95.3069880859375,58.93283196411133,95.6003880859375,59.38333196411133,95.72358808593751C59.83053196411133,95.8435880859375,60.30873196411133,95.7803880859375,60.708831964111326,95.5452880859375L63.64103196411133,93.8445880859375L63.64103196411133,97.2427880859375C63.64103196411133,98.2170880859375,64.41843196411133,99.0001880859375,65.38613196411133,99.0001880859375C66.35383196411132,99.0001880859375,67.13283196411132,98.2170880859375,67.13283196411132,97.2427880859375L67.13283196411132,93.8445880859375L70.06183196411132,95.5452880859375C70.46353196411133,95.77708808593749,70.94003196411133,95.8403880859375,71.39053196411132,95.7203880859375C71.83783196411133,95.5987880859375,72.21673196411132,95.3053880859375,72.44773196411133,94.9032880859375C72.92913196411132,94.06348808593751,72.64443196411133,92.9950880859375,71.80853196411132,92.5022280859375L68.87953196411132,90.8031680859375L71.80853196411132,89.1041080859375C72.64443196411133,88.6128680859375,72.92743196411132,87.5444680859375,72.44773196411133,86.7062880859375Z" fill-rule="evenodd" fill="#55ADE1" fill-opacity="1"/></g></g></svg>