<svg xmlns="http://www.w3.org/2000/svg" xmlns:xlink="http://www.w3.org/1999/xlink" fill="none" version="1.1" width="108" height="108" viewBox="0 0 108 108"><defs><linearGradient x1="0.6900879144668579" y1="0.1611228585243225" x2="0.3220210373401642" y2="1.1484158039093018" id="master_svg0_0_397"><stop offset="0%" stop-color="#FFFFFF" stop-opacity="1"/><stop offset="100%" stop-color="#C8CACD" stop-opacity="1"/></linearGradient></defs><g style="mix-blend-mode:passthrough"><g style="mix-blend-mode:passthrough"><path d="M47.92076103515625,8.999969482421875C35.46436103515625,8.999969482421875,24.65236103515625,17.727119482421877,21.47926103515625,29.147169482421877L21.47926103515625,29.147169482421877C11.72599103515625,31.491469482421873,4.50006103515625,40.21856948242187,4.50006103515625,50.643169482421875L4.50006103515625,50.643169482421875C4.50006103515625,61.771369482421875,12.19601103515625,71.20056948242188,23.00806103515625,72.72446948242188L23.00806103515625,72.72446948242188L86.22646103515625,72.72446948242188C95.86266103515625,71.78746948242187,103.50006103515625,63.58716948242188,103.50006103515625,53.747869482421876L103.50006103515625,53.747869482421876C103.50006103515625,43.263269482421876,94.92266103515625,34.47776948242188,84.34636103515625,34.47776948242188L84.34636103515625,34.47776948242188C80.82366103515625,34.47776948242188,77.53196103515624,35.766669482421875,74.71176103515624,37.40736948242187L74.71176103515624,37.40736948242187C74.71176103515624,36.997169482421874,74.77196103515625,36.703769482421876,74.77196103515625,36.353569482421875L74.77196103515625,36.353569482421875C74.77196103515625,21.533769482421874,62.96136103515625,8.999969482421875,47.92076103515625,8.999969482421875Z" fill-rule="evenodd" fill="url(#master_svg0_0_397)" fill-opacity="1"/></g><g style="mix-blend-mode:passthrough"><path d="M88.43343870239258,86.7060668334961C88.20573870239258,86.3023768334961,87.82523870239258,86.0056868334961,87.37633870239257,85.88409683349609C86.92743870239258,85.76412683349609,86.44933870239258,85.8289768334961,86.04923870239257,86.0640568334961L83.11853870239258,87.7631168334961L83.11853870239258,84.36337683349609C83.12173870239258,83.8996968334961,82.93963870239257,83.4522338334961,82.61103870239258,83.1231218334961C82.28423870239259,82.79400983349609,81.83693870239257,82.6091880734961,81.37183870239258,82.6075668334961C80.90663870239258,82.6091880734961,80.46263870239258,82.79400983349609,80.13253870239258,83.1231218334961C79.80563870239257,83.4522338334961,79.62343870239258,83.8996968334961,79.62673870239257,84.36337683349609L79.62673870239257,87.7631168334961L76.69603870239257,86.0640568334961C76.29433870239258,85.83059683349609,75.81613870239258,85.7673668334961,75.36893870239257,85.8873368334961C74.92003870239259,86.0089368334961,74.53943870239257,86.3039968334961,74.31013870239258,86.7060668334961C73.83033870239258,87.54586683349609,74.11493870239258,88.6126468334961,74.95093870239258,89.10388683349609L77.88003870239257,90.8029468334961L74.95093870239258,92.5036268334961C74.11003870239259,92.9899668334961,73.82383870239258,94.0632668334961,74.31013870239258,94.9030668334961C74.53943870239257,95.3067668334961,74.91833870239257,95.60186683349609,75.36893870239257,95.7233668334961C75.81613870239258,95.84336683349609,76.29433870239258,95.7801668334961,76.69603870239257,95.5450668334961L79.62673870239257,93.8443668334961L79.62673870239257,97.2425668334961C79.62673870239257,98.2184668334961,80.40413870239257,98.99996683349609,81.37183870239258,98.99996683349609C82.34113870239258,98.99996683349609,83.11853870239258,98.2184668334961,83.11853870239258,97.2425668334961L83.11853870239258,93.8443668334961L86.04923870239257,95.5450668334961C86.44933870239258,95.77856683349609,86.92743870239258,95.8401668334961,87.37633870239257,95.7201668334961C87.82353870239258,95.5985668334961,88.20413870239258,95.30516683349609,88.43343870239258,94.9030668334961C88.91483870239257,94.0632668334961,88.63023870239257,92.99486683349609,87.79593870239258,92.5036268334961L84.86683870239258,90.8029468334961L87.79593870239258,89.10388683349609C88.63023870239257,88.6126468334961,88.91483870239257,87.54424683349609,88.43343870239258,86.7060668334961ZM31.232838702392577,86.7060668334961C31.00513870239258,86.3023768334961,30.624538702392577,86.0056868334961,30.17573870239258,85.88409683349609C29.726838702392577,85.76412683349609,29.248638702392576,85.8289768334961,28.848638702392577,86.0640568334961L25.917888702392577,87.7631168334961L25.917888702392577,84.36337683349609C25.92114870239258,83.8996968334961,25.73898870239258,83.4522338334961,25.410468702392578,83.1231218334961C25.083568702392576,82.79400983349609,24.63631870239258,82.6091880734961,24.171178702392577,82.6075668334961C23.70603870239258,82.6091880734961,23.260418702392577,82.79400983349609,22.931888702392577,83.1231218334961C22.60498870239258,83.4522338334961,22.42283870239258,83.8996968334961,22.426088702392576,84.36337683349609L22.426088702392576,87.7631168334961L19.49537870239258,86.0640568334961C19.093668702392577,85.83059683349609,18.615518702392578,85.7673668334961,18.168268702392577,85.8873368334961C17.71939370239258,86.0089368334961,17.33882470239258,86.3039968334961,17.109507702392577,86.7060668334961C16.629729702392577,87.54586683349609,16.91434370239258,88.6126468334961,17.75029470239258,89.10388683349609L20.67937870239258,90.8029468334961L17.75029470239258,92.5036268334961C16.90946460239258,92.9899668334961,16.623224702392577,94.0632668334961,17.109507702392577,94.9030668334961C17.33882470239258,95.3067668334961,17.717767702392578,95.60186683349609,18.168268702392577,95.7233668334961C18.615518702392578,95.84336683349609,19.093668702392577,95.7801668334961,19.49537870239258,95.5450668334961L22.426088702392576,93.8443668334961L22.426088702392576,97.2425668334961C22.426088702392576,98.2184668334961,23.203488702392576,98.99996683349609,24.171178702392577,98.99996683349609C25.13885870239258,98.99996683349609,25.917888702392577,98.2184668334961,25.917888702392577,97.2425668334961L25.917888702392577,93.8443668334961L28.848638702392577,95.5450668334961C29.248638702392576,95.77856683349609,29.726838702392577,95.8401668334961,30.17573870239258,95.7201668334961C30.622938702392577,95.5985668334961,31.00353870239258,95.30516683349609,31.232838702392577,94.9030668334961C31.714238702392578,94.0632668334961,31.42963870239258,92.99486683349609,30.595338702392578,92.5036268334961L27.66463870239258,90.8029468334961L30.595338702392578,89.10388683349609C31.42963870239258,88.6126468334961,31.714238702392578,87.54424683349609,31.232838702392577,86.7060668334961ZM59.83243870239258,86.7060668334961C59.60473870239258,86.3023768334961,59.22413870239258,86.0056868334961,58.77693870239258,85.88409683349609C58.32643870239258,85.76412683349609,57.84823870239258,85.8289768334961,57.448138702392576,86.0640568334961L54.51903870239258,87.7631168334961L54.51903870239258,84.36337683349609C54.52073870239258,83.8996968334961,54.338538702392576,83.4522338334961,54.01163870239258,83.1231218334961C53.683138702392576,82.79400983349609,53.23753870239258,82.6091880734961,52.77233870239258,82.6075668334961C52.30723870239258,82.6091880734961,51.861638702392575,82.79400983349609,51.53303870239258,83.1231218334961C51.20613870239258,83.4522338334961,51.02403870239258,83.8996968334961,51.02723870239258,84.36337683349609L51.02723870239258,87.7631168334961L48.09493870239258,86.0640568334961C47.69483870239257,85.83059683349609,47.216738702392576,85.7673668334961,46.76943870239258,85.8873368334961C46.32053870239258,86.0089368334961,45.94003870239258,86.3039968334961,45.710738702392575,86.7060668334961C45.22923870239258,87.54586683349609,45.51393870239258,88.6126468334961,46.349838702392574,89.10388683349609L49.27893870239258,90.8029468334961L46.349838702392574,92.5036268334961C45.50903870239257,92.9899668334961,45.224438702392575,94.0632668334961,45.710738702392575,94.9030668334961C45.93833870239258,95.3067668334961,46.31893870239258,95.60186683349609,46.76783870239258,95.7233668334961C47.216738702392576,95.84336683349609,47.69483870239257,95.7801668334961,48.09493870239258,95.5450668334961L51.02723870239258,93.8443668334961L51.02723870239258,97.2425668334961C51.02723870239258,98.2184668334961,51.80303870239258,98.99996683349609,52.77233870239258,98.99996683349609C53.74003870239258,98.99996683349609,54.51903870239258,98.2184668334961,54.51903870239258,97.2425668334961L54.51903870239258,93.8443668334961L57.448138702392576,95.5450668334961C57.84983870239258,95.77856683349609,58.32643870239258,95.8401668334961,58.77523870239258,95.7201668334961C59.222538702392576,95.5985668334961,59.60303870239258,95.30516683349609,59.83243870239258,94.9030668334961C60.31383870239258,94.0632668334961,60.03083870239258,92.99486683349609,59.19483870239258,92.5036268334961L56.26583870239258,90.8029468334961L59.19483870239258,89.10388683349609C60.03083870239258,88.6126468334961,60.31383870239258,87.54424683349609,59.83243870239258,86.7060668334961Z" fill-rule="evenodd" fill="#55ADE1" fill-opacity="1"/></g></g></svg>