<svg xmlns="http://www.w3.org/2000/svg" xmlns:xlink="http://www.w3.org/1999/xlink" fill="none" version="1.1" width="108" height="108" viewBox="0 0 108 108"><defs><linearGradient x1="0.6900879144668579" y1="0.1611228585243225" x2="0.3220210373401642" y2="1.1484158039093018" id="master_svg0_0_397"><stop offset="0%" stop-color="#FFFFFF" stop-opacity="1"/><stop offset="100%" stop-color="#C8CACD" stop-opacity="1"/></linearGradient></defs><g style="mix-blend-mode:passthrough"><g style="mix-blend-mode:passthrough"><path d="M47.91896948242187,8.999969482421875C35.46426948242188,8.999969482421875,24.652269482421875,17.727129482421873,21.479169482421874,29.147169482421877L21.479169482421874,29.147169482421877C11.725899482421875,31.493169482421877,4.499969482421875,40.21706948242188,4.499969482421875,50.64326948242188L4.499969482421875,50.64326948242188C4.499969482421875,61.77146948242188,12.195919482421875,71.20066948242187,23.007969482421874,72.72456948242188L23.007969482421874,72.72456948242188L86.22636948242187,72.72456948242188C95.86256948242188,71.78756948242187,103.49996948242188,63.587269482421874,103.49996948242188,53.746369482421876L103.49996948242188,53.746369482421876C103.49996948242188,43.26336948242187,94.92256948242188,34.47786948242188,84.34626948242187,34.47786948242188L84.34626948242187,34.47786948242188C80.82356948242187,34.47786948242188,77.53186948242187,35.76676948242188,74.71166948242187,37.405769482421874L74.71166948242187,37.405769482421874C74.71166948242187,36.995669482421874,74.77186948242188,36.703769482421876,74.77186948242188,36.353569482421875L74.77186948242188,36.353569482421875C74.77186948242188,21.535469482421874,62.961269482421876,8.999969482421875,47.91896948242187,8.999969482421875Z" fill-rule="evenodd" fill="url(#master_svg0_0_397)" fill-opacity="1"/></g><g style="mix-blend-mode:passthrough"><path d="M26.353804116821287,86.70608446289063C26.12610411682129,86.30239446289062,25.745504116821287,86.00570446289062,25.29660411682129,85.88573446289062C24.847804116821287,85.76413446289062,24.36960411682129,85.82898446289063,23.967904116821288,86.06406446289063L21.03881411682129,87.76313446289062L21.03881411682129,84.36338446289062C21.042064116821287,83.89970446289063,20.859914116821287,83.45224346289062,20.53138411682129,83.12313046289063C20.204494116821287,82.79401746289062,19.757234116821287,82.60919570289063,19.29210411682129,82.60757446289062C18.826964116821287,82.60919570289063,18.38133411682129,82.79401746289062,18.05281411682129,83.12313046289063C17.72591411682129,83.45224346289062,17.54375411682129,83.89970446289063,17.547014116821288,84.36338446289062L17.547014116821288,87.76313446289062L14.61630411682129,86.06406446289063C14.214594116821289,85.83060446289062,13.73644411682129,85.76738446289062,13.289194116821289,85.88735446289063C12.840315116821289,86.00894446289063,12.45974611682129,86.30401446289062,12.23042911682129,86.70608446289063C11.75065211682129,87.54588446289063,12.035265516821289,88.61266446289062,12.871216116821289,89.10390446289063L15.80029411682129,90.80296446289063L12.871216116821289,92.50365446289062C12.028760116821289,92.99007446289062,11.74414611682129,94.06327446289063,12.23042911682129,94.90307446289063C12.45974611682129,95.30677446289063,12.838689116821289,95.60187446289062,13.289194116821289,95.72347446289062C13.73644411682129,95.84337446289062,14.214594116821289,95.78017446289063,14.61630411682129,95.54507446289062L17.547014116821288,93.84437446289063L17.547014116821288,97.24417446289063C17.547014116821288,98.21857446289063,18.324414116821288,98.99997446289062,19.29210411682129,98.99997446289062C20.259784116821287,98.99997446289062,21.03881411682129,98.21857446289063,21.03881411682129,97.24417446289063L21.03881411682129,93.84437446289063L23.967904116821288,95.54507446289062C24.36960411682129,95.77857446289062,24.847804116821287,95.84017446289063,25.29660411682129,95.72017446289063C25.74390411682129,95.59857446289062,26.12440411682129,95.30517446289062,26.353804116821287,94.90307446289063C26.835204116821288,94.06327446289063,26.55060411682129,92.99487446289062,25.716204116821288,92.50365446289062L22.785504116821286,90.80296446289063L25.716204116821288,89.10390446289063C26.55060411682129,88.61266446289062,26.835204116821288,87.54426446289062,26.353804116821287,86.70608446289063ZM49.21510411682129,86.70608446289063C48.98740411682129,86.30239446289062,48.60680411682129,86.00570446289062,48.15960411682129,85.88573446289062C47.70910411682129,85.76413446289062,47.230904116821286,85.82898446289063,46.83080411682129,86.06406446289063L43.90180411682129,87.76313446289062L43.90180411682129,84.36338446289062C43.90340411682129,83.89970446289063,43.72120411682129,83.45224346289062,43.39430411682129,83.12313046289063C43.06580411682129,82.79401746289062,42.61860411682129,82.60919570289063,42.15340411682129,82.60757446289062C41.688304116821286,82.60919570289063,41.24430411682129,82.79401746289062,40.91570411682129,83.12313046289063C40.58720411682129,83.45224346289062,40.40510411682129,83.89970446289063,40.408304116821284,84.36338446289062L40.408304116821284,87.76313446289062L37.47760411682129,86.06406446289063C37.07590411682129,85.83060446289062,36.59940411682129,85.76738446289062,36.15210411682129,85.88735446289063C35.70160411682129,86.00894446289063,35.322704116821285,86.30401446289062,35.09340411682129,86.70608446289063C34.61200411682129,87.54588446289063,34.896604116821294,88.61266446289062,35.73250411682129,89.10390446289063L38.66160411682129,90.80296446289063L35.73250411682129,92.50365446289062C34.89170411682129,92.99007446289062,34.60710411682129,94.06327446289063,35.09340411682129,94.90307446289063C35.32110411682129,95.30677446289063,35.70160411682129,95.60187446289062,36.15050411682129,95.72347446289062C36.597804116821294,95.84337446289062,37.07750411682129,95.78017446289063,37.47760411682129,95.54507446289062L40.408304116821284,93.84437446289063L40.408304116821284,97.24417446289063C40.408304116821284,98.21857446289063,41.185704116821285,98.99997446289062,42.15340411682129,98.99997446289062C43.12270411682129,98.99997446289062,43.90180411682129,98.21857446289063,43.90180411682129,97.24417446289063L43.90180411682129,93.84437446289063L46.83080411682129,95.54507446289062C47.230904116821286,95.77857446289062,47.70910411682129,95.84017446289063,48.15790411682129,95.72017446289063C48.60520411682129,95.59857446289062,48.98580411682129,95.30517446289062,49.21510411682129,94.90307446289063C49.69650411682129,94.06327446289063,49.41350411682129,92.99487446289062,48.57750411682129,92.50365446289062L45.648504116821286,90.80296446289063L48.57750411682129,89.10390446289063C49.41190411682129,88.61266446289062,49.69650411682129,87.54426446289062,49.21510411682129,86.70608446289063ZM94.9390041168213,86.70608446289063C94.7113041168213,86.30239446289062,94.33080411682128,86.00570446289062,93.88190411682129,85.88573446289062C93.4330041168213,85.76413446289062,92.9548041168213,85.82898446289063,92.55480411682129,86.06406446289063L89.62410411682129,87.76313446289062L89.62410411682129,84.36338446289062C89.62730411682129,83.89970446289063,89.44520411682129,83.45224346289062,89.11660411682129,83.12313046289063C88.78970411682128,82.79401746289062,88.34250411682129,82.60919570289063,87.87730411682129,82.60757446289062C87.41220411682129,82.60919570289063,86.96660411682129,82.79401746289062,86.6381041168213,83.12313046289063C86.31120411682129,83.45224346289062,86.12900411682129,83.89970446289063,86.13230411682129,84.36338446289062L86.13230411682129,87.76313446289062L83.20150411682128,86.06406446289063C82.79980411682129,85.83060446289062,82.3217041168213,85.76738446289062,81.8744041168213,85.88735446289063C81.42560411682129,86.00894446289063,81.04500411682129,86.30401446289062,80.8157041168213,86.70608446289063C80.33590411682128,87.54588446289063,80.6205041168213,88.61266446289062,81.45650411682129,89.10390446289063L84.3855041168213,90.80296446289063L81.45650411682129,92.50365446289062C80.61560411682129,92.99007446289062,80.3294041168213,94.06327446289063,80.8157041168213,94.90307446289063C81.04500411682129,95.30677446289063,81.42390411682129,95.60187446289062,81.8744041168213,95.72347446289062C82.3217041168213,95.84337446289062,82.79980411682129,95.78017446289063,83.20150411682128,95.54507446289062L86.13230411682129,93.84437446289063L86.13230411682129,97.24417446289063C86.13230411682129,98.21857446289063,86.90970411682129,98.99997446289062,87.87730411682129,98.99997446289062C88.84500411682129,98.99997446289062,89.62410411682129,98.21857446289063,89.62410411682129,97.24417446289063L89.62410411682129,93.84437446289063L92.55480411682129,95.54507446289062C92.9548041168213,95.77857446289062,93.4330041168213,95.84017446289063,93.88190411682129,95.72017446289063C94.32910411682128,95.59857446289062,94.70970411682129,95.30517446289062,94.9390041168213,94.90307446289063C95.42040411682129,94.06327446289063,95.13580411682129,92.99487446289062,94.30150411682129,92.50365446289062L91.37080411682129,90.80296446289063L94.30150411682129,89.10390446289063C95.13580411682129,88.61266446289062,95.42040411682129,87.54426446289062,94.9390041168213,86.70608446289063ZM72.07790411682129,86.70608446289063C71.85020411682129,86.30239446289062,71.46960411682129,86.00570446289062,71.02070411682129,85.88573446289062C70.57180411682128,85.76413446289062,70.09210411682129,85.82898446289063,69.6920041168213,86.06406446289063L66.76290411682129,87.76313446289062L66.76290411682129,84.36338446289062C66.76610411682128,83.89970446289063,66.5824041168213,83.45224346289062,66.2555041168213,83.12313046289063C65.92860411682129,82.79401746289062,65.48130411682129,82.60919570289063,65.01620411682129,82.60757446289062C64.55100411682129,82.60919570289063,64.10540411682129,82.79401746289062,63.77690411682129,83.12313046289063C63.45000411682129,83.45224346289062,63.26780411682129,83.89970446289063,63.27110411682129,84.36338446289062L63.27110411682129,87.76313446289062L60.33880411682129,86.06406446289063C59.93870411682129,85.83060446289062,59.46050411682129,85.76738446289062,59.01330411682129,85.88735446289063C58.56440411682129,86.00894446289063,58.18380411682129,86.30401446289062,57.95450411682129,86.70608446289063C57.474704116821286,87.54588446289063,57.75770411682129,88.61266446289062,58.593704116821286,89.10390446289063L61.52280411682129,90.80296446289063L58.593704116821286,92.50365446289062C57.75280411682129,92.99007446289062,57.46820411682129,94.06327446289063,57.95450411682129,94.90307446289063C58.18220411682129,95.30677446289063,58.56280411682129,95.60187446289062,59.01330411682129,95.72347446289062C59.46050411682129,95.84337446289062,59.93870411682129,95.78017446289063,60.33880411682129,95.54507446289062L63.27110411682129,93.84437446289063L63.27110411682129,97.24417446289063C63.27110411682129,98.21857446289063,64.04850411682129,98.99997446289062,65.01620411682129,98.99997446289062C65.9839041168213,98.99997446289062,66.76290411682129,98.21857446289063,66.76290411682129,97.24417446289063L66.76290411682129,93.84437446289063L69.6920041168213,95.54507446289062C70.09370411682129,95.77857446289062,70.57020411682129,95.84017446289063,71.02070411682129,95.72017446289063C71.46800411682129,95.59857446289062,71.84690411682129,95.30517446289062,72.07790411682129,94.90307446289063C72.5593041168213,94.06327446289063,72.27460411682128,92.99487446289062,71.4387041168213,92.50365446289062L68.5096041168213,90.80296446289063L71.4387041168213,89.10390446289063C72.27460411682128,88.61266446289062,72.5576041168213,87.54426446289062,72.07790411682129,86.70608446289063Z" fill-rule="evenodd" fill="#55ADE1" fill-opacity="1"/></g></g></svg>