<svg xmlns="http://www.w3.org/2000/svg" xmlns:xlink="http://www.w3.org/1999/xlink" fill="none" version="1.1" width="108" height="108" viewBox="0 0 108 108"><defs><linearGradient x1="0.6900765895843506" y1="0.16111654043197632" x2="0.3220157325267792" y2="1.1484346389770508" id="master_svg0_0_431"><stop offset="0%" stop-color="#FFFFFF" stop-opacity="1"/><stop offset="100%" stop-color="#C8CACD" stop-opacity="1"/></linearGradient></defs><g style="mix-blend-mode:passthrough"><g style="mix-blend-mode:passthrough"><path d="M21.480630517578124,24.569130517578124C11.725840517578124,26.902730517578124,4.500030517578125,35.596130517578125,4.500030517578125,45.980330517578125L4.500030517578125,45.980330517578125C4.500030517578125,57.067030517578125,12.197480517578125,66.45963051757812,23.007730517578125,67.97603051757812L23.007730517578125,67.97603051757812L86.22673051757812,67.97603051757812C95.86273051757813,67.04263051757812,103.50003051757812,58.87573051757813,103.50003051757812,49.074530517578125L103.50003051757812,49.074530517578125C103.50003051757812,38.630630517578126,94.92273051757813,29.879130517578126,84.34663051757812,29.879130517578126L84.34663051757812,29.879130517578126C80.82073051757813,29.879130517578126,77.53233051757813,31.163030517578125,74.71063051757812,32.79573051757812L74.71063051757812,32.79573051757812C74.71063051757812,32.38713051757813,74.76913051757812,32.09643051757813,74.76913051757812,31.746030517578124L74.76913051757812,31.746030517578124C74.76913051757812,16.983630517578124,62.96033051757812,4.500030517578125,47.91993051757812,4.500030517578125L47.91993051757812,4.500030517578125C35.463830517578124,4.500030517578125,24.651930517578126,13.193360517578125,21.480630517578124,24.569130517578124Z" fill-rule="evenodd" fill="url(#master_svg0_0_431)" fill-opacity="1"/></g><g style="mix-blend-mode:passthrough"><path d="M27.06137648010254,81.31648612792969C26.86297648010254,80.96442612792968,26.52957648010254,80.70764612792969,26.139276480102538,80.60429612792969C25.74567648010254,80.49770612792969,25.32927648010254,80.55261612792968,24.97967648010254,80.75771612792968L22.41979648010254,82.23701612792969L22.41979648010254,79.27840612792968C22.42142648010254,78.87466612792969,22.26366648010254,78.48707812792969,21.97743648010254,78.19961512792969C21.689576480102538,77.91376712792969,21.300876480102538,77.75227108792969,20.89429648010254,77.75065612792969C20.48770648010254,77.75227108792969,20.099016480102538,77.91376712792969,19.81277648010254,78.19961512792969C19.52654648010254,78.48707812792969,19.36878648010254,78.87466612792969,19.370416480102538,79.27840612792968L19.370416480102538,82.23701612792969L16.81056648010254,80.75771612792968C16.459276480102538,80.55422612792968,16.04293648010254,80.50093612792969,15.650986480102539,80.60590612792969C15.260663480102538,80.7108761279297,14.927264480102538,80.96604612792969,14.72722548010254,81.31648612792969C14.307630480102539,82.04645612792969,14.558086380102539,82.97505612792969,15.28668548010254,83.40301612792969L17.843286480102538,84.88070612792968L15.28668548010254,86.36001612792968C14.553207380102538,86.7847461279297,14.30112548010254,87.71819612792969,14.72722548010254,88.44815612792969C14.927264480102538,88.79855612792969,15.259037480102538,89.05535612792968,15.650986480102539,89.16035612792969C16.04293648010254,89.26695612792969,16.459276480102538,89.21045612792969,16.81056648010254,89.00695612792968L19.370416480102538,87.5276261279297L19.370416480102538,90.48465612792968C19.370416480102538,91.33085612792969,20.04859648010254,92.01235612792969,20.89429648010254,92.01235612792969C21.739986480102537,92.01235612792969,22.41979648010254,91.33085612792969,22.41979648010254,90.48465612792968L22.41979648010254,87.5276261279297L24.97967648010254,89.00695612792968C25.32927648010254,89.20875612792969,25.74567648010254,89.26375612792968,26.13757648010254,89.15715612792968C26.52957648010254,89.05375612792969,26.86127648010254,88.79855612792969,27.06137648010254,88.44815612792969C27.482576480102537,87.71819612792969,27.23377648010254,86.78797612792968,26.50517648010254,86.36001612792968L23.945306480102538,84.88070612792968L26.50517648010254,83.40301612792969C27.232176480102538,82.97505612792969,27.48097648010254,82.04645612792969,27.06137648010254,81.31648612792969ZM59.62047648010254,80.60429612792969C60.01087648010254,80.70764612792969,60.34417648010254,80.96442612792968,60.542676480102536,81.31648612792969C60.96227648010254,82.04645612792969,60.71337648010254,82.97505612792969,59.98647648010254,83.40301612792969L57.42657648010254,84.88070612792968L59.98647648010254,86.36001612792968C60.71507648010254,86.78797612792968,60.96387648010254,87.71819612792969,60.542676480102536,88.44815612792969C60.34257648010254,88.79855612792969,60.01087648010254,89.05375612792969,59.618876480102536,89.15715612792968C59.226976480102536,89.26375612792968,58.81057648010254,89.20875612792969,58.46097648010254,89.00695612792968L55.90107648010254,87.5276261279297L55.90107648010254,90.48465612792968C55.90107648010254,91.33085612792969,55.22127648010254,92.01235612792969,54.37557648010254,92.01235612792969C53.52987648010254,92.01235612792969,52.85167648010254,91.33085612792969,52.85167648010254,90.48465612792968L52.85167648010254,87.5276261279297L50.29187648010254,89.00695612792968C49.940576480102536,89.21045612792969,49.52417648010254,89.26695612792969,49.13227648010254,89.16035612792969C48.74027648010254,89.05535612792968,48.40857648010254,88.79855612792969,48.20847648010254,88.44815612792969C47.78237648010254,87.71819612792969,48.03447648010254,86.7847461279297,48.76797648010254,86.36001612792968L51.324576480102536,84.88070612792968L48.76797648010254,83.40301612792969C48.037776480102536,82.97505612792969,47.78887648010254,82.04645612792969,48.20847648010254,81.31648612792969C48.40857648010254,80.96604612792969,48.74197648010254,80.7108761279297,49.13227648010254,80.60590612792969C49.52417648010254,80.50093612792969,49.940576480102536,80.55422612792968,50.29187648010254,80.75771612792968L52.85167648010254,82.23701612792969L52.85167648010254,79.27840612792968C52.85007648010254,78.87466612792969,53.00777648010254,78.48707812792969,53.29407648010254,78.19961512792969C53.58027648010254,77.91376712792969,53.96897648010254,77.75227108792969,54.37557648010254,77.75065612792969C54.78217648010254,77.75227108792969,55.17087648010254,77.91376712792969,55.45867648010254,78.19961512792969C55.74497648010254,78.48707812792969,55.90267648010254,78.87466612792969,55.90107648010254,79.27840612792968L55.90107648010254,82.23701612792969L58.46097648010254,80.75771612792968C58.81057648010254,80.55261612792968,59.226976480102536,80.49770612792969,59.62047648010254,80.60429612792969ZM94.02377648010254,81.31648612792969C93.82537648010253,80.96442612792968,93.49197648010254,80.70764612792969,93.10167648010254,80.60429612792969C92.70807648010253,80.49770612792969,92.29177648010254,80.55261612792968,91.94207648010254,80.75771612792968L89.38227648010253,82.23701612792969L89.38227648010253,79.27840612792968C89.38387648010254,78.87466612792969,89.22607648010253,78.48707812792969,88.93987648010254,78.19961512792969C88.65197648010253,77.91376712792969,88.26337648010254,77.75227108792969,87.85677648010254,77.75065612792969C87.45017648010254,77.75227108792969,87.06147648010254,77.91376712792969,86.77527648010253,78.19961512792969C86.48897648010254,78.48707812792969,86.33127648010255,78.87466612792969,86.33287648010254,79.27840612792968L86.33287648010254,82.23701612792969L83.77297648010254,80.75771612792968C83.42167648010253,80.55422612792968,83.00537648010254,80.50093612792969,82.61347648010253,80.60590612792969C82.22307648010253,80.7108761279297,81.88967648010254,80.96604612792969,81.68967648010253,81.31648612792969C81.27007648010255,82.04645612792969,81.51887648010253,82.97505612792969,82.24917648010253,83.40301612792969L84.80577648010254,84.88070612792968L82.24917648010253,86.36001612792968C81.51567648010254,86.7847461279297,81.26357648010254,87.71819612792969,81.68967648010253,88.44815612792969C81.88967648010254,88.79855612792969,82.22147648010254,89.05535612792968,82.61347648010253,89.16035612792969C83.00537648010254,89.26695612792969,83.42167648010253,89.21045612792969,83.77297648010254,89.00695612792968L86.33287648010254,87.5276261279297L86.33287648010254,90.48465612792968C86.33287648010254,91.33085612792969,87.01107648010255,92.01235612792969,87.85677648010254,92.01235612792969C88.70247648010253,92.01235612792969,89.38227648010253,91.33085612792969,89.38227648010253,90.48465612792968L89.38227648010253,87.5276261279297L91.94207648010254,89.00695612792968C92.29177648010254,89.20875612792969,92.70807648010253,89.26375612792968,93.10007648010254,89.15715612792968C93.49197648010254,89.05375612792969,93.82377648010254,88.79855612792969,94.02377648010254,88.44815612792969C94.44507648010254,87.71819612792969,94.19457648010254,86.78797612792968,93.46757648010254,86.36001612792968L90.90777648010254,84.88070612792968L93.46757648010254,83.40301612792969C94.19457648010254,82.97505612792969,94.44337648010254,82.04645612792969,94.02377648010254,81.31648612792969ZM43.80107648010254,92.80415612792969C43.60427648010254,92.45365612792969,43.270876480102544,92.19525612792968,42.87887648010254,92.09195612792969C42.48697648010254,91.98535612792969,42.068976480102535,92.04185612792969,41.71937648010254,92.24535612792968L39.16107648010254,93.72465612792969L39.16107648010254,90.76605612792969C39.162776480102536,90.36235612792969,39.00337648010254,89.97475612792968,38.717076480102534,89.68725612792969C38.43087648010254,89.40305612792969,38.04217648010254,89.23995612792969,37.63557648010254,89.23825612792969C37.22897648010254,89.23995612792969,36.84027648010254,89.40305612792969,36.55407648010254,89.68725612792969C36.267876480102544,89.97475612792968,36.10847648010254,90.36235612792969,36.110076480102535,90.76605612792969L36.110076480102535,93.72465612792969L33.55027648010254,92.24535612792968C33.20057648010254,92.04345612792969,32.784276480102534,91.98855612792968,32.39067648010254,92.09355612792969C32.00037648010254,92.19855612792969,31.66857648010254,92.45365612792969,31.468576480102538,92.80415612792969C31.04727648010254,93.53405612792969,31.297776480102538,94.46265612792969,32.02637648010254,94.89065612792969L34.58457648010254,96.36995612792968L32.02637648010254,97.8476561279297C31.29287648010254,98.27235612792968,31.04247648010254,99.20585612792969,31.468576480102538,99.9357561279297C31.666976480102537,100.28785612792969,31.99867648010254,100.54465612792968,32.39067648010254,100.64795612792969C32.784276480102534,100.75455612792969,33.20057648010254,100.69965612792969,33.55027648010254,100.49455612792968L36.110076480102535,99.01685612792969L36.110076480102535,101.97225612792968C36.110076480102535,102.8184561279297,36.789876480102535,103.5000561279297,37.63557648010254,103.5000561279297C38.48127648010254,103.5000561279297,39.16107648010254,102.8184561279297,39.16107648010254,101.97225612792968L39.16107648010254,99.01685612792969L41.71937648010254,100.49455612792968C42.07057648010254,100.69805612792969,42.48537648010254,100.75135612792968,42.87887648010254,100.64635612792969C43.26927648010254,100.54145612792969,43.60097648010254,100.28625612792969,43.80107648010254,99.9357561279297C44.222276480102536,99.20585612792969,43.97347648010254,98.27725612792969,43.24487648010254,97.8476561279297L40.68657648010254,96.36995612792968L43.24487648010254,94.89065612792969C43.97347648010254,94.46265612792969,44.222276480102536,93.53405612792969,43.80107648010254,92.80415612792969ZM76.36017648010254,92.09195612792969C76.75217648010255,92.19525612792968,77.08387648010253,92.45365612792969,77.28237648010254,92.80415612792969C77.70357648010254,93.53405612792969,77.45477648010254,94.46265612792969,76.72617648010254,94.89065612792969L74.16627648010254,96.36995612792968L76.72617648010254,97.8476561279297C77.45477648010254,98.27725612792969,77.70357648010254,99.20585612792969,77.28237648010254,99.9357561279297C77.08227648010254,100.28625612792969,76.75047648010255,100.54145612792969,76.36017648010254,100.64635612792969C75.96667648010254,100.75135612792968,75.55187648010254,100.69805612792969,75.20057648010254,100.49455612792968L72.64237648010254,99.01685612792969L72.64237648010254,101.97225612792968C72.64237648010254,102.8184561279297,71.96257648010254,103.5000561279297,71.11687648010255,103.5000561279297C70.27117648010254,103.5000561279297,69.59137648010254,102.8184561279297,69.59137648010254,101.97225612792968L69.59137648010254,99.01685612792969L67.03157648010253,100.49455612792968C66.68187648010255,100.69965612792969,66.26557648010254,100.75455612792969,65.87197648010255,100.64795612792969C65.47997648010254,100.54465612792968,65.14827648010254,100.28785612792969,64.94977648010254,99.9357561279297C64.52367648010254,99.20585612792969,64.77417648010254,98.27235612792968,65.50767648010253,97.8476561279297L68.06587648010253,96.36995612792968L65.50767648010253,94.89065612792969C64.77907648010253,94.46265612792969,64.52857648010254,93.53405612792969,64.94977648010254,92.80415612792969C65.14987648010253,92.45365612792969,65.48167648010254,92.19855612792969,65.87197648010255,92.09355612792969C66.26557648010254,91.98855612792968,66.68187648010255,92.04345612792969,67.03157648010253,92.24535612792968L69.59137648010254,93.72465612792969L69.59137648010254,90.76605612792969C69.58977648010253,90.36235612792969,69.74917648010253,89.97475612792968,70.03537648010254,89.68725612792969C70.32157648010254,89.40305612792969,70.71027648010254,89.23995612792969,71.11687648010255,89.23825612792969C71.52347648010254,89.23995612792969,71.91217648010254,89.40305612792969,72.19837648010254,89.68725612792969C72.48467648010254,89.97475612792968,72.64397648010254,90.36235612792969,72.64237648010254,90.76605612792969L72.64237648010254,93.72465612792969L75.20057648010254,92.24535612792968C75.55027648010254,92.04185612792969,75.96827648010253,91.98535612792969,76.36017648010254,92.09195612792969Z" fill-rule="evenodd" fill="#55ADE1" fill-opacity="1"/></g></g></svg>