<svg xmlns="http://www.w3.org/2000/svg" xmlns:xlink="http://www.w3.org/1999/xlink" fill="none" version="1.1" width="108" height="108" viewBox="0 0 108 108"><defs><linearGradient x1="0.6900765895843506" y1="0.16113921999931335" x2="0.3220157325267792" y2="1.1484321355819702" id="master_svg0_0_393"><stop offset="0%" stop-color="#FFFFFF" stop-opacity="1"/><stop offset="100%" stop-color="#C8CACD" stop-opacity="1"/></linearGradient></defs><g style="mix-blend-mode:passthrough"><g style="mix-blend-mode:passthrough"><path d="M32.19162214050293,82.75812341308594C30.785322140502927,81.64025741308593,28.739222140502932,81.87400941308594,27.62133214050293,83.28021841308593L18.87814714050293,94.27869841308593L18.60665114050293,94.67689841308594C17.81247114050293,96.04919841308593,18.12187094050293,97.83269841308594,19.40024214050293,98.84889841308593C20.80646214050293,99.96679841308594,22.85263214050293,99.73299841308594,23.97049214050293,98.32679841308594L32.71372214050293,87.32837841308594L32.98522214050293,86.93016841308594C33.77932214050293,85.55779841308593,33.46992214050293,83.77436841308594,32.19162214050293,82.75812341308594ZM82.09322214050293,82.75794041308593C80.68692214050293,81.64020241308594,78.64072214050293,81.87413941308594,77.52302214050293,83.28045841308594L68.78142214050294,94.27889841308594L68.51002214050294,94.67709841308594C67.71592214050293,96.04959841308593,68.02552214050293,97.83299841308593,69.30402214050292,98.84909841308594C70.71032214050294,99.96679841308594,72.75642214050293,99.73289841308593,73.87422214050292,98.32659841308593L82.61572214050292,87.32813841308594L82.88722214050293,86.92991841308594C83.68122214050292,85.55747841308593,83.37172214050292,83.77406841308594,82.09322214050293,82.75794041308593ZM56.75342214050293,85.88581841308594C57.20232214050293,86.00578841308594,57.58282214050293,86.30246841308593,57.81052214050293,86.70615841308594C58.291922140502926,87.54433841308594,58.00732214050293,88.61272841308593,57.17302214050293,89.10395841308593L54.24232214050293,90.80301841308594L57.17302214050293,92.50369841308594C58.00732214050293,92.99489841308593,58.291922140502926,94.06489841308594,57.81052214050293,94.90309841308594C57.57962214050293,95.30519841308593,57.20062214050293,95.59859841308594,56.75342214050293,95.72019841308594C56.30452214050293,95.84019841308594,55.82642214050293,95.77859841308594,55.42472214050293,95.54509841308594L52.49562214050293,93.84609841308594L52.49562214050293,97.24419841308594C52.49562214050293,98.21849841308594,51.71662214050293,98.99999841308593,50.74902214050293,98.99999841308593C49.78132214050293,98.99999841308593,49.00392214050293,98.21849841308594,49.00392214050293,97.24419841308594L49.00392214050293,93.84609841308594L46.073222140502935,95.54509841308594C45.67152214050293,95.78019841308594,45.19342214050293,95.84339841308594,44.74612214050293,95.72349841308593C44.29572214050293,95.60189841308593,43.91512214050293,95.30679841308594,43.68742214050293,94.90309841308594C43.20112214050293,94.06489841308594,43.48572214050293,92.99009841308593,44.326622140502934,92.50369841308594L47.25562214050293,90.80301841308594L44.326622140502934,89.10395841308593C43.49222214050293,88.61272841308593,43.207622140502934,87.54595841308594,43.68742214050293,86.70615841308594C43.91672214050293,86.30408841308594,44.29732214050293,86.00902841308594,44.74612214050293,85.88905841308593C45.19342214050293,85.76746841308594,45.67152214050293,85.83068841308594,46.073222140502935,86.06414841308593L49.00392214050293,87.76319841308595L49.00392214050293,84.36347841308594C49.00062214050293,83.89980841308594,49.18282214050293,83.45396841308593,49.50972214050293,83.12485841308593C49.83822214050293,82.79412341308594,50.28382214050293,82.60930241308594,50.74902214050293,82.60768141308594C51.21412214050293,82.60930241308594,51.66132214050293,82.79412341308594,51.98822214050293,83.12485841308593C52.31672214050293,83.45396841308593,52.49892214050293,83.89980841308594,52.49562214050293,84.36347841308594L52.49562214050293,87.76319841308595L55.42472214050293,86.06414841308593C55.82642214050293,85.82906841308593,56.30452214050293,85.76421841308594,56.75342214050293,85.88581841308594Z" fill-rule="evenodd" fill="#55ADE1" fill-opacity="1"/></g><g style="mix-blend-mode:passthrough"><path d="M47.91993051757812,8.999969482421875C35.463830517578124,8.999969482421875,24.651930517578126,17.727069482421875,21.480630517578124,29.148669482421877L21.480630517578124,29.148669482421877C11.725840517578124,31.492969482421874,4.500030517578125,40.218469482421874,4.500030517578125,50.64456948242187L4.500030517578125,50.64456948242187C4.500030517578125,61.77276948242187,12.195860517578126,71.20186948242187,23.007730517578125,72.72416948242187L23.007730517578125,72.72416948242187L86.22673051757812,72.72416948242187C95.86273051757813,71.78706948242188,103.50003051757812,63.586869482421875,103.50003051757812,53.74926948242187L103.50003051757812,53.74926948242187C103.50003051757812,43.264769482421876,94.92113051757812,34.477669482421874,84.34663051757812,34.477669482421874L84.34663051757812,34.477669482421874C80.82073051757813,34.477669482421874,77.53233051757813,35.76656948242187,74.71063051757812,37.40716948242188L74.71063051757812,37.40716948242188C74.71063051757812,36.99706948242188,74.76913051757812,36.705269482421876,74.76913051757812,36.353369482421876L74.76913051757812,36.353369482421876C74.76913051757812,21.535369482421874,62.958730517578125,8.999969482421875,47.91993051757812,8.999969482421875Z" fill-rule="evenodd" fill="url(#master_svg0_0_393)" fill-opacity="1"/></g></g></svg>