<svg xmlns="http://www.w3.org/2000/svg" xmlns:xlink="http://www.w3.org/1999/xlink" fill="none" version="1.1" width="108" height="108" viewBox="0 0 108 108"><defs><linearGradient x1="0.690085768699646" y1="0.16112886369228363" x2="0.322020024061203" y2="1.148441195487976" id="master_svg0_0_471"><stop offset="0%" stop-color="#FFFFFF" stop-opacity="1"/><stop offset="100%" stop-color="#C8CACD" stop-opacity="1"/></linearGradient><linearGradient x1="0.2803298830986023" y1="0.7838448286056519" x2="0.8461184501647949" y2="0.1682937890291214" id="master_svg1_0_473"><stop offset="0%" stop-color="#FFED46" stop-opacity="1"/><stop offset="100%" stop-color="#E49E14" stop-opacity="1"/></linearGradient></defs><g style="mix-blend-mode:passthrough"><g style="mix-blend-mode:passthrough"><path d="M18.669130517578125,45.142960717773434C10.528840517578125,47.06986071777344,4.500030517578125,54.24456071777344,4.500030517578125,62.82116071777344L4.500030517578125,62.82116071777344C4.500030517578125,71.97306071777344,10.922330517578125,79.72766071777343,19.942330517578124,80.97876071777344L19.942330517578124,80.97876071777344L72.69163051757812,80.97876071777344C80.72953051757813,80.21016071777345,87.10223051757812,73.46456071777344,87.10223051757812,65.37206071777344L87.10223051757812,65.37206071777344C87.10223051757812,56.74986071777344,79.94573051757813,49.526360717773436,71.12083051757813,49.526360717773436L71.12083051757813,49.526360717773436C68.18083051757813,49.526360717773436,65.43433051757813,50.58576071777344,63.08293051757813,51.93416071777344L63.08293051757813,51.93416071777344C63.08293051757813,51.59626071777343,63.13093051757812,51.35586071777344,63.13093051757812,51.06666071777344L63.13093051757812,51.06666071777344C63.13093051757812,38.87986071777344,53.27753051757813,28.572860717773438,40.72723051757813,28.572860717773438L40.72723051757813,28.572860717773438C30.334830517578126,28.572860717773438,21.314830517578127,35.75069071777344,18.669130517578125,45.142960717773434Z" fill-rule="evenodd" fill="url(#master_svg0_0_471)" fill-opacity="1"/></g><g style="mix-blend-mode:passthrough"><path d="M54.002166748046875,26.935111330566407C60.17653674804687,30.69145133056641,64.83606674804687,36.809951330566406,66.69796674804688,43.98615133056641L66.69796674804688,43.98615133056641C67.72656674804688,43.84315133056641,68.70866674804688,43.74575133056641,69.68766674804688,43.74575133056641L69.68766674804688,43.74575133056641C73.85456674804688,43.74575133056641,77.72706674804688,44.90245133056641,81.06066674804687,46.92525133056641L81.06066674804687,46.92525133056641C84.54126674804688,43.79285133056641,86.74876674804688,39.362351330566405,86.74876674804688,34.30465133056641L86.74876674804688,34.30465133056641C86.74876674804688,24.91237133056641,79.00196674804687,17.351051330566406,69.49246674804688,17.351051330566406L69.49246674804688,17.351051330566406C62.678276748046876,17.351051330566406,56.745446748046874,21.251941330566407,54.002166748046875,26.935111330566407Z" fill-rule="evenodd" fill="url(#master_svg1_0_473)" fill-opacity="1"/></g><g style="mix-blend-mode:passthrough"><path d="M44.97932593579102,11.500497803283691C46.067177935791015,10.379014803283692,47.78788793579102,10.242331803283692,49.02955793579102,11.107373803283691L49.424177935791015,11.432844803283691L53.30954793579102,15.201716803283691C54.555627935791016,16.41044680328369,54.58592793579102,18.40047680328369,53.37719793579102,19.64656680328369C52.289347935791014,20.768046803283692,50.56863793579102,20.904746803283693,49.326977935791014,20.039686803283693L48.932347935791014,19.71421680328369L45.04697893579102,15.945346803283691C43.800885935791015,14.736616803283692,43.77059693579102,12.74658680328369,44.97932593579102,11.500497803283691Z" fill="#F4EA31" fill-opacity="1"/></g><g style="mix-blend-mode:passthrough"><path d="M90.00503842529297,12.166779899353028C91.24334842529296,10.950075899353028,93.23351842529297,10.967587899353028,94.45022842529296,12.205894899353027C95.54524842529297,13.320365899353028,95.64054842529296,15.043865899353028,94.74596842529297,16.264395899353026L94.41111842529297,16.651085899353028L90.55133842529297,20.443535899353027C89.31302842529297,21.660185899353028,87.32284842529297,21.642685899353026,86.10614242529297,20.404415899353026C85.01110942529297,19.28994589935303,84.91579042529297,17.566445899353027,85.81040242529296,16.345915899353027L86.14525742529297,15.959225899353028L90.00503842529297,12.166779899353028Z" fill="#F4EA31" fill-opacity="1"/></g><g style="mix-blend-mode:passthrough"><path d="M99.0000488671875,32.173118591308594C100.7360388671875,32.173118591308594,102.1433388671875,33.58043859130859,102.1433388671875,35.31646859130859C102.1433388671875,36.9078185913086,100.9608388671875,38.222978591308596,99.4265788671875,38.431118591308596L99.0000488671875,38.459808591308594L93.5406888671875,38.459808591308594C91.8046588671875,38.459808591308594,90.3973388671875,37.052488591308595,90.3973388671875,35.31646859130859C90.3973388671875,33.7251085913086,91.5798788671875,32.409955591308595,93.1141488671875,32.20181359130859L93.5406888671875,32.173118591308594L99.0000488671875,32.173118591308594Z" fill="#F4EA31" fill-opacity="1"/></g><g style="mix-blend-mode:passthrough"><path d="M69.6506375390625,1.3567400076588867C71.2419675390625,1.3467748453588868,72.5644975390625,2.5210570553588867,72.7822475390625,4.053997055358886L72.8136075390625,4.480337055358887L72.8471975390625,9.844457055358887C72.8580675390625,11.580477055358887,71.4595875390625,12.996577055358888,69.7235975390625,13.007477055358887C68.1322775390625,13.017377055358887,66.8097425390625,11.843077055358886,66.5919970390625,10.310177055358887L66.5606316390625,9.883827055358887L66.5270404913625,4.519707055358887C66.5161694390625,2.7837170553588866,67.9146575390625,1.3676110553588867,69.6506375390625,1.3567400076588867Z" fill="#F4EA31" fill-opacity="1"/></g><g style="mix-blend-mode:passthrough"><path d="M66.15556132202148,91.58198516601563C65.93156132202148,91.19063516601562,65.55726132202147,90.90302516601562,65.11586132202149,90.78671516601563C64.67436132202148,90.67041516601563,64.20406132202149,90.73170516601563,63.80896132202148,90.95960516601562L60.92816132202148,92.60671516601562L60.92816132202148,89.31248516601562C60.93136132202149,88.86298516601562,60.752161322021486,88.42920816601563,60.42906132202148,88.11015916601562C60.10756132202148,87.79110916601563,59.66766132202149,87.61036683601563,59.210161322021484,87.60879516601562C58.75266132202148,87.61036683601563,58.31436132202148,87.79110916601563,57.99126132202149,88.11015916601562C57.669761322021486,88.42920816601563,57.49066132202148,88.86298516601562,57.49386132202149,89.31248516601562L57.49386132202149,92.60671516601562L54.61136132202148,90.95960516601562C54.21626132202148,90.73328516601562,53.74606132202149,90.67355516601563,53.30616132202148,90.78986516601563C52.86466132202148,90.90616516601563,52.490361322021485,91.19220516601563,52.264761322021485,91.58198516601563C51.79296132202148,92.39611516601562,52.07286132202148,93.43184516601562,52.89506132202148,93.90648516601563L55.775861322021484,95.55360516601563L52.89506132202148,97.20228516601563C52.06646132202148,97.67539516601562,51.786561322021484,98.71579516601562,52.264761322021485,99.52839516601563C52.490361322021485,99.91969516601563,52.86306132202148,100.20579516601562,53.30616132202148,100.32359516601562C53.74606132202149,100.44149516601563,54.21626132202148,100.37859516601563,54.61136132202148,100.15079516601563L57.49386132202149,98.50359516601563L57.49386132202149,101.79789516601562C57.49386132202149,102.74239516601563,58.25846132202148,103.49999516601562,59.210161322021484,103.49999516601562C60.16196132202148,103.49999516601562,60.92816132202148,102.74239516601563,60.92816132202148,101.79789516601562L60.92816132202148,98.50359516601563L63.80896132202148,100.15079516601563C64.20406132202149,100.37709516601562,64.67436132202148,100.43839516601562,65.11586132202149,100.32209516601563C65.55566132202148,100.20259516601563,65.92996132202148,99.91809516601563,66.15556132202148,99.52839516601563C66.62906132202149,98.71579516601562,66.34906132202148,97.68009516601563,65.52846132202149,97.20228516601563L62.64606132202148,95.55360516601563L65.52846132202149,93.90648516601563C66.34906132202148,93.43027516601562,66.62906132202149,92.39611516601562,66.15556132202148,91.58198516601563ZM38.30676132202149,91.58198516601563C38.082861322021486,91.19063516601562,37.710161322021484,90.90302516601562,37.26866132202149,90.78671516601563C36.82716132202148,90.67041516601563,36.355261322021484,90.73170516601563,35.96176132202149,90.95960516601562L33.080951322021484,92.60671516601562L33.080951322021484,89.31248516601562C33.08255132202149,88.86298516601562,32.903391322021484,88.42920816601563,32.58188132202149,88.11015916601562C32.26036132202148,87.79110916601563,31.820481322021486,87.61036683601563,31.363001322021486,87.60879516601562C30.905521322021485,87.61036683601563,30.467241322021486,87.79110916601563,30.144121322021483,88.11015916601562C29.822611322021483,88.42920816601563,29.643461322021484,88.86298516601562,29.646651322021484,89.31248516601562L29.646651322021484,92.60671516601562L26.762621322021484,90.95960516601562C26.369121322021485,90.73328516601562,25.898841322021486,90.67355516601563,25.458961322021484,90.78986516601563C25.017478322021486,90.90616516601563,24.643177322021483,91.19220516601563,24.417637322021484,91.58198516601563C23.944162322021484,92.39611516601562,24.224088222021486,93.43184516601562,25.046271322021486,93.90648516601563L27.927111322021485,95.55360516601563L25.046271322021486,97.20228516601563C24.219289522021484,97.67539516601562,23.939363322021485,98.71579516601562,24.417637322021484,99.52839516601563C24.641578322021484,99.91969516601563,25.015879322021483,100.20579516601562,25.457361322021484,100.32359516601562C25.898841322021486,100.44149516601563,26.369121322021485,100.37859516601563,26.762621322021484,100.15079516601563L29.646651322021484,98.50359516601563L29.646651322021484,101.79789516601562C29.646651322021484,102.74239516601563,30.409651322021485,103.49999516601562,31.363001322021486,103.49999516601562C32.314751322021486,103.49999516601562,33.080951322021484,102.74239516601563,33.080951322021484,101.79789516601562L33.080951322021484,98.50359516601563L35.96176132202149,100.15079516601563C36.35686132202149,100.37709516601562,36.825561322021485,100.43839516601562,37.26866132202149,100.32209516601563C37.706961322021485,100.20259516601563,38.08126132202148,99.91809516601563,38.30676132202149,99.52839516601563C38.781861322021484,98.71579516601562,38.50196132202149,97.68009516601563,37.679761322021484,97.20228516601563L34.79886132202148,95.55360516601563L37.679761322021484,93.90648516601563C38.50196132202149,93.43027516601562,38.78026132202149,92.39611516601562,38.30676132202149,91.58198516601563Z" fill-rule="evenodd" fill="#55ADE1" fill-opacity="1"/></g></g></svg>