<svg xmlns="http://www.w3.org/2000/svg" xmlns:xlink="http://www.w3.org/1999/xlink" fill="none" version="1.1" width="108" height="108" viewBox="0 0 108 108"><defs><linearGradient x1="0.6900765895843506" y1="0.16112472116947174" x2="0.3220157325267792" y2="1.1484177112579346" id="master_svg0_0_417"><stop offset="0%" stop-color="#FFFFFF" stop-opacity="1"/><stop offset="100%" stop-color="#C8CACD" stop-opacity="1"/></linearGradient><linearGradient x1="1" y1="0.5" x2="0" y2="0.5" id="master_svg1_0_405"><stop offset="0%" stop-color="#BECAD3" stop-opacity="1"/><stop offset="100%" stop-color="#7A869A" stop-opacity="1"/></linearGradient><linearGradient x1="1" y1="0.5" x2="0" y2="0.5" id="master_svg2_0_405"><stop offset="0%" stop-color="#BECAD3" stop-opacity="1"/><stop offset="100%" stop-color="#7A869A" stop-opacity="1"/></linearGradient><linearGradient x1="1" y1="0.5" x2="0" y2="0.5" id="master_svg3_0_405"><stop offset="0%" stop-color="#BECAD3" stop-opacity="1"/><stop offset="100%" stop-color="#7A869A" stop-opacity="1"/></linearGradient><linearGradient x1="1" y1="0.5" x2="0" y2="0.5" id="master_svg4_0_405"><stop offset="0%" stop-color="#BECAD3" stop-opacity="1"/><stop offset="100%" stop-color="#7A869A" stop-opacity="1"/></linearGradient></defs><g style="mix-blend-mode:passthrough"><g style="mix-blend-mode:passthrough"><path d="M47.91993051757812,9.00006103515625C35.463830517578124,9.00006103515625,24.651930517578126,17.54847103515625,21.480630517578124,28.73466103515625L21.480630517578124,28.73466103515625C11.725840517578124,31.03096103515625,4.500030517578125,39.57936103515625,4.500030517578125,49.79036103515625L4.500030517578125,49.79036103515625C4.500030517578125,60.69066103515625,12.197480517578125,69.92676103515625,23.007730517578125,71.41946103515625L23.007730517578125,71.41946103515625L86.22673051757812,71.41946103515625C95.86273051757813,70.50006103515625,103.50003051757812,62.46926103515625,103.50003051757812,52.82996103515625L103.50003051757812,52.82996103515625C103.50003051757812,42.56326103515625,94.92273051757813,33.95606103515625,84.34663051757812,33.95606103515625L84.34663051757812,33.95606103515625C80.82073051757813,33.95606103515625,77.53233051757813,35.21856103515625,74.71063051757812,36.82406103515625L74.71063051757812,36.82406103515625C74.71063051757812,36.422261035156254,74.76913051757812,36.136461035156245,74.76913051757812,35.791861035156245L74.76913051757812,35.791861035156245C74.76913051757812,21.27716103515625,62.96033051757812,9.00006103515625,47.91993051757812,9.00006103515625Z" fill-rule="evenodd" fill="url(#master_svg0_0_417)" fill-opacity="1"/></g><g style="mix-blend-mode:passthrough"><path d="M64.73821258544922,95.05593872070312C66.47791258544922,95.05593872070312,67.88821258544922,96.46623872070313,67.88821258544922,98.20593872070313C67.88821258544922,99.80065872070313,66.70321258544922,101.11859872070312,65.16571258544923,101.32717872070313L64.73821258544922,101.35593872070312L22.263212585449217,101.35593872070312C20.523512585449218,101.35593872070312,19.11321258544922,99.94563872070313,19.11321258544922,98.20593872070313C19.11321258544922,96.61121872070312,20.29826258544922,95.29327672070312,21.83577258544922,95.08469452070312L22.263212585449217,95.05593872070312L64.73821258544922,95.05593872070312Z" fill="url(#master_svg1_0_405)" fill-opacity="1"/></g><g style="mix-blend-mode:passthrough"><path d="M85.88055736816406,95.05593872070312C87.62022736816407,95.05593872070312,89.03052736816406,96.46623872070313,89.03052736816406,98.20593872070313C89.03052736816406,99.80065872070313,87.84552736816406,101.11859872070312,86.30802736816406,101.32717872070313L85.88055736816406,101.35593872070312L79.18492736816407,101.35593872070312C77.44522736816407,101.35593872070312,76.03492736816406,99.94563872070313,76.03492736816406,98.20593872070313C76.03492736816406,96.61121872070312,77.21997736816407,95.29327672070312,78.75748736816406,95.08469452070312L79.18492736816407,95.05593872070312L85.88055736816406,95.05593872070312Z" fill="url(#master_svg2_0_405)" fill-opacity="1"/></g><g style="mix-blend-mode:passthrough"><path d="M41.06531258544922,81.0381088256836C42.80501258544922,81.0381088256836,44.21531258544922,82.4484088256836,44.21531258544922,84.1881088256836C44.21531258544922,85.7828288256836,43.03021258544922,87.10076882568359,41.49271258544922,87.3093488256836L41.06531258544922,87.33810882568359L22.263212585449217,87.33810882568359C20.523512585449218,87.33810882568359,19.11321258544922,85.9278088256836,19.11321258544922,84.1881088256836C19.11321258544922,82.59338882568359,20.29826258544922,81.27544682568359,21.83577258544922,81.06686462568359L22.263212585449217,81.0381088256836L41.06531258544922,81.0381088256836Z" fill="url(#master_svg3_0_405)" fill-opacity="1"/></g><g style="mix-blend-mode:passthrough"><path d="M85.88066795654296,81.0381088256836C87.62036795654296,81.0381088256836,89.03066795654297,82.4484088256836,89.03066795654297,84.1881088256836C89.03066795654297,85.7828288256836,87.84556795654296,87.10076882568359,86.30806795654297,87.3093488256836L85.88066795654296,87.33810882568359L55.12496795654297,87.33810882568359C53.38526795654297,87.33810882568359,51.97496795654297,85.9278088256836,51.97496795654297,84.1881088256836C51.974967956542976,82.59338882568359,53.160017956542966,81.27544682568359,54.69752795654297,81.06686462568359L55.12496795654297,81.0381088256836L85.88066795654296,81.0381088256836Z" fill="url(#master_svg4_0_405)" fill-opacity="1"/></g></g></svg>