<svg xmlns="http://www.w3.org/2000/svg" xmlns:xlink="http://www.w3.org/1999/xlink" fill="none" version="1.1" width="108" height="108" viewBox="0 0 108 108"><defs><linearGradient x1="1" y1="0.5" x2="0" y2="0.5" id="master_svg0_0_405"><stop offset="0%" stop-color="#BECAD3" stop-opacity="1"/><stop offset="100%" stop-color="#7A869A" stop-opacity="1"/></linearGradient><linearGradient x1="1" y1="0.5" x2="0" y2="0.5" id="master_svg1_0_405"><stop offset="0%" stop-color="#BECAD3" stop-opacity="1"/><stop offset="100%" stop-color="#7A869A" stop-opacity="1"/></linearGradient><linearGradient x1="1" y1="0.5" x2="0" y2="0.5" id="master_svg2_0_405"><stop offset="0%" stop-color="#BECAD3" stop-opacity="1"/><stop offset="100%" stop-color="#7A869A" stop-opacity="1"/></linearGradient><linearGradient x1="1" y1="0.5" x2="0" y2="0.5" id="master_svg3_0_405"><stop offset="0%" stop-color="#BECAD3" stop-opacity="1"/><stop offset="100%" stop-color="#7A869A" stop-opacity="1"/></linearGradient><linearGradient x1="1" y1="0.5" x2="0" y2="0.5" id="master_svg4_0_405"><stop offset="0%" stop-color="#BECAD3" stop-opacity="1"/><stop offset="100%" stop-color="#7A869A" stop-opacity="1"/></linearGradient><linearGradient x1="1" y1="0.5" x2="0" y2="0.5" id="master_svg5_0_405"><stop offset="0%" stop-color="#BECAD3" stop-opacity="1"/><stop offset="100%" stop-color="#7A869A" stop-opacity="1"/></linearGradient></defs><g style="mix-blend-mode:passthrough"><g style="mix-blend-mode:passthrough"><path d="M61.159788055229185,78.78083038330078C63.147988055229185,78.78083038330078,64.7597880552292,80.39260038330079,64.7597880552292,82.38083038330078C64.7597880552292,84.21611038330079,63.38638805522919,85.73064038330078,61.611388055229185,85.95278038330078L61.159788055229185,85.98083038330078L4.499988055229187,85.98083038330078C2.511758055229187,85.98083038330078,0.899988055229187,84.36906038330078,0.899988055229187,82.38083038330078C0.899988055229187,80.54555038330078,2.2733380552291873,79.03102338330078,4.048408055229187,78.80887948330079L4.499988055229187,78.78083038330078L61.159788055229185,78.78083038330078Z" fill="url(#master_svg0_0_405)" fill-opacity="1"/></g><g style="mix-blend-mode:passthrough"><path d="M103.49997822265625,78.78083038330078C105.48817822265624,78.78083038330078,107.09997822265625,80.39260038330079,107.09997822265625,82.38083038330078C107.09997822265625,84.21611038330079,105.72657822265626,85.73064038330078,103.95147822265625,85.95278038330078L103.49997822265625,85.98083038330078L78.59517822265624,85.98083038330078C76.60694822265626,85.98083038330078,74.99517822265625,84.36906038330078,74.99517822265625,82.38083038330078C74.99517822265625,80.54555038330078,76.36852822265625,79.03102338330078,78.14359822265625,78.80887948330079L78.59517822265624,78.78083038330078L103.49997822265625,78.78083038330078Z" fill="url(#master_svg1_0_405)" fill-opacity="1"/></g><g style="mix-blend-mode:passthrough"><path d="M75.27308805522918,51.26914596557617C77.26138805522919,51.26914596557617,78.87308805522919,52.88091596557617,78.87308805522919,54.86914596557617C78.87308805522919,56.70442596557617,77.49978805522919,58.21895596557617,75.7246880552292,58.441095965576174L75.27308805522918,58.469145965576175L4.499988055229187,58.469145965576175C2.511758055229187,58.469145965576175,0.899988055229187,56.857375965576175,0.899988055229187,54.86914596557617C0.899988055229187,53.03386596557617,2.2733380552291873,51.519338965576175,4.048408055229187,51.29719506557617L4.499988055229187,51.26914596557617L75.27308805522918,51.26914596557617Z" fill="url(#master_svg2_0_405)" fill-opacity="1"/></g><g style="mix-blend-mode:passthrough"><path d="M103.49992813720704,51.26914596557617C105.48812813720703,51.26914596557617,107.09992813720703,52.88091596557617,107.09992813720703,54.86914596557617C107.09992813720703,56.70442596557617,105.72662813720703,58.21895596557617,103.95152813720703,58.441095965576174L103.49992813720704,58.469145965576175L92.70852813720703,58.469145965576175C90.72029813720704,58.469145965576175,89.10852813720703,56.857375965576175,89.10852813720703,54.86914596557617C89.10852813720703,53.03386596557617,90.48187813720703,51.519338965576175,92.25694813720703,51.29719506557617L92.70852813720703,51.26914596557617L103.49992813720704,51.26914596557617Z" fill="url(#master_svg3_0_405)" fill-opacity="1"/></g><g style="mix-blend-mode:passthrough"><path d="M49.59398805522919,22.01915740966797C51.58218805522919,22.01915740966797,53.193988055229184,23.63092740966797,53.193988055229184,25.61915740966797C53.193988055229184,27.454437409667968,51.82058805522919,28.968967409667968,50.04558805522919,29.191107409667968L49.59398805522919,29.219157409667968L4.499988055229187,29.219157409667968C2.511758055229187,29.219157409667968,0.899988055229187,27.607387409667968,0.899988055229187,25.61915740966797C0.899988055229187,23.78387740966797,2.2733380552291873,22.269350409667968,4.048408055229187,22.04720650966797L4.499988055229187,22.01915740966797L49.59398805522919,22.01915740966797Z" fill="url(#master_svg4_0_405)" fill-opacity="1"/></g><g style="mix-blend-mode:passthrough"><path d="M103.50004137573242,22.01915740966797C105.48824137573243,22.01915740966797,107.10004137573242,23.63092740966797,107.10004137573242,25.61915740966797C107.10004137573242,27.454437409667968,105.72664137573241,28.968967409667968,103.95164137573242,29.191107409667968L103.50004137573242,29.219157409667968L66.60944137573242,29.219157409667968C64.62121137573243,29.219157409667968,63.00944137573242,27.607387409667968,63.00944137573242,25.61915740966797C63.00944137573242,23.78387740966797,64.38279137573242,22.269350409667968,66.15786137573242,22.04720650966797L66.60944137573242,22.01915740966797L103.50004137573242,22.01915740966797Z" fill="url(#master_svg5_0_405)" fill-opacity="1"/></g></g></svg>