<svg xmlns="http://www.w3.org/2000/svg" xmlns:xlink="http://www.w3.org/1999/xlink" fill="none" version="1.1" width="108" height="108" viewBox="0 0 108 108"><defs><linearGradient x1="1" y1="0.5" x2="0" y2="0.5" id="master_svg0_0_405"><stop offset="0%" stop-color="#BECAD3" stop-opacity="1"/><stop offset="100%" stop-color="#7A869A" stop-opacity="1"/></linearGradient><linearGradient x1="0.7499420046806335" y1="0.06690219044685364" x2="0.24993813037872314" y2="0.9329723119735718" id="master_svg1_0_419"><stop offset="0%" stop-color="#79859A" stop-opacity="1"/><stop offset="100%" stop-color="#BDCAD3" stop-opacity="1"/></linearGradient><linearGradient x1="0.7500165700912476" y1="0.06690219044685364" x2="0.24992500245571136" y2="0.9329723119735718" id="master_svg2_0_421"><stop offset="0%" stop-color="#79859A" stop-opacity="1"/><stop offset="100%" stop-color="#BDCAD3" stop-opacity="1"/></linearGradient><linearGradient x1="0.7500041127204895" y1="0.06690219044685364" x2="0.25000014901161194" y2="0.9329723119735718" id="master_svg3_0_423"><stop offset="0%" stop-color="#79859A" stop-opacity="1"/><stop offset="100%" stop-color="#BDCAD3" stop-opacity="1"/></linearGradient><linearGradient x1="0.7499420046806335" y1="0.06709987670183182" x2="0.24993813037872314" y2="0.932980477809906" id="master_svg4_0_425"><stop offset="0%" stop-color="#79859A" stop-opacity="1"/><stop offset="100%" stop-color="#BDCAD3" stop-opacity="1"/></linearGradient><linearGradient x1="0.7500165700912476" y1="0.06709987670183182" x2="0.24992500245571136" y2="0.932980477809906" id="master_svg5_0_427"><stop offset="0%" stop-color="#79859A" stop-opacity="1"/><stop offset="100%" stop-color="#BDCAD3" stop-opacity="1"/></linearGradient><linearGradient x1="0.7500041127204895" y1="0.06709987670183182" x2="0.25000014901161194" y2="0.932980477809906" id="master_svg6_0_429"><stop offset="0%" stop-color="#79859A" stop-opacity="1"/><stop offset="100%" stop-color="#BDCAD3" stop-opacity="1"/></linearGradient></defs><g style="mix-blend-mode:passthrough"><g style="mix-blend-mode:passthrough"><path d="M96.85824918060302,37.39939563964844C101.20284918060302,41.57140563964844,103.50044918060303,47.443505639648436,103.50044918060303,54.38390563964843C103.50204918060302,61.40700563964844,101.17934918060303,67.35080563964843,96.77994918060303,71.57270563964843C92.39154918060302,75.78530563964844,86.21604918060302,78.01250563964844,78.92074918060302,78.01250563964844C74.38664918060303,78.01250563964844,70.10154918060303,76.85520563964843,66.17834918060302,74.57030563964844C63.03964918060303,72.74240563964844,60.12974918060303,70.19240563964843,57.52514918060303,66.99360563964844C56.115549180603026,65.25930563964843,54.94564918060303,63.51720563964844,53.996549180603026,61.927905639648436C53.047449180603024,63.51400563964844,51.879049180603026,65.24840563964844,50.47414918060303,66.97640563964845C47.86964918060303,70.17840563964845,44.95964918060303,72.72530563964844,41.821049180603026,74.55470563964843C37.899349180603025,76.83810563964843,33.61264918060303,77.99530563964844,29.080149180603026,77.99530563964844C21.78484918060303,77.99530563964844,15.609349180603028,75.76970563964844,11.219379180603028,71.55550563964843C6.819969180603027,67.33360563964844,4.497319980603027,61.389805639648436,4.500452344683027,54.36670563964844C4.500452344683027,47.427905639648436,6.798039180603027,41.55430563964843,11.141069180603028,37.38224563964844C15.477849180603027,33.21955563964844,21.578149180603027,31.018905639648438,28.784149180603027,31.018905639648438C41.87274918060303,31.018905639648438,49.95424918060303,40.32684563964844,54.00434918060303,46.84300563964844C58.060749180603025,40.32684563964844,66.13914918060303,31.03606173964844,79.21674918060303,31.03606173964844C86.42124918060303,31.03606173964844,92.52154918060303,33.23671563964844,96.85824918060302,37.39939563964844ZM44.10924918060303,63.99280563964844C39.69884918060303,68.83860563964843,34.64004918060303,71.29510563964844,29.080149180603026,71.29510563964844C23.55464918060303,71.29510563964844,19.003249180603028,69.74790563964844,15.921049180603028,66.81730563964844C12.851329180603027,63.899205639648436,11.227199180603026,59.59310563964844,11.227199180603026,54.36670563964844C11.227199180603026,49.22610563964844,12.823139180603027,44.99170563964844,15.841149180603027,42.122005639648435C18.87334918060303,39.24287563964844,23.346349180603028,37.71910563964844,28.782549180603027,37.71910563964844C34.38474918060302,37.71910563964844,39.49834918060303,40.10535563964844,43.98074918060303,44.810805639648436C47.35434918060303,48.35120563964844,49.46084918060303,52.293905639648436,50.36454918060303,54.195205639648435L50.36454918060303,54.19670563964844L50.39114918060303,54.27160563964844C49.52974918060303,56.20240563964843,47.47024918060303,60.30270563964844,44.10924918060303,63.99280563964844ZM92.07834918060303,66.83460563964843C88.99604918060302,69.76360563964843,84.44624918060303,71.31230563964843,78.91924918060303,71.31230563964843C73.35924918060303,71.31230563964843,68.30204918060303,68.85590563964844,63.890149180603025,64.00850563964843C60.52444918060303,60.310605639648436,58.463349180603025,56.20560563964844,57.60344918060303,54.27790563964844C58.49154918060303,52.40010563964844,60.60584918060303,48.40900563964844,64.01854918060303,44.82810563964844C68.50254918060303,40.12262563964843,73.61614918060303,37.736375639648436,79.21684918060302,37.736375639648436C84.65304918060303,37.736375639648436,89.12764918060303,39.25858563964844,92.15814918060303,42.13920563964844C95.17774918060303,45.009005639648436,96.77214918060302,49.24340563964844,96.77214918060302,54.384005639648436C96.77214918060302,59.61030563964844,95.14954918060303,63.916505639648435,92.07834918060303,66.83460563964843Z" fill-rule="evenodd" fill="url(#master_svg0_0_405)" fill-opacity="1"/></g><g style="mix-blend-mode:passthrough"><path d="M6.7350110351562495,14.095783C5.35206703515625,14.88964,4.49849700515625,16.36194,4.50006318675625,17.95122L4.50006318675625,17.95122C4.49849700515625,19.54205,5.35206703515625,21.01279,6.7350110351562495,21.80977L6.7350110351562495,21.80977C8.11795103515625,22.603630000000003,9.82195103515625,22.603630000000003,11.20646103515625,21.80977L11.20646103515625,21.80977C12.58940103515625,21.01279,13.44297103515625,19.54205,13.44297103515625,17.95122L13.44297103515625,17.95122C13.44297103515625,16.36194,12.58940103515625,14.88964,11.20646103515625,14.095783L11.20646103515625,14.095783C10.51421103515625,13.698075,9.74208103515625,13.5,8.96995103515625,13.5L8.96995103515625,13.5C8.19939103515625,13.5,7.42726103515625,13.698075,6.7350110351562495,14.095783Z" fill-rule="evenodd" fill="url(#master_svg1_0_419)" fill-opacity="1"/></g><g style="mix-blend-mode:passthrough"><path d="M51.764236875,14.095783C50.379733875,14.88964,49.529296875,16.36194,49.529296875,17.95122L49.529296875,17.95122C49.529296875,19.54205,50.379733875,21.01279,51.764236875,21.80977L51.764236875,21.80977C53.147176875,22.603630000000003,54.852756875,22.603630000000003,56.235696875,21.80977L56.235696875,21.80977C57.620196875,21.01279,58.470636875,19.54205,58.470636875,17.95122L58.470636875,17.95122C58.470636875,16.36194,57.620196875,14.88964,56.235696875,14.095783L56.235696875,14.095783C55.543436875,13.698075,54.771306875,13.5,53.999186875,13.5L53.999186875,13.5C53.227056875,13.5,52.454926875,13.698075,51.764236875,14.095783Z" fill-rule="evenodd" fill="url(#master_svg2_0_421)" fill-opacity="1"/></g><g style="mix-blend-mode:passthrough"><path d="M96.79357787109375,14.095783C95.41063787109375,14.88964,94.55706787109375,16.36194,94.55706787109375,17.95122L94.55706787109375,17.95122C94.55706787109375,19.54205,95.41063787109375,21.01279,96.79357787109375,21.80977L96.79357787109375,21.80977C98.17651787109375,22.603630000000003,99.87895787109375,22.603630000000003,101.26346787109375,21.80977L101.26346787109375,21.80977C102.61664787109375,21.03151,103.46238787109375,19.60756,103.49997787109375,18.05727L103.49997787109375,18.05727L103.49997787109375,17.84672C103.46238787109375,16.29644,102.61664787109375,14.87248,101.26346787109375,14.095783L101.26346787109375,14.095783C100.57120787109375,13.698075,99.80064787109374,13.5,99.02851787109375,13.5L99.02851787109375,13.5C98.25638787109375,13.5,97.48582787109375,13.698075,96.79357787109375,14.095783Z" fill-rule="evenodd" fill="url(#master_svg3_0_423)" fill-opacity="1"/></g><g style="mix-blend-mode:passthrough"><path d="M6.7350110351562495,86.19017747265625C5.35206703515625,86.98559447265625,4.49849700515625,88.45633447265625,4.50006318675625,90.04561447265625L4.50006318675625,90.04561447265625C4.49849700515625,91.63800447265625,5.35206703515625,93.10718447265626,6.7350110351562495,93.90260447265625L6.7350110351562495,93.90260447265625C7.41316103515625,94.29407447265625,8.16963103515625,94.49215447265625,8.92610103515625,94.49994447265625L8.92610103515625,94.49994447265625L9.01537103515625,94.49994447265625C9.77184103515625,94.49215447265625,10.52830103515625,94.29407447265625,11.20646103515625,93.90260447265625L11.20646103515625,93.90260447265625C12.58940103515625,93.10718447265626,13.44297103515625,91.63800447265625,13.44297103515625,90.04561447265625L13.44297103515625,90.04561447265625C13.44297103515625,88.45633447265625,12.58940103515625,86.98559447265625,11.20646103515625,86.19017747265625L11.20646103515625,86.19017747265625C10.51421103515625,85.79246847265625,9.74208103515625,85.59283447265625,8.96995103515625,85.59283447265625L8.96995103515625,85.59283447265625C8.19939103515625,85.59283447265625,7.42726103515625,85.79246847265625,6.7350110351562495,86.19017747265625Z" fill-rule="evenodd" fill="url(#master_svg4_0_425)" fill-opacity="1"/></g><g style="mix-blend-mode:passthrough"><path d="M51.764236875,86.19017747265625C50.379733875,86.98559447265625,49.529296875,88.45633447265625,49.529296875,90.04561447265625L49.529296875,90.04561447265625C49.529296875,91.63800447265625,50.379733875,93.10718447265626,51.764236875,93.90260447265625L51.764236875,93.90260447265625C52.442396875,94.29407447265625,53.198866875,94.49215447265625,53.955326875,94.49994447265625L53.955326875,94.49994447265625L54.043036875,94.49994447265625C54.801066875000004,94.49215447265625,55.557536875,94.29407447265625,56.235696875,93.90260447265625L56.235696875,93.90260447265625C57.620196875,93.10718447265626,58.470636875,91.63800447265625,58.470636875,90.04561447265625L58.470636875,90.04561447265625C58.470636875,88.45633447265625,57.620196875,86.98559447265625,56.235696875,86.19017747265625L56.235696875,86.19017747265625C55.543436875,85.79246847265625,54.771306875,85.59283447265625,53.999186875,85.59283447265625L53.999186875,85.59283447265625C53.227056875,85.59283447265625,52.454926875,85.79246847265625,51.764236875,86.19017747265625Z" fill-rule="evenodd" fill="url(#master_svg5_0_427)" fill-opacity="1"/></g><g style="mix-blend-mode:passthrough"><path d="M96.79357787109375,86.19017747265625C95.41063787109375,86.98559447265625,94.55706787109375,88.45633447265625,94.55706787109375,90.04561447265625L94.55706787109375,90.04561447265625C94.55706787109375,91.63800447265625,95.41063787109375,93.10718447265626,96.79357787109375,93.90260447265625L96.79357787109375,93.90260447265625C97.47173787109375,94.29407447265625,98.22819787109376,94.49215447265625,98.98466787109375,94.49994447265625L98.98466787109375,94.49994447265625L99.07237787109375,94.49994447265625C99.82883787109375,94.49215447265625,100.58530787109375,94.29407447265625,101.26346787109375,93.90260447265625L101.26346787109375,93.90260447265625C102.61664787109375,93.12434447265625,103.46238787109375,91.70195447265625,103.49997787109375,90.15166447265625L103.49997787109375,90.15166447265625L103.49997787109375,89.94111447265625C103.46238787109375,88.39083447265625,102.61664787109375,86.96843447265626,101.26346787109375,86.19017747265625L101.26346787109375,86.19017747265625C100.57120787109375,85.79246847265625,99.80064787109374,85.59283447265625,99.02851787109375,85.59283447265625L99.02851787109375,85.59283447265625C98.25638787109375,85.59283447265625,97.48582787109375,85.79246847265625,96.79357787109375,86.19017747265625Z" fill-rule="evenodd" fill="url(#master_svg6_0_429)" fill-opacity="1"/></g></g></svg>