<svg xmlns="http://www.w3.org/2000/svg" xmlns:xlink="http://www.w3.org/1999/xlink" fill="none" version="1.1" width="108" height="108" viewBox="0 0 108 108"><defs><linearGradient x1="0.7500476837158203" y1="0.06703773140907288" x2="0.24995623528957367" y2="0.9330320358276367" id="master_svg0_0_399"><stop offset="0%" stop-color="#79859A" stop-opacity="1"/><stop offset="100%" stop-color="#BDCAD3" stop-opacity="1"/></linearGradient><linearGradient x1="0.7500476837158203" y1="0.06703773140907288" x2="0.24995623528957367" y2="0.9330320358276367" id="master_svg1_0_399"><stop offset="0%" stop-color="#79859A" stop-opacity="1"/><stop offset="100%" stop-color="#BDCAD3" stop-opacity="1"/></linearGradient><linearGradient x1="0.7500476837158203" y1="0.06703773140907288" x2="0.24995623528957367" y2="0.9330320358276367" id="master_svg2_0_399"><stop offset="0%" stop-color="#79859A" stop-opacity="1"/><stop offset="100%" stop-color="#BDCAD3" stop-opacity="1"/></linearGradient><linearGradient x1="0.7500476837158203" y1="0.06703773140907288" x2="0.24995623528957367" y2="0.9330320358276367" id="master_svg3_0_399"><stop offset="0%" stop-color="#79859A" stop-opacity="1"/><stop offset="100%" stop-color="#BDCAD3" stop-opacity="1"/></linearGradient><linearGradient x1="0.7500476837158203" y1="0.06703773140907288" x2="0.24995623528957367" y2="0.9330320358276367" id="master_svg4_0_399"><stop offset="0%" stop-color="#79859A" stop-opacity="1"/><stop offset="100%" stop-color="#BDCAD3" stop-opacity="1"/></linearGradient><linearGradient x1="0.7500476837158203" y1="0.06703773140907288" x2="0.24995623528957367" y2="0.9330320358276367" id="master_svg5_0_399"><stop offset="0%" stop-color="#79859A" stop-opacity="1"/><stop offset="100%" stop-color="#BDCAD3" stop-opacity="1"/></linearGradient><linearGradient x1="0.7500476837158203" y1="0.06703773140907288" x2="0.24995623528957367" y2="0.9330320358276367" id="master_svg6_0_399"><stop offset="0%" stop-color="#79859A" stop-opacity="1"/><stop offset="100%" stop-color="#BDCAD3" stop-opacity="1"/></linearGradient><linearGradient x1="0.7500476837158203" y1="0.06703773140907288" x2="0.24995623528957367" y2="0.9330320358276367" id="master_svg7_0_399"><stop offset="0%" stop-color="#79859A" stop-opacity="1"/><stop offset="100%" stop-color="#BDCAD3" stop-opacity="1"/></linearGradient><linearGradient x1="0.6821261644363403" y1="-0.51860511302948" x2="0.3521389961242676" y2="1.7550280094146729" id="master_svg8_0_401"><stop offset="0%" stop-color="#79859A" stop-opacity="1"/><stop offset="100%" stop-color="#BDCAD3" stop-opacity="1"/></linearGradient><linearGradient x1="0.6821261644363403" y1="-0.51860511302948" x2="0.3521389961242676" y2="1.7550280094146729" id="master_svg9_0_401"><stop offset="0%" stop-color="#79859A" stop-opacity="1"/><stop offset="100%" stop-color="#BDCAD3" stop-opacity="1"/></linearGradient></defs><g style="mix-blend-mode:passthrough"><g style="mix-blend-mode:passthrough"><path d="M9.653524404296874,17.99993896484375C8.872744404296874,17.99993896484375,8.093534404296875,18.20350496484375,7.393524404296874,18.60904596484375L7.393524404296874,18.60904596484375C5.995074404296875,19.42012896484375,5.131932834296875,20.918248964843748,5.133516580026875,22.54199896484375L5.133516580026875,22.54199896484375C5.131932834296875,24.16257896484375,5.995074404296875,25.66228896484375,7.393524404296874,26.47177896484375L7.393524404296874,26.47177896484375C8.791974404296875,27.284448964843747,10.516674404296875,27.284448964843747,11.915114404296876,26.47177896484375L11.915114404296876,26.47177896484375C13.313564404296875,25.66228896484375,14.175124404296875,24.16257896484375,14.175124404296875,22.54199896484375L14.175124404296875,22.54199896484375C14.175124404296875,20.918248964843748,13.313564404296875,19.42012896484375,11.915114404296876,18.60904596484375L11.915114404296876,18.60904596484375C11.215104404296875,18.20350496484375,10.434314404296874,17.99993896484375,9.653524404296874,17.99993896484375Z" fill-rule="evenodd" fill="url(#master_svg0_0_399)" fill-opacity="1"/></g><g style="mix-blend-mode:passthrough"><path d="M39.429558984375,17.99993896484375C38.648768984375,17.99993896484375,37.867978984375,18.20350496484375,37.169548984375,18.60904596484375L37.169548984375,18.60904596484375C35.769516984375,19.42012896484375,34.907958984375,20.918248964843748,34.907958984375,22.54199896484375L34.907958984375,22.54199896484375C34.907958984375,24.16257896484375,35.769516984375,25.66228896484375,37.169548984375,26.47177896484375L37.169548984375,26.47177896484375C38.566408984375,27.284448964843747,40.291108984375,27.284448964843747,41.689558984375,26.47177896484375L41.689558984375,26.47177896484375C43.089588984375,25.66228896484375,43.951148984374996,24.16257896484375,43.951148984374996,22.54199896484375L43.951148984374996,22.54199896484375C43.951148984374996,20.918248964843748,43.089588984375,19.42012896484375,41.689558984375,18.60904596484375L41.689558984375,18.60904596484375C40.991128984375,18.20350496484375,40.210338984375,17.99993896484375,39.429558984375,17.99993896484375Z" fill-rule="evenodd" fill="url(#master_svg1_0_399)" fill-opacity="1"/></g><g style="mix-blend-mode:passthrough"><path d="M21.694732900390626,35.2759771171875C20.294696900390626,36.0854701171875,19.434722900390625,37.5851801171875,19.434722900390625,39.2073401171875L19.434722900390625,39.2073401171875C19.434722900390625,40.829510117187496,20.294696900390626,42.327630117187496,21.694732900390626,43.1387101171875L21.694732900390626,43.1387101171875C23.093172900390627,43.9513801171875,24.816292900390625,43.9513801171875,26.216322900390626,43.1387101171875L26.216322900390626,43.1387101171875C27.613192900390626,42.327630117187496,28.474752900390627,40.829510117187496,28.474752900390627,39.2073401171875L28.474752900390627,39.2073401171875C28.474752900390627,37.5851801171875,27.613192900390626,36.0854701171875,26.216322900390626,35.2759771171875L26.216322900390626,35.2759771171875C25.516312900390623,34.8688461171875,24.735522900390624,34.6668701171875,23.954732900390624,34.6668701171875L23.954732900390624,34.6668701171875C23.173952900390624,34.6668701171875,22.394742900390625,34.8688461171875,21.694732900390626,35.2759771171875Z" fill-rule="evenodd" fill="url(#master_svg2_0_399)" fill-opacity="1"/></g><g style="mix-blend-mode:passthrough"><path d="M69.203973046875,17.99993896484375C68.424763046875,17.99993896484375,67.643983046875,18.20350496484375,66.945543046875,18.60904596484375L66.945543046875,18.60904596484375C65.545515046875,19.42012896484375,64.682373046875,20.918248964843748,64.682373046875,22.54199896484375L64.682373046875,22.54199896484375C64.682373046875,24.16257896484375,65.545515046875,25.66228896484375,66.945543046875,26.47177896484375L66.945543046875,26.47177896484375C68.343993046875,27.284448964843747,70.065523046875,27.284448964843747,71.463973046875,26.47177896484375L71.463973046875,26.47177896484375C72.862423046875,25.66228896484375,73.727153046875,24.16257896484375,73.727153046875,22.54199896484375L73.727153046875,22.54199896484375C73.727153046875,20.918248964843748,72.862423046875,19.42012896484375,71.463973046875,18.60904596484375L71.463973046875,18.60904596484375C70.765543046875,18.20350496484375,69.984753046875,17.99993896484375,69.203973046875,17.99993896484375Z" fill-rule="evenodd" fill="url(#master_svg3_0_399)" fill-opacity="1"/></g><g style="mix-blend-mode:passthrough"><path d="M52.972137685546876,35.2759771171875C51.57368768554687,36.0854701171875,50.710546115546876,37.5851801171875,50.71212986127688,39.2073401171875L50.71212986127688,39.2073401171875C50.710546115546876,40.829510117187496,51.57368768554687,42.327630117187496,52.972137685546876,43.1387101171875L52.972137685546876,43.1387101171875C54.37058768554687,43.9513801171875,56.09528768554688,43.9513801171875,57.49531768554687,43.1387101171875L57.49531768554687,43.1387101171875C58.892177685546876,42.327630117187496,59.753737685546874,40.829510117187496,59.753737685546874,39.2073401171875L59.753737685546874,39.2073401171875C59.753737685546874,37.5851801171875,58.892177685546876,36.0854701171875,57.49531768554687,35.2759771171875L57.49531768554687,35.2759771171875C56.79529768554688,34.8688461171875,56.01451768554688,34.6668701171875,55.232137685546874,34.6668701171875L55.232137685546874,34.6668701171875C54.451357685546874,34.6668701171875,53.67056768554688,34.8688461171875,52.972137685546876,35.2759771171875Z" fill-rule="evenodd" fill="url(#master_svg4_0_399)" fill-opacity="1"/></g><g style="mix-blend-mode:passthrough"><path d="M6.759979482421874,51.9399144609375C5.359943482421875,52.7525874609375,4.499969482421875,54.2507074609375,4.499969482421875,55.8728674609375L4.499969482421875,55.8728674609375C4.499969482421875,57.4966274609375,5.359943482421875,58.9947474609375,6.759979482421874,59.8042374609375L6.759979482421874,59.8042374609375C8.158419482421875,60.6185074609375,9.881539482421875,60.6185074609375,11.281569482421876,59.8042374609375L11.281569482421876,59.8042374609375C12.680019482421875,58.9947474609375,13.541579482421875,57.4966274609375,13.541579482421875,55.8728674609375L13.541579482421875,55.8728674609375C13.541579482421875,54.2507074609375,12.680019482421875,52.7525874609375,11.281569482421876,51.9399144609375L11.281569482421876,51.9399144609375C10.581559482421875,51.5343734609375,9.800769482421874,51.3323974609375,9.019979482421874,51.3323974609375L9.019979482421874,51.3323974609375C8.239199482421874,51.3323974609375,7.4584094824218745,51.5343734609375,6.759979482421874,51.9399144609375Z" fill-rule="evenodd" fill="url(#master_svg5_0_399)" fill-opacity="1"/></g><g style="mix-blend-mode:passthrough"><path d="M39.62115193359375,51.9399144609375C38.22429193359375,52.7525874609375,37.36115036359375,54.2507074609375,37.36273410932375,55.8728674609375L37.36273410932375,55.8728674609375C37.36115036359375,57.4966274609375,38.22429193359375,58.9947474609375,39.62115193359375,59.8042374609375L39.62115193359375,59.8042374609375C41.02119193359375,60.6185074609375,42.744301933593746,60.6185074609375,44.14433193359375,59.8042374609375L44.14433193359375,59.8042374609375C45.54278193359375,58.9947474609375,46.40434193359375,57.4966274609375,46.40434193359375,55.8728674609375L46.40434193359375,55.8728674609375C46.40434193359375,54.2507074609375,45.54278193359375,52.7525874609375,44.14433193359375,51.9399144609375L44.14433193359375,51.9399144609375C43.44432193359375,51.5343734609375,42.66353193359375,51.3323974609375,41.88274193359375,51.3323974609375L41.88274193359375,51.3323974609375C41.10196193359375,51.3323974609375,40.32117193359375,51.5343734609375,39.62115193359375,51.9399144609375Z" fill-rule="evenodd" fill="url(#master_svg6_0_399)" fill-opacity="1"/></g><g style="mix-blend-mode:passthrough"><path d="M98.97839928222656,17.99993896484375C98.19761928222657,17.99993896484375,97.41682928222656,18.20350496484375,96.71839928222656,18.60904596484375L96.71839928222656,18.60904596484375C95.32153328222657,19.42012896484375,94.45680771222656,20.918248964843748,94.45839145397656,22.54199896484375L94.45839145397656,22.54199896484375C94.45680771222656,24.16257896484375,95.32153328222657,25.66228896484375,96.71839928222656,26.47177896484375L96.71839928222656,26.47177896484375C98.11684928222657,27.284448964843747,99.84154928222657,27.284448964843747,101.24157928222657,26.47177896484375L101.24157928222657,26.47177896484375C102.63843928222656,25.66228896484375,103.49999928222657,24.16257896484375,103.49999928222657,22.54199896484375L103.49999928222657,22.54199896484375C103.49999928222657,20.918248964843748,102.63843928222656,19.42012896484375,101.24157928222657,18.60904596484375L101.24157928222657,18.60904596484375C100.54155928222656,18.20350496484375,99.75918928222656,17.99993896484375,98.97839928222656,17.99993896484375Z" fill-rule="evenodd" fill="url(#master_svg7_0_399)" fill-opacity="1"/></g><g style="mix-blend-mode:passthrough"><path d="M84.09746948242187,52.86543682617187C82.64996948242188,53.848276826171876,82.26986948242188,55.82509682617187,83.24696948242187,57.28345682617187L83.24696948242187,57.28345682617187C84.22736948242188,58.73704682617188,86.19596948242187,59.12031682617187,87.64346948242188,58.13747682617188L87.64346948242188,58.13747682617188C88.65546948242188,57.45203682617188,89.83536948242188,57.08943682617188,91.05806948242187,57.08943682617188L91.05806948242187,57.08943682617188C94.42666948242187,57.08943682617188,97.16496948242188,59.84234682617188,97.16496948242188,63.224996826171875L97.16496948242188,63.224996826171875C97.16496948242188,66.60609682617188,94.42666948242187,69.35749682617188,91.05806948242187,69.35749682617188L91.05806948242187,69.35749682617188L7.665879482421875,69.35749682617188C5.9174194824218755,69.35749682617188,4.499969482421875,70.78079682617188,4.499969482421875,72.53979682617188L4.499969482421875,72.53979682617188C4.499969482421875,74.29549682617187,5.9174194824218755,75.71889682617187,7.665879482421875,75.71889682617187L7.665879482421875,75.71889682617187L91.05806948242187,75.71889682617187C97.91886948242187,75.71889682617187,103.49996948242188,70.11449682617187,103.49996948242188,63.224996826171875L103.49996948242188,63.224996826171875C103.49996948242188,56.334016826171876,97.91886948242187,50.727996826171875,91.05806948242187,50.727996826171875L91.05806948242187,50.727996826171875C88.56676948242188,50.727996826171875,86.15956948242187,51.469103826171875,84.09746948242187,52.86543682617187Z" fill-rule="evenodd" fill="url(#master_svg8_0_401)" fill-opacity="1"/></g><g style="mix-blend-mode:passthrough"><path d="M99.38939077148437,86.037353515625C101.13879077148438,86.037353515625,102.55689077148438,87.455483515625,102.55689077148438,89.204843515625C102.55689077148438,90.808423515625,101.36529077148438,92.133683515625,99.81919077148437,92.343423515625L99.38939077148437,92.372343515625L7.346780771484375,92.372343515625C5.597430771484375,92.372343515625,4.179290771484375,90.954203515625,4.179290771484375,89.204843515625C4.179290771484375,87.60126351562499,5.370920771484375,86.276009515625,6.916970771484375,86.066269015625L7.346780771484375,86.037353515625L99.38939077148437,86.037353515625Z" fill-rule="evenodd" fill="url(#master_svg9_0_401)" fill-opacity="1"/></g></g></svg>