<svg xmlns="http://www.w3.org/2000/svg" xmlns:xlink="http://www.w3.org/1999/xlink" fill="none" version="1.1" width="108" height="108" viewBox="0 0 108 108"><defs><linearGradient x1="1" y1="0.5" x2="0" y2="0.5" id="master_svg0_0_405"><stop offset="0%" stop-color="#BECAD3" stop-opacity="1"/><stop offset="100%" stop-color="#7A869A" stop-opacity="1"/></linearGradient><linearGradient x1="1" y1="0.5" x2="0" y2="0.5" id="master_svg1_0_405"><stop offset="0%" stop-color="#BECAD3" stop-opacity="1"/><stop offset="100%" stop-color="#7A869A" stop-opacity="1"/></linearGradient><linearGradient x1="0.7499600648880005" y1="0.06703479588031769" x2="0.2500436305999756" y2="0.9329912066459656" id="master_svg2_0_449"><stop offset="0%" stop-color="#79859A" stop-opacity="1"/><stop offset="100%" stop-color="#BDCAD3" stop-opacity="1"/></linearGradient><linearGradient x1="0.7501246333122253" y1="0.06703479588031769" x2="0.25003308057785034" y2="0.9329912066459656" id="master_svg3_0_451"><stop offset="0%" stop-color="#79859A" stop-opacity="1"/><stop offset="100%" stop-color="#BDCAD3" stop-opacity="1"/></linearGradient><linearGradient x1="0.750100314617157" y1="0.06692717224359512" x2="0.2499212771654129" y2="0.9328835606575012" id="master_svg4_0_453"><stop offset="0%" stop-color="#79859A" stop-opacity="1"/><stop offset="100%" stop-color="#BDCAD3" stop-opacity="1"/></linearGradient><linearGradient x1="0.7500265836715698" y1="0.06703479588031769" x2="0.24993515014648438" y2="0.9329912066459656" id="master_svg5_0_455"><stop offset="0%" stop-color="#79859A" stop-opacity="1"/><stop offset="100%" stop-color="#BDCAD3" stop-opacity="1"/></linearGradient><linearGradient x1="0.7499906420707703" y1="0.06692717224359512" x2="0.25007423758506775" y2="0.9328835606575012" id="master_svg6_0_457"><stop offset="0%" stop-color="#79859A" stop-opacity="1"/><stop offset="100%" stop-color="#BDCAD3" stop-opacity="1"/></linearGradient><linearGradient x1="0.7500458359718323" y1="0.06699725985527039" x2="0.24995428323745728" y2="0.9329915642738342" id="master_svg7_0_459"><stop offset="0%" stop-color="#79859A" stop-opacity="1"/><stop offset="100%" stop-color="#BDCAD3" stop-opacity="1"/></linearGradient><linearGradient x1="0.7501246333122253" y1="0.06699725985527039" x2="0.25003308057785034" y2="0.9329915642738342" id="master_svg8_0_461"><stop offset="0%" stop-color="#79859A" stop-opacity="1"/><stop offset="100%" stop-color="#BDCAD3" stop-opacity="1"/></linearGradient><linearGradient x1="0.7500052452087402" y1="0.06692717224359512" x2="0.24982653558254242" y2="0.9328835606575012" id="master_svg9_0_463"><stop offset="0%" stop-color="#79859A" stop-opacity="1"/><stop offset="100%" stop-color="#BDCAD3" stop-opacity="1"/></linearGradient><linearGradient x1="0.7500265836715698" y1="0.06699725985527039" x2="0.24993515014648438" y2="0.9329915642738342" id="master_svga_0_465"><stop offset="0%" stop-color="#79859A" stop-opacity="1"/><stop offset="100%" stop-color="#BDCAD3" stop-opacity="1"/></linearGradient><linearGradient x1="0.7499725222587585" y1="0.06699725985527039" x2="0.24996855854988098" y2="0.9329915642738342" id="master_svgb_0_467"><stop offset="0%" stop-color="#79859A" stop-opacity="1"/><stop offset="100%" stop-color="#BDCAD3" stop-opacity="1"/></linearGradient><linearGradient x1="0.7499725222587585" y1="0.06703479588031769" x2="0.24996855854988098" y2="0.9329912066459656" id="master_svgc_0_469"><stop offset="0%" stop-color="#79859A" stop-opacity="1"/><stop offset="100%" stop-color="#BDCAD3" stop-opacity="1"/></linearGradient></defs><g style="mix-blend-mode:passthrough"><g style="mix-blend-mode:passthrough"><path d="M99.38864190444946,85.60479736328125C101.37684190444946,85.60479736328125,102.98864190444947,87.21656736328126,102.98864190444947,89.20479736328124C102.98864190444947,91.04007736328126,101.61534190444947,92.55460736328125,99.84024190444946,92.77674736328125L99.38864190444946,92.80479736328125L7.3475419044494625,92.80479736328125C5.359311904449463,92.80479736328125,3.747541904449463,91.19302736328125,3.747541904449463,89.20479736328124C3.747541904449463,87.36951736328125,5.120891904449463,85.85499036328125,6.895961904449463,85.63284646328125L7.3475419044494625,85.60479736328125L99.38864190444946,85.60479736328125Z" fill="url(#master_svg0_0_405)" fill-opacity="1"/></g><g style="mix-blend-mode:passthrough"><path d="M99.38864190444946,68.94007873535156C101.37684190444946,68.94007873535156,102.98864190444947,70.55184873535157,102.98864190444947,72.54007873535156C102.98864190444947,74.37535873535157,101.61534190444947,75.88988873535156,99.84024190444946,76.11202873535156L99.38864190444946,76.14007873535157L7.3475419044494625,76.14007873535157C5.359311904449463,76.14007873535157,3.747541904449463,74.52830873535156,3.747541904449463,72.54007873535156C3.747541904449463,70.70479873535156,5.120891904449463,69.19027173535156,6.895961904449463,68.96812783535157L7.3475419044494625,68.94007873535156L99.38864190444946,68.94007873535156Z" fill="url(#master_svg1_0_405)" fill-opacity="1"/></g><g style="mix-blend-mode:passthrough"><path d="M7.39344697265625,18.607550517578126C5.99502497265625,19.420230517578126,5.13189697265625,20.918350517578126,5.13189697265625,22.542110517578124L5.13189697265625,22.542110517578124C5.13189697265625,24.162700517578124,5.99502497265625,25.664000517578124,7.39344697265625,26.473500517578124L7.39344697265625,26.473500517578124C8.791876972656251,27.284590517578124,10.51654697265625,27.284590517578124,11.91338697265625,26.473500517578124L11.91338697265625,26.473500517578124C13.31339697265625,25.664000517578124,14.17652697265625,24.162700517578124,14.17652697265625,22.542110517578124L14.17652697265625,22.542110517578124C14.17652697265625,20.918350517578126,13.31339697265625,19.420230517578126,11.91338697265625,18.607550517578126L11.91338697265625,18.607550517578126C11.21496697265625,18.203597517578125,10.43577697265625,18.000030517578125,9.655006972656249,18.000030517578125L9.655006972656249,18.000030517578125C8.874226972656249,18.000030517578125,8.09345697265625,18.203597517578125,7.39344697265625,18.607550517578126Z" fill-rule="evenodd" fill="url(#master_svg2_0_449)" fill-opacity="1"/></g><g style="mix-blend-mode:passthrough"><path d="M37.167440703125,18.607550517578126C35.770598703125,19.420230517578126,34.907470703125,20.918350517578126,34.907470703125,22.542110517578124L34.907470703125,22.542110517578124C34.907470703125,24.162700517578124,35.770598703125,25.664000517578124,37.167440703125,26.473500517578124L37.167440703125,26.473500517578124C38.565870703125,27.284590517578124,40.290540703125004,27.284590517578124,41.688960703125,26.473500517578124L41.688960703125,26.473500517578124C43.087390703124996,25.664000517578124,43.948930703125,24.162700517578124,43.948930703125,22.542110517578124L43.948930703125,22.542110517578124C43.948930703125,20.918350517578126,43.087390703124996,19.420230517578126,41.688960703125,18.607550517578126L41.688960703125,18.607550517578126C40.990540703125,18.203597517578125,40.209770703125,18.000030517578125,39.428990703125,18.000030517578125L39.428990703125,18.000030517578125C38.648220703125,18.000030517578125,37.867450703125,18.203597517578125,37.167440703125,18.607550517578126Z" fill-rule="evenodd" fill="url(#master_svg3_0_451)" fill-opacity="1"/></g><g style="mix-blend-mode:passthrough"><path d="M21.6928382421875,35.274603740234376C20.2928272421875,36.085693740234376,19.4328667021875,37.585403740234376,19.4344504258775,39.20757374023437L19.4344504258775,39.20757374023437C19.4328667021875,40.82975374023437,20.2928272421875,42.329463740234374,21.6928382421875,43.140553740234374L21.6928382421875,43.140553740234374C23.0912582421875,43.951643740234374,24.8159382421875,43.951643740234374,26.2159482421875,43.140553740234374L26.2159482421875,43.140553740234374C27.6143682421875,42.329463740234374,28.4743282421875,40.82975374023437,28.4743282421875,39.20757374023437L28.4743282421875,39.20757374023437C28.4743282421875,37.585403740234376,27.6143682421875,36.085693740234376,26.2159482421875,35.274603740234376L26.2159482421875,35.274603740234376C25.5159382421875,34.86905974023438,24.7351682421875,34.667083740234375,23.9543882421875,34.667083740234375L23.9543882421875,34.667083740234375C23.1736182421875,34.667083740234375,22.3928382421875,34.86905974023438,21.6928382421875,35.274603740234376Z" fill-rule="evenodd" fill="url(#master_svg4_0_453)" fill-opacity="1"/></g><g style="mix-blend-mode:passthrough"><path d="M66.94301443359375,18.607550517578126C65.54300743359374,19.420230517578126,64.68146289359375,20.918350517578126,64.68304661327375,22.542110517578124L64.68304661327375,22.542110517578124C64.68146289359375,24.162700517578124,65.54300743359374,25.664000517578124,66.94301443359375,26.473500517578124L66.94301443359375,26.473500517578124C68.34144443359375,27.284590517578124,70.06611443359375,27.284590517578124,71.46454443359374,26.473500517578124L71.46454443359374,26.473500517578124C72.86296443359375,25.664000517578124,73.72451443359375,24.162700517578124,73.72451443359375,22.542110517578124L73.72451443359375,22.542110517578124C73.72451443359375,20.918350517578126,72.86296443359375,19.420230517578126,71.46454443359374,18.607550517578126L71.46454443359374,18.607550517578126C70.76612443359375,18.203597517578125,69.98376443359375,18.000030517578125,69.20298443359376,18.000030517578125L69.20298443359376,18.000030517578125C68.42221443359375,18.000030517578125,67.64143443359374,18.203597517578125,66.94301443359375,18.607550517578126Z" fill-rule="evenodd" fill="url(#master_svg5_0_455)" fill-opacity="1"/></g><g style="mix-blend-mode:passthrough"><path d="M52.9729788671875,35.274603740234376C51.5729668671875,36.085693740234376,50.7098388671875,37.585403740234376,50.7098388671875,39.20757374023437L50.7098388671875,39.20757374023437C50.7098388671875,40.82975374023437,51.5729668671875,42.329463740234374,52.9729788671875,43.140553740234374L52.9729788671875,43.140553740234374C54.3713988671875,43.951643740234374,56.092908867187504,43.951643740234374,57.4929188671875,43.140553740234374L57.4929188671875,43.140553740234374C58.8913388671875,42.329463740234374,59.7544688671875,40.82975374023437,59.7544688671875,39.20757374023437L59.7544688671875,39.20757374023437C59.7544688671875,37.585403740234376,58.8913388671875,36.085693740234376,57.4929188671875,35.274603740234376L57.4929188671875,35.274603740234376C56.7929088671875,34.86905974023438,56.0121388671875,34.667083740234375,55.2313588671875,34.667083740234375L55.2313588671875,34.667083740234375C54.4521688671875,34.667083740234375,53.6713988671875,34.86905974023438,52.9729788671875,35.274603740234376Z" fill-rule="evenodd" fill="url(#master_svg6_0_457)" fill-opacity="1"/></g><g style="mix-blend-mode:passthrough"><path d="M6.76003103515625,51.9415074609375C5.36160503515625,52.7525974609375,4.50006103515625,54.2507174609375,4.50006103515625,55.8744874609375L4.50006103515625,55.8744874609375C4.50006103515625,57.4950674609375,5.36160503515625,58.9947774609375,6.76003103515625,59.8042774609375L6.76003103515625,59.8042774609375C8.15846103515625,60.6169574609375,9.88313103515625,60.6169574609375,11.28314103515625,59.8042774609375L11.28314103515625,59.8042774609375C12.68156103515625,58.9947774609375,13.54152103515625,57.4950674609375,13.54152103515625,55.8744874609375L13.54152103515625,55.8744874609375C13.54152103515625,54.2507174609375,12.68156103515625,52.7525974609375,11.28314103515625,51.9415074609375L11.28314103515625,51.9415074609375C10.58313103515625,51.5359644609375,9.802361035156249,51.3323974609375,9.021581035156249,51.3323974609375L9.021581035156249,51.3323974609375C8.23923103515625,51.3323974609375,7.45845103515625,51.5359644609375,6.76003103515625,51.9415074609375Z" fill-rule="evenodd" fill="url(#master_svg7_0_459)" fill-opacity="1"/></g><g style="mix-blend-mode:passthrough"><path d="M37.167440703125,51.9415074609375C35.770598703125,52.7525974609375,34.907470703125,54.2507174609375,34.907470703125,55.8744874609375L34.907470703125,55.8744874609375C34.907470703125,57.4950674609375,35.770598703125,58.9947774609375,37.167440703125,59.8042774609375L37.167440703125,59.8042774609375C38.565870703125,60.6169574609375,40.290540703125004,60.6169574609375,41.688960703125,59.8042774609375L41.688960703125,59.8042774609375C43.087390703124996,58.9947774609375,43.948930703125,57.4950674609375,43.948930703125,55.8744874609375L43.948930703125,55.8744874609375C43.948930703125,54.2507174609375,43.087390703124996,52.7525974609375,41.688960703125,51.9415074609375L41.688960703125,51.9415074609375C40.990540703125,51.5359644609375,40.209770703125,51.3323974609375,39.428990703125,51.3323974609375L39.428990703125,51.3323974609375C38.648220703125,51.3323974609375,37.867450703125,51.5359644609375,37.167440703125,51.9415074609375Z" fill-rule="evenodd" fill="url(#master_svg8_0_461)" fill-opacity="1"/></g><g style="mix-blend-mode:passthrough"><path d="M82.17197421875,35.274603740234376C80.77196021875,36.085693740234376,79.91041547875,37.585403740234376,79.91358292252,39.20757374023437L79.91358292252,39.20757374023437C79.91041547875,40.82975374023437,80.77196021875,42.329463740234374,82.17197421875,43.140553740234374L82.17197421875,43.140553740234374C83.57039421875,43.951643740234374,85.29506421875,43.951643740234374,86.69507421875,43.140553740234374L86.69507421875,43.140553740234374C88.09350421875,42.329463740234374,88.95346421875,40.82975374023437,88.95346421875,39.20757374023437L88.95346421875,39.20757374023437C88.95346421875,37.585403740234376,88.09350421875,36.085693740234376,86.69507421875,35.274603740234376L86.69507421875,35.274603740234376C85.99507421875,34.86905974023438,85.21429421875,34.667083740234375,84.43352421875,34.667083740234375L84.43352421875,34.667083740234375C83.65274421875,34.667083740234375,82.87197421875,34.86905974023438,82.17197421875,35.274603740234376Z" fill-rule="evenodd" fill="url(#master_svg9_0_463)" fill-opacity="1"/></g><g style="mix-blend-mode:passthrough"><path d="M66.94301443359375,51.9415074609375C65.54300743359374,52.7525974609375,64.68146289359375,54.2507174609375,64.68304661327375,55.8744874609375L64.68304661327375,55.8744874609375C64.68146289359375,57.4950674609375,65.54300743359374,58.9947774609375,66.94301443359375,59.8042774609375L66.94301443359375,59.8042774609375C68.34144443359375,60.6169574609375,70.06611443359375,60.6169574609375,71.46454443359374,59.8042774609375L71.46454443359374,59.8042774609375C72.86296443359375,58.9947774609375,73.72451443359375,57.4950674609375,73.72451443359375,55.8744874609375L73.72451443359375,55.8744874609375C73.72451443359375,54.2507174609375,72.86296443359375,52.7525974609375,71.46454443359374,51.9415074609375L71.46454443359374,51.9415074609375C70.76612443359375,51.5359644609375,69.98376443359375,51.3323974609375,69.20298443359376,51.3323974609375L69.20298443359376,51.3323974609375C68.42221443359375,51.3323974609375,67.64143443359374,51.5359644609375,66.94301443359375,51.9415074609375Z" fill-rule="evenodd" fill="url(#master_svga_0_465)" fill-opacity="1"/></g><g style="mix-blend-mode:passthrough"><path d="M96.71852021484375,51.9415074609375C95.31851421484374,52.7525974609375,94.45697021484375,54.2507174609375,94.45697021484375,55.8744874609375L94.45697021484375,55.8744874609375C94.45697021484375,57.4950674609375,95.31851421484374,58.9947774609375,96.71852021484375,59.8042774609375L96.71852021484375,59.8042774609375C98.11695021484375,60.6169574609375,99.84162021484374,60.6169574609375,101.24005021484375,59.8042774609375L101.24005021484375,59.8042774609375C102.63847021484375,58.9947774609375,103.50002021484374,57.4950674609375,103.50002021484374,55.8744874609375L103.50002021484374,55.8744874609375C103.50002021484374,54.2507174609375,102.63847021484375,52.7525974609375,101.24005021484375,51.9415074609375L101.24005021484375,51.9415074609375C100.54004021484376,51.5359644609375,99.75927021484375,51.3323974609375,98.97849021484375,51.3323974609375L98.97849021484375,51.3323974609375C98.19772021484376,51.3323974609375,97.41695021484375,51.5359644609375,96.71852021484375,51.9415074609375Z" fill-rule="evenodd" fill="url(#master_svgb_0_467)" fill-opacity="1"/></g><g style="mix-blend-mode:passthrough"><path d="M96.71852021484375,18.607550517578126C95.31851421484374,19.420230517578126,94.45697021484375,20.918350517578126,94.45697021484375,22.542110517578124L94.45697021484375,22.542110517578124C94.45697021484375,24.162700517578124,95.31851421484374,25.664000517578124,96.71852021484375,26.473500517578124L96.71852021484375,26.473500517578124C98.11695021484375,27.284590517578124,99.84162021484374,27.284590517578124,101.24005021484375,26.473500517578124L101.24005021484375,26.473500517578124C102.63847021484375,25.664000517578124,103.50002021484374,24.162700517578124,103.50002021484374,22.542110517578124L103.50002021484374,22.542110517578124C103.50002021484374,20.918350517578126,102.63847021484375,19.420230517578126,101.24005021484375,18.607550517578126L101.24005021484375,18.607550517578126C100.54004021484376,18.203597517578125,99.75927021484375,18.000030517578125,98.97849021484375,18.000030517578125L98.97849021484375,18.000030517578125C98.19772021484376,18.000030517578125,97.41695021484375,18.203597517578125,96.71852021484375,18.607550517578126Z" fill-rule="evenodd" fill="url(#master_svgc_0_469)" fill-opacity="1"/></g></g></svg>