<svg xmlns="http://www.w3.org/2000/svg" xmlns:xlink="http://www.w3.org/1999/xlink" fill="none" version="1.1" width="108" height="108" viewBox="0 0 108 108"><defs><linearGradient x1="0.7153639793395996" y1="-0.1971009522676468" x2="0.3379238545894623" y2="1.4234168529510498" id="master_svg0_0_409"><stop offset="0%" stop-color="#79859A" stop-opacity="1"/><stop offset="100%" stop-color="#BDCAD3" stop-opacity="1"/></linearGradient><linearGradient x1="0.6501790881156921" y1="-0.33765989542007446" x2="0.39784252643585205" y2="0.8504615426063538" id="master_svg1_0_435"><stop offset="0%" stop-color="#79859A" stop-opacity="1"/><stop offset="100%" stop-color="#BDCAD3" stop-opacity="1"/></linearGradient><linearGradient x1="0.6814794540405273" y1="-0.19601313769817352" x2="0.3186156451702118" y2="1.196262001991272" id="master_svg2_0_413"><stop offset="0%" stop-color="#79859A" stop-opacity="1"/><stop offset="100%" stop-color="#BDCAD3" stop-opacity="1"/></linearGradient><linearGradient x1="0.7287395000457764" y1="-0.12394604831933975" x2="0.3317367136478424" y2="1.3483121395111084" id="master_svg3_0_437"><stop offset="0%" stop-color="#79859A" stop-opacity="1"/><stop offset="100%" stop-color="#BDCAD3" stop-opacity="1"/></linearGradient><linearGradient x1="0.7500721216201782" y1="0.06696545332670212" x2="0.24998070299625397" y2="0.932959794998169" id="master_svg4_0_439"><stop offset="0%" stop-color="#79859A" stop-opacity="1"/><stop offset="100%" stop-color="#BDCAD3" stop-opacity="1"/></linearGradient><linearGradient x1="0.7500433325767517" y1="0.06695883721113205" x2="0.24995456635951996" y2="0.9329485297203064" id="master_svg5_0_441"><stop offset="0%" stop-color="#79859A" stop-opacity="1"/><stop offset="100%" stop-color="#BDCAD3" stop-opacity="1"/></linearGradient><linearGradient x1="0.7500652074813843" y1="0.0670279785990715" x2="0.24998962879180908" y2="0.9328811764717102" id="master_svg6_0_443"><stop offset="0%" stop-color="#79859A" stop-opacity="1"/><stop offset="100%" stop-color="#BDCAD3" stop-opacity="1"/></linearGradient><linearGradient x1="0.7500301599502563" y1="0.06689275801181793" x2="0.24998661875724792" y2="0.9330695867538452" id="master_svg7_0_445"><stop offset="0%" stop-color="#79859A" stop-opacity="1"/><stop offset="100%" stop-color="#BDCAD3" stop-opacity="1"/></linearGradient><linearGradient x1="0.7502013444900513" y1="0.06704579293727875" x2="0.25000685453414917" y2="0.9331434369087219" id="master_svg8_0_447"><stop offset="0%" stop-color="#79859A" stop-opacity="1"/><stop offset="100%" stop-color="#BDCAD3" stop-opacity="1"/></linearGradient></defs><g style="mix-blend-mode:passthrough"><g style="mix-blend-mode:passthrough"><path d="M66.249176171875,35.78458736328125C65.02347617187499,37.20141736328125,65.10707617187501,39.31570736328125,66.43847617187501,40.63245736328125L66.43847617187501,40.63245736328125C67.769876171875,41.95232736328125,69.899476171875,42.03679736328125,71.330276171875,40.82167736328125L71.330276171875,40.82167736328125C73.04497617187499,39.10772736328125,75.709376171875,38.75585736328125,77.818476171875,39.96156736328125L77.818476171875,39.96156736328125C79.929176171875,41.165717363281246,80.954576171875,43.62719736328125,80.320376171875,45.95889736328125L80.320376171875,45.95889736328125C79.684676171875,48.288997363281254,77.54717617187501,49.90439736328125,75.111576171875,49.891897363281245L75.111576171875,49.891897363281245L28.816986171875,49.891897363281245C26.827766171875,49.891897363281245,25.215576171875,51.49169736328125,25.215576171875,53.46369736328125L25.215576171875,53.46369736328125C25.215576171875,55.435597363281246,26.827766171875,57.03539736328125,28.816986171875,57.03539736328125L28.816986171875,57.03539736328125L75.291376171875,57.03539736328125C82.222876171875,57.03539736328125,87.846576171875,51.47599736328125,87.865476171875,44.60769736328125L87.865476171875,44.60769736328125C87.931776171875,39.49711736328125,84.846176171875,34.86349736328125,80.079076171875,32.91809336328125L80.079076171875,32.91809336328125C78.529976171875,32.28630736328125,76.905176171875,31.97979736328125,75.296076171875,31.97979736328125L75.296076171875,31.97979736328125C71.950276171875,31.97979736328125,68.667476171875,33.30435736328125,66.249176171875,35.78458736328125Z" fill-rule="evenodd" fill="url(#master_svg0_0_409)" fill-opacity="1"/></g><g style="mix-blend-mode:passthrough"><path d="M60.34148388671875,69.56939697265625L8.17396388671875,69.56939697265625C6.18317388671875,69.56939697265625,4.57098388671875,71.17231697265625,4.57098388671875,73.14117697265625L4.57098388671875,73.14117697265625C4.57098388671875,75.11472697265626,6.18317388671875,76.71452697265624,8.17396388671875,76.71452697265624L8.17396388671875,76.71452697265624L60.34148388671875,76.71452697265624C62.77558388671875,76.70357697265625,64.91308388671875,78.31744697265626,65.55038388671875,80.64599697265625L65.55038388671875,80.64599697265625C66.18448388671875,82.97769697265625,65.15758388671875,85.44069697265626,63.04688388671875,86.64639697265625L63.04688388671875,86.64639697265625C60.93778388671875,87.85209697265626,58.27338388671875,87.49869697265625,56.55708388671875,85.78629697265625L56.55708388671875,85.78629697265625C55.14528388671875,84.39449697265626,52.86418388671875,84.40229697265625,51.45868388671875,85.80349697265625L51.45868388671875,85.80349697265625C50.05788388671875,87.20309697265625,50.06578388671875,89.46749697265625,51.47758388671875,90.85619697265625L51.47758388671875,90.85619697265625C53.87698388671875,93.23009697265624,57.05558388671875,94.47649697265625,60.27368388671875,94.49989697265624L60.27368388671875,94.49989697265624L60.46138388671875,94.49989697265624C62.58788388671875,94.48429697265625,64.72378388671875,93.93379697265625,66.66088388671875,92.82349697265624L66.66088388671875,92.82349697265624C71.58738388671875,89.99609697265625,73.98198388671875,84.24119697265625,72.50078388671875,78.79284697265625L72.50078388671875,78.79284697265625C71.02268388671875,73.34916697265625,66.04248388671874,69.57096080265624,60.35728388671875,69.56939697265625L60.35728388671875,69.56939697265625C60.35098388671875,69.56939697265625,60.34618388671875,69.56939697265625,60.34148388671875,69.56939697265625Z" fill-rule="evenodd" fill="url(#master_svg1_0_435)" fill-opacity="1"/></g><g style="mix-blend-mode:passthrough"><path d="M8.1740011328125,49.927703857421875C6.888351132812501,49.927703857421875,5.6989211328125,50.609532857421875,5.0553051328125,51.715153857421875L5.0553051328125,51.715153857421875C4.4101131328125,52.817653857421874,4.4101131328125,54.17975385742187,5.0553051328125,55.285373857421874L5.0553051328125,55.285373857421874C5.6989211328125,56.39100385742188,6.888351132812501,57.06970385742188,8.1740011328125,57.06970385742188L8.1740011328125,57.06970385742188L16.9306111328125,57.06970385742188C18.2179111328125,57.06970385742188,19.4057111328125,56.39100385742188,20.049311132812498,55.285373857421874L20.049311132812498,55.285373857421874C20.6914111328125,54.17975385742187,20.6914111328125,52.817653857421874,20.049311132812498,51.715153857421875L20.049311132812498,51.715153857421875C19.4057111328125,50.609532857421875,18.2179111328125,49.927703857421875,16.9306111328125,49.927703857421875L16.9306111328125,49.927703857421875L8.1740011328125,49.927703857421875Z" fill-rule="evenodd" fill="url(#master_svg2_0_413)" fill-opacity="1"/></g><g style="mix-blend-mode:passthrough"><path d="M37.032530517578124,16.99828C35.61913051757813,18.39009,35.61123051757812,20.65138,37.01363051757812,22.05257L37.01363051757812,22.05257C38.41603051757812,23.452199999999998,40.69703051757813,23.461579999999998,42.11053051757813,22.06977L42.11053051757813,22.06977C43.826830517578124,20.35895,46.491230517578124,20.00552,48.60183051757812,21.21123L48.60183051757812,21.21123C50.71093051757813,22.41694,51.73793051757813,24.880000000000003,51.10223051757813,27.2085L51.10223051757813,27.2085C50.466430517578125,29.5402,48.330530517578126,31.154,45.89333051757813,31.1431L45.89333051757813,31.1431L8.174000517578126,31.1431C6.145350517578125,31.1431,4.500030517578125,32.7742,4.500030517578125,34.7868L4.500030517578125,34.7868C4.500030517578125,36.7979,6.145350517578125,38.429,8.174000517578126,38.429L8.174000517578126,38.429L45.929630517578126,38.429C51.57383051757812,38.357,56.47513051757812,34.563199999999995,57.92013051757812,29.1555L57.92013051757812,29.1555C59.36663051757812,23.747799999999998,56.997230517578124,18.04761,52.132330517578126,15.21708L52.132330517578126,15.21708C50.150930517578125,14.064542,47.95193051757813,13.5,45.76873051757813,13.5L45.76873051757813,13.5C42.588430517578125,13.5,39.43823051757813,14.69476,37.032530517578124,16.99828Z" fill-rule="evenodd" fill="url(#master_svg3_0_437)" fill-opacity="1"/></g><g style="mix-blend-mode:passthrough"><path d="M68.53654142578125,14.41799967578125C67.14519442578126,15.21711767578125,66.28388610578125,16.69023767578125,66.28546358895125,18.28534767578125L66.28546358895125,18.28534767578125C66.28388610578125,19.880447675781248,67.14519442578126,21.35513767578125,68.53654142578125,22.15112767578125L68.53654142578125,22.15112767578125C69.92946142578126,22.95023767578125,71.64734142578125,22.95023767578125,73.04027142578126,22.15112767578125L73.04027142578126,22.15112767578125C74.43319142578125,21.35513767578125,75.29134142578125,19.880447675781248,75.29134142578125,18.28534767578125L75.29134142578125,18.28534767578125C75.29134142578125,16.69023767578125,74.43319142578125,15.21711767578125,73.04027142578126,14.41799967578125L73.04027142578126,14.41799967578125C72.34302142578125,14.01922367578125,71.56531142578125,13.82061767578125,70.78761142578125,13.82061767578125L70.78761142578125,13.82061767578125C70.00991142578125,13.82061767578125,69.23221142578124,14.01922367578125,68.53654142578125,14.41799967578125Z" fill-rule="evenodd" fill="url(#master_svg4_0_439)" fill-opacity="1"/></g><g style="mix-blend-mode:passthrough"><path d="M93.467144453125,26.776924515625C92.072640453125,27.572908515625,91.216064453125,29.046038515625,91.216064453125,30.642708515625L91.216064453125,30.642708515625C91.216064453125,32.237808515625,92.072640453125,33.712498515625,93.467144453125,34.508488515625004L93.467144453125,34.508488515625004C94.860064453125,35.307598515625,96.577944453125,35.307598515625,97.970864453125,34.508488515625004L97.970864453125,34.508488515625004C99.363794453125,33.712498515625,100.223524453125,32.237808515625,100.221944453125,30.642708515625L100.221944453125,30.642708515625C100.223524453125,29.046038515625,99.363794453125,27.572908515625,97.970864453125,26.776924515625L97.970864453125,26.776924515625C97.273614453125,26.378148515625,96.495914453125,26.177978515625,95.718214453125,26.177978515625L95.718214453125,26.177978515625C94.940514453125,26.177978515625,94.164394453125,26.378148515625,93.467144453125,26.776924515625Z" fill-rule="evenodd" fill="url(#master_svg5_0_441)" fill-opacity="1"/></g><g style="mix-blend-mode:passthrough"><path d="M96.745220625,50.70505561914062C95.352294625,51.50260961914063,94.494140625,52.97572961914062,94.494140625,54.57083961914063L94.494140625,54.57083961914063C94.494140625,56.16749961914063,95.352294625,57.640629619140626,96.745220625,58.43661961914063L96.745220625,58.43661961914063C98.138140625,59.23729961914063,99.856020625,59.23729961914063,101.248940625,58.43661961914063L101.248940625,58.43661961914063C102.641870625,57.640629619140626,103.501600625,56.16749961914063,103.500020625,54.57083961914063L103.500020625,54.57083961914063C103.501600625,52.97572961914062,102.641870625,51.50260961914063,101.248940625,50.70505561914062L101.248940625,50.70505561914062C100.551690625,50.306279619140625,99.775570625,50.106109619140625,98.997870625,50.106109619140625L98.997870625,50.106109619140625C98.220170625,50.106109619140625,97.442470625,50.306279619140625,96.745220625,50.70505561914062Z" fill-rule="evenodd" fill="url(#master_svg6_0_443)" fill-opacity="1"/></g><g style="mix-blend-mode:passthrough"><path d="M82.0098690625,65.38299601367187C80.6185200625,66.18211401367188,79.7587890625,67.65523401367187,79.7587890625,69.24877401367188L79.7587890625,69.24877401367188C79.7587890625,70.84388401367187,80.6185200625,72.31857401367188,82.0098690625,73.11612401367188L82.0098690625,73.11612401367188C83.4027890625,73.91367401367188,85.1206690625,73.91367401367188,86.5135890625,73.11612401367188L86.5135890625,73.11612401367188C87.9080890625,72.31857401367188,88.7678190625,70.84388401367187,88.7662490625,69.24877401367188L88.7662490625,69.24877401367188C88.7678190625,67.65523401367187,87.9080890625,66.18211401367188,86.5135890625,65.38299601367187L86.5135890625,65.38299601367187C85.8179190625,64.98422001367187,85.0402190625,64.78561401367188,84.2625190625,64.78561401367188L84.2625190625,64.78561401367188C83.4848190625,64.78561401367188,82.7071190625,64.98422001367187,82.0098690625,65.38299601367187Z" fill-rule="evenodd" fill="url(#master_svg7_0_445)" fill-opacity="1"/></g><g style="mix-blend-mode:passthrough"><path d="M85.6475712890625,85.2749943046875C84.2562252890625,86.0756723046875,83.3980712890625,87.5472323046875,83.3980712890625,89.1439023046875L83.3980712890625,89.1439023046875C83.3980712890625,90.7358823046875,84.2562252890625,92.2136923046875,85.6475712890625,93.0096823046875L85.6475712890625,93.0096823046875C87.0420712890625,93.8056723046875,88.7599512890625,93.8056723046875,90.1528712890625,93.0096823046875L90.1528712890625,93.0096823046875C91.5473712890625,92.2136923046875,92.4055312890625,90.7358823046875,92.4023712890625,89.1439023046875L92.4023712890625,89.1439023046875C92.4055312890625,87.5472323046875,91.5473712890625,86.0756723046875,90.1528712890625,85.2749943046875L90.1528712890625,85.2749943046875C89.4572012890625,84.8777823046875,88.6795012890625,84.6776123046875,87.9002212890625,84.6776123046875L87.9002212890625,84.6776123046875C87.1225212890625,84.6776123046875,86.3448212890625,84.8777823046875,85.6475712890625,85.2749943046875Z" fill-rule="evenodd" fill="url(#master_svg8_0_447)" fill-opacity="1"/></g></g></svg>