<svg xmlns="http://www.w3.org/2000/svg" xmlns:xlink="http://www.w3.org/1999/xlink" fill="none" version="1.1" width="108" height="108" viewBox="0 0 108 108"><defs><linearGradient x1="1" y1="0.5" x2="0" y2="0.5" id="master_svg0_0_405"><stop offset="0%" stop-color="#BECAD3" stop-opacity="1"/><stop offset="100%" stop-color="#7A869A" stop-opacity="1"/></linearGradient><linearGradient x1="1" y1="0.5" x2="0" y2="0.5" id="master_svg1_0_405"><stop offset="0%" stop-color="#BECAD3" stop-opacity="1"/><stop offset="100%" stop-color="#7A869A" stop-opacity="1"/></linearGradient><linearGradient x1="1" y1="0.5" x2="0" y2="0.5" id="master_svg2_0_405"><stop offset="0%" stop-color="#BECAD3" stop-opacity="1"/><stop offset="100%" stop-color="#7A869A" stop-opacity="1"/></linearGradient><linearGradient x1="1" y1="0.5" x2="0" y2="0.5" id="master_svg3_0_405"><stop offset="0%" stop-color="#BECAD3" stop-opacity="1"/><stop offset="100%" stop-color="#7A869A" stop-opacity="1"/></linearGradient><linearGradient x1="1" y1="0.5" x2="0" y2="0.5" id="master_svg4_0_405"><stop offset="0%" stop-color="#BECAD3" stop-opacity="1"/><stop offset="100%" stop-color="#7A869A" stop-opacity="1"/></linearGradient><linearGradient x1="1" y1="0.5" x2="0" y2="0.5" id="master_svg5_0_405"><stop offset="0%" stop-color="#BECAD3" stop-opacity="1"/><stop offset="100%" stop-color="#7A869A" stop-opacity="1"/></linearGradient><linearGradient x1="1" y1="0.5" x2="0" y2="0.5" id="master_svg6_0_405"><stop offset="0%" stop-color="#BECAD3" stop-opacity="1"/><stop offset="100%" stop-color="#7A869A" stop-opacity="1"/></linearGradient><linearGradient x1="1" y1="0.5" x2="0" y2="0.5" id="master_svg7_0_405"><stop offset="0%" stop-color="#BECAD3" stop-opacity="1"/><stop offset="100%" stop-color="#7A869A" stop-opacity="1"/></linearGradient></defs><g style="mix-blend-mode:passthrough"><g style="mix-blend-mode:passthrough"><path d="M32.93309186992645,87.74957275390625C34.92129186992645,87.74957275390625,36.53309186992645,89.36134275390626,36.53309186992645,91.34957275390624C36.53309186992645,93.18485275390626,35.15979186992645,94.69938275390625,33.38469186992645,94.92152275390625L32.93309186992645,94.94957275390625L4.499991869926452,94.94957275390625C2.5117618699264526,94.94957275390625,0.8999918699264526,93.33780275390625,0.8999918699264526,91.34957275390624C0.8999918699264526,89.51429275390625,2.273341869926453,87.99976575390625,4.048411869926452,87.77762185390625L4.499991869926452,87.74957275390625L32.93309186992645,87.74957275390625Z" fill="url(#master_svg0_0_405)" fill-opacity="1"/></g><g style="mix-blend-mode:passthrough"><path d="M103.49979065551759,87.74957275390625C105.48809065551758,87.74957275390625,107.09979065551758,89.36134275390626,107.09979065551758,91.34957275390624C107.09979065551758,93.18485275390626,105.72649065551758,94.69938275390625,103.95139065551757,94.92152275390625L103.49979065551759,94.94957275390625L50.36839065551758,94.94957275390625C48.38016065551758,94.94957275390625,46.76839065551758,93.33780275390625,46.76839065551758,91.34957275390624C46.76839065551758,89.51429275390625,48.14174065551758,87.99976575390625,49.91681065551758,87.77762185390625L50.36839065551758,87.74957275390625L103.49979065551759,87.74957275390625Z" fill="url(#master_svg1_0_405)" fill-opacity="1"/></g><g style="mix-blend-mode:passthrough"><path d="M61.15979175071716,62.84989929199219C63.14799175071716,62.84989929199219,64.75979175071717,64.4616692919922,64.75979175071717,66.44989929199218C64.75979175071717,68.2851792919922,63.386391750717166,69.79970929199219,61.61139175071716,70.02184929199218L61.15979175071716,70.04989929199219L4.499991750717163,70.04989929199219C2.511761750717163,70.04989929199219,0.8999917507171631,68.43812929199218,0.8999917507171631,66.44989929199218C0.8999917507171631,64.61461929199218,2.2733417507171634,63.10009229199219,4.048411750717163,62.877948391992184L4.499991750717163,62.84989929199219L61.15979175071716,62.84989929199219Z" fill="url(#master_svg2_0_405)" fill-opacity="1"/></g><g style="mix-blend-mode:passthrough"><path d="M103.49987904052735,62.84989929199219C105.48807904052734,62.84989929199219,107.09987904052734,64.4616692919922,107.09987904052734,66.44989929199218C107.09987904052734,68.2851792919922,105.72647904052735,69.79970929199219,103.95137904052734,70.02184929199218L103.49987904052735,70.04989929199219L78.59507904052734,70.04989929199219C76.60684904052735,70.04989929199219,74.99507904052734,68.43812929199218,74.99507904052734,66.44989929199218C74.99507904052734,64.61461929199218,76.36842904052735,63.10009229199219,78.14349904052735,62.877948391992184L78.59507904052734,62.84989929199219L103.49987904052735,62.84989929199219Z" fill="url(#master_svg3_0_405)" fill-opacity="1"/></g><g style="mix-blend-mode:passthrough"><path d="M75.27309163150787,37.950191497802734C77.26139163150788,37.950191497802734,78.87309163150788,39.561961497802734,78.87309163150788,41.550191497802736C78.87309163150788,43.38547149780273,77.49979163150788,44.900001497802734,75.72469163150788,45.12214149780274L75.27309163150787,45.15019149780274L4.499991631507873,45.15019149780274C2.5117616315078735,45.15019149780274,0.8999916315078735,43.53842149780274,0.8999916315078735,41.550191497802736C0.8999916315078735,39.71491149780273,2.273341631507874,38.20038449780274,4.048411631507873,37.97824059780273L4.499991631507873,37.950191497802734L75.27309163150787,37.950191497802734Z" fill="url(#master_svg4_0_405)" fill-opacity="1"/></g><g style="mix-blend-mode:passthrough"><path d="M103.49982895507813,37.950191497802734C105.48802895507812,37.950191497802734,107.09982895507812,39.561961497802734,107.09982895507812,41.550191497802736C107.09982895507812,43.38547149780273,105.72652895507812,44.900001497802734,103.95142895507813,45.12214149780274L103.49982895507813,45.15019149780274L92.70842895507812,45.15019149780274C90.72019895507813,45.15019149780274,89.10842895507812,43.53842149780274,89.10842895507812,41.550191497802736C89.10842895507812,39.71491149780273,90.48177895507813,38.20038449780274,92.25684895507813,37.97824059780273L92.70842895507812,37.950191497802734L103.49982895507813,37.950191497802734Z" fill="url(#master_svg5_0_405)" fill-opacity="1"/></g><g style="mix-blend-mode:passthrough"><path d="M49.59209163150788,13.050334930419922C51.58039163150787,13.050334930419922,53.19209163150787,14.662104930419922,53.19209163150787,16.650334930419923C53.19209163150787,18.48561493041992,51.81879163150787,20.00014493041992,50.043691631507876,20.22228493041992L49.59209163150788,20.25033493041992L4.499991631507873,20.25033493041992C2.5117616315078735,20.25033493041992,0.8999916315078735,18.63856493041992,0.8999916315078735,16.650334930419923C0.8999916315078735,14.815054930419922,2.273341631507874,13.300527930419921,4.048411631507873,13.078384030419922L4.499991631507873,13.050334930419922L49.59209163150788,13.050334930419922Z" fill="url(#master_svg6_0_405)" fill-opacity="1"/></g><g style="mix-blend-mode:passthrough"><path d="M103.4999904296875,13.050334930419922C105.4881904296875,13.050334930419922,107.0999904296875,14.662104930419922,107.0999904296875,16.650334930419923C107.0999904296875,18.48561493041992,105.72659042968749,20.00014493041992,103.9515904296875,20.22228493041992L103.4999904296875,20.25033493041992L66.6076904296875,20.25033493041992C64.6194604296875,20.25033493041992,63.0076904296875,18.63856493041992,63.0076904296875,16.650334930419923C63.00769042968751,14.815054930419922,64.3810404296875,13.300527930419921,66.1561104296875,13.078384030419922L66.6076904296875,13.050334930419922L103.4999904296875,13.050334930419922Z" fill="url(#master_svg7_0_405)" fill-opacity="1"/></g></g></svg>