<svg xmlns="http://www.w3.org/2000/svg" xmlns:xlink="http://www.w3.org/1999/xlink" fill="none" version="1.1" width="108" height="108" viewBox="0 0 108 108"><defs><linearGradient x1="0.7153639793395996" y1="-0.1971009522676468" x2="0.3379238545894623" y2="1.4234168529510498" id="master_svg0_0_409"><stop offset="0%" stop-color="#79859A" stop-opacity="1"/><stop offset="100%" stop-color="#BDCAD3" stop-opacity="1"/></linearGradient><linearGradient x1="0.6501790881156921" y1="-0.337754487991333" x2="0.39784252643585205" y2="0.8504790663719177" id="master_svg1_0_411"><stop offset="0%" stop-color="#79859A" stop-opacity="1"/><stop offset="100%" stop-color="#BDCAD3" stop-opacity="1"/></linearGradient><linearGradient x1="0.6814794540405273" y1="-0.19601313769817352" x2="0.3186156451702118" y2="1.196262001991272" id="master_svg2_0_413"><stop offset="0%" stop-color="#79859A" stop-opacity="1"/><stop offset="100%" stop-color="#BDCAD3" stop-opacity="1"/></linearGradient><linearGradient x1="0.7287396192550659" y1="-0.12394604831933975" x2="0.3317367732524872" y2="1.3483121395111084" id="master_svg3_0_415"><stop offset="0%" stop-color="#79859A" stop-opacity="1"/><stop offset="100%" stop-color="#BDCAD3" stop-opacity="1"/></linearGradient></defs><g style="mix-blend-mode:passthrough"><g style="mix-blend-mode:passthrough"><path d="M66.17060898437501,38.18494359375C64.949608984375,39.59819359375,65.029908984375,41.70403359375,66.359608984375,43.02057359375L66.359608984375,43.02057359375C67.689308984375,44.33556359375,69.81620898437501,44.41818359375,71.245208984375,43.20776359375L71.245208984375,43.20776359375C72.957708984375,41.49969359375,75.617208984375,41.14715359375,77.725108984375,42.34982359375L77.725108984375,42.34982359375C79.83160898437501,43.55093359375,80.857208984375,46.00618359375,80.223908984375,48.331983593749996L80.223908984375,48.331983593749996C79.588908984375,50.65618359375,77.454208984375,52.267583593750004,75.021608984375,52.25508359375L75.021608984375,52.25508359375L28.786028984375,52.25508359375C26.799348984375,52.25508359375,25.189208984375,53.852383593750005,25.189208984375,55.81788359375L25.189208984375,55.81788359375C25.189208984375,57.784883593749996,26.799348984375,59.38058359375,28.786028984375,59.38058359375L28.786028984375,59.38058359375L75.201208984375,59.38058359375C82.12390898437499,59.38058359375,87.740508984375,53.83678359375,87.759408984375,46.98428359375L87.759408984375,46.98428359375C87.825508984375,41.88498359375,84.743908984375,37.26460359375,79.982808984375,35.32411359375L79.982808984375,35.32411359375C78.437308984375,34.69392059375,76.81450898437501,34.38818359375,75.206008984375,34.38818359375L75.206008984375,34.38818359375C71.86440898437499,34.38818359375,68.585808984375,35.70940359375,66.17060898437501,38.18494359375Z" fill-rule="evenodd" fill="url(#master_svg0_0_409)" fill-opacity="1"/></g><g style="mix-blend-mode:passthrough"><path d="M60.270392333984375,71.884765625L8.169292333984375,71.884765625C6.1810323339843745,71.884765625,4.570892333984375,73.480525625,4.570892333984375,75.447535625L4.570892333984375,75.447535625C4.570892333984375,77.412995625,6.1810323339843745,79.011875625,8.169292333984375,79.011875625L8.169292333984375,79.011875625L60.270392333984375,79.011875625C62.70139233398437,78.999395625,64.83769233398438,80.609195625,65.47109233398437,82.933465625L65.47109233398437,82.933465625C66.10439233398438,85.257665625,65.08039233398438,87.714465625,62.972392333984374,88.917165625L62.972392333984374,88.917165625C60.86589233398438,90.11826562499999,58.20649233398437,89.767265625,56.49239233398438,88.05916562499999L56.49239233398438,88.05916562499999C55.08239233398437,86.670865625,52.80259233398437,86.67866562500001,51.39889233398438,88.076365625L51.39889233398438,88.076365625C49.99989233398438,89.472465625,50.00769233398437,91.731165625,51.41779233398437,93.116365625L51.41779233398437,93.116365625C55.441592333984374,97.092465625,61.66159233398437,97.895865625,66.58179233398437,95.078665625L66.58179233398437,95.078665625C71.50199233398438,92.258365625,73.89359233398437,86.518065625,72.41419233398437,81.083395625L72.41419233398437,81.083395625C70.93959233398438,75.656565625,65.96729233398437,71.884765625,60.29249233398438,71.884765625L60.29249233398438,71.884765625C60.28459233398438,71.884765625,60.278292333984375,71.884765625,60.270392333984375,71.884765625Z" fill-rule="evenodd" fill="url(#master_svg1_0_411)" fill-opacity="1"/></g><g style="mix-blend-mode:passthrough"><path d="M8.169304321289061,52.29107666015625C6.885294321289063,52.29107666015625,5.697374321289063,52.97118566015625,5.054582321289063,54.07246666015625L5.054582321289063,54.07246666015625C4.410211321289062,55.17373666015625,4.410211321289062,56.53239666015625,5.054582321289063,57.63523666015625L5.054582321289063,57.63523666015625C5.697374321289063,58.73651666015625,6.885294321289063,59.41506666015625,8.169304321289061,59.41506666015625L8.169304321289061,59.41506666015625L16.91480432128906,59.41506666015625C18.200404321289064,59.41506666015625,19.386704321289063,58.73651666015625,20.02950432128906,57.63523666015625L20.02950432128906,57.63523666015625C20.67070432128906,56.53239666015625,20.67070432128906,55.17373666015625,20.02950432128906,54.07246666015625L20.02950432128906,54.07246666015625C19.386704321289063,52.97118566015625,18.200404321289064,52.29107666015625,16.91480432128906,52.29107666015625L16.91480432128906,52.29107666015625L8.169304321289061,52.29107666015625Z" fill-rule="evenodd" fill="url(#master_svg2_0_413)" fill-opacity="1"/></g><g style="mix-blend-mode:passthrough"><path d="M36.99113051757813,19.44447708984375C35.57953051757812,20.83432708984375,35.57163051757813,23.089927089843748,36.972230517578126,24.48601708984375L36.972230517578126,24.48601708984375C38.37283051757812,25.88367708984375,40.65103051757813,25.89147708984375,42.06263051757813,24.50473708984375L42.06263051757813,24.50473708984375C43.77833051757813,22.79510708984375,46.437730517578125,22.44412708984375,48.54573051757812,23.64679708984375L48.54573051757812,23.64679708984375C50.65213051757812,24.84946708984375,51.67773051757813,27.30471708984375,51.042830517578125,29.62891708984375L51.042830517578125,29.62891708984375C50.40793051757812,31.95471708984375,48.27473051757813,33.56611708984375,45.84063051757813,33.553617089843755L45.84063051757813,33.553617089843755L8.169320517578125,33.553617089843755C6.143260517578125,33.553617089843755,4.500030517578125,35.18061708984375,4.500030517578125,37.18661708984375L4.500030517578125,37.18661708984375C4.500030517578125,39.19411708984375,6.143260517578125,40.82111708984375,8.169320517578125,40.82111708984375L8.169320517578125,40.82111708984375L45.87683051757813,40.82111708984375C51.513930517578125,40.74781708984375,56.40893051757813,36.96511708984375,57.85203051757812,31.57101708984375L57.85203051757812,31.57101708984375C59.29683051757812,26.176917089843748,56.930430517578124,20.49271708984375,52.070030517578125,17.66620708984375L52.070030517578125,17.66620708984375C50.09283051757812,16.51657508984375,47.89823051757813,15.95501708984375,45.717730517578126,15.95501708984375L45.717730517578126,15.95501708984375C42.541530517578124,15.95501708984375,39.39373051757813,17.14676708984375,36.99113051757813,19.44447708984375Z" fill-rule="evenodd" fill="url(#master_svg3_0_415)" fill-opacity="1"/></g><g style="mix-blend-mode:passthrough"><path d="M103.30168447265625,32.63744850158692C103.10948447265625,32.29894850158691,102.78808447265625,32.04934850158691,102.40838447265625,31.949548501586914C102.02708447265624,31.846648501586913,101.62378447265624,31.899648501586913,101.28508447265625,32.09774850158691L98.80528447265624,33.52664850158692L98.80528447265624,30.668848501586915C98.80838447265626,30.278948501586914,98.65398447265625,29.904548501586913,98.37678447265625,29.626848501586913C98.09948447265626,29.352348501586913,97.72288447265625,29.194848501586915,97.32908447265625,29.193248501586915C96.93518447265626,29.194848501586915,96.55868447265625,29.352348501586913,96.27978447265625,29.626848501586913C96.00248447265625,29.904548501586913,95.84968447265625,30.278948501586914,95.85128447265625,30.668848501586915L95.85128447265625,33.52664850158692L93.37148447265625,32.09774850158691C93.03268447265626,31.902748501586913,92.62938447265626,31.849748501586912,92.24808447265625,31.951148501586914C91.86998447265626,32.05254850158691,91.54858447265624,32.29894850158691,91.35478447265625,32.63744850158692C90.94678447265625,33.34254850158692,91.18938447265626,34.239448501586914,91.89518447265625,34.65284850158692L94.37348447265626,36.08164850158691L91.89518447265625,37.508948501586914C91.18468447265624,37.919248501586914,90.94208447265625,38.820848501586916,91.35478447265625,39.52594850158691C91.54708447265625,39.865948501586914,91.86848447265625,40.11394850158692,92.24808447265625,40.21384850158691C92.62938447265626,40.316748501586915,93.03268447265626,40.26374850158692,93.37148447265625,40.065648501586914L95.85128447265625,38.63834850158692L95.85128447265625,41.49294850158691C95.85128447265625,42.310348501586915,96.50818447265624,42.96854850158691,97.32908447265625,42.96854850158691C98.14828447265626,42.96854850158691,98.80528447265624,42.310348501586915,98.80528447265624,41.49294850158691L98.80528447265624,38.63834850158692L101.28508447265625,40.065648501586914C101.62538447265625,40.262148501586914,102.02708447265624,40.31364850158691,102.40838447265625,40.21224850158691C102.78648447265624,40.110848501586915,103.10788447265625,39.864448501586914,103.30168447265625,39.52594850158691C103.70978447265625,38.820848501586916,103.46868447265625,37.92394850158691,102.76288447265625,37.508948501586914L100.28308447265624,36.08164850158691L102.76288447265625,34.65284850158692C103.46868447265625,34.239448501586914,103.70978447265625,33.34254850158692,103.30168447265625,32.63744850158692ZM76.58468447265625,14.694168501586914C76.39408447265625,14.354118501586914,76.07108447265625,14.106098501586914,75.69138447265625,14.004698501586914C75.31168447265625,13.901748501586914,74.90838447265625,13.956348501586914,74.56808447265625,14.152888501586915L72.08987447265625,15.581748501586915L72.08987447265625,12.725598501586914C72.09144447265625,12.335628501586914,71.93704447265625,11.961255501586914,71.65976447265625,11.683596501586914C71.38248447265624,11.407496501586914,71.00594447265625,11.249948501586914,70.61207447265625,11.249948501586914C70.21820447265625,11.249948501586914,69.84166447265625,11.407496501586914,69.56437447265625,11.683596501586914C69.28709447265625,11.961255501586914,69.13269447265625,12.335628501586914,69.13427447265624,12.725598501586914L69.13427447265624,15.581748501586915L66.65446447265624,14.152888501586915C66.31573447265625,13.957908501586914,65.91241447265625,13.904868501586915,65.53272447265626,14.007818501586915C65.15303347265625,14.107658501586915,64.83163547265625,14.355678501586913,64.63785147265625,14.694168501586914C64.22980247265625,15.397678501586913,64.47242607265625,16.296168501586912,65.17824147265625,16.707978501586915L67.65647447265626,18.136838501586915L65.17824147265625,19.565688501586912C64.46769957265624,19.974378501586912,64.22507547265624,20.877548501586915,64.63785147265625,21.581048501586913C64.83006047265626,21.921148501586913,65.15303347265625,22.169148501586914,65.53114447265625,22.270548501586916C65.91241447265625,22.371948501586914,66.31573447265625,22.318848501586913,66.65446447265624,22.122348501586913L69.13427447265624,20.693478501586917L69.13427447265624,23.549648501586915C69.13427447265624,24.367048501586915,69.79282447265625,25.025248501586915,70.61207447265625,25.025248501586915C71.43132447265626,25.025248501586915,72.08987447265625,24.367048501586915,72.08987447265625,23.549648501586915L72.08987447265625,20.693478501586917L74.56808447265625,22.122348501586913C74.90838447265625,22.317348501586913,75.31018447265625,22.370348501586914,75.69138447265625,22.267448501586912C76.06948447265626,22.166048501586914,76.39248447265625,21.919548501586917,76.58468447265625,21.581048501586913C76.99278447265625,20.877548501586915,76.75168447265625,19.979058501586913,76.04588447265625,19.565688501586912L73.56767447265625,18.136838501586915L76.04588447265625,16.707978501586915C76.75168447265625,16.294608501586914,76.99278447265625,15.397678501586913,76.58468447265625,14.694168501586914ZM87.53608447265626,67.37524850158692C87.34388447265624,67.03524850158692,87.02248447265625,66.78724850158692,86.64278447265625,66.68584850158692C86.26158447265625,66.58284850158691,85.85828447265625,66.63744850158692,85.51948447265625,66.83404850158692L83.03968447265625,68.26284850158692L83.03968447265625,65.40514850158692C83.04288447265625,65.0151485015869,82.88848447265624,64.64084850158692,82.61118447265625,64.36474850158692C82.33388447265625,64.08864850158692,81.95738447265626,63.931048501586915,81.56348447265626,63.929548501586915C81.16958447265625,63.931048501586915,80.79308447265625,64.08864850158692,80.51418447265625,64.36474850158692C80.23688447265624,64.64084850158692,80.08408447265626,65.0151485015869,80.08568447265625,65.40514850158692L80.08568447265625,68.26284850158692L77.60588447265624,66.83404850158692C77.26718447265625,66.63904850158691,76.86378447265625,66.58594850158691,76.48258447265624,66.6889485015869C76.10448447265625,66.78874850158692,75.78308447265626,67.03684850158692,75.58928447265625,67.37524850158692C75.18118447265626,68.07884850158692,75.42388447265625,68.97724850158691,76.12968447265625,69.38914850158692L78.60788447265625,70.81794850158691L76.12968447265625,72.24684850158691C75.41908447265625,72.6555485015869,75.17648447265626,73.55714850158691,75.58928447265625,74.26214850158692C75.78148447265625,74.60224850158691,76.10288447265626,74.85024850158692,76.48258447265624,74.9500485015869C76.86378447265625,75.05304850158691,77.26718447265625,75.00004850158692,77.60588447265624,74.80344850158691L80.08568447265625,73.3746485015869L80.08568447265625,76.22914850158692C80.08568447265625,77.04814850158691,80.74268447265625,77.70484850158691,81.56348447265626,77.70484850158691C82.38278447265625,77.70484850158691,83.03968447265625,77.04814850158691,83.03968447265625,76.22914850158692L83.03968447265625,73.3746485015869L85.51948447265625,74.80344850158691C85.85978447265626,74.99844850158692,86.26158447265625,75.04994850158691,86.64278447265625,74.94854850158691C87.02098447265625,74.84714850158691,87.34238447265625,74.60064850158692,87.53608447265626,74.26214850158692C87.94418447265625,73.55714850158691,87.70308447265626,72.66014850158692,86.99728447265625,72.24684850158691L84.51748447265625,70.81794850158691L86.99728447265625,69.38914850158692C87.70308447265626,68.9757485015869,87.94418447265625,68.07884850158692,87.53608447265626,67.37524850158692Z" fill-rule="evenodd" fill="#55ADE1" fill-opacity="1"/></g></g></svg>