<svg xmlns="http://www.w3.org/2000/svg" xmlns:xlink="http://www.w3.org/1999/xlink" fill="none" version="1.1" width="108" height="108" viewBox="0 0 108 108"><defs><linearGradient x1="0.690066397190094" y1="0.16112695634365082" x2="0.322000652551651" y2="1.1484391689300537" id="master_svg0_0_375"><stop offset="0%" stop-color="#FFFFFF" stop-opacity="1"/><stop offset="100%" stop-color="#C8CACD" stop-opacity="1"/></linearGradient><linearGradient x1="0.2803650200366974" y1="0.7838414311408997" x2="0.8461259603500366" y2="0.1682903915643692" id="master_svg1_0_377"><stop offset="0%" stop-color="#FFED46" stop-opacity="1"/><stop offset="100%" stop-color="#E49E14" stop-opacity="1"/></linearGradient></defs><g style="mix-blend-mode:passthrough"><g style="mix-blend-mode:passthrough"><path d="M20.916,45.87538334960938C12.77726,47.836983349609376,6.75,55.14248334960938,6.75,63.87048334960937L6.75,63.87048334960937C6.75,73.18718334960937,13.17076,81.08318334960939,22.1893,82.35678334960937L22.1893,82.35678334960937L74.939,82.35678334960937C82.9801,81.57278334960938,89.3529,74.70878334960938,89.3529,66.47048334960937L89.3529,66.47048334960937C89.3529,57.692883349609374,82.1947,50.337783349609374,73.3714,50.337783349609374L73.3714,50.337783349609374C70.4297,50.337783349609374,67.6832,51.416183349609376,65.3318,52.78888334960938L65.3318,52.78888334960938C65.3318,52.44648334960938,65.3814,52.201683349609375,65.3814,51.907383349609376L65.3814,51.907383349609376C65.3814,39.50098334960938,55.5263,29.006683349609375,42.9759,29.006683349609375L42.9759,29.006683349609375C32.5818,29.006683349609375,23.5633,36.313833349609375,20.916,45.87538334960938Z" fill-rule="evenodd" fill="url(#master_svg0_0_375)" fill-opacity="1"/></g><g style="mix-blend-mode:passthrough"><path d="M56.24932861328125,27.339534189453126C62.42694861328125,31.163494189453125,67.08332861328125,37.392294189453125,68.94692861328124,44.69939418945312L68.94692861328124,44.69939418945312C69.97702861328125,44.552194189453125,70.95592861328124,44.45299418945312,71.93812861328125,44.45299418945312L71.93812861328125,44.45299418945312C76.10182861328124,44.45299418945312,79.97602861328124,45.63059418945312,83.31122861328126,47.689794189453124L83.31122861328126,47.689794189453124C86.79032861328125,44.500994189453124,88.99772861328125,39.99069418945312,88.99772861328125,34.84189418945313L88.99772861328125,34.84189418945313C88.99772861328125,25.280344189453125,81.25092861328125,17.582794189453125,71.74132861328125,17.582794189453125L71.74132861328125,17.582794189453125C64.92710861328125,17.582794189453125,58.99582861328125,21.553964189453126,56.24932861328125,27.339534189453126Z" fill-rule="evenodd" fill="url(#master_svg1_0_377)" fill-opacity="1"/></g><g style="mix-blend-mode:passthrough"><path d="M47.20867487939453,11.605786862304688C48.32650387939453,10.474253862304687,50.07941387939453,10.351103862304688,51.33535387939453,11.243231862304688L51.734043879394534,11.578219862304687L55.61785387939453,15.414998862304689C56.87506387939453,16.65702886230469,56.88746387939453,18.683108862304685,55.64542387939453,19.940368862304688C54.52758387939453,21.07190886230469,52.77468387939453,21.19500886230469,51.51873387939453,20.302918862304686L51.12005387939453,19.96792886230469L47.236241879394534,16.131158862304687C45.97898287939453,14.889118862304688,45.96664087939453,12.863048862304687,47.20867487939453,11.605786862304688Z" fill="#F4EA31" fill-opacity="1"/></g><g style="mix-blend-mode:passthrough"><path d="M92.19293170410157,12.325438913085938C93.44219170410156,11.075354913085938,95.46830170410156,11.074682913085937,96.71839170410156,12.323937913085938C97.84342170410156,13.448265913085937,97.95652170410156,15.201855913085938,97.05717170410156,16.45263591308594L96.71989170410157,16.84939591308594L92.86008170410156,20.711765913085937C91.61082170410157,21.961835913085938,89.58471170410157,21.962535913085937,88.33462470410156,20.713265913085937C87.20954870410156,19.588935913085937,87.09649670410157,17.835355913085937,87.99584470410156,16.58456591308594L88.33312370410157,16.187815913085938L92.19293170410157,12.325438913085938Z" fill="#F4EA31" fill-opacity="1"/></g><g style="mix-blend-mode:passthrough"><path d="M101.24998668945312,32.67183303833008C103.01730668945312,32.67183303833008,104.45000668945312,34.104513038330076,104.45000668945312,35.871813038330075C104.45000668945312,37.49183303833008,103.24610668945313,38.83068303833008,101.68420668945312,39.04258303833008L101.24998668945312,39.07179303833008L95.79058668945312,39.07179303833008C94.02328668945313,39.07179303833008,92.59060668945312,37.63911303833008,92.59060668945312,35.871813038330075C92.59060668945312,34.251783038330075,93.79445668945313,32.91293703833008,95.35636668945313,32.70104503833008L95.79058668945312,32.67183303833008L101.24998668945312,32.67183303833008Z" fill="#F4EA31" fill-opacity="1"/></g><g style="mix-blend-mode:passthrough"><path d="M71.90026307373047,1.3000834882069825C73.52025307373047,1.2901182384069825,74.86648307373046,2.4857116484069826,75.08798307373047,4.046291648406982L75.11986307373047,4.480321648406982L75.15345307373047,9.941081648406982C75.16432307373047,11.708321648406983,73.74048307373047,13.149821648406983,71.97322307373047,13.160721648406982C70.35322307373048,13.170621648406982,69.00699407373047,11.975021648406983,68.78549877373047,10.414481648406982L68.75361637373047,9.980451648406982L68.72002491353047,4.519681648406983C68.70915377373046,2.7524216484069823,70.13299307373047,1.3109546484069825,71.90026307373047,1.3000834882069825Z" fill="#F4EA31" fill-opacity="1"/></g><g style="mix-blend-mode:passthrough"><path d="M33.41750995910645,90.65735498535156C34.51472995910645,89.27192998535156,36.527329959106446,89.03831398535156,37.91272995910644,90.13555798535157C39.172229959106446,91.13305498535156,39.479829959106446,92.88704498535157,38.700929959106446,94.23859498535157L38.43452995910644,94.63083498535156L29.836769959106444,105.48678498535156C28.739529959106445,106.87218498535157,26.726929959106446,107.10578498535156,25.341499959106446,106.00858498535156C24.082022759106444,105.01108498535156,23.774452959106444,103.25708498535157,24.553316959106446,101.90548498535156L24.819702959106444,101.51328498535156L33.41750995910645,90.65735498535156Z" fill="#55ADE1" fill-opacity="1"/></g><g style="mix-blend-mode:passthrough"><path d="M56.75215618408203,90.65735498535156C57.84937618408203,89.27192998535156,59.86197618408203,89.03831398535156,61.24737618408203,90.13555798535157C62.50687618408203,91.13305498535156,62.81447618408203,92.88704498535157,62.03557618408203,94.23859498535157L61.76917618408203,94.63083498535156L53.171416184082034,105.48678498535156C52.074176184082035,106.87218498535157,50.06157618408203,107.10578498535156,48.67614618408203,106.00858498535156C47.41666898408203,105.01108498535156,47.109099184082034,103.25708498535157,47.88796318408203,101.90548498535156L48.15434918408203,101.51328498535156L56.75215618408203,90.65735498535156Z" fill="#55ADE1" fill-opacity="1"/></g></g></svg>