<svg xmlns="http://www.w3.org/2000/svg" xmlns:xlink="http://www.w3.org/1999/xlink" fill="none" version="1.1" width="108" height="108" viewBox="0 0 108 108"><defs><linearGradient x1="0.14152474701404572" y1="0.09256065636873245" x2="0.6891966462135315" y2="1.0030044317245483" id="master_svg0_0_383"><stop offset="0%" stop-color="#E2DD4D" stop-opacity="1"/><stop offset="100%" stop-color="#DDB617" stop-opacity="1"/></linearGradient><linearGradient x1="0.6900765299797058" y1="0.16112174093723297" x2="0.3220157325267792" y2="1.1484380960464478" id="master_svg1_0_385"><stop offset="0%" stop-color="#FFFFFF" stop-opacity="1"/><stop offset="100%" stop-color="#C8CACD" stop-opacity="1"/></linearGradient></defs><g style="mix-blend-mode:passthrough"><g style="mix-blend-mode:passthrough"><path d="M32.943530230712895,91.65269351074218C34.03833023071289,90.22755451074218,36.06993023071289,89.96848651074218,37.48113023071289,91.07405051074218C38.75133023071289,92.0690535107422,39.08613023071289,93.83030351074218,38.34223023071289,95.21153351074219L38.05413023071289,95.65629351074219L29.54288023071289,106.73577351074219C28.44808023071289,108.16087351074219,26.41651023071289,108.41997351074218,25.00524023071289,107.31437351074219C23.73510493071289,106.31937351074218,23.40028923071289,104.5581735107422,24.144136230712892,103.17687351074218L24.43223223071289,102.73217351074219L32.943530230712895,91.65269351074218ZM56.04523023071289,91.6524635107422C57.14013023071289,90.22742151074219,59.17173023071289,89.96853851074219,60.58293023071289,91.07423051074218C61.85293023071289,92.06935351074219,62.18763023071289,93.83063351074219,61.44363023071289,95.21179351074218L61.15553023071289,95.65652351074219L52.64263023071289,106.73597351074218C51.54773023071289,108.16107351074218,49.51613023071289,108.41987351074219,48.104930230712895,107.3141735107422C46.83493023071289,106.31907351074219,46.50023023071289,104.55777351074218,47.24423023071289,103.17667351074219L47.53233023071289,102.73187351074219L56.04523023071289,91.6524635107422Z" fill="#55ADE1" fill-opacity="1"/></g><g style="mix-blend-mode:passthrough"><path d="M65.23503989257813,0C65.12573989257812,0.00326587,65.01493989257813,0.0310258,64.90403989257813,0.0865455L64.90403989257813,0.0865455C54.28987989257813,5.40012,47.10397489257812,16.8519,47.69620299257812,29.9709L47.69620299257812,29.9709C48.43411289257813,46.2708,61.439339892578126,59.4649,77.25373989257812,59.9777L77.25373989257812,59.9777C88.05953989257813,60.332,97.65393989257812,54.9009,103.35133989257812,46.4619L103.35133989257812,46.4619C103.76943989257813,45.843,103.24523989257813,45.0151,102.52793989257813,45.1572L102.52793989257813,45.1572C100.49003989257812,45.567,98.38233989257813,45.781,96.22403989257813,45.781L96.22403989257813,45.781C78.34163989257813,45.781,63.844739892578126,31.0894,63.844739892578126,12.9655L63.844739892578126,12.9655C63.844739892578126,8.79988,64.61583989257812,4.81879,66.01413989257813,1.15285L66.01413989257813,1.15285C66.23263989257812,0.578059,65.81143989257812,0.0179623,65.28723989257813,0L65.28723989257813,0L65.23503989257813,0Z" fill-rule="evenodd" fill="url(#master_svg0_0_383)" fill-opacity="1"/></g><g style="mix-blend-mode:passthrough"><path d="M18.922469482421874,45.69935233764649C10.637599482421875,47.75845233764649,4.499969482421875,55.425052337646484,4.499969482421875,64.58585233764649L4.499969482421875,64.58585233764649C4.499969482421875,74.36545233764647,11.038229482421876,82.65095233764649,20.220969482421875,83.98835233764649L20.220969482421875,83.98835233764649L73.92046948242188,83.98835233764649C82.10556948242187,83.16535233764648,88.59316948242187,75.96085233764649,88.59316948242187,67.31445233764649L88.59316948242187,67.31445233764649C88.59316948242187,58.101452337646485,81.30746948242188,50.38255233764649,72.32276948242188,50.38255233764649L72.32276948242188,50.38255233764649C69.32836948242188,50.38255233764649,66.53506948242187,51.51255233764648,64.13916948242188,52.95445233764649L64.13916948242188,52.95445233764649C64.13916948242188,52.595252337646485,64.18986948242187,52.33725233764648,64.18986948242187,52.02855233764649L64.18986948242187,52.02855233764649C64.18986948242187,39.00755233764649,54.15846948242187,27.995052337646484,41.381169482421875,27.995052337646484L41.381169482421875,27.995052337646484C30.800269482421875,27.995052337646484,21.619169482421874,35.66331233764649,18.922469482421874,45.69935233764649Z" fill-rule="evenodd" fill="url(#master_svg1_0_385)" fill-opacity="1"/></g></g></svg>