<svg xmlns="http://www.w3.org/2000/svg" xmlns:xlink="http://www.w3.org/1999/xlink" fill="none" version="1.1" width="108" height="108" viewBox="0 0 108 108"><defs><linearGradient x1="1" y1="0.5" x2="0" y2="0.5" id="master_svg0_0_405"><stop offset="0%" stop-color="#BECAD3" stop-opacity="1"/><stop offset="100%" stop-color="#7A869A" stop-opacity="1"/></linearGradient><linearGradient x1="1" y1="0.5" x2="0" y2="0.5" id="master_svg1_0_405"><stop offset="0%" stop-color="#BECAD3" stop-opacity="1"/><stop offset="100%" stop-color="#7A869A" stop-opacity="1"/></linearGradient><linearGradient x1="1" y1="0.5" x2="0" y2="0.5" id="master_svg2_0_405"><stop offset="0%" stop-color="#BECAD3" stop-opacity="1"/><stop offset="100%" stop-color="#7A869A" stop-opacity="1"/></linearGradient><linearGradient x1="1" y1="0.5" x2="0" y2="0.5" id="master_svg3_0_405"><stop offset="0%" stop-color="#BECAD3" stop-opacity="1"/><stop offset="100%" stop-color="#7A869A" stop-opacity="1"/></linearGradient><linearGradient x1="1" y1="0.5" x2="0" y2="0.5" id="master_svg4_0_405"><stop offset="0%" stop-color="#BECAD3" stop-opacity="1"/><stop offset="100%" stop-color="#7A869A" stop-opacity="1"/></linearGradient></defs><g style="mix-blend-mode:passthrough"><g style="mix-blend-mode:passthrough"><path d="M39.260404309082034,21.756692806396483C43.730204309082026,21.075987806396483,48.722304309082034,20.725032806396484,54.00010430908203,20.725032806396484C59.27800430908203,20.725032806396484,64.27010430908203,21.075987806396483,68.73990430908202,21.756692806396483L70.93010430908203,22.124422806396485C81.65270430908203,24.099502806396483,88.86370430908202,28.113402806396486,88.86370430908202,33.83473280639649C88.86370430908202,39.174732806396484,82.58210430908204,43.02723280639648,73.02670430908202,45.12303280639648L70.93010430908203,45.54513280639648C70.57270430908204,45.610932806396484,70.21140430908204,45.674532806396485,69.84630430908203,45.73583280639649L67.61170430908203,46.07613280639649C65.71370430908203,46.33683280639649,63.72840430908203,46.539932806396486,61.67300430908203,46.683932806396484L59.17400430908203,46.82833280639649C57.48690430908203,46.90553280639648,55.75940430908203,46.94453280639648,54.00010430908203,46.94453280639648C52.24090430908203,46.94453280639648,50.51330430908203,46.90553280639648,48.82630430908203,46.82833280639649L46.32730430908203,46.683932806396484C44.27190430908203,46.539932806396486,42.28660430908203,46.33683280639649,40.38860430908203,46.07613280639649L38.154004309082026,45.73583280639649C37.78890430908203,45.674532806396485,37.42760430908203,45.610932806396484,37.07020430908203,45.54513280639648L34.973604309082035,45.12303280639648C25.41814430908203,43.02723280639648,19.13660430908203,39.174732806396484,19.13660430908203,33.83473280639649C19.13660430908203,28.113402806396486,26.34756430908203,24.099502806396483,37.07020430908203,22.124422806396485L39.260404309082034,21.756692806396483ZM61.51970430908203,28.232292806396483C59.12520430908203,28.036702806396484,56.60230430908203,27.925102806396485,54.00010430908203,27.925102806396485C51.39800430908203,27.925102806396485,48.87500430908203,28.036702806396484,46.48060430908203,28.232292806396483L44.13080430908203,28.454842806396485L41.877704309082034,28.727232806396486C41.51080430908203,28.776452806396485,41.14840430908203,28.827482806396482,40.790804309082034,28.880212806396486L38.703104309082036,29.215872806396483C38.02730430908203,29.333852806396486,37.372204309082036,29.457582806396484,36.73950430908204,29.586032806396485L34.91090430908203,29.984562806396482C29.638604309082034,31.216532806396486,26.33658430908203,32.74853280639648,26.33658430908203,33.834832806396484C26.33658430908203,34.619332806396486,28.05891430908203,35.636432806396485,31.00190430908203,36.60503280639649L32.44510430908203,37.047632806396486L34.05070430908203,37.47713280639648C34.33120430908203,37.54733280639648,34.61800430908203,37.616732806396485,34.91090430908203,37.68513280639648L36.73950430908204,38.08363280639648C38.00480430908203,38.34053280639648,39.36010430908203,38.57853280639648,40.790804309082034,38.78953280639648L42.99150430908203,39.08453280639648C46.371904309082026,39.49353280639649,50.096904309082035,39.74463280639648,54.00010430908203,39.74463280639648C57.903404309082035,39.74463280639648,61.62840430908203,39.49353280639649,65.00880430908202,39.08453280639648L67.20950430908204,38.78953280639648C68.64020430908204,38.57853280639648,69.99540430908203,38.34053280639648,71.26070430908203,38.08363280639648L73.08930430908202,37.68513280639648C73.38220430908203,37.616732806396485,73.66910430908203,37.54733280639648,73.94960430908203,37.47713280639648L75.55520430908203,37.047632806396486C79.37060430908204,35.95483280639648,81.66370430908202,34.740032806396485,81.66370430908202,33.834832806396484C81.66370430908202,32.74853280639648,78.36170430908203,31.216532806396486,73.08930430908202,29.984562806396482L71.26070430908203,29.586032806396485C70.62810430908203,29.457582806396484,69.97290430908203,29.333852806396486,69.29710430908203,29.215872806396483L67.20950430908204,28.880212806396486C66.85180430908204,28.827482806396482,66.48940430908203,28.776452806396485,66.12260430908202,28.727232806396486L63.86950430908203,28.454842806396485L61.51970430908203,28.232292806396483Z" fill-rule="evenodd" fill="url(#master_svg0_0_405)" fill-opacity="1"/></g><g style="mix-blend-mode:passthrough"><path d="M88.96597389526367,48.78651264550781C90.77097389526367,47.95274764550781,92.91007389526368,48.74005664550781,93.74377389526367,50.54501164550781C94.57757389526367,52.349971645507814,93.79027389526367,54.48908164550781,91.98527389526367,55.322841645507815C82.00337389526368,59.93381164550782,68.44837389526367,62.553211645507815,54.00087389526367,62.553211645507815C39.55347389526367,62.553211645507815,25.998373895263672,59.93381164550782,16.016473895263672,55.322841645507815C14.211518895263671,54.48908164550781,13.424209895263672,52.349971645507814,14.257974895263672,50.54501164550781C15.091743895263672,48.74005664550781,17.23084389526367,47.95274764550781,19.035803895263673,48.78651264550781C28.00847389526367,52.931251645507814,40.54167389526367,55.353221645507816,54.00087389526367,55.353221645507816C67.46007389526366,55.353221645507816,79.99327389526367,52.931251645507814,88.96597389526367,48.78651264550781Z" fill="url(#master_svg1_0_405)" fill-opacity="1"/></g><g style="mix-blend-mode:passthrough"><path d="M77.24279553527832,67.66907155126952C79.04789553527831,66.83567455126953,81.18689553527832,67.62341755126953,82.02029553527832,69.42854755126953C82.85369553527832,71.23367755126954,82.06589553527832,73.37261755126953,80.26079553527832,74.20601755126953C73.32319553527833,77.40897755126953,63.96089553527832,79.21827755126954,54.00089553527832,79.21827755126954C44.04079553527832,79.21827755126954,34.678585535278316,77.40897755126953,27.74096553527832,74.20601755126953C25.935835535278322,73.37261755126953,25.14809253527832,71.23367755126954,25.98148953527832,69.42854755126953C26.81488553527832,67.62341755126953,28.95383553527832,66.83567455126953,30.75896553527832,67.66907155126952C36.68799553527832,70.40640755126952,45.02879553527832,72.01830755126953,54.00089553527832,72.01830755126953C62.97299553527832,72.01830755126953,71.31379553527833,70.40640755126952,77.24279553527832,67.66907155126952Z" fill="url(#master_svg2_0_405)" fill-opacity="1"/></g><g style="mix-blend-mode:passthrough"><path d="M42.78482010864258,85.3555025546875C44.266320108642574,84.2939835546875,46.27950010864258,84.5176105546875,47.49672010864258,85.8071185546875L47.80795010864258,86.1850685546875L54.11253010864258,94.9905185546875L60.15463010864258,86.2378585546875C61.18943010864258,84.7375764546875,63.15943010864258,84.2666405546875,64.74123010864258,85.0680815546875L65.16203010864258,85.3183855546875C66.66233010864258,86.3531785546875,67.13323010864258,88.3232385546875,66.33183010864258,89.9050485546875L66.08153010864258,90.3258385546875L57.13703010864258,103.2940185546875C55.822730108642574,105.1995185546875,53.12273010864258,105.3590185546875,51.58123010864258,103.7496185546875L51.24719010864258,103.3468185546875L41.95525910864258,90.3786285546875C40.79723810864258,88.7624585546875,41.16864610864258,86.5135285546875,42.78482010864258,85.3555025546875Z" fill="url(#master_svg3_0_405)" fill-opacity="1"/></g><g style="mix-blend-mode:passthrough"><path d="M47.8234844789505,3.2805298254089355C49.8503844789505,3.1940739254089356,51.9114844789505,3.1500468254089355,53.9999844789505,3.1500468254089355L55.5610844789505,3.1582771254089357C57.1167844789505,3.1747127254089356,58.656084478950504,3.2156893254089356,60.1761844789505,3.2805328254089354L63.1899844789505,3.4418408254089354C67.1719844789505,3.6988148254089355,71.00378447895051,4.122308825408935,74.6315844789505,4.699536825408936L77.3133844789505,5.161076825408935C94.9254844789505,8.427516825408937,107.0999844789505,15.457246825408935,107.0999844789505,24.651446825408936C107.0999844789505,34.075546825408935,94.3090844789505,41.22564682540894,75.98238447895051,44.37984682540893L73.2616844789505,44.81264682540893C67.2849844789505,45.687946825408936,60.7873844789505,46.15294682540893,53.9999844789505,46.15294682540893C47.2123844789505,46.15294682540893,40.7144844789505,45.687946825408936,34.7377844789505,44.81274682540894L32.0170844789505,44.37984682540893C13.690184478950501,41.22564682540894,0.8999844789505005,34.075746825408935,0.8999844789505005,24.651446825408936C0.8999844789505005,13.158546825408935,19.9217844789505,5.047886825408936,44.8096844789505,3.4418348254089355L47.8234844789505,3.2805298254089355ZM66.91688447895051,10.998076825408935C62.8228844789505,10.580576825408937,58.4888844789505,10.350116825408936,53.9999844789505,10.350116825408936L52.5094844789505,10.358596825408934C48.5506844789505,10.403636825408935,44.721784478950504,10.626956825408936,41.0826844789505,10.998056825408936L38.3897844789505,11.303616825408936L35.7736844789505,11.661736825408935C35.3443844789505,11.725646825408935,34.918484478950504,11.791626825408935,34.4960844789505,11.859616825408935L32.005584478950496,12.291226825408936C29.9671844789505,12.670216825408936,28.0233844789505,13.096516825408935,26.1885844789505,13.562646825408935L24.0401844789505,14.140746825408936C14.2675844789505,16.923246825408935,8.0999644789505,20.862546825408934,8.0999644789505,24.651546825408936C8.0999644789505,28.305346825408936,13.834884478950501,32.09874682540894,23.0070844789505,34.85994682540894L25.1009844789505,35.45604682540893C26.175284478950502,35.74514682540894,27.2898844789505,36.020346825408936,28.4417844789505,36.28024682540894L30.7939844789505,36.77894682540894L33.2398844789505,37.233546825408936L35.7736844789505,37.641446825408934L38.3897844789505,37.999546825408935L41.0826844789505,38.30504682540894C45.1766844789505,38.722546825408934,49.5108844789505,38.95304682540893,53.9999844789505,38.95304682540893C58.4888844789505,38.95304682540893,62.8228844789505,38.722546825408934,66.91688447895051,38.30504682540894L69.6096844789505,37.99944682540894L72.2257844789505,37.64134682540894L74.7594844789505,37.233546825408936L77.2053844789505,36.778846825408934L79.5576844789505,36.280146825408934C80.7094844789505,36.020346825408936,81.8241844789505,35.745046825408934,82.89848447895051,35.45594682540894L84.9923844789505,34.85984682540894C94.1646844789505,32.098646825408935,99.8999844789505,28.305146825408936,99.8999844789505,24.651546825408936C99.8999844789505,20.862646825408934,93.7319844789505,16.923346825408935,83.9591844789505,14.140846825408936L81.8107844789505,13.562746825408935C79.9760844789505,13.096586825408936,78.0321844789505,12.670276825408935,75.9937844789505,12.291276825408936L73.5032844789505,11.859656825408935C73.0809844789505,11.791666825408935,72.6550844789505,11.725686825408935,72.2257844789505,11.661776825408936L69.6096844789505,11.303646825408936L66.91688447895051,10.998076825408935Z" fill-rule="evenodd" fill="url(#master_svg4_0_405)" fill-opacity="1"/></g></g></svg>