<svg xmlns="http://www.w3.org/2000/svg" xmlns:xlink="http://www.w3.org/1999/xlink" fill="none" version="1.1" width="24" height="24" viewBox="0 0 24 24"><g style="mix-blend-mode:passthrough"><g style="opacity:0.3199999928474426;mix-blend-mode:passthrough"><path d="M6.5,8L3,8C2.447715,8,2,8.44772,2,9L2,21C2,21.5523,2.447715,22,3,22L6.5,22C7.05228,22,7.5,21.5523,7.5,21L7.5,9C7.5,8.44772,7.05228,8,6.5,8ZM13.75,2L10.25,2C9.69772,2,9.25,2.447715,9.25,3L9.25,21C9.25,21.5523,9.69772,22,10.25,22L13.75,22C14.3023,22,14.75,21.5523,14.75,21L14.75,3C14.75,2.447715,14.3023,2,13.75,2Z" fill="#36A4FF" fill-opacity="1"/></g><g style="mix-blend-mode:passthrough"><path d="M21,12L17.5,12C16.947715,12,16.5,12.447715,16.5,13L16.5,21C16.5,21.55229,16.947715,22,17.5,22L21,22C21.55228,22,22,21.55229,22,21L22,13C22,12.447715,21.55228,12,21,12Z" fill-rule="evenodd" fill="#36A4FF" fill-opacity="1"/></g></g></svg>