<svg xmlns="http://www.w3.org/2000/svg" viewBox="0 0 20 20" class="design-iconfont">
  <path d="M9.33333333,1.92843137 C9.74677983,1.92843137 10.0884679,2.2356656 10.1425448,2.63428121 L10.15,2.74509804 L10.15,8.51666667 L16.3333333,8.51666667 C16.7843659,8.51666667 17.15,8.88230079 17.15,9.33333333 C17.15,9.74677983 16.8427658,10.0884679 16.4441502,10.1425448 L16.3333333,10.15 L10.15,10.15 L10.15,15.9215686 C10.15,16.3726012 9.78436588,16.7382353 9.33333333,16.7382353 C8.91988683,16.7382353 8.57819873,16.4310011 8.52412187,16.0323855 L8.51666667,15.9215686 L8.51666667,10.15 L2.33333333,10.15 C1.88230079,10.15 1.51666667,9.78436588 1.51666667,9.33333333 C1.51666667,8.91988683 1.82390089,8.57819873 2.2225165,8.52412187 L2.33333333,8.51666667 L8.51666667,8.51666667 L8.51666667,2.74509804 C8.51666667,2.29406549 8.88230079,1.92843137 9.33333333,1.92843137 Z" fill="#FFF" fill-rule="nonzero" transform="translate(.666667 .666667)"/>
</svg>
