<svg xmlns="http://www.w3.org/2000/svg" viewBox="0 0 20 20" class="design-iconfont">
  <path d="M13.3508148,9.84971994 C12.8763655,11.6803119 11.2244095,12.9586991 9.33333333,12.9586991 C7.44225713,12.9586991 5.79030112,11.6803119 5.31585185,9.84971994 L0,9.84971994 L0,7.77564586 L5.31585185,7.77564586 C5.79030112,5.94505385 7.44225713,4.66666667 9.33333333,4.66666667 C11.2244095,4.66666667 12.8763655,5.94505385 13.3508148,7.77564586 L18.6666667,7.77564586 L18.6666667,9.84971994 L13.3508148,9.84971994 L13.3508148,9.84971994 Z M9.33333333,10.886757 C10.4788128,10.886757 11.4074074,9.95816238 11.4074074,8.8126829 C11.4074074,7.66720342 10.4788128,6.73860883 9.33333333,6.73860883 C8.18785385,6.73860883 7.25925926,7.66720342 7.25925926,8.8126829 C7.25925926,9.95816238 8.18785385,10.886757 9.33333333,10.886757 Z" fill="#FFF" transform="translate(.666667 .666667)" fill-rule="evenodd"/>
</svg>
