<svg xmlns="http://www.w3.org/2000/svg" viewBox="0 0 20 20" class="design-iconfont">
  <g fill="#FFF" fill-rule="evenodd">
    <path d="M10.0757576,1.16666667 L10.0765,3.4399697 C12.7676704,3.78020753 14.8868471,5.89968972 15.226697,8.59090909 L17.5,8.59090909 L17.5,10.0757576 L15.226697,10.0765 C14.8865337,12.7674304 12.7674304,14.8865337 10.0765,15.226697 L10.0757576,17.5 L8.59090909,17.5 L8.59090909,15.226697 C5.89968972,14.8868471 3.78020753,12.7676704 3.4399697,10.0765 L1.16666667,10.0757576 L1.16666667,8.59090909 L3.4399697,8.59090909 C3.77989413,5.89944975 5.89944975,3.77989413 8.59090909,3.4399697 L8.59090909,1.16666667 L10.0757576,1.16666667 Z M9.33333333,4.87878788 C6.87315581,4.87878788 4.87878788,6.87315581 4.87878788,9.33333333 C4.87878788,11.7935109 6.87315581,13.7878788 9.33333333,13.7878788 C11.7935109,13.7878788 13.7878788,11.7935109 13.7878788,9.33333333 C13.7878788,6.87315581 11.7935109,4.87878788 9.33333333,4.87878788 L9.33333333,4.87878788 Z" transform="translate(.666667 .666667)"/>
    <path d="M9.33333333,8.06060606 C10.0362412,8.06060606 10.6060606,8.63042547 10.6060606,9.33333333 C10.6060606,10.0362412 10.0362412,10.6060606 9.33333333,10.6060606 C8.63042547,10.6060606 8.06060606,10.0362412 8.06060606,9.33333333 C8.06060606,8.63042547 8.63042547,8.06060606 9.33333333,8.06060606 Z" opacity=".31999999" transform="translate(.666667 .666667)"/>
  </g>
</svg>
