<?xml version="1.0" encoding="UTF-8"?>
<svg width="64px" height="64px" viewBox="0 0 64 64" version="1.1" xmlns="http://www.w3.org/2000/svg" xmlns:xlink="http://www.w3.org/1999/xlink">
    <title>编组</title>
    <g id="页面-1" stroke="none" stroke-width="1" fill="none" fill-rule="evenodd">
        <g id="弹窗" transform="translate(-2066.000000, -4205.000000)">
            <g id="编组-17备份-3" transform="translate(129.000000, 3926.000000)">
                <g id="编组-16备份-3" transform="translate(89.000000, 261.000000)">
                    <g id="编组" transform="translate(1848.000000, 18.000000)">
                        <polygon id="路径" points="0 0 64 0 64 64 0 64"></polygon>
                        <path d="M48.0826667,44.312 L59.504,55.7306667 L55.7306667,59.504 L44.312,48.0826667 C40.0633019,51.4885896 34.7786695,53.3410805 29.3333333,53.3333333 C16.0853333,53.3333333 5.33333333,42.5813333 5.33333333,29.3333333 C5.33333333,16.0853333 16.0853333,5.33333333 29.3333333,5.33333333 C42.5813333,5.33333333 53.3333333,16.0853333 53.3333333,29.3333333 C53.3410805,34.7786695 51.4885896,40.0633019 48.0826667,44.312 Z M42.7333333,42.3333333 C46.1176344,38.8530284 48.0076454,34.1878114 48.0000231,29.3333333 C48.0000231,19.0186667 39.6453333,10.6666667 29.3333333,10.6666667 C19.0186667,10.6666667 10.6666667,19.0186667 10.6666667,29.3333333 C10.6666667,39.6453333 19.0186667,48.0000231 29.3333333,48.0000231 C34.1878114,48.0076454 38.8530284,46.1176344 42.3333333,42.7333333 L42.7333333,42.3333333 L42.7333333,42.3333333 Z" id="形状" fill="#FFFFFF" fill-rule="nonzero"></path>
                    </g>
                </g>
            </g>
        </g>
    </g>
</svg>