<svg width="28" height="28" xmlns="http://www.w3.org/2000/svg"><path opacity=".01" d="M0 0h28v28H0z"/><path d="M24.276 8.144l-.168-.3a2.484 2.484 0 0 0-.888-.876l-8.052-4.644a2.4 2.4 0 0 0-1.2-.324h-.348a2.4 2.4 0 0 0-1.2.324L4.368 6.98a2.4 2.4 0 0 0-.876.876l-.168.3A2.4 2.4 0 0 0 3 9.356v9.3c0 .421.112.835.324 1.2l.168.3c.216.36.517.66.876.876l8.064 4.644c.363.216.778.328 1.2.324h.336c.422 0 .835-.113 1.2-.324l8.052-4.656a2.28 2.28 0 0 0 .876-.876l.18-.3a2.46 2.46 0 0 0 .324-1.2v-9.3a2.4 2.4 0 0 0-.324-1.2zM13.62 4.4h.348L21 8.456l-7.2 4.152-7.2-4.152L13.62 4.4zm8.4 14.544L15 23v-8.304l7.2-4.164v8.112l-.18.3z"/></svg>