<?xml version="1.0" encoding="UTF-8"?>
<svg width="16px" height="16px" viewBox="0 0 16 16" version="1.1" xmlns="http://www.w3.org/2000/svg" xmlns:xlink="http://www.w3.org/1999/xlink">
    <!-- Generator: Sketch 64 (93537) - https://sketch.com -->
    <title>切片</title>
    <desc>Created with Sketch.</desc>
    <g id="指标平台" stroke="none" stroke-width="1" fill="none" fill-rule="evenodd">
        <g id="画板" transform="translate(-120.000000, -440.000000)" fill-rule="nonzero">
            <g id="icon/导航/任务备份-3" transform="translate(120.000000, 440.000000)">
                <g id="icon/导航/任务">
                    <rect id="矩形" fill="#FFFFFF" opacity="0.01" x="0" y="0" width="16" height="16"></rect>
                    <path d="M12.15,0.978109328 L12.15,1.12810933 L12.15,2.31044266 L14.8166667,2.31144266 L14.8166667,2.46144266 L14.8166667,14.8218034 L14.8166667,14.9718034 L1.18333333,14.9718034 L1.18333333,14.8218034 L1.18333333,2.46144266 L1.18333333,2.31144266 L3.85,2.31044266 L3.85,1.12810933 L3.85,0.978109328 L12.15,0.978109328 Z M3.85,3.94444266 L2.816,3.94444266 L2.816,13.3374701 L13.183,13.3374701 L13.183,3.94444266 L12.15,3.94444266 L12.15,5.12810933 L12.15,5.27810933 L3.85,5.27810933 L3.85,5.12810933 L3.85,3.94444266 Z M9.48333333,9.85 L9.48333333,10 L9.48333333,11.3333333 L9.48333333,11.4833333 L6.35370569,11.4833333 L6.35370569,11.3333333 L6.35370569,10 L6.35370569,9.85 L9.48333333,9.85 Z M12.15,7.18333333 L12.15,7.33333333 L12.15,8.66666667 L12.15,8.81666667 L6.35370569,8.81666667 L6.35370569,8.66666667 L6.35370569,7.33333333 L6.35370569,7.18333333 L12.15,7.18333333 Z M10.516,2.61044266 L5.483,2.61044266 L5.483,3.64444266 L10.516,3.64444266 L10.516,2.61044266 Z" id="形状" fill="#4B4B4B"></path>
                    <polygon id="路径" fill="#FCC53A" points="5.48333333 9.85 5.48333333 10 5.48333333 11.3333333 5.48333333 11.4833333 3.85 11.4833333 3.85 11.3333333 3.85 10 3.85 9.85"></polygon>
                    <polygon id="路径" fill="#FCC53A" points="5.48333333 7.18333333 5.48333333 7.33333333 5.48333333 8.66666667 5.48333333 8.81666667 3.85 8.81666667 3.85 8.66666667 3.85 7.33333333 3.85 7.18333333"></polygon>
                </g>
            </g>
        </g>
    </g>
</svg>