<?xml version="1.0" encoding="UTF-8"?>
<svg width="16px" height="16px" viewBox="0 0 16 16" version="1.1" xmlns="http://www.w3.org/2000/svg" xmlns:xlink="http://www.w3.org/1999/xlink">
    <!-- Generator: Sketch 64 (93537) - https://sketch.com -->
    <title>切片</title>
    <desc>Created with Sketch.</desc>
    <g id="指标中心" stroke="none" stroke-width="1" fill="none" fill-rule="evenodd">
        <g id="画板" transform="translate(-120.000000, -336.000000)" fill-rule="nonzero">
            <g id="icon/导航/策略备份" transform="translate(120.000000, 336.000000)">
                <g id="icon/导航/监测">
                    <rect id="矩形" fill="#FFFFFF" opacity="0.01" x="0" y="0" width="16" height="16"></rect>
                    <path d="M15.4666667,8.49141505 L15.4666667,15.4247484 L0.533333328,15.4247484 L0.533333328,8.49141505 L15.4666667,8.49141505 Z M13.8666667,10.0914151 L2.13333333,10.0914151 L2.13333333,13.8247484 L13.8666667,13.8247484 L13.8666667,10.0914151 Z M5,11 L5,13 L3.4,13 L3.4,11 L5,11 Z M8,11 L8,13 L6.4,13 L6.4,11 L8,11 Z M15.4666667,0.533333328 L15.4666667,7.46666667 L0.533333328,7.46666667 L0.533333328,0.533333328 L15.4666667,0.533333328 Z M13.8666667,2.13333333 L2.13333333,2.13333333 L2.13333333,5.86666667 L13.8666667,5.86666667 L13.8666667,2.13333333 Z" id="形状结合" fill="#4B4B4B"></path>
                    <polygon id="路径" fill="#FCC53A" points="3.4 3 5 3 5 5 3.4 5"></polygon>
                    <polygon id="路径备份" fill="#FCC53A" points="6.4 3 8 3 8 5 6.4 5"></polygon>
                </g>
            </g>
        </g>
    </g>
</svg>