<?xml version="1.0" encoding="UTF-8"?>
<svg width="16px" height="16px" viewBox="0 0 16 16" version="1.1" xmlns="http://www.w3.org/2000/svg" xmlns:xlink="http://www.w3.org/1999/xlink">
    <!-- Generator: Sketch 64 (93537) - https://sketch.com -->
    <title>切片</title>
    <desc>Created with Sketch.</desc>
    <g id="指标平台" stroke="none" stroke-width="1" fill="none" fill-rule="evenodd">
        <g id="画板" transform="translate(-56.000000, -496.000000)" fill-rule="nonzero">
            <g id="icon/导航/任务备份-4" transform="translate(56.000000, 496.000000)">
                <g id="icon/导航/统计">
                    <rect id="矩形" fill="#FFFFFF" opacity="0.01" x="0" y="0" width="16" height="16"></rect>
                    <path d="M5.30458063,1.53912433 C5.30458063,1.53912433 5.93345235,3.04753409 5.93345235,3.04753409 C3.93313418,3.87918068 2.63121525,5.83376367 2.6347673,7.99998473 C2.6347673,10.9582901 5.04147581,13.3647273 8.00146326,13.3647278 C10.1678577,13.3684318 12.1229335,12.0667971 12.9617784,10.0516466 C12.9617784,10.0516466 14.4618213,10.6961103 14.4618213,10.6961103 C13.41103,13.2244362 10.9844545,14.8977497 8.26493811,14.9954845 L8.00088097,15 L7.76543527,14.996097 C4.01336511,14.8715316 0.999900007,11.7811003 0.999900007,8.00053528 C0.99560339,5.17385442 2.69512716,2.6232306 5.30458063,1.53912433 Z M8.00001244,1 C11.8592669,1 15,4.140386 15,8 C15,8.41699186 14.6882055,8.7608173 14.2855104,8.81124611 L14.1830679,8.81761344 L8.00001244,8.81761344 C7.5836904,8.81761344 7.23986812,8.50585432 7.18943583,8.1025819 L7.18306788,7.99998473 L7.18306788,1.81762871 C7.18306788,1.36588396 7.5489969,1 8.00001244,1 Z M8.81599706,2.69856894 L8.81599706,7.18150087 L13.3018402,7.18150087 L13.289459,7.09897431 C12.9061374,4.8572954 11.1438696,3.09524577 8.90144996,2.71193189 L8.81599706,2.69856894 Z" id="形状" fill="#FFFFFF"></path>
                    <path d="M9.81718805,4.18380554 L9.81718805,6.18380554 L11.817188,6.18380554 L11.8116679,6.14698742 C11.6407651,5.14689242 10.8550632,4.36077759 9.85528697,4.18976724 L9.81718805,4.18380554 Z" id="路径" fill="#FCC53A"></path>
                </g>
            </g>
        </g>
    </g>
</svg>