<?xml version="1.0" encoding="UTF-8"?>
<svg width="16px" height="16px" viewBox="0 0 16 16" version="1.1" xmlns="http://www.w3.org/2000/svg" xmlns:xlink="http://www.w3.org/1999/xlink">
    <!-- Generator: Sketch 64 (93537) - https://sketch.com -->
    <title>切片</title>
    <desc>Created with Sketch.</desc>
    <g id="指标中心" stroke="none" stroke-width="1" fill="none" fill-rule="evenodd">
        <g id="画板" transform="translate(-56.000000, -400.000000)" fill-rule="nonzero">
            <g id="icon/导航/任务" transform="translate(56.000000, 400.000000)">
                <g id="系统">
                    <rect id="矩形" fill="#FFFFFF" opacity="0.01" x="0" y="0" width="16" height="16"></rect>
                    <path d="M8.00364754,11 C6.349724,11 5.00364754,9.65392354 5.00364754,8 C5.00364754,6.34607646 6.349724,5 8.00364754,5 C9.65757108,5 11.0036475,6.34607646 11.0036475,8 C11.0036475,9.65392354 9.65757108,11 8.00364754,11 Z M6.2913739,8 C6.2913739,8.94366197 7.05998557,9.71227364 8.00364754,9.71227364 C8.94730951,9.71227364 9.71592118,8.94366197 9.71592118,8 C9.71592118,7.05633803 8.94730951,6.28772636 8.00364754,6.28772636 C7.05998557,6.28772636 6.2913739,7.05633803 6.2913739,8 Z" id="形状" fill="#FFCE00"></path>
                </g>
                <path d="M13.1783727,5.14298161 L14.4721227,3.83048161 L12.2033727,1.56173161 L10.9096227,2.85548161 C10.5164611,2.62907687 10.0965386,2.45270941 9.65962272,2.33048161 L9.65962272,0.499231619 L6.42837273,0.499231619 L6.42837273,2.33048161 C5.99145683,2.45270941 5.57153431,2.62907687 5.17837272,2.85548161 L3.86587272,1.56173161 L1.59712272,3.83048161 L2.89087272,5.12423161 C2.66745257,5.51886531 2.49124118,5.93841622 2.36587272,6.37423162 L0.534622723,6.37423162 L0.534622723,9.58673161 L2.36587272,9.58673161 L2.36587272,9.64923162 C2.43148637,9.86163107 2.50868535,10.070277 2.59712272,10.2742316 L2.59712272,10.3242316 C2.67159913,10.4992451 2.75504307,10.6703051 2.84712273,10.8367316 L1.59712272,12.1679816 L3.86587272,14.4367316 L5.15962272,13.1429816 C5.32604921,13.2350613 5.49710928,13.3185052 5.67212272,13.3929816 L5.72837272,13.3929816 C5.94846733,13.4872226 6.17384633,13.5686094 6.40337272,13.6367316 L6.40337272,15.4992316 L9.61587273,15.4992316 L9.61587273,13.6679816 C9.84539912,13.5998594 10.0707781,13.5184726 10.2908727,13.4242316 L10.3533727,13.4242316 C10.5283862,13.3497552 10.6994462,13.2663113 10.8658727,13.1742316 L12.1596227,14.4679816 L14.4283727,12.1992316 L13.1783727,10.8742316 C13.2704524,10.7078051 13.3538963,10.5367451 13.4283727,10.3617316 L13.4283727,10.3117316 C13.5168101,10.107777 13.5940091,9.89913107 13.6596227,9.68673162 L13.6596227,9.62423161 L15.5346227,9.62423161 L15.5346227,6.39298162 L13.7033727,6.39298162 C13.5780043,5.95716622 13.4017929,5.53761531 13.1783727,5.14298161 Z M3.52596336,8.03867158 C3.52467067,5.55431629 5.5369016,3.53893633 8.02125588,3.53634043 C10.5056102,3.53375451 12.5220404,5.54493302 12.5259392,8.0292856 C12.5277979,9.22397548 12.0545192,10.3703742 11.2104056,11.2158088 C10.366292,12.0612434 9.2206347,12.5363127 8.02594336,12.5363127 C5.54158773,12.5363127 3.52725854,10.5230269 3.52596336,8.03867158 Z" id="形状" fill="#FFFFFF"></path>
            </g>
        </g>
    </g>
</svg>