<svg width="20" height="20" xmlns="http://www.w3.org/2000/svg"><path opacity=".01" d="M0 0h20v20H0z"/><path d="M10.667 15.973l-1.621 1.826a.595.595 0 0 1-1.017-.22.614.614 0 0 1 .125-.594l1.8-2.027a.596.596 0 0 1 .446-.201h5.4c.265 0 .52-.107.707-.297a1.02 1.02 0 0 0 .293-.717V5.23a1.02 1.02 0 0 0-.293-.717.993.993 0 0 0-.707-.297H4.2a.993.993 0 0 0-.707.297 1.02 1.02 0 0 0-.293.717v8.513c0 .269.105.527.293.717.187.19.442.297.707.297h2.6c.331 0 .6.272.6.608a.604.604 0 0 1-.6.608H4.2c-1.215 0-2.2-.998-2.2-2.23V5.23C2 3.998 2.985 3 4.2 3h11.6c1.215 0 2.2.998 2.2 2.23v8.513c0 1.232-.985 2.23-2.2 2.23h-5.133zM13.6 7.257c.331 0 .6.272.6.608a.604.604 0 0 1-.6.608H6.4a.604.604 0 0 1-.6-.608c0-.336.269-.608.6-.608h7.2zM10 10.5c.331 0 .6.272.6.608a.604.604 0 0 1-.6.608H6.4a.604.604 0 0 1-.6-.608c0-.336.269-.608.6-.608H10z" opacity=".5"/></svg>