<svg xmlns="http://www.w3.org/2000/svg" xmlns:xlink="http://www.w3.org/1999/xlink" fill="none" version="1.1" width="16" height="16" viewBox="0 0 16 16"><defs><clipPath id="master_svg0_602_7690/1673_53713"><rect x="0" y="0" width="16" height="16" rx="0"/></clipPath></defs><g style="mix-blend-mode:passthrough" clip-path="url(#master_svg0_602_7690/1673_53713)"><g style="mix-blend-mode:passthrough"><g style="opacity:0.47999998927116394;mix-blend-mode:passthrough" transform="matrix(-1.8369701465288538e-16,1,-1,-1.8369701465288538e-16,9.333496093750002,-6.66650390625)"><path d="M20.6667,1.33349609375C21.0086,1.33349609375,21.290300000000002,1.59085609375,21.3288,1.92241509375L21.3333,2.00016309375L21.3333,6.66682609375C21.3333,7.36973609375,20.7894,7.94560609375,20.0995,7.99650609375L20,8.00016609375L9.33333,8.00016609375C8.630425,8.00016609375,8.0545566,7.45624609375,8.00365716,6.76633609375L8,6.66682609375L8,2.00262209375C8,1.63443209375,8.298477,1.33595535375,8.666667,1.33595535375C9.00856,1.33595535375,9.29034,1.59331509375,9.32885,1.9248750937499999L9.33333,2.00262209375L9.33333,6.66682609375L20,6.66682609375L20,2.00016309375C20,1.63197309375,20.2985,1.33349609375,20.6667,1.33349609375Z" fill-rule="evenodd" fill="#36A4FF" fill-opacity="1"/></g><g style="mix-blend-mode:passthrough"><path d="M9.333251953125,8.666623203124999L9.333251953125,10.666623203124999C9.333251953125,11.260553203125,8.615161953125,11.558003203125,8.195181953125001,11.138023203125L5.530245953125,8.473093203125L5.528513953125,8.471353203125C5.525953953125,8.468793203125,5.523418953125,8.466223203125,5.520909953125,8.463633203125C5.518581953125,8.461223203125,5.516276953125,8.458813203125,5.513992953125,8.456383203125C5.503015953125,8.444703203125,5.492636953125,8.432853203125,5.482749953125,8.420723203125C5.441626953125,8.370303203125001,5.408987353125,8.315273203124999,5.384832153125,8.257533203125C5.351608153125,8.178283203125,5.333251953125,8.091263203125,5.333251953125,7.9999632031250005C5.333251953125,7.910663203125,5.350807753125,7.825473203125,5.382656053125,7.7476432031249995C5.415197353125,7.667933203125,5.463816953125,7.593243203125001,5.528513953125,7.528553203125L8.195181953125001,4.861882203125C8.615161953125,4.441905203125,9.333251953125,4.739349803125,9.333251953125,5.333286203125L9.333251953125,7.333293203125001L13.999921953125,7.333293203125001C14.368111953125,7.333293203125001,14.666581953125,7.631773203125,14.666581953125,7.9999632031250005C14.666581953125,8.341853203125,14.409221953125,8.623633203125,14.077661953125,8.662143203125L13.999921953125,8.666623203124999L9.333251953125,8.666623203124999Z" fill-rule="evenodd" fill="#36A4FF" fill-opacity="1"/></g></g></g></svg>