<?xml version="1.0" encoding="UTF-8"?>
<svg width="56px" height="56px" viewBox="0 0 56 56" version="1.1" xmlns="http://www.w3.org/2000/svg" xmlns:xlink="http://www.w3.org/1999/xlink">
    <title>编组 8</title>
    <g id="语音视频会议" stroke="none" stroke-width="1" fill="none" fill-rule="evenodd">
        <g id="深色-会议-5" transform="translate(-888.000000, -642.000000)" fill-rule="nonzero">
            <g id="弹窗备份-4" transform="translate(736.000000, 316.000000)">
                <g id="编组-8" transform="translate(152.000000, 326.000000)">
                    <circle id="椭圆形" stroke="#FF4D4F" fill="#FF4D4F" cx="28" cy="28" r="27.5"></circle>
                    <g id="编组" transform="translate(28.000000, 29.000000) rotate(135.000000) translate(-28.000000, -29.000000) translate(16.000000, 17.000000)" fill="#FFFFFF">
                        <path d="M24,17.8933333 L24,22.6081333 C24,23.3081333 23.4588,23.8889333 22.7606667,23.9382667 C22.1774667,23.9794667 21.7017333,24 21.3333333,24 C9.5512,24 1.46466338e-13,14.4488 1.46466338e-13,2.66666667 C1.46466338e-13,2.29828 0.0206,1.82249333 0.0618,1.23933333 C0.11116,0.541173333 0.69192,-3.9819892e-14 1.39181333,-3.9819892e-14 L6.1068,-3.9819892e-14 C6.44904,-3.9819892e-14 6.73568,0.259226667 6.77004,0.599733333 C6.80089333,0.905426667 6.82957333,1.15085333 6.85609333,1.33602667 C7.1258,3.21962667 7.67670667,5.01248 8.46493333,6.67070667 C8.59145333,6.93686667 8.50894667,7.25545333 8.26913333,7.42674667 L5.3914,9.4824 C7.14336,13.5748 10.4252,16.8566667 14.5176,18.6086667 L16.5694667,15.7358667 C16.7429333,15.4932 17.0653333,15.4097333 17.3346667,15.5376 C18.9928,16.3252 20.7854667,16.8754667 22.6688,17.1445333 C22.8528,17.1709333 23.0966667,17.1993333 23.4002667,17.23 C23.7408,17.2644 24,17.5510667 24,17.8933333 Z" id="路径"></path>
                    </g>
                </g>
            </g>
        </g>
    </g>
</svg>