<?xml version="1.0" encoding="UTF-8"?>
<svg width="370px" height="230px" viewBox="0 0 370 230" version="1.1" xmlns="http://www.w3.org/2000/svg" xmlns:xlink="http://www.w3.org/1999/xlink">
    <title>暂无任何内容</title>
    <defs>
        <linearGradient x1="50%" y1="100%" x2="50%" y2="0%" id="linearGradient-1">
            <stop stop-color="#B4B8BF" stop-opacity="0" offset="0%"></stop>
            <stop stop-color="#B4B8BF" offset="100%"></stop>
        </linearGradient>
        <linearGradient x1="50%" y1="100%" x2="50%" y2="0%" id="linearGradient-2">
            <stop stop-color="#B4B8BF" stop-opacity="0" offset="0%"></stop>
            <stop stop-color="#B4B8BF" offset="100%"></stop>
        </linearGradient>
        <linearGradient x1="50%" y1="100%" x2="50%" y2="0%" id="linearGradient-3">
            <stop stop-color="#B4B8BF" stop-opacity="0" offset="0%"></stop>
            <stop stop-color="#B4B8BF" offset="100%"></stop>
        </linearGradient>
        <linearGradient x1="50%" y1="100%" x2="50%" y2="0%" id="linearGradient-4">
            <stop stop-color="#B4B8BF" stop-opacity="0" offset="0%"></stop>
            <stop stop-color="#B4B8BF" offset="100%"></stop>
        </linearGradient>
        <linearGradient x1="100%" y1="49.6149863%" x2="0%" y2="49.6527778%" id="linearGradient-5">
            <stop stop-color="#B4B8BF" stop-opacity="0" offset="0%"></stop>
            <stop stop-color="#B4B8BF" stop-opacity="0.911806468" offset="91.1806468%"></stop>
            <stop stop-color="#B4B8BF" offset="100%"></stop>
        </linearGradient>
        <linearGradient x1="50%" y1="0%" x2="50%" y2="100%" id="linearGradient-6">
            <stop stop-color="#DFE2E8" offset="0%"></stop>
            <stop stop-color="#C9CDD4" offset="100%"></stop>
        </linearGradient>
    </defs>
    <g id="人员" stroke="none" stroke-width="1" fill="none" fill-rule="evenodd">
        <g id="1-3-1确诊人员管控-查看详情-确诊" transform="translate(-1395.000000, -337.000000)">
            <g id="编组-10备份-2" transform="translate(1280.000000, 172.000000)">
                <g id="暂无任何内容" transform="translate(115.000000, 165.000000)">
                    <g id="背景" transform="translate(0.000000, 57.000000)">
                        <path d="M0,173 C45.8488684,153 107.515535,143 185,143 C262.484465,143 324.151132,153 370,173" id="路径-19" fill="url(#linearGradient-1)" opacity="0.16"></path>
                        <path d="M255.828571,89.8393242 L292.247568,53.640484 C296.370722,49.542255 303.029278,49.542255 307.152432,53.640484 L343.571429,89.8393242 L343.571429,89.8393242" id="路径-22备份-2" fill="url(#linearGradient-2)" opacity="0.16"></path>
                        <path d="M51.8,35.7255792 L80.290425,7.40738151 C84.4135789,3.30915248 91.0721354,3.30915248 95.1952893,7.40738151 L123.685714,35.7255792 L123.685714,35.7255792" id="路径-22" fill="url(#linearGradient-3)" opacity="0.16"></path>
                        <path d="M25.3714286,67.7735253 L44.3475678,48.9120985 C48.4707217,44.8138695 55.1292783,44.8138695 59.2524322,48.9120985 L78.2285714,67.7735253 L78.2285714,67.7735253" id="路径-22备份" fill="url(#linearGradient-4)" opacity="0.26"></path>
                    </g>
                    <ellipse id="投影" fill="url(#linearGradient-5)" opacity="0.16" cx="185" cy="216.5" rx="90" ry="7.5"></ellipse>
                    <path d="M106.347704,198.72587 C62.2621309,196.905354 41.7459842,192.080103 44.7992638,184.250115 C49.3791832,172.505134 264.545684,171.52278 294.42524,152.075067 C324.304796,132.627354 212.55085,113.382928 212.550291,96.7063159 C212.549919,85.5885748 239.840548,73.5950928 294.422179,60.7258699" id="路径-20" stroke="#E6E8ED" stroke-width="2" stroke-linecap="round" stroke-dasharray="7.4" transform="translate(172.002613, 129.725870) rotate(-4.000000) translate(-172.002613, -129.725870) "></path>
                    <g id="编组-2" transform="translate(302.756010, 37.828163) rotate(34.000000) translate(-302.756010, -37.828163) translate(275.666497, 10.471261)">
                        <path d="M50.0315465,50 L54.1790251,33.1404878 L19.5949351,1.30344303 C19.4928934,1.20950659 19.3340218,1.2160772 19.2400853,1.31811891 C19.1629585,1.40190058 19.1518598,1.52709206 19.2130443,1.6231356 L50.0315465,50 L50.0315465,50 Z" id="路径-17" fill="#C9CDD4" transform="translate(36.179025, 25.000000) scale(-1, 1) translate(-36.179025, -25.000000) "></path>
                        <polygon id="路径-14" fill="#B4B8BF" transform="translate(25.439884, 44.187722) scale(-1, 1) translate(-25.439884, -44.187722) " points="21.4398837 42.7054101 29.4398837 38.1877221 28.4920653 50.1877221"></polygon>
                        <path d="M0.176415124,0.833177486 C0.387257568,0.652922878 0.70430437,0.677719218 0.884558978,0.888561662 L0.884558978,0.888561662 L0.902,0.908805614 L53.5066617,23.2947005 C53.9095809,23.4661576 54.097218,23.9317816 53.9257609,24.3347009 C53.8530361,24.505602 53.7226214,24.645548 53.5572658,24.7301271 L36.141921,33.6380444 C36.048722,33.6857155 35.9357278,33.6705736 35.858368,33.6000464 L4.088,4.63580561 L32.5536178,37.9316188 C32.5552321,37.9335071 32.5568182,37.935419 32.5583756,37.9373541 C32.6466768,38.0538094 32.6248979,38.2113183 32.5143166,38.2950341 L32.5143166,38.2950341 L11.1203712,54.4913394 C10.9805544,54.5971878 10.817648,54.6684029 10.6450001,54.6991494 C10.0414601,54.8066328 9.46506176,54.4044994 9.35757842,53.8009594 L9.35757842,53.8009594 L0.00831266619,1.30300296 C-0.0229125864,1.12766705 0.0410474108,0.948906813 0.176415124,0.833177486 Z" id="形状结合" fill="#F0F2F5" transform="translate(27.000000, 27.713806) scale(-1, 1) translate(-27.000000, -27.713806) "></path>
                    </g>
                    <g id="信息主体" transform="translate(111.000000, 50.004574)">
                        <rect id="矩形" fill="#C9CDD4" x="0" y="65.2916667" width="148" height="88.76" rx="8.59354839"></rect>
                        <path d="M119.497805,8.01545237 C119.512688,8.09387456 119.526584,8.17248095 119.539489,8.25125285 L139.779621,131.79809 C140.614054,136.891512 137.235287,141.721358 132.164477,142.683708 L93.609,150 L30.123,150 L10.2203786,28.510668 C9.38594564,23.4172454 12.7647129,18.5873998 17.8355229,17.6250496 L108.376386,0.441991671 C113.538835,-0.537749932 118.518064,2.85300392 119.497805,8.01545237 Z" id="形状结合" fill="#DFE2E8"></path>
                        <path d="M27.5142857,12.0000004 L107,12.0000004 L107,12.0000004 L128,33.9954264 L128,132.485715 C128,137.74031 123.740309,142 118.485714,142 L27.5142857,142 C22.2596908,142 18,137.74031 18,132.485715 L18,21.5142861 C18,16.2596912 22.2596908,12.0000004 27.5142857,12.0000004 Z" id="矩形" fill="#F0F2F5"></path>
                        <rect id="矩形备份" fill="#D7DAE0" opacity="0.400000006" x="34" y="90.9954264" width="56" height="7" rx="3.5"></rect>
                        <rect id="矩形备份-2" fill="#D7DAE0" opacity="0.400000006" x="34" y="73.9954264" width="80" height="7" rx="3.5"></rect>
                        <polygon id="路径-10" fill="url(#linearGradient-6)" points="53 12 66.4804672 33.2297456 62.4619081 45.0382571 68.9978457 56.9459721 60.860408 82 82.7999301 50.9580013 76.5757372 38.4793829 83 23.855619 78.4248534 12"></polygon>
                        <path d="M107,12 L107,12.0233333 L128,34 L128,36 L111.450153,36.689577 C107.950126,36.8354114 104.994572,34.1163016 104.848738,30.6162752 C104.834553,30.2758352 104.847823,29.9348058 104.88842,29.5964975 L107,12 L107,12 Z" id="路径-23" fill="#D7DAE0"></path>
                        <path d="M107,12 L128,34 L113.342857,34 C109.839794,34 107,31.1602061 107,27.6571429 L107,12 L107,12 Z" id="路径-23" fill="#F5F7FA"></path>
                        <path d="M0,76.915 L142.914601,140.825033 C146.00829,142.208501 148,145.280965 148,148.669902 L148,157.081452 C148,161.827537 144.152537,165.675 139.406452,165.675 L8.59354839,165.675 C3.84746267,165.675 2.35758471e-15,161.827537 0,157.081452 L0,76.915 L0,76.915 Z" id="矩形" fill="#D7DAE0" transform="translate(74.000000, 121.295000) scale(-1, 1) translate(-74.000000, -121.295000) "></path>
                        <path d="M0,76.915 L142.914601,140.825033 C146.00829,142.208501 148,145.280965 148,148.669902 L148,157.081452 C148,161.827537 144.152537,165.675 139.406452,165.675 L8.59354839,165.675 C3.84746267,165.675 2.35758471e-15,161.827537 0,157.081452 L0,76.915 L0,76.915 Z" id="矩形" fill="#DFE2E8"></path>
                    </g>
                    <g id="飞纸" transform="translate(70.724369, 162.095615) rotate(42.000000) translate(-70.724369, -162.095615) translate(47.117330, 146.887322)">
                        <path d="M0,9.46385312 C3.00080199,17.6118041 7.08419617,23.3017294 12.2501825,26.5336289 C19.9991621,31.3814782 29.3836722,31.368679 36.1083183,27.3497703 C40.5914157,24.6704978 44.2933355,21.0668872 47.2140777,16.5389385 C42.3079525,17.234897 37.1469147,15.3980818 31.7309644,11.0284928 C26.315014,6.65890388 22.9791754,2.98273961 21.7234484,1.13686838e-13 C14.9634517,3.97768999 10.3130762,6.36202353 7.77232197,7.15300063 C5.23156777,7.94397774 2.64079378,8.7142619 0,9.46385312 Z" id="路径-8" fill="#F0F2F5"></path>
                        <path d="M25.9832343,18.9665382 C29.1143001,21.369603 32.6363053,22.344796 36.5492501,21.8921174 C40.4621949,21.4394387 44.0171374,19.6550457 47.2140777,16.5389385 C41.56101,23.9903035 36.39711,28.3161194 31.7223777,29.5163864 C27.0476455,30.7166534 22.8908368,30.7166534 19.2519517,29.5163864 C22.6975077,29.3194575 24.9412686,28.0035617 25.9832343,25.568699 C27.0252,23.1338363 27.0252,20.9331161 25.9832343,18.9665382 Z" id="路径-9" fill="#C9CDD4"></path>
                    </g>
                </g>
            </g>
        </g>
    </g>
</svg>