<svg xmlns="http://www.w3.org/2000/svg" xmlns:xlink="http://www.w3.org/1999/xlink" fill="none" version="1.1" width="160" height="146" viewBox="0 0 160 146"><defs><clipPath id="master_svg0_7145_003853"><rect x="0" y="0" width="160" height="146" rx="0"/></clipPath><linearGradient x1="1.209414005279541" y1="0.5" x2="-0.25044602155685425" y2="0.5" id="master_svg1_7143_89135"><stop offset="0%" stop-color="#B2CAF4" stop-opacity="0"/><stop offset="100%" stop-color="#81BAFF" stop-opacity="1"/></linearGradient><radialGradient cx="0" cy="0" r="1" gradientUnits="userSpaceOnUse" id="master_svg2_7143_89136" gradientTransform="translate(38.25 0) rotate(90) scale(21.5411514043808 41.54364913702011)"><stop offset="0%" stop-color="#0097FF" stop-opacity="0.47574642300605774"/><stop offset="99.91421103477478%" stop-color="#0A90ED" stop-opacity="0"/></radialGradient><radialGradient cx="0" cy="0" r="1" gradientUnits="userSpaceOnUse" id="master_svg3_7143_89136" gradientTransform="translate(26 86.90625) rotate(90) scale(19.585779029875994 53.339993953704834)"><stop offset="0%" stop-color="#0097FF" stop-opacity="0.47574642300605774"/><stop offset="99.91421103477478%" stop-color="#0A90ED" stop-opacity="0"/></radialGradient><radialGradient cx="0" cy="0" r="1" gradientUnits="userSpaceOnUse" id="master_svg4_7143_89136" gradientTransform="translate(73.99999618530273 80) rotate(90) scale(26.669998933351735 88.62644523151175)"><stop offset="0%" stop-color="#0097FF" stop-opacity="0.47574642300605774"/><stop offset="99.91421103477478%" stop-color="#0A90ED" stop-opacity="0"/></radialGradient><radialGradient cx="0" cy="0" r="1" gradientUnits="userSpaceOnUse" id="master_svg5_7143_89136" gradientTransform="translate(126 85.6875) rotate(90) scale(20.83593513816595 69.75229978561401)"><stop offset="0%" stop-color="#0097FF" stop-opacity="0.47574642300605774"/><stop offset="99.91421103477478%" stop-color="#0A90ED" stop-opacity="0"/></radialGradient><radialGradient cx="0" cy="0" r="1" gradientUnits="userSpaceOnUse" id="master_svg6_7143_89138" gradientTransform="translate(80.50189292430878 100.18615227937698) rotate(90) scale(42.14953294949373 86.74251708446535)"><stop offset="0%" stop-color="#0097FF" stop-opacity="0.7455695867538452"/><stop offset="99.91421103477478%" stop-color="#0A90ED" stop-opacity="0"/></radialGradient><radialGradient cx="0" cy="0" r="1" gradientUnits="userSpaceOnUse" id="master_svg7_7145_002228" gradientTransform="translate(52.41793857003506 103.58926788222516) rotate(90) scale(63.534069760287124 18.120761885309463)"><stop offset="0%" stop-color="#0097FF" stop-opacity="0.7455695867538452"/><stop offset="100%" stop-color="#056DB5" stop-opacity="1"/></radialGradient><radialGradient cx="0" cy="0" r="1" gradientUnits="userSpaceOnUse" id="master_svg8_7145_002620" gradientTransform="translate(52.41793857003506 105.04821518313611) rotate(90) scale(63.534069760287124 18.120761885309463)"><stop offset="0%" stop-color="#0097FF" stop-opacity="0.7455695867538452"/><stop offset="99.91421103477478%" stop-color="#0197FF" stop-opacity="0.30000001192092896"/></radialGradient><radialGradient cx="0" cy="0" r="1" gradientUnits="userSpaceOnUse" id="master_svg9_7145_001997" gradientTransform="translate(80.74418566485338 61.844677064943426) rotate(90) scale(21.825714979225424 51.09460988083081)"><stop offset="0%" stop-color="#0A90ED" stop-opacity="0"/><stop offset="99.91421103477478%" stop-color="#0097FF" stop-opacity="0.7455695867538452"/></radialGradient><radialGradient cx="0" cy="0" r="1" gradientUnits="userSpaceOnUse" id="master_svga_7145_001997" gradientTransform="translate(80.74418566485338 60.596431164942715) rotate(90) scale(19.606765378860395 51.0946098808308)"><stop offset="0%" stop-color="#0A90ED" stop-opacity="0"/><stop offset="99.91421103477478%" stop-color="#0097FF" stop-opacity="0.7455695867538452"/></radialGradient><radialGradient cx="0" cy="0" r="1" gradientUnits="userSpaceOnUse" id="master_svgb_7145_002228" gradientTransform="translate(123.17479161570202 103.1068401897187) rotate(90) scale(63.052060835026836 17.52664431314772)"><stop offset="0%" stop-color="#0097FF" stop-opacity="0.7455695867538452"/><stop offset="100%" stop-color="#056DB5" stop-opacity="1"/></radialGradient><radialGradient cx="0" cy="0" r="1" gradientUnits="userSpaceOnUse" id="master_svgc_7145_002620" gradientTransform="translate(123.14561298936053 104.24331696890977) rotate(90) scale(62.72987023109453 17.455347781021402)"><stop offset="0%" stop-color="#0097FF" stop-opacity="0.7455695867538452"/><stop offset="99.91421103477478%" stop-color="#0197FF" stop-opacity="0.30000001192092896"/></radialGradient><radialGradient cx="0" cy="0" r="1" gradientUnits="userSpaceOnUse" id="master_svgd_7145_001997" gradientTransform="translate(80.50189292430878 103.12921333312988) rotate(90) scale(39.09521896764636 86.74251708446536)"><stop offset="0%" stop-color="#0A90ED" stop-opacity="0"/><stop offset="99.91421103477478%" stop-color="#0097FF" stop-opacity="0.7455695867538452"/></radialGradient><mask id="master_svge_7145_003886"><g><path d="M116.00188446044922,64.00002861022949L116.00188446044922,93.95622861022949C116.00188446044922,95.63732861022949,114.29488446044923,97.00002861022949,112.18928446044922,97.00002861022949L48.81448446044922,97.00002861022949C46.70884446044922,97.00002861022949,45.00188446044922,95.63732861022949,45.00188446044922,93.95622861022949L45.00188446044922,64.00002861022949L74.05838446044922,64.00002861022949C74.05838446044922,66.8517686102295,76.94328446044922,69.16355861022949,80.50188446044922,69.16355861022949C84.06048446044922,69.16355861022949,86.94538446044922,66.8517686102295,86.94538446044922,64.00002861022949L116.00188446044922,64.00002861022949Z" fill="#FFFFFF" fill-opacity="1"/></g></mask><linearGradient x1="0.5" y1="0.004407728090882301" x2="0.5" y2="0.9853898286819458" id="master_svgf_7143_89141"><stop offset="0%" stop-color="#6AA2FF" stop-opacity="0.4301484525203705"/><stop offset="100%" stop-color="#78BBFF" stop-opacity="0.5250312685966492"/></linearGradient><radialGradient cx="0" cy="0" r="1" gradientUnits="userSpaceOnUse" id="master_svgg_7145_002396" gradientTransform="translate(80.98797842490853 88.74717441777705) rotate(90) scale(11.51912618501843 33.86503017940555)"><stop offset="0%" stop-color="#0097FF" stop-opacity="0.7455695867538452"/><stop offset="99.91421103477478%" stop-color="#FFFFFF" stop-opacity="0.75"/></radialGradient><radialGradient cx="0" cy="0" r="1" gradientUnits="userSpaceOnUse" id="master_svgh_7143_89138" gradientTransform="translate(80.98797842490853 87.62418696405246) rotate(90) scale(10.694599827163996 33.86503017940555)"><stop offset="0%" stop-color="#0097FF" stop-opacity="0.7455695867538452"/><stop offset="99.91421103477478%" stop-color="#0A90ED" stop-opacity="0"/></radialGradient><filter id="master_svgi_7145_003895" filterUnits="objectBoundingBox" color-interpolation-filters="sRGB" x="-24" y="-24" width="72" height="72"><feFlood flood-opacity="0" result="BackgroundImageFix"/><feBlend mode="normal" in="SourceGraphic" in2="BackgroundImageFix" result="shape"/><feGaussianBlur stdDeviation="6" result="effect1_foregroundBlur"/></filter><linearGradient x1="0" y1="0.5" x2="1" y2="0.5" id="master_svgj_7143_89137"><stop offset="0%" stop-color="#0083FF" stop-opacity="0.25"/><stop offset="100%" stop-color="#0094FF" stop-opacity="0.25"/></linearGradient><radialGradient cx="0" cy="0" r="1" gradientUnits="userSpaceOnUse" id="master_svgk_7143_89145" gradientTransform="translate(79 105) rotate(90) scale(24 24)"><stop offset="0%" stop-color="#0097FF" stop-opacity="0.7455695867538452"/><stop offset="50.06604790687561%" stop-color="#6EC3FF" stop-opacity="0.37197187542915344"/><stop offset="99.91421103477478%" stop-color="#0A90ED" stop-opacity="0"/></radialGradient><linearGradient x1="0.5" y1="1" x2="0.5" y2="0" id="master_svgl_7143_89146"><stop offset="0%" stop-color="#026CC0" stop-opacity="1"/><stop offset="100%" stop-color="#026CC0" stop-opacity="0"/></linearGradient><radialGradient cx="0" cy="0" r="1" gradientUnits="userSpaceOnUse" id="master_svgm_7143_89152" gradientTransform="translate(85.55301666259766 91) rotate(180) scale(53.748817443847656 78.18009810014205)"><stop offset="0%" stop-color="#FFFFFF" stop-opacity="1"/><stop offset="100%" stop-color="#00D9FF" stop-opacity="0.5063715577125549"/></radialGradient><radialGradient cx="0" cy="0" r="1" gradientUnits="userSpaceOnUse" id="master_svgn_7143_89152" gradientTransform="translate(74.2153080701828 91) rotate(180) scale(36.112486720085144 35.29174838553776)"><stop offset="0%" stop-color="#FFFFFF" stop-opacity="1"/><stop offset="100%" stop-color="#00D9FF" stop-opacity="0.5063715577125549"/></radialGradient><filter id="master_svgo_7145_003939" filterUnits="objectBoundingBox" color-interpolation-filters="sRGB" x="-4" y="-4" width="46" height="10"><feFlood flood-opacity="0" result="BackgroundImageFix"/><feBlend mode="normal" in="SourceGraphic" in2="BackgroundImageFix" result="shape"/><feGaussianBlur stdDeviation="1" result="effect1_foregroundBlur"/></filter></defs><g><g clip-path="url(#master_svg0_7145_003853)"><g><g><g><g><g><g style="opacity:0.3309849202632904;mix-blend-mode:multiply"><g style="mix-blend-mode:multiply"><ellipse cx="80" cy="115.25" rx="27.5" ry="2.75" fill="url(#master_svg1_7143_89135)" fill-opacity="1" style="mix-blend-mode:multiply"/></g></g><g style="opacity:0.699999988079071;"><g><path d="M27.25,21C27.0201,21,26.793599999999998,20.9852,26.5715,20.9566C26.3018,20.9854,26.0276,21,25.75,21C21.46979,21,18,17.5302,18,13.25C18,8.9698,21.46979,5.5,25.75,5.5C26.243000000000002,5.5,26.7253,5.54605,27.19275,5.63405C28.947499999999998,2.28518,32.4569,0,36.5,0C42.299,0,47,4.70101,47,10.5L53.25,10.5C56.1495,10.5,58.5,12.8505,58.5,15.75C58.5,18.6495,56.1495,21,53.25,21L27.25,21Z" fill-rule="evenodd" fill="url(#master_svg2_7143_89136)" fill-opacity="1"/></g></g><g><g><path d="M0,106.00005C8.6867,93.27085,16.9813,86.90625,24.8837,86.90625C32.7862,86.90625,41.8249,93.27085,52,106.00005L0,106.00005Z" fill-rule="evenodd" fill="url(#master_svg3_7143_89136)" fill-opacity="1"/></g><g><path d="M30.799999237060547,106C39.96589923706055,88.66665,49.77489923706055,80.00000190735,60.22709923706054,80.00000190735C70.67929923706055,80.00000190735,89.66999923706055,88.66665,117.19999923706055,106L30.799999237060547,106Z" fill-rule="evenodd" fill="url(#master_svg4_7143_89136)" fill-opacity="1"/></g><g><path d="M160,106C150.429,92.45835,141.4018,85.6875,132.91910000000001,85.6875C124.4362,85.6875,110.79650000000001,92.45835,92,106L160,106Z" fill-rule="evenodd" fill="url(#master_svg5_7143_89136)" fill-opacity="1"/></g></g></g><g><g><g><g><path d="" fill="#0019FF" fill-opacity="0"/></g></g><g><g><g><path d="M60.00188446044922,58L101.50188446044922,58L116.00188446044922,92L45.00188446044922,92.5L60.00188446044922,58Z" fill="url(#master_svg6_7143_89138)" fill-opacity="1"/></g><g><path d="M45.30070646044922,63.265L59.833984460449216,40L59.833984460449216,57.7451L45.00188452431012,92.0036L45.00188452431012,64.3106C45.00188452431012,63.940200000000004,45.10555646044922,63.5774,45.30070646044922,63.265Z" fill="url(#master_svg7_7145_002228)" fill-opacity="1"/></g><g><path d="M45.30070646044922,64.72394730091095L59.833984460449216,41.45894730091095L59.833984460449216,59.20404730091095L45.00188446044922,93.46254730091096L45.00188446044922,65.76954730091094C45.00188446044922,65.39914730091095,45.10555646044922,65.03634730091095,45.30070646044922,64.72394730091095Z" fill="url(#master_svg8_7145_002620)" fill-opacity="1"/></g><g><rect x="59.833343505859375" y="40" width="41.82167434692383" height="17.864662170410156" rx="0" fill="url(#master_svg9_7145_001997)" fill-opacity="1"/></g><g><rect x="59.833343505859375" y="40.97263151407242" width="41.82167434692383" height="16.048419952392578" rx="0" fill="url(#master_svga_7145_001997)" fill-opacity="1"/></g><g transform="matrix(-1,0,0,1,232.00376892089844,0)"><path d="M116.29308146044922,62.8749L130.34768446044922,40L130.34768446044922,57.7451L116.00188446044922,91.60900000000001L116.00188446044922,63.9082C116.00188446044922,63.542699999999996,116.10280746044921,63.1846,116.29308146044922,62.8749Z" fill="url(#master_svgb_7145_002228)" fill-opacity="1"/></g><g transform="matrix(-1,0,0,1,232.00376892089844,0)"><path d="M116.29641146044922,64.06814730091095L130.2893844604492,41.45894730091095L130.2893844604492,59.20404730091095L116.00188446044922,92.80424730091096L116.00188446044922,65.10694730091095C116.00188446044922,64.73924730091095,116.10400746044922,64.37904730091095,116.29641146044922,64.06814730091095Z" fill="url(#master_svgc_7145_002620)" fill-opacity="1"/></g><g><g><g><path d="M116.00188446044922,64.00002861022949L116.00188446044922,93.0485286102295C116.00188446044922,94.6786286102295,114.29488446044923,96.00002861022949,112.18928446044922,96.00002861022949L48.81448446044922,96.00002861022949C46.70884446044922,96.00002861022949,45.00188446044922,94.6786286102295,45.00188446044922,93.0485286102295L45.00188446044922,64.00002861022949L74.05838446044922,64.00002861022949C74.05838446044922,66.7653486102295,76.94328446044922,69.00708861022949,80.50188446044922,69.00708861022949C84.06048446044922,69.00708861022949,86.94538446044922,66.7653486102295,86.94538446044922,64.00002861022949L116.00188446044922,64.00002861022949Z" fill="url(#master_svgd_7145_001997)" fill-opacity="1"/></g></g><g><g mask="url(#master_svge_7145_003886)"><g><path d="M116.00188446044922,65.00002861022949L116.00188446044922,92.9401286102295C116.00188446044922,94.63002861022949,114.29488446044923,96.00002861022949,112.18928446044922,96.00002861022949L48.81448446044922,96.00002861022949C46.70884446044922,96.00002861022949,45.00188446044922,94.63002861022949,45.00188446044922,92.9401286102295L45.00188446044922,65.00002861022949L74.05838446044922,65.00002861022949C74.05838446044922,67.86691861022949,76.94328446044922,70.19099861022949,80.50188446044922,70.19099861022949C84.06048446044922,70.19099861022949,86.94538446044922,67.86691861022949,86.94538446044922,65.00002861022949L116.00188446044922,65.00002861022949Z" fill="url(#master_svgf_7143_89141)" fill-opacity="1"/></g></g></g></g><g><g><path d="M71.74830755981445,77.2180404663086L90.22766755981445,77.2180404663086C92.77906755981445,77.2180404663086,94.84746755981445,79.32870046630859,94.84746755981445,81.9323304663086C94.84746755981445,84.53595046630859,92.77906755981445,86.6466104663086,90.22766755981445,86.6466104663086L71.74830755981445,86.6466104663086C69.19683755981445,86.6466104663086,67.12846755981445,84.53595046630859,67.12846755981445,81.9323304663086C67.12846755981445,79.32870046630859,69.19683755981445,77.2180404663086,71.74830755981445,77.2180404663086Z" fill="url(#master_svgg_7145_002396)" fill-opacity="1"/></g></g><g><g><path d="M71.41761755981446,76.92029571533203L90.55836755981446,76.92029571533203C92.92716755981445,76.92029571533203,94.84746755981445,78.87987571533203,94.84746755981445,81.29713571533203C94.84746755981445,83.71440571533203,92.92716755981445,85.67397571533203,90.55836755981446,85.67397571533203L71.41761755981446,85.67397571533203C69.04878755981446,85.67397571533203,67.12846755981445,83.71440571533203,67.12846755981445,81.29713571533203C67.12846755981445,78.87987571533203,69.04878755981446,76.92029571533203,71.41761755981446,76.92029571533203Z" fill="url(#master_svgh_7143_89138)" fill-opacity="1"/></g></g><g><ellipse cx="80.74505305290222" cy="81.23759245872498" rx="2.431492567062378" ry="2.4812028408050537" fill="#D6F2FF" fill-opacity="1"/></g><g><ellipse cx="80.74505305290222" cy="81.72390913963318" rx="2.431492567062378" ry="2.4812028408050537" fill="#82C3FF" fill-opacity="1"/></g></g></g></g></g></g><g><g filter="url(#master_svgi_7145_003895)"><g><ellipse cx="79" cy="93" rx="12" ry="12" fill="url(#master_svgj_7143_89137)" fill-opacity="1"/></g><g><ellipse cx="79" cy="93" rx="12" ry="12" fill="url(#master_svgk_7143_89145)" fill-opacity="1"/></g><g><ellipse cx="79" cy="93" rx="11.5" ry="11.5" stroke="url(#master_svgl_7143_89146)" fill-opacity="0" fill="none" stroke-width="1"/></g></g><g><g><g><path d="" fill="#D8D8D8" fill-opacity="1"/></g><g><path d="" fill="#D8D8D8" fill-opacity="1"/></g></g><g><g><path d="" fill="url(#master_svgm_7143_89152)" fill-opacity="1"/></g><g><path d="" fill="url(#master_svgn_7143_89152)" fill-opacity="1"/></g></g><g><g><path d="" fill="#D8D8D8" fill-opacity="1"/></g><g><path d="M57.01562,131.46833C56.27604,131.53083,55.49479,131.59333,54.66146,131.65583L54.66146,130.39541L57.15625,130.39541L57.15625,129.4475L54.66146,129.4475L54.66146,128.39541L53.604169999999996,128.39541L53.604169999999996,129.4475L51.75,129.4475C52.15104,128.92146,52.53125,128.31208,52.885419999999996,127.64021L57.270830000000004,127.64021L57.270830000000004,126.61937L53.364580000000004,126.61937C53.49479,126.32771,53.604169999999996,126.04125,53.71875,125.75479L52.56771,125.56208C52.4375,125.91104,52.291669999999996,126.26521,52.15104,126.61937L49.927083,126.61937L49.927083,127.64021L51.635419999999996,127.64021C51.25521,128.36416,50.82292,128.96833,50.375,129.48396L50.63021,130.39541L53.604169999999996,130.39541L53.604169999999996,131.72354C52.51562,131.78604,51.34896,131.83291,50.13542,131.89541L50.27604,132.9215C51.427080000000004,132.859,52.552080000000004,132.7756,53.604169999999996,132.7131L53.604169999999996,133.8642L54.66146,133.8642L54.66146,132.635C55.479169999999996,132.5517,56.260419999999996,132.4735,57.01562,132.411L57.01562,131.46833ZM59.2552,130.41104L61.3333,130.41104L61.3333,133.8798L62.4375,133.8798L62.4375,130.41104L64.1354,130.41104L64.1354,129.40062L59.3333,129.40062L59.3333,127.73916C61.0625,127.54646,62.5,127.17666,63.6875,126.66625L62.9531,125.80166C61.8281,126.31208,60.260400000000004,126.66625,58.27604,126.85896L58.27604,129.36937C58.24479,130.81208,57.864580000000004,132.0412,57.15625,133.0829L57.958330000000004,133.9162C58.645830000000004,132.9215,59.0781,131.75479,59.2552,130.41104ZM62.3438,134.3485L51.84375,134.3485L51.84375,140.3642L53.03125,140.3642L53.03125,139.7392L61.1562,139.7392L61.1562,140.3642L62.3438,140.3642L62.3438,134.3485ZM53.03125,138.74439999999998L53.03125,137.4996L61.1562,137.4996L61.1562,138.74439999999998L53.03125,138.74439999999998ZM53.03125,136.5725L53.03125,135.3225L61.1562,135.3225L61.1562,136.5725L53.03125,136.5725ZM67.125,126.55166L67.125,127.67146L71.7188,127.67146L71.7188,128.74437C71.7031,129.73916,71.6354,130.68187,71.5104,131.54646L66.0521,131.54646L66.0521,132.6506L71.3177,132.6506C71.1094,133.6558,70.8229,134.5725,70.4375,135.3694C69.5729,137.0048,68.0521,138.2965,65.8438,139.2912L66.4844,140.3173C68.70830000000001,139.3537,70.3073,137.9944,71.3021,136.2652C71.8438,135.2444,72.2448,134.0412,72.5,132.6506L73.7969,132.6506L73.7969,138.4735C73.7969,139.5621,74.3125,140.109,75.3646,140.109L77.95830000000001,140.109C78.6302,140.109,79.1094,139.9631,79.41669999999999,139.6767C79.7656,139.3225,80.0052,138.3798,80.1354,136.8121L79.0469,136.4579C78.9688,137.7079,78.8229,138.4423,78.599,138.6975C78.4219,138.9058,78.1354,139.0204,77.75,139.0204L75.7188,139.0204C75.20830000000001,139.0204,74.9479,138.74439999999998,74.9479,138.234L74.9479,132.6506L79.9115,132.6506L79.9115,131.54646L72.6771,131.54646C72.79169999999999,130.68187,72.85419999999999,129.73916,72.8854,128.74437L72.8854,127.67146L78.6146,127.67146L78.6146,126.55166L67.125,126.55166ZM88.9479,132.2496C90.4531,133.786,91.6875,135.2444,92.6146,136.6194L93.47919999999999,135.7392C92.3438,134.2183,90.9479,132.6662,89.28649999999999,131.09854C89.41669999999999,130.56729,89.5104,129.99437,89.58850000000001,129.385L94.16669999999999,129.385L94.16669999999999,138.3121C94.16669999999999,138.8277,93.91149999999999,139.0985,93.40100000000001,139.0985L90.9479,139.036L91.27080000000001,140.1871L93.7812,140.1871C94.8073,140.1871,95.33330000000001,139.6402,95.33330000000001,138.5725L95.33330000000001,128.26521L89.7188,128.26521C89.7812,127.46312,89.8281,126.58812,89.8281,125.64021L88.66149999999999,125.64021C88.66149999999999,126.56729,88.6146,127.4475,88.53649999999999,128.26521L82.6771,128.26521L82.6771,140.3485L83.8438,140.3485L83.8438,129.385L88.4062,129.385C88.29169999999999,130.11937,88.15100000000001,130.79646,87.97399999999999,131.41625C87.39580000000001,133.1923,86.21350000000001,134.6662,84.4219,135.8485L85.1875,136.7965C87.0469,135.5777,88.29169999999999,134.0725,88.9479,132.2496ZM105.1927,125.60896L103.95830000000001,125.81729C104.15100000000001,126.18708,104.3438,126.58812,104.53649999999999,127.03604L98.4531,127.03604L98.4531,129.96312L99.5729,129.96312L99.5729,128.10375L110.4219,128.10375L110.4219,129.87979L111.54169999999999,129.87979L111.54169999999999,127.03604L105.7344,127.03604C105.5573,126.50479,105.3802,126.02562,105.1927,125.60896ZM104.58330000000001,130.72875C102.9844,132.4892,100.72399999999999,133.9006,97.7969,134.984L98.4062,135.9319C99.0781,135.6767,99.7344,135.4006,100.3906,135.0829L100.3906,140.3798L101.5104,140.3798L101.5104,139.7079L108.66149999999999,139.7079L108.66149999999999,140.3798L109.7656,140.3798L109.7656,135.1454C110.3125,135.4006,110.90100000000001,135.6558,111.54169999999999,135.9162L112.16669999999999,134.9683C109,133.7548,106.7604,132.3485,105.46350000000001,130.72875L104.58330000000001,130.72875ZM101.5104,138.6506L101.5104,136.0881L108.66149999999999,136.0881L108.66149999999999,138.6506L101.5104,138.6506ZM100.4219,135.0673C102.1979,134.1871,103.7344,133.0829,105.0156,131.73916C106.10419999999999,132.984,107.6406,134.1037,109.58850000000001,135.0673L100.4219,135.0673ZM106.8698,128.77562L106.1354,129.49958C108.16669999999999,130.56729,109.7656,131.57771,110.9323,132.536L111.7344,131.75479C110.4219,130.76,108.79169999999999,129.77041,106.8698,128.77562ZM103.0781,128.76C101.7344,129.87979,100.10419999999999,130.84333,98.15100000000001,131.67146L98.83850000000001,132.5725C100.8229,131.67146,102.4844,130.635,103.8438,129.4475L103.0781,128.76Z" fill="#D8D8D8" fill-opacity="1"/></g><g><path d="" fill="#D8D8D8" fill-opacity="1"/></g></g></g><g style="opacity:0.6802375316619873;" filter="url(#master_svgo_7145_003939)"><ellipse cx="82" cy="144" rx="19" ry="1" fill="#000000" fill-opacity="1"/></g></g></g></g></g></g></g></svg>