<svg xmlns="http://www.w3.org/2000/svg" xmlns:xlink="http://www.w3.org/1999/xlink" fill="none" version="1.1" width="160" height="146" viewBox="0 0 160 146"><defs><clipPath id="master_svg0_7145_004488"><rect x="0" y="0" width="160" height="146" rx="0"/></clipPath><linearGradient x1="1.209414005279541" y1="0.5" x2="-0.25044602155685425" y2="0.5" id="master_svg1_7143_89135"><stop offset="0%" stop-color="#B2CAF4" stop-opacity="0"/><stop offset="100%" stop-color="#81BAFF" stop-opacity="1"/></linearGradient><radialGradient cx="0" cy="0" r="1" gradientUnits="userSpaceOnUse" id="master_svg2_7143_89136" gradientTransform="translate(38.25 0) rotate(90) scale(21.5411514043808 41.54364913702011)"><stop offset="0%" stop-color="#0097FF" stop-opacity="0.47574642300605774"/><stop offset="99.91421103477478%" stop-color="#0A90ED" stop-opacity="0"/></radialGradient><radialGradient cx="0" cy="0" r="1" gradientUnits="userSpaceOnUse" id="master_svg3_7143_89136" gradientTransform="translate(26 86.90625) rotate(90) scale(19.585779029875994 53.339993953704834)"><stop offset="0%" stop-color="#0097FF" stop-opacity="0.47574642300605774"/><stop offset="99.91421103477478%" stop-color="#0A90ED" stop-opacity="0"/></radialGradient><radialGradient cx="0" cy="0" r="1" gradientUnits="userSpaceOnUse" id="master_svg4_7143_89136" gradientTransform="translate(73.99999618530273 80) rotate(90) scale(26.669998933351735 88.62644523151175)"><stop offset="0%" stop-color="#0097FF" stop-opacity="0.47574642300605774"/><stop offset="99.91421103477478%" stop-color="#0A90ED" stop-opacity="0"/></radialGradient><radialGradient cx="0" cy="0" r="1" gradientUnits="userSpaceOnUse" id="master_svg5_7143_89136" gradientTransform="translate(126 85.6875) rotate(90) scale(20.83593513816595 69.75229978561401)"><stop offset="0%" stop-color="#0097FF" stop-opacity="0.47574642300605774"/><stop offset="99.91421103477478%" stop-color="#0A90ED" stop-opacity="0"/></radialGradient><linearGradient x1="0" y1="0.5" x2="1" y2="0.5" id="master_svg6_7143_89137"><stop offset="0%" stop-color="#0083FF" stop-opacity="0.25"/><stop offset="100%" stop-color="#0094FF" stop-opacity="0.25"/></linearGradient><radialGradient cx="0" cy="0" r="1" gradientUnits="userSpaceOnUse" id="master_svg7_7143_89138" gradientTransform="translate(86.43267609298255 123.88959974443333) rotate(90) scale(97.80462751180491 75.911922314722)"><stop offset="0%" stop-color="#0097FF" stop-opacity="0.7455695867538452"/><stop offset="99.91421103477478%" stop-color="#0A90ED" stop-opacity="0"/></radialGradient><radialGradient cx="0" cy="0" r="1" gradientUnits="userSpaceOnUse" id="master_svg8_7143_89140" gradientTransform="translate(46.93257522583008 53.89850997924805) rotate(90) scale(53.500059555292864 17.299764517991207)"><stop offset="0%" stop-color="#0097FF" stop-opacity="0.47574642300605774"/><stop offset="99.91421103477478%" stop-color="#0A90ED" stop-opacity="0"/></radialGradient><linearGradient x1="0.5" y1="0.004407728090882301" x2="0.5" y2="0.9853898286819458" id="master_svg9_7143_89141"><stop offset="0%" stop-color="#6AA2FF" stop-opacity="0.4301484525203705"/><stop offset="100%" stop-color="#78BBFF" stop-opacity="0.5250312685966492"/></linearGradient><linearGradient x1="1" y1="2.762568473815918" x2="0.058734770864248276" y2="-3.5153534412384033" id="master_svga_7143_89142"><stop offset="0%" stop-color="#FFFFFF" stop-opacity="1"/><stop offset="100%" stop-color="#AED0FF" stop-opacity="1"/></linearGradient><radialGradient cx="0" cy="0" r="1" gradientUnits="userSpaceOnUse" id="master_svgb_7143_89140" gradientTransform="translate(46.93257522583008 53.89850997924805) rotate(90) scale(53.500055642291045 17.299764517991207)"><stop offset="0%" stop-color="#0097FF" stop-opacity="0.47574642300605774"/><stop offset="99.91421103477478%" stop-color="#0A90ED" stop-opacity="0"/></radialGradient><radialGradient cx="0" cy="0" r="1" gradientUnits="userSpaceOnUse" id="master_svgc_7143_89144" gradientTransform="translate(85.71452522277832 80.13914108276367) rotate(90) scale(31.879931620062507 31.879931620062507)"><stop offset="0%" stop-color="#FFFFFF" stop-opacity="0.47574642300605774"/><stop offset="99.91421103477478%" stop-color="#CAE9FF" stop-opacity="0"/></radialGradient><filter id="master_svgd_7145_004522" filterUnits="objectBoundingBox" color-interpolation-filters="sRGB" x="-24" y="-24" width="72" height="72"><feFlood flood-opacity="0" result="BackgroundImageFix"/><feBlend mode="normal" in="SourceGraphic" in2="BackgroundImageFix" result="shape"/><feGaussianBlur stdDeviation="6" result="effect1_foregroundBlur"/></filter><linearGradient x1="0" y1="0.5" x2="1" y2="0.5" id="master_svge_7143_89137"><stop offset="0%" stop-color="#0083FF" stop-opacity="0.25"/><stop offset="100%" stop-color="#0094FF" stop-opacity="0.25"/></linearGradient><radialGradient cx="0" cy="0" r="1" gradientUnits="userSpaceOnUse" id="master_svgf_7143_89145" gradientTransform="translate(79 105) rotate(90) scale(24 24)"><stop offset="0%" stop-color="#0097FF" stop-opacity="0.7455695867538452"/><stop offset="50.06604790687561%" stop-color="#6EC3FF" stop-opacity="0.37197187542915344"/><stop offset="99.91421103477478%" stop-color="#0A90ED" stop-opacity="0"/></radialGradient><linearGradient x1="0.5" y1="1" x2="0.5" y2="0" id="master_svgg_7143_89146"><stop offset="0%" stop-color="#026CC0" stop-opacity="1"/><stop offset="100%" stop-color="#026CC0" stop-opacity="0"/></linearGradient><radialGradient cx="0" cy="0" r="1" gradientUnits="userSpaceOnUse" id="master_svgh_7143_89152" gradientTransform="translate(85.55301666259766 91) rotate(180) scale(53.748817443847656 78.18009810014205)"><stop offset="0%" stop-color="#FFFFFF" stop-opacity="1"/><stop offset="100%" stop-color="#00D9FF" stop-opacity="0.5063715577125549"/></radialGradient><radialGradient cx="0" cy="0" r="1" gradientUnits="userSpaceOnUse" id="master_svgi_7143_89152" gradientTransform="translate(74.2153080701828 91) rotate(180) scale(36.112486720085144 35.29174838553776)"><stop offset="0%" stop-color="#FFFFFF" stop-opacity="1"/><stop offset="100%" stop-color="#00D9FF" stop-opacity="0.5063715577125549"/></radialGradient><filter id="master_svgj_7145_004566" filterUnits="objectBoundingBox" color-interpolation-filters="sRGB" x="-4" y="-4" width="46" height="10"><feFlood flood-opacity="0" result="BackgroundImageFix"/><feBlend mode="normal" in="SourceGraphic" in2="BackgroundImageFix" result="shape"/><feGaussianBlur stdDeviation="1" result="effect1_foregroundBlur"/></filter></defs><g clip-path="url(#master_svg0_7145_004488)"><g><g><g><g><g><g style="opacity:0.3309849202632904;mix-blend-mode:multiply"><g style="mix-blend-mode:multiply"><ellipse cx="80" cy="115.25" rx="27.5" ry="2.75" fill="url(#master_svg1_7143_89135)" fill-opacity="1" style="mix-blend-mode:multiply"/></g></g><g style="opacity:0.699999988079071;"><g><path d="M27.25,21C27.0201,21,26.793599999999998,20.9852,26.5715,20.9566C26.3018,20.9854,26.0276,21,25.75,21C21.46979,21,18,17.5302,18,13.25C18,8.9698,21.46979,5.5,25.75,5.5C26.243000000000002,5.5,26.7253,5.54605,27.19275,5.63405C28.947499999999998,2.28518,32.4569,0,36.5,0C42.299,0,47,4.70101,47,10.5L53.25,10.5C56.1495,10.5,58.5,12.8505,58.5,15.75C58.5,18.6495,56.1495,21,53.25,21L27.25,21Z" fill-rule="evenodd" fill="url(#master_svg2_7143_89136)" fill-opacity="1"/></g></g><g><g><path d="M0,106.00005C8.6867,93.27085,16.9813,86.90625,24.8837,86.90625C32.7862,86.90625,41.8249,93.27085,52,106.00005L0,106.00005Z" fill-rule="evenodd" fill="url(#master_svg3_7143_89136)" fill-opacity="1"/></g><g><path d="M30.799999237060547,106C39.96589923706055,88.66665,49.77489923706055,80.00000190735,60.22709923706054,80.00000190735C70.67929923706055,80.00000190735,89.66999923706055,88.66665,117.19999923706055,106L30.799999237060547,106Z" fill-rule="evenodd" fill="url(#master_svg4_7143_89136)" fill-opacity="1"/></g><g><path d="M160,106C150.429,92.45835,141.4018,85.6875,132.91910000000001,85.6875C124.4362,85.6875,110.79650000000001,92.45835,92,106L160,106Z" fill-rule="evenodd" fill="url(#master_svg5_7143_89136)" fill-opacity="1"/></g></g></g><g><g><g><g><path d="M65.36516761779785,26L107.50016761779784,26C113.02266761779785,26,117.50016761779784,30.47715,117.50016761779784,36L117.50016761779784,86.05449999999999C117.50016761779784,97.1005,108.54566761779785,106.0545,97.49996761779785,106.0545L55.36516761779785,106.0545L55.36516761779785,36C55.36516761779785,30.47715,59.84231761779785,26,65.36516761779785,26Z" fill-rule="evenodd" fill="url(#master_svg6_7143_89137)" fill-opacity="1"/></g><g><path d="M65.36516761779785,26L107.50016761779784,26C113.02266761779785,26,117.50016761779784,30.47715,117.50016761779784,36L117.50016761779784,86.05449999999999C117.50016761779784,97.1005,108.54566761779785,106.0545,97.49996761779785,106.0545L55.36516761779785,106.0545L55.36516761779785,36C55.36516761779785,30.47715,59.84231761779785,26,65.36516761779785,26Z" fill-rule="evenodd" fill="url(#master_svg7_7143_89138)" fill-opacity="1"/></g><g><path d="" fill="#0019FF" fill-opacity="0"/></g></g><g><path d="M48.5,53.89850997924805L55.3652,53.89850997924805L55.3652,106.05450997924805L48.5,106.05450997924805C42.97715,106.05450997924805,38.5,101.57750997924805,38.5,96.05470997924805L38.5,63.89850997924805C38.5,58.37565997924805,42.97715,53.89850997924805,48.5,53.89850997924805Z" fill-rule="evenodd" fill="url(#master_svg8_7143_89140)" fill-opacity="1"/></g><g><g><path d="M65.80337142944336,30.81441593170166L107.06177142944335,30.81441593170166C110.37537142944336,30.81441593170166,113.06187142944336,33.50070593170166,113.06187142944336,36.81441593170166L113.06187142944336,84.24041593170166C113.06187142944336,93.62891593170167,105.45067142944336,101.24041593170166,96.06177142944335,101.24041593170166L59.80337142944336,101.24041593170166L59.80337142944336,36.81441593170166C59.80337142944336,33.50070593170166,62.48966142944336,30.81441593170166,65.80337142944336,30.81441593170166Z" fill="url(#master_svg9_7143_89141)" fill-opacity="1"/></g></g><g style="opacity:0.5973307490348816;"><g><path d="M70.57694942871093,40.0840950012207L104.10503942871094,40.0840950012207C105.65613942871093,40.0840950012207,106.91343942871094,41.341465001220705,106.91343942871094,42.892505001220705C106.91343942871094,44.443545001220706,105.65613942871093,45.7009150012207,104.10503942871094,45.7009150012207L70.57694942871093,45.7009150012207C69.02590942871093,45.7009150012207,67.76853942871094,44.443545001220706,67.76853942871094,42.892505001220705C67.76853942871094,41.341465001220705,69.02590942871093,40.0840950012207,70.57694942871093,40.0840950012207ZM70.57694942871093,52.120095001220704L86.13033942871094,52.120095001220704C87.68143942871095,52.120095001220704,88.93873942871093,53.3774950012207,88.93873942871093,54.9285950012207C88.93873942871093,56.4795950012207,87.68143942871095,57.736995001220706,86.13033942871094,57.736995001220706L70.57694942871093,57.736995001220706C69.02590942871093,57.736995001220706,67.76853942871094,56.4795950012207,67.76853942871094,54.9285950012207C67.76853942871094,53.3774950012207,69.02590942871093,52.120095001220704,70.57694942871093,52.120095001220704Z" fill="url(#master_svga_7143_89142)" fill-opacity="1"/></g></g><g><g><path d="M48.5,53.89850997924805L55.3652,53.89850997924805L55.3652,97.62210997924805C55.3652,102.27930997924804,51.5898,106.05450997924805,46.9326,106.05450997924805C42.27539,106.05450997924805,38.5,102.27930997924804,38.5,97.62210997924805L38.5,63.89850997924805C38.5,58.37565997924805,42.97715,53.89850997924805,48.5,53.89850997924805Z" fill-rule="evenodd" fill="url(#master_svgb_7143_89140)" fill-opacity="1"/></g></g></g><g><g><path d="M105.88923860702515,66.40694686584473C98.30193860702515,58.82287686584473,86.00043860702515,58.82287686584473,78.41313860702515,66.40694686584473C70.82580860702515,73.99109686584472,70.82580860702515,86.28729686584472,78.41313860702515,93.87139686584473C86.00043860702515,101.45539686584473,98.30193860702515,101.45539686584473,105.88923860702515,93.87139686584473C113.47653860702515,86.28729686584472,113.47653860702515,73.99109686584472,105.88923860702515,66.40694686584473ZM81.16078860702515,91.12489686584473C75.09090860702514,85.05769686584472,75.09090860702514,75.22069686584473,81.16078860702515,69.15339686584473C87.23063860702514,63.086146865844725,97.07183860702514,63.086146865844725,103.14163860702514,69.15339686584473C109.21153860702515,75.22069686584473,109.21153860702515,85.05769686584472,103.14163860702514,91.12489686584473C97.07183860702514,97.19219686584472,87.23063860702514,97.19219686584472,81.16078860702515,91.12489686584473Z" fill-rule="evenodd" fill="#CAE3FF" fill-opacity="1"/></g><g><path d="M106.57619131958008,91.8115005493164L110.01057131958008,95.24400054931641L110.32347131958008,94.93159054931641C110.90962131958008,94.34656054931641,111.85902131958008,94.34652054931641,112.44522131958007,94.9315105493164L127.29737131958008,109.7759005493164C127.86027131958008,110.33770054931641,127.88307131958008,111.23550054931641,127.36587131958008,111.8247005493164L127.29837131958007,111.89680054931641Q127.29807131958007,111.8971005493164,127.29837131958007,111.89680054931641L123.92417131958008,115.26890054931641C123.33797131958008,115.8539005493164,122.38857131958008,115.85400054931641,121.80237131958008,115.2690005493164L106.95022131958008,100.42460054931641C106.38727131958008,99.8628005493164,106.36452131958008,98.9650505493164,106.88174131958007,98.37575054931641L106.94920131958008,98.3037505493164C106.94935131958007,98.30355054931641,106.94951131958008,98.30340054931641,106.94920131958008,98.3037505493164L107.26257131958008,97.99100054931641L103.82857131958008,94.55794054931641L106.57619131958008,91.8115005493164Z" fill-rule="evenodd" fill="#CAE3FF" fill-opacity="1"/></g><g transform="matrix(0.7071067690849304,-0.7071067690849304,0.7071067690849304,0.7071067690849304,-36.113146872269226,73.09342893554458)"><g><ellipse cx="85.71452522277832" cy="95.67866706848145" rx="15.539525985717773" ry="15.539525985717773" fill="url(#master_svgc_7143_89144)" fill-opacity="1"/></g></g></g></g></g><g><g filter="url(#master_svgd_7145_004522)"><g><ellipse cx="79" cy="93" rx="12" ry="12" fill="url(#master_svge_7143_89137)" fill-opacity="1"/></g><g><ellipse cx="79" cy="93" rx="12" ry="12" fill="url(#master_svgf_7143_89145)" fill-opacity="1"/></g><g><ellipse cx="79" cy="93" rx="11.5" ry="11.5" stroke="url(#master_svgg_7143_89146)" fill-opacity="0" fill="none" stroke-width="1"/></g></g><g><g><g><path d="" fill="#D8D8D8" fill-opacity="1"/></g><g><path d="" fill="#D8D8D8" fill-opacity="1"/></g></g><g><g><path d="" fill="url(#master_svgh_7143_89152)" fill-opacity="1"/></g><g><path d="" fill="url(#master_svgi_7143_89152)" fill-opacity="1"/></g></g><g><g><path d="" fill="#D8D8D8" fill-opacity="1"/></g><g><path d="M39.322919999999996,125.68708L39.322919999999996,126.72875L35.447919999999996,126.72875L35.447919999999996,127.67146L39.322919999999996,127.67146L39.322919999999996,128.74437L36.08854,128.74437L36.08854,129.67146L39.322919999999996,129.67146L39.322919999999996,130.76L35,130.76L35,131.72354L44.7969,131.72354L44.7969,130.76L40.427099999999996,130.76L40.427099999999996,129.67146L43.8177,129.67146L43.8177,128.74437L40.427099999999996,128.74437L40.427099999999996,127.67146L44.3958,127.67146L44.3958,126.72875L40.427099999999996,126.72875L40.427099999999996,125.68708L39.322919999999996,125.68708ZM37.322919999999996,135.7548L42.489599999999996,135.7548L42.489599999999996,136.9215L37.322919999999996,136.9215L37.322919999999996,135.7548ZM42.489599999999996,134.859L37.322919999999996,134.859L37.322919999999996,133.6767L42.489599999999996,133.6767L42.489599999999996,134.859ZM37.322919999999996,137.8173L42.489599999999996,137.8173L42.489599999999996,138.7287C42.489599999999996,139.0985,42.2812,139.2912,41.900999999999996,139.2912L40.6198,139.24439999999998L40.8906,140.2652L42.2344,140.2652C43.1302,140.2652,43.5938,139.8329,43.5938,138.9683L43.5938,132.7287L36.21875,132.7287L36.21875,140.3642L37.322919999999996,140.3642L37.322919999999996,137.8173ZM32.104169999999996,125.86416L31.29167,126.65062C32.44271,127.51521,33.354169999999996,128.32771,34.02604,129.09854L34.80729,128.29646C34.072919999999996,127.48396,33.177080000000004,126.66625,32.104169999999996,125.86416ZM30.171875,130.58812L30.171875,131.69229L32.458330000000004,131.69229L32.458330000000004,138.0412C32.458330000000004,138.3121,32.32812,138.55689999999998,32.08854,138.7808L32.53646,139.8017C33.53125,139.0829,34.489580000000004,138.2496,35.385419999999996,137.3225L35.083330000000004,136.109C34.53646,136.6662,34.041669999999996,137.161,33.5625,137.609L33.5625,130.58812L30.171875,130.58812ZM49.161500000000004,130.14021L49.161500000000004,132.5204L47.5781,132.5204C47.9792,131.49958,48.3438,130.32771,48.697900000000004,129.01521L51.786500000000004,129.01521L51.786500000000004,127.93187L48.9688,127.93187C49.114599999999996,127.29125,49.2552,126.60375,49.400999999999996,125.87979L48.3438,125.64021C48.2031,126.44229,48.0573,127.19229,47.8958,127.93187L46.3125,127.93187L46.3125,129.01521L47.6406,129.01521C47.275999999999996,130.44229,46.875,131.64021,46.427099999999996,132.6037L46.6667,133.5621L49.161500000000004,133.5621L49.161500000000004,135.9475C48.2344,136.1246,47.239599999999996,136.2808,46.1875,136.411L46.3281,137.5308C47.3073,137.385,48.25,137.2287,49.161500000000004,137.0517L49.161500000000004,140.3642L50.2344,140.3642L50.2344,136.8121L51.7552,136.4267L51.7552,135.3381C51.275999999999996,135.4683,50.775999999999996,135.5933,50.2344,135.7235L50.2344,133.5621L51.7083,133.5621L51.7083,132.5204L50.2344,132.5204L50.2344,130.14021L49.161500000000004,130.14021ZM53.8802,129.3225L53.8802,130.26521L58.474000000000004,130.26521L58.474000000000004,129.30687L53.8958,129.30687C54.697900000000004,128.53604,55.4688,127.68708,56.2344,126.76C57.447900000000004,128.32771,58.8125,129.65583,60.3125,130.74437L60.9219,129.83291C59.4688,128.81208,58.0417,127.4475,56.650999999999996,125.72354L55.8177,125.72354C54.5208,127.3225,53.052099999999996,128.72875,51.4167,129.93187L52.0417,130.89021C52.6667,130.41104,53.275999999999996,129.87979,53.8802,129.3225ZM55,140.2496C55.786500000000004,140.2496,56.1875,139.8329,56.1875,139.0204L56.1875,131.54646L52.411500000000004,131.54646L52.411500000000004,140.3642L53.4167,140.3642L53.4167,137.3694L55.2083,137.3694L55.2083,138.8121C55.2083,139.161,55.036500000000004,139.3381,54.6823,139.3381L53.9792,139.30689999999998L54.2344,140.2496L55,140.2496ZM53.4167,136.4735L53.4167,134.9527L55.2083,134.9527L55.2083,136.4735L53.4167,136.4735ZM53.4167,134.0569L53.4167,132.4735L55.2083,132.4735L55.2083,134.0569L53.4167,134.0569ZM57.1458,131.99437L57.1458,137.7392L58.0417,137.7392L58.0417,131.99437L57.1458,131.99437ZM58.8906,140.2808C59.6562,140.2808,60.0573,139.8173,60.0573,138.9058L60.0573,131.27562L59.052099999999996,131.27562L59.052099999999996,138.6506C59.052099999999996,139.0985,58.875,139.3381,58.536500000000004,139.3381C58.1406,139.3381,57.724000000000004,139.30689999999998,57.2917,139.2756L57.5312,140.2808L58.8906,140.2808ZM68.79169999999999,129.40062C67.77080000000001,133.6558,65.5469,136.9215,62.1198,139.161L62.8073,140.1402C66.1719,137.9631,68.3802,134.8277,69.4323,130.74437C69.5156,130.93708,69.5938,131.16104,69.6927,131.41625C71.33850000000001,135.6402,73.4479,138.55689999999998,76.04169999999999,140.1246L76.7604,139.1923C74.2344,137.609,72.2344,134.9058,70.72919999999999,131.08291C69.7396,128.48916,68.53649999999999,126.68187,67.1146,125.68708L66.1562,126.29646C67.1771,127.03604,68.0573,128.05687,68.79169999999999,129.40062ZM85.4479,132.2496C86.9531,133.786,88.1875,135.2444,89.1146,136.6194L89.97919999999999,135.7392C88.8438,134.2183,87.4479,132.6662,85.78649999999999,131.09854C85.91669999999999,130.56729,86.0104,129.99437,86.08850000000001,129.385L90.66669999999999,129.385L90.66669999999999,138.3121C90.66669999999999,138.8277,90.41149999999999,139.0985,89.90100000000001,139.0985L87.4479,139.036L87.77080000000001,140.1871L90.2812,140.1871C91.3073,140.1871,91.83330000000001,139.6402,91.83330000000001,138.5725L91.83330000000001,128.26521L86.2188,128.26521C86.2812,127.46312,86.3281,126.58812,86.3281,125.64021L85.16149999999999,125.64021C85.16149999999999,126.56729,85.1146,127.4475,85.03649999999999,128.26521L79.1771,128.26521L79.1771,140.3485L80.3438,140.3485L80.3438,129.385L84.9062,129.385C84.79169999999999,130.11937,84.65100000000001,130.79646,84.47399999999999,131.41625C83.89580000000001,133.1923,82.71350000000001,134.6662,80.9219,135.8485L81.6875,136.7965C83.5469,135.5777,84.79169999999999,134.0725,85.4479,132.2496ZM101.6927,125.60896L100.4583,125.81729C100.651,126.18708,100.8438,126.58812,101.0365,127.03604L94.9531,127.03604L94.9531,129.96312L96.0729,129.96312L96.0729,128.10375L106.9219,128.10375L106.9219,129.87979L108.0417,129.87979L108.0417,127.03604L102.2344,127.03604C102.0573,126.50479,101.8802,126.02562,101.6927,125.60896ZM101.0833,130.72875C99.4844,132.4892,97.224,133.9006,94.2969,134.984L94.9062,135.9319C95.5781,135.6767,96.2344,135.4006,96.8906,135.0829L96.8906,140.3798L98.0104,140.3798L98.0104,139.7079L105.1615,139.7079L105.1615,140.3798L106.2656,140.3798L106.2656,135.1454C106.8125,135.4006,107.401,135.6558,108.0417,135.9162L108.6667,134.9683C105.5,133.7548,103.2604,132.3485,101.9635,130.72875L101.0833,130.72875ZM98.0104,138.6506L98.0104,136.0881L105.1615,136.0881L105.1615,138.6506L98.0104,138.6506ZM96.9219,135.0673C98.6979,134.1871,100.2344,133.0829,101.5156,131.73916C102.6042,132.984,104.1406,134.1037,106.0885,135.0673L96.9219,135.0673ZM103.3698,128.77562L102.6354,129.49958C104.6667,130.56729,106.2656,131.57771,107.4323,132.536L108.2344,131.75479C106.9219,130.76,105.2917,129.77041,103.3698,128.77562ZM99.5781,128.76C98.2344,129.87979,96.6042,130.84333,94.651,131.67146L95.3385,132.5725C97.3229,131.67146,98.9844,130.635,100.3438,129.4475L99.5781,128.76ZM112.7448,131.69229L112.7448,137.5777L122.3125,137.5777L122.3125,131.69229L112.7448,131.69229ZM121.1927,136.5569L113.8646,136.5569L113.8646,135.1454L121.1927,135.1454L121.1927,136.5569ZM113.8646,134.1715L113.8646,132.7131L121.1927,132.7131L121.1927,134.1715L113.8646,134.1715ZM110.9531,127.12979L110.9531,128.18708L115.8958,128.18708C114.651,129.30687,112.7448,130.24958,110.1875,130.98396L110.7917,132.01C113.5938,130.99958,115.625,129.72354,116.875,128.18708L116.9688,128.18708L116.9688,131.17666L118.0885,131.17666L118.0885,128.18708L118.1875,128.18708C119.3698,129.75479,121.401,131.02041,124.2812,131.99437L124.7812,130.95271C122.25,130.28083,120.3958,129.35375,119.1927,128.18708L124.1042,128.18708L124.1042,127.12979L118.0885,127.12979L118.0885,125.65583L116.9688,125.65583L116.9688,127.12979L110.9531,127.12979ZM110.6354,138.8277L110.6354,139.9006L124.3802,139.9006L124.3802,138.8277L110.6354,138.8277ZM132.26600000000002,130.36416L132.26600000000002,137.6923L137.161,137.6923L137.161,130.36416L132.26600000000002,130.36416ZM136.07299999999998,136.6975L133.385,136.6975L133.385,134.4735L136.07299999999998,134.4735L136.07299999999998,136.6975ZM133.385,133.5152L133.385,131.35375L136.07299999999998,131.35375L136.07299999999998,133.5152L133.385,133.5152ZM133.32299999999998,125.64021C132.85899999999998,127.53083,131.964,129.11416,130.62,130.42666L131.339,131.35375C132.203,130.52041,132.906,129.56208,133.464,128.48916L139.13,128.48916C139.099,133.6767,139.036,136.7808,138.922,137.786C138.797,138.7287,138.365,139.2131,137.625,139.2131C137.161,139.2131,136.62,139.1767,135.97899999999998,139.1454L136.25,140.1871C136.969,140.2183,137.48399999999998,140.234,137.77100000000002,140.234C139.115,140.234,139.88,139.5621,140.042,138.234C140.188,136.859,140.26600000000002,133.2444,140.26600000000002,127.40062L133.964,127.40062C134.156,126.89021,134.328,126.35896,134.474,125.80166L133.32299999999998,125.64021ZM128.0885,125.84854L127.2917,126.635C128.4427,127.49958,129.3385,128.32771,130.01,129.11416L130.792,128.31208C130.05700000000002,127.48396,129.1458,126.66625,128.0885,125.84854ZM126.1719,130.58812L126.1719,131.69229L128.5208,131.69229L128.5208,138.05689999999998C128.5208,138.3121,128.3958,138.55689999999998,128.1719,138.76L128.6198,139.786C129.672,139.0673,130.667,138.2496,131.594,137.3225L131.276,136.109C130.68200000000002,136.6975,130.135,137.2287,129.625,137.6767L129.625,130.58812L126.1719,130.58812Z" fill="#D8D8D8" fill-opacity="1"/></g><g><path d="" fill="#D8D8D8" fill-opacity="1"/></g></g></g><g style="opacity:0.6802375316619873;" filter="url(#master_svgj_7145_004566)"><ellipse cx="82" cy="144" rx="19" ry="1" fill="#000000" fill-opacity="1"/></g></g></g></g></g></g></svg>