<?xml version="1.0" standalone="no"?><!DOCTYPE svg PUBLIC "-//W3C//DTD SVG 1.1//EN" "http://www.w3.org/Graphics/SVG/1.1/DTD/svg11.dtd"><svg t="1685066853693" class="icon" viewBox="0 0 1348 1024" version="1.1" xmlns="http://www.w3.org/2000/svg" p-id="2354" xmlns:xlink="http://www.w3.org/1999/xlink" width="13.1640625" height="10"><path d="M1225.585061 1020.683588H458.815547a11.335638 11.335638 0 0 1-11.301926-11.301925 11.335638 11.335638 0 0 1 11.301926-11.301926h766.200626a11.335638 11.335638 0 0 1 11.301925 11.301926c0 6.211424-4.521613 11.301926-10.733037 11.301925z m-861.129218 0h-176.861234a11.335638 11.335638 0 0 1-11.301926-11.301925 11.335638 11.335638 0 0 1 11.301926-11.301926h176.861234a11.335638 11.335638 0 0 1 11.301926 11.301926 11.335638 11.335638 0 0 1-11.301926 11.301925z m639.064494-80.807506h-176.861234a11.335638 11.335638 0 0 1-11.301926-11.301926 11.335638 11.335638 0 0 1 11.301926-11.297712h176.861234a11.335638 11.335638 0 0 1 11.301926 11.297712 11.335638 11.335638 0 0 1-11.301926 11.301926z m-234.491786 0h-51.419127a11.331424 11.331424 0 0 1-11.301926-11.301926 11.335638 11.335638 0 0 1 11.301926-11.297712h51.419127a11.335638 11.335638 0 0 1 11.297712 11.297712 11.335638 11.335638 0 0 1-11.297712 11.301926z m-118.097119 0H311.903152a11.335638 11.335638 0 0 1-11.297712-11.301926 11.335638 11.335638 0 0 1 11.297712-11.297712h339.02828a11.335638 11.335638 0 0 1 11.301926 11.297712 11.335638 11.335638 0 0 1-11.301926 11.301926z m682.573959-80.799078h-72.324741a11.335638 11.335638 0 0 1-11.301926-11.301926 11.335638 11.335638 0 0 1 11.301926-11.301926h72.324741a11.335638 11.335638 0 0 1 11.301926 11.301926 11.335638 11.335638 0 0 1-11.301926 11.301926z m-132.218206 0h-42.380115a11.335638 11.335638 0 0 1-11.301926-11.301926 11.335638 11.335638 0 0 1 11.301926-11.301926h42.380115a11.335638 11.335638 0 0 1 11.301926 11.301926 11.335638 11.335638 0 0 1-11.301926 11.301926z m-111.881482 0H75.725769a11.335638 11.335638 0 0 1-11.301926-11.301926 11.335638 11.335638 0 0 1 11.301926-11.301926H1089.401489a11.335638 11.335638 0 0 1 11.301926 11.301926 11.335638 11.335638 0 0 1-11.301926 11.301926z" fill="#B5BECF" p-id="2355"></path><path d="M1261.18065 242.616362a30.387095 30.387095 0 0 1-30.509301-30.517728 30.382881 30.382881 0 0 1 30.509301-30.509301 30.382881 30.382881 0 0 1 30.513514 30.509301 30.387095 30.387095 0 0 1-30.513514 30.517728z m0-55.38028c-13.560626 0-24.862551 11.301926-24.862552 24.862552 0 13.560626 11.301926 24.862551 24.862552 24.862551 13.560626 0 24.862551-11.301926 24.862551-24.862551 0-13.560626-10.737251-24.862551-24.862551-24.862552zM30.509638 676.00856A30.382881 30.382881 0 0 1 0.000337 645.495045a30.387095 30.387095 0 0 1 30.513515-30.517728 30.382881 30.382881 0 0 1 30.5093 30.513514 30.382881 30.382881 0 0 1-30.5093 30.509301z m0-55.371852c-13.560626 0-24.862551 11.297712-24.862552 24.862551 0 13.556412 11.301926 24.862551 24.862552 24.862552 13.560626 0 24.862551-11.30614 24.862551-24.862552 0-13.56484-10.737251-24.862551-24.862551-24.862551zM1008.606625 28.465514h-45.768164c-1.694025 0-2.827588-1.137778-2.827589-2.827588 0-1.694025 1.133564-2.827588 2.823375-2.827589h45.772378c1.694025 0 2.823374 1.133564 2.823375 2.823375 0 1.698239-1.694025 2.831802-2.823375 2.831802z" fill="#62708B" p-id="2356"></path><path d="M985.438098 51.625613c-1.694025 0-2.823374-1.125136-2.823374-2.823374V3.042502c0-1.698239 1.12935-2.831802 2.823374-2.831802s2.823374 1.137778 2.823375 2.827588v45.772379c0 1.694025-1.12935 2.823374-2.823375 2.823374zM182.508321 413.253531H136.74437c-1.698239 0-2.823374-1.125136-2.823374-2.823375 0-1.694025 1.125136-2.823374 2.823374-2.823374h45.763951c1.698239 0 2.823374 1.12935 2.823374 2.823374 0 1.698239-1.125136 2.823374-2.823374 2.823375z" fill="#62708B" p-id="2357"></path><path d="M159.908683 436.422058c-1.694025 0-2.823374-1.125136-2.823375-2.823375v-45.76395c0-1.702453 1.12935-2.827588 2.823375-2.827589 1.698239 0 2.823374 1.125136 2.823374 2.823375v45.76395c0 1.137778-1.694025 2.827588-2.823374 2.827589z" fill="#62708B" p-id="2358"></path><path d="M586.520568 119.99763h-2.262914c-6.215638-18.078025-23.164313-31.073975-42.940576-31.073976-19.780477 0-37.293827 12.991737-42.940576 31.073976h-1.702453a31.592296 31.592296 0 0 0-31.642864 31.642864 31.592296 31.592296 0 0 0 31.642864 31.642864h90.406979a31.588082 31.588082 0 0 0 31.642865-31.642864c0-17.51335-14.121086-31.642864-32.203325-31.642864z" fill="#B5BECF" p-id="2359"></path><path d="M586.520568 186.110947H496.113588c-19.215802 0-34.470453-15.25465-34.470453-34.470453 0-18.646914 15.25465-34.470453 33.901564-34.470453 7.349202-18.6427 24.862551-31.073975 45.20349-31.073975 20.345152 0 37.858502 12.431276 45.20349 31.073975h0.568889a34.247111 34.247111 0 0 1 34.462024 34.470453c0 19.215802-15.25465 34.470453-34.462024 34.470453z m-89.846519-63.285729c-15.819325 0-28.815276 12.995951-28.815276 28.815276s12.995951 28.815276 28.815276 28.815276h90.406979c15.823539 0 28.823704-12.995951 28.823704-28.815276s-13.000165-28.815276-28.823704-28.815276h-4.521613l-0.560461-1.694025c-5.655177-17.521778-22.039177-28.823704-40.681876-28.823703-18.651128 0-34.470453 11.870815-40.681877 28.823703l-0.568889 1.694025h-3.392263z" fill="#62708B" p-id="2360"></path><path d="M513.626938 180.45577h165.559309v5.655177h-165.559309v-5.655177z m179.684609 0h19.215802v5.655177h-19.215802v-5.655177z m90.971654 224.323423H350.895218c-15.823539 0-28.254815 12.431276-28.254815 28.254815v304.557827c0 15.823539 12.431276 28.250601 28.254815 28.250601h170.076708v43.509465h-48.026865c-3.392263 0-5.655177 2.2587-5.655177 5.655177v27.121251c0 3.388049 2.262914 5.646749 5.655177 5.646749h188.719408c3.396477 0 5.655177-2.2587 5.655177-5.646749v-27.121251c0-3.396477-2.2587-5.655177-5.655177-5.655177H613.641819v-43.509465h170.076707c15.819325 0 28.250601-12.431276 28.250601-28.250601v-304.557827c0.568889-15.819325-12.431276-28.254815-27.685926-28.254815z m-128.265481 431.133498h-176.861235v-15.823539h177.430124v15.819325h-0.568889z m-53.677827-26.56079h-70.066041v-43.509465h70.066041v43.509465z m198.896197-71.760066c0 9.607901-7.344988 16.948675-16.952889 16.948675H350.895218c-9.607901 0-16.952889-7.340774-16.952889-16.948675v-304.557827c0-9.607901 7.344988-16.952889 16.952889-16.952889h432.819094c9.607901 0 16.957103 7.349202 16.957103 16.952889v304.557827h0.564675z" fill="#62708B" p-id="2361"></path><path d="M767.894987 433.598683H367.283432a13.990453 13.990453 0 0 0-14.129515 14.125301v244.664362a13.990453 13.990453 0 0 0 14.129515 14.129514h400.051094a13.990453 13.990453 0 0 0 14.121087-14.129514v-244.664362c0.568889-7.344988-6.211424-14.1253-13.560626-14.125301z m8.478552 258.789663c0 4.521613-3.961152 8.474337-8.478552 8.474337H367.283432c-4.521613 0-8.478551-3.952724-8.478552-8.470123v-244.664362c0-4.525827 3.961152-8.478551 8.478552-8.478552h400.051094c4.521613 0 8.470123 3.952724 8.470124 8.474338v244.664362h0.568889z m-209.068774 22.039177c-9.607901 0-16.948675 7.909663-16.948675 16.952889 0 9.039012 7.909663 16.948675 16.948675 16.948674 9.039012 0 16.952889-7.909663 16.952889-16.948674 0-9.043226-7.344988-16.957103-16.952889-16.957103z m0 28.815275a11.335638 11.335638 0 0 1-11.301926-11.301926 11.335638 11.335638 0 0 1 11.301926-11.301925 11.335638 11.335638 0 0 1 11.301926 11.301925c0 6.219852-4.521613 11.301926-11.301926 11.301926z" fill="#62708B" p-id="2362"></path><path d="M567.304765 540.389663h135.045794c1.698239 0 2.823374-1.125136 2.823375-2.823375 0-1.694025-1.125136-2.823374-2.823375-2.823374h-135.045794c-1.694025 0-2.823374 1.12935-2.823374 2.823374 0 1.698239 1.694025 2.823374 2.823374 2.823375z m157.645432 26.000329h-135.04158c-1.694025 0-2.827588 1.125136-2.827589 2.81916 0 1.698239 1.133564 2.823374 2.823375 2.823375h135.045794c1.702453 0 2.827588-1.125136 2.827589-2.823375 0-1.694025-1.125136-2.823374-2.823375-2.823374z m-19.772049 35.026699c0-1.694025-1.12935-2.823374-2.827589-2.823374h-135.045794c-1.694025 0-2.823374 1.12935-2.823374 2.823374s1.12935 2.823374 2.823374 2.823375h135.045794c1.698239 0 2.823374-1.689811 2.823375-2.823375z m19.772049 28.815276h-135.04158c-1.694025 0-2.827588 1.133564-2.827589 2.827589s1.133564 2.823374 2.823375 2.823374h135.045794c1.702453 0 2.827588-1.12935 2.827589-2.823374s-1.125136-2.827588-2.823375-2.827589z" fill="#62708B" p-id="2363"></path><path d="M388.184831 579.381728c0 36.510025 29.599078 66.109103 66.109103 66.109103 36.514239 0 66.117531-29.599078 66.117531-66.109103 0-36.514239-29.603292-66.113317-66.117531-66.113316-36.510025 0-66.109103 29.599078-66.109103 66.113316z" fill="#B5BECF" p-id="2364"></path><path d="M454.293934 648.314206c-18.646914 0-35.595588-7.340774-48.587325-20.340939-13.000165-12.995951-20.340938-30.5093-20.340939-48.591539s7.340774-35.595588 20.340939-48.595753c12.991737-12.995951 30.5093-20.345152 48.587325-20.345152 18.082239 0 35.599802 7.349202 48.599967 20.345152 12.991737 13.000165 20.340938 30.513514 20.340938 48.595753 0 18.078025-7.349202 35.595588-20.340938 48.587325-13.000165 13.004379-30.517728 20.345152-48.599967 20.345153z m0-132.218206c-16.944461 0-32.768 6.784527-44.634601 18.646914-11.866601 11.862387-18.646914 27.685926-18.646914 44.638814 0 16.948675 6.780313 32.768 18.646914 44.638815 11.866601 11.866601 27.685926 18.646914 44.634601 18.646914 16.957103 0 32.776428-6.784527 44.638815-18.646914 11.866601-11.870815 18.651128-27.69014 18.651127-44.638815 0-16.952889-6.784527-32.776428-18.651127-44.638814-11.862387-11.866601-27.685926-18.646914-44.638815-18.646914z" fill="#62708B" p-id="2365"></path><path d="M462.772485 578.81284l28.823704-28.815276a5.465547 5.465547 0 0 0 0-7.913877 5.465547 5.465547 0 0 0-7.918091 0l-28.815275 28.823704-28.815276-28.823704a5.465547 5.465547 0 0 0-7.913877 0 5.465547 5.465547 0 0 0 0 7.913877l28.815276 28.815276-28.815276 28.819489a5.465547 5.465547 0 0 0 0 7.909663c1.133564 1.12935 2.823374 1.694025 3.952725 1.694024 1.137778 0 2.827588-0.564675 3.961152-1.694024l28.815276-28.815276 28.815275 28.815276c1.137778 1.12935 2.823374 1.694025 3.956939 1.694024 1.12935 0 2.823374-0.564675 3.961152-1.694024a5.465547 5.465547 0 0 0 0-7.909663l-28.823704-28.819489z m549.786864 268.397563h-146.912395c-9.607901 0-16.948675-7.340774-16.948674-16.948675v-281.393514c0-9.607901 7.344988-16.948675 16.948674-16.948675h146.912395c9.607901 0 16.957103 7.344988 16.957103 16.948675v281.393514c0 9.607901-7.349202 16.948675-16.957103 16.948675z m-146.912395-303.993152c-3.383835 0-5.646749 2.262914-5.646749 5.646749v281.397728c0 3.388049 2.262914 5.646749 5.646749 5.646749h146.912395c3.396477 0 5.655177-2.2587 5.655177-5.646749v-281.393514c0-3.388049-2.2587-5.646749-5.655177-5.646749h-146.912395z" fill="#62708B" p-id="2366"></path><path d="M985.438098 679.95707h-92.101004a11.335638 11.335638 0 0 1-11.301926-11.301926V576.558354a11.335638 11.335638 0 0 1 11.301926-11.301926h92.101004a11.335638 11.335638 0 0 1 11.301926 11.301926v92.101004a11.335638 11.335638 0 0 1-11.301926 11.301926z" fill="#B5BECF" p-id="2367"></path><path d="M985.438098 682.780444h-92.101004a13.986239 13.986239 0 0 1-14.1253-14.1253V576.558354a13.990453 13.990453 0 0 1 14.1253-14.125301h92.101004a13.990453 13.990453 0 0 1 14.129515 14.125301v92.101004a13.990453 13.990453 0 0 1-14.129515 14.1253z m-92.101004-114.700642c-4.521613 0-8.470123 3.952724-8.470123 8.474338v92.101004c0 4.521613 3.94851 8.478551 8.470123 8.478551h92.101004c4.521613 0 8.474337-3.961152 8.474338-8.478551V576.558354c0-4.521613-3.952724-8.474337-8.474338-8.474338h-92.101004z" fill="#62708B" p-id="2368"></path><path d="M947.58381 622.891193l32.207539-32.211753a5.465547 5.465547 0 0 0 0-7.909662 5.465547 5.465547 0 0 0-7.913876 0l-32.207539 32.207539-32.203325-32.207539a5.465547 5.465547 0 0 0-7.913877 0 5.465547 5.465547 0 0 0 0 7.909662l32.207539 32.211753-32.207539 32.203326a5.465547 5.465547 0 0 0 0 7.913876c1.133564 1.125136 2.823374 1.694025 3.952724 1.694025 1.133564 0 2.823374-0.568889 3.961153-1.694025l32.203325-32.207539 32.207539 32.207539c1.133564 1.125136 2.823374 1.694025 3.952724 1.694025 1.137778 0 2.827588-0.568889 3.961152-1.694025a5.465547 5.465547 0 0 0 0-7.913876l-32.207539-32.203326z m33.901564 120.351605h-85.320691c-1.698239 0-2.827588-1.12935-2.827589-2.823374 0-1.698239 1.12935-2.823374 2.823375-2.823375h85.324905c1.694025 0 2.823374 1.125136 2.823375 2.823375 0 1.694025-1.698239 2.823374-2.823375 2.823374z m0 31.638651h-85.320691c-1.698239 0-2.827588-1.125136-2.827589-2.819161 0-1.698239 1.12935-2.823374 2.823375-2.823374h85.324905c1.694025 0 2.823374 1.125136 2.823375 2.823374 0 1.694025-1.698239 2.823374-2.823375 2.823375z m0 31.647078h-85.320691c-1.698239 0-2.827588-1.12935-2.827589-2.823375 0-1.698239 1.12935-2.823374 2.823375-2.823374h85.324905c1.694025 0 2.823374 1.125136 2.823375 2.823374 0 1.694025-1.698239 2.823374-2.823375 2.823375z m-28.81949-462.207474h-6.780312c-3.956938 0-7.344988-3.392263-7.344988-7.344987 0-0.568889-0.564675-1.12935-1.133564-1.694025-5.082074-1.133564-10.168362-3.392263-14.685761-6.215638-0.568889-0.564675-1.694025-0.564675-1.694025 0a7.168 7.168 0 0 1-10.172576 0l-4.521613-4.517399a7.163786 7.163786 0 0 1 0-10.17679c0.564675-0.564675 0.564675-1.125136 0-1.694025-2.827588-4.517399-4.521613-9.607901-6.215638-14.689975 0-0.564675-0.564675-1.12935-1.694025-1.12935-3.961152 0-7.344988-3.392263-7.344987-7.349201v-6.780313c0-3.952724 3.388049-7.344988 7.344987-7.344988 0.560461 0 1.12935-0.560461 1.694025-1.125136 1.12935-5.090502 3.388049-10.17679 6.215638-14.694189 0.564675-0.564675 0.564675-1.694025 0-1.694025a7.159572 7.159572 0 0 1 0-10.172576l4.521613-4.517399a7.163786 7.163786 0 0 1 10.172576 0c0.560461 0.560461 1.125136 0.560461 1.694025 0 4.517399-2.823374 9.607901-4.521613 14.685761-6.219852 0.568889 0 1.137778-0.560461 1.137778-1.694025 0-3.952724 3.383835-7.349202 7.340774-7.349201h6.784526c3.952724 0 7.340774 3.396477 7.340774 7.349201 0 0.564675 0.564675 1.133564 1.133564 1.694025 5.086288 1.133564 10.168362 3.392263 14.685761 6.219852 0.568889 0.560461 1.698239 0.560461 1.698239 0a7.159572 7.159572 0 0 1 10.168362 0l4.521613 4.517399a7.159572 7.159572 0 0 1 0 10.172576c-0.564675 0.564675-0.564675 1.12935 0 1.694025 2.827588 4.517399 4.521613 9.607901 6.215638 14.694189 0 0.564675 0.564675 1.125136 1.698239 1.125136 3.952724 0 7.340774 3.392263 7.340773 7.344988v6.784527c0 3.952724-3.388049 7.344988-7.340773 7.344987-0.564675 0-1.133564 0.564675-1.698239 1.12935-1.12935 5.086288-3.388049 10.172576-6.215638 14.689975-0.564675 0.568889-0.564675 1.694025 0 1.694025a7.163786 7.163786 0 0 1 0 10.17679l-4.521613 4.517399a7.163786 7.163786 0 0 1-10.168362 0c-0.564675-0.564675-1.12935-0.564675-1.698239 0-4.517399 2.823374-9.599473 4.521613-14.685761 6.215638-0.568889 0-1.137778 0.564675-1.137778 1.694025-0.556247 4.521613-3.383835 7.344988-7.340774 7.344987z m-30.5093-20.340938c1.12935 0 2.823374 0.568889 3.952724 1.12935 3.956938 2.2587 8.478551 4.517399 12.995951 5.086288 3.392263 0.564675 5.646749 3.392263 5.646749 6.780313 0 1.133564 0.568889 1.694025 1.698239 1.694025h6.780312c1.133564 0 1.698239-0.560461 1.698239-1.694025 0-3.388049 2.2587-6.215638 5.646749-6.784527 4.521613-1.125136 9.043226-2.823374 12.995951-5.082074 2.823374-1.694025 6.784527-1.12935 9.039012 1.12935 0.568889 0.568889 1.698239 0.568889 2.262914 0l4.517399-4.517399a1.715095 1.715095 0 0 0 0-2.262914c-2.2587-2.2587-2.823374-6.211424-1.125136-9.039012 2.2587-3.952724 4.521613-8.470123 5.086288-12.995951 0.560461-3.392263 3.388049-5.650963 6.780313-5.650963 1.125136 0 1.694025-0.564675 1.694024-1.694025v-6.780312c0-1.133564-0.568889-1.694025-1.694024-1.694025-3.392263 0-6.219852-2.262914-6.784527-5.655177-1.12935-4.517399-2.823374-9.039012-5.082074-12.991737-1.694025-2.827588-1.133564-6.784527 1.125136-9.043226a1.715095 1.715095 0 0 0 0-2.2587l-4.517399-4.521613c-0.564675-0.564675-1.694025-0.564675-2.262914 0-2.2587 2.262914-6.211424 2.823374-9.039012 1.12935-3.952724-2.262914-8.474337-4.521613-12.995951-5.082074-3.388049-0.564675-5.646749-3.392263-5.646749-6.784527 0-1.12935-0.564675-1.694025-1.698239-1.694024h-6.784526c-1.125136 0-1.689811 0.564675-1.689811 1.698238 0 3.388049-2.2587 6.215638-5.646749 6.780313-4.521613 1.12935-9.043226 2.823374-13.000165 5.082074-2.823374 1.698239-6.784527 1.133564-9.043226-1.12935-0.560461-0.564675-1.694025-0.564675-2.2587 0l-4.521613 4.521613a1.727737 1.727737 0 0 0 0 2.2587c2.2587 2.262914 2.823374 6.215638 1.133564 9.043226-2.262914 3.952724-4.521613 8.470123-5.086288 12.991737-0.568889 3.392263-3.388049 5.655177-6.784527 5.655177-1.125136 0-1.689811 0.560461-1.689811 1.694025v6.780312c0 1.12935 0.564675 1.694025 1.694025 1.694025 3.392263 0 6.211424 2.2587 6.780313 5.650963 1.133564 4.521613 2.823374 9.043226 5.086288 12.995951 1.694025 2.823374 1.125136 6.780313-1.133564 9.039012a1.727737 1.727737 0 0 0 0 2.262914l4.521613 4.517399c0.564675 0.568889 1.698239 0.568889 2.2587 0 1.133564-1.689811 2.827588-2.2587 5.086288-2.2587z" fill="#62708B" p-id="2369"></path><path d="M949.277835 313.247078a26.527078 26.527078 0 0 1-26.556576-26.56079 26.527078 26.527078 0 0 1 26.556576-26.556576 26.522864 26.522864 0 0 1 26.552362 26.556576 26.527078 26.527078 0 0 1-26.552362 26.56079z m0-46.901728c-11.301926 0-20.909827 9.607901-20.909827 20.905613 0 11.301926 9.607901 20.909827 20.909827 20.909827 11.297712 0 20.905613-9.607901 20.905613-20.909827s-9.607901-20.905613-20.905613-20.905613z m-91.536329-20.901399h-3.961152a5.065218 5.065218 0 0 1-5.082074-5.090502 26.60293 26.60293 0 0 1-8.478552-3.392264c-1.694025 2.2587-5.082074 2.2587-7.340774 0l-2.823374-2.823374c-1.137778-1.12935-1.698239-2.2587-1.698239-3.961153 0-1.685597 0.560461-2.81916 1.694025-3.94851-1.694025-2.262914-2.823374-5.090502-3.392263-8.474337-2.2587 0-5.082074-2.262914-5.082075-5.086288v-3.956939a5.065218 5.065218 0 0 1 5.082075-5.086288c0.568889-2.823374 1.698239-5.646749 3.392263-8.474337-1.133564-0.564675-1.694025-1.694025-1.694025-3.392264 0-1.694025 0.560461-2.823374 1.694025-3.952724l2.823374-2.827588c2.262914-2.2587 5.650963-2.2587 7.344988 0 2.262914-1.694025 5.086288-2.823374 8.478552-3.38805a5.065218 5.065218 0 0 1 5.082074-5.086288h3.961152a5.065218 5.065218 0 0 1 5.082074 5.086288c2.823374 0.568889 5.650963 1.694025 8.478551 3.38805 1.694025-2.2587 5.082074-2.2587 7.340774 0l2.823375 2.823374c2.262914 2.262914 2.262914 5.655177 0 7.349202 1.698239 2.2587 2.831802 5.086288 3.396477 8.474337a5.065218 5.065218 0 0 1 5.082074 5.086288v3.956939a5.065218 5.065218 0 0 1-5.082074 5.086288c-0.564675 2.823374-1.698239 5.646749-3.392264 8.470123 2.2587 1.694025 2.2587 5.090502 0 7.349202l-2.823374 2.823374c-2.262914 2.262914-5.650963 2.262914-7.344988 0-2.2587 1.698239-5.086288 2.823374-8.478551 3.392264 0.564675 3.392263-2.262914 5.650963-5.082074 5.650963z m-16.952889-14.129515c1.12935 0 1.694025 0 2.823374 0.564675 2.262914 1.12935 4.521613 2.2587 6.784527 2.823375 2.2587 0.564675 3.952724 2.823374 3.952724 5.086288l3.392264-0.568889c-0.564675-2.2587 1.125136-4.517399 3.952724-5.082074 2.262914-0.564675 5.086288-1.698239 6.784527-2.823375 2.2587-1.137778 5.082074-1.137778 6.776099 0.564675l2.262913-2.823374c-1.694025-1.137778-2.262914-3.956938-0.568889-6.215638 1.137778-2.262914 2.262914-4.521613 2.827589-6.784527 0.564675-2.2587 2.2587-3.956938 5.086288-3.956938v-3.38805c-2.2587 0.568889-4.521613-1.133564-5.086288-3.952724-0.564675-2.2587-1.694025-5.086288-2.823375-6.780313-1.12935-2.2587-1.12935-5.086288 0.564675-6.784526l-2.827588-2.254486c-1.12935 1.689811-3.952724 2.2587-6.215638 0.560461-2.2587-1.12935-4.517399-2.262914-6.780313-2.823375-2.2587-0.564675-3.952724-2.823374-3.952724-5.086288l-3.392264 0.568889c0.564675 2.2587-1.12935 4.517399-3.952724 5.07786-2.262914 0.568889-5.090502 1.702453-6.784527 2.827589-2.2587 1.133564-5.086288 1.133564-6.780312-0.564675l-2.2587 2.823374c1.694025 1.137778 2.2587 3.956938 0.564675 6.215638-1.12935 2.2587-2.2587 4.521613-2.823374 6.780313-0.568889 2.2587-2.827588 3.961152-5.086289 3.961152l0.564675 3.38805c2.2587-0.568889 4.521613 1.12935 5.086288 3.952724 0.560461 2.2587 1.694025 5.086288 2.823375 6.780313 1.12935 2.2587 1.12935 5.086288-0.564675 6.780312l2.823374 2.2587c0-0.560461 1.133564-1.125136 2.823375-1.125136z" fill="#62708B" p-id="2370"></path><path d="M856.043267 227.917959a16.392428 16.392428 0 0 1-16.384-16.379786 16.396642 16.396642 0 0 1 16.384-16.388214 16.400856 16.400856 0 0 1 16.384 16.388214 16.392428 16.392428 0 0 1-16.384 16.379786z m0-27.121251c-5.646749 0-10.737251 4.521613-10.737251 10.741465 0 6.215638 4.521613 10.733037 10.737251 10.733037 6.219852 0 10.737251-4.517399 10.737251-10.733037 0-6.219852-5.086288-10.741465-10.737251-10.741465zM1300.733177 397.434206h-19.215803c-1.694025 0-2.823374-1.12935-2.823374-2.823375 0-1.698239 1.12935-2.823374 2.823374-2.823374h19.215803c1.689811 0 2.823374 1.125136 2.823374 2.823374 0 1.694025-1.133564 2.823374-2.823374 2.823375z m-307.385416 0h-7.344988c-1.698239 0-2.827588-1.12935-2.827588-2.823375 0-1.698239 1.12935-2.823374 2.823374-2.823374h7.349202c1.694025 0 2.823374 1.125136 2.823374 2.823374 0 1.694025-1.12935 2.823374-2.823374 2.823375z m275.742551 0h-38.992065a3.101498 3.101498 0 0 1-2.823375-1.694025c-7.349202-18.646914-25.43144-30.5093-45.20349-30.5093-11.866601 0-23.168527 4.517399-32.211753 11.862386-0.560461 0.564675-1.694025 0.564675-2.258699 0.564675-1.12935 0-1.694025-0.564675-1.694025-1.694024-5.086288-12.995951-17.51335-21.474502-31.642864-21.474502-16.388214 0-30.5093 11.870815-33.901564 28.254814 0 1.12935-1.12935 2.262914-2.2587 2.262914s-2.262914 0-2.827588-1.137778a18.735407 18.735407 0 0 0-14.689975-7.340773c-9.607901 0-18.078025 7.909663-18.078025 17.517563 0 1.694025-1.137778 2.823374-2.827589 2.823375h-37.858502c-1.694025 0-2.823374-1.12935-2.823374-2.823375s1.12935-2.823374 2.823374-2.823374h35.030914c1.698239-11.301926 11.866601-20.345152 23.733202-20.345152a24.104033 24.104033 0 0 1 15.25465 5.650963c5.086288-16.384 20.340938-27.685926 37.858502-27.685926 14.694189 0 28.254815 8.474337 35.035127 21.470288 9.607901-7.344988 20.905613-11.301926 32.768-11.301926 21.474502 0 40.681877 12.431276 49.725103 32.207539h37.293828c1.694025 0 2.827588 1.133564 2.827588 2.827588s-0.564675 3.388049-2.2587 3.38805zM564.477177 327.368165h-12.427062c-1.694025 0-2.823374-1.12935-2.823375-2.823375 0-1.698239 1.12935-2.823374 2.823375-2.823374h12.431276c1.694025 0 2.823374 1.125136 2.823374 2.823374 0 1.694025-1.694025 2.823374-2.823374 2.823375z m-20.9014 0h-41.81544c-1.694025 0-2.823374-1.12935-2.823374-2.823375 0-1.698239 1.12935-2.823374 2.823374-2.823374h41.81544c1.694025 0 2.823374 1.125136 2.823375 2.823374 0 1.694025-1.12935 2.823374-2.823375 2.823375z m-59.897679 0h-15.819325c-0.568889 0-1.694025-0.560461-2.262913-1.12935-0.564675-0.564675-0.564675-1.12935-0.564675-2.2587 0-11.301926-9.039012-20.340938-19.776264-20.340938-7.905449 0-15.25465 4.521613-18.078024 11.866601a3.109926 3.109926 0 0 1-2.827589 1.694024 3.105712 3.105712 0 0 1-2.823374-1.694024c-5.650963-14.1253-19.215802-23.168527-34.470453-23.168527-6.211424 0-11.866601 1.694025-17.51335 4.521613-0.564675 0.564675-1.698239 0.564675-2.823374 0a7.749531 7.749531 0 0 1-1.698239-2.258699c-3.956938-26.000329-25.991901-45.20349-52.548477-45.20349-29.384165 0-53.677827 23.724774-53.677827 53.677827 0 6.780313 1.12935 13.560626 3.952724 20.340938 0.564675 1.133564 0 1.694025 0 2.823375s-1.133564 1.12935-2.2587 1.12935H216.978773c-1.694025 0-2.823374-1.12935-2.823374-2.823375 0-1.698239 1.12935-2.823374 2.823374-2.823374h39.552527c-1.698239-6.215638-2.823374-11.866601-2.823374-18.646914 0-32.772214 26.556576-59.333004 59.333004-59.333004 28.246387 0 51.979588 19.215802 57.630551 46.337053a40.530173 40.530173 0 0 1 16.384-3.392263c15.823539 0 29.94884 8.478551 37.293827 21.474502 4.517399-6.215638 12.431276-10.172576 20.905613-10.172576 13.560626 0 24.297877 10.172576 25.427227 23.164313h12.99595c1.694025 0 2.823374 1.137778 2.823375 2.827588 0 1.694025-1.12935 3.388049-2.823375 3.38805z" fill="#62708B" p-id="2371"></path></svg>