<svg xmlns="http://www.w3.org/2000/svg" xmlns:xlink="http://www.w3.org/1999/xlink" fill="none" version="1.1" width="16" height="16" viewBox="0 0 16 16"><defs><clipPath id="master_svg0_2528_04095"><rect x="0" y="0" width="16" height="16" rx="0"/></clipPath></defs><g style="mix-blend-mode:passthrough" clip-path="url(#master_svg0_2528_04095)"><g style="mix-blend-mode:passthrough"><g style="opacity:0.3199999928474426;mix-blend-mode:passthrough"><path d="M8.246391862602234,0.713939046875C8.061891862602234,0.640530846875,7.852421862602234,0.652765546875,7.676241862602234,0.750643146875L2.520071862602234,3.614998046875C2.465541862602234,3.645288046875,2.420611862602234,3.690268046875,2.3903818626022337,3.744818046875C2.3011498626022338,3.905848046875,2.359351862602234,4.1087180468749995,2.520371862602234,4.197948046875L7.6724118626022335,7.053008046875C7.873441862602234,7.164408046875,8.117671862602233,7.164408046875,8.318701862602234,7.053008046875L13.475421862602234,4.195298046875C13.529921862602233,4.165068046875,13.574921862602235,4.120128046875,13.605221862602233,4.065608046875C13.694621862602235,3.904668046875,13.636621862602233,3.701738046875,13.475721862602233,3.612348046875L8.323771862602234,0.750643146875L8.246391862602234,0.713939046875ZM6.989381862602234,8.199058046874999L1.827838862602234,5.338418046875C1.7783848626022338,5.311008046875,1.7227728626022338,5.296628046875,1.666230862602234,5.296628046875C1.4821368626022338,5.296648046875,1.3329086848022338,5.445898046875,1.3329218626022339,5.629988046875L1.333330118602234,11.333348046875L1.3381218526022338,11.413248046875C1.363491662602234,11.623748046875,1.4881068626022338,11.811548046875,1.6762348626022339,11.916148046875L6.837661862602234,14.783648046875C6.887181862602234,14.811148046875,6.942901862602234,14.825548046875,6.9995518626022335,14.825548046875C7.183641862602234,14.825548046875,7.332881862602234,14.676348046875,7.332881862602234,14.492248046875L7.332881862602234,8.782158046875C7.332881862602234,8.539798046875,7.2013618626022335,8.316538046875,6.989381862602234,8.199058046874999Z" fill-rule="evenodd" fill="#5281E9" fill-opacity="1"/></g><g style="mix-blend-mode:passthrough"><path d="M14.666261618652344,5.62585146875L14.666671618652344,11.333240468749999C14.666671618652344,11.54845046875,14.562961618652345,11.748620468750001,14.391271618652343,11.873030468749999L14.323761618652345,11.916010468749999L9.161423618652345,14.78369046875C9.000491618652344,14.87309046875,8.797559618652343,14.81510046875,8.708162318652343,14.65416046875C8.680656018652344,14.60465046875,8.666221618652344,14.54894046875,8.666221618652344,14.49230046875L8.666221618652344,8.77754046875C8.666221618652344,8.53516046875,8.797766618652343,8.311880468750001,9.009770618652343,8.19441046875L14.171371618652344,5.33431046875C14.332391618652345,5.24508386875,14.535261618652344,5.30328926875,14.624491618652343,5.46431546875C14.651881618652343,5.51374946875,14.666261618652344,5.56933546875,14.666261618652344,5.62585146875Z" fill-rule="evenodd" fill="#5281E9" fill-opacity="1"/></g></g></g></svg>