<svg xmlns="http://www.w3.org/2000/svg" xmlns:xlink="http://www.w3.org/1999/xlink" fill="none" version="1.1" width="16" height="16" viewBox="0 0 16 16"><defs><clipPath id="master_svg0_2528_04066"><rect x="0" y="0" width="16" height="16" rx="0"/></clipPath></defs><g style="mix-blend-mode:passthrough" clip-path="url(#master_svg0_2528_04066)"><g style="mix-blend-mode:passthrough"><g style="opacity:0.3199999928474426;mix-blend-mode:passthrough"><path d="M8.246384233207703,0.713939046875C8.061884233207703,0.640530846875,7.8524142332077025,0.652765546875,7.676234233207703,0.750643146875L2.5200642332077026,3.614998046875C2.465534233207703,3.645288046875,2.420604233207703,3.690268046875,2.3903742332077025,3.744818046875C2.3011422332077025,3.905848046875,2.3593442332077026,4.1087180468749995,2.5203642332077028,4.197948046875L7.672404233207702,7.053008046875C7.8734342332077025,7.164408046875,8.117664233207702,7.164408046875,8.318694233207703,7.053008046875L13.475414233207703,4.195298046875C13.529914233207702,4.165068046875,13.574914233207704,4.120128046875,13.605214233207702,4.065608046875C13.694614233207703,3.904668046875,13.636614233207702,3.701738046875,13.475714233207702,3.612348046875L8.323764233207703,0.750643146875L8.246384233207703,0.713939046875ZM6.989374233207703,8.199058046874999L1.8278312332077027,5.338418046875C1.7783772332077026,5.311008046875,1.7227652332077026,5.296628046875,1.6662232332077027,5.296628046875C1.4821292332077025,5.296648046875,1.3329010554077025,5.445898046875,1.3329142332077026,5.629988046875L1.3333224892077027,11.333348046875L1.3381142232077026,11.413248046875C1.3634840332077027,11.623748046875,1.4880992332077025,11.811548046875,1.6762272332077026,11.916148046875L6.837654233207703,14.783648046875C6.887174233207703,14.811148046875,6.942894233207703,14.825548046875,6.999544233207702,14.825548046875C7.183634233207703,14.825548046875,7.332874233207702,14.676348046875,7.332874233207702,14.492248046875L7.332874233207702,8.782158046875C7.332874233207702,8.539798046875,7.201354233207702,8.316538046875,6.989374233207703,8.199058046874999Z" fill-rule="evenodd" fill="#FFFFFF" fill-opacity="1"/></g><g style="mix-blend-mode:passthrough"><path d="M14.666269248046875,5.62585146875L14.666679248046876,11.333240468749999C14.666679248046876,11.54845046875,14.562969248046876,11.748620468750001,14.391279248046875,11.873030468749999L14.323769248046876,11.916010468749999L9.161431248046876,14.78369046875C9.000499248046875,14.87309046875,8.797567248046875,14.81510046875,8.708169948046875,14.65416046875C8.680663648046876,14.60465046875,8.666229248046875,14.54894046875,8.666229248046875,14.49230046875L8.666229248046875,8.77754046875C8.666229248046875,8.53516046875,8.797774248046874,8.311880468750001,9.009778248046874,8.19441046875L14.171379248046875,5.33431046875C14.332399248046876,5.24508386875,14.535269248046875,5.30328926875,14.624499248046874,5.46431546875C14.651889248046874,5.51374946875,14.666269248046875,5.56933546875,14.666269248046875,5.62585146875Z" fill-rule="evenodd" fill="#FFFFFF" fill-opacity="1"/></g></g></g></svg>