<svg xmlns="http://www.w3.org/2000/svg" xmlns:xlink="http://www.w3.org/1999/xlink" fill="none" version="1.1" width="16" height="16" viewBox="0 0 16 16"><defs><clipPath id="master_svg0_2528_7626"><rect x="0" y="0" width="16" height="16" rx="0"/></clipPath></defs><g clip-path="url(#master_svg0_2528_7626)"><g></g><g><path d="M2.0000002538604735,2L14.000033253860474,2C14.368233253860474,2,14.666633253860473,2.298477,14.666633253860473,2.666667L14.666633253860473,13.3333C14.666633253860473,13.7015,14.368233253860474,14,14.000033253860474,14L2.0000002538604735,14C1.6318102538604737,14,1.3333333730694736,13.7015,1.3333332538604736,13.3333L1.3333332538604736,2.666667C1.3333332538604736,2.298477,1.6318102538604737,2,2.0000002538604735,2ZM8.000003253860474,10L8.000003253860474,11.33333L12.000033253860474,11.33333L12.000033253860474,10L8.000003253860474,10ZM5.609333253860473,8L3.7240032538604737,9.88533L4.666663253860474,10.82867L7.4953332538604736,8L4.666663253860474,5.17133L3.7240032538604737,6.11467L5.609333253860473,8Z" fill="#FFFFFF" fill-opacity="1"/></g></g></svg>