<?xml version="1.0" encoding="UTF-8"?>
<svg width="28px" height="28px" viewBox="0 0 28 28" version="1.1" xmlns="http://www.w3.org/2000/svg" xmlns:xlink="http://www.w3.org/1999/xlink">
    <!-- Generator: Sketch 64 (93537) - https://sketch.com -->
    <title>形状 2</title>
    <desc>Created with Sketch.</desc>
    <g id="赋能平台" stroke="none" stroke-width="1" fill="none" fill-rule="evenodd">
        <g id="图标样式汇总" transform="translate(-23.000000, -280.000000)" fill-rule="nonzero">
            <g id="SideMenu/Big">
                <g id="SideMenu">
                    <g id="形状-2" transform="translate(23.000000, 280.000000)">
                        <rect id="矩形" fill="#FFFFFF" opacity="0.01" x="0" y="0" width="28" height="28"></rect>
                        <path d="M24.276,8.14394904 L24.108,7.84395152 C23.8913269,7.48117816 23.5856906,7.17967457 23.22,6.96795878 L15.168,2.32399731 C14.8033924,2.11249485 14.3895117,2.000748 13.968,2 L13.62,2 C13.1984882,2.000748 12.7846076,2.11249485 12.42,2.32399731 L4.368,6.97995869 C4.00436964,7.1902631 3.70230614,7.49232408 3.49199999,7.85595143 L3.324,8.15594892 C3.11249579,8.52055347 3.000748,8.93443072 3,9.35593897 L3,18.6558618 C3.00074801,19.0773701 3.11249579,19.4912473 3.324,19.8558518 L3.49199999,20.1558494 C3.70774757,20.5152629 4.00858351,20.8160963 4.368,21.0318421 L12.432,25.6758036 C12.7947643,25.8916966 13.2098712,26.0037745 13.632,25.999903 L13.968,25.999903 C14.3895117,25.9990529 14.8033924,25.887306 15.168,25.6758036 L23.22,21.0198422 C23.5872538,20.8142909 23.890447,20.5111002 24.096,20.1438495 L24.276,19.843852 C24.48494,19.4781843 24.5965012,19.0649983 24.6,18.6438619 L24.6,9.34393907 C24.599252,8.92243082 24.4875042,8.50855358 24.276,8.14394904 L24.276,8.14394904 Z M13.62,4.39998011 L13.968,4.39998011 L21,8.45594644 L13.8,12.607912 L6.6,8.45594644 L13.62,4.39998011 Z M22.02,18.9438594 L15,22.9998258 L15,14.6958947 L22.2,10.5319292 L22.2,18.6438619 L22.02,18.9438594 Z" id="形状" fill="#D6D6D6"></path>
                    </g>
                </g>
            </g>
        </g>
    </g>
</svg>