<svg xmlns="http://www.w3.org/2000/svg" xmlns:xlink="http://www.w3.org/1999/xlink" fill="none" version="1.1" width="16" height="16" viewBox="0 0 16 16"><g style="mix-blend-mode:passthrough"><g style="opacity:0.3199999928474426;mix-blend-mode:passthrough"><path d="M2.666665876464844,8.6666259765625L13.333335876464844,8.6666259765625C14.069735876464843,8.6666259765625,14.666635876464843,9.2635799765625,14.666635876464843,9.9999559765625L14.666635876464843,13.3332959765625C14.666635876464843,14.0696759765625,14.069735876464843,14.6666259765625,13.333335876464844,14.6666259765625L2.666665876464844,14.6666259765625C1.9302898764648437,14.6666259765625,1.3333358764648438,14.0696759765625,1.3333358764648438,13.3332959765625L1.3333358764648438,9.9999559765625C1.3333358764648438,9.2635799765625,1.9302898764648437,8.6666259765625,2.666665876464844,8.6666259765625ZM5.999835876464844,11.6662959765625C5.999835876464844,11.2981059765625,5.701365876464844,10.9996359765625,5.333175876464844,10.9996359765625L4.666505876464844,10.9996359765625L4.588755876464844,11.004115976562499C4.257195876464843,11.0426259765625,3.999835876464844,11.324405976562499,3.999835876464844,11.6662959765625C3.999835876464844,12.0344859765625,4.298315876464844,12.3329659765625,4.666505876464844,12.3329659765625L5.333175876464844,12.3329659765625L5.410915876464844,12.3284859765625C5.742475876464844,12.2899759765625,5.999835876464844,12.0081959765625,5.999835876464844,11.6662959765625Z" fill-rule="evenodd" fill="#FFFFFF" fill-opacity="1"/></g><g style="mix-blend-mode:passthrough"><path d="M2.666665876464844,1.3333740234375L13.333335876464844,1.3333740234375C14.069735876464843,1.3333740234375,14.666635876464843,1.9303280234375,14.666635876464843,2.6667040234375L14.666635876464843,6.0000440234375C14.666635876464843,6.7364240234375,14.069735876464843,7.3333740234375,13.333335876464844,7.3333740234375L2.666665876464844,7.3333740234375C1.9302898764648437,7.3333740234375,1.3333358764648438,6.7364240234375,1.3333358764648438,6.0000440234375L1.3333358764648438,2.6667040234375C1.3333358764648438,1.9303280234375,1.9302898764648437,1.3333740234375,2.666665876464844,1.3333740234375ZM5.999835876464844,4.3330440234375C5.999835876464844,3.9648540234375,5.701365876464844,3.6663840234375,5.333175876464844,3.6663840234375L4.666505876464844,3.6663840234375L4.588755876464844,3.6708640234375C4.257195876464843,3.7093740234375,3.999835876464844,3.9911540234375,3.999835876464844,4.3330440234375C3.999835876464844,4.7012340234375,4.298315876464844,4.9997140234375,4.666505876464844,4.9997140234375L5.333175876464844,4.9997140234375L5.410915876464844,4.9952340234375C5.742475876464844,4.9567240234375,5.999835876464844,4.6749440234375,5.999835876464844,4.3330440234375Z" fill-rule="evenodd" fill="#FFFFFF" fill-opacity="1"/></g></g></svg>