<svg xmlns="http://www.w3.org/2000/svg" xmlns:xlink="http://www.w3.org/1999/xlink" fill="none" version="1.1" width="16" height="16" viewBox="0 0 16 16"><defs><clipPath id="master_svg0_2528_04080"><rect x="0" y="0" width="16" height="16" rx="0"/></clipPath></defs><g style="mix-blend-mode:passthrough" clip-path="url(#master_svg0_2528_04080)"><g style="mix-blend-mode:passthrough"><g style="mix-blend-mode:passthrough"><path d="M5.52856985206604,4.778652389831543C5.3960298520660395,4.809742389831543,5.29734985206604,4.928712389831543,5.29734985206604,5.070732389831543C5.29734985206604,5.135592389831543,5.31837985206604,5.1987123898315435,5.35726985206604,5.250612389831543L7.75491985206604,8.450612389831543L7.80250985206604,8.500912389831543C7.90685985206604,8.588332389831542,8.061239852066041,8.595972389831543,8.17489985206604,8.510812389831543C8.19764985206604,8.493772389831543,8.21785985206604,8.473572389831542,8.234919852066039,8.450842389831543L10.63726985206604,5.2508423898315435L10.67222985206604,5.191072389831543C10.72693985206604,5.066422389831542,10.69103985206604,4.916072389831543,10.57746985206604,4.830812389831543C10.52551985206604,4.791812389831543,10.46230985206604,4.770732389831543,10.39734985206604,4.770732389831543L8.501239852066039,4.770082389831543L8.50169985206604,2.008082389831543L8.493639852066039,1.918206389831543C8.45130985206604,1.6849573898315429,8.24715985206604,1.508082389831543,8.00169985206604,1.508082389831543C7.75623985206604,1.508082389831543,7.55208985206604,1.6849573898315429,7.50975985206604,1.918206389831543L7.50169985206604,2.008082389831543L7.50123985206604,4.770082389831543L5.59734985206604,4.770732389831543L5.52856985206604,4.778652389831543ZM2.50111985206604,8.504172389831542C1.9488348520660401,8.504172389831542,1.50111985206604,8.951892389831542,1.50111985206604,9.504172389831542L1.50111985206604,13.504182389831543C1.50111985206604,14.056482389831544,1.9488348520660401,14.504182389831543,2.50111985206604,14.504182389831543L13.50111985206604,14.504182389831543C14.05341985206604,14.504182389831543,14.50111985206604,14.056482389831544,14.50111985206604,13.504182389831543L14.50111985206604,9.504172389831542C14.50111985206604,8.951892389831542,14.05341985206604,8.504172389831542,13.50111985206604,8.504172389831542L9.40757985206604,8.504442389831542C9.19960985206604,9.083212389831543,8.64591985206604,9.497122389831542,7.99553985206604,9.497122389831542C7.34516985206604,9.497122389831542,6.79147985206604,9.083212389831543,6.58350985206604,8.504442389831542L2.50111985206604,8.504172389831542Z" fill-rule="evenodd" fill="#FFFFFF" fill-opacity="1"/></g><g style="opacity:0.3199999928474426;mix-blend-mode:passthrough"><path d="M3.4987730979919434,1.5060250759124756C3.2226310979919432,1.5060250759124756,2.9987730979919434,1.7298830759124755,2.9987730979919434,2.0060250759124756L2.9987730979919434,6.006025075912476C2.9987730979919434,6.282165075912475,3.2226310979919432,6.506025075912476,3.4987730979919434,6.506025075912476C3.7749150979919435,6.506025075912476,3.9987730979919434,6.282165075912475,3.9987730979919434,6.006025075912476L3.9987730979919434,2.0060250759124756C3.9987730979919434,1.7298830759124755,3.7749150979919435,1.5060250759124756,3.4987730979919434,1.5060250759124756ZM12.498773097991943,1.5060250759124756C12.222633097991944,1.5060250759124756,11.998773097991943,1.7298830759124755,11.998773097991943,2.0060250759124756L11.998773097991943,6.006025075912476C11.998773097991943,6.282165075912475,12.222633097991944,6.506025075912476,12.498773097991943,6.506025075912476C12.774913097991943,6.506025075912476,12.998773097991943,6.282165075912475,12.998773097991943,6.006025075912476L12.998773097991943,2.0060250759124756C12.998773097991943,1.7298830759124755,12.774913097991943,1.5060250759124756,12.498773097991943,1.5060250759124756Z" fill-rule="evenodd" fill="#FFFFFF" fill-opacity="1"/></g></g></g></svg>