<svg xmlns="http://www.w3.org/2000/svg" xmlns:xlink="http://www.w3.org/1999/xlink" fill="none" version="1.1" width="16" height="16" viewBox="0 0 16 16"><defs><clipPath id="master_svg0_2528_04109"><rect x="0" y="0" width="16" height="16" rx="0"/></clipPath></defs><g style="mix-blend-mode:passthrough" clip-path="url(#master_svg0_2528_04109)"><g style="mix-blend-mode:passthrough"><g style="mix-blend-mode:passthrough"><path d="M5.528575110855103,4.778652389831543C5.396045110855102,4.809742389831543,5.297365110855102,4.928712389831543,5.297365110855102,5.070732389831543C5.297365110855102,5.135592389831543,5.318385110855102,5.1987123898315435,5.357275110855102,5.250612389831543L7.754935110855103,8.450612389831543L7.8025151108551025,8.500912389831543C7.906875110855102,8.588332389831542,8.061255110855104,8.595972389831543,8.174905110855104,8.510812389831543C8.197655110855102,8.493772389831543,8.217865110855103,8.473572389831542,8.234935110855101,8.450842389831543L10.637275110855102,5.2508423898315435L10.672235110855102,5.191072389831543C10.726945110855102,5.066422389831542,10.691045110855102,4.916072389831543,10.577475110855103,4.830812389831543C10.525525110855103,4.791812389831543,10.462325110855103,4.770732389831543,10.397365110855102,4.770732389831543L8.501245110855102,4.770082389831543L8.501705110855102,2.008082389831543L8.493655110855101,1.918206389831543C8.451315110855102,1.6849573898315429,8.247165110855104,1.508082389831543,8.001705110855102,1.508082389831543C7.756245110855103,1.508082389831543,7.552095110855102,1.6849573898315429,7.509765110855103,1.918206389831543L7.501705110855102,2.008082389831543L7.501245110855103,4.770082389831543L5.597365110855103,4.770732389831543L5.528575110855103,4.778652389831543ZM2.5011351108551025,8.504172389831542C1.9488501108551026,8.504172389831542,1.5011351108551025,8.951892389831542,1.5011351108551025,9.504172389831542L1.5011351108551025,13.504182389831543C1.5011351108551025,14.056482389831544,1.9488501108551026,14.504182389831543,2.5011351108551025,14.504182389831543L13.501135110855103,14.504182389831543C14.053435110855103,14.504182389831543,14.501135110855103,14.056482389831544,14.501135110855103,13.504182389831543L14.501135110855103,9.504172389831542C14.501135110855103,8.951892389831542,14.053435110855103,8.504172389831542,13.501135110855103,8.504172389831542L9.407595110855102,8.504442389831542C9.199625110855102,9.083212389831543,8.645935110855103,9.497122389831542,7.995555110855102,9.497122389831542C7.345185110855103,9.497122389831542,6.791495110855102,9.083212389831543,6.583525110855103,8.504442389831542L2.5011351108551025,8.504172389831542Z" fill-rule="evenodd" fill="#5281E9" fill-opacity="1"/></g><g style="opacity:0.3199999928474426;mix-blend-mode:passthrough"><path d="M3.4987807273864746,1.5060250759124756C3.2226387273864745,1.5060250759124756,2.9987807273864746,1.7298830759124755,2.9987807273864746,2.0060250759124756L2.9987807273864746,6.006025075912476C2.9987807273864746,6.282165075912475,3.2226387273864745,6.506025075912476,3.4987807273864746,6.506025075912476C3.7749227273864747,6.506025075912476,3.9987807273864746,6.282165075912475,3.9987807273864746,6.006025075912476L3.9987807273864746,2.0060250759124756C3.9987807273864746,1.7298830759124755,3.7749227273864747,1.5060250759124756,3.4987807273864746,1.5060250759124756ZM12.498780727386475,1.5060250759124756C12.222640727386475,1.5060250759124756,11.998780727386475,1.7298830759124755,11.998780727386475,2.0060250759124756L11.998780727386475,6.006025075912476C11.998780727386475,6.282165075912475,12.222640727386475,6.506025075912476,12.498780727386475,6.506025075912476C12.774920727386474,6.506025075912476,12.998780727386475,6.282165075912475,12.998780727386475,6.006025075912476L12.998780727386475,2.0060250759124756C12.998780727386475,1.7298830759124755,12.774920727386474,1.5060250759124756,12.498780727386475,1.5060250759124756Z" fill-rule="evenodd" fill="#5281E9" fill-opacity="1"/></g></g></g></svg>