<svg width="28" height="28" xmlns="http://www.w3.org/2000/svg"><path opacity=".01" d="M0 0h28v28H0z"/><path d="M12.727 16.645l-1.384-1.367a.892.892 0 0 0-1.245 0l-.31.307a.864.864 0 0 0 0 1.228l1.866 1.842c.074.074.157.13.245.17l.241.237a.892.892 0 0 0 1.244 0l4.982-4.908a.86.86 0 0 0 0-1.228l-.31-.307a.892.892 0 0 0-1.245 0l-4.084 4.026zM3 10.963C3 9.769 3.981 8.8 5.19 8.8h17.62c1.209 0 2.19.968 2.19 2.162v10.875C25 23.031 24.019 24 22.81 24H5.19C3.982 24 3 23.031 3 21.838V10.963zm3.3-5.094c0-.48.394-.869.88-.869h13.64c.486 0 .88.39.88.87v.436c0 .48-.394.869-.88.869H7.18a.875.875 0 0 1-.88-.87V5.87z"/></svg>