<svg xmlns="http://www.w3.org/2000/svg" xmlns:xlink="http://www.w3.org/1999/xlink" fill="none" version="1.1" width="16" height="16" viewBox="0 0 16 16"><g style="mix-blend-mode:passthrough"><g style="mix-blend-mode:passthrough"><path d="M15.3333259765625,2.5725581235351562C15.3333259765625,2.0722471235351563,14.9229259765625,1.6666641235351562,14.4166259765625,1.6666641235351562L1.5832929765625,1.6666641235351562C1.0770319765625,1.6666641235351562,0.6666259765625,2.0722471235351563,0.6666259765625,2.5725581235351562L0.6666259765625,11.631504123535157C0.6666259765625,12.131764123535156,1.0770319765625,12.537364123535156,1.5832929765625,12.537364123535156L4.8530459765625,12.537364123535156L7.2227059765625,10.197244123535157C7.5601259765625,9.863844123535156,8.072465976562501,9.785874123535157,8.492855976562499,9.993844123535156L8.6192759765625,10.069554123535156L8.6668559765625,10.103524123535156L8.7783359765625,10.197354123535156L11.1459259765625,12.537364123535156L14.4166259765625,12.537364123535156C14.9229259765625,12.537364123535156,15.3333259765625,12.131764123535156,15.3333259765625,11.631504123535157L15.3333259765625,2.5725581235351562ZM11.3029259765625,4.570394123535156C11.4568259765625,4.371844123535157,11.7445259765625,4.334234123535156,11.9454259765625,4.486404123535156C12.1464259765625,4.638574123535156,12.1844259765625,4.922884123535156,12.0304259765625,5.121434123535156C10.8113259765625,6.6935441235351565,10.1335259765625,7.199744123535156,8.9620659765625,7.199744123535156C8.5236159765625,7.199744123535156,8.190625976562501,7.098544123535156,7.7507259765625,6.868044123535157L7.2493859765625,6.589614123535156C6.8305859765625,6.363504123535156,6.5741359765625,6.283874123535156,6.2060059765625,6.283874123535156C5.6125359765625,6.283874123535156,5.1353359765625,6.726024123535156,4.7633559765625,7.722804123535156C4.6757659765625,7.9575041235351565,4.4122359765625,8.077594123535157,4.1747459765625,7.991044123535156C3.9372559765625,7.904484123535156,3.8157259765625,7.644054123535156,3.9033159765625,7.409344123535156C4.3947059765625,6.092584123535156,5.1659559765625,5.377974123535156,6.2060059765625,5.377974123535156C6.7512459765625,5.377974123535156,7.1304759765625,5.495694123535156,7.6639859765625,5.7812641235351565L8.1575459765625,6.055774123535156C8.4847359765625,6.229214123535156,8.6957159765625,6.293854123535156,8.9620659765625,6.293854123535156C9.6195859765625,6.293854123535156,10.0583259765625,6.055464123535156,10.7769259765625,5.219864123535157L11.0275259765625,4.918724123535156L11.1618259765625,4.750644123535157L11.3029259765625,4.570394123535156Z" fill-rule="evenodd" fill="#5281E9" fill-opacity="1"/></g><g style="opacity:0.3199999928474426;mix-blend-mode:passthrough"><path d="M10.5602073828125,14.333337014160156L5.4399003828125,14.333337014160156C5.1867703828125,14.333337014160156,4.9815673828125,14.130547014160156,4.9815673828125,13.880387014160156C4.9815673828125,13.760247014160157,5.0298648828125,13.645027014160156,5.1158333828125,13.560087014160157L7.6763473828125,11.030019014160157C7.835467382812499,10.872797814160156,8.0824373828125,10.855344814160157,8.2610573828125,10.977649614160157L8.3245273828125,11.030065014160156L8.3245273828125,11.030065014160156L10.884317382812501,13.560127014160155C11.0632973828125,13.737027014160155,11.063277382812501,14.023817014160157,10.884277382812499,14.200697014160156C10.798317382812499,14.285627014160156,10.6817473828125,14.333337014160156,10.5602073828125,14.333337014160156Z" fill-rule="evenodd" fill="#5281E9" fill-opacity="1"/></g></g></svg>