<?xml version="1.0" encoding="UTF-8"?>
<svg width="16px" height="16px" viewBox="0 0 16 16" version="1.1" xmlns="http://www.w3.org/2000/svg" xmlns:xlink="http://www.w3.org/1999/xlink">
    <!-- Generator: Sketch 64 (93537) - https://sketch.com -->
    <title></title>
    <desc>Created with Sketch.</desc>
    <g id="资源中心" stroke="none" stroke-width="1" fill="none" fill-rule="evenodd">
        <g id="画板备份" transform="translate(-120.000000, -400.000000)" fill-rule="nonzero">
            <g id="icon/导航/任务备份" transform="translate(120.000000, 400.000000)">
                <g id="icon/导航/标签管理">
                    <rect id="矩形" fill="#FFFFFF" opacity="0.01" x="0" y="0" width="16" height="16"></rect>
                    <path d="M7.99933333,0.533 L7.99933333,2.133 L2.13333333,2.13333333 L2.13333333,13.8666667 L13.8666667,13.8666667 L13.8663333,0.533 L15.4666667,0.533333328 L15.4666667,15.4666667 L0.533333328,15.4666667 L0.533333328,0.533333328 L7.99933333,0.533 Z M12.9135656,0.533333328 L12.9135656,6.06666667 L10.9567828,4.83464575 L9,6.06666667 L9,0.533333328 L12.9135656,0.533333328 Z" id="形状" fill="#4B4B4B"></path>
                    <path d="M5.8875,6.69923734 C4.61724508,6.69923734 3.5875,7.72898241 3.5875,8.99923734 C3.5875,10.2694923 4.61724508,11.2992373 5.8875,11.2992373 C7.15775492,11.2992373 8.1875,10.2694923 8.1875,8.99923734 C8.1875,7.72898241 7.15775492,6.69923734 5.8875,6.69923734 Z M5.8875,8.19923734 C6.3293278,8.19923734 6.6875,8.55740954 6.6875,8.99923734 C6.6875,9.44106514 6.3293278,9.79923734 5.8875,9.79923734 C5.4456722,9.79923734 5.0875,9.44106514 5.0875,8.99923734 C5.0875,8.55740954 5.4456722,8.19923734 5.8875,8.19923734 Z" id="椭圆形" fill="#FCC53A"></path>
                </g>
            </g>
        </g>
    </g>
</svg>
