<svg xmlns="http://www.w3.org/2000/svg" xmlns:xlink="http://www.w3.org/1999/xlink" fill="none" version="1.1" width="16" height="16" viewBox="0 0 16 16"><g style="mix-blend-mode:passthrough"><g style="mix-blend-mode:passthrough"><path d="M7.99894,1C8.043099999999999,1,8.086179999999999,1.0109824,8.12438,1.031526L8.17754,1.0693344L14.9128,7.21273C14.939,7.23629,14.9601,7.26477,14.9747,7.29634L14.9918,7.34577C15.0192,7.45062,14.9762,7.55934,14.8866,7.62011C14.8573,7.63975,14.8244,7.65326,14.79,7.66004L14.7376,7.66509L13.6244,7.66509L13.6244,8.44822C13.4209,8.41648,13.2124,8.4,13,8.4C10.79086,8.4,9,10.18257,9,12.3815C9,13.3839,9.37218,14.2998,9.98649,14.9997L2.64067,14.9992C2.5152799999999997,14.9992,2.41025,14.9129,2.3828,14.797L2.3758,14.7368L2.3735299999999997,7.66509L1.263733,7.66509C1.21061,7.66524,1.158667,7.64957,1.11465,7.62011C1.0708281,7.59049,1.0372727,7.54823,1.0185411,7.49906C0.99859905,7.45041,0.99462745,7.39678,1.00718967,7.34577C1.014951,7.31164,1.0296286,7.27963,1.0501369,7.25158L1.0851365,7.21273L7.82035,1.0693344C7.86904,1.0249325,7.93276,1.000197517,7.99894,1Z" fill-rule="evenodd" fill="#5281E9" fill-opacity="1"/></g><g style="opacity:0.3199999928474426;mix-blend-mode:passthrough"><path d="M13.75681,10.277549209594726L13.75681,9.400049209594727L12.24319,9.400049209594727L12.24319,10.277549209594726C11.97755,10.371299209594726,11.73461,10.511549209594726,11.52422,10.690049209594726L10.756811,10.250549209594727L10,11.549549209594726L10.767407,11.989049209594727C10.716765,12.260749209594726,10.716765,12.539349209594727,10.767407,12.811049209594726L10,13.250549209594727L10.756811,14.549549209594726L11.52422,14.110049209594727C11.7362,14.290239209594727,11.97995,14.430089209594726,12.24319,14.522549209594725L12.24319,15.400049209594727L13.75681,15.400049209594727L13.75681,14.522549209594725C14.020050000000001,14.430089209594726,14.2638,14.290239209594727,14.47578,14.110049209594727L15.24319,14.549549209594726L16,13.250549209594727L15.23259,12.811049209594726C15.28324,12.539349209594727,15.28324,12.260749209594726,15.23259,11.989049209594727L16,11.549549209594726L15.24319,10.250549209594727L14.47578,10.690049209594726C14.26539,10.511549209594726,14.02245,10.371299209594726,13.75681,10.277549209594726ZM12.24319,12.400049209594727C12.24319,11.985839209594726,12.58203,11.650049209594727,13.00001,11.650049209594727C13.41798,11.650049209594727,13.75682,11.985839209594726,13.75682,12.400049209594727C13.75682,12.814259209594727,13.41798,13.150049209594727,13.00001,13.150049209594727C12.58203,13.150049209594727,12.24319,12.814259209594727,12.24319,12.400049209594727Z" fill-rule="evenodd" fill="#5281E9" fill-opacity="1"/></g></g></svg>