<svg xmlns="http://www.w3.org/2000/svg" xmlns:xlink="http://www.w3.org/1999/xlink" fill="none" version="1.1" width="16" height="16" viewBox="0 0 16 16"><defs><clipPath id="master_svg0_2528_04692"><rect x="0" y="0" width="16" height="16" rx="0"/></clipPath></defs><g style="mix-blend-mode:passthrough" clip-path="url(#master_svg0_2528_04692)"><g style="mix-blend-mode:passthrough"><g style="mix-blend-mode:passthrough"><path d="M15.333356494140626,2.572642046875C15.333356494140626,2.072331046875,14.922956494140625,1.666748046875,14.416656494140625,1.666748046875L1.583323494140625,1.666748046875C1.077062494140625,1.666748046875,0.666656494140625,2.072331046875,0.666656494140625,2.572642046875L0.666656494140625,11.631588046875C0.666656494140625,12.131848046875,1.077062494140625,12.537448046875,1.583323494140625,12.537448046875L4.853076494140625,12.537448046875L7.222736494140625,10.197328046875C7.560156494140625,9.863928046875,8.072496494140626,9.785958046875,8.492886494140624,9.993928046875L8.619306494140625,10.069638046875L8.666886494140625,10.103608046875L8.778366494140625,10.197438046875L11.145956494140625,12.537448046875L14.416656494140625,12.537448046875C14.922956494140625,12.537448046875,15.333356494140626,12.131848046875,15.333356494140626,11.631588046875L15.333356494140626,2.572642046875ZM11.302856494140626,4.570518046875C11.456856494140625,4.371958046875,11.744556494140625,4.334358046875,11.945456494140625,4.486528046875C12.146356494140624,4.638688046875,12.184356494140625,4.923008046875,12.030456494140624,5.121558046875C10.811256494140626,6.693658046875,10.133486494140625,7.199868046875,8.962036494140625,7.199868046875C8.523586494140625,7.199868046875,8.190596494140625,7.098668046875,7.750696494140625,6.868168046875L7.249356494140625,6.589738046875C6.830556494140625,6.363618046875,6.574106494140625,6.283998046875,6.205976494140625,6.283998046875C5.612506494140625,6.283998046875,5.135306494140625,6.726148046875,4.763326494140625,7.722918046875C4.675736494140625,7.957628046875,4.412206494140625,8.077718046874999,4.174716494140625,7.991168046875C3.937216494140625,7.904608046875,3.815696494140625,7.644168046875,3.903286494140625,7.409468046875C4.394676494140625,6.092708046875,5.165916494140625,5.3780980468749995,6.205976494140625,5.3780980468749995C6.751216494140625,5.3780980468749995,7.130446494140625,5.495808046875,7.663956494140625,5.781378046875L8.157506494140625,6.055898046875C8.484706494140624,6.229338046875,8.695686494140626,6.293978046875,8.962036494140625,6.293978046875C9.619556494140625,6.293978046875,10.058296494140626,6.055578046875,10.776856494140626,5.219988046875001L11.027456494140624,4.918848046875L11.161756494140626,4.750768046875001L11.302856494140626,4.570518046875Z" fill-rule="evenodd" fill="#5281E9" fill-opacity="1"/></g><g style="opacity:0.3199999928474426;mix-blend-mode:passthrough"><path d="M10.560237900390625,14.3334209375L5.439930900390625,14.3334209375C5.186800900390625,14.3334209375,4.981597900390625,14.1306309375,4.981597900390625,13.8804709375C4.981597900390625,13.760330937500001,5.029895400390625,13.6451109375,5.115863900390625,13.5601709375L7.676377900390625,11.0301029375C7.835497900390624,10.8728817375,8.082467900390625,10.8554287375,8.261087900390624,10.9777335375L8.324557900390625,11.0301489375L8.324557900390625,11.0301489375L10.884347900390626,13.560210937499999C11.063327900390625,13.737110937499999,11.063307900390626,14.0239009375,10.884307900390624,14.2007809375C10.798347900390624,14.2857109375,10.681777900390625,14.3334209375,10.560237900390625,14.3334209375Z" fill-rule="evenodd" fill="#5281E9" fill-opacity="1"/></g></g></g></svg>