<svg xmlns="http://www.w3.org/2000/svg" xmlns:xlink="http://www.w3.org/1999/xlink" fill="none" version="1.1" width="16" height="16" viewBox="0 0 16 16"><defs><clipPath id="master_svg0_2528_04116"><rect x="0" y="0" width="16" height="16" rx="0"/></clipPath></defs><g style="mix-blend-mode:passthrough" clip-path="url(#master_svg0_2528_04116)"><g style="mix-blend-mode:passthrough"><g style="mix-blend-mode:passthrough"><path d="M2.666665876464844,2L5.333335876464844,2C6.423735876464844,2,7.391845876464844,2.523562,8.000005876464844,3.33301L8.000005876464844,15.3343C7.7672058764648435,15.337,7.532105876464843,15.2222,7.403455876464844,14.9643L7.3446258764648436,14.8561C7.0329958764648435,14.3282,6.463835876464843,14,5.844765876464844,14L2.666665876464844,14C1.9302898764648437,14,1.3333358764648438,13.403,1.3333358764648438,12.6667L1.3333358764648438,3.33333C1.3333358764648438,2.596954,1.9302898764648437,2,2.666665876464844,2Z" fill-rule="evenodd" fill="#5281E9" fill-opacity="1"/></g><g style="opacity:0.3199999928474426;mix-blend-mode:passthrough"><path d="M8.000002543464843,15.3344C8.226121501464844,15.3369,8.454739501464843,15.2281,8.586868501464844,14.9829L8.655049501464843,14.8564C8.957386501464844,14.3338,9.534571501464844,14,10.159871501464844,14L13.333331501464844,14C14.069711501464845,14,14.666671501464844,13.403,14.666671501464844,12.6667L14.666671501464844,3.33333C14.666671501464844,2.596954,14.069711501464845,2,13.333331501464844,2L10.666671501464844,2C9.576271501464843,2,8.608155501464843,2.523562,8.000002543464843,3.33301L8.000002543464843,15.3344Z" fill-rule="evenodd" fill="#5281E9" fill-opacity="1"/></g></g></g></svg>