<svg xmlns="http://www.w3.org/2000/svg" xmlns:xlink="http://www.w3.org/1999/xlink" fill="none" version="1.1" width="16" height="16" viewBox="0 0 16 16"><defs><clipPath id="master_svg0_2528_04087"><rect x="0" y="0" width="16" height="16" rx="0"/></clipPath></defs><g style="mix-blend-mode:passthrough" clip-path="url(#master_svg0_2528_04087)"><g style="mix-blend-mode:passthrough"><g style="mix-blend-mode:passthrough"><path d="M2.666673505859375,2L5.333343505859375,2C6.423743505859375,2,7.391853505859375,2.523562,8.000013505859375,3.33301L8.000013505859375,15.3343C7.767213505859375,15.337,7.532113505859375,15.2222,7.403463505859375,14.9643L7.344633505859375,14.8561C7.033003505859375,14.3282,6.463843505859375,14,5.844773505859375,14L2.666673505859375,14C1.930297505859375,14,1.333343505859375,13.403,1.333343505859375,12.6667L1.333343505859375,3.33333C1.333343505859375,2.596954,1.930297505859375,2,2.666673505859375,2Z" fill-rule="evenodd" fill="#FFFFFF" fill-opacity="1"/></g><g style="opacity:0.3199999928474426;mix-blend-mode:passthrough"><path d="M8.000010172859374,15.3344C8.226129130859375,15.3369,8.454747130859374,15.2281,8.586876130859375,14.9829L8.655057130859374,14.8564C8.957394130859376,14.3338,9.534579130859376,14,10.159879130859375,14L13.333339130859375,14C14.069719130859376,14,14.666679130859375,13.403,14.666679130859375,12.6667L14.666679130859375,3.33333C14.666679130859375,2.596954,14.069719130859376,2,13.333339130859375,2L10.666679130859375,2C9.576279130859374,2,8.608163130859374,2.523562,8.000010172859374,3.33301L8.000010172859374,15.3344Z" fill-rule="evenodd" fill="#FFFFFF" fill-opacity="1"/></g></g></g></svg>