<svg xmlns="http://www.w3.org/2000/svg" xmlns:xlink="http://www.w3.org/1999/xlink" fill="none" version="1.1" width="24" height="24" viewBox="0 0 24 24"><g style="mix-blend-mode:passthrough"><g style="opacity:0.30000001192092896;mix-blend-mode:passthrough"><path d="M2,20C2,21.104599999999998,2.994923,22,4.22222,22L19.7778,22C21.0051,22,22,21.104599999999998,22,20L22,6L2,6L2,20Z" fill="#FA8B16" fill-opacity="1"/></g><g style="mix-blend-mode:passthrough"><path d="M7.832050000000001,11.5547C7.94156,11.39043,8,11.19743,8,11C8,10.447715,7.55228,10,7,10C6.665649999999999,10,6.35342,10.167101,6.167949999999999,10.4453L4.16795,13.4453C3.9440168,13.7812,3.9440168,14.2188,4.16795,14.5547L6.167949999999999,17.5547C6.35342,17.832900000000002,6.665649999999999,18,7,18C7.55228,18,8,17.55228,8,17C8,16.80258,7.94156,16.609569999999998,7.832050000000001,16.4453L6.20185,14L7.832050000000001,11.5547Z" fill-rule="evenodd" fill="#FFFFFF" fill-opacity="1"/></g><g style="mix-blend-mode:passthrough" transform="matrix(-1,0,0,1,40,0)"><path d="M23.83205,11.5547C23.94156,11.39043,24,11.19743,24,11C24,10.447715,23.55228,10,23,10C22.66565,10,22.35342,10.167101,22.16795,10.4453L20.16795,13.4453C19.9440168,13.7812,19.9440168,14.2188,20.16795,14.5547L22.16795,17.5547C22.35342,17.832900000000002,22.66565,18,23,18C23.55228,18,24,17.55228,24,17C24,16.80258,23.94156,16.609569999999998,23.83205,16.4453L22.20185,14L23.83205,11.5547Z" fill-rule="evenodd" fill="#FFFFFF" fill-opacity="1"/></g><g style="mix-blend-mode:passthrough"><path d="M2,6L22,6L22,4C22,2.895431,21.1046,2,20,2L4,2C2.895431,2,2,2.895431,2,4L2,6Z" fill="#FA8B16" fill-opacity="1"/></g><g style="mix-blend-mode:passthrough"><ellipse cx="5" cy="4" rx="1" ry="1" fill="#FFFFFF" fill-opacity="1"/></g><g style="mix-blend-mode:passthrough"><ellipse cx="8" cy="4" rx="1" ry="1" fill="#FFFFFF" fill-opacity="1"/></g><g style="mix-blend-mode:passthrough"><ellipse cx="11" cy="4" rx="1" ry="1" fill="#FFFFFF" fill-opacity="1"/></g><g style="mix-blend-mode:passthrough" transform="matrix(-1,0,0,1,28,0)"><path d="M15.97019,9.757639L17.97001,17.75695L17.97014,17.757460000000002C17.98997,17.836779999999997,18,17.91824,18,18C18,18.55229,17.55228,19,17,19C16.54113,19,16.14115,18.6877,16.02986,18.242539999999998L14.0299011,10.24271C14.0100273,10.163219999999999,14,10.08176,14,10C14,9.447715,14.447715,9,15,9C15.45887,9,15.85885,9.312297,15.97019,9.757639Z" fill-rule="evenodd" fill="#FA8B16" fill-opacity="1"/></g></g></svg>