<svg xmlns="http://www.w3.org/2000/svg" xmlns:xlink="http://www.w3.org/1999/xlink" fill="none" version="1.1" width="24" height="24" viewBox="0 0 24 24"><g style="mix-blend-mode:passthrough"><g style="mix-blend-mode:passthrough"><path d="M5,7L7,7L7,10L7.00673,10.116620000000001C7.06449,10.61396,7.487159999999999,11,8,11L12,11L12.116620000000001,11.006730000000001C12.613959999999999,11.06449,13,11.48716,13,12C13,12.55228,12.55228,13,12,13L8,13L7.823729999999999,12.99491C7.53644,12.978259999999999,7.25999,12.92119,7,12.82929L7,18L7.00673,18.1166C7.06449,18.614,7.487159999999999,19,8,19L12,19L12.116620000000001,19.006700000000002C12.613959999999999,19.064500000000002,13,19.4872,13,20C13,20.552300000000002,12.55228,21,12,21L8,21L7.823729999999999,20.9949C6.24892,20.9037,5,19.5977,5,18L5,7Z" fill-rule="evenodd" fill="#36A4FF" fill-opacity="1"/></g><g style="opacity:0.3199999928474426;mix-blend-mode:passthrough"><path d="M20,17L16,17C14.8954,17,14,17.8954,14,19L14,21C14,22.1046,14.8954,23,16,23L20,23C21.1046,23,22,22.1046,22,21L22,19C22,17.8954,21.1046,17,20,17ZM8,1L4,1C2.895431,1,2,1.8954309999999999,2,3L2,5C2,6.10457,2.895431,7,4,7L8,7C9.104569999999999,7,10,6.10457,10,5L10,3C10,1.8954309999999999,9.104569999999999,1,8,1ZM20,9L16,9C14.8954,9,14,9.89543,14,11L14,13C14,14.1046,14.8954,15,16,15L20,15C21.1046,15,22,14.1046,22,13L22,11C22,9.89543,21.1046,9,20,9Z" fill="#36A4FF" fill-opacity="1"/></g></g></svg>