<svg xmlns="http://www.w3.org/2000/svg" xmlns:xlink="http://www.w3.org/1999/xlink" fill="none" version="1.1" width="24" height="24" viewBox="0 0 24 24"><g style="mix-blend-mode:passthrough"><g style="opacity:0.3199999928474426;mix-blend-mode:passthrough"><path d="M2.4993516218795775,7.945700171109619C2.5841636218795774,7.945700171109619,2.6675826218795775,7.967261631109619,2.741763621879578,8.008374231109618L10.484077621879578,12.299334231109619C10.802047621879577,12.475564231109619,10.999327621879578,12.81045423110962,10.999327621879578,13.173994231109619L10.999327621879578,21.73916423110962C10.999327621879578,22.01526423110962,10.775467621879578,22.23916423110962,10.499327621879578,22.23916423110962C10.414357621879578,22.23916423110962,10.330777621879578,22.21746423110962,10.256497621879578,22.176164231109617L2.5143566218795774,17.874924231109617C2.232165621879578,17.71814423110962,2.0452423218795777,17.43633423110962,2.0071876118795777,17.120584231109618L2.0000000058795777,17.00076423110962L1.9993876218795776,8.445736231109619C1.9993876218795776,8.16959323110962,2.223209621879578,7.945700171109619,2.4993516218795775,7.945700171109619ZM21.999487621879577,8.43892023110962L22.000087621879576,17.00000423110962C22.000087621879576,17.322814231109618,21.844487621879576,17.62307423110962,21.586987621879576,17.80968423110962L21.485687621879578,17.87415423110962L13.742187621879578,22.17566423110962C13.500787621879578,22.309764231109618,13.196387621879577,22.22276423110962,13.062287621879578,21.98136423110962C13.021087621879577,21.90716423110962,12.999387621879578,21.82356423110962,12.999387621879578,21.73856423110962L12.999387621879578,13.166454231109618C12.999387621879578,12.802894231109619,13.196687621879578,12.467974231109618,13.514687621879578,12.29175423110962L21.257087621879577,8.001609231109619C21.49868762187958,7.867769331109619,21.802987621879577,7.955077431109619,21.936787621879578,8.196617231109618C21.977887621879578,8.27076723110962,21.999487621879577,8.35414723110962,21.999487621879577,8.43892023110962Z" fill-rule="evenodd" fill="#4A72E5" fill-opacity="1"/></g><g style="mix-blend-mode:passthrough"><path d="M12.485903781890869,1.125843L12.36984378189087,1.0707865C12.09309378189087,0.9606741,11.778893781890869,0.9790262,11.514623781890869,1.125843L9.036253781890869,2.50198C9.004113781890869,2.51983,8.977503781890869,2.54619,8.959363781890868,2.5781799999999997C8.90488378189087,2.6742600000000003,8.938603781890869,2.7963199999999997,9.03469378189087,2.85081L17.38495378189087,7.5858C17.536353781890867,7.67165,17.72145378189087,7.67259,17.87375378189087,7.58828L20.21335378189087,6.29283C20.295153781890868,6.24748,20.36265378189087,6.18007,20.408053781890867,6.09828C20.542153781890867,5.85688,20.455153781890868,5.55249,20.21375378189087,5.4184L12.485903781890869,1.125843ZM15.113953781890869,8.59642L6.921573781890869,3.95081C6.769913781890869,3.86481,6.584413781890869,3.86401,6.432023781890869,3.94871L3.780094781890869,5.42272C3.698310781890869,5.46815,3.630914781890869,5.53561,3.585567081890869,5.61744C3.466590181890869,5.83214,3.5223455328908693,6.09644,3.713387781890869,6.25134L11.508613781890869,10.57973C11.81015378189087,10.74683,12.176503781890869,10.74683,12.47804378189087,10.57972L15.11145378189087,9.11976C15.159753781890869,9.09298,15.19975378189087,9.0534,15.226953781890868,9.00536C15.30865378189087,8.861239999999999,15.258053781890869,8.678149999999999,15.113953781890869,8.59642Z" fill-rule="evenodd" fill="#4A72E5" fill-opacity="1"/></g></g></svg>