<svg xmlns="http://www.w3.org/2000/svg" xmlns:xlink="http://www.w3.org/1999/xlink" fill="none" version="1.1" width="24" height="24" viewBox="0 0 24 24"><g style="mix-blend-mode:passthrough"><g style="mix-blend-mode:passthrough"><path d="M6.857419999999999,3.8571429999999998L6.857419999999999,7.28571Q6.857419999999999,7.37014,6.873889999999999,7.45293Q6.890359999999999,7.53573,6.92267,7.61373Q6.954969999999999,7.69172,7.00188,7.76192Q7.04878,7.83211,7.10847,7.89181Q7.16817,7.9515,7.23836,7.9984Q7.30855,8.045300000000001,7.38655,8.07761Q7.46454,8.109919999999999,7.54734,8.12639Q7.63014,8.142859999999999,7.71456,8.142859999999999L9.857420000000001,8.142859999999999Q9.94184,8.142859999999999,10.02464,8.12639Q10.10744,8.109919999999999,10.18544,8.07761Q10.26343,8.045300000000001,10.33362,7.9984Q10.40382,7.9515,10.46351,7.89181Q10.523209999999999,7.83211,10.57011,7.76192Q10.61701,7.69172,10.64932,7.61373Q10.681619999999999,7.53573,10.69809,7.45293Q10.714559999999999,7.37014,10.714559999999999,7.28571L10.714559999999999,3.8571429999999998Q10.714559999999999,3.772722,10.69809,3.689923Q10.681619999999999,3.607123,10.64932,3.529128Q10.61701,3.451133,10.57011,3.38094Q10.523209999999999,3.310746,10.46351,3.251051Q10.40382,3.191356,10.33362,3.144455Q10.26343,3.0975527,10.18544,3.0652461Q10.10744,3.0329395,10.02464,3.0164698Q9.94184,3,9.857420000000001,3L7.71456,3Q7.63014,3,7.54734,3.0164698Q7.46454,3.0329395,7.38655,3.0652461Q7.30855,3.0975527,7.23836,3.144455Q7.16817,3.191356,7.10847,3.251051Q7.04878,3.310746,7.00188,3.38094Q6.954969999999999,3.451133,6.92267,3.529128Q6.890359999999999,3.607123,6.873889999999999,3.689923Q6.857419999999999,3.772722,6.857419999999999,3.8571429999999998ZM3.6428570000000002,4.92871Q3.579541,4.92871,3.517442,4.94106Q3.455343,4.9534199999999995,3.396846,4.97765Q3.33835,5.00188,3.285705,5.03705Q3.23306,5.072229999999999,3.188288,5.117Q3.143517,5.161770000000001,3.108341,5.2144200000000005Q3.0731645,5.26706,3.0489346,5.325559999999999Q3.0247046,5.38405,3.0123523,5.446149999999999Q3,5.50825,3,5.5715699999999995Q3,5.63488,3.0123523,5.69698Q3.0247046,5.75908,3.0489346,5.8175799999999995Q3.0731645,5.87608,3.108341,5.92872Q3.143517,5.98137,3.188288,6.02614Q3.23306,6.07091,3.285705,6.10608Q3.33835,6.14126,3.396846,6.16549Q3.455343,6.1897199999999994,3.517442,6.20207Q3.579541,6.2144200000000005,3.6428570000000002,6.21443L4.92857,6.21443Q4.99189,6.2144200000000005,5.053990000000001,6.20207Q5.11609,6.1897199999999994,5.174580000000001,6.16549Q5.23308,6.14126,5.2857199999999995,6.10608Q5.338369999999999,6.07091,5.38314,6.02614Q5.42791,5.98137,5.463089999999999,5.92872Q5.49826,5.87608,5.5224899999999995,5.8175799999999995Q5.5467200000000005,5.75908,5.55908,5.69698Q5.571429999999999,5.63488,5.571429999999999,5.5715699999999995Q5.571429999999999,5.50825,5.55908,5.446149999999999Q5.5467200000000005,5.38405,5.5224899999999995,5.325559999999999Q5.49826,5.26706,5.463089999999999,5.2144200000000005Q5.42791,5.161770000000001,5.38314,5.117Q5.338369999999999,5.072229999999999,5.2857199999999995,5.03705Q5.23308,5.00188,5.174580000000001,4.97765Q5.11609,4.9534199999999995,5.053990000000001,4.94106Q4.99189,4.92871,4.92857,4.92871L3.6428570000000002,4.92871ZM12.64286,4.92871Q12.57954,4.92871,12.51744,4.94106Q12.45534,4.9534199999999995,12.39684,4.97765Q12.33835,5.00188,12.2857,5.03705Q12.23306,5.072229999999999,12.18829,5.117Q12.14352,5.161770000000001,12.10834,5.2144200000000005Q12.07316,5.26706,12.04893,5.325559999999999Q12.0247,5.38405,12.01235,5.446149999999999Q12,5.50825,12,5.5715699999999995Q12,5.63488,12.01235,5.69698Q12.0247,5.75908,12.04893,5.8175799999999995Q12.07316,5.87608,12.10834,5.92872Q12.14352,5.98137,12.18829,6.02614Q12.23306,6.07091,12.2857,6.10608Q12.33835,6.14126,12.39684,6.16549Q12.45534,6.1897199999999994,12.51744,6.20207Q12.57954,6.2144200000000005,12.64286,6.21443L20.3571,6.21443Q20.4205,6.2144200000000005,20.4826,6.20207Q20.5447,6.1897199999999994,20.6032,6.16549Q20.6616,6.14126,20.7143,6.10608Q20.7669,6.07091,20.8117,6.02614Q20.8565,5.98137,20.8917,5.92872Q20.9268,5.87608,20.9511,5.8175799999999995Q20.9753,5.75908,20.9876,5.69698Q21,5.63488,21,5.5715699999999995Q21,5.50825,20.9876,5.446149999999999Q20.9753,5.38405,20.9511,5.325559999999999Q20.9268,5.26706,20.8917,5.2144200000000005Q20.8565,5.161770000000001,20.8117,5.117Q20.7669,5.072229999999999,20.7143,5.03705Q20.6616,5.00188,20.6032,4.97765Q20.5447,4.9534199999999995,20.4826,4.94106Q20.4205,4.92871,20.3571,4.92871L12.64286,4.92871ZM6.857419999999999,16.7143L6.857419999999999,20.1429Q6.857419999999999,20.2273,6.873889999999999,20.3101Q6.890359999999999,20.3929,6.92267,20.4709Q6.954969999999999,20.5489,7.00188,20.6191Q7.04878,20.6893,7.10847,20.7489Q7.16817,20.8086,7.23836,20.8555Q7.30855,20.9024,7.38655,20.9348Q7.46454,20.9671,7.54734,20.9835Q7.63014,21,7.71456,21L9.857420000000001,21Q9.94184,21,10.02464,20.9835Q10.10744,20.9671,10.18544,20.9348Q10.26343,20.9024,10.33362,20.8555Q10.40382,20.8086,10.46351,20.7489Q10.523209999999999,20.6893,10.57011,20.6191Q10.61701,20.5489,10.64932,20.4709Q10.681619999999999,20.3929,10.69809,20.3101Q10.714559999999999,20.2273,10.714559999999999,20.1429L10.714559999999999,16.7143Q10.714559999999999,16.6299,10.69809,16.5471Q10.681619999999999,16.4643,10.64932,16.3863Q10.61701,16.3083,10.57011,16.2381Q10.523209999999999,16.1679,10.46351,16.1082Q10.40382,16.0485,10.33362,16.0016Q10.26343,15.9547,10.18544,15.9224Q10.10744,15.8901,10.02464,15.8736Q9.94184,15.8571,9.857420000000001,15.8571L7.71456,15.8571Q7.63014,15.8571,7.54734,15.8736Q7.46454,15.8901,7.38655,15.9224Q7.30855,15.9547,7.23836,16.0016Q7.16817,16.0485,7.10847,16.1082Q7.04878,16.1679,7.00188,16.2381Q6.954969999999999,16.3083,6.92267,16.3863Q6.890359999999999,16.4643,6.873889999999999,16.5471Q6.857419999999999,16.6299,6.857419999999999,16.7143ZM3.6428570000000002,17.785899999999998Q3.579541,17.785899999999998,3.517442,17.7982Q3.455343,17.8106,3.396846,17.8348Q3.33835,17.859,3.285705,17.894199999999998Q3.23306,17.9294,3.188288,17.9741Q3.143517,18.018900000000002,3.108341,18.0716Q3.0731645,18.124200000000002,3.0489346,18.1827Q3.0247046,18.2412,3.0123523,18.3033Q3,18.3654,3,18.4287Q3,18.492,3.0123523,18.5541Q3.0247046,18.6162,3.0489346,18.6747Q3.0731645,18.7332,3.108341,18.785899999999998Q3.143517,18.8385,3.188288,18.8833Q3.23306,18.9281,3.285705,18.9632Q3.33835,18.9984,3.396846,19.0226Q3.455343,19.0469,3.517442,19.0592Q3.579541,19.0716,3.6428570000000002,19.0716L4.92857,19.0716Q4.99189,19.0716,5.053990000000001,19.0592Q5.11609,19.0469,5.174580000000001,19.0226Q5.23308,18.9984,5.2857199999999995,18.9632Q5.338369999999999,18.928,5.38314,18.8833Q5.42791,18.8385,5.463089999999999,18.785899999999998Q5.49826,18.7332,5.5224899999999995,18.6747Q5.5467200000000005,18.6162,5.55908,18.5541Q5.571429999999999,18.492,5.571429999999999,18.4287Q5.571429999999999,18.3654,5.55908,18.3033Q5.5467200000000005,18.2412,5.5224899999999995,18.1827Q5.49826,18.124200000000002,5.463089999999999,18.0716Q5.42791,18.018900000000002,5.38314,17.9741Q5.338369999999999,17.9294,5.2857199999999995,17.894199999999998Q5.23308,17.859,5.174580000000001,17.8348Q5.11609,17.8106,5.053990000000001,17.7982Q4.99189,17.785899999999998,4.92857,17.785899999999998L3.6428570000000002,17.785899999999998ZM12.64286,17.785899999999998Q12.57954,17.785899999999998,12.51744,17.7982Q12.45534,17.8106,12.39684,17.8348Q12.33835,17.859,12.2857,17.894199999999998Q12.23306,17.9294,12.18829,17.9741Q12.14352,18.018900000000002,12.10834,18.0716Q12.07316,18.124200000000002,12.04893,18.1827Q12.0247,18.2412,12.01235,18.3033Q12,18.3654,12,18.4287Q12,18.492,12.01235,18.5541Q12.0247,18.6162,12.04893,18.6747Q12.07316,18.7332,12.10834,18.785899999999998Q12.14352,18.8385,12.18829,18.8833Q12.23306,18.9281,12.2857,18.9632Q12.33835,18.9984,12.39684,19.0226Q12.45534,19.0469,12.51744,19.0592Q12.57954,19.0716,12.64286,19.0716L20.3571,19.0716Q20.4205,19.0716,20.4826,19.0592Q20.5447,19.0469,20.6032,19.0226Q20.6616,18.9984,20.7143,18.9632Q20.7669,18.928,20.8117,18.8833Q20.8565,18.8385,20.8917,18.785899999999998Q20.9268,18.7332,20.9511,18.6747Q20.9753,18.6162,20.9876,18.5541Q21,18.492,21,18.4287Q21,18.3654,20.9876,18.3033Q20.9753,18.2412,20.9511,18.1827Q20.9268,18.124200000000002,20.8917,18.0716Q20.8565,18.018900000000002,20.8117,17.9741Q20.7669,17.9294,20.7143,17.894199999999998Q20.6616,17.859,20.6032,17.8348Q20.5447,17.8106,20.4826,17.7982Q20.4205,17.785899999999998,20.3571,17.785899999999998L12.64286,17.785899999999998Z" fill-rule="evenodd" fill="#4CC09E" fill-opacity="1"/></g><g style="opacity:0.3199999928474426;mix-blend-mode:passthrough"><path d="M13.2852,10.285714701049805L13.2852,13.714281701049805Q13.2852,13.798711701049804,13.3016,13.881501701049805Q13.3181,13.964301701049806,13.3504,14.042301701049805Q13.3827,14.120291701049805,13.4296,14.190491701049805Q13.4765,14.260681701049805,13.5362,14.320381701049804Q13.5959,14.380071701049804,13.6661,14.426971701049805Q13.7363,14.473871701049806,13.8143,14.506181701049805Q13.8923,14.538491701049804,13.9751,14.554961701049805Q14.0579,14.571431701049804,14.1423,14.571431701049804L16.2852,14.571431701049804Q16.3696,14.571431701049804,16.4524,14.554961701049805Q16.5352,14.538491701049804,16.6132,14.506181701049805Q16.691200000000002,14.473871701049806,16.761400000000002,14.426971701049805Q16.8316,14.380071701049804,16.891199999999998,14.320381701049804Q16.9509,14.260681701049805,16.997799999999998,14.190491701049805Q17.0447,14.120291701049805,17.0771,14.042301701049805Q17.1094,13.964301701049806,17.125799999999998,13.881501701049805Q17.1423,13.798711701049804,17.1423,13.714281701049805L17.1423,10.285714701049805Q17.1423,10.201293701049805,17.125799999999998,10.118494701049805Q17.1094,10.035694701049804,17.0771,9.957699701049805Q17.0447,9.879704701049805,16.997799999999998,9.809511701049805Q16.9509,9.739317701049805,16.891199999999998,9.679622701049805Q16.8316,9.619927701049805,16.761400000000002,9.573026701049805Q16.691200000000002,9.526124401049804,16.6132,9.493817801049804Q16.5352,9.461511201049804,16.4524,9.445041501049804Q16.3696,9.428571701049805,16.2852,9.428571701049805L14.1423,9.428571701049805Q14.0579,9.428571701049805,13.9751,9.445041501049804Q13.8923,9.461511201049804,13.8143,9.493817801049804Q13.7363,9.526124401049804,13.6661,9.573026701049805Q13.5959,9.619927701049805,13.5362,9.679622701049805Q13.4765,9.739317701049805,13.4296,9.809511701049805Q13.3827,9.879704701049805,13.3504,9.957699701049805Q13.3181,10.035694701049804,13.3016,10.118494701049805Q13.2852,10.201293701049805,13.2852,10.285714701049805ZM3.6428570000000002,11.357281701049805Q3.579541,11.357281701049805,3.517442,11.369631701049805Q3.455343,11.381991701049804,3.396846,11.406221701049805Q3.33835,11.430451701049805,3.285705,11.465621701049805Q3.23306,11.500801701049804,3.188288,11.545571701049806Q3.143517,11.590341701049805,3.108341,11.642991701049805Q3.0731645,11.695631701049805,3.0489346,11.754131701049804Q3.0247046,11.812621701049805,3.0123523,11.874721701049804Q3,11.936821701049805,3,12.000141701049804Q3,12.063451701049804,3.0123523,12.125551701049805Q3.0247046,12.187651701049806,3.0489346,12.246151701049804Q3.0731645,12.304651701049805,3.108341,12.357291701049805Q3.143517,12.409941701049805,3.188288,12.454711701049805Q3.23306,12.499481701049804,3.285705,12.534651701049805Q3.33835,12.569831701049804,3.396846,12.594061701049805Q3.455343,12.618291701049804,3.517442,12.630641701049804Q3.579541,12.642991701049805,3.6428570000000002,12.643001701049805L11.35714,12.643001701049805Q11.42046,12.642991701049805,11.48256,12.630641701049804Q11.54466,12.618291701049804,11.60315,12.594061701049805Q11.66165,12.569831701049804,11.71429,12.534651701049805Q11.76694,12.499481701049804,11.81171,12.454711701049805Q11.85648,12.409941701049805,11.89166,12.357291701049805Q11.92683,12.304651701049805,11.95107,12.246151701049804Q11.97529,12.187651701049806,11.98765,12.125551701049805Q12,12.063451701049804,12,12.000141701049804Q12,11.936821701049805,11.98765,11.874721701049804Q11.97529,11.812621701049805,11.95107,11.754131701049804Q11.92683,11.695631701049805,11.89166,11.642991701049805Q11.85648,11.590341701049805,11.81171,11.545571701049806Q11.76694,11.500801701049804,11.71429,11.465621701049805Q11.66165,11.430451701049805,11.60315,11.406221701049805Q11.54466,11.381991701049804,11.48256,11.369631701049805Q11.42046,11.357281701049805,11.35714,11.357281701049805L3.6428570000000002,11.357281701049805ZM19.0706,11.357281701049805Q19.0073,11.357281701049805,18.9452,11.369631701049805Q18.8831,11.381991701049804,18.8246,11.406221701049805Q18.7661,11.430451701049805,18.7134,11.465621701049805Q18.660800000000002,11.500801701049804,18.616,11.545571701049806Q18.571199999999997,11.590341701049805,18.536099999999998,11.642991701049805Q18.5009,11.695631701049805,18.4767,11.754131701049804Q18.4524,11.812621701049805,18.4401,11.874721701049804Q18.4277,11.936821701049805,18.4277,12.000141701049804Q18.4277,12.063451701049804,18.4401,12.125551701049805Q18.4524,12.187651701049806,18.4767,12.246151701049804Q18.5009,12.304651701049805,18.536099999999998,12.357291701049805Q18.571199999999997,12.409941701049805,18.616,12.454711701049805Q18.660800000000002,12.499481701049804,18.7134,12.534651701049805Q18.7661,12.569831701049804,18.8246,12.594061701049805Q18.8831,12.618291701049804,18.9452,12.630641701049804Q19.0073,12.642991701049805,19.0706,12.643001701049805L20.3563,12.643001701049805Q20.4196,12.642991701049805,20.4817,12.630641701049804Q20.5438,12.618291701049804,20.6023,12.594061701049805Q20.6608,12.569831701049804,20.7135,12.534651701049805Q20.7661,12.499481701049804,20.8109,12.454711701049805Q20.8556,12.409941701049805,20.8908,12.357291701049805Q20.926,12.304651701049805,20.9502,12.246151701049804Q20.9745,12.187651701049806,20.9868,12.125551701049805Q20.9992,12.063451701049804,20.9992,12.000141701049804Q20.9992,11.936821701049805,20.9868,11.874721701049804Q20.9745,11.812621701049805,20.9502,11.754131701049804Q20.926,11.695631701049805,20.8908,11.642991701049805Q20.8556,11.590341701049805,20.8109,11.545571701049806Q20.7661,11.500801701049804,20.7135,11.465621701049805Q20.6608,11.430451701049805,20.6023,11.406221701049805Q20.5438,11.381991701049804,20.4817,11.369631701049805Q20.4196,11.357281701049805,20.3563,11.357281701049805L19.0706,11.357281701049805Z" fill-rule="evenodd" fill="#4CC09E" fill-opacity="1"/></g></g></svg>