<svg xmlns="http://www.w3.org/2000/svg" xmlns:xlink="http://www.w3.org/1999/xlink" fill="none" version="1.1" width="24" height="24" viewBox="0 0 24 24"><g style="mix-blend-mode:passthrough"><g style="mix-blend-mode:passthrough"><path d="M6.93584,4.7428805743286135C6.96732,4.734681774328613,7.00009,4.735057874328613,7.03093,4.7435572243286135L7.07531,4.762342174328613L11.4862,7.361740874328613C11.5258,7.384160874328613,11.555,7.419950874328613,11.5697,7.461610874328613L11.5804,7.527590874328613L11.5652,12.697620874328614C11.5658,12.764800874328614,11.5305,12.827130874328613,11.4729,12.860900874328614C11.4344,12.883410874328613,11.3899,12.890920874328613,11.3475,12.883420874328614L11.2863,12.860930874328613L6.87619,10.261530874328614C6.83754,10.238970874328613,6.8086,10.203610874328614,6.79335,10.162500874328614L6.78125,10.097370874328615L6.79553,4.927342874328613C6.79553,4.8816508743286136,6.81159,4.838590874328613,6.83972,4.804932174328613L6.89047,4.762342174328613L6.93584,4.7428805743286135ZM17.1899,4.766248474328613L17.1446,4.7467868243286135C17.0973,4.7344886243286135,17.0472,4.741483954328613,17.0051,4.766248474328613L12.5942,7.3656508743286135C12.5349,7.399270874328613,12.4987,7.462980874328613,12.5,7.531500874328613L12.5152,12.701530874328613C12.5146,12.768710874328614,12.5499,12.831040874328613,12.6075,12.864810874328613C12.6652,12.898570874328612,12.7364,12.898580874328614,12.7941,12.864840874328614L17.2042,10.265440874328613C17.2622,10.231590874328614,17.2983,10.168970874328613,17.2992,10.101280874328612L17.2849,4.931249874328613C17.2849,4.862710874328613,17.2487,4.800094874328614,17.1899,4.766248474328613ZM1.294902,14.875350874328614L1.231356,14.851750874328614C1.123903,14.833550874328614,1.0159633,14.916950874328613,1.0159633,15.040350874328613L1,20.211250874328613C1.000466587,20.278650874328612,1.0362519,20.340750874328613,1.0940997,20.374550874328612L5.5067,22.97395087432861C5.56389,23.007250874328612,5.63435,23.007250874328612,5.69154,22.97395087432861C5.74951,22.940150874328612,5.78564,22.878350874328614,5.78564,22.810650874328612L5.8016,17.639750874328612C5.80076,17.572050874328614,5.76548,17.510350874328616,5.70666,17.476450874328613L1.294902,14.875350874328614ZM11.4283,14.855450874328612L11.4736,14.874950874328613C11.5316,14.908750874328613,11.5661,14.970550874328612,11.5661,15.038250874328613L11.5829,20.208250874328613C11.5829,20.276850874328613,11.5467,20.340250874328614,11.4879,20.374150874328613L7.07783,22.973550874328613C7.0201,23.007750874328615,6.94856,23.007950874328614,6.89061,22.974150874328615C6.83267,22.94035087432861,6.7973,22.877650874328612,6.79805,22.810250874328613L6.78125,17.639350874328613C6.78125,17.57165087432861,6.81822,17.508150874328614,6.87619,17.474350874328614L11.2871,14.874950874328613C11.3297,14.849750874328613,11.3805,14.842750874328614,11.4283,14.855450874328612ZM22.8916,14.874950874328613L22.8462,14.855450874328612C22.7985,14.842750874328614,22.7477,14.849750874328613,22.7051,14.874950874328613L18.2942,17.474350874328614C18.2362,17.508150874328614,18.1992,17.57165087432861,18.1992,17.639350874328613L18.216,22.810250874328613C18.2153,22.877650874328612,18.2506,22.94035087432861,18.3086,22.974150874328615C18.3665,23.007950874328614,18.4381,23.007750874328615,18.4958,22.973550874328613L22.9059,20.374150874328613C22.9647,20.340250874328614,23.0008,20.276850874328613,23.0008,20.208250874328613L22.9849,15.038250874328613C22.984,14.970550874328612,22.9496,14.908750874328613,22.8916,14.874950874328613ZM12.7118,14.874850874328613L12.6474,14.851250874328613L12.5837,14.851950874328613C12.5011,14.867950874328614,12.432,14.941150874328613,12.432,15.039850874328613L12.416,20.210750874328614C12.4167,20.278250874328613,12.4528,20.340350874328614,12.511,20.374050874328614L16.9236,22.973450874328613C16.9807,23.006650874328614,17.0512,23.006650874328614,17.1084,22.973450874328613C17.1664,22.939550874328614,17.2025,22.87785087432861,17.2025,22.810150874328613L17.2185,17.639250874328614C17.2176,17.571550874328615,17.1823,17.509750874328613,17.1235,17.475950874328614L12.7118,14.874850874328613Z" fill-rule="evenodd" fill="#36A4FF" fill-opacity="1"/></g><g style="opacity:0.3199999928474426;mix-blend-mode:passthrough"><path d="M12.115924422836304,1.0256795L16.526924422836302,3.62762C16.584724422836302,3.66181,16.6202244228363,3.72427,16.6202244228363,3.79177C16.6202244228363,3.85928,16.584724422836302,3.92174,16.526924422836302,3.95593L12.144524422836303,6.55364C12.087824422836304,6.58922,12.016124422836304,6.58987,11.958824422836305,6.55533L7.5479344228363034,3.95593C7.490144422836304,3.92174,7.454654422836303,3.85928,7.454654422836303,3.79177C7.454654422836303,3.72427,7.490144422836304,3.66181,7.5479344228363034,3.62762L11.928624422836304,1.0256795C11.986424422836304,0.99144016,12.058124422836304,0.99144016,12.115924422836304,1.0256795ZM6.326714422836304,11.0432L6.284704422836303,11.0381C6.252214422836304,11.0382,6.220344422836304,11.047,6.192284422836304,11.0635L1.8116097228363037,13.662C1.7538174228363037,13.6962,1.7183244228363037,13.7587,1.7183244228363037,13.8262C1.7183244228363037,13.8937,1.7538174228363037,13.9561,1.8116097228363037,13.9903L6.224214422836304,16.588C6.281624422836304,16.6204,6.3516344228363035,16.6204,6.409054422836304,16.588L10.789724422836304,13.9903C10.847114422836304,13.956,10.882304422836304,13.8938,10.882304422836304,13.8266C10.882304422836304,13.7594,10.847114422836304,13.6972,10.789724422836304,13.6629L6.379644422836304,11.0618L6.326714422836304,11.0432ZM17.700724422836302,11.0381L17.742724422836304,11.0432L17.795624422836305,11.0618L22.205724422836305,13.6629C22.263124422836302,13.6972,22.298324422836302,13.7594,22.298324422836302,13.8266C22.298324422836302,13.8938,22.263124422836302,13.956,22.205724422836305,13.9903L17.825024422836304,16.588C17.767624422836303,16.6204,17.697624422836306,16.6204,17.640224422836305,16.588L13.227624422836303,13.9903C13.169824422836303,13.9561,13.134324422836304,13.8937,13.134324422836304,13.8262C13.134324422836304,13.7587,13.169824422836303,13.6962,13.227624422836303,13.662L17.608324422836304,11.0635C17.636324422836303,11.047,17.668224422836303,11.0382,17.700724422836302,11.0381Z" fill-rule="evenodd" fill="#36A4FF" fill-opacity="1"/></g></g></svg>