<svg xmlns="http://www.w3.org/2000/svg" xmlns:xlink="http://www.w3.org/1999/xlink" fill="none" version="1.1" width="24" height="24" viewBox="0 0 24 24"><g style="mix-blend-mode:passthrough"><g style="mix-blend-mode:passthrough"><path d="M4,3L8,3C9.6356,3,11.08777,3.785343,12,4.99951L12,23.0014C11.6508,23.0054,11.29816,22.8332,11.10518,22.4464L11.01693,22.2841C10.54949,21.4923,9.69574,21,8.767140000000001,21L4,21C2.895431,21,2,20.1046,2,19L2,5C2,3.895431,2.895431,3,4,3Z" fill-rule="evenodd" fill="#FA8B16" fill-opacity="1"/></g><g style="opacity:0.3199999928474426;mix-blend-mode:passthrough"><path d="M12.000976562,23.0015C12.340155,23.0054,12.683082,22.8422,12.881276,22.4744L12.983547,22.2847C13.43705,21.5007,14.30282,21,15.24078,21L20.00098,21C21.10555,21,22.000999999999998,20.1046,22.000999999999998,19L22.000999999999998,5C22.000999999999998,3.895431,21.10555,3,20.00098,3L16.00098,3C14.36538,3,12.913205,3.785343,12.000976562,4.99951L12.000976562,23.0015Z" fill-rule="evenodd" fill="#FA8B16" fill-opacity="1"/></g></g></svg>