<svg xmlns="http://www.w3.org/2000/svg" xmlns:xlink="http://www.w3.org/1999/xlink" fill="none" version="1.1" width="24" height="24" viewBox="0 0 24 24"><g style="mix-blend-mode:passthrough"><g style="mix-blend-mode:passthrough"><path d="M10.75126375,15.0694761875L7.68551875,19.6680871875C7.52125075,19.9144871875,7.43359375,20.2039971875,7.43359375,20.500137187500002C7.43359375,21.3285671875,8.10516675,22.000137187500002,8.93359375,22.000137187500002L15.06507375,22.000137187500002C15.361213750000001,22.000137187500002,15.65072375,21.912477187500002,15.89712375,21.7482171875C16.58642375,21.2886871875,16.77268375,20.3573771875,16.313153749999998,19.6680871875L13.24741375,15.0694761875C13.13755375,14.9046981875,12.996163750000001,14.7633031875,12.83138375,14.6534511875C12.14209375,14.1939221875,11.210783750000001,14.3801832875,10.75126375,15.0694761875Z" fill-rule="evenodd" fill="#FF4D4F" fill-opacity="1"/></g><g style="opacity:0.3199999928474426;mix-blend-mode:passthrough"><path d="M4,2L20,2C21.1046,2,22,2.895431,22,4L22,16C22,17.104599999999998,21.1046,18,20,18L15.2011,18L13.2474,15.0695C13.1376,14.9047,12.9962,14.7633,12.8314,14.6535C12.1421,14.1939,11.21079,14.3802,10.75126,15.0695L8.79758,18L4,18C2.895431,18,2,17.104599999999998,2,16L2,4C2,2.895431,2.895431,2,4,2Z" fill-rule="evenodd" fill="#FF4D4F" fill-opacity="1"/></g></g></svg>