<svg xmlns="http://www.w3.org/2000/svg" xmlns:xlink="http://www.w3.org/1999/xlink" fill="none" version="1.1" width="24" height="24" viewBox="0 0 24 24"><g style="mix-blend-mode:passthrough"><g style="mix-blend-mode:passthrough"><path d="M20.4115,1C21.2888,1,22,1.701376,22,2.5665500000000003L22,13.3758L14.942,13.3758C14.0735,13.3758,13.3678,14.0632,13.3537,14.9164L13.3535,14.9423L13.3535,22.9318L3.5885100000000003,22.9318C2.711205,22.9318,2,22.2304,2,21.3652L2,2.5665500000000003C2,1.701376,2.711205,1,3.5885100000000003,1L20.4115,1ZM11.9997,4.47425L11.9997,6.48348L6.31699,6.4835C5.77625,6.4835,5.33789,6.92186,5.33789,7.4626C5.33789,8.00334,5.77625,8.4417,6.31699,8.4417L11.9997,8.4417L11.9997,10.68531C11.9997,10.76046,12.0851,10.80368,12.1457,10.75916L16.3476,7.66856C16.3973,7.63203,16.397399999999998,7.55788,16.348,7.52112L12.146,4.400650000000001C12.0855,4.35574,11.9997,4.39891,11.9997,4.47425ZM9.384820000000001,13.5078L6.3541,13.5078C5.813359999999999,13.5078,5.375,13.9462,5.375,14.4869C5.375,15.0276,5.813359999999999,15.466,6.3541,15.466L9.384820000000001,15.466C9.92556,15.466,10.36391,15.0276,10.36391,14.4869C10.36391,13.9462,9.92556,13.5078,9.384820000000001,13.5078ZM7.79631,17.4248L6.3541,17.4248C5.813359999999999,17.4248,5.375,17.8632,5.375,18.4039C5.375,18.9446,5.813359999999999,19.383,6.3541,19.383L7.79631,19.383C8.33705,19.383,8.775400000000001,18.9446,8.775400000000001,18.4039C8.775400000000001,17.8632,8.33705,17.4248,7.79631,17.4248Z" fill-rule="evenodd" fill="#4CC09E" fill-opacity="1"/></g><g style="opacity:0.3199999928474426;mix-blend-mode:passthrough"><path d="M16.922464375,15.255859375L21.926544375,15.255859375L15.333984375,23.000219375L15.333984375,16.822409375C15.333984375,15.957235375,16.045165375,15.255859375,16.922494375,15.255859375L16.922464375,15.255859375Z" fill-rule="evenodd" fill="#4CC09E" fill-opacity="1"/></g></g></svg>