<svg xmlns="http://www.w3.org/2000/svg" xmlns:xlink="http://www.w3.org/1999/xlink" fill="none" version="1.1" width="682.2314453125" height="834.73388671875" viewBox="0 0 682.2314453125 834.73388671875"><g style="mix-blend-mode:passthrough" transform="matrix(-1,0,0,1,1040.37109375,0)"><g transform="matrix(-1,0,0,1,1868.37109375,0)"><g transform="matrix(0.4995165467262268,-0.8663043975830078,0.865746021270752,0.5004836320877075,-157.43163966127304,1048.736166582963)"><g><ellipse cx="998.9953031539917" cy="870.5516052246094" rx="9.214251518249512" ry="9.20831298828125" fill-opacity="0" stroke-opacity="1" stroke="#DDE1EA" fill="none" stroke-width="2"/></g><g><ellipse cx="1376.7257719039917" cy="870.5818786621094" rx="9.214251518249512" ry="9.20831298828125" fill-opacity="0" stroke-opacity="1" stroke="#DDE1EA" fill="none" stroke-width="2"/></g><g><path d="M1028.9336172607423,705.7999312988281L1154.861817260742,705.7999312988281L1154.861817260742,707.2999312988281L1153.7838172607421,706.2570312988281L1198.7608172607422,659.7583312988281L1360.6468172607422,659.7583312988281L1360.6468172607422,662.7583312988281L1199.3968172607422,662.7583312988281L1199.3968172607422,661.2583312988281L1200.4758172607421,662.3012112988281L1155.497817260742,708.7999312988281L1028.9336172607423,708.7999312988281L1028.9336172607423,705.7999312988281ZM1020.4872172607422,697.3589312988281Q1022.5096172607422,697.3589312988281,1024.3589172607421,698.1406312988281Q1026.1441172607422,698.8952312988281,1027.5200172607422,700.2702312988281Q1028.8960172607422,701.6453312988281,1029.6512172607422,703.4296312988281Q1030.4336172607423,705.2782312988281,1030.4336172607423,707.2999312988281Q1030.4336172607423,709.3215312988282,1029.6512172607422,711.1701312988281Q1028.8960172607422,712.9544312988281,1027.5200172607422,714.3295312988281Q1026.1441172607422,715.7045312988281,1024.3589172607421,716.4591312988281Q1022.5096172607422,717.2408312988281,1020.4872172607422,717.2408312988281Q1018.4648172607422,717.2408312988281,1016.6154872607422,716.4591312988281Q1014.8302972607422,715.7045312988281,1013.4543872607422,714.3295312988281Q1012.0783825607422,712.9544312988281,1011.3232062607422,711.1701312988281Q1010.5408172607422,709.3215312988282,1010.5408172607422,707.2999312988281Q1010.5408172607422,705.2782312988281,1011.3232052607422,703.4296312988281Q1012.0783819607421,701.6453312988281,1013.4543872607422,700.2702312988281Q1014.8302972607422,698.8952312988281,1016.6154872607422,698.1406312988281Q1018.4648172607422,697.3589312988281,1020.4872172607422,697.3589312988281ZM1020.4872172607422,700.3589312988281Q1017.6096372607421,700.3589312988281,1015.5750272607422,702.3922312988282Q1013.5408172607422,704.4251312988281,1013.5408172607422,707.2999312988281Q1013.5408172607422,710.1746312988281,1015.5750272607422,712.2075312988281Q1017.6096372607421,714.2408312988281,1020.4872172607422,714.2408312988281Q1023.3648172607421,714.2408312988281,1025.3994172607422,712.2075312988281Q1027.4336172607423,710.1746312988281,1027.4336172607423,707.2999312988281Q1027.4336172607423,704.4251312988281,1025.3994172607422,702.3922312988282Q1023.3648172607421,700.3589312988281,1020.4872172607422,700.3589312988281Z" fill="#DDE1EA" fill-opacity="1"/></g><g transform="matrix(-1,0,0,-1,3180.4869079589844,2012.7432250976562)"><path d="M1653.207553979492,1059.3541125488282L1779.1354539794922,1059.3541125488282L1779.1354539794922,1060.8541125488282L1778.0574539794923,1059.811212548828L1823.035453979492,1013.3125625488282L1984.9204539794923,1013.3125625488282L1984.9204539794923,1016.3125625488282L1823.671453979492,1016.3125625488282L1823.671453979492,1014.8125625488282L1824.7494539794923,1015.8554525488281L1779.7714539794922,1062.3541125488282L1653.207553979492,1062.3541125488282L1653.207553979492,1059.3541125488282ZM1883.5284539794923,1255.7636125488282Q1883.5284539794923,1258.9556125488282,1885.787453979492,1261.2136125488282Q1888.046453979492,1263.471612548828,1891.2424539794922,1263.471612548828Q1894.4374539794921,1263.471612548828,1896.6974539794921,1261.2136125488282Q1898.9564539794922,1258.9556125488282,1898.9564539794922,1255.7636125488282Q1898.9564539794922,1252.5706125488282,1896.6974539794921,1250.3136125488281Q1894.4384539794921,1248.055612548828,1891.2424539794922,1248.055612548828Q1888.046453979492,1248.055612548828,1885.787453979492,1250.3136125488281Q1883.5284539794923,1252.5706125488282,1883.5284539794923,1255.7636125488282ZM1880.5284539794923,1255.7636125488282Q1880.5284539794923,1253.585612548828,1881.3704539794921,1251.594612548828Q1882.1844539794922,1249.672612548828,1883.6664539794922,1248.191612548828Q1885.1484539794922,1246.709612548828,1887.0714539794922,1245.8966125488282Q1889.0634539794921,1245.0546125488281,1891.2424539794922,1245.055612548828Q1893.4204539794923,1245.055612548828,1895.412453979492,1245.8966125488282Q1897.3354539794923,1246.709612548828,1898.8184539794922,1248.191612548828Q1900.3004539794922,1249.672612548828,1901.113453979492,1251.594612548828Q1901.9564539794922,1253.585612548828,1901.9564539794922,1255.7636125488282Q1901.9564539794922,1257.941612548828,1901.113453979492,1259.932612548828Q1900.3004539794922,1261.854612548828,1898.8184539794922,1263.335612548828Q1897.3354539794923,1264.816612548828,1895.412453979492,1265.6296125488282Q1893.421453979492,1266.471612548828,1891.2424539794922,1266.471612548828Q1889.0634539794921,1266.471612548828,1887.0714539794922,1265.6296125488282Q1885.1484539794922,1264.816612548828,1883.6664539794922,1263.335612548828Q1882.1844539794922,1261.854612548828,1881.3704539794921,1259.932612548828Q1880.5284539794923,1257.941612548828,1880.5284539794923,1255.7636125488282ZM1591.7434539794922,1019.4167125488282Q1591.7434539794922,1022.2915125488281,1593.7776639794922,1024.3244125488281Q1595.8122739794921,1026.3577125488282,1598.6898539794922,1026.3577125488282Q1601.5674539794923,1026.3577125488282,1603.6020539794922,1024.3244125488281Q1605.6362539794923,1022.2915125488281,1605.6362539794923,1019.4167125488282Q1605.6362539794923,1016.5420125488281,1603.6020539794922,1014.5090725488282Q1601.5674539794923,1012.4757725488281,1598.6898539794922,1012.4757725488281Q1595.8122739794921,1012.4757725488281,1593.7776639794922,1014.5090725488282Q1591.7434539794922,1016.5420125488281,1591.7434539794922,1019.4167125488282L1591.7434539794922,1019.4167125488282ZM1588.7434539794922,1019.4167125488282Q1588.7434539794922,1017.3950125488282,1589.5258429794922,1015.5464725488281Q1590.2810195794923,1013.7621925488281,1591.6570239794921,1012.3870625488281Q1593.032933979492,1011.0120425488282,1594.8181239794922,1010.2574625488281Q1596.6674339794922,1009.4757725488281,1598.6898539794922,1009.4757725488281Q1600.7122539794923,1009.4757725488281,1602.5615539794921,1010.2574625488281Q1604.3467539794922,1011.0120425488282,1605.7226539794922,1012.3870625488281Q1607.0986539794922,1013.7621825488282,1607.8538539794922,1015.5464725488281Q1608.6362539794923,1017.3950125488282,1608.6362539794923,1019.4167125488282Q1608.6362539794923,1021.4384125488282,1607.8538539794922,1023.2870125488281Q1607.0986539794922,1025.071312548828,1605.7226539794922,1026.4464125488282Q1604.3467539794922,1027.8214125488282,1602.5615539794921,1028.5760125488282Q1600.7122539794923,1029.3577125488282,1598.6898539794922,1029.3577125488282Q1596.6674339794922,1029.3577125488282,1594.8181239794922,1028.5760125488282Q1593.032933979492,1027.8214125488282,1591.6570239794921,1026.4464125488282Q1590.2810203794922,1025.071212548828,1589.5258419794923,1023.2870125488281Q1588.7434539794922,1021.4384125488282,1588.7434539794922,1019.4167125488282L1588.7434539794922,1019.4167125488282ZM1637.8147539794923,1060.8541125488282Q1637.8147539794923,1063.728912548828,1639.848953979492,1065.7618125488282Q1641.8835539794923,1067.7951125488282,1644.7611539794923,1067.7951125488282Q1647.6386539794921,1067.7951125488282,1649.673253979492,1065.7618125488282Q1651.7074539794921,1063.728912548828,1651.707553979492,1060.8541125488282Q1651.7074539794921,1057.9794125488281,1649.673253979492,1055.9465125488282Q1647.6386539794921,1053.9132125488281,1644.7611539794923,1053.9132125488281Q1641.8835539794923,1053.9132125488281,1639.848953979492,1055.9465125488282Q1637.8147539794923,1057.9794125488281,1637.8147539794923,1060.8541125488282ZM1634.8147539794923,1060.8541125488282Q1634.8147539794923,1058.8325125488282,1635.597053979492,1056.9839125488281Q1636.3522539794922,1055.199612548828,1637.7282539794921,1053.8245125488281Q1639.1041539794921,1052.4494125488281,1640.8893539794922,1051.6949125488281Q1642.7387539794922,1050.9132125488281,1644.7611539794923,1050.9132125488281Q1646.7835539794921,1050.9132125488281,1648.6328539794922,1051.6949125488281Q1650.4180539794922,1052.4494125488281,1651.7939539794922,1053.8245125488281Q1653.1699539794922,1055.199612548828,1653.9251539794923,1056.9839125488281Q1654.707553979492,1058.8325125488282,1654.707553979492,1060.8541125488282Q1654.707553979492,1062.8758125488282,1653.9251539794923,1064.7244125488282Q1653.1699539794922,1066.508612548828,1651.7939539794922,1067.883812548828Q1650.4180539794922,1069.258812548828,1648.6328539794922,1070.0134125488282Q1646.7835539794921,1070.7951125488282,1644.7611539794923,1070.7951125488282Q1642.7387539794922,1070.7951125488282,1640.8893539794922,1070.0134125488282Q1639.1041539794921,1069.258812548828,1637.7282539794921,1067.883812548828Q1636.3522539794922,1066.508712548828,1635.597053979492,1064.7244125488282Q1634.8147539794923,1062.8758125488282,1634.8147539794923,1060.8541125488282ZM1984.8844539794923,1014.8125625488282Q1984.8844539794923,1017.6873125488281,1986.9194539794921,1019.7202125488282Q1988.9534539794922,1021.7535125488281,1991.8314539794922,1021.7535125488281Q1994.708453979492,1021.7535125488281,1996.7434539794922,1019.7202125488282Q1998.7774539794923,1017.6873125488281,1998.7774539794923,1014.8125625488282Q1998.7774539794923,1011.9378025488281,1996.7434539794922,1009.9049125488282Q1994.708453979492,1007.8716125488281,1991.8314539794922,1007.8716125488281Q1988.9534539794922,1007.8716125488281,1986.9194539794921,1009.9049125488282Q1984.8844539794923,1011.9378025488281,1984.8844539794923,1014.8125625488282ZM1981.8844539794923,1014.8125625488282Q1981.8844539794923,1012.7908525488281,1982.6674539794922,1010.9423225488281Q1983.4224539794923,1009.1580725488282,1984.7984539794923,1007.7829125488281Q1986.1744539794922,1006.4078535488281,1987.959453979492,1005.6533025488282Q1989.8084539794922,1004.8716125488281,1991.8314539794922,1004.8716125488281Q1993.8534539794923,1004.8716125488281,1995.7034539794922,1005.6533035488281Q1997.488453979492,1006.4078825488281,1998.8644539794923,1007.7829125488281Q2000.2404539794923,1009.1579725488281,2000.9954539794921,1010.9423225488281Q2001.7774539794923,1012.7908525488281,2001.7774539794923,1014.8125625488282Q2001.7774539794923,1016.8343125488282,2000.9954539794921,1018.6828125488281Q2000.2404539794923,1020.4671125488281,1998.8644539794923,1021.8422125488281Q1997.488453979492,1023.2172125488281,1995.7034539794922,1023.9718125488281Q1993.8534539794923,1024.7535125488282,1991.8314539794922,1024.7535125488282Q1989.8084539794922,1024.7535125488282,1987.959453979492,1023.9718125488281Q1986.1744539794922,1023.2173125488281,1984.7984539794923,1021.8422125488281Q1983.4224539794923,1020.4670125488282,1982.6674539794922,1018.6828125488281Q1981.8844539794923,1016.8343125488282,1981.8844539794923,1014.8125625488282Z" fill="#DDE1EA" fill-opacity="1"/></g><g><path d="M891.4967828857422,808.6597625488281L1003.6035828857422,808.6597625488281L1003.6035828857422,809.1597625488281L1003.2395828857422,808.8169625488281L1027.958582885742,782.5695225488281L1091.1385828857422,782.5695225488281L1091.1385828857422,783.5695225488281L1028.1745828857422,783.5695225488281L1028.1745828857422,783.0695225488281L1028.5385828857422,783.4123225488281L1003.8195828857422,809.6597625488281L891.4967828857422,809.6597625488281L891.4967828857422,808.6597625488281ZM879.9789828857422,818.6354625488282L1012.0495828857422,818.6354625488282L1012.0495828857422,819.1354625488282L1011.6965828857421,818.7817625488282L1034.1105828857421,796.3819625488281L1074.246582885742,796.3819625488281L1074.246582885742,797.3819625488281L1034.3175828857422,797.3819625488281L1034.3175828857422,796.8819625488281L1034.6715828857423,797.2356625488281L1012.2565828857422,819.6354625488282L879.9789828857422,819.6354625488282L879.9789828857422,818.6354625488282ZM913.7645828857421,829.3784625488281L1052.746582885742,829.3784625488281L1052.746582885742,830.3784625488281L913.7645828857421,830.3784625488281L913.7645828857421,829.3784625488281ZM829.3020064657422,840.1214625488282L1098.8185828857422,840.8888625488281L1098.815582885742,841.8888625488281L829.2991593057421,841.1214625488282L829.3020064657422,840.1214625488282ZM891.4967828857422,930.6703625488282L1003.8105828857422,930.6703625488282L1030.063582885742,956.9063625488282L1029.7105828857423,957.2603625488281L1029.7105828857423,956.7603625488281L1091.1385828857422,956.7603625488281L1091.1385828857422,957.7603625488281L1029.5035828857422,957.7603625488281L1003.2495828857423,931.5233625488281L1003.6035828857422,931.1703625488282L1003.6035828857422,931.6703625488282L891.4967828857422,931.6703625488282L891.4967828857422,930.6703625488282ZM879.9789828857422,920.6943625488282L1012.2565828857422,920.6943625488282L1034.6715828857423,943.0943625488281L1034.3175828857422,943.4473625488281L1034.3175828857422,942.9473625488281L1074.246582885742,942.9473625488281L1074.246582885742,943.9473625488281L1034.1105828857421,943.9473625488281L1011.6965828857421,921.5483625488281L1012.0495828857422,921.1943625488282L1012.0495828857422,921.6943625488282L879.9789828857422,921.6943625488282L879.9789828857422,920.6943625488282ZM913.7645828857421,909.9513625488281L1052.746582885742,909.9513625488281L1052.746582885742,910.9513625488281L913.7645828857421,910.9513625488281L913.7645828857421,909.9513625488281ZM829.2991593157421,899.2083625488281L1098.815582885742,898.4403625488281L1098.8185828857422,899.4403625488281L829.3020064557422,900.2083625488281L829.2991593157421,899.2083625488281ZM1090.6385828857422,783.0695225488281Q1090.6385828857422,780.9552025488281,1092.1345828857422,779.4602235488281Q1093.6305828857421,777.9653625488281,1095.7455828857421,777.9653625488281Q1097.861582885742,777.9653625488281,1099.3575828857422,779.4602235488281Q1100.853582885742,780.9552025488281,1100.853582885742,783.0695225488281Q1100.853582885742,785.1838325488281,1099.3575828857422,786.6788125488281Q1097.861582885742,788.1736725488281,1095.7455828857421,788.1736725488281Q1093.6305828857421,788.1736725488281,1092.1345828857422,786.6788125488281Q1090.6385828857422,785.1838325488281,1090.6385828857422,783.0695125488281L1090.6385828857422,783.0695225488281ZM1091.6385828857422,783.0695125488281Q1091.6385828857422,784.7694025488281,1092.8415828857421,785.9714825488281Q1094.0445828857423,787.1736725488281,1095.7455828857421,787.1736725488281Q1097.4475828857421,787.1736725488281,1098.650582885742,785.9714825488281Q1099.853582885742,784.7694025488281,1099.853582885742,783.0695225488281Q1099.853582885742,781.3696325488281,1098.650582885742,780.1675525488281Q1097.4475828857421,778.9653625488281,1095.7455828857421,778.9653625488281Q1094.0445828857423,778.9653625488281,1092.8415828857421,780.1675525488281Q1091.6385828857422,781.3696325488281,1091.6385828857422,783.0695225488281L1091.6385828857422,783.0695125488281ZM1073.746582885742,796.8819625488281Q1073.7455828857421,794.7676625488281,1075.2415828857422,793.2726625488282Q1076.737582885742,791.7778625488281,1078.853582885742,791.7778625488281Q1080.9685828857423,791.7778625488281,1082.4645828857422,793.2726625488282Q1083.9605828857423,794.7676625488281,1083.9605828857423,796.8819625488281Q1083.9605828857423,798.9962625488281,1082.4645828857422,800.4912625488281Q1080.9685828857423,801.9861625488281,1078.853582885742,801.9861625488281Q1076.737582885742,801.9861625488281,1075.2415828857422,800.4912625488281Q1073.7455828857421,798.9962625488281,1073.746582885742,796.8819625488281ZM1074.746582885742,796.8819625488281Q1074.7455828857421,798.5818625488281,1075.948582885742,799.7839625488281Q1077.1515828857423,800.9861625488281,1078.853582885742,800.9861625488281Q1080.554582885742,800.9861625488281,1081.757582885742,799.7839625488281Q1082.9605828857423,798.5818625488281,1082.9605828857423,796.8819625488281Q1082.9605828857423,795.1820625488281,1081.757582885742,793.9800625488281Q1080.554582885742,792.7778625488281,1078.853582885742,792.7778625488281Q1077.1515828857423,792.7778625488281,1075.948582885742,793.9800625488281Q1074.746582885742,795.1820625488281,1074.746582885742,796.8819625488281ZM1057.353582885742,834.9825625488281Q1055.237582885742,834.9825625488281,1053.7425828857422,833.4877625488281Q1052.246582885742,831.9927625488281,1052.246582885742,829.8784625488281Q1052.246582885742,827.7641625488282,1053.7425828857422,826.2691625488281Q1055.237582885742,824.7742625488281,1057.353582885742,824.7742625488281Q1059.4685828857423,824.7742625488281,1060.9645828857422,826.2691625488281Q1062.4605828857423,827.7641625488282,1062.4605828857423,829.8784625488281Q1062.4605828857423,831.9927625488281,1060.9645828857422,833.4877625488281Q1059.4685828857423,834.9825625488281,1057.353582885742,834.9825625488281ZM1057.353582885742,833.9825625488281Q1059.054582885742,833.9825625488281,1060.257582885742,832.7803625488282Q1061.4605828857423,831.5783625488282,1061.4605828857423,829.8784625488281Q1061.4605828857423,828.1785625488282,1060.257582885742,826.9764625488281Q1059.054582885742,825.7742625488281,1057.353582885742,825.7742625488281Q1055.6515828857423,825.7742625488281,1054.448582885742,826.9764625488281Q1053.246582885742,828.1785625488282,1053.246582885742,829.8784625488281Q1053.246582885742,831.5783625488282,1054.448582885742,832.7803625488282Q1055.6515828857423,833.9825625488281,1057.353582885742,833.9825625488281ZM904.8181828857422,829.8784625488281Q904.8181828857422,827.7641625488282,906.3140828857422,826.2691625488281Q907.8099828857422,824.7742625488281,909.9252828857421,824.7742625488281Q912.0406828857422,824.7742625488281,913.5364828857422,826.2691625488281Q915.0323828857422,827.7641625488282,915.0323828857422,829.8784625488281Q915.0323828857422,831.9927625488281,913.5364828857422,833.4877625488281Q912.0406828857422,834.9825625488281,909.9252828857421,834.9825625488281Q907.8098828857421,834.9825625488281,906.3140828857422,833.4877625488281Q904.8181828857422,831.9927625488281,904.8181828857422,829.8784625488281ZM905.8181828857422,829.8784625488281Q905.8181828857422,831.5783625488282,907.0209828857422,832.7803625488282Q908.2239828857422,833.9825625488281,909.9252828857421,833.9825625488281Q911.6265828857422,833.9825625488281,912.8295828857422,832.7803625488282Q914.0323828857422,831.5783625488282,914.0323828857422,829.8784625488281Q914.0323828857422,828.1785625488282,912.8295828857422,826.9764625488281Q911.6265828857422,825.7742625488281,909.9252828857421,825.7742625488281Q908.2239828857422,825.7742625488281,907.0209828857422,826.9764625488281Q905.8181828857422,828.1785625488282,905.8181828857422,829.8784625488281ZM1091.6385828857422,957.2603625488281Q1091.6385828857422,958.9603625488281,1092.8415828857421,960.1623625488281Q1094.0445828857423,961.3643625488281,1095.7455828857421,961.3643625488281Q1097.4475828857421,961.3643625488281,1098.650582885742,960.1623625488281Q1099.853582885742,958.9603625488281,1099.853582885742,957.2603625488281Q1099.853582885742,955.5603625488282,1098.650582885742,954.3583625488282Q1097.4475828857421,953.1563625488282,1095.7455828857421,953.1563625488282Q1094.0445828857423,953.1563625488282,1092.8415828857421,954.3583625488282Q1091.6385828857422,955.5603625488282,1091.6385828857422,957.2603625488281ZM1090.6385828857422,957.2603625488281Q1090.6385828857422,955.1453625488282,1092.1345828857422,953.6503625488281Q1093.6305828857421,952.1563625488282,1095.7455828857421,952.1563625488282Q1097.861582885742,952.1563625488282,1099.3575828857422,953.6503625488281Q1100.853582885742,955.1453625488282,1100.853582885742,957.2603625488281Q1100.853582885742,959.3743625488281,1099.3575828857422,960.8693625488281Q1097.861582885742,962.3643625488281,1095.7455828857421,962.3643625488281Q1093.6305828857421,962.3643625488281,1092.1345828857422,960.8693625488281Q1090.6385828857422,959.3743625488281,1090.6385828857422,957.2603625488281ZM1074.746582885742,943.4473625488281Q1074.746582885742,945.1473625488281,1075.948582885742,946.3493625488281Q1077.1515828857423,947.5513625488281,1078.853582885742,947.5513625488281Q1080.554582885742,947.5513625488281,1081.757582885742,946.3493625488281Q1082.9605828857423,945.1473625488281,1082.9605828857423,943.4473625488281Q1082.9605828857423,941.7473625488282,1081.757582885742,940.5453625488282Q1080.554582885742,939.343362548828,1078.853582885742,939.343362548828Q1077.1515828857423,939.343362548828,1075.948582885742,940.5453625488282Q1074.7455828857421,941.7473625488282,1074.746582885742,943.4473625488281ZM1073.746582885742,943.4473625488281Q1073.7455828857421,941.3333625488281,1075.2415828857422,939.8383625488282Q1076.737582885742,938.343362548828,1078.853582885742,938.343362548828Q1080.9685828857423,938.343362548828,1082.4645828857422,939.8383625488282Q1083.9605828857423,941.3333625488281,1083.9605828857423,943.4473625488281Q1083.9605828857423,945.5623625488281,1082.4645828857422,947.0573625488281Q1080.9685828857423,948.5513625488281,1078.853582885742,948.5513625488281Q1076.737582885742,948.5513625488281,1075.2415828857422,947.0573625488281Q1073.746582885742,945.5623625488281,1073.746582885742,943.4473625488281ZM1057.353582885742,906.3473625488282Q1055.6515828857423,906.3473625488282,1054.448582885742,907.5493625488282Q1053.246582885742,908.7513625488282,1053.246582885742,910.4513625488281Q1053.246582885742,912.1513625488282,1054.448582885742,913.3533625488282Q1055.6515828857423,914.5553625488282,1057.353582885742,914.5553625488282Q1059.054582885742,914.5553625488282,1060.257582885742,913.3533625488282Q1061.4605828857423,912.1513625488282,1061.4605828857423,910.4513625488281Q1061.4605828857423,908.7513625488282,1060.257582885742,907.5493625488282Q1059.054582885742,906.3473625488282,1057.353582885742,906.3473625488282ZM1057.353582885742,905.3473625488282Q1059.4685828857423,905.3473625488282,1060.9645828857422,906.8423625488281Q1062.4605828857423,908.3373625488282,1062.4605828857423,910.4513625488281Q1062.4605828857423,912.5653625488281,1060.9645828857422,914.0603625488282Q1059.4685828857423,915.5553625488282,1057.353582885742,915.5553625488282Q1055.237582885742,915.5553625488282,1053.7425828857422,914.0603625488282Q1052.246582885742,912.5653625488281,1052.246582885742,910.4513625488281Q1052.246582885742,908.3373625488282,1053.7425828857422,906.8423625488281Q1055.237582885742,905.3473625488282,1057.353582885742,905.3473625488282ZM905.8181828857422,910.4513625488281Q905.8181828857422,912.1513625488282,907.0209828857422,913.3533625488282Q908.2239828857422,914.5553625488282,909.9252828857421,914.5553625488282Q911.6265828857422,914.5553625488282,912.8295828857422,913.3533625488282Q914.0323828857422,912.1513625488282,914.0323828857422,910.4513625488281Q914.0323828857422,908.7513625488282,912.8295828857422,907.5493625488282Q911.6265828857422,906.3473625488282,909.9252828857421,906.3473625488282Q908.2239828857422,906.3473625488282,907.0209828857422,907.5493625488282Q905.8181828857422,908.7513625488282,905.8181828857422,910.4513625488281ZM904.8181828857422,910.4513625488281Q904.8181828857422,908.3373625488282,906.3140828857422,906.8423625488281Q907.8098828857421,905.3473625488282,909.9252828857421,905.3473625488282Q912.0406828857422,905.3473625488282,913.5364828857422,906.8423625488281Q915.0323828857422,908.3373625488282,915.0323828857422,910.4513625488281Q915.0323828857422,912.5653625488281,913.5364828857422,914.0603625488282Q912.0406828857422,915.5553625488282,909.9252828857421,915.5553625488282Q907.8099828857422,915.5553625488282,906.3140828857422,914.0603625488282Q904.8181828857422,912.5653625488281,904.8181828857422,910.4513625488281Z" fill="#DDE1EA" fill-opacity="1"/></g><g transform="matrix(-1,0,0,1,3094.4917907714844,0)"><path d="M1609.4420953857423,808.6587859863281L1721.548895385742,808.6587859863281L1721.548895385742,809.1587859863281L1721.1848953857423,808.8159859863281L1745.903895385742,782.5685459863281L1809.0838953857422,782.5685459863281L1809.0838953857422,783.5685459863281L1746.1198953857422,783.5685459863281L1746.1198953857422,783.0685459863281L1746.4838953857422,783.4113459863281L1721.7648953857422,809.6587859863281L1609.4420953857423,809.6587859863281L1609.4420953857423,808.6587859863281ZM1597.9242953857422,818.6344859863282L1729.9948953857422,818.6344859863282L1729.9948953857422,819.1344859863282L1729.6418953857421,818.7807859863282L1752.0558953857421,796.3809859863281L1792.191895385742,796.3809859863281L1792.191895385742,797.3809859863281L1752.2628953857422,797.3809859863281L1752.2628953857422,796.8809859863281L1752.6168953857423,797.2346859863281L1730.201895385742,819.6344859863282L1597.9242953857422,819.6344859863282L1597.9242953857422,818.6344859863282ZM1631.7098953857421,829.3774859863281L1770.691895385742,829.3774859863281L1770.691895385742,830.3774859863281L1631.7098953857421,830.3774859863281L1631.7098953857421,829.3774859863281ZM1547.2473189657421,840.1204859863282L1816.7638953857422,840.8878859863281L1816.760895385742,841.8878859863281L1547.2444718057423,841.1204859863282L1547.2473189657421,840.1204859863282ZM1609.4420953857423,930.6693859863282L1721.7558953857422,930.6693859863282L1748.008895385742,956.9053859863282L1747.6558953857423,957.2593859863281L1747.6558953857423,956.7593859863281L1809.0838953857422,956.7593859863281L1809.0838953857422,957.7593859863281L1747.4488953857422,957.7593859863281L1721.1948953857423,931.5223859863281L1721.548895385742,931.1693859863282L1721.548895385742,931.6693859863282L1609.4420953857423,931.6693859863282L1609.4420953857423,930.6693859863282ZM1597.9242953857422,920.6933859863282L1730.201895385742,920.6933859863282L1752.6168953857423,943.0933859863281L1752.2628953857422,943.4463859863281L1752.2628953857422,942.9463859863281L1792.191895385742,942.9463859863281L1792.191895385742,943.9463859863281L1752.0558953857421,943.9463859863281L1729.6418953857421,921.5473859863281L1729.9948953857422,921.1933859863282L1729.9948953857422,921.6933859863282L1597.9242953857422,921.6933859863282L1597.9242953857422,920.6933859863282ZM1631.7098953857421,909.9503859863281L1770.691895385742,909.9503859863281L1770.691895385742,910.9503859863281L1631.7098953857421,910.9503859863281L1631.7098953857421,909.9503859863281ZM1547.2444718157421,899.2073859863281L1816.760895385742,898.4393859863281L1816.7638953857422,899.4393859863281L1547.2473189557422,900.2073859863281L1547.2444718157421,899.2073859863281ZM1808.5838953857422,783.0685459863281Q1808.5838953857422,780.9542259863281,1810.0798953857422,779.4592469863281Q1811.5758953857421,777.9643859863281,1813.6908953857421,777.9643859863281Q1815.806895385742,777.9643859863281,1817.3028953857422,779.4592469863281Q1818.798895385742,780.9542259863281,1818.798895385742,783.0685459863281Q1818.798895385742,785.1828559863281,1817.3028953857422,786.6778359863281Q1815.806895385742,788.1726959863281,1813.6908953857421,788.1726959863281Q1811.5758953857421,788.1726959863281,1810.0798953857422,786.6778359863281Q1808.5838953857422,785.1828559863281,1808.5838953857422,783.0685359863281L1808.5838953857422,783.0685459863281ZM1809.5838953857422,783.0685359863281Q1809.5838953857422,784.7684259863281,1810.7868953857421,785.9705059863281Q1811.9898953857423,787.1726959863281,1813.6908953857421,787.1726959863281Q1815.3928953857421,787.1726959863281,1816.595895385742,785.9705059863281Q1817.798895385742,784.7684259863281,1817.798895385742,783.0685459863281Q1817.798895385742,781.3686559863281,1816.595895385742,780.1665759863281Q1815.3928953857421,778.9643859863281,1813.6908953857421,778.9643859863281Q1811.9898953857423,778.9643859863281,1810.7868953857421,780.1665759863281Q1809.5838953857422,781.3686559863281,1809.5838953857422,783.0685459863281L1809.5838953857422,783.0685359863281ZM1791.691895385742,796.8809859863281Q1791.6908953857421,794.7666859863281,1793.1868953857422,793.2716859863282Q1794.682895385742,791.7768859863281,1796.798895385742,791.7768859863281Q1798.9138953857423,791.7768859863281,1800.4098953857422,793.2716859863282Q1801.9058953857423,794.7666859863281,1801.9058953857423,796.8809859863281Q1801.9058953857423,798.9952859863281,1800.4098953857422,800.4902859863281Q1798.9138953857423,801.9851859863281,1796.798895385742,801.9851859863281Q1794.682895385742,801.9851859863281,1793.1868953857422,800.4902859863281Q1791.6908953857421,798.9952859863281,1791.691895385742,796.8809859863281ZM1792.691895385742,796.8809859863281Q1792.6908953857421,798.5808859863281,1793.893895385742,799.7829859863281Q1795.0968953857423,800.9851859863281,1796.798895385742,800.9851859863281Q1798.499895385742,800.9851859863281,1799.702895385742,799.7829859863281Q1800.9058953857423,798.5808859863281,1800.9058953857423,796.8809859863281Q1800.9058953857423,795.1810859863281,1799.702895385742,793.9790859863281Q1798.499895385742,792.7768859863281,1796.798895385742,792.7768859863281Q1795.0968953857423,792.7768859863281,1793.893895385742,793.9790859863281Q1792.691895385742,795.1810859863281,1792.691895385742,796.8809859863281ZM1775.298895385742,834.9815859863281Q1773.182895385742,834.9815859863281,1771.6878953857422,833.4867859863281Q1770.191895385742,831.9917859863281,1770.191895385742,829.8774859863281Q1770.191895385742,827.7631859863282,1771.6878953857422,826.2681859863281Q1773.182895385742,824.7732859863281,1775.298895385742,824.7732859863281Q1777.4138953857423,824.7732859863281,1778.9098953857422,826.2681859863281Q1780.4058953857423,827.7631859863282,1780.4058953857423,829.8774859863281Q1780.4058953857423,831.9917859863281,1778.9098953857422,833.4867859863281Q1777.4138953857423,834.9815859863281,1775.298895385742,834.9815859863281ZM1775.298895385742,833.9815859863281Q1776.999895385742,833.9815859863281,1778.202895385742,832.7793859863282Q1779.4058953857423,831.5773859863282,1779.4058953857423,829.8774859863281Q1779.4058953857423,828.1775859863282,1778.202895385742,826.9754859863281Q1776.999895385742,825.7732859863281,1775.298895385742,825.7732859863281Q1773.5968953857423,825.7732859863281,1772.393895385742,826.9754859863281Q1771.191895385742,828.1775859863282,1771.191895385742,829.8774859863281Q1771.191895385742,831.5773859863282,1772.393895385742,832.7793859863282Q1773.5968953857423,833.9815859863281,1775.298895385742,833.9815859863281ZM1622.763495385742,829.8774859863281Q1622.763495385742,827.7631859863282,1624.2593953857422,826.2681859863281Q1625.755295385742,824.7732859863281,1627.8705953857423,824.7732859863281Q1629.9859953857422,824.7732859863281,1631.481795385742,826.2681859863281Q1632.9776953857422,827.7631859863282,1632.9776953857422,829.8774859863281Q1632.9776953857422,831.9917859863281,1631.481795385742,833.4867859863281Q1629.9859953857422,834.9815859863281,1627.8705953857423,834.9815859863281Q1625.7551953857421,834.9815859863281,1624.2593953857422,833.4867859863281Q1622.763495385742,831.9917859863281,1622.763495385742,829.8774859863281ZM1623.763495385742,829.8774859863281Q1623.763495385742,831.5773859863282,1624.9662953857421,832.7793859863282Q1626.169295385742,833.9815859863281,1627.8705953857423,833.9815859863281Q1629.5718953857422,833.9815859863281,1630.7748953857422,832.7793859863282Q1631.9776953857422,831.5773859863282,1631.9776953857422,829.8774859863281Q1631.9776953857422,828.1775859863282,1630.7748953857422,826.9754859863281Q1629.5718953857422,825.7732859863281,1627.8705953857423,825.7732859863281Q1626.169295385742,825.7732859863281,1624.9662953857421,826.9754859863281Q1623.763495385742,828.1775859863282,1623.763495385742,829.8774859863281ZM1809.5838953857422,957.2593859863281Q1809.5838953857422,958.9593859863281,1810.7868953857421,960.1613859863281Q1811.9898953857423,961.3633859863281,1813.6908953857421,961.3633859863281Q1815.3928953857421,961.3633859863281,1816.595895385742,960.1613859863281Q1817.798895385742,958.9593859863281,1817.798895385742,957.2593859863281Q1817.798895385742,955.5593859863282,1816.595895385742,954.3573859863282Q1815.3928953857421,953.1553859863282,1813.6908953857421,953.1553859863282Q1811.9898953857423,953.1553859863282,1810.7868953857421,954.3573859863282Q1809.5838953857422,955.5593859863282,1809.5838953857422,957.2593859863281ZM1808.5838953857422,957.2593859863281Q1808.5838953857422,955.1443859863282,1810.0798953857422,953.6493859863281Q1811.5758953857421,952.1553859863282,1813.6908953857421,952.1553859863282Q1815.806895385742,952.1553859863282,1817.3028953857422,953.6493859863281Q1818.798895385742,955.1443859863282,1818.798895385742,957.2593859863281Q1818.798895385742,959.3733859863281,1817.3028953857422,960.8683859863281Q1815.806895385742,962.3633859863281,1813.6908953857421,962.3633859863281Q1811.5758953857421,962.3633859863281,1810.0798953857422,960.8683859863281Q1808.5838953857422,959.3733859863281,1808.5838953857422,957.2593859863281ZM1792.691895385742,943.4463859863281Q1792.691895385742,945.1463859863281,1793.893895385742,946.3483859863281Q1795.0968953857423,947.5503859863281,1796.798895385742,947.5503859863281Q1798.499895385742,947.5503859863281,1799.702895385742,946.3483859863281Q1800.9058953857423,945.1463859863281,1800.9058953857423,943.4463859863281Q1800.9058953857423,941.7463859863282,1799.702895385742,940.5443859863282Q1798.499895385742,939.342385986328,1796.798895385742,939.342385986328Q1795.0968953857423,939.342385986328,1793.893895385742,940.5443859863282Q1792.6908953857421,941.7463859863282,1792.691895385742,943.4463859863281ZM1791.691895385742,943.4463859863281Q1791.6908953857421,941.3323859863281,1793.1868953857422,939.8373859863282Q1794.682895385742,938.342385986328,1796.798895385742,938.342385986328Q1798.9138953857423,938.342385986328,1800.4098953857422,939.8373859863282Q1801.9058953857423,941.3323859863281,1801.9058953857423,943.4463859863281Q1801.9058953857423,945.5613859863281,1800.4098953857422,947.0563859863281Q1798.9138953857423,948.5503859863281,1796.798895385742,948.5503859863281Q1794.682895385742,948.5503859863281,1793.1868953857422,947.0563859863281Q1791.691895385742,945.5613859863281,1791.691895385742,943.4463859863281ZM1775.298895385742,906.3463859863282Q1773.5968953857423,906.3463859863282,1772.393895385742,907.5483859863282Q1771.191895385742,908.7503859863282,1771.191895385742,910.4503859863281Q1771.191895385742,912.1503859863282,1772.393895385742,913.3523859863282Q1773.5968953857423,914.5543859863282,1775.298895385742,914.5543859863282Q1776.999895385742,914.5543859863282,1778.202895385742,913.3523859863282Q1779.4058953857423,912.1503859863282,1779.4058953857423,910.4503859863281Q1779.4058953857423,908.7503859863282,1778.202895385742,907.5483859863282Q1776.999895385742,906.3463859863282,1775.298895385742,906.3463859863282ZM1775.298895385742,905.3463859863282Q1777.4138953857423,905.3463859863282,1778.9098953857422,906.8413859863281Q1780.4058953857423,908.3363859863282,1780.4058953857423,910.4503859863281Q1780.4058953857423,912.5643859863281,1778.9098953857422,914.0593859863282Q1777.4138953857423,915.5543859863282,1775.298895385742,915.5543859863282Q1773.182895385742,915.5543859863282,1771.6878953857422,914.0593859863282Q1770.191895385742,912.5643859863281,1770.191895385742,910.4503859863281Q1770.191895385742,908.3363859863282,1771.6878953857422,906.8413859863281Q1773.182895385742,905.3463859863282,1775.298895385742,905.3463859863282ZM1623.763495385742,910.4503859863281Q1623.763495385742,912.1503859863282,1624.9662953857421,913.3523859863282Q1626.169295385742,914.5543859863282,1627.8705953857423,914.5543859863282Q1629.5718953857422,914.5543859863282,1630.7748953857422,913.3523859863282Q1631.9776953857422,912.1503859863282,1631.9776953857422,910.4503859863281Q1631.9776953857422,908.7503859863282,1630.7748953857422,907.5483859863282Q1629.5718953857422,906.3463859863282,1627.8705953857423,906.3463859863282Q1626.169295385742,906.3463859863282,1624.9662953857421,907.5483859863282Q1623.763495385742,908.7503859863282,1623.763495385742,910.4503859863281ZM1622.763495385742,910.4503859863281Q1622.763495385742,908.3363859863282,1624.2593953857422,906.8413859863281Q1625.7551953857421,905.3463859863282,1627.8705953857423,905.3463859863282Q1629.9859953857422,905.3463859863282,1631.481795385742,906.8413859863281Q1632.9776953857422,908.3363859863282,1632.9776953857422,910.4503859863281Q1632.9776953857422,912.5643859863281,1631.481795385742,914.0593859863282Q1629.9859953857422,915.5543859863282,1627.8705953857423,915.5543859863282Q1625.755295385742,915.5543859863282,1624.2593953857422,914.0593859863282Q1622.763495385742,912.5643859863281,1622.763495385742,910.4503859863281Z" fill="#DDE1EA" fill-opacity="1"/></g></g><g><g><path d="M1189.530618310547,455.31780322265627L1278.740018310547,404.9405032226563L1279.2900183105469,405.91480322265625L1190.0808183105469,456.29180322265626L1189.530618310547,455.31780322265627ZM1190.3247183105468,557.7038032226562L1190.3247183105468,455.80480322265623L1190.8842183105469,455.80480322265623L1190.6066183105468,456.28980322265625L1102.4758873105468,405.9133032226563L1103.0311483105468,404.94190322265626L1191.443618310547,455.47980322265624L1191.443618310547,557.7038032226562L1190.3247183105468,557.7038032226562ZM1101.395229310547,403.79820322265624L1190.8842183105469,352.1147642226563L1280.653018310547,403.95980322265626L1280.653018310547,507.64980322265626L1190.8842183105469,559.4948032226563L1101.1155783105469,507.64980322265626L1101.1155783105469,403.95980322265626L1101.395229310547,403.79820322265624ZM1101.9548073105468,404.76710322265626L1101.6750183105469,404.28270322265627L1102.2344583105469,404.28270322265627L1102.2344583105469,507.3268032226563L1101.6750183105469,507.3268032226563L1101.9548073105468,506.84180322265627L1191.164018310547,558.3638032226563L1190.8842183105469,558.8488032226562L1190.6044183105469,558.3638032226563L1279.814018310547,506.84180322265627L1280.093018310547,507.3268032226563L1279.5340183105468,507.3268032226563L1279.5340183105468,404.28270322265627L1280.093018310547,404.28270322265627L1279.814018310547,404.76710322265626L1190.6044183105469,353.24525222265623L1190.8842183105469,352.76080322265625L1191.164018310547,353.24525222265623L1101.9548073105468,404.76710322265626Z" fill="#DEE2EA" fill-opacity="1"/></g><g><path d="M1189.2956464355468,455.02198447265624L1241.9448464355469,425.25378447265626L1242.8308464355468,426.82068447265624L1190.1815464355468,456.5888844726562L1189.2956464355468,455.02198447265624ZM1189.9831464355468,515.3420844726562L1189.9831464355468,455.58158447265623L1190.883146435547,455.58158447265623L1190.4353464355468,456.36228447265626L1138.9303804355468,426.81788447265626L1139.8260064355468,425.25658447265624L1191.7831464355468,455.06028447265624L1191.7831464355468,515.3420844726562L1189.9831464355468,515.3420844726562ZM1137.8987354355468,424.68538447265627L1190.883146435547,394.0847644726563L1244.317846435547,424.94518447265625L1244.317846435547,486.66558447265623L1190.883146435547,517.5260844726563L1137.4488464355468,486.66558447265623L1137.4488464355468,424.94518447265625L1137.8987354355468,424.68538447265627ZM1138.798957435547,426.24408447265625L1138.3488464355469,425.4647844726562L1139.248846435547,425.4647844726562L1139.248846435547,486.14608447265624L1138.3488464355469,486.14608447265624L1138.798957435547,485.36668447265623L1191.333246435547,515.7070844726562L1190.883146435547,516.4870844726563L1190.4330464355469,515.7070844726562L1242.9668464355468,485.36668447265623L1243.4178464355468,486.14608447265624L1242.517846435547,486.14608447265624L1242.517846435547,425.4647844726562L1243.4178464355468,425.4647844726562L1242.9668464355468,426.24408447265625L1190.4330464355469,395.90344347265625L1190.883146435547,395.12408447265625L1191.333246435547,395.90344347265625L1138.798957435547,426.24408447265625Z" fill="#DDE1EA" fill-opacity="1"/></g><g style="opacity:0.4023840129375458;"><path d="M1190.5758183105468,455.12928759765623L1190.8842183105469,558.8482875976563L1101.6750183105469,507.32628759765623L1101.6750183105469,404.28228759765625L1190.5758183105468,455.12928759765623Z" fill="#DEE2EA" fill-opacity="1"/></g><g transform="matrix(-1,0,0,1,2559.7367553710938,0)" style="opacity:0.1991340070962906;"><path d="M1368.7691776855468,455.12928759765623L1369.0775776855469,558.8482875976563L1279.8683776855469,507.32628759765623L1279.8683776855469,404.28228759765625L1368.7691776855468,455.12928759765623Z" fill="#DEE2EA" fill-opacity="1"/></g></g><g transform="matrix(0.4995165169239044,-0.866304337978363,0.8657459616661072,0.5004836320877075,105.62316042014572,977.6820730631298)"><path d="M910.703346875,418.030955859375L1023.025546875,418.030955859375L1047.745546875,444.278355859375L1047.381546875,444.621155859375L1047.381546875,444.121155859375L1110.345546875,444.121155859375L1110.345546875,445.121155859375L1047.165546875,445.121155859375L1022.446546875,418.873755859375L1022.810546875,418.530955859375L1022.810546875,419.030955859375L910.703346875,419.030955859375L910.703346875,418.030955859375ZM899.185546875,408.055255859375L1031.463546875,408.055255859375L1053.877546875,430.455055859375L1053.524546875,430.80875585937497L1053.524546875,430.30875585937497L1093.452546875,430.30875585937497L1093.452546875,431.30875585937497L1053.317546875,431.30875585937497L1030.902546875,408.908955859375L1031.256546875,408.555255859375L1031.256546875,409.055255859375L899.185546875,409.055255859375L899.185546875,408.055255859375ZM932.971146875,397.312255859375L1071.952546875,397.312255859375L1071.952546875,398.312255859375L932.971146875,398.312255859375L932.971146875,397.312255859375ZM1110.845546875,444.621155859375Q1110.845546875,446.321055859375,1112.048546875,447.523155859375Q1113.251546875,448.725355859375,1114.952546875,448.725355859375Q1116.653546875,448.725355859375,1117.856546875,447.523155859375Q1119.059546875,446.321055859375,1119.059546875,444.621155859375Q1119.059546875,442.921255859375,1117.856546875,441.719255859375Q1116.653546875,440.517055859375,1114.952546875,440.517055859375Q1113.251546875,440.517055859375,1112.048546875,441.719255859375Q1110.845546875,442.921255859375,1110.845546875,444.621155859375ZM1109.845546875,444.621155859375Q1109.845546875,442.506855859375,1111.341546875,441.011855859375Q1112.837546875,439.517055859375,1114.952546875,439.517055859375Q1117.067546875,439.517055859375,1118.563546875,441.011855859375Q1120.059546875,442.506855859375,1120.059546875,444.621155859375Q1120.059546875,446.735455859375,1118.563546875,448.230455859375Q1117.067546875,449.725355859375,1114.952546875,449.725355859375Q1112.837546875,449.725355859375,1111.341546875,448.230455859375Q1109.845546875,446.735455859375,1109.845546875,444.621155859375ZM1093.952546875,430.80875585937497Q1093.952546875,432.508655859375,1095.155546875,433.710655859375Q1096.358546875,434.912855859375,1098.059546875,434.912855859375Q1099.761546875,434.912855859375,1100.964546875,433.710655859375Q1102.166546875,432.508655859375,1102.166546875,430.80875585937497Q1102.166546875,429.108755859375,1100.964546875,427.906755859375Q1099.761546875,426.704555859375,1098.059546875,426.704555859375Q1096.358546875,426.704555859375,1095.155546875,427.906755859375Q1093.952546875,429.108755859375,1093.952546875,430.80875585937497ZM1092.952546875,430.80875585937497Q1092.952546875,428.694355859375,1094.448546875,427.199455859375Q1095.944546875,425.704555859375,1098.059546875,425.704555859375Q1100.175546875,425.704555859375,1101.6705468750001,427.199455859375Q1103.166546875,428.694355859375,1103.166546875,430.80875585937497Q1103.166546875,432.923055859375,1101.6705468750001,434.418055859375Q1100.175546875,435.912855859375,1098.059546875,435.912855859375Q1095.944546875,435.912855859375,1094.448546875,434.418055859375Q1092.952546875,432.923055859375,1092.952546875,430.80875585937497Z" fill="#DDE1EA" fill-opacity="1"/></g><g transform="matrix(-0.4995165169239044,0.866304337978363,-0.8657459616661072,-0.5004836320877075,2515.836386705065,-517.888605143904)"><path d="M1419.29514375,487.851268359375L1531.61734375,487.851268359375L1556.33734375,514.098668359375L1555.97334375,514.441468359375L1555.97334375,513.941468359375L1618.93734375,513.941468359375L1618.93734375,514.941468359375L1555.75734375,514.941468359375L1531.03834375,488.694068359375L1531.40234375,488.351268359375L1531.40234375,488.851268359375L1419.29514375,488.851268359375L1419.29514375,487.851268359375ZM1407.77734375,477.875568359375L1540.05534375,477.875568359375L1562.46934375,500.275368359375L1562.11634375,500.62906835937497L1562.11634375,500.12906835937497L1602.04434375,500.12906835937497L1602.04434375,501.12906835937497L1561.90934375,501.12906835937497L1539.49434375,478.729268359375L1539.84834375,478.375568359375L1539.84834375,478.875568359375L1407.77734375,478.875568359375L1407.77734375,477.875568359375ZM1441.56294375,467.132568359375L1580.54434375,467.132568359375L1580.54434375,468.132568359375L1441.56294375,468.132568359375L1441.56294375,467.132568359375ZM1619.43734375,514.441468359375Q1619.43734375,516.141368359375,1620.64034375,517.343468359375Q1621.84334375,518.545668359375,1623.54434375,518.545668359375Q1625.24534375,518.545668359375,1626.44834375,517.343468359375Q1627.65134375,516.141368359375,1627.65134375,514.441468359375Q1627.65134375,512.741568359375,1626.44834375,511.539568359375Q1625.24534375,510.337368359375,1623.54434375,510.337368359375Q1621.84334375,510.337368359375,1620.64034375,511.539568359375Q1619.43734375,512.741568359375,1619.43734375,514.441468359375ZM1618.43734375,514.441468359375Q1618.43734375,512.327168359375,1619.93334375,510.832168359375Q1621.42934375,509.337368359375,1623.54434375,509.337368359375Q1625.65934375,509.337368359375,1627.15534375,510.832168359375Q1628.65134375,512.327168359375,1628.65134375,514.441468359375Q1628.65134375,516.555768359375,1627.15534375,518.050768359375Q1625.65934375,519.545668359375,1623.54434375,519.545668359375Q1621.42934375,519.545668359375,1619.93334375,518.050768359375Q1618.43734375,516.555768359375,1618.43734375,514.441468359375ZM1602.54434375,500.62906835937497Q1602.54434375,502.328968359375,1603.74734375,503.530968359375Q1604.95034375,504.733168359375,1606.65134375,504.733168359375Q1608.35334375,504.733168359375,1609.55634375,503.530968359375Q1610.75834375,502.328968359375,1610.75834375,500.62906835937497Q1610.75834375,498.929068359375,1609.55634375,497.727068359375Q1608.35334375,496.524868359375,1606.65134375,496.524868359375Q1604.95034375,496.524868359375,1603.74734375,497.727068359375Q1602.54434375,498.929068359375,1602.54434375,500.62906835937497ZM1601.54434375,500.62906835937497Q1601.54434375,498.514668359375,1603.04034375,497.019768359375Q1604.53634375,495.524868359375,1606.65134375,495.524868359375Q1608.76734375,495.524868359375,1610.2623437500001,497.019768359375Q1611.75834375,498.514668359375,1611.75834375,500.62906835937497Q1611.75834375,502.743368359375,1610.2623437500001,504.238368359375Q1608.76734375,505.733168359375,1606.65134375,505.733168359375Q1604.53634375,505.733168359375,1603.04034375,504.238368359375Q1601.54434375,502.743368359375,1601.54434375,500.62906835937497Z" fill="#DDE1EA" fill-opacity="1"/></g></g></g></svg>