<svg xmlns="http://www.w3.org/2000/svg" xmlns:xlink="http://www.w3.org/1999/xlink" fill="none" version="1.1" width="20" height="20" viewBox="0 0 20 20"><defs><clipPath id="master_svg0_1464_06350"><rect x="0" y="0" width="20" height="20" rx="10"/></clipPath><filter id="master_svg1_1464_06267" filterUnits="objectBoundingBox" color-interpolation-filters="sRGB" x="-20" y="-16" width="52" height="60"><feFlood flood-opacity="0" result="BackgroundImageFix"/><feColorMatrix in="SourceAlpha" type="matrix" values="0 0 0 0 0 0 0 0 0 0 0 0 0 0 0 0 0 0 127 0"/><feOffset dy="4" dx="0"/><feGaussianBlur stdDeviation="5"/><feColorMatrix type="matrix" values="0 0 0 0 0 0 0 0 0 0 0 0 0 0 0 0 0 0 0.3019607961177826 0"/><feBlend mode="normal" in2="BackgroundImageFix" result="effect1_dropShadow"/><feBlend mode="normal" in="SourceGraphic" in2="effect1_dropShadow" result="shape"/></filter></defs><g style="mix-blend-mode:passthrough" clip-path="url(#master_svg0_1464_06350)"><rect x="0" y="0" width="20" height="20" rx="10" fill="#FF4D4F" fill-opacity="1"/><g style="mix-blend-mode:passthrough" filter="url(#master_svg1_1464_06267)"><path d="M4.800781,5.07422L4.800781,5.86719L7.527340000000001,5.86719L7.527340000000001,6.73047L8.41406,6.73047L8.41406,5.86719L11.58203,5.86719L11.58203,6.74219L12.47266,6.74219L12.47266,5.86719L15.1953,5.86719L15.1953,5.07422L12.47266,5.07422L12.47266,4.21094L11.58203,4.21094L11.58203,5.07422L8.41406,5.07422L8.41406,4.21094L7.527340000000001,4.21094L7.527340000000001,5.07422L4.800781,5.07422ZM4.957031,7.54688L4.957031,8.33594L7.88672,8.33594C7.10547,9.55078,6.003909999999999,10.6289,4.574219,11.5664L5.11328,12.2617C5.71484,11.8555,6.26562,11.4336,6.76953,10.9766L6.76953,15.2266L7.597659999999999,15.2266L7.597659999999999,10.1367C8.089839999999999,9.57422,8.52344,8.97266,8.88281,8.33594L15.1367,8.33594L15.1367,7.54688L9.277339999999999,7.54688C9.375,7.29297,9.48438,7.04297,9.57812,6.77734L8.73828,6.63281C8.61719,6.93359,8.48828,7.23438,8.34375,7.54688L4.957031,7.54688ZM11.75,11.0273L11.75,11.7695L8.4375,11.7695L8.4375,12.5859L11.75,12.5859L11.75,13.9648C11.75,14.2539,11.59375,14.3984,11.308589999999999,14.3984C10.996089999999999,14.3984,10.55078,14.375,10,14.3398L10.25,15.1797L11.65625,15.1797C12.28906,15.1797,12.61328,14.8555,12.61328,14.207L12.61328,12.5859L15.2539,12.5859L15.2539,11.7695L12.61328,11.7695L12.61328,11.2656C13.30078,10.7852,13.92188,10.3164,14.4766,9.88672L14.4766,9.26172L9.30078,9.26172L9.30078,10.0547L13.25,10.0547C12.67578,10.4375,12.18359,10.7617,11.75,11.0273Z" fill="#FFFFFF" fill-opacity="1"/></g></g></svg>