<?xml version="1.0" encoding="UTF-8"?>
<svg width="40px" height="40px" viewBox="0 0 40 40" version="1.1" xmlns="http://www.w3.org/2000/svg" xmlns:xlink="http://www.w3.org/1999/xlink">
    <title>icon/daochu</title>
    <defs>
        <linearGradient x1="1.51499155%" y1="30.5343083%" x2="100%" y2="30.5343083%" id="linearGradient-1">
            <stop stop-color="#7AC1FF" offset="0%"></stop>
            <stop stop-color="#36A4FF" offset="100%"></stop>
        </linearGradient>
        <path d="M15.1111111,19 C16.2397099,19 17.1581147,20.0110227 17.1581147,21.2546812 C17.1581147,21.8368995 16.9550864,22.386423 16.5991896,22.801395 C17.5235658,23.357206 18.1422052,24.4072109 18.2150565,25.5741625 L18.2150565,25.5741625 L18.2222222,25.8093133 L18.2222222,26.1111111 L12,26.1111111 L12,25.8093133 C12,24.5480499 12.6377479,23.3949307 13.6242269,22.8001375 C13.2671358,22.3876805 13.0641075,21.8368995 13.0641075,21.2534237 C13.0641075,20.0110227 13.9825123,19 15.1111111,19 Z M28,23.4444444 L28,26.1111111 L20,26.1111111 L20,23.4444444 L28,23.4444444 Z M28,19.8888889 L28,22.5555556 L20,22.5555556 L20,19.8888889 L28,19.8888889 Z" id="path-2"></path>
        <filter x="-40.6%" y="-77.3%" width="181.2%" height="282.8%" filterUnits="objectBoundingBox" id="filter-3">
            <feOffset dx="0" dy="1" in="SourceAlpha" result="shadowOffsetOuter1"></feOffset>
            <feGaussianBlur stdDeviation="2" in="shadowOffsetOuter1" result="shadowBlurOuter1"></feGaussianBlur>
            <feColorMatrix values="0 0 0 0 0   0 0 0 0 0.494186047   0 0 0 0 1  0 0 0 1 0" type="matrix" in="shadowBlurOuter1"></feColorMatrix>
        </filter>
    </defs>
    <g id="3.3.2定制版本" stroke="none" stroke-width="1" fill="none" fill-rule="evenodd">
        <g id="8-2排班" transform="translate(-604.000000, -200.000000)">
            <g id="考核基本信息" transform="translate(584.000000, 172.000000)">
                <g id="icon/daochu" transform="translate(20.000000, 28.000000)">
                    <rect id="矩形" fill-opacity="0.01" fill="#FFFFFF" x="0" y="0" width="40" height="40"></rect>
                    <polygon id="矩形" fill-opacity="0.5" fill="#56B2FF" points="7.5 3.75 32.5 3.75 32.5 37.5 7.5 37.5"></polygon>
                    <polygon id="矩形" fill-opacity="0.3" fill="#56B2FF" transform="translate(20.000000, 21.000000) rotate(-270.000000) translate(-20.000000, -21.000000) " points="13.625 4.75 28 4.75 28 37.25 12 37.25 12 7.25"></polygon>
                    <polygon id="矩形" fill="url(#linearGradient-1)" points="16.2678496 2.5 33.75 2.5 33.75 37.5 6.25 37.5 6.25 14.9898275"></polygon>
                    <path d="M33.7,11.8 L33.7,26.5 C33.7,28.9024387 32.7262193,31.0774387 31.151829,32.651829 C29.5774387,34.2262193 27.4024387,35.2 25,35.2 C22.5975613,35.2 20.4225613,34.2262193 18.848171,32.651829 C17.2737807,31.0774387 16.3,28.9024387 16.3,26.5 L16.3,26.5 L16.3,11.8 L33.7,11.8 Z" id="矩形" stroke-opacity="0.451322115" stroke="#FFFFFF" stroke-width="0.4" fill-opacity="0.248497596" fill="#BCE1FF" transform="translate(25.000000, 23.500000) rotate(-270.000000) translate(-25.000000, -23.500000) "></path>
                    <g id="形状结合" fill-rule="nonzero">
                        <use fill="black" fill-opacity="1" filter="url(#filter-3)" xlink:href="#path-2"></use>
                        <use fill="#FFFFFF" xlink:href="#path-2"></use>
                    </g>
                </g>
            </g>
        </g>
    </g>
</svg>