<?xml version="1.0" encoding="UTF-8"?>
<svg width="23px" height="17px" viewBox="0 0 23 17" version="1.1" xmlns="http://www.w3.org/2000/svg" xmlns:xlink="http://www.w3.org/1999/xlink">
    <title>daohang-zhibanbiao</title>
    <defs>
        <linearGradient x1="50%" y1="0.480769231%" x2="50%" y2="98.4803527%" id="linearGradient-1">
            <stop stop-color="#E5E5E5" offset="0%"></stop>
            <stop stop-color="#E1E1E1" offset="100%"></stop>
        </linearGradient>
        <path d="M3.67243444,1.25590254 C4.55637742,1.25590254 5.27569186,2.00795561 5.27569186,2.93305572 C5.27569187,3.366141 5.11667568,3.77490618 4.83792963,4.08358468 C5.56192103,4.49702677 6.04645273,5.27807692 6.10351148,6.14611828 L6.10351148,6.14611828 L6.10912382,6.3210361 L6.10912382,6.54552956 L1.23574507,6.54552956 L1.23574507,6.3210361 C1.23574507,5.38284054 1.73524301,4.52508846 2.50787465,4.08264928 C2.22819322,3.77584156 2.06917702,3.366141 2.06917702,2.93212033 C2.06917702,2.00795561 2.78849146,1.25590254 3.67243444,1.25590254 Z M12.9065985,4.61395045 L12.9065985,6.29765137 L6.86866,6.29765137 L6.86866,4.61395045 L12.9065985,4.61395045 Z M12.9065985,1.80778228 L12.9065985,3.49148318 L6.86866,3.49148318 L6.86866,1.80778228 L12.9065985,1.80778228 Z" id="path-2"></path>
        <filter x="-55.7%" y="-104.0%" width="211.4%" height="345.8%" filterUnits="objectBoundingBox" id="filter-3">
            <feOffset dx="0" dy="1" in="SourceAlpha" result="shadowOffsetOuter1"></feOffset>
            <feGaussianBlur stdDeviation="2" in="shadowOffsetOuter1" result="shadowBlurOuter1"></feGaussianBlur>
            <feColorMatrix values="0 0 0 0 0.741176471   0 0 0 0 0.741176471   0 0 0 0 0.741176471  0 0 0 1 0" type="matrix" in="shadowBlurOuter1"></feColorMatrix>
        </filter>
    </defs>
    <g id="3.3.2定制版本" stroke="none" stroke-width="1" fill="none" fill-rule="evenodd">
        <g id="8-2排班" transform="translate(-324.000000, -316.000000)">
            <g id="树结构" transform="translate(276.000000, 152.000000)">
                <g id="-树结构/default备份-2" transform="translate(20.000000, 152.000000)">
                    <g id="daohang-zhibanbiao" transform="translate(28.098380, 12.477067)">
                        <path d="M5.12381207,0.25 L5.12381207,1.801811 L10.8152232,1.801811 L10.8152232,0.25 L12.3936584,0.25 L12.3936584,1.801811 L15.6516197,1.801811 L15.6516197,14.5291524 L0.25,14.5291524 L0.25,1.801811 L3.54724762,1.801811 L3.54724762,0.25 L5.12381207,0.25 Z" id="形状" stroke="#BDBDBD" stroke-width="0.5" fill="url(#linearGradient-1)" fill-rule="nonzero"></path>
                        <g id="编组-3" transform="translate(5.901620, 4.522933)">
                            <rect id="矩形" stroke-opacity="0.451322115" stroke="#FFFFFF" stroke-width="0.4" fill-opacity="0.248497596" fill="#B6C6D4" x="-0.2" y="-0.2" width="14.4" height="8.4" rx="1"></rect>
                            <g id="形状结合" fill-rule="nonzero">
                                <use fill="black" fill-opacity="1" filter="url(#filter-3)" xlink:href="#path-2"></use>
                                <use fill="#FFFFFF" xlink:href="#path-2"></use>
                            </g>
                        </g>
                    </g>
                </g>
            </g>
        </g>
    </g>
</svg>