<?xml version="1.0" encoding="UTF-8"?>
<svg width="58px" height="96px" viewBox="0 0 58 96" version="1.1" xmlns="http://www.w3.org/2000/svg" xmlns:xlink="http://www.w3.org/1999/xlink">
    <title>危化企业_打点</title>
    <defs>
        <linearGradient x1="50%" y1="0%" x2="50%" y2="100%" id="linearGradient-1">
            <stop stop-color="#FFF24F" offset="0%"></stop>
            <stop stop-color="#FFD84F" offset="65.9854357%"></stop>
            <stop stop-color="#FFD000" stop-opacity="0" offset="100%"></stop>
        </linearGradient>
        <linearGradient x1="50%" y1="-14.6974562%" x2="50%" y2="134.0824%" id="linearGradient-2">
            <stop stop-color="#FFFFFF" offset="0%"></stop>
            <stop stop-color="#F7C600" offset="100%"></stop>
        </linearGradient>
        <circle id="path-3" cx="22" cy="22" r="16"></circle>
        <filter x="-13.3%" y="-13.3%" width="126.6%" height="126.6%" filterUnits="objectBoundingBox" id="filter-4">
            <feMorphology radius="0.751177394" operator="dilate" in="SourceAlpha" result="shadowSpreadOuter1"></feMorphology>
            <feOffset dx="0" dy="0" in="shadowSpreadOuter1" result="shadowOffsetOuter1"></feOffset>
            <feMorphology radius="1.5" operator="erode" in="SourceAlpha" result="shadowInner"></feMorphology>
            <feOffset dx="0" dy="0" in="shadowInner" result="shadowInner"></feOffset>
            <feComposite in="shadowOffsetOuter1" in2="shadowInner" operator="out" result="shadowOffsetOuter1"></feComposite>
            <feGaussianBlur stdDeviation="1" in="shadowOffsetOuter1" result="shadowBlurOuter1"></feGaussianBlur>
            <feColorMatrix values="0 0 0 0 1   0 0 0 0 0.811511273   0 0 0 0 0  0 0 0 1 0" type="matrix" in="shadowBlurOuter1"></feColorMatrix>
        </filter>
        <circle id="path-5" cx="22" cy="22" r="19"></circle>
        <filter x="-8.6%" y="-8.6%" width="117.1%" height="117.1%" filterUnits="objectBoundingBox" id="filter-6">
            <feMorphology radius="0.251177394" operator="dilate" in="SourceAlpha" result="shadowSpreadOuter1"></feMorphology>
            <feOffset dx="0" dy="0" in="shadowSpreadOuter1" result="shadowOffsetOuter1"></feOffset>
            <feMorphology radius="1" operator="erode" in="SourceAlpha" result="shadowInner"></feMorphology>
            <feOffset dx="0" dy="0" in="shadowInner" result="shadowInner"></feOffset>
            <feComposite in="shadowOffsetOuter1" in2="shadowInner" operator="out" result="shadowOffsetOuter1"></feComposite>
            <feGaussianBlur stdDeviation="1" in="shadowOffsetOuter1" result="shadowBlurOuter1"></feGaussianBlur>
            <feColorMatrix values="0 0 0 0 0.471259076   0 0 0 0 0.439095995   0 0 0 0 0  0 0 0 1 0" type="matrix" in="shadowBlurOuter1"></feColorMatrix>
        </filter>
        <circle id="path-7" cx="22" cy="22" r="22"></circle>
        <filter x="-23.3%" y="-23.3%" width="146.6%" height="146.6%" filterUnits="objectBoundingBox" id="filter-8">
            <feMorphology radius="0.751177394" operator="dilate" in="SourceAlpha" result="shadowSpreadOuter1"></feMorphology>
            <feOffset dx="0" dy="0" in="shadowSpreadOuter1" result="shadowOffsetOuter1"></feOffset>
            <feMorphology radius="1.5" operator="erode" in="SourceAlpha" result="shadowInner"></feMorphology>
            <feOffset dx="0" dy="0" in="shadowInner" result="shadowInner"></feOffset>
            <feComposite in="shadowOffsetOuter1" in2="shadowInner" operator="out" result="shadowOffsetOuter1"></feComposite>
            <feGaussianBlur stdDeviation="3" in="shadowOffsetOuter1" result="shadowBlurOuter1"></feGaussianBlur>
            <feColorMatrix values="0 0 0 0 1   0 0 0 0 0.889359908   0 0 0 0 0  0 0 0 0.8 0" type="matrix" in="shadowBlurOuter1"></feColorMatrix>
        </filter>
        <linearGradient x1="53.8304822%" y1="103.830482%" x2="53.8304822%" y2="-3.83048222%" id="linearGradient-9">
            <stop stop-color="#FFC326" offset="0%"></stop>
            <stop stop-color="#FFE9AE" offset="100%"></stop>
        </linearGradient>
    </defs>
    <g id="页面-2备份" stroke="none" stroke-width="1" fill="none" fill-rule="evenodd">
        <g id="画板" transform="translate(-450.000000, -47.000000)">
            <g id="mappoint/camera" transform="translate(457.000000, 54.000000)">
                <ellipse id="椭圆形" fill-opacity="0.6" fill="#000000" cx="22.2160714" cy="22.2696903" rx="15.9303571" ry="15.9688053"></ellipse>
                <polygon id="矩形" fill="url(#linearGradient-1)" points="21.4131974 33.4598718 23.3525647 33.4598718 22.8015673 89 22.040784 89"></polygon>
                <path d="M34.6314347,25.0845992 L31.0225648,24.2059618 C31.1967508,23.4905106 31.2857119,22.7518772 31.2857119,22.0000879 C31.2857119,16.8716948 27.1283534,12.7143108 21.9999917,12.7143108 L21.9999917,9 C29.179698,9 34.9999917,14.8203376 34.9999917,22.0000879 C34.9999917,23.0484796 34.8755148,24.0820647 34.6314347,25.0845992 Z M13.1471037,31.5200083 L15.6770151,28.8005277 C17.3894535,30.3936152 19.6268883,31.2858322 22.0529246,31.2857179 C25.4413702,31.2668826 28.5004484,29.4184443 30.1202362,26.5083173 L33.3656582,28.3147537 C31.1002685,32.3847753 26.8158686,34.9736104 22.0633566,35 C18.6818417,35.0001985 15.542267,33.7482372 13.1471037,31.5200083 Z M17.9688022,9.63764938 L19.1197126,13.1691496 C15.3283027,14.4047793 12.7142745,17.952818 12.7142854,22.0163659 C12.7172632,23.7593673 13.1995538,25.42677 14.0951704,26.8752755 L10.9359949,28.8286299 C9.68117203,26.7991701 9.00416432,24.4585798 9,22.019545 C9,16.3341537 12.6586265,11.3682485 17.9688022,9.63764938 Z M21.9888248,9.00000471 L21.9919568,12.7143142 C21.8559661,12.7144289 21.7203836,12.7174547 21.5852625,12.7233735 L21.4227202,9.01262096 C21.6109412,9.00437619 21.7996728,9.00016421 21.9888248,9.00000471 Z" id="椭圆形" fill="url(#linearGradient-2)" fill-rule="nonzero" transform="translate(22.000000, 22.000000) rotate(24.000000) translate(-22.000000, -22.000000) "></path>
                <g id="椭圆形">
                    <use fill="black" fill-opacity="1" filter="url(#filter-4)" xlink:href="#path-3"></use>
                    <use stroke="#FAD74C" stroke-width="0.502354788" xlink:href="#path-3"></use>
                </g>
                <g id="椭圆形">
                    <use fill="black" fill-opacity="1" filter="url(#filter-6)" xlink:href="#path-5"></use>
                    <use stroke="#F9D649" stroke-width="0.502354788" xlink:href="#path-5"></use>
                </g>
                <g id="椭圆形">
                    <use fill="black" fill-opacity="1" filter="url(#filter-8)" xlink:href="#path-7"></use>
                    <use stroke-opacity="0.1" stroke="#F9D649" stroke-width="0.502354788" xlink:href="#path-7"></use>
                </g>
                <g id="编组-9" transform="translate(15.595477, 15.323752)" fill-rule="nonzero">
                    <rect id="矩形" fill="#000000" opacity="0" x="0" y="0" width="12.7962887" height="12.9042124"></rect>
                    <path d="M2.14290364,6.41284228 C2.63489534,6.90757943 3.32835312,7.26915857 4.22375643,7.49628227 L4.22375643,7.67377562 C4.22375643,7.89348866 4.30855412,8.07808876 4.47854903,8.22709668 C4.64855726,8.37650202 4.85885338,8.45903613 5.10937079,8.47471072 C5.36887807,8.49054895 5.56106129,8.45121637 5.68639991,8.3569234 C5.88304476,8.4822967 6.10250387,8.54510025 6.34428448,8.54510025 C6.56784563,8.54510025 6.77387989,8.48651634 6.96164143,8.36868226 C7.08696673,8.45480481 7.27027996,8.49053726 7.51206056,8.47471072 C7.76260461,8.45121637 7.97295401,8.36670686 8.14289565,8.22153285 C8.31290388,8.07549386 8.39772819,7.89359386 8.39772819,7.67382238 L8.39772819,7.54432295 C9.36394497,7.32428262 10.1112753,6.95532788 10.639626,6.43623142 C11.1496507,5.94188 11.4045232,5.35696431 11.4045232,4.68125056 C11.4045232,4.5317751 11.38669,4.37483053 11.3506373,4.20969216 C11.1718656,3.20525629 10.643768,2.37613967 9.76705027,1.72439951 C8.84529001,1.02581092 7.72215691,0.676247788 6.39781077,0.676247788 C5.07317163,0.676247788 3.95021166,1.02184844 3.02887759,1.71233674 C2.15176031,2.3726798 1.62829745,3.20519785 1.45847567,4.20963372 C1.42239637,4.37481884 1.4045232,4.5317751 1.4045232,4.68123887 C1.4045232,5.34092737 1.65048575,5.91775446 2.14289032,6.41285397 L2.14290364,6.41284228 Z M7.34782697,3.60747464 C7.60618242,3.35836475 7.91923785,3.23362484 8.28671958,3.23362484 C8.66344178,3.23362484 8.98085028,3.35836475 9.23930999,3.60747464 C9.49728748,3.856322 9.62674542,4.15810595 9.62674542,4.51200309 C9.62674542,4.86611504 9.49728748,5.16798253 9.23930999,5.41724755 C8.98088938,5.66684671 8.66344178,5.79100189 8.28671958,5.79100189 C7.91923785,5.79100189 7.60618242,5.66683478 7.34781394,5.41722368 C7.08921086,5.16795866 6.96007875,4.86610311 6.96007875,4.51197923 C6.96007875,4.15810595 7.08918479,3.8563578 7.34781394,3.60747464 L7.34782697,3.60747464 Z M6.0453964,5.99840764 C6.17615174,5.86033451 6.30456783,5.79100189 6.43127655,5.79100189 C6.55770295,5.79100189 6.67721918,5.86739606 6.79022857,6.02096294 C6.90302286,6.17389384 6.96007875,6.31932459 6.96007875,6.45805562 C6.96007875,6.6693869 6.78809099,6.77460844 6.444707,6.77460844 C6.21898399,6.77460844 6.05183603,6.72712936 5.94347823,6.63278524 C5.88007682,6.5738695 5.84896764,6.50135699 5.84896764,6.4137016 C5.84903486,6.27542014 5.91433186,6.13713867 6.04538296,5.99840764 L6.0453964,5.99840764 Z M3.35227643,3.60747464 C3.61374154,3.35836475 3.92750746,3.23362484 4.29318514,3.23362484 C4.65894063,3.23362484 4.97271952,3.35836475 5.23449587,3.60747464 C5.49580537,3.856322 5.62674542,4.15810595 5.62674542,4.51200309 C5.62674542,4.86611504 5.49587021,5.16798253 5.23449587,5.41724755 C4.97269358,5.66684671 4.65894063,5.79100189 4.29318514,5.79100189 C3.92749449,5.79100189 3.61374154,5.66683478 3.35227643,5.41722368 C3.09096693,5.16798253 2.96007875,4.86611504 2.96007875,4.51200309 C2.96007875,4.15810595 3.09096693,3.8563578 3.35227643,3.60747464 Z M10.0442356,11.8893625 L10.0710425,11.837481 C8.81211835,10.9836789 9.15538353,10.4761717 10.9357591,10.657389 L10.9600788,10.6327481 C8.55206379,10.1678045 5.02365993,8.9980197 2.87313333,7.95493631 L2.84962959,7.98919423 C4.25256348,8.89093207 3.93672372,9.43564215 2.09056137,9.24654489 L2.07118986,9.27283077 C4.4345135,9.72285417 7.88547082,10.8622347 10.0442487,11.8893625 L10.0442356,11.8893625 Z M9.77932979,12.4613468 C10.5299074,12.6011203 10.2829189,11.9006374 10.5023249,11.5328255 C10.7229577,11.1510751 11.5525889,10.8714928 11.3814454,10.3592259 C11.2180132,9.87826736 10.8728009,10.2473175 10.5477295,10.3690724 C10.1989716,10.5020889 9.86404546,10.4001567 9.18258584,10.288154 C8.71632612,10.2095587 8.22369724,11.2578893 8.72790645,11.4593952 C9.66930997,11.8304381 9.41525734,12.3927749 9.77932979,12.4613468 Z M3.02319126,7.58011962 C2.27481186,7.43867933 2.51645252,8.13741405 2.30270307,8.50594708 C2.08244152,8.88711935 1.25194032,9.16810221 1.429125,9.68215073 C1.59311919,10.1621378 1.94141981,9.79410351 2.26072078,9.67345289 C2.60437979,9.54113621 2.94553095,9.64038893 3.62808266,9.75487199 C4.09155054,9.8307196 4.58577773,8.78472811 4.08110347,8.5863565 C3.13449283,8.21058541 3.38694081,7.64735454 3.02319126,7.58011962 L3.02319126,7.58011962 Z M10.7378565,9.35599328 L10.7120153,9.30425074 C9.04801111,9.39009736 8.85458793,8.83893221 10.3108363,7.98592035 L10.3070534,7.95493631 C8.14528523,8.95190267 4.5506457,10.0645952 2.07118986,10.5074016 L2.08400393,10.5447965 C3.89493032,10.4136638 4.1408086,10.9762273 2.6297341,11.8599157 L2.63859206,11.8893625 C4.75475171,10.9063566 8.26632623,9.81476429 10.7378565,9.35599328 Z M10.9246524,10.0905979 C11.5762846,9.7666741 10.8052149,9.39300825 10.6480861,8.99843633 C10.4800232,8.59293077 10.8310421,7.91631923 10.2738971,7.63770387 C9.74883689,7.37762763 9.81769616,7.84460182 9.69055296,8.1186635 C9.55615582,8.41446027 9.23170816,8.52997228 8.65281467,8.83502059 C8.25504378,9.04227899 8.79699001,10.091475 9.32626178,9.95284621 C10.3099941,9.69017473 10.6079237,10.2471892 10.9246524,10.0905979 L10.9246524,10.0905979 Z M1.88545961,10.3421764 C1.23438412,10.6405855 1.99802574,10.9868823 2.15860624,11.3492525 C2.3252773,11.7236204 1.97388199,12.3515776 2.53527875,12.6066437 C3.05845246,12.8455793 2.99379146,12.4126424 3.11819731,12.1626593 C3.25000469,11.8919435 3.57624572,11.7794877 4.15779869,11.4975068 C4.55106319,11.3047533 4.01546255,10.3354563 3.48912066,10.4668703 C2.49870807,10.7108317 2.20061199,10.1961202 1.88545961,10.3421764 L1.88545961,10.3421764 Z" id="形状" fill="url(#linearGradient-9)"></path>
                </g>
            </g>
        </g>
    </g>
</svg>