<?xml version="1.0" encoding="UTF-8"?>
<svg width="51px" height="107px" viewBox="0 0 51 107" version="1.1" xmlns="http://www.w3.org/2000/svg" xmlns:xlink="http://www.w3.org/1999/xlink">
    <title>编组 16备份 11</title>
    <defs>
        <linearGradient x1="50%" y1="0%" x2="50%" y2="99.7563716%" id="linearGradient-1">
            <stop stop-color="#AA1010" offset="0%"></stop>
            <stop stop-color="#FF7C7C" offset="100%"></stop>
        </linearGradient>
        <linearGradient x1="50%" y1="0%" x2="50%" y2="100%" id="linearGradient-2">
            <stop stop-color="#FF2E2E" offset="0%"></stop>
            <stop stop-color="#FFE1E1" offset="100%"></stop>
        </linearGradient>
        <polygon id="path-3" points="22.5691469 3.63592233 41.8873287 14.6735437 41.8873287 36.7487864 22.5691469 47.7864078 3.25096507 36.7487864 3.25096507 14.6735437"></polygon>
        <filter x="-10.1%" y="-10.2%" width="120.2%" height="120.4%" filterUnits="objectBoundingBox" id="filter-4">
            <feOffset dx="0" dy="0" in="SourceAlpha" result="shadowOffsetOuter1"></feOffset>
            <feGaussianBlur stdDeviation="1.5" in="shadowOffsetOuter1" result="shadowBlurOuter1"></feGaussianBlur>
            <feComposite in="shadowBlurOuter1" in2="SourceAlpha" operator="out" result="shadowBlurOuter1"></feComposite>
            <feColorMatrix values="0 0 0 0 1   0 0 0 0 0.160784314   0 0 0 0 0.160784314  0 0 0 0.604245486 0" type="matrix" in="shadowBlurOuter1"></feColorMatrix>
        </filter>
        <linearGradient x1="50%" y1="100%" x2="50%" y2="7.30318583e-14%" id="linearGradient-5">
            <stop stop-color="#FF0D0D" stop-opacity="0" offset="0%"></stop>
            <stop stop-color="#FF4C4C" offset="100%"></stop>
        </linearGradient>
        <linearGradient x1="50%" y1="0%" x2="50%" y2="100%" id="linearGradient-6">
            <stop stop-color="#FF2E2E" offset="0%"></stop>
            <stop stop-color="#FFE1E1" offset="100%"></stop>
        </linearGradient>
    </defs>
    <g id="页面-2备份" stroke="none" stroke-width="1" fill="none" fill-rule="evenodd">
        <g id="画板" transform="translate(-46.000000, -177.000000)">
            <g id="编组-16备份-11" transform="translate(49.000000, 177.000000)">
                <g id="多边形备份">
                    <use fill="black" fill-opacity="1" filter="url(#filter-4)" xlink:href="#path-3"></use>
                    <path stroke="url(#linearGradient-2)" stroke-width="2.08" d="M22.5691469,4.8337077 L40.8473287,15.2771155 L40.8473287,36.1452146 L22.5691469,46.5886224 L4.29096507,36.1452146 L4.29096507,15.2771155 L22.5691469,4.8337077 Z" stroke-linejoin="square" fill="url(#linearGradient-1)" fill-rule="evenodd"></path>
                </g>
                <path d="M22.632183,19.2184466 C27.0365667,19.2184466 30.6070252,22.7067135 30.6070252,27.0097087 L30.6070252,33.5024272 C31.3410891,33.5024272 31.9361655,34.083805 31.9361655,34.8009709 C31.9361655,35.5181368 31.3410891,36.0995146 30.6070252,36.0995146 L14.6573408,36.0995146 C13.9232768,36.0995146 13.3282004,35.5181368 13.3282004,34.8009709 C13.3282004,34.083805 13.9232768,33.5024272 14.6573408,33.5024272 L14.6573408,27.0097087 C14.6573408,22.7067135 18.2277992,19.2184466 22.632183,19.2184466 Z M22.6013919,23.8123849 L22.5611031,23.8678163 L19.9924248,29.1311613 C19.9434043,29.2349276 19.9965099,29.3519972 20.0950049,29.388138 L20.1590948,29.3993572 L22.3503146,29.394568 L22.3552167,32.6512329 C22.3552167,32.8230459 22.554133,32.8921901 22.662974,32.7880809 L22.7032628,32.7326495 L25.2719411,27.4693044 C25.3209617,27.3655381 25.2678561,27.2484685 25.169361,27.2123277 L25.1052711,27.2011085 L22.9140513,27.2058977 L22.9091492,23.9492329 C22.9091492,23.7774199 22.7102329,23.7082756 22.6013919,23.8123849 Z M14.4968098,19.7488669 L15.0059001,20.1662108 C15.4276443,20.5119498 15.4826547,21.1262476 15.1287693,21.5382833 C14.7748839,21.950319 14.1461119,22.004063 13.7243676,21.658324 L13.2152774,21.2409801 C12.7935331,20.8952411 12.7385227,20.2809434 13.0924081,19.8689077 C13.4462935,19.456872 14.0750656,19.4031279 14.4968098,19.7488669 Z M32.2208403,19.8689077 C32.5425543,20.2434856 32.5263378,20.7852222 32.2038679,21.1403829 L32.097971,21.2409801 L31.5888808,21.658324 C31.1671365,22.004063 30.5383645,21.950319 30.1844791,21.5382833 C29.8627651,21.1637053 29.8789815,20.6219687 30.2014514,20.266808 L30.3073483,20.1662108 L30.8164386,19.7488669 C31.2381828,19.4031279 31.8669549,19.456872 32.2208403,19.8689077 Z M18.4273482,16.8847406 L18.7082077,17.4731807 C18.9408794,17.9606605 18.7250052,18.5401166 18.2260393,18.7674321 C17.7270734,18.9947476 17.133964,18.7838429 16.9012923,18.2963631 L16.6204328,17.707923 C16.3877612,17.2204432 16.6036354,16.6409871 17.1026013,16.4136716 C17.6015672,16.186356 18.1946766,16.3972608 18.4273482,16.8847406 Z M28.2477576,16.4136716 C28.7051431,16.6220442 28.9246528,17.1263126 28.778845,17.5843939 L28.7299261,17.707923 L28.4490666,18.2963631 C28.216395,18.7838429 27.6232856,18.9947476 27.1243197,18.7674321 C26.6669342,18.5590595 26.4474245,18.0547911 26.5932322,17.5967098 L26.6421512,17.4731807 L26.9230107,16.8847406 C27.1556823,16.3972608 27.7487917,16.186356 28.2477576,16.4136716 Z M22.632183,15.3228155 C23.1827309,15.3228155 23.6290382,15.7588489 23.6290382,16.2967233 L23.6290382,16.9459951 C23.6290382,17.4838696 23.1827309,17.9199029 22.632183,17.9199029 C22.081635,17.9199029 21.6353277,17.4838696 21.6353277,16.9459951 L21.6353277,16.2967233 C21.6353277,15.7588489 22.081635,15.3228155 22.632183,15.3228155 Z" id="形状结合" fill="#FFFFFF" fill-rule="nonzero"></path>
                <rect id="矩形备份-60" fill="url(#linearGradient-5)" x="21.7127042" y="55.0582524" width="1.57459164" height="51.9417476"></rect>
                <ellipse id="椭圆形备份-3" fill="#D2F3FF" cx="22.5" cy="53.5" rx="2.09945552" ry="2.0776699"></ellipse>
                <path d="M32.9765076,5.98584925 L45,12.8555825 L45,38.5667476 L39.7029946,41.5932405 M34.5554533,44.5343357 L22.5,51.4223301 L0,38.5667476 L0,33.5334916 M0,28.3291243 L0,12.8555825 L22.5,0 L27.7270689,2.98653404" id="形状备份" stroke="url(#linearGradient-6)" stroke-width="1.3"></path>
            </g>
        </g>
    </g>
</svg>