<?xml version="1.0" encoding="UTF-8"?>
<svg width="58px" height="96px" viewBox="0 0 58 96" version="1.1" xmlns="http://www.w3.org/2000/svg" xmlns:xlink="http://www.w3.org/1999/xlink">
    <title>应急物资_打点</title>
    <defs>
        <linearGradient x1="50%" y1="0%" x2="50%" y2="97.5427576%" id="linearGradient-1">
            <stop stop-color="#71FF8D" offset="0%"></stop>
            <stop stop-color="#71FF8D" offset="62.7428209%"></stop>
            <stop stop-color="#71FF8D" stop-opacity="0" offset="100%"></stop>
        </linearGradient>
        <linearGradient x1="50%" y1="-14.6974562%" x2="50%" y2="133.054174%" id="linearGradient-2">
            <stop stop-color="#FFFFFF" offset="0%"></stop>
            <stop stop-color="#48EF69" offset="100%"></stop>
        </linearGradient>
        <circle id="path-3" cx="22" cy="22" r="16"></circle>
        <filter x="-13.3%" y="-13.3%" width="126.6%" height="126.6%" filterUnits="objectBoundingBox" id="filter-4">
            <feMorphology radius="0.751177394" operator="dilate" in="SourceAlpha" result="shadowSpreadOuter1"></feMorphology>
            <feOffset dx="0" dy="0" in="shadowSpreadOuter1" result="shadowOffsetOuter1"></feOffset>
            <feMorphology radius="1.5" operator="erode" in="SourceAlpha" result="shadowInner"></feMorphology>
            <feOffset dx="0" dy="0" in="shadowInner" result="shadowInner"></feOffset>
            <feComposite in="shadowOffsetOuter1" in2="shadowInner" operator="out" result="shadowOffsetOuter1"></feComposite>
            <feGaussianBlur stdDeviation="1" in="shadowOffsetOuter1" result="shadowBlurOuter1"></feGaussianBlur>
            <feColorMatrix values="0 0 0 0 0.31372549   0 0 0 0 0.937254902   0 0 0 0 0.435294118  0 0 0 1 0" type="matrix" in="shadowBlurOuter1"></feColorMatrix>
        </filter>
        <circle id="path-5" cx="22" cy="22" r="19"></circle>
        <filter x="-8.6%" y="-8.6%" width="117.1%" height="117.1%" filterUnits="objectBoundingBox" id="filter-6">
            <feMorphology radius="0.251177394" operator="dilate" in="SourceAlpha" result="shadowSpreadOuter1"></feMorphology>
            <feOffset dx="0" dy="0" in="shadowSpreadOuter1" result="shadowOffsetOuter1"></feOffset>
            <feMorphology radius="1" operator="erode" in="SourceAlpha" result="shadowInner"></feMorphology>
            <feOffset dx="0" dy="0" in="shadowInner" result="shadowInner"></feOffset>
            <feComposite in="shadowOffsetOuter1" in2="shadowInner" operator="out" result="shadowOffsetOuter1"></feComposite>
            <feGaussianBlur stdDeviation="1" in="shadowOffsetOuter1" result="shadowBlurOuter1"></feGaussianBlur>
            <feColorMatrix values="0 0 0 0 0.31372549   0 0 0 0 0.937254902   0 0 0 0 0.435294118  0 0 0 1 0" type="matrix" in="shadowBlurOuter1"></feColorMatrix>
        </filter>
        <circle id="path-7" cx="22" cy="22" r="22"></circle>
        <filter x="-23.3%" y="-23.3%" width="146.6%" height="146.6%" filterUnits="objectBoundingBox" id="filter-8">
            <feMorphology radius="0.751177394" operator="dilate" in="SourceAlpha" result="shadowSpreadOuter1"></feMorphology>
            <feOffset dx="0" dy="0" in="shadowSpreadOuter1" result="shadowOffsetOuter1"></feOffset>
            <feMorphology radius="1.5" operator="erode" in="SourceAlpha" result="shadowInner"></feMorphology>
            <feOffset dx="0" dy="0" in="shadowInner" result="shadowInner"></feOffset>
            <feComposite in="shadowOffsetOuter1" in2="shadowInner" operator="out" result="shadowOffsetOuter1"></feComposite>
            <feGaussianBlur stdDeviation="3" in="shadowOffsetOuter1" result="shadowBlurOuter1"></feGaussianBlur>
            <feColorMatrix values="0 0 0 0 0.31372549   0 0 0 0 0.937254902   0 0 0 0 0.435294118  0 0 0 1 0" type="matrix" in="shadowBlurOuter1"></feColorMatrix>
        </filter>
        <linearGradient x1="53.8304822%" y1="103.830482%" x2="53.8304822%" y2="-3.83048222%" id="linearGradient-9">
            <stop stop-color="#46F368" offset="0%"></stop>
            <stop stop-color="#C7FFD2" offset="100%"></stop>
        </linearGradient>
    </defs>
    <g id="页面-2备份" stroke="none" stroke-width="1" fill="none" fill-rule="evenodd">
        <g id="画板" transform="translate(-178.000000, -47.000000)">
            <g id="mappoint/camera" transform="translate(185.000000, 54.000000)">
                <ellipse id="椭圆形" fill-opacity="0.6" fill="#000000" cx="22.2160714" cy="22.2696903" rx="15.9303571" ry="15.9688053"></ellipse>
                <polygon id="矩形" fill="url(#linearGradient-1)" points="21.4131974 33.4598718 23.3525647 33.4598718 22.8015673 89 22.040784 89"></polygon>
                <path d="M34.6314347,25.0845992 L31.0225648,24.2059618 C31.1967508,23.4905106 31.2857119,22.7518772 31.2857119,22.0000879 C31.2857119,16.8716948 27.1283534,12.7143108 21.9999917,12.7143108 L21.9999917,9 C29.179698,9 34.9999917,14.8203376 34.9999917,22.0000879 C34.9999917,23.0484796 34.8755148,24.0820647 34.6314347,25.0845992 Z M13.1471037,31.5200083 L15.6770151,28.8005277 C17.3894535,30.3936152 19.6268883,31.2858322 22.0529246,31.2857179 C25.4413702,31.2668826 28.5004484,29.4184443 30.1202362,26.5083173 L33.3656582,28.3147537 C31.1002685,32.3847753 26.8158686,34.9736104 22.0633566,35 C18.6818417,35.0001985 15.542267,33.7482372 13.1471037,31.5200083 Z M17.9688022,9.63764938 L19.1197126,13.1691496 C15.3283027,14.4047793 12.7142745,17.952818 12.7142854,22.0163659 C12.7172632,23.7593673 13.1995538,25.42677 14.0951704,26.8752755 L10.9359949,28.8286299 C9.68117203,26.7991701 9.00416432,24.4585798 9,22.019545 C9,16.3341537 12.6586265,11.3682485 17.9688022,9.63764938 Z M21.9888248,9.00000471 L21.9919568,12.7143142 C21.8559661,12.7144289 21.7203836,12.7174547 21.5852625,12.7233735 L21.4227202,9.01262096 C21.6109412,9.00437619 21.7996728,9.00016421 21.9888248,9.00000471 Z" id="椭圆形" fill="url(#linearGradient-2)" fill-rule="nonzero" transform="translate(22.000000, 22.000000) rotate(24.000000) translate(-22.000000, -22.000000) "></path>
                <g id="椭圆形">
                    <use fill="black" fill-opacity="1" filter="url(#filter-4)" xlink:href="#path-3"></use>
                    <use stroke="#5AFF7C" stroke-width="0.502354788" xlink:href="#path-3"></use>
                </g>
                <g id="椭圆形">
                    <use fill="black" fill-opacity="1" filter="url(#filter-6)" xlink:href="#path-5"></use>
                    <use stroke="#5AFF7C" stroke-width="0.502354788" xlink:href="#path-5"></use>
                </g>
                <g id="椭圆形">
                    <use fill="black" fill-opacity="1" filter="url(#filter-8)" xlink:href="#path-7"></use>
                    <use stroke-opacity="0.2" stroke="#5AFF7C" stroke-width="0.502354788" xlink:href="#path-7"></use>
                </g>
                <g id="编组-9" transform="translate(15.595477, 15.323752)" fill-rule="nonzero">
                    <rect id="矩形" fill="#000000" opacity="0" x="0" y="0" width="12.7962887" height="12.9042124"></rect>
                    <path d="M6.74934245,1 L12.5077699,4.5881275 L12.5077699,4.95026516 C12.5119035,4.97304955 12.5143703,4.99609398 12.5151515,5.01922258 L12.5151515,5.35288749 C12.5151515,5.47087874 12.4672931,5.58403738 12.3821044,5.66746979 C12.2969158,5.7509022 12.1813753,5.79777404 12.0609004,5.79777403 C12.0369387,5.79777403 12.0136583,5.79399249 11.9906051,5.79076707 L11.8954395,5.79076707 L11.8954395,9.77850768 C11.9015555,9.89328165 11.8971419,10.0085024 11.8809034,10.122405 L11.8795407,10.8212105 C11.8795407,10.8212105 11.8581909,11.5508245 11.0302047,11.6969697 L10.8232933,11.6969697 L10.8232933,7.22730575 L2.69174461,7.22730575 L2.69174461,11.6968585 L2.48483324,11.6968585 C1.65684707,11.5507132 1.63549727,10.8210993 1.63549727,10.8210993 L1.63424808,10.1222938 C1.62391387,10.0474416 1.61766791,9.9678069 1.61766791,9.88494678 L1.6198256,9.77839646 L1.6198256,5.80656055 L1.61210334,5.79065585 L1.52454645,5.79065585 C1.5014932,5.79421494 1.47866707,5.79766281 1.45425108,5.79766281 C1.20337514,5.79766281 1,5.59848032 1,5.35277627 L1,5.01911135 C1,4.99542115 1.00374757,4.97284315 1.00715446,4.95026516 L1.00715446,4.5881275 L6.74934245,1 Z M10.2595677,9.93844439 L10.2595677,10.6335796 L3.23287121,10.6335796 L3.23287121,9.93844439 L10.2595677,9.93844439 Z M10.2453724,8.7984226 L10.2453724,9.49355783 L3.21867588,9.49355783 L3.21867588,8.7984226 L10.2453724,8.7984226 Z M10.2595677,7.65840081 L10.2595677,8.35353605 L3.23287121,8.35353605 L3.23287121,7.65840081 L10.2595677,7.65840081 Z M4.24494264,4.64607398 L3.194487,4.64607398 C2.95952564,4.64607398 2.76862662,4.83292633 2.76862662,5.06315513 C2.7686893,5.29347724 2.95931678,5.48017486 3.194487,5.48023626 L4.24494264,5.48023626 C4.4801069,5.48019201 4.67072123,5.29347138 4.67072123,5.06315512 C4.67072123,4.83283885 4.4801069,4.64611823 4.24494264,4.64607398 Z M7.33952818,4.64607398 L6.28907254,4.64607398 C6.05411118,4.64607398 5.86321215,4.83292633 5.86321215,5.06315513 C5.86327484,5.29347724 6.05390231,5.48017486 6.28907254,5.48023626 L7.33952818,5.48023626 C7.57469243,5.48019201 7.76530677,5.29347138 7.76530677,5.06315512 C7.76530677,4.83283885 7.57469243,4.64611823 7.33952818,4.64607398 Z M10.3205509,4.64607398 L9.27009531,4.64607398 C9.03513393,4.64607398 8.8442349,4.83292633 8.8442349,5.06315512 C8.84429759,5.29347725 9.03492507,5.48017487 9.27009531,5.48023626 L10.3205509,5.48023626 C10.5557152,5.48019201 10.7463295,5.29347138 10.7463295,5.06315512 C10.7463295,4.83283885 10.5557152,4.64611823 10.3205509,4.64607398 Z" id="形状结合" fill="url(#linearGradient-9)"></path>
                </g>
            </g>
        </g>
    </g>
</svg>