<?xml version="1.0" encoding="UTF-8"?>
<svg width="58px" height="96px" viewBox="0 0 58 96" version="1.1" xmlns="http://www.w3.org/2000/svg" xmlns:xlink="http://www.w3.org/1999/xlink">
    <title>救援队伍_打点</title>
    <defs>
        <linearGradient x1="50%" y1="0%" x2="50%" y2="100%" id="linearGradient-1">
            <stop stop-color="#B4F945" stop-opacity="0.8" offset="0%"></stop>
            <stop stop-color="#BCF945" offset="63.178315%"></stop>
            <stop stop-color="#B4F945" stop-opacity="0" offset="100%"></stop>
        </linearGradient>
        <linearGradient x1="50%" y1="-14.6974562%" x2="50%" y2="134.0824%" id="linearGradient-2">
            <stop stop-color="#FFFFFF" offset="0%"></stop>
            <stop stop-color="#BFFF32" offset="100%"></stop>
        </linearGradient>
        <circle id="path-3" cx="22" cy="22" r="16"></circle>
        <filter x="-13.3%" y="-13.3%" width="126.6%" height="126.6%" filterUnits="objectBoundingBox" id="filter-4">
            <feMorphology radius="0.751177394" operator="dilate" in="SourceAlpha" result="shadowSpreadOuter1"></feMorphology>
            <feOffset dx="0" dy="0" in="shadowSpreadOuter1" result="shadowOffsetOuter1"></feOffset>
            <feMorphology radius="1.5" operator="erode" in="SourceAlpha" result="shadowInner"></feMorphology>
            <feOffset dx="0" dy="0" in="shadowInner" result="shadowInner"></feOffset>
            <feComposite in="shadowOffsetOuter1" in2="shadowInner" operator="out" result="shadowOffsetOuter1"></feComposite>
            <feGaussianBlur stdDeviation="1" in="shadowOffsetOuter1" result="shadowBlurOuter1"></feGaussianBlur>
            <feColorMatrix values="0 0 0 0 0.780392157   0 0 0 0 1   0 0 0 0 0.31372549  0 0 0 1 0" type="matrix" in="shadowBlurOuter1"></feColorMatrix>
        </filter>
        <circle id="path-5" cx="22" cy="22" r="19"></circle>
        <filter x="-8.6%" y="-8.6%" width="117.1%" height="117.1%" filterUnits="objectBoundingBox" id="filter-6">
            <feMorphology radius="0.251177394" operator="dilate" in="SourceAlpha" result="shadowSpreadOuter1"></feMorphology>
            <feOffset dx="0" dy="0" in="shadowSpreadOuter1" result="shadowOffsetOuter1"></feOffset>
            <feMorphology radius="1" operator="erode" in="SourceAlpha" result="shadowInner"></feMorphology>
            <feOffset dx="0" dy="0" in="shadowInner" result="shadowInner"></feOffset>
            <feComposite in="shadowOffsetOuter1" in2="shadowInner" operator="out" result="shadowOffsetOuter1"></feComposite>
            <feGaussianBlur stdDeviation="1" in="shadowOffsetOuter1" result="shadowBlurOuter1"></feGaussianBlur>
            <feColorMatrix values="0 0 0 0 0.217092249   0 0 0 0 0.471259076   0 0 0 0 0  0 0 0 1 0" type="matrix" in="shadowBlurOuter1"></feColorMatrix>
        </filter>
        <circle id="path-7" cx="22" cy="22" r="22"></circle>
        <filter x="-23.3%" y="-23.3%" width="146.6%" height="146.6%" filterUnits="objectBoundingBox" id="filter-8">
            <feMorphology radius="0.751177394" operator="dilate" in="SourceAlpha" result="shadowSpreadOuter1"></feMorphology>
            <feOffset dx="0" dy="0" in="shadowSpreadOuter1" result="shadowOffsetOuter1"></feOffset>
            <feMorphology radius="1.5" operator="erode" in="SourceAlpha" result="shadowInner"></feMorphology>
            <feOffset dx="0" dy="0" in="shadowInner" result="shadowInner"></feOffset>
            <feComposite in="shadowOffsetOuter1" in2="shadowInner" operator="out" result="shadowOffsetOuter1"></feComposite>
            <feGaussianBlur stdDeviation="3" in="shadowOffsetOuter1" result="shadowBlurOuter1"></feGaussianBlur>
            <feColorMatrix values="0 0 0 0 0.55619601   0 0 0 0 0.976470588   0 0 0 0 0.270588235  0 0 0 0.8 0" type="matrix" in="shadowBlurOuter1"></feColorMatrix>
        </filter>
        <linearGradient x1="53.8304822%" y1="103.830482%" x2="53.8304822%" y2="-3.83048222%" id="linearGradient-9">
            <stop stop-color="#BFFF32" offset="0%"></stop>
            <stop stop-color="#E5FFB7" offset="100%"></stop>
        </linearGradient>
    </defs>
    <g id="页面-2备份" stroke="none" stroke-width="1" fill="none" fill-rule="evenodd">
        <g id="画板" transform="translate(-42.000000, -47.000000)">
            <g id="mappoint/camera" transform="translate(49.000000, 54.000000)">
                <ellipse id="椭圆形" fill-opacity="0.6" fill="#000000" cx="22.2160714" cy="22.2696903" rx="15.9303571" ry="15.9688053"></ellipse>
                <polygon id="矩形" fill="url(#linearGradient-1)" points="21.4131974 33.4598718 23.3525647 33.4598718 22.8015673 89 22.040784 89"></polygon>
                <path d="M34.6314347,25.0845992 L31.0225648,24.2059618 C31.1967508,23.4905106 31.2857119,22.7518772 31.2857119,22.0000879 C31.2857119,16.8716948 27.1283534,12.7143108 21.9999917,12.7143108 L21.9999917,9 C29.179698,9 34.9999917,14.8203376 34.9999917,22.0000879 C34.9999917,23.0484796 34.8755148,24.0820647 34.6314347,25.0845992 Z M13.1471037,31.5200083 L15.6770151,28.8005277 C17.3894535,30.3936152 19.6268883,31.2858322 22.0529246,31.2857179 C25.4413702,31.2668826 28.5004484,29.4184443 30.1202362,26.5083173 L33.3656582,28.3147537 C31.1002685,32.3847753 26.8158686,34.9736104 22.0633566,35 C18.6818417,35.0001985 15.542267,33.7482372 13.1471037,31.5200083 Z M17.9688022,9.63764938 L19.1197126,13.1691496 C15.3283027,14.4047793 12.7142745,17.952818 12.7142854,22.0163659 C12.7172632,23.7593673 13.1995538,25.42677 14.0951704,26.8752755 L10.9359949,28.8286299 C9.68117203,26.7991701 9.00416432,24.4585798 9,22.019545 C9,16.3341537 12.6586265,11.3682485 17.9688022,9.63764938 Z M21.9888248,9.00000471 L21.9919568,12.7143142 C21.8559661,12.7144289 21.7203836,12.7174547 21.5852625,12.7233735 L21.4227202,9.01262096 C21.6109412,9.00437619 21.7996728,9.00016421 21.9888248,9.00000471 Z" id="椭圆形" fill="url(#linearGradient-2)" fill-rule="nonzero" transform="translate(22.000000, 22.000000) rotate(24.000000) translate(-22.000000, -22.000000) "></path>
                <g id="椭圆形">
                    <use fill="black" fill-opacity="1" filter="url(#filter-4)" xlink:href="#path-3"></use>
                    <use stroke="#C7FF50" stroke-width="0.502354788" xlink:href="#path-3"></use>
                </g>
                <g id="椭圆形">
                    <use fill="black" fill-opacity="1" filter="url(#filter-6)" xlink:href="#path-5"></use>
                    <use stroke="#C7FF50" stroke-width="0.502354788" xlink:href="#path-5"></use>
                </g>
                <g id="椭圆形">
                    <use fill="black" fill-opacity="1" filter="url(#filter-8)" xlink:href="#path-7"></use>
                    <use stroke-opacity="0.1" stroke="#A2F945" stroke-width="0.502354788" xlink:href="#path-7"></use>
                </g>
                <g id="编组-9" transform="translate(15.595477, 15.323752)" fill-rule="nonzero">
                    <rect id="矩形" fill="#000000" opacity="0" x="0" y="0" width="12.7962887" height="12.9042124"></rect>
                    <path d="M6.78012867,5.23778171 C6.88121641,5.45128744 6.93870915,5.68254865 6.93870915,5.925549 C6.93870915,6.48081065 6.64714927,6.97869723 6.18574442,7.32529556 C6.15531569,7.35611083 6.12137594,7.38824674 6.08099937,7.4219968 C5.21747447,8.14551345 5.93825727,8.52097815 6.13194555,8.60353938 L6.17111844,8.61920578 C8.0066639,9.20259649 8.9248543,10.1144148 9.05993798,10.2565845 L9.07749768,10.27549 C9.34711377,10.7959744 9.07749768,11.2608447 9.07764397,11.2609914 C8.80832047,11.6143397 7.52343814,12.0976991 7.52343814,12.0976991 C7.38548482,12.0203675 5.29599667,11.9946881 4.59891547,11.9879381 C4.35478344,11.9901979 3.94017117,11.9948484 3.49840624,12.0032549 L3.11644389,12.0114122 C2.41624595,12.0281703 1.75012085,12.0551667 1.67424652,12.0976991 C1.67424652,12.0976991 0.389217901,11.6138995 0.119894395,11.2609914 L0.10368655,11.2294637 C0.0496604001,11.1165964 -0.108366087,10.7158999 0.119894395,10.27549 C0.119894374,10.27549 1.03231736,9.25330376 3.0215955,8.62129742 C3.0215955,8.62129742 4.10371716,8.24901971 3.11727045,7.42214354 C2.98297443,7.30988792 2.90661002,7.2168552 2.87091479,7.1389366 C2.53824684,6.81009373 2.33753427,6.38719096 2.33753427,5.925549 C2.33753429,5.68254865 2.39488074,5.45128744 2.49596849,5.23778171 Z M10.3381002,4.43151665 C10.4406009,4.6451751 10.4990665,4.87644278 10.4990665,5.11930319 C10.4990665,5.67458038 10.2030194,6.17277439 9.73365825,6.51923567 C9.70241709,6.55005178 9.66805181,6.58189511 9.62669447,6.6159396 C8.62325835,7.44269219 9.72383959,7.81498032 9.72383959,7.81498032 C11.7473738,8.44700434 12.6744922,9.46936594 12.6744922,9.46936594 C12.9485218,9.9897182 12.6744922,10.4546014 12.674641,10.454308 C12.4007602,10.8076662 11.0939874,11.2911858 11.0939874,11.2911858 C11.0370094,11.259636 10.6494704,11.2364505 10.163001,11.2200153 C10.7097212,8.90719179 7.21130693,8.00119775 7.21130693,8.00119775 C6.76887269,7.90845589 6.8532238,7.75965804 6.8532238,7.75965804 C8.26517522,6.83018504 7.80578148,5.69600493 7.80578148,5.69600493 C9.27173544,5.63613362 9.16536675,4.76550473 9.06911425,4.43151665 Z M4.59950064,1.61302655 C4.77987864,1.61302655 4.92543915,1.78691268 4.92543915,2.00173906 L4.92543915,2.69273461 C4.92543915,2.72443031 4.92163555,2.75465861 4.91563758,2.78415323 L5.05300573,2.78415323 L5.05300573,2.11252726 C5.05300575,2.08919572 5.04949473,2.06703807 5.0464226,2.04458695 C6.16643388,2.24782094 7.01565872,3.1985451 7.02092524,4.34384566 C7.54362642,4.42293816 7.86210404,4.52756331 7.86210404,4.64275369 C7.86210404,4.64818306 7.86049482,4.65361242 7.8590319,4.65904177 C8.12572216,4.72081903 8.27757323,4.79110718 8.27698974,4.86565076 C8.27698974,4.92493344 8.1813131,4.98157483 8.00854229,5.03308033 L1.18797202,5.03308033 C1.0154938,4.98128137 0.919672555,4.92493346 0.919672555,4.86565076 C0.919672555,4.79125392 1.07152362,4.72096577 1.33850646,4.65904177 C1.33704355,4.6536124 1.33528804,4.64818304 1.33528804,4.64275369 C1.33528804,4.52771005 1.65361934,4.42293816 2.17646683,4.34384566 C2.18187963,3.1988386 3.03110448,2.2484079 4.15126206,2.04458695 C4.14760475,2.06718481 4.14453262,2.08934244 4.14467891,2.11252726 L4.14467891,2.78415323 L4.28336371,2.78415323 C4.27707315,2.75465861 4.27341585,2.72443031 4.27341585,2.69273461 L4.27341585,2.00173906 C4.27341585,1.78735288 4.41970782,1.61302655 4.59950064,1.61302655 Z M8.120127,0.806513274 C8.30340844,0.806513274 8.45172955,0.980551016 8.45172955,1.19538341 L8.45172955,1.88654505 C8.45172953,1.91794815 8.44786158,1.94847078 8.44161335,1.97781948 L8.58115717,1.97781948 L8.58115717,1.30617471 C8.58115717,1.28269577 8.577438,1.2605375 8.57416511,1.2382325 C9.71372341,1.44132543 10.5770206,2.39222296 10.582525,3.53740882 C11.114071,3.61650354 11.4380864,3.72113162 11.4380864,3.83632522 C11.4380864,3.84175474 11.4363011,3.84733101 11.4348135,3.85276051 C11.706314,3.91424602 11.8605858,3.98482961 11.8605858,4.05922854 C11.8605858,4.11851287 11.7631431,4.1750091 11.5875976,4.22651605 L8.95887761,4.22651605 C8.74484382,4.00605499 8.32933874,3.80051234 8.05984963,3.68181619 L7.90563552,3.61634091 C7.84315776,3.59082568 7.80548394,3.57673607 7.80548394,3.57673607 C7.62919458,2.32061215 6.50674452,1.90606191 6.39814433,1.86878908 C6.749132,1.54173404 7.18911007,1.32262175 7.66430368,1.2382325 C7.66088204,1.26068425 7.65746039,1.28298924 7.65746039,1.30617471 L7.65746039,1.97781948 L7.79849188,1.97781948 C7.79254116,1.94847078 7.78852445,1.91794815 7.78852445,1.88654505 L7.78852445,1.19538341 C7.78852445,0.980844486 7.9371431,0.806513274 8.120127,0.806513274 Z" id="形状结合" fill="url(#linearGradient-9)"></path>
                </g>
            </g>
        </g>
    </g>
</svg>