<?xml version="1.0" encoding="UTF-8"?>
<svg width="54px" height="94px" viewBox="0 0 54 94" version="1.1" xmlns="http://www.w3.org/2000/svg" xmlns:xlink="http://www.w3.org/1999/xlink">
    <title>应急物资_打点</title>
    <defs>
        <linearGradient x1="50%" y1="0%" x2="50%" y2="97.5427576%" id="linearGradient-1">
            <stop stop-color="#71FF8D" offset="0%"></stop>
            <stop stop-color="#71FF8D" offset="62.7428209%"></stop>
            <stop stop-color="#71FF8D" stop-opacity="0" offset="100%"></stop>
        </linearGradient>
        <linearGradient x1="50%" y1="-14.6974562%" x2="50%" y2="133.054174%" id="linearGradient-2">
            <stop stop-color="#FFFFFF" offset="0%"></stop>
            <stop stop-color="#48EF69" offset="100%"></stop>
        </linearGradient>
        <circle id="path-3" cx="22" cy="22" r="16"></circle>
        <filter x="-13.3%" y="-13.3%" width="126.6%" height="126.6%" filterUnits="objectBoundingBox" id="filter-4">
            <feMorphology radius="0.751177394" operator="dilate" in="SourceAlpha" result="shadowSpreadOuter1"></feMorphology>
            <feOffset dx="0" dy="0" in="shadowSpreadOuter1" result="shadowOffsetOuter1"></feOffset>
            <feMorphology radius="1.5" operator="erode" in="SourceAlpha" result="shadowInner"></feMorphology>
            <feOffset dx="0" dy="0" in="shadowInner" result="shadowInner"></feOffset>
            <feComposite in="shadowOffsetOuter1" in2="shadowInner" operator="out" result="shadowOffsetOuter1"></feComposite>
            <feGaussianBlur stdDeviation="1" in="shadowOffsetOuter1" result="shadowBlurOuter1"></feGaussianBlur>
            <feColorMatrix values="0 0 0 0 0.31372549   0 0 0 0 0.937254902   0 0 0 0 0.435294118  0 0 0 0.56 0" type="matrix" in="shadowBlurOuter1"></feColorMatrix>
        </filter>
        <circle id="path-5" cx="22" cy="22" r="19"></circle>
        <filter x="-8.6%" y="-8.6%" width="117.1%" height="117.1%" filterUnits="objectBoundingBox" id="filter-6">
            <feMorphology radius="0.251177394" operator="dilate" in="SourceAlpha" result="shadowSpreadOuter1"></feMorphology>
            <feOffset dx="0" dy="0" in="shadowSpreadOuter1" result="shadowOffsetOuter1"></feOffset>
            <feMorphology radius="1" operator="erode" in="SourceAlpha" result="shadowInner"></feMorphology>
            <feOffset dx="0" dy="0" in="shadowInner" result="shadowInner"></feOffset>
            <feComposite in="shadowOffsetOuter1" in2="shadowInner" operator="out" result="shadowOffsetOuter1"></feComposite>
            <feGaussianBlur stdDeviation="1" in="shadowOffsetOuter1" result="shadowBlurOuter1"></feGaussianBlur>
            <feColorMatrix values="0 0 0 0 0.31372549   0 0 0 0 0.937254902   0 0 0 0 0.435294118  0 0 0 0.56 0" type="matrix" in="shadowBlurOuter1"></feColorMatrix>
        </filter>
        <circle id="path-7" cx="22" cy="22" r="22"></circle>
        <filter x="-16.5%" y="-16.5%" width="133.0%" height="133.0%" filterUnits="objectBoundingBox" id="filter-8">
            <feMorphology radius="0.751177394" operator="dilate" in="SourceAlpha" result="shadowSpreadOuter1"></feMorphology>
            <feOffset dx="0" dy="0" in="shadowSpreadOuter1" result="shadowOffsetOuter1"></feOffset>
            <feMorphology radius="1.5" operator="erode" in="SourceAlpha" result="shadowInner"></feMorphology>
            <feOffset dx="0" dy="0" in="shadowInner" result="shadowInner"></feOffset>
            <feComposite in="shadowOffsetOuter1" in2="shadowInner" operator="out" result="shadowOffsetOuter1"></feComposite>
            <feGaussianBlur stdDeviation="2" in="shadowOffsetOuter1" result="shadowBlurOuter1"></feGaussianBlur>
            <feColorMatrix values="0 0 0 0 0.31372549   0 0 0 0 0.937254902   0 0 0 0 0.435294118  0 0 0 0.56 0" type="matrix" in="shadowBlurOuter1"></feColorMatrix>
        </filter>
        <linearGradient x1="53.8304822%" y1="103.830482%" x2="53.8304822%" y2="-3.83048222%" id="linearGradient-9">
            <stop stop-color="#46F368" offset="0%"></stop>
            <stop stop-color="#C7FFD2" offset="100%"></stop>
        </linearGradient>
    </defs>
    <g id="v4.21.0" stroke="none" stroke-width="1" fill="none" fill-rule="evenodd">
        <g id="画板" transform="translate(-556.000000, -936.000000)">
            <g id="mappoint/camera" transform="translate(561.000000, 941.000000)">
                <ellipse id="椭圆形" fill-opacity="0.6" fill="#000000" cx="22.2160714" cy="22.2696903" rx="15.9303571" ry="15.9688053"></ellipse>
                <polygon id="矩形" fill="url(#linearGradient-1)" points="21.4131974 33.4598718 23.3525647 33.4598718 22.8015673 89 22.040784 89"></polygon>
                <path d="M34.6314347,25.0845992 L31.0225648,24.2059618 C31.1967508,23.4905106 31.2857119,22.7518772 31.2857119,22.0000879 C31.2857119,16.8716948 27.1283534,12.7143108 21.9999917,12.7143108 L21.9999917,9 C29.179698,9 34.9999917,14.8203376 34.9999917,22.0000879 C34.9999917,23.0484796 34.8755148,24.0820647 34.6314347,25.0845992 Z M13.1471037,31.5200083 L15.6770151,28.8005277 C17.3894535,30.3936152 19.6268883,31.2858322 22.0529246,31.2857179 C25.4413702,31.2668826 28.5004484,29.4184443 30.1202362,26.5083173 L33.3656582,28.3147537 C31.1002685,32.3847753 26.8158686,34.9736104 22.0633566,35 C18.6818417,35.0001985 15.542267,33.7482372 13.1471037,31.5200083 Z M17.9688022,9.63764938 L19.1197126,13.1691496 C15.3283027,14.4047793 12.7142745,17.952818 12.7142854,22.0163659 C12.7172632,23.7593673 13.1995538,25.42677 14.0951704,26.8752755 L10.9359949,28.8286299 C9.68117203,26.7991701 9.00416432,24.4585798 9,22.019545 C9,16.3341537 12.6586265,11.3682485 17.9688022,9.63764938 Z M21.9888248,9.00000471 L21.9919568,12.7143142 C21.8559661,12.7144289 21.7203836,12.7174547 21.5852625,12.7233735 L21.4227202,9.01262096 C21.6109412,9.00437619 21.7996728,9.00016421 21.9888248,9.00000471 Z" id="椭圆形" fill="url(#linearGradient-2)" fill-rule="nonzero" transform="translate(22.000000, 22.000000) rotate(24.000000) translate(-22.000000, -22.000000) "></path>
                <g id="椭圆形">
                    <use fill="black" fill-opacity="1" filter="url(#filter-4)" xlink:href="#path-3"></use>
                    <use stroke="#5AFF7C" stroke-width="0.502354788" xlink:href="#path-3"></use>
                </g>
                <g id="椭圆形">
                    <use fill="black" fill-opacity="1" filter="url(#filter-6)" xlink:href="#path-5"></use>
                    <use stroke="#5AFF7C" stroke-width="0.502354788" xlink:href="#path-5"></use>
                </g>
                <g id="椭圆形">
                    <use fill="black" fill-opacity="1" filter="url(#filter-8)" xlink:href="#path-7"></use>
                    <use stroke-opacity="0.2" stroke="#5AFF7C" stroke-width="0.502354788" xlink:href="#path-7"></use>
                </g>
                <g id="编组-9" transform="translate(15.595477, 15.323752)" fill-rule="nonzero">
                    <rect id="矩形" fill="#000000" opacity="0" x="0" y="0" width="12.7962887" height="12.9042124"></rect>
                    <path d="M10.7681596,10.848191 C10.7681596,11.1494455 10.5239596,11.3936455 10.222705,11.3936455 L2.58634138,11.3936455 C2.28509774,11.3936455 2.04088683,11.1494455 2.04088683,10.848191 L2.04088683,5.93910006 L0.404523196,5.93910006 L6.03759592,0.81810006 C6.24563229,0.628963697 6.5634141,0.628963697 6.77145047,0.81810006 L12.4045232,5.93910006 L10.7681596,5.93910006 L10.7681596,10.848191 Z M4.54565774,7.47073642 L4.0050632,7.78284551 L4.55090501,8.72817279 L5.0923232,8.41557279 C5.30682865,8.61815461 5.56834138,8.77164551 5.85874138,8.85793642 L5.85874138,9.48215461 L6.95035956,9.48215461 L6.95035956,8.85793642 C7.24075956,8.77159097 7.50225047,8.61810006 7.7167232,8.41551824 L8.25819592,8.72811824 L8.80397774,7.78279097 L8.26337774,7.47062733 C8.29703229,7.32880915 8.3148141,7.18088188 8.3148141,7.02880915 C8.3148141,6.87668188 8.29703229,6.72875461 8.2633232,6.58693642 L8.80397774,6.27477279 L8.25814138,5.32941824 L7.71666865,5.64204551 C7.50219592,5.4394637 7.24070501,5.28599461 6.95030501,5.19966006 L6.95030501,4.57545279 L5.85868683,4.57545279 L5.85868683,5.19966006 C5.56828683,5.28600006 5.30677956,5.4394637 5.0922741,5.64204551 L4.55087229,5.32946733 L4.0050632,6.27482733 L4.54564138,6.58693642 C4.51198138,6.72875461 4.49416683,6.87668188 4.49416683,7.02880915 C4.49416683,7.18093642 4.51198683,7.3288637 4.54565774,7.47073642 Z M6.4045232,7.84660915 C5.95234138,7.84660915 5.58579592,7.48044551 5.58579592,7.02880915 C5.58579592,6.57717279 5.95234138,6.21100915 6.4045232,6.21100915 C6.85665047,6.21100915 7.22319592,6.57717279 7.22319592,7.02880915 C7.22319592,7.48044551 6.85665047,7.84660915 6.4045232,7.84660915 Z" id="形状" fill="url(#linearGradient-9)"></path>
                </g>
            </g>
        </g>
    </g>
</svg>