<svg id="svg" version="1.1" xmlns="http://www.w3.org/2000/svg" xmlns:xlink="http://www.w3.org/1999/xlink" width="400" height="400" viewBox="0, 0, 400,400"><g id="svgg"><path id="path0" d="M170.600 130.391 C 150.178 130.546,141.904 130.739,141.147 131.076 C 139.776 131.686,138.395 133.652,138.182 135.296 C 138.090 136.013,137.727 138.850,137.377 141.600 C 136.490 148.560,135.713 152.535,134.601 155.800 C 133.712 158.412,132.817 163.561,131.404 174.200 C 131.083 176.620,130.617 180.130,130.369 182.000 C 130.121 183.870,129.480 186.730,128.943 188.357 C 127.870 191.608,127.019 196.984,127.287 198.812 C 127.381 199.455,127.282 200.039,127.067 200.111 C 126.852 200.183,127.739 200.682,129.038 201.221 L 131.400 202.200 161.600 202.400 C 178.210 202.510,192.183 202.478,192.651 202.329 C 193.610 202.023,194.400 200.138,194.400 198.155 C 194.400 194.013,196.245 191.653,199.560 191.553 C 201.235 191.503,202.140 191.299,202.278 190.941 C 202.391 190.646,202.601 190.477,202.743 190.565 C 203.120 190.798,202.823 184.347,202.414 183.400 C 200.267 178.430,200.315 162.217,202.489 158.334 C 203.358 156.780,206.614 156.020,208.330 156.971 C 208.937 157.307,208.943 157.271,208.400 156.594 C 208.070 156.183,208.013 155.974,208.272 156.130 C 209.437 156.828,209.208 150.980,207.781 143.591 C 207.461 141.936,207.200 139.274,207.200 137.675 C 207.200 132.529,205.165 129.935,201.246 130.088 C 200.011 130.136,186.220 130.272,170.600 130.391 M57.921 201.395 C 56.227 202.546,56.132 202.788,55.791 206.800 C 55.529 209.886,54.818 213.363,54.054 215.300 C 53.606 216.436,53.299 216.541,50.615 216.479 C 49.743 216.459,48.764 216.658,48.438 216.922 C 47.974 217.297,47.911 217.292,48.147 216.900 C 48.312 216.625,48.257 216.400,48.024 216.400 C 47.791 216.400,47.600 216.591,47.600 216.824 C 47.600 217.057,47.405 217.127,47.167 216.979 C 46.597 216.627,46.925 221.741,47.578 223.392 C 49.885 229.220,50.120 243.711,47.998 249.233 L 47.140 251.466 44.429 251.473 C 40.317 251.484,40.286 251.624,41.839 263.168 C 42.769 270.081,39.551 269.509,77.800 269.560 C 116.753 269.612,112.970 270.651,113.319 259.800 C 113.516 253.680,114.250 249.656,115.528 247.690 C 115.883 247.144,120.519 246.684,120.183 247.228 C 120.073 247.406,120.334 247.525,120.764 247.493 C 121.193 247.460,121.456 247.291,121.349 247.117 C 121.241 246.943,121.388 246.797,121.676 246.794 C 122.100 246.789,122.098 246.723,121.666 246.449 C 121.100 246.091,121.073 245.656,121.574 245.000 C 121.966 244.487,121.513 240.691,120.572 236.600 C 119.223 230.734,119.551 217.795,121.153 213.716 C 121.883 211.859,121.960 211.798,123.653 211.722 C 127.426 211.555,127.955 211.169,127.554 208.880 C 127.372 207.846,127.173 205.650,127.112 204.000 L 127.000 201.000 122.800 200.749 C 120.490 200.611,105.277 200.476,88.993 200.449 L 59.386 200.400 57.921 201.395 M46.901 211.800 C 46.905 212.680,46.987 212.993,47.083 212.495 C 47.179 211.998,47.175 211.278,47.075 210.895 C 46.975 210.513,46.896 210.920,46.901 211.800 " stroke="none" fill="#04c4fb" fill-rule="evenodd"></path><path id="path1" d="M191.200 273.216 C 119.190 273.476,116.896 273.527,113.963 274.939 C 110.921 276.404,110.016 277.872,110.474 280.600 C 111.002 283.742,110.629 295.323,109.934 297.380 L 109.400 298.959 106.700 298.965 C 105.132 298.968,103.983 299.144,103.960 299.385 C 103.938 299.613,103.788 299.350,103.627 298.800 C 102.993 296.637,103.167 308.592,103.814 311.612 C 104.869 316.538,105.060 326.110,104.199 330.808 L 103.474 334.755 104.380 337.625 C 104.970 339.493,105.272 341.409,105.247 343.111 C 105.225 344.550,105.408 345.969,105.653 346.264 C 106.023 346.710,123.549 346.800,209.659 346.800 L 313.220 346.800 313.610 345.774 C 313.824 345.210,314.007 343.815,314.016 342.674 C 314.026 341.436,314.388 339.794,314.916 338.600 L 315.800 336.600 318.362 336.518 C 319.771 336.473,321.121 336.239,321.362 335.998 C 321.981 335.380,321.919 326.364,321.242 318.592 C 320.696 312.317,321.076 303.895,321.971 302.447 C 322.129 302.191,323.415 301.905,324.829 301.811 C 326.243 301.718,327.539 301.632,327.709 301.621 C 328.399 301.574,327.353 276.642,326.578 274.669 C 325.834 272.776,322.707 272.742,191.200 273.216 " stroke="none" fill="#f1b004" fill-rule="evenodd"></path><path id="path2" d="M147.762 54.042 C 147.052 54.828,147.009 55.491,147.131 63.843 C 147.279 73.929,147.503 73.238,144.040 73.341 C 142.957 73.374,142.091 73.490,142.115 73.600 C 142.139 73.710,142.001 74.250,141.809 74.800 L 141.459 75.800 141.157 74.800 C 140.990 74.250,140.868 78.104,140.885 83.365 C 140.911 91.451,140.998 92.817,141.450 92.199 C 141.875 91.619,142.519 91.471,144.580 91.480 L 147.175 91.492 147.771 89.846 C 149.031 86.370,149.265 84.808,149.425 78.800 C 149.564 73.569,149.461 72.038,148.767 69.000 C 147.533 63.605,148.193 62.023,151.685 62.005 C 153.125 61.998,156.993 60.532,157.645 59.746 C 158.289 58.970,158.428 54.846,157.841 53.900 C 157.130 52.752,148.824 52.869,147.762 54.042 M359.027 53.559 C 358.495 53.767,358.401 53.953,358.727 54.155 C 358.987 54.316,359.425 54.333,359.700 54.194 C 359.975 54.055,359.867 54.212,359.460 54.544 C 359.028 54.896,358.846 55.350,359.022 55.636 C 359.189 55.906,359.295 56.907,359.259 57.863 C 359.211 59.150,359.345 59.600,359.778 59.600 C 362.597 59.600,364.091 63.688,365.186 74.400 C 365.404 76.528,365.491 74.668,365.486 68.000 C 365.482 62.830,365.372 57.430,365.240 56.000 L 365.000 53.400 363.200 53.387 C 362.210 53.379,361.140 53.559,360.823 53.787 C 360.394 54.094,360.323 54.072,360.547 53.700 C 360.882 53.142,360.243 53.083,359.027 53.559 M140.893 70.400 C 140.893 71.170,140.975 71.485,141.076 71.100 C 141.176 70.715,141.176 70.085,141.076 69.700 C 140.975 69.315,140.893 69.630,140.893 70.400 M365.242 81.000 C 365.167 81.220,365.130 81.547,365.161 81.726 C 365.192 81.905,364.572 81.950,363.784 81.824 C 362.996 81.699,362.435 81.732,362.537 81.898 C 362.640 82.064,361.959 82.139,361.025 82.065 C 358.991 81.903,358.740 82.353,358.051 87.400 C 357.213 93.531,357.179 95.757,357.827 101.759 C 358.676 109.618,359.172 110.406,359.188 103.924 C 359.196 100.530,359.353 98.753,359.662 98.562 C 359.965 98.374,360.024 98.469,359.832 98.838 C 359.672 99.147,359.824 99.051,360.170 98.624 C 360.794 97.855,360.800 97.855,360.806 98.624 C 360.810 99.127,360.918 99.233,361.114 98.925 C 361.280 98.664,361.914 98.505,362.523 98.572 C 363.284 98.655,363.756 98.457,364.035 97.935 C 364.258 97.519,364.639 97.300,364.882 97.451 C 365.141 97.611,365.211 97.541,365.051 97.282 C 364.901 97.040,364.970 96.067,365.205 95.121 C 365.578 93.619,365.614 79.910,365.242 81.000 M140.877 102.657 C 140.890 105.769,140.798 108.480,140.673 108.681 C 140.292 109.299,136.676 109.337,137.004 108.720 C 137.156 108.434,136.732 108.799,136.061 109.530 L 134.842 110.861 134.682 108.530 C 134.511 106.016,134.492 106.651,134.428 117.300 L 134.400 122.000 102.771 122.000 C 75.105 122.000,71.067 122.076,70.539 122.604 C 70.207 122.936,69.769 123.104,69.565 122.978 C 69.361 122.852,69.086 123.031,68.954 123.375 C 68.822 123.719,68.483 124.000,68.200 124.000 C 67.570 124.000,67.200 124.891,67.200 126.404 C 67.200 127.549,66.348 128.755,65.471 128.852 C 65.212 128.881,64.460 128.951,63.800 129.009 C 63.140 129.067,62.555 129.156,62.500 129.207 C 62.445 129.258,62.235 129.322,62.033 129.350 C 61.832 129.378,61.544 129.523,61.394 129.672 C 61.244 129.822,60.899 129.860,60.628 129.755 C 59.962 129.500,59.965 129.473,59.740 138.646 C 59.546 146.531,59.558 146.696,60.371 146.908 C 60.827 147.028,61.200 146.980,61.200 146.802 C 61.200 146.625,62.184 146.532,63.386 146.597 C 66.539 146.766,67.334 145.288,68.202 137.650 C 68.658 133.636,68.843 132.975,69.769 132.050 L 70.818 131.000 103.020 130.919 L 135.222 130.838 137.213 129.754 C 142.556 126.846,144.733 114.972,142.291 102.049 C 141.183 96.184,140.852 96.326,140.877 102.657 M356.605 117.129 C 356.513 117.220,355.730 117.285,354.864 117.273 C 353.152 117.249,352.911 117.617,351.556 122.323 C 350.328 126.586,354.331 126.376,279.400 126.113 L 215.800 125.889 212.984 126.736 C 207.381 128.423,206.535 132.377,208.564 147.400 L 209.105 151.400 209.152 145.124 C 209.185 140.858,209.348 138.756,209.662 138.562 C 209.975 138.368,210.015 138.457,209.785 138.838 C 209.497 139.317,209.547 139.319,210.123 138.851 C 210.495 138.549,210.800 138.420,210.800 138.565 C 210.800 138.710,211.182 138.624,211.648 138.374 C 212.244 138.055,212.416 138.051,212.225 138.360 C 211.787 139.068,212.458 138.865,213.086 138.100 C 213.401 137.715,213.545 137.625,213.406 137.900 C 213.267 138.175,213.339 138.400,213.566 138.400 C 214.106 138.400,215.200 136.270,215.200 135.220 L 215.200 134.400 283.151 134.400 C 340.553 134.400,351.173 134.314,351.562 133.846 C 351.815 133.541,352.133 132.096,352.270 130.633 C 352.562 127.499,352.333 127.707,355.809 127.418 C 359.367 127.121,359.245 127.329,359.113 121.767 L 359.000 117.000 357.885 116.981 C 357.272 116.971,356.696 117.037,356.605 117.129 M67.200 122.156 C 67.200 122.242,67.830 122.386,68.600 122.476 C 69.370 122.566,70.000 122.496,70.000 122.320 C 70.000 122.144,69.370 122.000,68.600 122.000 C 67.830 122.000,67.200 122.070,67.200 122.156 M59.640 158.500 C 59.616 161.562,59.440 163.624,59.200 163.660 C 58.980 163.693,58.575 163.738,58.300 163.760 C 58.025 163.782,57.668 163.980,57.506 164.200 C 57.324 164.448,57.210 164.410,57.206 164.100 C 57.203 163.825,57.009 163.600,56.776 163.600 C 56.543 163.600,56.452 163.761,56.574 163.958 C 56.696 164.155,56.517 164.423,56.177 164.554 C 55.837 164.684,55.661 164.625,55.786 164.423 C 55.911 164.221,55.826 163.939,55.597 163.798 C 55.368 163.656,55.230 163.779,55.290 164.070 C 55.351 164.362,55.153 164.548,54.851 164.484 C 54.495 164.408,54.388 164.591,54.546 165.004 C 54.707 165.424,54.633 165.544,54.327 165.355 C 54.016 165.163,53.950 165.292,54.125 165.750 C 54.288 166.174,54.159 166.517,53.784 166.661 C 53.272 166.858,53.191 168.125,53.245 175.146 C 53.279 179.686,53.434 182.950,53.589 182.400 C 53.744 181.850,54.080 181.445,54.335 181.500 C 57.132 182.102,59.389 181.665,60.152 180.374 C 62.445 176.492,62.621 162.459,60.459 155.800 L 59.680 153.400 59.640 158.500 M208.535 157.900 C 208.636 158.065,207.532 158.227,206.082 158.260 C 203.001 158.331,202.687 158.609,201.917 161.953 C 201.149 165.289,201.288 177.770,202.135 181.600 C 202.501 183.250,202.838 185.410,202.885 186.400 C 202.933 187.390,203.068 185.050,203.186 181.200 L 203.400 174.200 204.410 174.179 C 204.966 174.168,205.622 174.034,205.868 173.882 C 206.115 173.729,206.429 173.898,206.566 174.257 C 206.897 175.118,208.400 173.872,208.400 172.738 C 208.400 172.332,208.546 172.000,208.724 172.000 C 208.903 172.000,209.096 168.760,209.153 164.800 C 209.227 159.652,209.128 157.600,208.805 157.600 C 208.556 157.600,208.435 157.735,208.535 157.900 M53.324 163.400 C 53.326 164.720,53.401 165.212,53.490 164.493 C 53.579 163.774,53.577 162.694,53.486 162.093 C 53.395 161.492,53.322 162.080,53.324 163.400 M53.379 190.858 C 53.607 196.976,53.343 199.200,52.386 199.200 C 52.148 199.200,52.046 199.050,52.159 198.866 C 52.273 198.682,51.518 198.663,50.483 198.822 C 49.447 198.982,48.437 199.014,48.238 198.894 C 48.039 198.774,48.005 198.884,48.162 199.138 C 48.319 199.392,48.257 199.600,48.024 199.600 C 47.791 199.600,47.621 199.735,47.647 199.900 C 47.804 200.895,47.469 201.251,47.176 200.400 C 46.968 199.795,46.878 202.378,46.949 206.935 C 47.041 212.910,47.182 214.544,47.633 214.829 C 48.122 215.138,48.122 215.189,47.633 215.194 C 47.322 215.197,47.179 215.312,47.316 215.449 C 47.453 215.587,47.888 215.557,48.283 215.384 C 49.342 214.919,49.431 214.904,51.542 214.850 L 53.483 214.800 54.355 211.864 C 55.732 207.226,55.967 198.263,54.852 192.923 C 54.383 190.681,53.997 188.161,53.994 187.323 C 53.991 186.485,53.798 185.530,53.566 185.200 C 53.268 184.775,53.213 186.421,53.379 190.858 M202.800 191.843 C 202.800 192.244,202.579 192.401,202.213 192.260 C 201.890 192.136,201.542 192.170,201.441 192.334 C 201.339 192.499,200.258 192.604,199.038 192.569 L 196.820 192.505 195.921 194.353 C 195.409 195.403,194.910 197.394,194.763 198.967 C 194.573 201.007,194.308 201.879,193.753 202.289 C 192.913 202.908,130.676 202.848,128.911 202.226 C 127.547 201.745,127.071 203.184,127.531 206.403 L 127.901 209.000 127.951 206.100 L 128.000 203.200 163.300 203.154 C 182.715 203.128,199.281 203.121,200.114 203.139 C 200.990 203.157,201.528 203.008,201.391 202.785 C 201.260 202.573,201.433 202.400,201.776 202.400 C 202.119 202.400,202.400 202.119,202.400 201.776 C 202.400 201.433,202.553 201.247,202.740 201.363 C 202.928 201.479,203.114 199.239,203.154 196.387 C 203.194 193.534,203.131 191.200,203.014 191.200 C 202.896 191.200,202.800 191.489,202.800 191.843 M127.600 212.424 C 127.600 212.657,127.432 212.744,127.228 212.617 C 127.023 212.491,126.742 212.570,126.604 212.793 C 126.466 213.017,125.401 213.200,124.237 213.200 C 122.174 213.200,122.105 213.237,121.473 214.700 C 119.743 218.705,119.562 231.748,121.150 238.000 L 121.912 241.000 122.019 235.200 C 122.078 232.010,122.117 229.169,122.105 228.886 C 122.090 228.523,122.229 228.492,122.579 228.782 C 122.851 229.008,123.179 229.088,123.308 228.959 C 123.706 228.561,125.964 228.535,125.719 228.931 C 125.592 229.136,125.739 229.213,126.044 229.102 C 126.350 228.991,126.555 228.697,126.500 228.450 C 126.445 228.203,126.591 228.000,126.824 228.000 C 127.057 228.000,127.136 227.820,127.000 227.600 C 126.864 227.380,127.016 227.200,127.338 227.200 C 127.830 227.200,127.924 225.995,127.935 219.600 C 127.942 215.420,127.869 212.000,127.774 212.000 C 127.678 212.000,127.600 212.191,127.600 212.424 M47.137 228.394 C 47.286 234.900,47.192 235.164,44.800 234.969 C 44.250 234.924,43.571 235.074,43.291 235.301 C 42.907 235.612,42.844 235.550,43.035 235.052 C 43.222 234.566,43.123 234.455,42.660 234.632 C 42.314 234.765,41.907 235.262,41.756 235.737 C 41.487 236.582,41.475 236.583,41.169 235.800 C 40.997 235.360,40.844 238.386,40.828 242.524 C 40.810 247.444,40.938 249.962,41.200 249.800 C 41.420 249.664,41.600 249.754,41.600 250.000 C 41.600 250.257,41.813 250.315,42.100 250.137 C 42.375 249.966,43.616 249.869,44.858 249.921 C 47.078 250.014,47.124 249.994,47.583 248.708 C 49.262 244.009,49.569 236.539,48.403 228.817 C 47.304 221.543,46.977 221.434,47.137 228.394 M40.893 230.800 C 40.893 231.570,40.975 231.885,41.076 231.500 C 41.176 231.115,41.176 230.485,41.076 230.100 C 40.975 229.715,40.893 230.030,40.893 230.800 M120.358 248.576 C 120.261 248.672,119.149 248.793,117.886 248.844 L 115.590 248.937 114.769 251.569 C 114.165 253.504,113.886 255.787,113.716 260.200 L 113.485 266.200 111.584 268.115 L 109.683 270.031 76.942 269.915 C 58.934 269.852,43.909 269.655,43.554 269.478 C 42.462 268.933,42.061 267.454,41.618 262.330 C 40.913 254.182,40.860 254.245,41.059 263.000 C 41.199 269.190,41.385 271.505,41.764 271.800 C 42.048 272.020,42.307 272.335,42.340 272.500 C 42.420 272.902,42.805 272.935,43.133 272.569 C 43.280 272.406,43.147 272.418,42.838 272.598 C 42.445 272.826,42.369 272.774,42.583 272.427 C 42.815 272.052,43.002 272.043,43.345 272.392 C 43.686 272.738,43.605 272.998,43.024 273.427 C 42.596 273.742,42.451 274.000,42.700 274.000 C 42.949 274.000,43.264 273.820,43.400 273.600 C 44.090 272.483,44.992 274.156,44.334 275.332 C 43.972 275.979,44.459 276.245,46.579 276.556 C 46.981 276.615,47.524 276.954,47.784 277.310 C 48.521 278.319,100.854 278.347,106.077 277.342 C 109.080 276.764,109.600 276.548,109.600 275.879 C 109.600 274.767,110.935 272.746,112.371 271.685 C 113.741 270.671,115.056 268.353,115.516 266.138 C 115.842 264.570,116.046 264.475,119.538 264.281 C 120.699 264.217,121.004 264.035,121.019 263.400 C 121.029 262.960,121.254 262.645,121.519 262.700 C 122.328 262.868,122.188 249.845,121.371 249.029 C 120.687 248.344,120.619 248.314,120.358 248.576 M40.893 274.800 C 40.893 275.570,40.975 275.885,41.076 275.500 C 41.176 275.115,41.176 274.485,41.076 274.100 C 40.975 273.715,40.893 274.030,40.893 274.800 M46.992 275.588 C 47.091 275.748,46.594 275.886,45.886 275.895 C 45.179 275.904,44.826 275.826,45.102 275.722 C 45.379 275.617,45.514 275.384,45.402 275.203 C 45.290 275.022,45.562 274.970,46.006 275.086 C 46.449 275.202,46.893 275.428,46.992 275.588 " stroke="none" fill="#04578f" fill-rule="evenodd"></path><path id="path3" d="M365.335 57.054 C 365.476 59.224,365.593 64.735,365.596 69.300 L 365.600 77.600 367.346 77.600 C 371.075 77.600,372.014 75.069,371.987 65.084 C 371.960 54.946,371.543 53.827,367.640 53.392 L 365.080 53.107 365.335 57.054 M142.800 59.947 C 141.159 60.416,140.808 62.208,140.985 69.200 C 141.071 72.610,141.161 75.490,141.185 75.600 C 141.209 75.710,141.476 75.352,141.779 74.805 C 142.082 74.258,142.274 73.718,142.206 73.605 C 142.138 73.492,142.966 73.374,144.045 73.341 C 147.404 73.241,147.234 73.631,147.110 66.309 L 147.000 59.800 145.400 59.731 C 144.520 59.692,143.350 59.790,142.800 59.947 M139.000 95.028 C 138.120 95.891,136.860 96.792,136.200 97.032 C 134.605 97.610,134.199 99.914,134.590 106.172 L 134.880 110.817 136.080 109.508 C 136.740 108.789,137.152 108.440,136.995 108.734 C 136.772 109.154,137.128 109.238,138.655 109.128 L 140.600 108.988 140.816 106.394 C 140.935 104.967,140.935 101.474,140.816 98.630 L 140.600 93.461 139.000 95.028 M365.101 95.541 C 364.938 96.279,364.921 97.071,365.064 97.303 C 365.211 97.542,365.133 97.606,364.882 97.451 C 364.639 97.300,364.258 97.519,364.035 97.935 C 363.756 98.457,363.284 98.655,362.523 98.572 C 361.914 98.505,361.280 98.664,361.114 98.925 C 360.918 99.233,360.810 99.127,360.806 98.624 C 360.800 97.855,360.794 97.855,360.170 98.624 C 359.824 99.051,359.672 99.147,359.832 98.838 C 360.024 98.469,359.965 98.374,359.662 98.562 C 358.975 98.987,359.012 114.001,359.700 113.999 C 360.793 113.995,362.848 112.324,363.505 110.903 C 363.887 110.076,364.470 109.190,364.800 108.933 C 365.391 108.472,365.894 99.348,365.534 95.600 L 365.399 94.200 365.101 95.541 M64.200 122.638 C 61.734 123.302,60.609 124.534,60.038 127.198 C 59.486 129.772,59.456 131.647,59.980 130.819 C 60.182 130.500,60.240 130.064,60.108 129.851 C 59.973 129.633,60.142 129.569,60.495 129.704 C 60.840 129.837,61.244 129.822,61.394 129.672 C 61.544 129.523,61.832 129.378,62.033 129.350 C 62.235 129.322,62.445 129.258,62.500 129.207 C 62.555 129.156,63.140 129.067,63.800 129.009 C 64.460 128.951,65.212 128.881,65.471 128.852 C 66.348 128.755,67.200 127.549,67.200 126.404 C 67.200 124.891,67.570 124.000,68.200 124.000 C 68.483 124.000,68.822 123.719,68.954 123.375 C 69.086 123.031,69.339 122.839,69.516 122.948 C 70.003 123.249,71.028 122.491,70.634 122.122 C 70.445 121.945,70.219 122.000,70.131 122.244 C 70.022 122.545,69.430 122.583,68.285 122.361 C 67.358 122.182,66.510 122.049,66.400 122.067 C 66.290 122.085,65.300 122.342,64.200 122.638 M358.738 126.995 C 358.631 127.102,357.307 127.293,355.795 127.419 C 352.335 127.707,352.562 127.500,352.270 130.633 C 352.133 132.096,351.817 133.539,351.566 133.841 C 351.186 134.299,351.681 134.372,354.597 134.282 C 358.920 134.149,359.200 133.872,359.200 129.724 C 359.200 126.886,359.149 126.584,358.738 126.995 M215.284 135.120 C 215.173 136.331,214.090 138.400,213.566 138.400 C 213.339 138.400,213.267 138.175,213.406 137.900 C 213.545 137.625,213.401 137.715,213.086 138.100 C 212.458 138.865,211.787 139.068,212.225 138.360 C 212.416 138.051,212.244 138.055,211.648 138.374 C 211.182 138.624,210.800 138.710,210.800 138.565 C 210.800 138.420,210.495 138.549,210.123 138.851 C 209.547 139.319,209.497 139.317,209.785 138.838 C 210.015 138.457,209.975 138.368,209.662 138.562 C 209.341 138.760,209.200 140.982,209.200 145.824 L 209.200 152.800 211.218 152.800 C 214.442 152.800,215.050 151.919,215.385 146.761 C 215.617 143.206,215.524 132.509,215.284 135.120 M59.340 140.400 C 59.340 142.270,59.409 143.035,59.493 142.100 C 59.577 141.165,59.577 139.635,59.493 138.700 C 59.409 137.765,59.340 138.530,59.340 140.400 M57.600 149.133 C 56.792 149.561,55.862 150.533,55.400 151.432 C 54.960 152.288,54.330 153.203,54.000 153.464 C 53.280 154.033,53.085 166.910,53.800 166.658 C 54.020 166.581,54.143 166.203,54.073 165.818 C 53.999 165.408,54.121 165.228,54.369 165.381 C 54.617 165.534,54.701 165.407,54.572 165.071 C 54.432 164.706,54.613 164.502,55.076 164.505 C 56.486 164.514,56.844 164.395,56.600 164.000 C 56.464 163.780,56.543 163.600,56.776 163.600 C 57.009 163.600,57.203 163.825,57.206 164.100 C 57.210 164.410,57.324 164.448,57.506 164.200 C 57.668 163.980,58.025 163.782,58.300 163.760 C 58.575 163.738,58.980 163.693,59.200 163.660 C 59.644 163.593,59.697 150.816,59.260 149.295 L 59.000 148.391 57.600 149.133 M208.400 172.738 C 208.400 173.872,206.897 175.118,206.566 174.257 C 206.429 173.898,206.115 173.729,205.868 173.882 C 205.622 174.034,204.966 174.168,204.410 174.179 L 203.400 174.200 203.292 182.070 L 203.183 189.940 204.692 189.532 C 206.768 188.970,207.869 187.831,208.445 185.651 C 209.087 183.224,209.395 172.000,208.820 172.000 C 208.589 172.000,208.400 172.332,208.400 172.738 M48.913 185.283 C 47.691 185.872,47.295 187.431,46.978 192.888 C 46.691 197.823,47.006 201.762,47.608 200.787 C 47.795 200.485,47.858 200.095,47.750 199.919 C 47.642 199.744,47.754 199.600,48.000 199.600 C 48.246 199.600,48.319 199.392,48.162 199.138 C 48.005 198.884,48.039 198.774,48.238 198.894 C 48.437 199.014,49.447 198.982,50.483 198.822 C 51.518 198.663,52.273 198.682,52.159 198.866 C 52.046 199.050,52.148 199.200,52.386 199.200 C 53.240 199.200,53.659 196.989,53.448 193.600 C 53.331 191.730,53.228 188.985,53.218 187.500 L 53.200 184.800 51.500 184.827 C 50.565 184.842,49.401 185.047,48.913 185.283 M202.400 201.776 C 202.400 202.119,202.094 202.400,201.720 202.400 C 201.214 202.400,201.156 202.516,201.493 202.853 C 201.742 203.102,202.228 203.198,202.573 203.066 C 203.275 202.796,203.414 201.779,202.800 201.400 C 202.580 201.264,202.400 201.433,202.400 201.776 M128.000 206.238 L 128.000 209.275 160.300 209.122 C 196.695 208.950,195.152 209.080,195.970 206.132 C 196.873 202.881,200.550 203.200,162.200 203.200 L 128.000 203.200 128.000 206.238 M42.135 222.399 C 40.922 222.889,40.814 223.504,40.876 229.600 C 40.934 235.258,41.238 237.371,41.759 235.730 C 41.908 235.259,42.314 234.765,42.660 234.632 C 43.123 234.455,43.222 234.566,43.035 235.052 C 42.844 235.550,42.907 235.612,43.291 235.301 C 43.571 235.074,44.250 234.924,44.800 234.969 C 47.120 235.158,47.244 234.846,47.177 228.958 C 47.094 221.633,46.370 220.692,42.135 222.399 M127.000 227.600 C 127.136 227.820,127.057 228.000,126.824 228.000 C 126.591 228.000,126.445 228.203,126.500 228.450 C 126.555 228.697,126.350 228.991,126.044 229.102 C 125.739 229.213,125.592 229.136,125.719 228.931 C 125.964 228.535,123.706 228.561,123.308 228.959 C 123.179 229.088,122.852 229.009,122.580 228.784 C 122.192 228.461,122.074 230.175,122.024 236.820 L 121.961 245.266 122.881 244.988 C 124.066 244.630,125.917 242.895,126.250 241.830 C 126.393 241.373,126.845 240.571,127.255 240.046 C 128.291 238.720,128.400 227.200,127.376 227.200 C 127.033 227.200,126.864 227.380,127.000 227.600 M39.400 253.869 C 36.008 254.615,35.424 255.543,34.765 261.234 C 33.801 269.551,34.412 271.283,38.479 271.776 L 40.759 272.052 40.956 273.726 C 41.064 274.647,41.119 275.940,41.077 276.600 L 41.000 277.800 44.500 277.916 C 46.597 277.985,48.000 277.874,48.000 277.639 C 48.000 277.184,47.252 276.661,46.424 276.535 C 44.452 276.238,43.979 275.966,44.334 275.332 C 44.992 274.156,44.090 272.483,43.400 273.600 C 43.264 273.820,42.949 274.000,42.700 274.000 C 42.451 274.000,42.596 273.742,43.024 273.427 C 43.605 272.998,43.686 272.738,43.345 272.392 C 43.002 272.043,42.815 272.052,42.583 272.427 C 42.373 272.768,42.440 272.822,42.800 272.600 C 43.149 272.384,43.227 272.433,43.034 272.745 C 42.875 273.002,42.565 273.102,42.346 272.966 C 42.126 272.831,42.046 272.621,42.167 272.499 C 42.288 272.378,42.129 272.081,41.812 271.840 C 41.358 271.492,41.178 269.528,40.958 262.500 C 40.805 257.605,40.572 253.621,40.440 253.646 C 40.308 253.672,39.840 253.772,39.400 253.869 M121.154 262.676 C 121.128 262.854,121.083 263.270,121.054 263.600 C 121.018 263.997,120.506 264.227,119.538 264.281 C 116.046 264.475,115.842 264.570,115.516 266.138 C 115.056 268.353,113.741 270.671,112.371 271.685 C 110.934 272.747,109.600 274.768,109.600 275.883 C 109.600 276.550,109.121 276.762,106.500 277.257 L 103.400 277.842 103.349 289.190 C 103.310 297.785,103.407 300.348,103.749 299.756 C 104.122 299.110,104.651 298.972,106.800 298.959 L 109.400 298.944 109.934 297.372 C 110.629 295.325,111.002 283.744,110.474 280.600 C 109.783 276.480,112.661 274.428,120.200 273.668 C 125.236 273.160,315.085 272.694,321.753 273.173 C 327.134 273.560,326.724 272.743,327.576 284.759 C 327.801 287.927,328.057 290.591,328.146 290.679 C 328.537 291.070,332.530 290.223,333.323 289.581 C 334.480 288.644,334.712 273.125,333.582 272.269 C 333.242 272.011,332.594 271.081,332.143 270.201 C 331.583 269.110,330.795 268.348,329.661 267.802 C 328.748 267.361,328.000 266.795,328.000 266.543 C 328.000 265.626,325.090 265.600,224.367 265.600 L 122.000 265.600 122.000 264.224 C 122.000 263.046,121.287 261.742,121.154 262.676 M45.402 275.203 C 45.514 275.384,45.379 275.617,45.102 275.722 C 44.826 275.826,45.179 275.904,45.886 275.895 C 47.264 275.878,47.330 275.432,46.006 275.086 C 45.562 274.970,45.290 275.022,45.402 275.203 M323.200 301.940 C 321.814 302.135,321.747 302.322,321.184 307.548 C 320.735 311.719,321.052 320.885,321.816 325.800 C 321.885 326.240,321.954 326.825,321.970 327.100 C 322.018 327.908,325.355 327.726,326.428 326.858 C 327.689 325.836,327.925 323.485,327.966 311.540 L 328.000 301.680 326.100 301.740 C 325.055 301.773,323.750 301.863,323.200 301.940 M101.048 308.000 C 100.234 308.880,99.237 309.600,98.833 309.600 C 97.050 309.600,97.007 309.994,96.871 327.761 C 96.786 338.845,96.885 344.976,97.161 345.700 L 97.580 346.800 101.839 346.800 C 105.355 346.800,106.020 346.706,105.653 346.264 C 105.408 345.969,105.225 344.550,105.247 343.111 C 105.272 341.409,104.970 339.493,104.380 337.625 L 103.474 334.755 104.200 330.801 C 105.043 326.205,104.841 316.159,103.814 311.600 C 103.492 310.170,103.222 308.415,103.214 307.700 C 103.196 306.012,102.842 306.061,101.048 308.000 M321.600 335.213 C 321.600 336.234,321.019 336.455,318.119 336.535 L 315.800 336.600 314.916 338.600 C 314.388 339.794,314.026 341.436,314.016 342.674 C 314.007 343.815,313.824 345.210,313.610 345.774 L 313.220 346.800 316.981 346.800 C 322.114 346.800,322.000 346.955,322.000 339.971 C 322.000 336.907,321.910 334.400,321.800 334.400 C 321.690 334.400,321.600 334.766,321.600 335.213 " stroke="none" fill="#545c34" fill-rule="evenodd"></path><path id="path4" d="M157.606 53.476 C 157.603 53.738,157.758 54.051,157.952 54.170 C 158.481 54.497,158.226 59.046,157.639 59.753 C 156.992 60.533,153.119 61.998,151.685 62.005 C 148.193 62.023,147.533 63.605,148.767 69.000 C 149.461 72.038,149.564 73.569,149.425 78.800 C 149.265 84.805,149.031 86.370,147.774 89.840 L 147.180 91.480 144.390 91.486 C 142.606 91.489,141.598 91.331,141.594 91.046 C 141.591 90.801,141.413 90.870,141.200 91.200 C 140.987 91.530,140.812 91.980,140.812 92.200 C 140.812 92.420,140.987 92.330,141.200 92.000 C 141.433 91.639,141.590 91.590,141.594 91.876 C 141.597 92.138,141.420 92.464,141.200 92.600 C 140.619 92.959,140.721 96.338,141.368 98.200 C 142.584 101.693,143.305 108.753,143.066 114.800 C 142.702 123.960,141.307 127.526,137.213 129.754 L 135.222 130.838 103.020 130.919 L 70.818 131.000 69.769 132.050 C 68.843 132.975,68.658 133.636,68.202 137.650 C 67.334 145.288,66.539 146.766,63.386 146.597 C 62.184 146.532,61.200 146.625,61.200 146.802 C 61.200 148.105,59.622 146.495,59.491 145.059 C 59.386 143.913,59.318 144.235,59.270 146.100 C 59.231 147.585,59.335 148.800,59.500 148.800 C 59.665 148.800,59.742 149.655,59.670 150.700 C 59.587 151.916,59.921 153.896,60.596 156.200 C 62.545 162.850,62.416 175.539,60.356 179.864 C 59.539 181.580,56.337 182.472,54.566 181.478 C 53.055 180.630,53.255 185.898,55.037 193.909 C 55.979 198.143,55.620 207.604,54.355 211.864 L 53.483 214.800 51.542 214.850 C 49.084 214.913,48.930 214.937,48.567 215.300 C 48.402 215.465,47.982 215.597,47.633 215.594 C 47.216 215.590,47.155 215.488,47.456 215.294 C 47.786 215.081,47.758 214.858,47.356 214.484 C 46.889 214.051,46.800 214.192,46.800 215.361 C 46.800 216.126,46.980 216.864,47.200 217.000 C 47.420 217.136,47.600 217.057,47.600 216.824 C 47.600 216.591,47.791 216.400,48.024 216.400 C 48.257 216.400,48.312 216.625,48.147 216.900 C 47.911 217.292,47.974 217.297,48.438 216.922 C 48.764 216.658,49.743 216.459,50.615 216.479 C 53.299 216.541,53.606 216.436,54.054 215.300 C 54.838 213.315,55.538 209.855,55.815 206.600 C 56.388 199.864,53.543 200.390,89.047 200.449 C 123.467 200.506,126.973 200.631,127.057 201.800 C 127.165 203.301,127.225 203.400,127.616 202.729 C 127.933 202.185,128.438 202.096,130.304 202.256 L 132.600 202.453 129.857 201.450 C 127.171 200.468,126.269 200.000,127.064 200.000 C 127.283 200.000,127.384 199.470,127.289 198.822 C 127.019 196.985,127.868 191.615,128.943 188.357 C 129.480 186.730,130.121 183.870,130.369 182.000 C 130.617 180.130,131.083 176.620,131.404 174.200 C 132.821 163.531,133.713 158.410,134.608 155.800 C 135.623 152.840,136.857 146.320,137.599 140.000 C 138.816 129.638,135.534 130.488,174.815 130.366 C 203.023 130.279,204.028 130.301,204.842 131.038 C 206.510 132.546,207.198 134.568,207.240 138.084 C 207.262 139.908,207.408 141.850,207.564 142.400 C 207.720 142.950,207.769 141.277,207.673 138.683 C 207.354 130.076,208.198 128.177,212.984 126.736 L 215.800 125.889 279.400 126.113 C 354.331 126.376,350.328 126.586,351.556 122.323 C 352.878 117.733,353.177 117.254,354.745 117.214 C 355.545 117.193,356.865 117.138,357.678 117.093 L 359.155 117.010 359.023 112.805 C 358.951 110.492,358.591 106.800,358.223 104.600 C 357.071 97.708,357.407 87.124,358.907 83.065 C 359.290 82.027,359.472 81.941,361.025 82.065 C 361.959 82.139,362.640 82.064,362.537 81.898 C 362.435 81.732,363.011 81.701,363.818 81.830 C 364.759 81.979,365.196 81.918,365.037 81.659 C 364.899 81.437,364.987 81.131,365.232 80.980 C 365.827 80.613,365.412 74.804,364.362 68.800 C 362.996 60.992,362.641 60.188,360.350 59.730 C 359.285 59.517,359.202 59.372,359.261 57.813 C 359.296 56.885,359.189 55.906,359.022 55.636 C 358.846 55.350,359.028 54.896,359.460 54.544 C 359.867 54.212,359.975 54.055,359.700 54.194 C 359.425 54.333,358.987 54.316,358.727 54.155 C 358.401 53.953,358.495 53.767,359.027 53.559 C 359.452 53.393,314.710 53.246,259.600 53.234 C 198.329 53.221,159.171 53.357,158.811 53.585 C 158.422 53.831,158.117 53.795,157.917 53.479 C 157.683 53.111,157.611 53.110,157.606 53.476 M208.501 148.600 C 208.505 149.480,208.587 149.793,208.683 149.295 C 208.779 148.798,208.775 148.078,208.675 147.695 C 208.575 147.313,208.496 147.720,208.501 148.600 M208.506 156.737 C 208.921 157.245,208.893 157.283,208.330 156.971 C 206.614 156.020,203.358 156.780,202.489 158.334 C 200.832 161.293,200.193 176.075,201.543 180.200 C 201.838 181.103,201.869 180.756,201.668 178.800 C 201.220 174.453,201.373 164.363,201.922 161.953 C 202.684 158.611,203.000 158.331,206.082 158.260 C 207.532 158.227,208.636 158.065,208.535 157.900 C 208.435 157.735,208.543 157.600,208.776 157.600 C 209.009 157.600,209.200 157.270,209.200 156.867 C 209.200 156.463,208.933 156.133,208.606 156.133 C 208.126 156.133,208.107 156.248,208.506 156.737 M202.278 190.941 C 202.140 191.299,201.235 191.503,199.560 191.553 C 196.245 191.653,194.400 194.013,194.400 198.155 C 194.400 200.112,193.616 202.016,192.650 202.406 C 192.089 202.633,192.012 202.758,192.424 202.775 C 193.859 202.833,194.500 201.789,194.763 198.967 C 194.910 197.394,195.409 195.403,195.921 194.353 L 196.820 192.505 199.038 192.569 C 200.258 192.604,201.339 192.499,201.441 192.334 C 201.542 192.170,201.866 192.127,202.160 192.240 C 202.470 192.359,202.785 192.100,202.910 191.623 C 203.151 190.701,202.599 190.105,202.278 190.941 M147.900 202.700 C 155.655 202.761,168.345 202.761,176.100 202.700 C 183.855 202.639,177.510 202.589,162.000 202.589 C 146.490 202.589,140.145 202.639,147.900 202.700 M127.293 206.800 C 127.293 207.570,127.375 207.885,127.476 207.500 C 127.576 207.115,127.576 206.485,127.476 206.100 C 127.375 205.715,127.293 206.030,127.293 206.800 M127.055 211.078 C 126.681 211.452,125.746 211.629,123.653 211.722 C 121.775 211.806,120.945 213.034,120.202 216.826 C 119.737 219.201,119.539 230.092,119.916 232.600 C 120.182 234.374,120.225 233.430,120.080 228.980 C 119.710 217.585,120.865 213.200,124.237 213.200 C 125.401 213.200,126.466 213.017,126.604 212.793 C 126.742 212.570,127.004 212.479,127.186 212.591 C 127.505 212.788,128.000 211.922,128.000 211.167 C 128.000 210.734,127.451 210.682,127.055 211.078 M48.470 228.800 C 48.457 229.350,48.595 230.520,48.777 231.400 L 49.108 233.000 49.107 231.600 C 49.105 229.835,48.509 227.212,48.470 228.800 M49.274 237.000 C 49.180 240.832,48.355 246.548,47.583 248.708 C 47.124 249.994,47.078 250.014,44.858 249.921 C 43.616 249.869,42.390 249.957,42.134 250.116 C 41.878 250.275,41.592 250.269,41.500 250.102 C 41.407 249.936,41.378 250.003,41.434 250.251 C 41.491 250.499,41.336 250.904,41.089 251.151 C 40.757 251.483,40.781 251.730,41.179 252.100 C 41.610 252.500,41.661 252.500,41.435 252.100 C 41.121 251.544,41.149 251.539,44.668 251.504 L 47.135 251.479 47.996 249.239 C 49.047 246.505,49.680 241.237,49.498 236.747 L 49.363 233.400 49.274 237.000 M121.693 242.000 C 121.693 242.770,121.775 243.085,121.876 242.700 C 121.976 242.315,121.976 241.685,121.876 241.300 C 121.775 240.915,121.693 241.230,121.693 242.000 M121.569 244.900 C 121.316 245.728,121.346 246.400,121.635 246.400 C 121.836 246.400,122.000 246.040,122.000 245.600 C 122.000 244.957,121.701 244.471,121.569 244.900 M116.319 247.126 C 114.622 247.439,113.185 254.260,113.268 261.600 L 113.321 266.200 113.627 260.282 C 113.838 256.198,114.188 253.523,114.757 251.651 L 115.581 248.938 117.867 248.845 C 119.124 248.794,120.284 248.672,120.444 248.573 C 120.604 248.474,121.020 248.677,121.368 249.025 C 121.911 249.568,122.000 249.573,122.000 249.062 C 122.000 248.735,121.775 248.376,121.500 248.265 C 121.100 248.104,121.100 248.057,121.500 248.032 C 121.775 248.014,122.000 247.730,122.000 247.400 C 122.000 246.721,121.374 246.595,121.000 247.200 C 120.864 247.420,120.573 247.600,120.353 247.600 C 120.133 247.600,120.046 247.449,120.160 247.265 C 120.355 246.948,117.786 246.855,116.319 247.126 M42.046 266.526 C 41.934 268.289,43.214 269.602,45.000 269.558 L 46.200 269.528 44.967 269.170 C 43.590 268.770,42.580 267.802,42.288 266.600 C 42.119 265.909,42.086 265.899,42.046 266.526 M109.927 269.217 C 109.498 269.467,97.859 269.572,77.827 269.505 C 60.542 269.447,46.400 269.535,46.400 269.700 C 46.400 270.336,109.377 270.053,110.224 269.413 C 111.107 268.744,110.933 268.630,109.927 269.217 " stroke="none" fill="#0472f9" fill-rule="evenodd"></path></g></svg>