<svg xmlns="http://www.w3.org/2000/svg" xmlns:xlink="http://www.w3.org/1999/xlink" fill="none" version="1.1" width="40" height="40" viewBox="0 0 40 40"><defs><clipPath id="master_svg0_4246_13021"><rect x="0" y="0" width="40" height="40" rx="0"/></clipPath></defs><g clip-path="url(#master_svg0_4246_13021)"><g></g><g><path d="M31.1416,27.36372137451172L20.727600000000002,37.77782137451172L10.31355,27.36372137451172C4.56212,21.61222137451172,4.56216,12.287221374511718,10.31364,6.535811374511718C16.0651,0.7843613745117188,25.3901,0.7843613745117188,31.1416,6.535811374511718C36.893,12.287221374511718,36.893100000000004,21.61222137451172,31.1416,27.36372137451172Z" fill="#FF4D4F" fill-opacity="1"/></g><g style="mix-blend-mode:passthrough"><g style="opacity:0.3199999928474426;mix-blend-mode:passthrough"><path d="M13.6666259765625,11.45991901171875L13.6666259765625,24.54028701171875C13.6666259765625,24.97708701171875,14.0902689765625,25.33338701171875,14.4849509765625,25.33338701171875C14.8793859765625,25.33338701171875,15.3136859765625,24.97708701171875,15.3136859765625,24.54008701171875L15.3136859765625,11.46003301171875C15.3136859765625,11.02132101171875,14.8899359765625,10.66680111571875,14.4953599765625,10.66680111571875C14.0999419765625,10.66668701171875,13.6666259765625,11.02119101171875,13.6666259765625,11.45991901171875Z" fill-rule="evenodd" fill="#FFFFFF" fill-opacity="1"/></g><g style="mix-blend-mode:passthrough"><path d="M18.9035191015625,10.66668701171875C17.3489591015625,10.66668701171875,16.1485564015625,11.42360001171875,16.1485564015625,11.42360001171875L16.1373291015625,20.04826701171875C16.1373291015625,20.04826701171875,17.3489591015625,19.292387011718752,18.9035291015625,19.292387011718752C21.5964991015625,19.292387011718752,21.5964991015625,20.44446701171875,24.2896191015625,20.44446701171875C25.9743991015625,20.44446701171875,27.666729101562503,19.52120701171875,27.666729101562503,19.52120701171875L27.666729101562503,10.89740801171875C27.666729101562503,10.89740801171875,25.9743991015625,11.81874701171875,24.2896191015625,11.81874701171875C21.5964791015625,11.81875701171875,21.5964791015625,10.66668701171875,18.9035191015625,10.66668701171875Z" fill-rule="evenodd" fill="#FFFFFF" fill-opacity="1"/></g></g></g></svg>