<svg xmlns="http://www.w3.org/2000/svg" xmlns:xlink="http://www.w3.org/1999/xlink" fill="none" version="1.1" width="33.049072265625" height="56" viewBox="0 0 33.049072265625 56"><defs><radialGradient cx="0" cy="0" r="1" gradientUnits="userSpaceOnUse" id="master_svg0_157_5220" gradientTransform="translate(16.525005340576172 47) rotate(90) scale(9 15.491802215576172)"><stop offset="50%" stop-color="#579CF5" stop-opacity="0"/><stop offset="100%" stop-color="#579CF5" stop-opacity="1"/></radialGradient><radialGradient cx="0" cy="0" r="1" gradientUnits="userSpaceOnUse" id="master_svg1_157_5220" gradientTransform="translate(16.525135040283203 47) rotate(90) scale(6 10.327869415283203)"><stop offset="50%" stop-color="#579CF5" stop-opacity="0"/><stop offset="100%" stop-color="#579CF5" stop-opacity="1"/></radialGradient><linearGradient x1="0.5" y1="0.08103381842374802" x2="0.5" y2="1" id="master_svg2_157_4998"><stop offset="0%" stop-color="#FFFFFF" stop-opacity="0"/><stop offset="100%" stop-color="#FFFFFF" stop-opacity="1"/></linearGradient><linearGradient x1="0.610504686832428" y1="-0.011595523916184902" x2="0.610504686832428" y2="1.1026263236999512" id="master_svg3_157_4999"><stop offset="0%" stop-color="#397FD7" stop-opacity="1"/><stop offset="100%" stop-color="#6D9DEA" stop-opacity="1"/></linearGradient><linearGradient x1="0.610504686832428" y1="-0.011595523916184902" x2="0.610504686832428" y2="1.1026263236999512" id="master_svg4_157_5000"><stop offset="0%" stop-color="#7DA7EB" stop-opacity="1"/><stop offset="100%" stop-color="#2E7ADB" stop-opacity="1"/></linearGradient><linearGradient x1="1.167615532875061" y1="0.5455153584480286" x2="0.053393758833408356" y2="0.5455153584480286" id="master_svg5_157_5002"><stop offset="0%" stop-color="#0D6EEA" stop-opacity="1"/><stop offset="100%" stop-color="#AACAFF" stop-opacity="1"/></linearGradient><linearGradient x1="0.610504686832428" y1="-0.011595523916184902" x2="0.610504686832428" y2="1.1026263236999512" id="master_svg6_157_4999"><stop offset="0%" stop-color="#397FD7" stop-opacity="1"/><stop offset="100%" stop-color="#6D9DEA" stop-opacity="1"/></linearGradient></defs><g><g><g><g><ellipse cx="16.525005340576172" cy="47" rx="15.491802215576172" ry="9" fill="url(#master_svg0_157_5220)" fill-opacity="1"/></g></g><g><g><ellipse cx="16.525135040283203" cy="47" rx="10.327869415283203" ry="6" fill="url(#master_svg1_157_5220)" fill-opacity="1"/></g></g><g><ellipse cx="16.523875951766968" cy="47.50000023841858" rx="2.7885243892669678" ry="1.2000000476837158" fill="#FFFFFF" fill-opacity="0.6000000238418579"/><ellipse cx="16.523875951766968" cy="47.50000023841858" rx="2.7885243892669678" ry="1.2000000476837158" fill-opacity="0" stroke-opacity="0.800000011920929" stroke="#FFFFFF" fill="none" stroke-width="0.6000000238418579"/></g><g><path d="M25.82066875,37L19.50096875,47.5596C19.45146875,47.6696,19.38766875,47.7756,19.31106875,47.8768L19.23656875,48L19.20846875,48.001C18.67256875,48.5983,17.671668750000002,49,16.52554875,49C15.37938875,49,14.378578749999999,48.5983,13.84262875,48.001L13.814488749999999,48L13.73619875,47.871700000000004C13.66290875,47.7742,13.60153875,47.672200000000004,13.55329875,47.5666L7.23046875,37L25.82066875,37Z" fill-rule="evenodd" fill="url(#master_svg2_157_4998)" fill-opacity="1"/></g></g><g><g><path d="M16.5246,3.2685e-13C7.39808,3.2685e-13,0,7.38679,0,16.4994C0,23.3974,13.7764,42.0153,16.5246,42C19.2269,42.0153,33.0492,23.3058,33.0492,16.4994C33.0492,7.38679,25.6511,3.2685e-13,16.5246,3.2685e-13Z" fill-rule="evenodd" fill="url(#master_svg3_157_4999)" fill-opacity="1"/></g><g><path d="M16.52540625,3C8.539726250000001,3,2.06640625,9.21161,2.06640625,16.874499999999998C2.06640625,22.6751,14.12080625,40.0128,16.52540625,40Q16.503206249999998,3,16.52540625,3Z" fill-rule="evenodd" fill="url(#master_svg4_157_5000)" fill-opacity="1"/></g><g><g><ellipse cx="16.5033597946167" cy="15.930548667907715" rx="10.947578430175781" ry="10.550548553466797" fill="#FFFFFF" fill-opacity="1"/><ellipse cx="16.5033597946167" cy="15.930548667907715" rx="10.947578430175781" ry="10.550548553466797" stroke="url(#master_svg5_157_5002)" fill-opacity="0" fill="none" stroke-width="0.7599999904632568"/></g></g></g><g><g style="opacity:0;"><rect x="8.26171875" y="7" width="16.52458953857422" height="16" rx="0" fill="#000000" fill-opacity="1"/></g><g><path d="M17.174358125,9C17.404798125,9,17.592998125,9.180992,17.592998125,9.406308L17.592998125,11.59852Q17.592998125,12.88578,19.027528125,12.9929L21.270548124999998,12.9929C21.501028124999998,12.9929,21.689228125,13.17389,21.689228125,13.3992L21.689228125,21.534599999999998Q21.689228125,22.0018,21.211018125000002,22L11.839506125,22Q11.393974725,22,11.361328125,21.534599999999998L11.361328125,9.465407Q11.361328125,9.0313964,11.839506125,9L17.174358125,9ZM18.795168125,18.574089999999998L14.274558125,18.574089999999998C14.044118125,18.574089999999998,13.855918125,18.75693,13.855918125,18.98039C13.855918125,19.2039,14.044118125,19.386699999999998,14.274558125,19.386699999999998L18.795168125,19.386699999999998C19.025608124999998,19.386699999999998,19.213808125,19.2039,19.213808125,18.98039C19.213808125,18.75693,19.025608124999998,18.574089999999998,18.795168125,18.574089999999998ZM18.795168125,16.524079999999998L14.274558125,16.524079999999998C14.044118125,16.524079999999998,13.855918125,16.70692,13.855918125,16.93039C13.855918125,17.15386,14.044118125,17.3367,14.274558125,17.3367L18.795168125,17.3367C19.025608124999998,17.3367,19.213808125,17.15386,19.213808125,16.93039C19.213808125,16.70692,19.025608124999998,16.524079999999998,18.795168125,16.524079999999998ZM18.795168125,14.47223L14.274558125,14.47223C14.044118125,14.47223,13.855918125,14.655059999999999,13.855918125,14.87853C13.855918125,15.102,14.044118125,15.284839999999999,14.274558125,15.284839999999999L18.795168125,15.284839999999999C19.025608124999998,15.284839999999999,19.213808125,15.102,19.213808125,14.87853C19.213808125,14.655059999999999,19.025608124999998,14.47223,18.795168125,14.47223ZM18.266948125,9.9808C18.266948125,9.7888,18.503258125000002,9.6928,18.642058125,9.8272L20.529168124999998,11.656C20.669628125,11.7904,20.570478125,12.024000000000001,20.373838125,12.024000000000001L18.759388125,12.02326C18.688818125,12.01691,18.265438125,11.96093,18.266948125,11.5312L18.266948125,9.9808Z" fill-rule="evenodd" fill="url(#master_svg6_157_4999)" fill-opacity="1"/></g></g></g></svg>