<svg xmlns="http://www.w3.org/2000/svg" xmlns:xlink="http://www.w3.org/1999/xlink" fill="none" version="1.1" width="16" height="16" viewBox="0 0 16 16"><defs><clipPath id="master_svg0_5140_24466"><rect x="0" y="0" width="16" height="16" rx="0"/></clipPath></defs><g clip-path="url(#master_svg0_5140_24466)"><g><g transform="matrix(0,1,-1,0,9.33349609375,-6.66650390625)" style="opacity:0.47999998927116394;"><path d="M20.6667,1.33349609375C21.0086,1.33349609375,21.290300000000002,1.59085609375,21.3288,1.92241509375L21.3333,2.00016309375L21.3333,6.66682609375C21.3333,7.36973609375,20.7894,7.94560609375,20.0995,7.99650609375L20,8.00016609375L9.33333,8.00016609375C8.630425,8.00016609375,8.0545566,7.45624609375,8.00365716,6.76633609375L8,6.66682609375L8,2.00262209375C8,1.63443209375,8.298477,1.33595535375,8.666667,1.33595535375C9.00856,1.33595535375,9.29034,1.59331509375,9.32885,1.9248750937499999L9.33333,2.00262209375L9.33333,6.66682609375L20,6.66682609375L20,2.00016309375C20,1.63197309375,20.2985,1.33349609375,20.6667,1.33349609375Z" fill-rule="evenodd" fill="#36A4FF" fill-opacity="1"/></g><g><path d="M9.33349609375,8.666623203124999L9.33349609375,10.666623203124999C9.33349609375,11.260553203125,8.61540609375,11.558003203125,8.195426093750001,11.138023203125L5.53049009375,8.473093203125L5.52875809375,8.471353203125C5.52619809375,8.468793203125,5.52366309375,8.466223203125,5.52115409375,8.463633203125C5.51882609375,8.461223203125,5.51652109375,8.458813203125,5.51423709375,8.456383203125C5.50326009375,8.444703203125,5.49288109375,8.432853203125,5.48299409375,8.420723203125C5.44187109375,8.370303203125001,5.40923149375,8.315273203124999,5.38507629375,8.257533203125C5.35185229375,8.178283203125,5.33349609375,8.091263203125,5.33349609375,7.9999632031250005C5.33349609375,7.910663203125,5.35105189375,7.825473203125,5.38290019375,7.7476432031249995C5.41544149375,7.667933203125,5.46406109375,7.593243203125001,5.52875809375,7.528553203125L8.195426093750001,4.861882203125C8.61540609375,4.441905203125,9.33349609375,4.739349803125,9.33349609375,5.333286203125L9.33349609375,7.333293203125001L14.00016609375,7.333293203125001C14.36835609375,7.333293203125001,14.66682609375,7.631773203125,14.66682609375,7.9999632031250005C14.66682609375,8.341853203125,14.40946609375,8.623633203125,14.07790609375,8.662143203125L14.00016609375,8.666623203124999L9.33349609375,8.666623203124999Z" fill-rule="evenodd" fill="#36A4FF" fill-opacity="1"/></g></g></g></svg>