<?xml version="1.0" encoding="UTF-8"?>
<svg width="17px" height="16px" viewBox="0 0 17 16" version="1.1" xmlns="http://www.w3.org/2000/svg" xmlns:xlink="http://www.w3.org/1999/xlink">
    <title>åˆ‡ç‰‡</title>
    <g id="é¡µé¢-1" stroke="none" stroke-width="1" fill="none" fill-rule="evenodd">
        <g id="äº¬æ™º_ä¸“é¢˜è¯¦æƒ…" transform="translate(-561.000000, -330.000000)" fill="#B5CEE3">
            <g id="ç¼–ç»„-7" transform="translate(322.000000, 180.000000)">
                <g id="ç¼–ç»„" transform="translate(239.500000, 147.000000)">
                    <g id="ðŸ“-Size-å…ƒç´ å°ºå¯¸/16pxå¤‡ä»½" transform="translate(0.000000, 3.000000)">
                        <g id="icons/smile" transform="translate(2.000000, 1.333333)">
                            <path d="M7.36792884,0.670505556 C7.37902624,0.724150246 7.38461538,0.778717672 7.38461538,0.833418014 L7.38461538,13.3333333 L-6.66133815e-16,13.3333333 L-6.66133815e-16,1.9199444 C-6.66133815e-16,1.5225534 0.291192618,1.18046239 0.695592387,1.10276742 L6.35092666,0.0162410335 C6.81923873,-0.0737330327 7.27456612,0.219191172 7.36792884,0.670505556 Z M4.52723507,9.61321857 L2.87206265,9.61321857 L2.87206265,11.2145271 L4.52723507,11.2145271 L4.52723507,9.61321857 Z M4.52723507,6.59899064 L2.87206265,6.59899064 L2.87206265,8.23169743 L4.52723507,8.23169743 L4.52723507,6.59899064 Z M4.52723507,3.61616093 L2.87206265,3.61616093 L2.87206265,5.24886772 L4.52723507,5.24886772 L4.52723507,3.61616093 Z" id="å½¢çŠ¶"></path>
                            <path d="M7.38461538,3.54802751 L11.3475611,4.51489032 C11.7312527,4.60850177 12,4.94123339 12,5.32266415 L12,13.3333333 L7.38461538,13.3333333 L7.38461538,3.54802751 Z M9.2662722,9.78381361 L7.42011835,9.78381361 L7.42011835,11.3089231 L9.2662722,11.3089231 L9.2662722,9.78381361 Z M9.2662722,6.91301926 L7.42011835,6.91301926 L7.42011835,8.46803286 L9.2662722,8.46803286 L9.2662722,6.91301926 Z" id="å½¢çŠ¶" opacity="0.319999993"></path>
                        </g>
                    </g>
                </g>
            </g>
        </g>
    </g>
</svg>