<?xml version="1.0" encoding="UTF-8"?>
<svg width="16px" height="16px" viewBox="0 0 16 16" version="1.1" xmlns="http://www.w3.org/2000/svg" xmlns:xlink="http://www.w3.org/1999/xlink">
    <title>solt</title>
    <defs>
        <rect id="path-1" x="0" y="0" width="16" height="16"></rect>
    </defs>
    <g id="修改0524" stroke="none" stroke-width="1" fill="none" fill-rule="evenodd">
        <g id="星智_默认" transform="translate(-24.000000, -284.000000)">
            <g id="hl-sub-menu-8" transform="translate(0.000000, 270.000000)">
                <g id="solt" transform="translate(24.000000, 14.000000)">
                    <mask id="mask-2" fill="white">
                        <use xlink:href="#path-1"></use>
                    </mask>
                    <g fill-rule="nonzero"></g>
                    <g id="FillBookOpen" mask="url(#mask-2)" fill="#5281E9" fill-rule="nonzero">
                        <path d="M2.66682947,2 L5.33349609,2 C6.42389584,2 7.39201069,2.52356207 8.00016308,3.33300829 L8.00016308,15.3343306 C7.76736593,15.336956 7.53226805,15.2221603 7.40361357,14.9642792 L7.34478378,14.8560753 C7.03315878,14.3281775 6.46399164,14 5.84492445,14 L2.66682947,14 C1.93044978,14 1.33349609,13.4030476 1.33349609,12.666667 L1.33349609,3.33333337 C1.33349609,2.59695369 1.93044978,2 2.66682947,2 Z" id="main"></path>
                        <path d="M8.00016276,15.3343992 C8.22628158,15.3369274 8.45489949,15.228117 8.58702886,14.9829464 L8.65520972,14.8564339 C8.95754719,14.333807 9.53472805,14 10.1600289,14 L13.3334961,14 C14.0698757,14 14.6668296,13.4030476 14.6668296,12.666667 L14.6668296,3.33333337 C14.6668296,2.59695369 14.0698757,2 13.3334961,2 L10.6668296,2 C9.5764302,2 8.60831529,2.52356201 8.00016276,3.33300829 L8.00016276,15.3343992 Z" id="opacity" opacity="0.319999993"></path>
                    </g>
                </g>
            </g>
        </g>
    </g>
</svg>