<?xml version="1.0" encoding="UTF-8"?>
<svg width="16px" height="16px" viewBox="0 0 16 16" version="1.1" xmlns="http://www.w3.org/2000/svg" xmlns:xlink="http://www.w3.org/1999/xlink">
    <title>solt</title>
    <defs>
        <rect id="path-1" x="0" y="0" width="16" height="16"></rect>
    </defs>
    <g id="修改0524" stroke="none" stroke-width="1" fill="none" fill-rule="evenodd">
        <g id="星智_选中" transform="translate(-24.000000, -68.000000)">
            <g id="hl-sub-menu-7" transform="translate(0.000000, 54.000000)">
                <g id="solt" transform="translate(24.000000, 14.000000)">
                    <mask id="mask-2" fill="white">
                        <use xlink:href="#path-1"></use>
                    </mask>
                    <g fill-rule="nonzero"></g>
                    <g id="Fillheart" mask="url(#mask-2)" fill="#FFFFFF" fill-rule="nonzero">
                        <path d="M9.11448288,3.07855067 L9.31323433,3.27756184 L9.51226878,3.07855067 C10.0614955,2.5293178 10.9520278,2.5293178 11.5012546,3.07855067 C12.0504832,3.62778342 12.0504832,4.51826513 11.5012546,5.06749821 L9.31340361,7.2553668 L7.12555188,5.06749821 C6.57631333,4.51826513 6.57631333,3.62778342 7.12555188,3.07855067 C7.6747793,2.5293178 8.56525552,2.5293178 9.11448288,3.07855067 Z" id="路径-2" opacity="0.319999993"></path>
                        <path d="M6.68613529,7.53639066 L7.90689039,7.53667164 C9.30502033,7.53667164 10.4384098,8.67006087 10.4384098,10.0681913 L6.49991655,10.0676847 L6.50047922,10.6307511 L11.0009689,10.6303015 L11.0009689,10.0681913 C11.0009689,9.45921993 10.8219643,8.88507175 10.5024853,8.38006115 L12.1260891,8.38051128 C13.2468786,8.38051128 14.2145376,9.03600597 14.666667,9.98459482 C13.3363256,11.740119 11.1820564,12.8809905 8.75073004,12.8809905 C7.19733334,12.8809905 5.88137627,12.548687 4.81256866,11.9669433 L4.81338453,6.73277348 C5.514081,6.83307779 6.15525866,7.1179018 6.68613529,7.53639066 Z M3.68767965,6.13024902 C3.97618294,6.13024902 4.21396017,6.34742007 4.24645925,6.62720332 L4.25023961,6.69232559 L4.25023961,11.7558708 C4.25023961,12.0665169 3.99837589,12.3184309 3.68767965,12.3184309 L2.5625599,12.3184309 C2.25186935,12.3184309 2,12.0665169 2,11.7558708 L2,6.6928317 C2,6.38211283 2.25186935,6.13024902 2.5625599,6.13024902 L3.68767965,6.13024902 Z" id="路径-1"></path>
                    </g>
                </g>
            </g>
        </g>
    </g>
</svg>