<?xml version="1.0" encoding="UTF-8"?>
<svg width="16px" height="16px" viewBox="0 0 16 16" version="1.1" xmlns="http://www.w3.org/2000/svg" xmlns:xlink="http://www.w3.org/1999/xlink">
    <title>solt</title>
    <defs>
        <rect id="path-1" x="0" y="0" width="16" height="16"></rect>
    </defs>
    <g id="修改0524" stroke="none" stroke-width="1" fill="none" fill-rule="evenodd">
        <g id="星智_默认" transform="translate(-24.000000, -230.000000)">
            <g id="hl-sub-menu-4" transform="translate(0.000000, 216.000000)">
                <g id="solt" transform="translate(24.000000, 14.000000)">
                    <mask id="mask-2" fill="white">
                        <use xlink:href="#path-1"></use>
                    </mask>
                    <g fill-rule="nonzero"></g>
                    <g id="FillBook2" mask="url(#mask-2)" fill="#5281E9" fill-rule="nonzero">
                        <path d="M11.8096867,1.33337402 C13.3876438,1.33337402 14.6668301,2.67651975 14.6668301,4.33337402 C14.6668301,5.99022865 13.3876438,7.33337402 11.8096867,7.33337402 L1.71444851,7.33337402 C1.50405429,7.33337402 1.33349609,7.15428829 1.33349609,6.93337393 L1.33432905,6.56869745 C1.91836876,6.01940155 2.28587711,5.22145176 2.28587711,4.33337402 C2.28587711,3.44529629 1.91836876,2.64734662 1.33432905,2.09805059 L1.33349609,1.73337406 C1.33349609,1.51246014 1.50405429,1.33337402 1.71444851,1.33337402 L11.8096867,1.33337402 Z" id="main"></path>
                        <path d="M4.19063902,8.66662598 C2.61268258,8.66662598 1.33349609,10.0097717 1.33349609,11.666626 C1.33349609,13.3234806 2.61268258,14.666626 4.19063902,14.666626 L14.2858772,14.666626 C14.4962721,14.666626 14.6668301,14.4875402 14.6668301,14.2666259 L14.6659966,13.9019494 C14.0819569,13.3526535 13.7144489,12.5547037 13.7144489,11.666626 C13.7144489,10.7785482 14.0819569,9.98059857 14.6659966,9.43130255 L14.6668301,9.06662601 C14.6668301,8.8457121 14.4962721,8.66662598 14.2858772,8.66662598 L4.19063902,8.66662598 Z" id="opacity" opacity="0.319999993"></path>
                    </g>
                </g>
            </g>
        </g>
    </g>
</svg>