<?xml version="1.0" encoding="UTF-8"?>
<svg width="16px" height="16px" viewBox="0 0 16 16" version="1.1" xmlns="http://www.w3.org/2000/svg" xmlns:xlink="http://www.w3.org/1999/xlink">
    <title>solt</title>
    <defs>
        <rect id="path-1" x="0" y="0" width="16" height="16"></rect>
    </defs>
    <g id="修改0524" stroke="none" stroke-width="1" fill="none" fill-rule="evenodd">
        <g id="星智_选中" transform="translate(-24.000000, -14.000000)">
            <g id="solt" transform="translate(24.000000, 14.000000)">
                <mask id="mask-2" fill="white">
                    <use xlink:href="#path-1"></use>
                </mask>
                <g fill-rule="nonzero"></g>
                <g id="FillAirplay" mask="url(#mask-2)" fill="#FFFFFF" fill-rule="nonzero">
                    <path d="M7.16783214,10.0462362 L5.12400439,13.1119776 C5.01449272,13.2762451 4.95605469,13.4692531 4.95605469,13.666678 C4.95605469,14.2189627 5.40376994,14.666678 5.95605469,14.666678 L10.0437102,14.666678 C10.2411351,14.666678 10.4341426,14.6082401 10.5984106,14.4987283 C11.0579391,14.1923757 11.1821132,13.5715063 10.8757606,13.1119776 L8.83193278,10.0462362 C8.75869799,9.9363839 8.66443491,9.84212092 8.5545826,9.76888606 C8.09505367,9.46253359 7.47418451,9.58670747 7.16783214,10.0462362 Z" id="main"></path>
                    <path d="M13.333252,1.33337402 C14.0696325,1.33337402 14.6665859,1.93032771 14.6665859,2.6667074 L14.6665859,10.666708 C14.6665859,11.4030876 14.0696325,12.000041 13.333252,12.000041 L10.134252,11.999374 L8.83193278,10.0462362 C8.75869799,9.9363839 8.66443491,9.84212092 8.5545826,9.76888606 C8.09505367,9.46253359 7.47418451,9.58670747 7.16783214,10.0462362 L5.86425195,11.999374 L2.66658533,12.000041 C1.9735221,12.000041 1.40396424,11.4712518 1.33935558,10.7951169 L1.33325195,10.666708 L1.33325195,2.6667074 C1.33325195,1.93032771 1.93020564,1.33337402 2.66658533,1.33337402 Z" id="opacity" opacity="0.319999993"></path>
                </g>
            </g>
        </g>
    </g>
</svg>