<?xml version="1.0" encoding="UTF-8"?>
<svg width="16px" height="16px" viewBox="0 0 16 16" version="1.1" xmlns="http://www.w3.org/2000/svg" xmlns:xlink="http://www.w3.org/1999/xlink">
    <title>solt</title>
    <defs>
        <rect id="path-1" x="0" y="0" width="16" height="16"></rect>
    </defs>
    <g id="修改0524" stroke="none" stroke-width="1" fill="none" fill-rule="evenodd">
        <g id="星智_选中" transform="translate(-24.000000, -176.000000)">
            <g id="hl-sub-menu-5" transform="translate(0.000000, 162.000000)">
                <g id="solt" transform="translate(24.000000, 14.000000)">
                    <mask id="mask-2" fill="white">
                        <use xlink:href="#path-1"></use>
                    </mask>
                    <g fill-rule="nonzero"></g>
                    <g id="FillAcademic" mask="url(#mask-2)" fill="#FFFFFF" fill-rule="nonzero">
                        <path d="M8.13299084,2.69557312 C8.09109688,2.67654821 8.04594135,2.66662598 8.00029087,2.66662598 C7.95513725,2.66662598 7.91006804,2.67627503 7.86725569,2.69557312 L0.910575122,5.83414531 C0.763910964,5.90002203 0.666748047,6.06809092 0.666748047,6.25545788 C0.666748047,6.44317579 0.763910964,6.61080599 0.910575122,6.67703342 L7.86717224,9.81569386 C7.95187187,9.85458326 8.04820776,9.85458326 8.13290739,9.81569386 L13.5416708,7.37544918 L13.5416708,9.87192106 C13.25177,10.0329723 13.0503378,10.3833208 13.0503378,10.7906857 C13.0503378,11.1981392 13.25177,11.5483999 13.5416708,11.7094517 L13.5416708,12.5803213 C13.6794984,12.6363497 13.8041821,12.6643639 13.9157219,12.6643639 C14.0272611,12.6643639 14.1400496,12.6363497 14.2540874,12.5803213 L14.2540874,11.7096262 C14.5441542,11.5485754 14.7457542,11.1982269 14.7457542,10.7906857 C14.7457542,10.3831453 14.5441542,10.0327969 14.2540874,9.87174559 L14.2540874,7.05404854 L15.0896711,6.67703342 C15.2362518,6.61080599 15.333415,6.44308805 15.333415,6.25545788 C15.333415,6.06809092 15.2362518,5.90002203 15.0896711,5.83414531 L8.13299084,2.69557312 Z" id="main"></path>
                        <path d="M8.00013733,10.4456539 C7.89321041,10.44554 7.78743792,10.4224641 7.68933296,10.3778476 L3.35253906,8.42102051 L3.35253906,11.1228418 C3.35253906,13.3357196 6.51526713,14.0000129 7.50412178,14.0000129 L8.49531698,14.0000129 C9.23607969,14.0000129 12.647234,13.3357196 12.647234,11.1228418 L12.647234,8.42110823 L8.31027269,10.3778476 C8.21237755,10.4224772 8.1067934,10.4455552 8.00005388,10.4456539 L8.00013733,10.4456539 Z" id="opacity" opacity="0.319999993"></path>
                    </g>
                </g>
            </g>
        </g>
    </g>
</svg>