<?xml version="1.0" encoding="UTF-8"?>
<svg width="16px" height="16px" viewBox="0 0 16 16" version="1.1" xmlns="http://www.w3.org/2000/svg" xmlns:xlink="http://www.w3.org/1999/xlink">
    <title>solt</title>
    <defs>
        <rect id="path-1" x="0" y="0" width="16" height="16"></rect>
    </defs>
    <g id="修改0524" stroke="none" stroke-width="1" fill="none" fill-rule="evenodd">
        <g id="星智_默认" transform="translate(-24.000000, -14.000000)">
            <g id="solt" transform="translate(24.000000, 14.000000)">
                <mask id="mask-2" fill="white">
                    <use xlink:href="#path-1"></use>
                </mask>
                <g fill-rule="nonzero"></g>
                <g id="FillAirplay" mask="url(#mask-2)" fill="#5281E9" fill-rule="nonzero">
                    <g transform="translate(1.333252, 1.333374)">
                        <path d="M5.83458018,8.71286213 L3.79075244,11.7786036 C3.68124076,11.9428711 3.62280273,12.135879 3.62280273,12.3333039 C3.62280273,12.8855886 4.07051799,13.3333039 4.62280273,13.3333039 L8.71045828,13.3333039 C8.90788317,13.3333039 9.10089064,13.2748661 9.26515865,13.1653543 C9.7246871,12.8590016 9.84886122,12.2381322 9.5425086,11.7786036 L7.49868083,8.71286213 C7.42544603,8.60300988 7.33118296,8.50874689 7.22133064,8.43551204 C6.76180172,8.12915957 6.14093256,8.25333344 5.83458018,8.71286213 Z" id="main"></path>
                        <path d="M12,0 C12.7363806,0 13.333334,0.59695369 13.333334,1.33333337 L13.333334,9.33333397 C13.333334,10.0697136 12.7363806,10.666667 12,10.666667 L8.801,10.666 L7.49868083,8.71286213 C7.42544603,8.60300988 7.33118296,8.50874689 7.22133064,8.43551204 C6.76180172,8.12915957 6.14093256,8.25333344 5.83458018,8.71286213 L4.531,10.666 L1.33333337,10.666667 C0.640270142,10.666667 0.0707122888,10.1378778 0.00610362518,9.46174286 L0,9.33333397 L0,1.33333337 C0,0.59695369 0.59695369,0 1.33333337,0 Z" id="opacity" opacity="0.319999993"></path>
                    </g>
                </g>
            </g>
        </g>
    </g>
</svg>