<?xml version="1.0" encoding="UTF-8"?>
<svg width="16px" height="16px" viewBox="0 0 16 16" version="1.1" xmlns="http://www.w3.org/2000/svg" xmlns:xlink="http://www.w3.org/1999/xlink">
    <title>文档n</title>
    <g id="文档n" stroke="none" stroke-width="1" fill="none" fill-rule="evenodd">
        <g id="编组">
            <rect id="矩形" opacity="0" x="0" y="0" width="16" height="16"></rect>
            <path d="M3,2 L3,3.299 L2.4,3.3 L2.4,13.7 L13.6,13.7 L13.6,3.3 L13,3.299 L13,2 L15,2 L15,15 L1,15 L1,2 L3,2 Z M12,1 L12,4 L4,4 L4,1 L12,1 Z M10.8,2.2 L5.2,2.2 L5.2,2.8 L10.8,2.8 L10.8,2.2 Z" id="形状结合" fill="#4B4B4B" fill-rule="nonzero"></path>
            <g id="AI" transform="translate(8.070000, 8.940000)" fill="#36A4FF" fill-rule="nonzero" stroke="#37A4FF" stroke-width="0.2">
                <path d="M2.35,3.56 L2.185,3.03 L1.09,3.03 L0.915,3.56 L0,3.56 L1.295,0 L1.97,0 L3.265,3.56 L2.35,3.56 Z M1.655,1.35 L1.335,2.3 L1.955,2.3 L1.655,1.35 Z" id="形状"></path>
                <polygon id="路径" points="3.625 3.56 3.625 0 4.5 0 4.5 3.56"></polygon>
            </g>
            <polygon id="路径" fill="#4B4B4B" fill-rule="nonzero" points="11 7.00895111 4 7.00895111 4 5.40895111 11 5.40895111"></polygon>
            <polygon id="路径备份" fill="#4B4B4B" fill-rule="nonzero" points="8 9.6 4 9.6 4 8 8 8"></polygon>
        </g>
    </g>
</svg>