<?xml version="1.0" encoding="UTF-8"?>
<svg width="16px" height="16px" viewBox="0 0 16 16" version="1.1" xmlns="http://www.w3.org/2000/svg" xmlns:xlink="http://www.w3.org/1999/xlink">
    <title>solt</title>
    <defs>
        <rect id="path-1" x="0" y="0" width="16" height="16"></rect>
    </defs>
    <g id="修改0524" stroke="none" stroke-width="1" fill="none" fill-rule="evenodd">
        <g id="星智_选中" transform="translate(-24.000000, -230.000000)">
            <g id="hl-sub-menu-4" transform="translate(0.000000, 216.000000)">
                <g id="solt" transform="translate(24.000000, 14.000000)">
                    <mask id="mask-2" fill="white">
                        <use xlink:href="#path-1"></use>
                    </mask>
                    <g fill-rule="nonzero"></g>
                    <g id="FillBook2" mask="url(#mask-2)" fill="#FFFFFF" fill-rule="nonzero">
                        <path d="M11.8094425,1.33337402 C13.3873997,1.33337402 14.6665859,2.67651975 14.6665859,4.33337402 C14.6665859,5.99022865 13.3873997,7.33337402 11.8094425,7.33337402 L1.71420437,7.33337402 C1.50381015,7.33337402 1.33325195,7.15428829 1.33325195,6.93337393 L1.33408491,6.56869745 C1.91812462,6.01940155 2.28563297,5.22145176 2.28563297,4.33337402 C2.28563297,3.44529629 1.91812462,2.64734662 1.33408491,2.09805059 L1.33325195,1.73337406 C1.33325195,1.51246014 1.50381015,1.33337402 1.71420437,1.33337402 L11.8094425,1.33337402 Z" id="main"></path>
                        <path d="M4.19039488,8.66662598 C2.61243844,8.66662598 1.33325195,10.0097717 1.33325195,11.666626 C1.33325195,13.3234806 2.61243844,14.666626 4.19039488,14.666626 L14.2856331,14.666626 C14.4960279,14.666626 14.6665859,14.4875402 14.6665859,14.2666259 L14.6657524,13.9019494 C14.0817127,13.3526535 13.7142048,12.5547037 13.7142048,11.666626 C13.7142048,10.7785482 14.0817127,9.98059857 14.6657524,9.43130255 L14.6665859,9.06662601 C14.6665859,8.8457121 14.4960279,8.66662598 14.2856331,8.66662598 L4.19039488,8.66662598 Z" id="opacity" opacity="0.319999993"></path>
                    </g>
                </g>
            </g>
        </g>
    </g>
</svg>