<?xml version="1.0" encoding="UTF-8"?>
<svg width="16px" height="16px" viewBox="0 0 16 16" version="1.1" xmlns="http://www.w3.org/2000/svg" xmlns:xlink="http://www.w3.org/1999/xlink">
    <title>solt</title>
    <defs>
        <rect id="path-1" x="0" y="0" width="16" height="16"></rect>
    </defs>
    <g id="修改0524" stroke="none" stroke-width="1" fill="none" fill-rule="evenodd">
        <g id="星智_选中" transform="translate(-24.000000, -284.000000)">
            <g id="hl-sub-menu-8" transform="translate(0.000000, 270.000000)">
                <g id="solt" transform="translate(24.000000, 14.000000)">
                    <mask id="mask-2" fill="white">
                        <use xlink:href="#path-1"></use>
                    </mask>
                    <g fill-rule="nonzero"></g>
                    <g id="FillBookOpen" mask="url(#mask-2)" fill="#FFFFFF" fill-rule="nonzero">
                        <path d="M2.66658533,2 L5.33325195,2 C6.4236517,2 7.39176655,2.52356207 7.99991894,3.33300829 L7.99991894,15.3343306 C7.76712179,15.336956 7.53202391,15.2221603 7.40336943,14.9642792 L7.34453964,14.8560753 C7.03291464,14.3281775 6.4637475,14 5.84468031,14 L2.66658533,14 C1.93020564,14 1.33325195,13.4030476 1.33325195,12.666667 L1.33325195,3.33333337 C1.33325195,2.59695369 1.93020564,2 2.66658533,2 Z" id="main"></path>
                        <path d="M7.99991862,15.3343992 C8.22603744,15.3369274 8.45465535,15.228117 8.58678472,14.9829464 L8.65496558,14.8564339 C8.95730305,14.333807 9.53448391,14 10.1597848,14 L13.333252,14 C14.0696316,14 14.6665854,13.4030476 14.6665854,12.666667 L14.6665854,3.33333337 C14.6665854,2.59695369 14.0696316,2 13.333252,2 L10.6665854,2 C9.57618606,2 8.60807115,2.52356201 7.99991862,3.33300829 L7.99991862,15.3343992 Z" id="opacity" opacity="0.319999993"></path>
                    </g>
                </g>
            </g>
        </g>
    </g>
</svg>