<?xml version="1.0" encoding="UTF-8"?>
<svg width="16px" height="16px" viewBox="0 0 16 16" version="1.1" xmlns="http://www.w3.org/2000/svg" xmlns:xlink="http://www.w3.org/1999/xlink">
    <title>solt</title>
    <defs>
        <rect id="path-1" x="0" y="0" width="16" height="16"></rect>
    </defs>
    <g id="修改0524" stroke="none" stroke-width="1" fill="none" fill-rule="evenodd">
        <g id="星智_默认" transform="translate(-24.000000, -68.000000)">
            <g id="hl-sub-menu-7" transform="translate(0.000000, 54.000000)">
                <g id="solt" transform="translate(24.000000, 14.000000)">
                    <mask id="mask-2" fill="white">
                        <use xlink:href="#path-1"></use>
                    </mask>
                    <g fill-rule="nonzero"></g>
                    <g id="Fillheart" mask="url(#mask-2)" fill="#5281E9" fill-rule="nonzero">
                        <g transform="translate(2.000000, 2.666626)">
                            <path d="M7.11423874,0.41192469 L7.31299019,0.610935867 L7.51202464,0.41192469 C8.0612514,-0.13730818 8.95178366,-0.13730818 9.50101042,0.41192469 C10.0502391,0.961157441 10.0502391,1.85163915 9.50101042,2.40087223 L7.31315947,4.58874083 L5.12530774,2.40087223 C4.57606919,1.85163915 4.57606919,0.961157441 5.12530774,0.41192469 C5.67453516,-0.13730818 6.56501138,-0.13730818 7.11423874,0.41192469 Z" id="路径-2" opacity="0.319999993"></path>
                            <path d="M4.68613529,4.86976469 L5.90689039,4.87004566 C7.30502033,4.87004566 8.43840981,6.0034349 8.43840981,7.40156531 L4.49991655,7.40105867 L4.50047922,7.96412516 L9.00096893,7.9636755 L9.00096893,7.40156531 C9.00096893,6.79259396 8.82196426,6.21844578 8.50248528,5.71343517 L10.1260891,5.71388531 C11.2468786,5.71388531 12.2145376,6.36938 12.666667,7.31796885 C11.3363256,9.073493 9.18205643,10.2143645 6.75073004,10.2143645 C5.19733334,10.2143645 3.88137627,9.882061 2.81256866,9.30031729 L2.81338453,4.06614751 C3.514081,4.16645181 4.15525866,4.45127583 4.68613529,4.86976469 Z M1.68767965,3.46362305 C1.97618294,3.46362305 2.21396017,3.68079409 2.24645925,3.96057734 L2.25023961,4.02569962 L2.25023961,9.08924484 C2.25023961,9.3998909 1.99837589,9.65180492 1.68767965,9.65180492 L0.562559903,9.65180492 C0.251869351,9.65180492 0,9.3998909 0,9.08924484 L0,4.02620572 C0,3.71548685 0.251869351,3.46362305 0.562559903,3.46362305 L1.68767965,3.46362305 Z" id="路径-1"></path>
                        </g>
                    </g>
                </g>
            </g>
        </g>
    </g>
</svg>