<?xml version="1.0" encoding="UTF-8"?>
<svg width="20px" height="20px" viewBox="0 0 20 20" version="1.1" xmlns="http://www.w3.org/2000/svg" xmlns:xlink="http://www.w3.org/1999/xlink">
    <title>编组 2</title>
    <g id="页面-1" stroke="none" stroke-width="1" fill="none" fill-rule="evenodd">
        <g id="京智_搜索结果页面" transform="translate(-1077.000000, -231.000000)" fill="#FFFFFF">
            <g id="编组-7" transform="translate(260.000000, 165.000000)">
                <g id="组-679" transform="translate(459.000000, 56.000000)">
                    <g id="组-660" transform="translate(323.000000, 0.000000)">
                        <g id="SystemClose" transform="translate(0.000000, 10.000000)">
                            <g id="编组-2" transform="translate(35.000000, 0.000000)">
                                <rect id="矩形" opacity="0" x="0" y="0" width="20" height="20"></rect>
                                <path d="M15.3499565,9.28571429 L16.75,9.56592857 C16.1534524,12.5678398 13.6771082,14.8918803 10.6006123,15.2575134 L10.6009782,20 L9.17352765,20 L9.17339345,15.2847424 C5.97073718,15.0285089 3.36417218,12.6564614 2.75,9.56592857 L4.14999358,9.28571429 C4.67051343,11.9049286 6.97988582,13.8791429 9.75,13.8791429 C12.520107,13.8791429 14.8294366,11.9049286 15.3499565,9.28571429 Z M9.88725294,0 C11.858134,0 13.4558794,1.59898571 13.4558794,3.57142857 L13.4558794,7.85714286 C13.4558794,9.82957143 11.858134,11.4285714 9.88725294,11.4285714 C7.9163505,11.4285714 6.31862647,9.82957143 6.31862647,7.85714286 L6.31862647,3.57142857 C6.31862647,1.59898571 7.9163505,0 9.88725294,0 Z" id="形状结合" fill-rule="nonzero"></path>
                            </g>
                        </g>
                    </g>
                </g>
            </g>
        </g>
    </g>
</svg>