<?xml version="1.0" encoding="UTF-8"?>
<svg width="17px" height="16px" viewBox="0 0 17 16" version="1.1" xmlns="http://www.w3.org/2000/svg" xmlns:xlink="http://www.w3.org/1999/xlink">
    <title>åˆ‡ç‰‡</title>
    <g id="é¡µé¢-1" stroke="none" stroke-width="1" fill="none" fill-rule="evenodd">
        <g id="äº¬æ™º_ä¸“é¢˜è¯¦æƒ…" transform="translate(-777.000000, -330.000000)" fill="#B5CEE3">
            <g id="ç¼–ç»„-7" transform="translate(322.000000, 180.000000)">
                <g id="ç¼–ç»„-4" transform="translate(455.500000, 147.000000)">
                    <g id="ðŸ“-Size-å…ƒç´ å°ºå¯¸/16pxå¤‡ä»½-2" transform="translate(0.000000, 3.000000)">
                        <g id="é€‰æ‹©ä»»æ„å…ƒç´ ç»„ä»¶" transform="translate(1.333333, 0.666667)">
                            <path d="M0.666666667,6.66666667 L12.6666667,6.66666667 C13.0348565,6.66666667 13.3333333,6.36818983 13.3333333,6 L13.3333333,12.6666667 C13.3333333,13.4030463 12.7363797,14 12,14 L1.33333333,14 C0.596953667,14 3.90798505e-14,13.4030463 3.90798505e-14,12.6666667 L3.90798505e-14,6 C3.90798505e-14,6.36818983 0.298476833,6.66666667 0.666666667,6.66666667 Z" id="å½¢çŠ¶" opacity="0.319999993"></path>
                            <path d="M3.333,1.33333333 L3.33333333,3.33333333 L3.33781849,3.41108075 C3.37632856,3.74263987 3.65810944,4 4,4 C4.36818983,4 4.66666667,3.70152317 4.66666667,3.33333333 L4.666,1.33333333 L8.666,1.33333333 L8.66666667,3.33333333 L8.67115182,3.41108075 C8.70966189,3.74263987 8.99144277,4 9.33333333,4 C9.70152317,4 10,3.70152317 10,3.33333333 L9.999,1.33333333 L12,1.33333333 C12.6930632,1.33333333 13.262621,1.86212274 13.3272297,2.53825777 L13.3333333,2.66666667 L13.3333333,6 C13.3333333,6.36818983 13.0348565,6.66666667 12.6666667,6.66666667 L0.666666667,6.66666667 C0.298476833,6.66666667 1.11022302e-15,6.36818983 1.11022302e-15,6 L1.11022302e-15,2.66666667 C1.11022302e-15,1.930287 0.596953667,1.33333333 1.33333333,1.33333333 L3.333,1.33333333 Z" id="å½¢çŠ¶" fill-rule="nonzero"></path>
                            <path d="M4,-3.33066907e-16 C4.34189056,-3.33066907e-16 4.62367144,0.257360127 4.66218151,0.58891925 L4.66666667,0.666666667 L4.66666667,3.33333333 C4.66666667,3.70152317 4.36818983,4 4,4 C3.65810944,4 3.37632856,3.74263987 3.33781849,3.41108075 L3.33333333,3.33333333 L3.33333333,0.666666667 C3.33333333,0.298476833 3.63181017,-3.33066907e-16 4,-3.33066907e-16 Z" id="å½¢çŠ¶" opacity="0.319999993"></path>
                            <path d="M9.33333333,-3.33066907e-16 C9.67522389,-3.33066907e-16 9.95700477,0.257360127 9.99551485,0.58891925 L10,0.666666667 L10,3.33333333 C10,3.70152317 9.70152317,4 9.33333333,4 C8.99144277,4 8.70966189,3.74263987 8.67115182,3.41108075 L8.66666667,3.33333333 L8.66666667,0.666666667 C8.66666667,0.298476833 8.9651435,-3.33066907e-16 9.33333333,-3.33066907e-16 Z" id="å½¢çŠ¶" opacity="0.319999993"></path>
                        </g>
                    </g>
                </g>
            </g>
        </g>
    </g>
</svg>