<?xml version="1.0" encoding="UTF-8"?>
<svg width="17px" height="16px" viewBox="0 0 17 16" version="1.1" xmlns="http://www.w3.org/2000/svg" xmlns:xlink="http://www.w3.org/1999/xlink">
    <title>åˆ‡ç‰‡</title>
    <g id="é¡µé¢-1" stroke="none" stroke-width="1" fill="none" fill-rule="evenodd">
        <g id="äº¬æ™º_ä¸“é¢˜è¯¦æƒ…" transform="translate(-387.000000, -330.000000)" fill="#B5CEE3">
            <g id="ç¼–ç»„-7" transform="translate(322.000000, 180.000000)">
                <g id="ç¼–ç»„-5" transform="translate(65.500000, 147.000000)">
                    <g id="ðŸ“-Size-å…ƒç´ å°ºå¯¸/16px" transform="translate(0.000000, 3.000000)">
                        <g id="icons/smile" transform="translate(1.333333, 0.762639)">
                            <path d="M11.039,8.904 L12.9904368,9.98792706 C13.4476358,10.2419349 13.4476313,10.8994641 12.9904286,11.1534656 L7.31419057,14.3069312 C6.91149386,14.5306516 6.42183947,14.5306516 6.01914276,14.3069312 L0.342904713,11.1534656 C-0.114297921,10.8994641 -0.114302509,10.2419349 0.342896579,9.98792706 L2.293,8.904 L6.01914276,10.9735978 C6.3770954,11.1724604 6.80375532,11.1945562 7.17697625,11.0398854 L7.31419057,10.9735978 L11.039,8.904 Z M6.01914276,0.167790299 L0.342904713,3.32125588 C-0.114301571,3.57525937 -0.114301571,4.23279542 0.342904713,4.48679891 L6.01914276,7.6402645 C6.42183947,7.86398489 6.91149386,7.86398489 7.31419057,7.6402645 L12.9904286,4.48679891 C13.4476349,4.23279542 13.4476349,3.57525937 12.9904286,3.32125588 L7.31419057,0.167790299 C6.91149386,-0.0559300995 6.42183947,-0.0559300995 6.01914276,0.167790299 Z" id="å½¢çŠ¶" opacity="0.319999993"></path>
                            <path d="M11.039,5.57066667 L12.9904368,6.65459373 C13.4476358,6.90860158 13.4476313,7.56613078 12.9904286,7.82013225 L7.31419057,10.9735978 C6.91149386,11.1973182 6.42183947,11.1973182 6.01914276,10.9735978 L0.342904713,7.82013225 C-0.114297921,7.56613078 -0.114302509,6.90860158 0.342896579,6.65459373 L2.293,5.57066667 L6.01914276,7.6402645 C6.42183947,7.86398489 6.91149386,7.86398489 7.31419057,7.6402645 L11.039,5.57066667 Z" id="å½¢çŠ¶"></path>
                        </g>
                    </g>
                </g>
            </g>
        </g>
    </g>
</svg>