<?xml version="1.0" encoding="UTF-8"?>
<svg width="86px" height="40px" viewBox="0 0 86 40" version="1.1" xmlns="http://www.w3.org/2000/svg" xmlns:xlink="http://www.w3.org/1999/xlink">
    <title>实时交通</title>
    <defs>
        <linearGradient x1="53.8304822%" y1="103.830482%" x2="53.8304822%" y2="-3.83048222%" id="linearGradient-1">
            <stop stop-color="#46F368" offset="0%"></stop>
            <stop stop-color="#C7FFD2" offset="100%"></stop>
        </linearGradient>
    </defs>
    <g id="页面-1" stroke="none" stroke-width="1" fill="none" fill-rule="evenodd">
        <g id="第一部分图标" transform="translate(-222.000000, -714.000000)">
            <g id="实时交通" transform="translate(222.000000, 714.000000)">
                <polygon id="矩形" fill-opacity="0.84" fill="#0E1726" points="0 -7.82360288e-14 86 -1.86870311e-12 86 36 48.1056366 36 44 40 39.9508209 36 0 36"></polygon>
                <g id="编组-44" transform="translate(4.000000, 4.000000)" fill-rule="nonzero">
                    <polygon id="矩形" fill="url(#linearGradient-1)" points="0 2.19618562e-14 28 2.19618562e-14 28 28 0 28"></polygon>
                    <path d="M21.9473608,12.5669748 L19.1578885,12.5669748 L19.1578885,10.7133932 C20.6842035,10.7133932 21.9473608,9.44236585 21.9473608,7.90654108 L19.1578885,7.90654108 C19.1578885,6.84735159 18.3157837,6 17.2631527,6 L11.6842081,6 C10.6315771,6 9.78947228,6.84735159 9.78947226,7.90654108 L7,7.90654108 C7,9.44236583 8.26315726,10.7133932 9.78947226,10.7133932 L9.78947226,12.6199343 L7,12.6199343 C7,14.1557591 8.26315726,15.4267865 9.78947226,15.4267865 L9.78947226,17.3333276 L7,17.3333276 C7,18.8691523 8.26315726,20.1401797 9.78947226,20.1401797 L9.78947226,21.0934503 C9.78947226,22.1526397 10.6315771,23 11.6842081,23 L17.3157842,23 C18.3684153,23 19.2105201,22.1526397 19.2105201,21.0934503 L19.2105201,20.1401797 C20.7368351,20.1401797 22,18.8691523 22,17.3333276 L19.2105201,17.3333276 L19.2105201,15.4267865 C20.6842035,15.4267865 21.9473608,14.1557591 21.9473608,12.5669748 Z M14.4736804,21.0404908 C13.4210494,21.0404908 12.5789445,20.1931392 12.5789445,19.1339497 C12.5789445,18.0747602 13.4210494,17.2274086 14.4736804,17.2274086 C15.5263114,17.2274086 16.3684163,18.0747602 16.3684163,19.1339497 C16.3684163,20.1931392 15.5263114,21.0404908 14.4736804,21.0404908 Z M14.4736804,16.380057 C13.4210494,16.380057 12.5789445,15.5327054 12.5789445,14.4735159 C12.5789445,13.4143264 13.4210494,12.5669748 14.4736804,12.5669748 C15.5263114,12.5669748 16.3684163,13.4143264 16.3684163,14.4735159 C16.3684163,15.5327054 15.5263114,16.380057 14.4736804,16.380057 Z M14.4736804,11.6666638 C13.4210494,11.6666638 12.5789445,10.8193122 12.5789445,9.7601227 C12.5789445,8.70093321 13.4210494,7.90654108 14.4736804,7.90654108 C15.5263114,7.90654108 16.3684163,8.75389266 16.3684163,9.81308217 C16.3684163,10.8722717 15.5263114,11.6666638 14.4736804,11.6666638 L14.4736804,11.6666638 Z" id="形状" fill="#1E1E1E"></path>
                </g>
            </g>
        </g>
    </g>
</svg>