<?xml version="1.0" encoding="UTF-8"?>
<svg width="86px" height="40px" viewBox="0 0 86 40" version="1.1" xmlns="http://www.w3.org/2000/svg" xmlns:xlink="http://www.w3.org/1999/xlink">
    <title>人员密集</title>
    <defs>
        <linearGradient x1="50%" y1="0%" x2="50%" y2="100%" id="linearGradient-1">
            <stop stop-color="#FF8F8F" offset="0%"></stop>
            <stop stop-color="#FF2E2E" offset="100%"></stop>
        </linearGradient>
    </defs>
    <g id="页面-1" stroke="none" stroke-width="1" fill="none" fill-rule="evenodd">
        <g id="第一部分图标" transform="translate(-121.000000, -714.000000)">
            <g id="人员密集" transform="translate(121.000000, 714.000000)">
                <polygon id="矩形" fill-opacity="0.84" fill="#0E1726" points="0 -7.82360288e-14 86 -1.86870311e-12 86 36 48.1056366 36 44 40 39.9508209 36 0 36"></polygon>
                <g id="编组-44" transform="translate(4.000000, 4.000000)" fill-rule="nonzero">
                    <polygon id="矩形" fill="url(#linearGradient-1)" points="0 2.19618562e-14 28 2.19618562e-14 28 28 0 28"></polygon>
                    <path d="M14.1030251,7 C15.0824334,7.0010338 15.8761439,7.79818724 15.8771842,8.78184395 C15.8788348,9.25492794 15.6924497,9.70911714 15.3593715,10.0436401 C15.0262934,10.3781631 14.5740658,10.5653566 14.1030251,10.563699 C13.6319844,10.5653566 13.1797568,10.3781631 12.8466786,10.0436401 C12.5136005,9.70911714 12.3272154,9.25492794 12.328866,8.78184395 C12.3299063,7.79818724 13.1236168,7.0010338 14.1030251,7 Z M7.71289036,15.8291931 L7.71289036,19.677976 C7.71289036,19.90656 7.52838674,20.091864 7.30078999,20.091864 C7.07319325,20.091864 6.88868963,19.90656 6.88868962,19.677976 L6.88868962,16.2662137 L6.71687738,16.2662137 L6.71687738,19.6667222 C6.71687738,19.9015215 6.52735704,20.091864 6.29357186,20.091864 C6.05978668,20.091864 5.87026634,19.9015215 5.87026634,19.6667222 L5.87026634,13.6103284 L5.7438972,13.6103284 L5.7438972,15.3002668 L5,15.3002668 L5,12.9894965 C5,12.5874875 5.33179683,12.2536262 5.73269205,12.2536262 L7.40412634,12.2536262 C7.38109354,12.3574108 7.36926589,12.4724491 7.36926589,12.5756085 L7.36926589,15.8291931 L7.71289036,15.8291931 Z M7.98741644,10.9200567 C7.98741644,11.1845198 7.89590775,11.4264755 7.75895596,11.6215405 C7.71289036,11.6678059 7.67802991,11.7021924 7.64441447,11.7478326 C7.42653663,11.9666556 7.1401829,12.0929491 6.80838607,12.0929491 C6.49553577,12.0934465 6.19535609,11.968849 5.97413724,11.7466705 C5.75291838,11.5244921 5.62885898,11.2230103 5.62935422,10.9088029 C5.62935422,10.2648383 6.15599757,9.73591197 6.80838607,9.73591197 C7.46077458,9.73591197 7.98803895,10.2648383 7.98803895,10.9200567 L7.98741644,10.9200567 Z M20.2871096,15.8291931 L20.2871096,19.677976 C20.2871096,19.90656 20.4716133,20.091864 20.69921,20.091864 C20.9268068,20.091864 21.1113104,19.90656 21.1113104,19.677976 L21.1113104,16.2662137 L21.2831226,16.2662137 L21.2831226,19.6667222 C21.2831226,19.9015215 21.472643,20.091864 21.7064281,20.091864 C21.9402133,20.091864 22.1297337,19.9015215 22.1297337,19.6667222 L22.1297337,13.6103284 L22.2561028,13.6103284 L22.2561028,15.3002668 L23,15.3002668 L23,12.9894965 C23,12.5874875 22.6682032,12.2536262 22.2673079,12.2536262 L20.5958737,12.2536262 C20.6189065,12.3574108 20.6307341,12.4724491 20.6307341,12.5756085 L20.6307341,15.8291931 L20.2864871,15.8291931 L20.2871096,15.8291931 Z M21.1916139,9.73590369 C20.7462898,9.73424282 20.3381503,9.98510681 20.1369941,10.3841368 C19.9358379,10.7831668 19.9761054,11.2620439 20.241044,11.6215405 C20.2871096,11.6678059 20.3213476,11.7021924 20.3555855,11.7478326 C20.5734634,11.9666556 20.8598171,12.0929491 21.1916139,12.0929491 C21.5044642,12.0934465 21.8046439,11.968849 22.0258628,11.7466705 C22.2470816,11.5244921 22.371141,11.2230103 22.3706458,10.9088029 C22.3706458,10.2648383 21.8440024,9.73590369 21.1916139,9.73590369 L21.1916139,9.73590369 Z M17.4073426,21.2072357 C17.6912063,21.2072357 17.9221568,20.9759086 17.9221568,20.6895632 L17.9221568,16.7488746 L18.1394122,16.7488746 L18.1394122,20.6783094 C18.1394122,20.9704274 18.3751978,21.2072357 18.666054,21.2072357 C18.9569103,21.2072357 19.1926959,20.9704274 19.1926959,20.6783094 L19.1926959,13.4383961 L19.3526805,13.4383961 L19.3526805,15.5534762 L20.2914227,15.5534762 L20.2914227,12.6793931 C20.2914227,12.1729743 19.8793224,11.7597116 19.3757133,11.7597116 L17.2921786,11.7597116 C17.3264166,11.8860037 17.3382442,12.0241747 17.3382442,12.1617206 L17.3382442,16.2199483 L16.8919059,16.2199483 L16.8919059,16.2086946 L16.8919059,20.6895632 C16.8919059,20.9752834 17.1222339,21.2072357 17.4067201,21.2072357 L17.4073426,21.2072357 Z M15.6599179,15.3927976 L15.6599179,12.8394465 L15.4650728,12.8394465 L15.4650728,21.3735412 C15.4650728,21.7195248 15.1858091,22 14.8413197,22 C14.4968304,22 14.2175666,21.7195248 14.2175666,21.3735412 L14.2175666,16.8632878 L13.9542457,16.8632878 L13.9542457,21.3616622 C13.9542457,21.7140338 13.6698258,21.9996874 13.3189761,21.9996874 C12.9681264,21.9996874 12.6837066,21.7140338 12.6837066,21.3616622 L12.6837066,12.8400717 L12.4888616,12.8400717 L12.4888616,15.3915472 L11.3558968,15.3915472 L11.3558968,11.9085112 C11.3558968,11.2876792 11.8595058,10.7931394 12.4658288,10.7931394 L15.6941558,10.7931394 C16.3123064,10.7931394 16.8047103,11.2995582 16.8047103,11.9085112 L16.8047103,15.3915472 L15.6592954,15.3915472 L15.6599179,15.3927976 Z M10.6617558,21.2072357 C10.5251106,21.2072357 10.3940712,21.1526756 10.2975069,21.0555751 C10.2009426,20.9584747 10.1467763,20.826801 10.1469416,20.6895632 L10.1469416,16.7488746 L9.92906372,16.7488746 L9.92906372,20.6783094 C9.92906372,20.9704274 9.69327812,21.2072357 9.40242185,21.2072357 C9.11156558,21.2072357 8.87577999,20.9704274 8.87577999,20.6783094 L8.87577999,13.4383961 L8.7157954,13.4383961 L8.7157954,15.5534762 L7.77705317,15.5534762 L7.77705317,12.6793931 C7.77705317,12.1729743 8.18915354,11.7597116 8.6927626,11.7597116 L10.7762973,11.7597116 C10.7434444,11.8911039 10.7279561,12.026268 10.7302317,12.1617206 L10.7302317,16.2199483 L11.1771925,16.2199483 L11.1771925,16.2086946 L11.1771925,20.6895632 C11.1771925,20.9752834 10.9468645,21.2072357 10.6617558,21.2072357 L10.6617558,21.2072357 Z M10.0554329,8.60928161 C10.4443242,8.60828619 10.8175655,8.76304297 11.0924957,9.03928308 C11.3674258,9.31552319 11.5213556,9.69044921 11.520201,10.081027 C11.520201,10.4142631 11.4174806,10.7131127 11.2338407,10.9550684 C11.1883976,11.0007086 11.142332,11.0582277 11.0968889,11.1157469 C10.8233005,11.389228 10.4526383,11.5421849 10.066638,11.5408968 C9.67774713,11.5420548 9.30444041,11.3874573 9.02939339,11.1113346 C8.75434637,10.8352118 8.60025799,10.4603515 8.60125391,10.0697733 C8.57822111,9.27575859 9.24243727,8.60928161 10.0554329,8.60928161 Z M16.5594801,10.081027 C16.5594801,10.4142631 16.6628229,10.7131127 16.8458403,10.9550684 C16.8919059,11.0007086 16.937349,11.0582277 16.9827921,11.1157469 C17.2467355,11.3802101 17.6127703,11.5408934 18.0136655,11.5408934 C18.4024487,11.5418881 18.775595,11.387217 19.0505071,11.1111124 C19.3254193,10.8350078 19.4794223,10.4602429 19.4784271,10.0697733 C19.4902548,9.27575859 18.8372438,8.60927987 18.0248707,8.60927987 C17.6358716,8.60811945 17.2624699,8.76280261 16.9874048,9.03906088 C16.7123397,9.31531916 16.5583246,9.69034055 16.5594801,10.081027 Z" id="形状" fill="#1E1E1E"></path>
                </g>
            </g>
        </g>
    </g>
</svg>