<?xml version="1.0" encoding="UTF-8"?>
<svg width="86px" height="40px" viewBox="0 0 86 40" version="1.1" xmlns="http://www.w3.org/2000/svg" xmlns:xlink="http://www.w3.org/1999/xlink">
    <title>企业</title>
    <defs>
        <linearGradient x1="53.8304822%" y1="103.830482%" x2="53.8304822%" y2="-3.83048222%" id="linearGradient-1">
            <stop stop-color="#68ACFF" offset="0%"></stop>
            <stop stop-color="#C7E0FF" offset="100%"></stop>
        </linearGradient>
    </defs>
    <g id="页面-1" stroke="none" stroke-width="1" fill="none" fill-rule="evenodd">
        <g id="第一部分图标" transform="translate(-510.000000, -160.000000)">
            <g id="企业" transform="translate(510.000000, 160.000000)">
                <polygon id="矩形" fill-opacity="0.84" fill="#0E1726" points="0 -7.82360288e-14 86 -1.86870311e-12 86 36 48.1056366 36 44 40 39.9508209 36 0 36"></polygon>
                <g id="编组-44" transform="translate(4.000000, 4.000000)">
                    <polygon id="矩形" fill="url(#linearGradient-1)" fill-rule="nonzero" points="0 2.19618562e-14 28 2.19618562e-14 28 28 0 28"></polygon>
                    <g id="编组-68" transform="translate(4.000000, 4.000000)">
                        <rect id="矩形" x="0" y="0" width="20" height="20"></rect>
                        <path d="M17.3636364,16.3333333 L19,16.3333333 L19,18 L1,18 L1,16.3333333 L2.63636364,16.3333333 L2.63636364,3.83333333 C2.63636364,3.37309604 3.00267611,3 3.45454545,3 L11.6363636,3 C12.088233,3 12.4545455,3.37309604 12.4545455,3.83333333 L12.4545455,16.3333333 L14.0909091,16.3333333 L14.0909091,8 L16.5454545,8 C16.9973239,8 17.3636364,8.37309604 17.3636364,8.83333333 L17.3636364,16.3333333 Z M5.90909091,9.66666667 L5.90909091,11.3333333 L9.18181818,11.3333333 L9.18181818,9.66666667 L5.90909091,9.66666667 Z M5.90909091,6.33333333 L5.90909091,8 L9.18181818,8 L9.18181818,6.33333333 L5.90909091,6.33333333 Z" id="形状" fill="#1E1E1E" fill-rule="nonzero"></path>
                    </g>
                </g>
            </g>
        </g>
    </g>
</svg>