<?xml version="1.0" encoding="UTF-8"?>
<svg width="86px" height="40px" viewBox="0 0 86 40" version="1.1" xmlns="http://www.w3.org/2000/svg" xmlns:xlink="http://www.w3.org/1999/xlink">
    <title>医疗机构</title>
    <defs>
        <linearGradient x1="53.8304822%" y1="103.830482%" x2="53.8304822%" y2="-3.83048222%" id="linearGradient-1">
            <stop stop-color="#44EF66" offset="0%"></stop>
            <stop stop-color="#99F0AB" offset="100%"></stop>
        </linearGradient>
    </defs>
    <g id="页面-1" stroke="none" stroke-width="1" fill="none" fill-rule="evenodd">
        <g id="第一部分图标" transform="translate(-414.000000, -160.000000)">
            <g id="医疗机构" transform="translate(414.000000, 160.000000)">
                <polygon id="矩形" fill-opacity="0.84" fill="#0E1726" points="0 -7.82360288e-14 86 -1.86870311e-12 86 36 48.1056366 36 44 40 39.9508209 36 0 36"></polygon>
                <g id="编组-44" transform="translate(4.000000, 4.000000)">
                    <polygon id="矩形" fill="url(#linearGradient-1)" fill-rule="nonzero" points="0 2.19618562e-14 28 2.19618562e-14 28 28 0 28"></polygon>
                    <g id="编组-68" transform="translate(4.000000, 4.000000)">
                        <rect id="矩形" x="0" y="0" width="20" height="20"></rect>
                        <path d="M10.1079155,1.47269565 C10.3073247,1.08765217 10.7249109,0.794173913 11.2339908,1.18391304 L13.9342254,3.87921739 C14.257972,4.2313913 14.3635416,4.87234783 13.9365714,5.36304348 L11.9565557,7.35165217 L11.9424798,7.35165217 L11.9424798,4.21495652 L8.33903901,4.21495652 L8.33903901,7.47608696 L6.17134417,5.26913043 C5.7607959,4.7526087 5.92970719,4.18443478 6.28864367,3.81582609 L8.85984881,1.27547826 C9.26335911,0.909217391 9.79589886,0.895130435 10.1079155,1.47269565 Z M18.527674,10.0375652 C18.9124164,9.838 19.2056651,9.42008696 18.8162308,8.9106087 L16.1230341,6.20826087 C15.7711356,5.88426087 15.1306803,5.7786087 14.6403684,6.20591304 L12.5665132,8.31191304 L15.8274394,8.31191304 L15.8274394,11.9486957 L12.6697367,11.9486957 L14.731862,13.9772174 C15.2479798,14.388087 15.8157094,14.2190435 16.1840299,13.8598261 L18.7223912,11.2866087 C19.0907116,10.8851304 19.1024416,10.3521739 18.527674,10.0375652 L18.527674,10.0375652 Z M1.47232601,9.9013913 C1.08758363,9.70182609 0.794334868,9.28391304 1.18376922,8.77443478 L3.87696585,6.07208696 C4.22886437,5.74808696 4.86931966,5.64243478 5.35963159,6.06973913 L7.33730124,8.04191304 L4.23121036,8.04191304 L4.23121036,11.6786957 L7.46867669,11.6786957 L5.26813798,13.8410435 C4.75202016,14.251913 4.18429056,14.0828696 3.81597011,13.7236522 L1.27760883,11.148087 C0.909288383,10.7489565 0.897558433,10.216 1.47232601,9.9013913 Z M9.95777218,18.5273043 C10.1571813,18.9123478 10.5747676,19.2058261 11.0838474,18.816087 L13.784082,16.1207826 C14.1078287,15.7686087 14.2133982,15.1276522 13.786428,14.6369565 L11.665653,12.5638261 L11.665653,15.8061739 L8.0809801,15.8061739 L8.0809801,12.6366087 L6.0212008,14.7308696 C5.61065253,15.2473913 5.77956382,15.8155652 6.1385003,16.1841739 L8.71205144,18.7245217 C9.11086975,19.0931304 9.6457555,19.1048696 9.95777218,18.5273043 Z" id="形状" fill="#1E1E1E" fill-rule="nonzero"></path>
                    </g>
                </g>
            </g>
        </g>
    </g>
</svg>