<?xml version="1.0" encoding="UTF-8"?>
<svg width="86px" height="40px" viewBox="0 0 86 40" version="1.1" xmlns="http://www.w3.org/2000/svg" xmlns:xlink="http://www.w3.org/1999/xlink">
    <title>危化企业</title>
    <defs>
        <linearGradient x1="53.8304822%" y1="103.830482%" x2="53.8304822%" y2="-3.83048222%" id="linearGradient-1">
            <stop stop-color="#FFEA44" offset="0%"></stop>
            <stop stop-color="#FFF6B3" offset="100%"></stop>
        </linearGradient>
    </defs>
    <g id="页面-1" stroke="none" stroke-width="1" fill="none" fill-rule="evenodd">
        <g id="第一部分图标" transform="translate(-318.000000, -495.000000)">
            <g id="危化企业" transform="translate(318.000000, 495.000000)">
                <polygon id="矩形" fill-opacity="0.84" fill="#0E1726" points="0 -7.82360288e-14 86 -1.86870311e-12 86 36 48.1056366 36 44 40 39.9508209 36 0 36"></polygon>
                <g id="编组-44" transform="translate(4.000000, 4.000000)">
                    <polygon id="矩形" fill="url(#linearGradient-1)" fill-rule="nonzero" points="0 2.19618562e-14 28 2.19618562e-14 28 28 0 28"></polygon>
                    <g id="编组-68" transform="translate(4.000000, 4.000000)">
                        <rect id="矩形" x="0" y="0" width="20" height="20"></rect>
                        <path d="M4.10757066,9.60489173 C4.84555821,10.3469975 5.88574488,10.8893662 7.22884986,11.2300517 L7.22884986,11.4962918 C7.22884986,11.8258613 7.35604638,12.1027615 7.61103875,12.3262733 C7.86605109,12.5503813 8.18149527,12.6741825 8.5572714,12.6976944 C8.94653231,12.7214517 9.23480714,12.6624529 9.42281506,12.5210134 C9.71778234,12.7090734 10.046971,12.8032787 10.4096419,12.8032787 C10.7449837,12.8032787 11.054035,12.7154028 11.3356774,12.5386517 C11.5236653,12.6678355 11.7986351,12.7214342 12.161306,12.6976944 C12.5371221,12.6624529 12.8526462,12.5356886 13.1075587,12.3179276 C13.362571,12.0988691 13.4898075,11.8260191 13.4898075,11.4963619 L13.4898075,11.3021127 C14.9391327,10.9720522 16.0601282,10.4186201 16.8526542,9.63997545 C17.6176912,8.89844832 18,8.02107478 18,7.00750416 C18,6.78329096 17.9732502,6.54787411 17.9191712,6.30016656 C17.6510137,4.79351276 16.8588672,3.54983782 15.5437906,2.57222758 C14.1611502,1.5243447 12.4764506,1 10.4899314,1 C8.50297265,1 6.8185327,1.51840098 5.43653159,2.55413343 C4.12085567,3.54464802 3.33566137,4.79342509 3.08092871,6.3000789 C3.02680976,6.54785658 3,6.78329096 3,7.00748663 C3,7.99701937 3.36894383,8.86226002 4.10755068,9.60490927 L4.10757066,9.60489173 Z M11.9149557,5.39684028 C12.3024888,5.02317544 12.772072,4.83606557 13.3232946,4.83606557 C13.8883779,4.83606557 14.3644906,5.02317544 14.7521802,5.39684028 C15.1391464,5.77011131 15.3333333,6.22278724 15.3333333,6.75363296 C15.3333333,7.28480088 15.1391464,7.73760211 14.7521802,8.11149964 C14.3645493,8.48589838 13.8883779,8.67213115 13.3232946,8.67213115 C12.772072,8.67213115 12.3024888,8.48588048 11.9149361,8.11146384 C11.5270315,7.73756631 11.3333333,7.28478298 11.3333333,6.75359716 C11.3333333,6.22278724 11.5269924,5.77016501 11.9149361,5.39684028 L11.9149557,5.39684028 Z M9.96130981,8.98323977 C10.1574428,8.77613008 10.350067,8.67213115 10.54013,8.67213115 C10.7297696,8.67213115 10.909044,8.78672241 11.0785581,9.01707273 C11.2477495,9.24646909 11.3333333,9.4646152 11.3333333,9.67271175 C11.3333333,9.98970866 11.0753517,10.147541 10.5602757,10.147541 C10.2216912,10.147541 9.97096925,10.0763224 9.80843255,9.93480617 C9.71333043,9.84643257 9.66666667,9.7376638 9.66666667,9.60618072 C9.6667675,9.39875853 9.764713,9.19133633 9.96128965,8.98323977 L9.96130981,8.98323977 Z M5.92162985,5.39684028 C6.31382752,5.02317544 6.7844764,4.83606557 7.33299292,4.83606557 C7.88162615,4.83606557 8.35229448,5.02317544 8.74495901,5.39684028 C9.13692326,5.77011131 9.33333333,6.22278724 9.33333333,6.75363296 C9.33333333,7.28480088 9.13702052,7.73760211 8.74495901,8.11149964 C8.35225558,8.48589838 7.88162615,8.67213115 7.33299292,8.67213115 C6.78445695,8.67213115 6.31382752,8.48588048 5.92162985,8.11146384 C5.5296656,7.73760211 5.33333333,7.28480088 5.33333333,6.75363296 C5.33333333,6.22278724 5.5296656,5.77016501 5.92162985,5.39684028 Z M15.9595686,17.8196721 L15.9997789,17.7418498 C14.1113927,16.4611467 14.6262905,15.6998859 17.2968538,15.9717118 L17.3333333,15.9347505 C13.7213109,15.237335 8.4287051,13.4826579 5.2029152,11.9180328 L5.16765959,11.9694197 C7.27206042,13.3220264 6.79830078,14.1390915 4.02905726,13.8554457 L4,13.8948745 C7.54498545,14.5699096 12.7214214,16.2789804 15.9595883,17.8196721 L15.9595686,17.8196721 Z M15.5622099,18.6776486 C16.6880763,18.8873088 16.3175935,17.8365844 16.6467025,17.2848665 C16.9776518,16.712241 18.2220985,16.2928675 17.9653833,15.5244671 C17.720235,14.8030294 17.2024166,15.3566045 16.7148094,15.5392369 C16.1916726,15.7387617 15.6892834,15.5858634 14.667094,15.4178593 C13.9677044,15.2999664 13.2287611,16.8724622 13.9850749,17.1747211 C15.3971802,17.7312855 15.0161012,18.5747907 15.5622099,18.6776486 Z M5.42800209,11.3558077 C4.305433,11.1436473 4.66789398,12.1917494 4.34726981,12.7445489 C4.01687748,13.3163073 2.77112569,13.7377816 3.0369027,14.5088544 C3.28289399,15.228835 3.80534492,14.6767836 4.28429637,14.4958077 C4.79978489,14.2973326 5.31151162,14.4462117 6.3353392,14.6179363 C7.03054102,14.7317077 7.7718818,13.1627205 7.0148704,12.8651631 C5.59495445,12.3015064 5.97362641,11.4566601 5.42800209,11.3558077 L5.42800209,11.3558077 Z M17,14.0196182 L16.9612381,13.9420044 C14.4652319,14.0707744 14.1750971,13.2440266 16.3594697,11.9645088 L16.3537953,11.9180328 C13.111143,13.4134823 7.71918376,15.082521 4,15.7467307 L4.0192211,15.8028231 C6.73561068,15.606124 7.10442811,16.4499693 4.83781636,17.7755019 L4.8511033,17.8196721 C8.02534278,16.3451633 13.2927046,14.7077747 17,14.0196182 Z M17.2801938,15.1215252 C18.2576421,14.6356395 17.1010375,14.0751407 16.8653443,13.4832828 C16.61325,12.8750245 17.1397783,11.8601072 16.3040609,11.4421841 C15.5164705,11.0520698 15.6197594,11.752531 15.4290446,12.1636236 C15.2274489,12.6073187 14.7407774,12.7805867 13.8724372,13.2381592 C13.2757809,13.5490468 14.0887002,15.1228409 14.8826079,14.9148976 C16.3582064,14.5208904 16.8051008,15.3564121 17.2801938,15.1215252 L17.2801938,15.1215252 Z M3.72140462,15.4988929 C2.74479139,15.9465065 3.89025381,16.4659518 4.13112457,17.0095071 C4.38113116,17.571059 3.85403819,18.5129948 4.69613333,18.8955939 C5.4808939,19.2539973 5.3839024,18.6045919 5.57051117,18.2296172 C5.76822225,17.8235435 6.25758379,17.6548599 7.12991323,17.2318886 C7.71980999,16.9427583 6.91640904,15.4888128 6.12689619,15.6859338 C4.64127731,16.0518758 4.19413319,15.2798086 3.72140462,15.4988929 L3.72140462,15.4988929 Z" id="形状" fill="#1E1E1E" fill-rule="nonzero"></path>
                    </g>
                </g>
            </g>
        </g>
    </g>
</svg>