<?xml version="1.0" encoding="UTF-8"?>
<svg width="86px" height="40px" viewBox="0 0 86 40" version="1.1" xmlns="http://www.w3.org/2000/svg" xmlns:xlink="http://www.w3.org/1999/xlink">
    <title>地质灾害点</title>
    <defs>
        <linearGradient x1="53.8304822%" y1="103.830482%" x2="53.8304822%" y2="-3.83048222%" id="linearGradient-1">
            <stop stop-color="#FFC326" offset="0%"></stop>
            <stop stop-color="#FFE9AE" offset="100%"></stop>
        </linearGradient>
    </defs>
    <g id="页面-1" stroke="none" stroke-width="1" fill="none" fill-rule="evenodd">
        <g id="第一部分图标" transform="translate(-318.000000, -264.000000)">
            <g id="地质灾害点" transform="translate(318.000000, 264.000000)">
                <polygon id="矩形" fill-opacity="0.84" fill="#0E1726" points="0 -7.82360288e-14 86 -1.86870311e-12 86 36 48.1056366 36 44 40 39.9508209 36 0 36"></polygon>
                <g id="编组-44" transform="translate(4.000000, 4.000000)">
                    <polygon id="矩形" fill="url(#linearGradient-1)" fill-rule="nonzero" points="0 2.19618562e-14 28 2.19618562e-14 28 28 0 28"></polygon>
                    <g id="编组-68" transform="translate(4.000000, 4.000000)">
                        <rect id="矩形" x="0" y="0" width="20" height="20"></rect>
                        <path d="M8.83439014,3.39699315 C9.22476491,2.72561202 10.2484631,2.866087 10.4124938,4.12403747 C10.4426088,4.35498942 10.2034408,5.00332276 9.69498963,6.06903748 C9.49836319,7.03197596 9.49836319,7.98621163 9.69498963,8.9317445 C10.0675291,10.7232038 11.2663397,11.7698264 13.2914214,12.0716123 C13.9831205,12.5688256 15.5398522,15.4316024 14.8094905,17 L1.88037227,17 C1.09700528,17 0.775806125,16.4503518 1.16618089,15.7786007 Z M17.5000985,12.5789474 C18.7282367,12.5789474 19,13.4591785 19,14.5442466 C19,15.6295727 18.6748328,16.5087719 17.5000985,16.5087719 C16.3253641,16.5087719 16,15.6293147 16,14.5442466 C16,13.4589206 16.2719602,12.5789474 17.5000985,12.5789474 Z M15.125361,7.9122807 C16.192992,7.9122807 16.5,8.62602593 16.5,9.50751386 C16.5,10.2505258 16.2621048,10.8751792 15.5664174,11.0539143 L15.456,11.076 L15.5292411,11.1485869 C15.6665942,11.3003986 15.75,11.5001781 15.75,11.7186208 C15.75,12.1937198 15.3584559,12.5789474 14.875,12.5789474 C14.3920037,12.5789474 14,12.1937198 14,11.7186208 C14,11.427086 14.1482771,11.1690722 14.3750033,11.0137265 L14.449,10.968 C13.9325305,10.7171665 13.75,10.1576493 13.75,9.50751386 C13.75,8.62602593 14.05773,7.9122807 15.125361,7.9122807 Z M14.875,10.8596491 C14.7262443,10.8596491 14.5861904,10.8961204 14.4635666,10.9604195 L14.449,10.968 L14.5590917,11.0152558 C14.6790025,11.05898 14.814514,11.087747 14.96707,11.0993978 L15.125361,11.1052632 C15.2347473,11.1052632 15.3363363,11.097336 15.4305576,11.0821216 L15.456,11.076 L15.3749967,11.0138498 C15.2616335,10.9361318 15.1286581,10.8840742 14.9847988,10.8663598 Z M12.3859649,8.89473684 C12.7250871,8.89473684 13,9.16964972 13,9.50877193 C13,9.84789414 12.7250871,10.122807 12.3859649,10.122807 L11.3640351,10.122807 C11.0249129,10.122807 10.75,9.84789414 10.75,9.50877193 C10.75,9.16964972 11.0249129,8.89473684 11.3640351,8.89473684 L12.3859649,8.89473684 Z M12.625,5.45614035 C13.3847164,5.45614035 14,6.0016353 14,6.67676552 C14,7.35189574 13.6280027,7.78493497 12.625,7.89931597 C11.6219973,8.01369696 11.25,7.35189574 11.25,6.67676552 C11.25,6.5501786 11.2716311,6.42814918 11.3117894,6.3134185 L11.323,6.285 L11.3975171,6.33800372 C11.4763418,6.386159 11.5635478,6.41866479 11.6559642,6.43190798 L11.75,6.43859649 C12.1643908,6.43859649 12.5,6.05472375 12.5,5.57962479 C12.5,5.54572141 12.4992941,5.51227195 12.4977601,5.47938453 L12.496,5.461 L12.625,5.45614035 Z M11.75,4.71929825 C12.2742597,4.71929825 12.4508089,5.00265439 12.4905523,5.38251658 L12.496,5.461 L12.4843607,5.46243134 C11.9757324,5.508193 11.5492805,5.79950134 11.3580086,6.20122228 L11.323,6.285 C11.1272438,6.12960098 11,5.87171547 11,5.57962479 C11,5.10452583 11.1383636,4.71929825 11.75,4.71929825 Z" id="形状结合" fill="#1E1E1E" fill-rule="nonzero"></path>
                    </g>
                </g>
            </g>
        </g>
    </g>
</svg>