<?xml version="1.0" encoding="UTF-8"?>
<svg width="86px" height="40px" viewBox="0 0 86 40" version="1.1" xmlns="http://www.w3.org/2000/svg" xmlns:xlink="http://www.w3.org/1999/xlink">
    <title>学校</title>
    <defs>
        <linearGradient x1="53.8304822%" y1="103.830482%" x2="53.8304822%" y2="-3.83048222%" id="linearGradient-1">
            <stop stop-color="#61E09A" offset="0%"></stop>
            <stop stop-color="#C7F6DC" offset="100%"></stop>
        </linearGradient>
    </defs>
    <g id="页面-1" stroke="none" stroke-width="1" fill="none" fill-rule="evenodd">
        <g id="第一部分图标" transform="translate(-318.000000, -160.000000)">
            <g id="学校" transform="translate(318.000000, 160.000000)">
                <polygon id="矩形" fill-opacity="0.84" fill="#0E1726" points="0 -7.82360288e-14 86 -1.86870311e-12 86 36 48.1056366 36 44 40 39.9508209 36 0 36"></polygon>
                <g id="编组-44" transform="translate(4.000000, 4.000000)">
                    <polygon id="矩形" fill="url(#linearGradient-1)" fill-rule="nonzero" points="0 2.19618562e-14 28 2.19618562e-14 28 28 0 28"></polygon>
                    <g id="编组-68" transform="translate(4.000000, 4.000000)">
                        <rect id="矩形" x="0" y="0" width="20" height="20"></rect>
                        <path d="M4.53688525,18 C6.95491803,17.125 8.92213115,16.1875 10.4385246,15.1875 C12.0368852,16.2291667 14.045082,17.125 16.4631148,17.875 C16.8729508,17.0833333 17.3852459,16.2708333 18,15.4375 C15.7868852,14.9791667 13.942623,14.2916667 12.4672131,13.375 C13.8606557,12 14.9057377,10.0833333 15.602459,7.625 L15.602459,7.625 L17.8155738,7.625 L17.8155738,5.25 L12.0983607,5.25 C12.0163934,4.5 11.9139344,3.75 11.7909836,3 L11.7909836,3 L8.84016393,3.125 C8.92213115,3.33333333 9.00409836,3.6875 9.08606557,4.1875 C9.20901639,4.64583333 9.29098361,5 9.33196721,5.25 L9.33196721,5.25 L3.12295082,5.25 L3.12295082,7.625 L5.33606557,7.625 C6.07377049,9.91666667 7.09836066,11.8333333 8.40983607,13.375 C7.01639344,14.25 5.21311475,15.0208333 3,15.6875 C3.32786885,16.1041667 3.79918033,16.8125 4.41393443,17.8125 C4.45491803,17.8958333 4.49590164,17.9583333 4.53688525,18 Z M10.4385246,11.75 C9.41393443,10.625 8.6147541,9.25 8.04098361,7.625 L8.04098361,7.625 L12.8360656,7.625 C12.3852459,9.25 11.5860656,10.625 10.4385246,11.75 Z" id="文" fill="#1E1E1E" fill-rule="nonzero"></path>
                    </g>
                </g>
            </g>
        </g>
    </g>
</svg>