<?xml version="1.0" encoding="UTF-8"?>
<svg width="86px" height="40px" viewBox="0 0 86 40" version="1.1" xmlns="http://www.w3.org/2000/svg" xmlns:xlink="http://www.w3.org/1999/xlink">
    <title>山险村资源</title>
    <defs>
        <linearGradient x1="53.8304822%" y1="103.830482%" x2="53.8304822%" y2="-3.83048222%" id="linearGradient-1">
            <stop stop-color="#FFC326" offset="0%"></stop>
            <stop stop-color="#FFE9AE" offset="100%"></stop>
        </linearGradient>
    </defs>
    <g id="页面-1" stroke="none" stroke-width="1" fill="none" fill-rule="evenodd">
        <g id="第一部分图标" transform="translate(-417.000000, -714.000000)">
            <g id="山险村资源" transform="translate(417.000000, 714.000000)">
                <polygon id="矩形" fill-opacity="0.84" fill="#0E1726" points="0 -7.82360288e-14 86 -1.86870311e-12 86 36 48.1056366 36 44 40 39.9508209 36 0 36"></polygon>
                <g id="编组-44" transform="translate(4.000000, 3.740000)" fill-rule="nonzero">
                    <polygon id="矩形" fill="url(#linearGradient-1)" points="0 2.19618562e-14 28 2.19618562e-14 28 28 0 28"></polygon>
                    <path d="M13.1320893,6.4773217 C13.5214211,5.84089277 14.4785789,5.84089277 14.8679107,6.4773217 L22.8594488,19.5408463 C23.2543052,20.1863061 22.7703167,21 21.9915381,21 L6.00846186,21 C5.22968331,21 4.74569476,20.1863061 5.14055117,19.5408463 Z M14,6.9682377 L6.00846186,20.0317623 L21.9915381,20.0317623 L14,6.9682377 Z M14.4903991,10.8104508 L19.1010067,18.494877 L8.40592331,18.494877 L8.70099995,17.9954612 C9.43440537,17.9996642 10.1283655,17.9996642 10.7828804,17.9954612 C11.1714972,17.8097105 11.4125397,17.5629252 11.5060081,17.2551053 C11.6577643,17.1806324 11.7569031,17.0686617 11.8034247,16.9191933 C12.3621085,16.537991 12.5292222,15.8100397 12.3047658,14.7353395 L12.4979519,14.7353395 L12.4979519,14.1983642 L12.8213817,14.1983642 L12.8213817,14.7353395 L14.0291581,14.7353395 C14.0247398,14.5915508 14.0247398,14.2292848 14.0291581,13.6485413 C14.4000782,11.9112183 13.5895543,12.0331513 13.8014884,11.7783121 C13.9427778,11.6084193 13.9654439,11.397939 13.8694867,11.1468712 L14.4903991,10.8104508 Z" id="形状结合" fill="#1E1E1E"></path>
                </g>
            </g>
        </g>
    </g>
</svg>