<?xml version="1.0" encoding="UTF-8"?>
<svg width="86px" height="40px" viewBox="0 0 86 40" version="1.1" xmlns="http://www.w3.org/2000/svg" xmlns:xlink="http://www.w3.org/1999/xlink">
    <title>物资装备</title>
    <defs>
        <linearGradient x1="53.8304822%" y1="103.830482%" x2="53.8304822%" y2="-3.83048222%" id="linearGradient-1">
            <stop stop-color="#84EF33" offset="0%"></stop>
            <stop stop-color="#DBFFC8" offset="100%"></stop>
        </linearGradient>
    </defs>
    <g id="页面-1" stroke="none" stroke-width="1" fill="none" fill-rule="evenodd">
        <g id="第一部分图标" transform="translate(-510.000000, -378.000000)">
            <g id="物资装备" transform="translate(510.000000, 378.000000)">
                <polygon id="矩形" fill-opacity="0.84" fill="#0E1726" points="0 -7.82360288e-14 86 -1.86870311e-12 86 36 48.1056366 36 44 40 39.9508209 36 0 36"></polygon>
                <g id="编组-44" transform="translate(4.000000, 4.000000)">
                    <polygon id="矩形" fill="url(#linearGradient-1)" fill-rule="nonzero" points="0 2.19618562e-14 28 2.19618562e-14 28 28 0 28"></polygon>
                    <g id="编组-68" transform="translate(4.000000, 4.000000)">
                        <rect id="矩形" x="0" y="0" width="20" height="20"></rect>
                        <path d="M10.0071364,9.65613732 C10.0071364,9.45254514 10.1284549,9.26681193 10.3211373,9.1882325 L17.3326361,6.41652148 C17.4860684,6.3593728 17.6573417,6.38080356 17.7893648,6.47367016 C17.9213879,6.56653677 18.0034564,6.72012385 17.9998882,6.88442631 L17.9998882,14.0923037 C17.9998882,14.2851805 17.8928424,14.4637701 17.7180009,14.5459213 L10.7100703,17.9534114 C10.556638,18.0248473 10.3746602,18.0141319 10.2319325,17.9212653 C10.0892048,17.8283987 10.0035682,17.667668 10.0071364,17.4997937 L10.0071364,9.65613732 Z M3.07770598,4.78778408 L9.78947659,2.03750382 C9.90722696,1.98749873 10.0392501,1.98749873 10.1570004,2.03750382 L16.8152482,4.74135078 C17.0079306,4.81993021 17.1328173,5.00566343 17.1328173,5.2092556 C17.1328173,5.41641957 17.0079306,5.60215278 16.8152482,5.67716042 L9.81089163,8.42744068 C9.69314127,8.47387399 9.56111814,8.47387399 9.44336778,8.42744068 L3.06343321,5.71287835 C2.88145538,5.62715533 2.76727321,5.44499391 2.7708414,5.24497353 C2.7708414,5.04495314 2.89572815,4.86279172 3.07770598,4.78778408 Z M8.47281346,17.8784038 L2.25345345,14.3530445 C2.10002116,14.2637497 2.00367996,14.103019 2.00011177,13.9244294 L2.00011177,6.91300065 C1.99654357,6.7451264 2.07861201,6.58796752 2.21777152,6.49510092 C2.35693104,6.40223431 2.53177249,6.38437535 2.68520478,6.44866761 L8.90456479,9.17751712 C9.08654262,9.25966835 9.20429298,9.44182977 9.20429298,9.64185015 L9.20429298,17.4283579 C9.21142936,17.6069475 9.12222454,17.7748218 8.96879226,17.8676884 C8.81892816,17.9641268 8.62981394,17.9676986 8.47281346,17.8784038 Z M3.79848092,10.659811 L6.60308045,12.3742714 C6.75651273,12.4671381 6.94562695,12.4671381 7.10262743,12.3778432 C7.25605972,12.2885484 7.35240093,12.124246 7.34883274,11.9456563 C7.34883274,11.7706385 7.25962792,11.6099078 7.10976382,11.5170412 L4.3051643,9.80258081 C4.15173201,9.70971421 3.96261779,9.70971421 3.80561731,9.79900902 C3.65218502,9.88473204 3.55584382,10.0526063 3.55941201,10.2311959 C3.55941201,10.4062138 3.65218502,10.5669444 3.79848092,10.659811 Z" id="形状" fill="#1E1E1E" fill-rule="nonzero"></path>
                    </g>
                </g>
            </g>
        </g>
    </g>
</svg>