<?xml version="1.0" encoding="UTF-8"?>
<svg width="86px" height="40px" viewBox="0 0 86 40" version="1.1" xmlns="http://www.w3.org/2000/svg" xmlns:xlink="http://www.w3.org/1999/xlink">
    <title>应急专家</title>
    <defs>
        <linearGradient x1="53.8304822%" y1="103.830482%" x2="53.8304822%" y2="-3.83048222%" id="linearGradient-1">
            <stop stop-color="#42ECB9" offset="0%"></stop>
            <stop stop-color="#B2F7E3" offset="100%"></stop>
        </linearGradient>
    </defs>
    <g id="页面-1" stroke="none" stroke-width="1" fill="none" fill-rule="evenodd">
        <g id="第一部分图标" transform="translate(-222.000000, -378.000000)">
            <g id="应急专家" transform="translate(222.000000, 378.000000)">
                <polygon id="矩形" fill-opacity="0.84" fill="#0E1726" points="0 -7.82360288e-14 86 -1.86870311e-12 86 36 48.1056366 36 44 40 39.9508209 36 0 36"></polygon>
                <g id="编组-44" transform="translate(4.000000, 4.000000)">
                    <polygon id="矩形" fill="url(#linearGradient-1)" fill-rule="nonzero" points="0 2.19618562e-14 28 2.19618562e-14 28 28 0 28"></polygon>
                    <g id="编组-68" transform="translate(4.000000, 4.000000)">
                        <rect id="矩形" x="0" y="0" width="20" height="20"></rect>
                        <path d="M14.3694788,11.8575288 C14.4625232,11.8829718 14.5340958,11.9491233 14.6110363,12.0017054 C15.6041065,12.7293729 16.389616,13.7012925 16.9067282,14.7834647 C17.3200601,15.6451316 17.5669856,16.5780387 17.6421369,17.5228192 C17.6492942,17.590667 17.6510835,17.660211 17.6278224,17.7263626 C17.5777215,17.8790201 17.4220511,17.9943613 17.2538554,17.9994499 L3.80893838,17.9994499 C3.72841918,18.0028423 3.64611066,17.9909689 3.57632736,17.9519565 C3.43497143,17.8824125 3.34550565,17.7280588 3.35982017,17.5787936 C3.42781416,16.615355 3.67652903,15.6620936 4.0988075,14.7834647 C4.61770901,13.6995963 5.40500785,12.7259805 6.40165661,11.9966168 C6.47859718,11.9406424 6.55553775,11.8727946 6.65573942,11.8524402 C6.77562356,11.8236049 6.90982222,11.8456555 7.01002389,11.9168956 C7.46629936,12.2374764 7.96730771,12.5003866 8.49873443,12.6886642 C9.14646666,12.9193467 9.83893178,13.0380804 10.5313969,13.0329918 C11.6246687,13.0312956 12.7089939,12.7158034 13.6269128,12.1560591 C13.7539542,12.0797303 13.877417,11.9966168 14.0008797,11.9118071 C14.1064494,11.8405669 14.246016,11.8202125 14.3694788,11.8575288 Z M9.56874513,15.1718933 C9.40233878,15.2092096 9.26992943,15.3499938 9.25382559,15.5111323 C9.23056449,15.6790555 9.33971274,15.848675 9.50254046,15.9148266 C9.58171767,15.9491745 9.6689468,15.9491745 9.75516944,15.948459 L11.3347996,15.9487505 C11.4761555,15.9487505 11.6121435,15.8741179 11.6855054,15.7604729 C11.7731819,15.6315621 11.7678139,15.4551578 11.6729802,15.3296394 C11.597829,15.2261715 11.4689982,15.16002 11.3347996,15.16002 L9.75304463,15.16002 C9.6922079,15.16002 9.62958186,15.1566276 9.56874513,15.1718933 Z M10.6262306,3 C11.0037762,3.01017717 11.3831111,3.04070867 11.7534994,3.11873363 C12.0022143,3.17470806 12.2455612,3.25103682 12.4924867,3.31718841 C14.0509806,3.75141426 15.6094744,4.18564011 17.1679683,4.62156215 C17.4059472,4.69110614 17.6475048,4.78609304 17.8210684,4.9608011 C17.9212701,5.05918039 17.9856855,5.18978738 18,5.32717916 L18,5.42046987 C17.9838962,5.55786164 17.9194808,5.68677244 17.8174898,5.78515173 C17.6492942,5.95307501 17.4166831,6.04636572 17.1876507,6.11421351 C16.3484617,6.34998457 15.5074834,6.58236325 14.6665051,6.81813432 L14.6665051,8.09536894 C14.6790303,8.56860727 14.6164043,9.04693418 14.4571552,9.49812198 C14.1493929,10.386928 13.4945034,11.162089 12.6463679,11.6438083 C12.1578847,11.9219842 11.6103542,12.1034771 11.0449305,12.1730211 C10.356044,12.2578308 9.64389638,12.1798058 8.99616415,11.9406424 C8.07824528,11.606492 7.2981037,10.9517609 6.83288166,10.1308026 C6.51080486,9.56766596 6.33903056,8.92989674 6.33545193,8.29043133 L6.33545193,6.81813432 L5.422901,6.56370511 L5.422901,8.0122554 C5.42469032,8.11911567 5.38174674,8.22767213 5.29943823,8.3023047 C5.20281519,8.3972916 5.054302,8.43800027 4.91831402,8.41086116 C4.73580383,8.37863346 4.58729064,8.21749496 4.58729064,8.04109071 L4.58729064,6.33302263 C4.33678646,6.26178245 4.08628229,6.19393466 3.83577811,6.12269448 C3.65326792,6.07011244 3.47254705,6.00226466 3.31508729,5.89540439 C3.20236041,5.81907563 3.10394805,5.71730394 3.04847927,5.59517792 C2.98764254,5.46287473 2.98406391,5.30682482 3.03774337,5.17112924 C3.08963353,5.03882605 3.19162451,4.93026959 3.30971934,4.85054844 C3.49580816,4.72333384 3.71410465,4.65209366 3.93240115,4.59272684 L8.978271,3.18658142 C9.43096783,3.05597443 9.90513645,3.01187336 10.3757264,3 L10.6262306,3 Z M5.28333439,9.02827604 L5.50520952,9.23690799 C5.58930735,9.31493295 5.63582955,9.4268818 5.62867229,9.53883065 C5.62688298,9.65417189 5.5606783,9.76103216 5.47121252,9.83566472 C5.37816811,9.91538588 5.30301686,10.0171576 5.19028998,10.0714358 C5.04893405,10.1392836 4.86821318,10.1206254 4.74475041,10.0273347 C4.67138847,9.96796791 4.60697311,9.89842393 4.53718981,9.83566472 C4.48172102,9.78477888 4.42983087,9.72710826 4.40478045,9.65756428 C4.35110099,9.5218687 4.38330867,9.35903401 4.48708897,9.25386994 L4.68391368,9.06559232 C4.74117178,9.00622551 4.81453372,8.95873205 4.89863155,8.93837772 C5.0310409,8.90784621 5.1813434,8.93837772 5.28333439,9.02827604 Z" id="形状结合" fill="#1E1E1E" fill-rule="nonzero"></path>
                    </g>
                </g>
            </g>
        </g>
    </g>
</svg>