<?xml version="1.0" encoding="UTF-8"?>
<svg width="86px" height="40px" viewBox="0 0 86 40" version="1.1" xmlns="http://www.w3.org/2000/svg" xmlns:xlink="http://www.w3.org/1999/xlink">
    <title>救援队伍</title>
    <defs>
        <linearGradient x1="53.8304822%" y1="103.830482%" x2="53.8304822%" y2="-3.83048222%" id="linearGradient-1">
            <stop stop-color="#BFFF32" offset="0%"></stop>
            <stop stop-color="#E5FFB7" offset="100%"></stop>
        </linearGradient>
    </defs>
    <g id="页面-1" stroke="none" stroke-width="1" fill="none" fill-rule="evenodd">
        <g id="第一部分图标" transform="translate(-318.000000, -378.000000)">
            <g id="救援队伍" transform="translate(318.000000, 378.000000)">
                <polygon id="矩形" fill-opacity="0.84" fill="#0E1726" points="0 -7.82360288e-14 86 -1.86870311e-12 86 36 48.1056366 36 44 40 39.9508209 36 0 36"></polygon>
                <g id="编组-44" transform="translate(4.000000, 4.000000)">
                    <polygon id="矩形" fill="url(#linearGradient-1)" fill-rule="nonzero" points="0 2.19618562e-14 28 2.19618562e-14 28 28 0 28"></polygon>
                    <g id="编组-68" transform="translate(4.000000, 4.000000)">
                        <rect id="矩形" x="0" y="0" width="20" height="20"></rect>
                        <path d="M11.2466558,8.77480166 C11.384518,9.06192359 11.4629259,9.37292304 11.4629259,9.69970925 C11.4629259,10.4464236 11.0653001,11.1159801 10.4360419,11.5820846 C10.3945436,11.6235249 10.348257,11.6667412 10.2931919,11.7121282 C8.94728949,12.824109 10.4234727,13.3247471 10.4234727,13.3247471 C12.6842668,14.0330141 13.9246444,15.1058021 14.2751883,15.443724 L14.363169,15.5317299 C14.3742781,15.5433877 14.3797926,15.5494981 14.3797793,15.5494981 C14.7474784,16.2494442 14.3797793,16.8746004 14.3799788,16.8747977 C14.0126787,17.3499796 12.2603721,18 12.2603721,18 C12.072233,17.8960046 9.22261489,17.8614711 8.27194415,17.8523937 C7.32067487,17.8610764 4.47145578,17.8960046 4.28331674,18 C4.28331674,18 2.53081057,17.3493876 2.1635105,16.8747977 C2.1635105,16.8747977 1.79561188,16.2494442 2.1635105,15.5494981 L2.20106527,15.5101585 C2.42706673,15.2798186 3.67915697,14.0898728 6.12081465,13.3249444 C6.12081465,13.3249444 7.59659882,12.8243064 6.25129496,11.7123255 C6.06814371,11.5613645 5.96399886,11.4362543 5.91531815,11.3314696 C5.46162971,10.8892426 5.18790039,10.3205241 5.18790039,9.69970925 C5.18790042,9.37292304 5.2661088,9.06192359 5.40397101,8.77480166 Z M15.7033364,7.87475826 C15.8407996,8.16207752 15.9192075,8.47307697 15.9192075,8.79966584 C15.9192075,9.54638021 15.5221803,10.2163314 14.8927225,10.6822386 C14.8508252,10.7236788 14.8047381,10.7665004 14.749274,10.8122821 C13.4035711,11.9240656 14.8795548,12.4247037 14.8795548,12.4247037 C17.2314723,13.1613013 18.4789581,14.2921649 18.7698091,14.5806335 L18.8200141,14.6316865 C18.8311334,14.6433443 18.8366595,14.6494547 18.8366595,14.6494547 C19.204159,15.3492034 18.8366595,15.9743596 18.836859,15.973965 C18.4695589,16.4491468 16.7170527,17.0993646 16.7170527,17.0993646 C16.6406399,17.0569376 16.1209133,17.0257587 15.4685118,17.0036573 C16.2017153,13.8934656 11.5100105,12.6751214 11.5100105,12.6751214 C10.9166643,12.5504058 11.0297871,12.3503085 11.0297871,12.3503085 C12.9233477,11.1003907 12.3072572,9.57519107 12.3072572,9.57519107 C14.2732403,9.49467854 14.1305898,8.32389196 14.0015061,7.87475826 Z M8.27274221,3.90024075 C8.51873949,3.90024075 8.71725312,4.13408234 8.71725312,4.42298028 L8.71725312,5.35222923 C8.71725312,5.39485351 8.71206581,5.43550445 8.70388585,5.47516873 L8.89122684,5.47516873 L8.89122684,4.57196795 C8.89122687,4.54059176 8.88643859,4.51079421 8.88224886,4.48060201 C10.4097064,4.75391052 11.5678688,6.0324418 11.5750512,7.57263888 C12.2879046,7.67900227 12.7222404,7.81970188 12.7222404,7.97460959 L12.7180507,7.99651376 C13.0817596,8.07959165 13.2888522,8.17411496 13.2880564,8.27436098 C13.2880564,8.35408415 13.1575738,8.43025534 12.9219511,8.49951981 L3.62014158,8.49951981 C3.38491791,8.4298607 3.25423808,8.35408418 3.25423808,8.27436098 C3.25423808,8.1743123 3.46133069,8.07978899 3.8254386,7.99651376 C3.82344348,7.98921236 3.82104935,7.98191097 3.82104935,7.97460959 C3.82104935,7.81989922 4.25518565,7.67900227 4.9682386,7.57263888 C4.9756205,6.0328365 6.13378288,4.75469987 7.66143996,4.48060201 C7.65645217,4.51099154 7.65226243,4.54078907 7.65246195,4.57196795 L7.65246195,5.47516873 L7.84159856,5.47516873 C7.83301957,5.43550445 7.82803178,5.39485351 7.82803178,5.35222923 L7.82803178,4.42298028 C7.82803178,4.13467433 8.02754298,3.90024075 8.27274221,3.90024075 Z M12.7288243,3 C12.9746221,3 13.1735347,3.23403893 13.1735347,3.52293687 L13.1735347,4.45238316 C13.1735347,4.49461277 13.1683474,4.53565838 13.159968,4.57512532 L13.3471094,4.57512532 L13.3471094,3.67192454 C13.3471094,3.64035101 13.3421217,3.61055346 13.3377324,3.5805586 C14.865988,3.85366977 16.0237514,5.13239839 16.0311333,6.67239814 C16.7439867,6.77876152 17.1785221,6.91946114 17.1785221,7.07436885 C17.1785221,7.08167025 17.1761279,7.08916898 17.1741328,7.09647035 C17.5382407,7.17915359 17.7451338,7.27407155 17.7451338,7.37412023 C17.7451338,7.45384341 17.614454,7.52981726 17.3790308,7.59908173 L13.8536683,7.59908173 C13.4071623,7.13791061 12.3068582,6.72528382 12.3068582,6.72528382 C12.0704374,5.03609907 10.5651256,4.47862863 10.4194825,4.42850564 C10.8901902,3.98869522 11.4802424,3.69404186 12.1175221,3.5805586 C12.1129333,3.6107508 12.1083446,3.64074566 12.1083446,3.67192454 L12.1083446,4.57512532 L12.2974812,4.57512532 C12.2895007,4.53565838 12.2841139,4.49461277 12.2841139,4.45238316 L12.2841139,3.52293687 C12.2841139,3.23443358 12.4834256,3 12.7288243,3 Z" id="形状结合" fill="#1E1E1E" fill-rule="nonzero"></path>
                    </g>
                </g>
            </g>
        </g>
    </g>
</svg>