<?xml version="1.0" encoding="UTF-8"?>
<svg width="86px" height="40px" viewBox="0 0 86 40" version="1.1" xmlns="http://www.w3.org/2000/svg" xmlns:xlink="http://www.w3.org/1999/xlink">
    <title>易涝点</title>
    <defs>
        <linearGradient x1="53.8304822%" y1="103.830482%" x2="53.8304822%" y2="-3.83048222%" id="linearGradient-1">
            <stop stop-color="#FFC326" offset="0%"></stop>
            <stop stop-color="#FFE9AE" offset="100%"></stop>
        </linearGradient>
    </defs>
    <g id="页面-1" stroke="none" stroke-width="1" fill="none" fill-rule="evenodd">
        <g id="第一部分图标" transform="translate(-414.000000, -264.000000)">
            <g id="易涝点" transform="translate(414.000000, 264.000000)">
                <polygon id="矩形" fill-opacity="0.84" fill="#0E1726" points="0 -7.82360288e-14 86 -1.86870311e-12 86 36 48.1056366 36 44 40 39.9508209 36 0 36"></polygon>
                <g id="编组-44" transform="translate(4.000000, 4.000000)">
                    <polygon id="矩形" fill="url(#linearGradient-1)" fill-rule="nonzero" points="0 2.19618562e-14 28 2.19618562e-14 28 28 0 28"></polygon>
                    <g id="编组-68" transform="translate(4.000000, 4.000000)">
                        <rect id="矩形" x="0" y="0" width="20" height="20"></rect>
                        <path d="M18.3308606,15.1632198 C18.3308606,15.1632198 16.49304,16.6140351 14.6687641,16.6140351 C12.9332781,16.6140351 11.8690555,15.1632198 10.3406869,15.1632198 C8.35219885,15.1632198 6.76860435,16.6140351 5.34680622,16.6140351 C3.61273755,16.6140351 1.35161469,14.8005862 1.35161469,14.8005862 C1.10730958,14.5582397 0.942662519,14.2057294 1.01871294,14.0753013 C1.16696454,13.8219368 1.29458493,13.471181 1.68450035,13.7126502 C1.68450035,13.7126502 3.86168107,15.5260991 5.34679012,15.5260991 C6.77161608,15.5260991 8.14670811,14.0752838 10.3406708,14.0752838 C11.8468137,14.0752838 13.0329876,15.5260991 14.668748,15.5260991 C16.6709902,15.5260991 18.3310378,14.0752838 18.3310378,14.0752838 C18.6364312,13.8329374 18.9387969,14.1442524 18.9968252,14.437935 C19.0314038,14.6133129 18.7818322,14.9444536 18.3308284,15.1632198 L18.3308606,15.1632198 Z M16.4805022,13.5291862 C16.3164338,13.7876847 15.5310582,14.2280702 15.1402022,14.2280702 C12.9620364,14.2280702 12.208839,12.4811813 10.1137206,12.4811813 C8.01860219,12.4811813 6.81858953,14.2280702 5.75738902,14.2280702 C4.69618851,14.2280702 4.0812035,13.5291862 4.0812035,13.5291862 L4.0812035,9.68627059 L2.40625,9.68627059 L10.1137044,2 L13.4656377,5.20259303 L13.4656377,3.3975314 L14.805111,3.3975314 L14.805111,6.48364376 L18.15625,9.68623679 L16.480486,9.68623679 L16.4805022,13.5291862 Z M1.68451446,16.0987177 C1.68451446,16.0987177 3.86168884,17.9118985 5.34679356,17.9118985 C6.77161538,17.9118985 8.14670339,16.4613539 10.3406597,16.4613539 C11.8467982,16.4613539 13.0329687,17.9118985 14.6687243,17.9118985 C16.6709607,17.9118985 18.3310034,16.4613539 18.3310034,16.4613539 C18.636396,16.2190175 18.9387607,16.5303196 18.9967889,16.82399 C19.0315767,17.0002554 18.7820058,17.3307157 18.3310034,17.5492448 C18.3310034,17.5492448 16.4933975,19 14.6687243,19 C12.9332434,19 11.8690238,17.5492448 10.3406597,17.5492448 C8.35217743,17.5492448 6.76858754,19 5.34679356,19 C3.61272994,19 1.35161367,17.1866262 1.35161367,17.1866262 C1.10730926,16.9442898 0.942662687,16.5917941 1.01871288,16.4613714 C1.16675468,16.2077893 1.29458408,15.857048 1.68449835,16.0987352 L1.68451446,16.0987177 Z" id="形状" fill="#1E1E1E" fill-rule="nonzero"></path>
                    </g>
                </g>
            </g>
        </g>
    </g>
</svg>