<?xml version="1.0" encoding="UTF-8"?>
<svg width="86px" height="40px" viewBox="0 0 86 40" version="1.1" xmlns="http://www.w3.org/2000/svg" xmlns:xlink="http://www.w3.org/1999/xlink">
    <title>机构</title>
    <defs>
        <linearGradient x1="53.8304822%" y1="103.830482%" x2="53.8304822%" y2="-3.83048222%" id="linearGradient-1">
            <stop stop-color="#68ACFF" offset="0%"></stop>
            <stop stop-color="#C7E0FF" offset="100%"></stop>
        </linearGradient>
    </defs>
    <g id="页面-1" stroke="none" stroke-width="1" fill="none" fill-rule="evenodd">
        <g id="第一部分图标" transform="translate(-318.000000, -621.000000)">
            <g id="机构" transform="translate(318.000000, 621.000000)">
                <polygon id="矩形" fill-opacity="0.84" fill="#0E1726" points="0 -7.82360288e-14 86 -1.86870311e-12 86 36 48.1056366 36 44 40 39.9508209 36 0 36"></polygon>
                <g id="编组-44" transform="translate(4.000000, 4.000000)">
                    <polygon id="矩形" fill="url(#linearGradient-1)" fill-rule="nonzero" points="0 2.19618562e-14 28 2.19618562e-14 28 28 0 28"></polygon>
                    <g id="编组-68" transform="translate(4.000000, 4.000000)">
                        <rect id="矩形" x="0" y="0" width="20" height="20"></rect>
                        <path d="M14.5,16.2222222 L16.3,16.2222222 L16.3,9.11111111 L10.9,9.11111111 L10.9,16.2222222 L12.7,16.2222222 L12.7,10.8888889 L14.5,10.8888889 L14.5,16.2222222 Z M1.9,16.2222222 L1.9,2.88888889 C1.9,2.39796911 2.30294373,2 2.8,2 L15.4,2 C15.8970563,2 16.3,2.39796911 16.3,2.88888889 L16.3,7.33333333 L18.1,7.33333333 L18.1,16.2222222 L19,16.2222222 L19,18 L1,18 L1,16.2222222 L1.9,16.2222222 Z M5.5,9.11111111 L5.5,10.8888889 L7.3,10.8888889 L7.3,9.11111111 L5.5,9.11111111 Z M5.5,12.6666667 L5.5,14.4444444 L7.3,14.4444444 L7.3,12.6666667 L5.5,12.6666667 Z M5.5,5.55555556 L5.5,7.33333333 L7.3,7.33333333 L7.3,5.55555556 L5.5,5.55555556 Z" id="形状" fill="#1E1E1E" fill-rule="nonzero"></path>
                    </g>
                </g>
            </g>
        </g>
    </g>
</svg>