<?xml version="1.0" encoding="UTF-8"?>
<svg width="86px" height="40px" viewBox="0 0 86 40" version="1.1" xmlns="http://www.w3.org/2000/svg" xmlns:xlink="http://www.w3.org/1999/xlink">
    <title>水库</title>
    <defs>
        <linearGradient x1="53.8304822%" y1="103.830482%" x2="53.8304822%" y2="-3.83048222%" id="linearGradient-1">
            <stop stop-color="#68C9FF" offset="0%"></stop>
            <stop stop-color="#CCEDFF" offset="100%"></stop>
        </linearGradient>
    </defs>
    <g id="页面-1" stroke="none" stroke-width="1" fill="none" fill-rule="evenodd">
        <g id="第一部分图标" transform="translate(-126.000000, -378.000000)">
            <g id="水库" transform="translate(126.000000, 378.000000)">
                <polygon id="矩形" fill-opacity="0.84" fill="#0E1726" points="0 -7.82360288e-14 86 -1.86870311e-12 86 36 48.1056366 36 44 40 39.9508209 36 0 36"></polygon>
                <g id="编组-44" transform="translate(4.000000, 4.000000)">
                    <polygon id="矩形" fill="url(#linearGradient-1)" fill-rule="nonzero" points="0 2.19618562e-14 28 2.19618562e-14 28 28 0 28"></polygon>
                    <g id="编组-68" transform="translate(4.000000, 4.000000)">
                        <rect id="矩形" x="0" y="0" width="20" height="20"></rect>
                        <path d="M2.79999548,13.3124768 L17.1999593,13.3124768 L17.1999593,3.93749798 C17.1999593,3.41973214 17.6029021,3 18.0999571,3 C18.5970121,3 18.9999867,3.41973214 18.9999867,3.93749798 L18.9999867,17.0624688 C19.0006403,17.3113269 18.9060396,17.5501983 18.7371084,17.7261683 C18.5681773,17.9021383 18.3388608,18.0006808 18.0999571,18 L1.89999774,18 C1.40294271,18 1,17.5802346 1,17.0624688 L1,3.93749798 C1,3.41973214 1.40294271,3 1.89999774,3 C2.39705277,3 2.79999548,3.41973214 2.79999548,3.93749798 L2.79999548,13.3124768 Z M8.75926624,10.799983 C8.61000603,10.6527018 8.37624207,10.6527018 8.22698186,10.799983 L7.75384019,11.2419464 C7.28424487,11.7072519 6.5468683,11.7072519 6.07727297,11.2419464 L5.6041313,10.799983 C5.45487109,10.6527018 5.22110713,10.6527018 5.07184692,10.799983 L4.45984846,11.3758747 C4.25156327,11.5727492 3.95456401,11.5218565 3.79642155,11.2633749 C3.63937903,10.9998507 3.67661977,10.6584771 3.88642133,10.4383767 L4.49841979,9.86248506 C4.96853346,9.39853253 5.70487334,9.39853253 6.17498701,9.86248506 L6.64684297,10.3031091 C6.79727116,10.4504302 7.03255629,10.4504302 7.18169877,10.3031091 L7.65355473,9.86114578 C8.12340987,9.39651791 8.86026682,9.39651791 9.33012195,9.86114578 L9.80326362,10.3031091 C9.9524061,10.4504302 10.1864055,10.4504302 10.335548,10.3031091 L10.8086897,9.86114578 C11.2785448,9.39651791 12.0154018,9.39651791 12.4852569,9.86114578 L12.9583986,10.3031091 C13.107541,10.4504302 13.3415405,10.4504302 13.4906829,10.3031091 L13.9638246,9.86114578 C14.4339383,9.39719324 15.1702782,9.39719324 15.6403918,9.86114578 L16.1122478,10.3031091 C16.3233704,10.5224243 16.3612222,10.8645118 16.2035333,11.1281073 C16.0466765,11.3879282 15.7483916,11.4361424 15.5401064,11.2406071 L15.0669647,10.7986438 C14.9177045,10.6513625 14.6839405,10.6513625 14.5346803,10.7986438 L14.0602529,11.2406071 C13.5913507,11.706423 12.8538736,11.706423 12.3849714,11.2406071 L11.9118298,10.7986438 C11.7623975,10.6505148 11.5276919,10.6505148 11.3782597,10.7986438 L10.9064037,11.2406071 C10.679497,11.4615536 10.3812851,11.5858087 10.0706915,11.5888206 C9.75947717,11.5850552 9.46071121,11.4609512 9.23240791,11.2406071 L8.75926624,10.799983 Z M8.75926624,6.92275893 C8.61000603,6.77547766 8.37624207,6.77547766 8.22698186,6.92275893 L7.75384019,7.36472227 C7.28424487,7.83002781 6.5468683,7.83002781 6.07727297,7.36472227 L5.6041313,6.92275893 C5.45487109,6.77547766 5.22110713,6.77547766 5.07184692,6.92275893 L4.45984846,7.49865055 C4.25156327,7.69552513 3.95456401,7.64463238 3.79642155,7.38749008 C3.63937903,7.12396586 3.67661977,6.78259228 3.88642133,6.56249185 L4.49841979,5.98660023 C4.96827493,5.52197237 5.70513188,5.52197237 6.17498701,5.98660023 L6.64684297,6.42722429 C6.79727116,6.5745454 7.03255629,6.5745454 7.18169877,6.42722429 L7.65355473,5.98526095 C8.12315005,5.51995541 8.86052663,5.51995541 9.33012195,5.98526095 L9.80326362,6.42722429 C9.9524061,6.5745454 10.1864055,6.5745454 10.335548,6.42722429 L10.8086897,5.98526095 C11.278285,5.51995541 12.0156616,5.51995541 12.4852569,5.98526095 L12.9583986,6.42722429 C13.107541,6.5745454 13.3415405,6.5745454 13.4906829,6.42722429 L13.9638246,5.98526095 C14.4336797,5.52063308 15.1705367,5.52063308 15.6403918,5.98526095 L16.1122478,6.42722429 C16.3233704,6.6465395 16.3612222,6.98862695 16.2035333,7.25222251 C16.0466765,7.5107041 15.7483916,7.56025756 15.5401064,7.36472227 L15.0669647,6.92275893 C14.9177045,6.77547766 14.6839405,6.77547766 14.5346803,6.92275893 L14.0602529,7.36472227 C13.5908291,7.82917912 12.8543952,7.82917912 12.3849714,7.36472227 L11.9118298,6.92275893 C11.7623975,6.77462994 11.5276919,6.77462994 11.3782597,6.92275893 L10.9064037,7.36472227 C10.679497,7.58566882 10.3812851,7.70992385 10.0706915,7.7129358 C9.75957406,7.70866184 9.46097683,7.58462792 9.23240791,7.36472227 L8.75926624,6.92275893 Z" id="形状" fill="#1E1E1E" fill-rule="nonzero"></path>
                    </g>
                </g>
            </g>
        </g>
    </g>
</svg>