<?xml version="1.0" encoding="UTF-8"?>
<svg width="86px" height="40px" viewBox="0 0 86 40" version="1.1" xmlns="http://www.w3.org/2000/svg" xmlns:xlink="http://www.w3.org/1999/xlink">
    <title>森林火灾隐患点</title>
    <defs>
        <linearGradient x1="53.8304822%" y1="103.830482%" x2="53.8304822%" y2="-3.83048222%" id="linearGradient-1">
            <stop stop-color="#FFC326" offset="0%"></stop>
            <stop stop-color="#FFE9AE" offset="100%"></stop>
        </linearGradient>
    </defs>
    <g id="页面-1" stroke="none" stroke-width="1" fill="none" fill-rule="evenodd">
        <g id="第一部分图标" transform="translate(-510.000000, -264.000000)">
            <g id="森林火灾隐患点" transform="translate(510.000000, 264.000000)">
                <polygon id="矩形" fill-opacity="0.84" fill="#0E1726" points="0 -7.82360288e-14 86 -1.86870311e-12 86 36 48.1056366 36 44 40 39.9508209 36 0 36"></polygon>
                <g id="编组-44" transform="translate(4.000000, 4.000000)">
                    <polygon id="矩形" fill="url(#linearGradient-1)" fill-rule="nonzero" points="0 2.19618562e-14 28 2.19618562e-14 28 28 0 28"></polygon>
                    <g id="编组-68" transform="translate(4.000000, 4.000000)">
                        <rect id="矩形" x="0" y="0" width="20" height="20"></rect>
                        <path d="M7.42665759,1 L9.57015268,4.00133929 L8.49840514,4.00133929 L11.7136478,7.75200893 L9.87445243,7.75200893 L13.1432824,11.7497768 L10.4543444,11.7497768 L13.8571429,16.2477679 L8.85437843,16.2477679 L8.85437843,19 L5.99702292,19 L5.99702292,16.2477679 L1,16.2477679 L4.40279845,11.7497768 L1.71386042,11.7497768 L4.97886276,7.75200893 L3.14158125,7.75200893 L6.35682388,4.00133929 L5.28316251,4.00133929 L7.42665759,1 Z M14.2,14.9113573 C15.6235445,15.8619947 17.3337912,16.7139075 18.801422,16.3140288 L18.999,16.251 L18.9995172,18.0216288 C17.6187768,18.2544732 15.1320279,17.171652 14.2,14.9113573 Z M16.1523885,13.3651765 C16.9242038,14.4767719 17.7734607,15.071208 18.7,15.1484847 C17.4372611,15.9133258 16.3039809,15.7508466 15.3256369,14.4767719 C14.7619427,13.5276557 14.0904459,12.9371825 13,12.9371825 C14.1203822,12.2515996 15.1835987,12.2555625 16.1523885,13.3651765 Z M13.6,8.27977839 C13.9495051,9.57882724 17.1355661,11.7194413 18.4,11.7894294 L18.4,13.5152355 C15.9676203,13.192607 14.0154034,10.9086026 13.6,8.27977839 Z M13.3,5.13850416 C14.6967144,5.19773727 15.658746,5.85827619 16.1068725,7.45577522 C16.7580964,9.2022545 17.5112691,10.2505011 18.4,10.3725572 C16.8374788,10.408456 15.6496234,9.75868675 15.0099228,8.10913438 C14.6344568,6.5098404 14.1802485,5.70929594 13.3,5.13850416 Z M16.6722154,4.78947368 C16.8919599,6.03798433 17.660728,7.06364977 18.7,7.494878 L18.7,9.32686981 C17.4457521,8.6618441 16.296915,7.29555149 16.6722154,4.78947368 Z" id="形状结合" fill="#1E1E1E" fill-rule="nonzero"></path>
                    </g>
                </g>
            </g>
        </g>
    </g>
</svg>