<?xml version="1.0" encoding="UTF-8"?>
<svg width="86px" height="40px" viewBox="0 0 86 40" version="1.1" xmlns="http://www.w3.org/2000/svg" xmlns:xlink="http://www.w3.org/1999/xlink">
    <title>应急物资储备库</title>
    <defs>
        <linearGradient x1="53.8304822%" y1="103.830482%" x2="53.8304822%" y2="-3.83048222%" id="linearGradient-1">
            <stop stop-color="#60FB34" offset="0%"></stop>
            <stop stop-color="#D1FFB7" offset="100%"></stop>
        </linearGradient>
    </defs>
    <g id="页面-1" stroke="none" stroke-width="1" fill="none" fill-rule="evenodd">
        <g id="第一部分图标" transform="translate(-126.000000, -160.000000)">
            <g id="应急物资储备库" transform="translate(126.000000, 160.000000)">
                <polygon id="矩形" fill-opacity="0.84" fill="#0E1726" points="0 -7.82360288e-14 86 -1.86870311e-12 86 36 48.1056366 36 44 40 39.9508209 36 0 36"></polygon>
                <g id="编组-44" transform="translate(4.000000, 4.000000)">
                    <polygon id="矩形" fill="url(#linearGradient-1)" fill-rule="nonzero" points="0 2.19618562e-14 28 2.19618562e-14 28 28 0 28"></polygon>
                    <g id="编组-68" transform="translate(4.000000, 4.000000)">
                        <rect id="矩形" x="0" y="0" width="20" height="20"></rect>
                        <path d="M10.487845,2 L18.9891025,7.36694425 L18.9891025,7.90861191 C18.9952049,7.94269168 18.9988466,7.9771604 19,8.01175502 L19,8.51083454 C19,8.68732004 18.9293458,8.85657715 18.8035805,8.98137124 C18.6778152,9.10616533 18.5072409,9.17627392 18.3293819,9.17627391 C18.2940068,9.17627391 18.2596376,9.17061767 18.2256038,9.16579324 L18.0851093,9.16579324 L18.0851093,15.1304591 C18.0941386,15.3021323 18.0876227,15.4744739 18.0636495,15.6448437 L18.0616377,16.6900826 C18.0616377,16.6900826 18.0301186,17.7814032 16.8077496,18 L16.5022831,18 L16.5022831,11.314497 L4.49754928,11.314497 L4.49754928,17.9998336 L4.19208276,17.9998336 C2.96971371,17.7812368 2.93819465,16.6899162 2.93819465,16.6899162 L2.93635045,15.6446773 C2.9210939,15.5327172 2.91187289,15.4136035 2.91187289,15.2896654 C2.91187289,15.2355985 2.91371709,15.1825297 2.91505832,15.1302927 L2.91505832,9.18941635 L2.90365783,9.16562688 L2.77439621,9.16562688 C2.74036233,9.17095039 2.70666376,9.17610755 2.67061804,9.17610755 C2.30024593,9.17610755 2,8.8781802 2,8.51066818 L2,8.01158865 C2,7.97615402 2.0055326,7.94238295 2.01056224,7.90861191 L2.01056224,7.36694425 L10.487845,2 Z M15.6700461,15.3696845 L15.6700461,16.4094335 L5.29642303,16.4094335 L5.29642303,15.3696845 L15.6700461,15.3696845 Z M15.6490892,13.6644961 L15.6490892,14.7042451 L5.27546624,14.7042451 L5.27546624,13.6644961 L15.6490892,13.6644961 Z M15.6700461,11.9593077 L15.6700461,12.9990568 L5.29642303,12.9990568 L5.29642303,11.9593077 L15.6700461,11.9593077 Z M6.79056006,7.45361773 L5.23975581,7.45361773 C4.89287865,7.45361773 4.6110514,7.73310228 4.6110514,8.07746716 C4.61114395,8.42197162 4.89257029,8.70122473 5.23975581,8.70131656 L6.79056006,8.70131656 C7.13773676,8.70125037 7.41914371,8.42196286 7.41914371,8.07746715 C7.41914371,7.73297143 7.13773676,7.45368392 6.79056006,7.45361773 Z M11.3591455,7.45361773 L9.8083413,7.45361773 C9.46146413,7.45361773 9.17963689,7.73310228 9.17963689,8.07746716 C9.17972943,8.42197162 9.46115578,8.70122473 9.8083413,8.70131656 L11.3591455,8.70131656 C11.7063222,8.70125037 11.9877292,8.42196286 11.9877292,8.07746715 C11.9877292,7.73297143 11.7063222,7.45368392 11.3591455,7.45361773 Z M15.7600765,7.45361773 L14.2092723,7.45361773 C13.8623951,7.45361773 13.5805678,7.73310228 13.5805678,8.07746716 C13.5806604,8.42197163 13.8620868,8.70122474 14.2092723,8.70131656 L15.7600765,8.70131656 C16.1072532,8.70125037 16.3886602,8.42196286 16.3886602,8.07746715 C16.3886602,7.73297143 16.1072532,7.45368392 15.7600765,7.45361773 Z" id="形状结合" fill="#1E1E1E" fill-rule="nonzero"></path>
                    </g>
                </g>
            </g>
        </g>
    </g>
</svg>