<?xml version="1.0" encoding="UTF-8"?>
<svg width="86px" height="40px" viewBox="0 0 86 40" version="1.1" xmlns="http://www.w3.org/2000/svg" xmlns:xlink="http://www.w3.org/1999/xlink">
    <title>现场人员</title>
    <defs>
        <linearGradient x1="53.8304822%" y1="103.830482%" x2="53.8304822%" y2="-3.83048222%" id="linearGradient-1">
            <stop stop-color="#71F8FC" offset="0%"></stop>
            <stop stop-color="#EFFFFF" offset="100%"></stop>
        </linearGradient>
    </defs>
    <g id="页面-1" stroke="none" stroke-width="1" fill="none" fill-rule="evenodd">
        <g id="第一部分图标" transform="translate(-414.000000, -621.000000)">
            <g id="现场人员" transform="translate(414.000000, 621.000000)">
                <polygon id="矩形" fill-opacity="0.84" fill="#0E1726" points="0 -7.82360288e-14 86 -1.86870311e-12 86 36 48.1056366 36 44 40 39.9508209 36 0 36"></polygon>
                <g id="编组-44" transform="translate(4.000000, 4.000000)">
                    <polygon id="矩形" fill="url(#linearGradient-1)" fill-rule="nonzero" points="0 2.19618562e-14 28 2.19618562e-14 28 28 0 28"></polygon>
                    <g id="编组-68" transform="translate(4.000000, 4.000000)">
                        <rect id="矩形" x="0" y="0" width="20" height="20"></rect>
                        <path d="M9.66662331,12.327934 L9.66662331,18.6835856 L3,18.6835856 C3,15.1734562 5.98474892,12.327934 9.66662331,12.327934 L9.66662331,12.327934 Z M9.66662331,11.5334775 C6.90414128,11.5334775 4.66665583,9.40036192 4.66665583,6.76673876 C4.66665583,4.13311559 6.90414128,2 9.66662331,2 C12.4291053,2 14.6665908,4.13311559 14.6665908,6.76673876 C14.6665908,9.40036192 12.4291053,11.5334775 9.66662331,11.5334775 Z M17.0232421,17.7524827 L14.6665908,20 L12.3099395,17.7524827 C11.3564103,16.8437064 11.0710418,15.4767915 11.5869161,14.2892016 C12.1027904,13.1016116 13.3183005,12.3272554 14.6665908,12.3272554 C16.0148811,12.3272554 17.2303912,13.1016116 17.7462655,14.2892016 C18.2621398,15.4767915 17.9767713,16.8437064 17.0232421,17.7524827 L17.0232421,17.7524827 Z M14.6665908,14.7113033 C14.2063565,14.7113033 13.8332629,15.0669936 13.8332629,15.5057598 C13.8332629,15.944526 14.2063565,16.3002163 14.6665908,16.3002163 C15.1268251,16.3002163 15.4999187,15.944526 15.4999187,15.5057598 C15.4999187,15.0669936 15.1268251,14.7113033 14.6665908,14.7113033 Z" id="形状" fill="#1E1E1E" fill-rule="nonzero"></path>
                    </g>
                </g>
            </g>
        </g>
    </g>
</svg>