<?xml version="1.0" encoding="UTF-8"?>
<svg width="86px" height="40px" viewBox="0 0 86 40" version="1.1" xmlns="http://www.w3.org/2000/svg" xmlns:xlink="http://www.w3.org/1999/xlink">
    <title>监控视频</title>
    <defs>
        <linearGradient x1="53.8304822%" y1="103.830482%" x2="53.8304822%" y2="-3.21822077%" id="linearGradient-1">
            <stop stop-color="#36CEF2" offset="0%"></stop>
            <stop stop-color="#DCF8FF" offset="100%"></stop>
        </linearGradient>
    </defs>
    <g id="页面-1" stroke="none" stroke-width="1" fill="none" fill-rule="evenodd">
        <g id="第一部分图标" transform="translate(-414.000000, -378.000000)">
            <g id="监控视频" transform="translate(414.000000, 378.000000)">
                <polygon id="矩形" fill-opacity="0.84" fill="#0E1726" points="0 -7.82360288e-14 86 -1.86870311e-12 86 36 48.1056366 36 44 40 39.9508209 36 0 36"></polygon>
                <g id="编组-44" transform="translate(4.000000, 4.000000)">
                    <polygon id="矩形" fill="url(#linearGradient-1)" fill-rule="nonzero" points="0 2.19618562e-14 28 2.19618562e-14 28 28 0 28"></polygon>
                    <g id="编组-68" transform="translate(4.000000, 4.000000)">
                        <rect id="矩形" x="0" y="0" width="20" height="20"></rect>
                        <path d="M4.81143481,13.1071652 C4.64794448,13.2648079 4.42143117,13.3541919 4.18439538,13.3545517 L2.82951334,13.3545517 L2.82951334,11.0313393 L1,10.4503177 L1,18 L2.82951334,17.4189784 L2.82951334,15.0957146 L4.07206224,15.0957146 C4.86522262,15.0957146 5.62524837,14.7955921 6.18579464,14.2618582 L6.6683178,13.8019342 L5.37421991,12.5703474 L4.81143481,13.1071652 Z M12.2164106,16.2221378 L2.67016483,7.133396 L1.23283799,7.68069939 L10.7467327,16.7389098 C11.0974449,17.0772222 11.5937369,17.2544996 12.1009991,17.2225804 C12.6084292,17.1904556 13.0737134,16.9527323 13.3705818,16.5736599 L14.0276775,15.7566626 L12.4444351,16.272458 C12.3642291,16.2979522 12.2752358,16.2783176 12.2164106,16.2221378 L12.2164106,16.2221378 Z M3.58707637,6.45533192 L12.5017491,14.9429035 C12.8858758,15.3083549 13.4394817,15.4609091 13.9690202,15.3450543 L19,13.2925124 L7.59228164,2.43109972 C7.46612375,2.31067035 7.30302521,2.22873932 7.12464669,2.19620335 L6.09417065,2.01409442 C5.80295525,1.96331157 5.50390395,2.05161616 5.29966697,2.24899078 L3.20994599,4.23856814 C3.00817172,4.43249899 2.87524137,4.67865188 2.82951334,4.94366843 L2.76413959,5.31955402 C2.72065038,5.56267433 2.8043825,5.811243 3.58707637,6.45533192 L3.58707637,6.45533192 Z" id="Fill-1" fill="#1E1E1E" fill-rule="nonzero"></path>
                    </g>
                </g>
            </g>
        </g>
    </g>
</svg>