<?xml version="1.0" encoding="UTF-8"?>
<svg width="86px" height="40px" viewBox="0 0 86 40" version="1.1" xmlns="http://www.w3.org/2000/svg" xmlns:xlink="http://www.w3.org/1999/xlink">
    <title>突发事件</title>
    <defs>
        <linearGradient x1="50%" y1="0%" x2="50%" y2="100%" id="linearGradient-1">
            <stop stop-color="#FF8F8F" offset="0%"></stop>
            <stop stop-color="#FF2E2E" offset="100%"></stop>
        </linearGradient>
    </defs>
    <g id="页面-1" stroke="none" stroke-width="1" fill="none" fill-rule="evenodd">
        <g id="第一部分图标" transform="translate(-30.000000, -495.000000)">
            <g id="突发事件" transform="translate(30.000000, 495.000000)">
                <polygon id="矩形" fill-opacity="0.84" fill="#0E1726" points="0 -7.82360288e-14 86 -1.86870311e-12 86 36 48.1056366 36 44 40 39.9508209 36 0 36"></polygon>
                <g id="编组-44" transform="translate(4.000000, 4.000000)">
                    <polygon id="矩形" fill="url(#linearGradient-1)" fill-rule="nonzero" points="0 2.19618562e-14 28 2.19618562e-14 28 28 0 28"></polygon>
                    <g id="编组-68" transform="translate(4.000000, 4.000000)">
                        <rect id="矩形" x="0" y="0" width="20" height="20"></rect>
                        <path d="M10.4787955,4.375 C14.2999149,4.375 17.3975443,7.39707794 17.3975443,11.125 L17.3975443,16.75 C18.0343975,16.75 18.5506691,17.2536797 18.5506691,17.875 C18.5506691,18.4963203 18.0343975,19 17.3975443,19 L3.56004665,19 C2.92319341,19 2.40692185,18.4963203 2.40692185,17.875 C2.40692185,17.2536797 2.92319341,16.75 3.56004665,16.75 L3.56004665,11.125 C3.56004665,7.39707794 6.65767601,4.375 10.4787955,4.375 Z M10.452082,8.35498203 L10.4171286,8.40300531 L8.18861554,12.9629313 C8.14608669,13.0528298 8.19215961,13.1542537 8.27761115,13.1855645 L8.33321373,13.1952842 L10.2342544,13.1911351 L10.2385073,16.0125634 C10.2385073,16.1614145 10.4110815,16.221318 10.5055089,16.1311224 L10.5404623,16.0830991 L12.7689754,11.5231731 C12.8115043,11.4332746 12.7654313,11.3318507 12.6799798,11.30054 L12.6243772,11.2908202 L10.7233365,11.2949693 L10.7190836,8.47354104 C10.7190836,8.32468993 10.5465094,8.26478644 10.452082,8.35498203 Z M3.42077449,4.83453233 L3.86244691,5.19610036 C4.22834033,5.49563313 4.27606583,6.02783316 3.9690448,6.38480241 C3.66202377,6.74177165 3.11651883,6.78833312 2.75062541,6.48880036 L2.30895299,6.12723233 C1.94305957,5.82769957 1.89533407,5.29549953 2.2023551,4.93853029 C2.50937613,4.58156104 3.05488107,4.53499957 3.42077449,4.83453233 Z M18.7976449,4.93853029 C19.0767549,5.26304778 19.062686,5.73238411 18.7829202,6.04007943 L18.691047,6.12723233 L18.2493746,6.48880036 C17.8834812,6.78833312 17.3379762,6.74177165 17.0309552,6.38480241 C16.7518452,6.06028491 16.7659141,5.59094858 17.0456799,5.28325327 L17.1375531,5.19610036 L17.5792255,4.83453233 C17.9451189,4.53499957 18.4906239,4.58156104 18.7976449,4.93853029 Z M6.83079911,2.35318178 L7.07446491,2.86297991 C7.27632427,3.28531051 7.08903791,3.78732527 6.65614912,3.98426127 C6.22326033,4.18119726 5.70869528,3.99847883 5.50683592,3.57614823 L5.26317012,3.0663501 C5.06131077,2.6440195 5.24859713,2.14200474 5.68148592,1.94506875 C6.11437471,1.74813275 6.62893975,1.93085118 6.83079911,2.35318178 Z M15.3507101,1.94506875 C15.7475249,2.12559341 15.9379653,2.56246898 15.8114666,2.95933003 L15.7690259,3.0663501 L15.5253601,3.57614823 C15.3235008,3.99847883 14.8089357,4.18119726 14.3760469,3.98426127 C13.9792322,3.80373661 13.7887917,3.36686104 13.9152904,2.96999999 L13.9577311,2.86297991 L14.2013969,2.35318178 C14.4032563,1.93085118 14.9178213,1.74813275 15.3507101,1.94506875 Z M10.4787955,1 C10.9564354,1 11.3436391,1.37775974 11.3436391,1.84375 L11.3436391,2.40625 C11.3436391,2.87224026 10.9564354,3.25 10.4787955,3.25 C10.0011555,3.25 9.61395187,2.87224026 9.61395187,2.40625 L9.61395187,1.84375 C9.61395187,1.37775974 10.0011555,1 10.4787955,1 Z" id="形状结合" fill="#FFFFFF" fill-rule="nonzero"></path>
                    </g>
                </g>
            </g>
        </g>
    </g>
</svg>