<?xml version="1.0" encoding="UTF-8"?>
<svg width="86px" height="40px" viewBox="0 0 86 40" version="1.1" xmlns="http://www.w3.org/2000/svg" xmlns:xlink="http://www.w3.org/1999/xlink">
    <title>车辆</title>
    <defs>
        <linearGradient x1="53.8304822%" y1="103.830482%" x2="53.8304822%" y2="-3.83048222%" id="linearGradient-1">
            <stop stop-color="#46F368" offset="0%"></stop>
            <stop stop-color="#C7FFD2" offset="100%"></stop>
        </linearGradient>
    </defs>
    <g id="页面-1" stroke="none" stroke-width="1" fill="none" fill-rule="evenodd">
        <g id="第一部分图标" transform="translate(-25.000000, -714.000000)">
            <g id="车辆" transform="translate(25.000000, 714.000000)">
                <polygon id="矩形" fill-opacity="0.84" fill="#0E1726" points="0 -7.82360288e-14 86 -1.86870311e-12 86 36 48.1056366 36 44 40 39.9508209 36 0 36"></polygon>
                <g id="编组-44" transform="translate(4.000000, 4.000000)" fill-rule="nonzero">
                    <polygon id="矩形" fill="url(#linearGradient-1)" points="0 2.19618562e-14 28 2.19618562e-14 28 28 0 28"></polygon>
                    <path d="M22.0192308,18.8333333 L20.7115385,18.8333333 C20.5576923,17.5333333 19.4807692,16.5287879 18.1730769,16.5287879 C16.8653846,16.5287879 15.7884615,17.5333333 15.6346154,18.8333333 L14.6538462,18.8333333 C14.1153846,18.8333333 13.6923077,18.4 13.6923077,17.8484848 L13.6923077,8.98484848 C13.6923077,8.43333333 14.1153846,8 14.6538462,8 L22.0384615,8 C22.5769231,8 23,8.43333333 23,8.98484848 L23,17.8681818 C22.9807692,18.4 22.5384615,18.8333333 22.0192308,18.8333333 L22.0192308,18.8333333 Z M12.0576923,18.8333333 L11.3846154,18.8333333 C11.2307692,17.5333333 10.1538462,16.5287879 8.84615385,16.5287879 C7.53846154,16.5287879 6.46153846,17.5333333 6.30769231,18.8333333 L5.63461538,18.8333333 C5.28846154,18.8333333 5,18.5378788 5,18.1833333 L5,14.5590909 C5,13.2393939 7.19230769,9.95 8.21153846,9.95 L12.0576923,9.95 C12.4038462,9.95 12.6923077,10.2454545 12.6923077,10.6 L12.6923077,18.1636364 C12.6923077,18.5575758 12.4038462,18.8333333 12.0576923,18.8333333 L12.0576923,18.8333333 Z M10.7692308,11.6045455 C10.7692308,11.6045455 9.75,11.5651515 8.53846154,11.6045455 C8.01923077,11.6242424 6.59615385,13.5545455 6.59615385,14.5590909 L6.59615385,14.8939394 L10.7692308,14.8939394 L10.7692308,11.6045455 Z M8.84615385,17.5333333 C9.73076923,17.5333333 10.4423077,18.2621212 10.4423077,19.1681818 C10.4423077,20.0742424 9.73076923,20.8030303 8.84615385,20.8030303 C7.96153846,20.8030303 7.25,20.0742424 7.25,19.1681818 C7.25,18.2621212 7.96153846,17.5333333 8.84615385,17.5333333 L8.84615385,17.5333333 Z M18.2307692,17.5333333 C19.1538462,17.5333333 19.9230769,18.3015152 19.9230769,19.2666667 C19.9230769,20.2121212 19.1730769,21 18.2307692,21 C17.3076923,21 16.5384615,20.2318182 16.5384615,19.2666667 C16.5576923,18.3015152 17.3076923,17.5333333 18.2307692,17.5333333 Z" id="形状" fill="#1E1E1E" transform="translate(14.000000, 14.500000) scale(-1, 1) translate(-14.000000, -14.500000) "></path>
                </g>
            </g>
        </g>
    </g>
</svg>