<?xml version="1.0" encoding="UTF-8"?>
<svg width="86px" height="40px" viewBox="0 0 86 40" version="1.1" xmlns="http://www.w3.org/2000/svg" xmlns:xlink="http://www.w3.org/1999/xlink">
    <title>避难场所</title>
    <defs>
        <linearGradient x1="53.8304822%" y1="103.830482%" x2="53.8304822%" y2="-3.83048222%" id="linearGradient-1">
            <stop stop-color="#46F368" offset="0%"></stop>
            <stop stop-color="#C7FFD2" offset="100%"></stop>
        </linearGradient>
    </defs>
    <g id="页面-1" stroke="none" stroke-width="1" fill="none" fill-rule="evenodd">
        <g id="第一部分图标" transform="translate(-30.000000, -160.000000)">
            <g id="避难场所" transform="translate(30.000000, 160.000000)">
                <polygon id="矩形" fill-opacity="0.84" fill="#0E1726" points="0 -7.82360288e-14 86 -1.86870311e-12 86 36 48.1056366 36 44 40 39.9508209 36 0 36"></polygon>
                <g id="编组-44" transform="translate(4.000000, 4.000000)">
                    <polygon id="矩形" fill="url(#linearGradient-1)" fill-rule="nonzero" points="0 2.19618562e-14 28 2.19618562e-14 28 28 0 28"></polygon>
                    <g id="编组-68" transform="translate(4.000000, 4.000000)">
                        <rect id="矩形" x="0" y="0" width="20" height="20"></rect>
                        <path d="M10.5,2 L19,8.84722222 L17.5833333,9.08333333 L17.5833333,17.2 C17.5833333,18.1941125 16.7774459,19 15.7833333,19 L5.21666667,19 C4.22255412,19 3.41666667,18.1941125 3.41666667,17.2 L3.41666667,9.08333333 L2,8.84722222 L10.5,2 Z M11.3491644,9.70877864 C10.3965686,9.45496618 9.39676507,9.45496618 8.44416924,9.70877864 C7.65148918,10.3057174 6.9839346,11.0607457 6.48136084,11.9287856 C6.06400987,12.585828 7.0265316,13.2090228 7.57267069,12.5260969 C7.95376544,12.0425788 8.30715873,11.5366631 8.63105726,11.0109172 C8.70834508,10.8334115 8.89491513,10.7346137 9.08036318,10.7729882 C9.08383795,11.1195682 9.01791586,11.463177 8.88669683,11.7824443 C8.66475552,12.305757 8.47079993,12.841149 8.3056978,13.3862251 C8.19967156,13.7664517 8.03629801,14.1272308 7.82153194,14.4554123 C7.27405241,14.3151089 6.7455347,14.1057912 6.2479929,13.8322175 C6.00130871,13.7246952 5.71616717,13.7766555 5.52045754,13.9647936 C5.32474791,14.1529317 5.2552032,14.4419357 5.34301501,14.702184 C5.43082681,14.9624323 5.65951362,15.1450785 5.92650677,15.1682038 C5.92650677,15.1682038 7.91352346,16.2961266 8.59135566,16.1477943 C9.13362142,16.0293276 9.65167889,14.30708 9.9082868,14.2473489 C10.3823263,14.2269792 10.8546261,14.3182346 11.2891278,14.5141479 C11.3501327,14.6336102 11.9311318,16.6525223 11.9311318,16.6525223 C11.9311318,16.6525223 11.9659917,17.2767126 12.8026303,17.0686492 C13.6392689,16.8605858 13.3487694,16.2961266 13.3487694,16.2961266 C13.3487694,16.2961266 13.194391,15.6917883 13.026309,15.0351464 L12.9341145,14.675109 C12.7810103,14.0774614 12.6377192,13.5195381 12.6099323,13.4160907 C12.0698857,13.0538495 11.4532757,12.8299115 10.8117403,12.7630303 C10.9753884,12.2583023 11.2959062,11.5156453 11.3927393,11.2488462 C11.5534824,11.2787118 12.0996215,12.10997 12.5489274,11.9915033 C12.9982333,11.8730365 14.6356822,11.5465064 14.6356822,11.5465064 C14.6356822,11.5465064 15.4064743,11.4011606 15.180853,10.7749793 C15.0361475,10.4135221 14.6341346,10.24072 14.2822412,10.388718 C13.8166038,10.5524568 13.3294474,10.642419 12.8374902,10.655517 C12.4576032,10.1785499 11.9338819,9.84540571 11.3491644,9.70877864 Z M11.2272222,6.72222222 C10.5387072,6.72222222 9.98055556,7.2803739 9.98055556,7.96888889 C9.98055556,8.65740388 10.5387072,9.21555556 11.2272222,9.21555556 C11.9157372,9.21555556 12.4738889,8.65740388 12.4738889,7.96888889 C12.4738889,7.2803739 11.9157372,6.72222222 11.2272222,6.72222222 Z" id="形状结合" fill="#1E1E1E" fill-rule="nonzero"></path>
                    </g>
                </g>
            </g>
        </g>
    </g>
</svg>