<?xml version="1.0" encoding="UTF-8"?>
<svg width="86px" height="40px" viewBox="0 0 86 40" version="1.1" xmlns="http://www.w3.org/2000/svg" xmlns:xlink="http://www.w3.org/1999/xlink">
    <title>危险源</title>
    <defs>
        <linearGradient x1="53.8304822%" y1="103.830482%" x2="53.8304822%" y2="-3.83048222%" id="linearGradient-1">
            <stop stop-color="#C360FD" offset="0%"></stop>
            <stop stop-color="#E9D5FF" offset="100%"></stop>
        </linearGradient>
    </defs>
    <g id="页面-1" stroke="none" stroke-width="1" fill="none" fill-rule="evenodd">
        <g id="第一部分图标" transform="translate(-318.000000, -68.000000)">
            <g id="危险源" transform="translate(318.000000, 68.000000)">
                <polygon id="矩形" fill-opacity="0.84" fill="#0E1726" points="0 -7.82360288e-14 86 -1.86870311e-12 86 36 48.1056366 36 44 40 39.9508209 36 0 36"></polygon>
                <g id="编组-44" transform="translate(4.000000, 4.000000)">
                    <polygon id="矩形" fill="url(#linearGradient-1)" fill-rule="nonzero" points="0 2.19618562e-14 28 2.19618562e-14 28 28 0 28"></polygon>
                    <g id="编组-68" transform="translate(4.000000, 4.000000)">
                        <rect id="矩形" x="0" y="0" width="20" height="20"></rect>
                        <path d="M15.2912388,14.9036017 C15.6344542,14.1844499 16.492493,13.8848033 17.1789239,14.1844499 C17.8653549,14.5440258 18.2085704,15.3830362 17.8653549,16.102188 C17.6937472,16.5216932 17.2933291,16.8213398 16.892911,16.8812692 C17.1217213,17.2408451 17.1217213,17.7202796 16.9501136,18.1397848 C16.6068981,18.8589366 15.7488594,19.1585832 15.0624284,18.8589366 C14.3759975,18.4993607 14.032782,17.6603503 14.3759975,16.9411985 C14.4332,16.8812692 14.4904026,16.7614105 14.5476052,16.7014812 L9.97139871,14.6039551 L5.4523948,16.7014812 C5.50959738,16.7614105 5.56679996,16.8812692 5.62400255,16.9411985 C5.96721803,17.6603503 5.62400255,18.4993607 4.93757157,18.8589366 C4.2511406,19.2185125 3.39310188,18.8589366 3.0498864,18.1397848 C2.87827865,17.7202796 2.87827865,17.2408451 3.10708898,16.8812692 C2.70667091,16.8213398 2.30625284,16.5216932 2.1346451,16.102188 C1.79142961,15.3830362 2.1346451,14.5440258 2.82107607,14.1844499 C3.50750704,13.824874 4.36554576,14.1844499 4.70876125,14.9036017 C4.76596383,14.963531 4.76596383,15.0833896 4.82316641,15.1433189 L8.02651095,13.645086 L4.82316641,12.1468531 C4.82316641,12.2067824 4.76596383,12.326641 4.70876125,12.3865703 C4.36554576,13.1057221 3.50750704,13.4053687 2.82107607,13.1057221 C2.1346451,12.7461462 1.79142961,11.9071358 2.1346451,11.187984 C2.30625284,10.7684788 2.70667091,10.4688322 3.10708898,10.4089029 C2.87827865,10.049327 2.87827865,9.56989241 3.0498864,9.15038719 C3.39310188,8.43123538 4.2511406,8.13158879 4.93757157,8.43123538 C5.62400255,8.79081128 5.96721803,9.62982173 5.62400255,10.3489735 C5.56679996,10.4089029 5.50959738,10.5287615 5.4523948,10.5886908 L9.97139871,12.6862169 L14.4904026,10.5886908 C14.4332,10.5287615 14.3759975,10.4089029 14.3187949,10.3489735 C13.9755794,9.62982173 14.3187949,8.79081128 15.0052258,8.43123538 C15.6916568,8.07165947 16.5496955,8.43123538 16.892911,9.15038719 C17.0645188,9.56989241 17.0645188,10.049327 16.8357084,10.4089029 C17.2361265,10.4688322 17.6365446,10.7684788 17.8081523,11.187984 C18.1513678,11.9071358 17.8081523,12.7461462 17.1217213,13.1057221 C16.4352904,13.4652981 15.5772517,13.1057221 15.2340362,12.3865703 C15.1768336,12.326641 15.1768336,12.2067824 15.119631,12.1468531 L11.9162865,13.645086 L15.119631,15.1433189 C15.2340362,15.0833896 15.2340362,14.963531 15.2912388,14.9036017 L15.2912388,14.9036017 Z M13.2891484,8.13158879 L13.2891484,9.45003377 C13.2891484,10.1691856 12.7171226,10.7085494 12.0306916,10.7085494 C11.6874761,10.7085494 11.3442607,10.5886908 11.1154503,10.2890442 C10.9438426,10.7684788 10.4862219,11.1280547 9.91419613,11.1280547 C9.3993729,11.1280547 8.94175225,10.7684788 8.71294193,10.2890442 C8.4841316,10.5287615 8.14091611,10.7085494 7.79770063,10.7085494 C7.11126965,10.7085494 6.53924384,10.1691856 6.53924384,9.45003377 L6.53924384,8.13158879 C5.73840771,7.35250766 5.28078706,6.33370926 5.28078706,5.25498155 C5.28078706,2.91773816 7.34007998,1 9.91419613,1 C12.4311097,1 14.5476052,2.91773816 14.5476052,5.25498155 C14.5476052,6.33370926 14.032782,7.35250766 13.2891484,8.13158879 Z M7.91210579,3.21738475 C7.11126965,3.21738475 6.48204126,3.87660724 6.48204126,4.65568837 C6.48204126,5.4347695 7.11126965,6.09399199 7.91210579,6.09399199 C8.71294193,6.09399199 9.34217032,5.4347695 9.34217032,4.65568837 C9.34217032,3.87660724 8.71294193,3.21738475 7.91210579,3.21738475 Z M9.62818322,7.17271971 L8.99895483,8.43123538 C8.88454967,8.73088196 8.99895483,8.97059923 9.28496774,8.97059923 L10.4290194,8.97059923 C10.7150323,8.97059923 10.88664,8.73088196 10.7150323,8.43123538 L10.0858039,7.17271971 C10.0286013,6.87307312 9.79979097,6.87307312 9.62818322,7.17271971 Z M11.9162865,3.21738475 C11.1154503,3.21738475 10.4862219,3.87660724 10.4862219,4.65568837 C10.4862219,5.4347695 11.1154503,6.09399199 11.9162865,6.09399199 C12.7171226,6.09399199 13.346351,5.4347695 13.346351,4.65568837 C13.346351,3.87660724 12.65992,3.21738475 11.9162865,3.21738475 Z" id="形状" fill="#1E1E1E" fill-rule="nonzero"></path>
                    </g>
                </g>
            </g>
        </g>
    </g>
</svg>