<?xml version="1.0" encoding="UTF-8"?>
<svg width="86px" height="40px" viewBox="0 0 86 40" version="1.1" xmlns="http://www.w3.org/2000/svg" xmlns:xlink="http://www.w3.org/1999/xlink">
    <title>重大基础设施</title>
    <defs>
        <linearGradient x1="50%" y1="0%" x2="50%" y2="100%" id="linearGradient-1">
            <stop stop-color="#FF8F8F" offset="0%"></stop>
            <stop stop-color="#FF2E2E" offset="100%"></stop>
        </linearGradient>
    </defs>
    <g id="页面-1" stroke="none" stroke-width="1" fill="none" fill-rule="evenodd">
        <g id="第一部分图标" transform="translate(-321.000000, -714.000000)">
            <g id="重大基础设施" transform="translate(321.000000, 714.000000)">
                <polygon id="矩形" fill-opacity="0.84" fill="#0E1726" points="0 -7.82360288e-14 86 -1.86870311e-12 86 36 48.1056366 36 44 40 39.9508209 36 0 36"></polygon>
                <g id="编组-44" transform="translate(4.000000, 4.000000)" fill-rule="nonzero">
                    <polygon id="矩形" fill="url(#linearGradient-1)" points="0 2.19618562e-14 28 2.19618562e-14 28 28 0 28"></polygon>
                    <path d="M13.8682304,7 C15.2623987,7.00321448 16.3929338,8.03506327 16.397684,9.30799823 L16.397684,10.4609259 L20.1906768,10.4609259 C21.5860327,10.4641403 22.7153803,11.4949176 22.7201304,12.7678526 L22.7201304,20.8458464 L23.3519001,20.8458464 C23.5821948,20.8410137 23.7970844,20.9498721 23.9124175,21.1297923 C24.0291942,21.3109551 24.0291942,21.5347368 23.9124175,21.7158996 C23.7970844,21.8958199 23.5821948,22.0046783 23.3519001,21.9998455 L5.64809992,21.9998455 C5.41780522,22.0046783 5.20291563,21.8958199 5.0875825,21.7158996 C4.97080583,21.5347368 4.97080583,21.3109551 5.0875825,21.1297923 C5.20291563,20.9498721 5.41780522,20.8410137 5.64809992,20.8458464 L6.28105709,20.8458464 L6.28105709,9.30692674 C6.2846197,8.03506327 7.4139673,7.00321448 8.8105107,7 L13.8682304,7 Z M13.2352732,17.3849205 L9.44109279,17.3849205 C9.09607379,17.3947932 8.82265563,17.6510004 8.82474906,17.9624559 C8.82474906,18.2753321 9.09789463,18.5303477 9.44228033,18.5389197 L13.2352732,18.5389197 C13.4655679,18.5437524 13.6804575,18.434894 13.7957906,18.2549737 C13.9125673,18.073811 13.9125673,17.8500292 13.7957906,17.6688665 C13.6804575,17.4889462 13.4655679,17.3800878 13.2352732,17.3849205 L13.2352732,17.3849205 Z M19.5600947,17.3849205 L18.2953679,17.3849205 C18.0650732,17.3800878 17.8501836,17.4889462 17.7348505,17.6688665 C17.6180739,17.8500292 17.6180739,18.073811 17.7348505,18.2549737 C17.8512291,18.4349847 18.0649858,18.5442771 18.2953679,18.5389197 L19.5600947,18.5389197 C19.7903894,18.5437524 20.005279,18.434894 20.1206122,18.2549737 C20.2373888,18.073811 20.2373888,17.8500292 20.1206122,17.6688665 C20.005279,17.4889462 19.7903894,17.3800878 19.5600947,17.3849205 L19.5600947,17.3849205 Z M13.2352732,13.9239947 L9.44109279,13.9239947 C9.09653722,13.9338571 8.8233015,14.1894183 8.82475532,14.5004585 C8.82475532,14.8133348 9.09789463,15.0694219 9.44228033,15.0769223 L13.2352732,15.0769223 C13.4655679,15.0817551 13.6804575,14.9728967 13.7957906,14.7929764 C13.9121074,14.6120849 13.9121074,14.3888321 13.7957906,14.2079406 C13.6807647,14.0276078 13.465816,13.9183085 13.2352732,13.9229232 L13.2352732,13.9239947 Z M19.5600947,13.9239947 L18.2953679,13.9239947 C18.0650732,13.919162 17.8501836,14.0280204 17.7348505,14.2079406 C17.6185337,14.3888321 17.6185337,14.6120849 17.7348505,14.7929764 C17.8512291,14.9740589 18.0649858,15.0822798 18.2953679,15.0769223 L19.5600947,15.0769223 C19.7903894,15.0817551 20.005279,14.9728967 20.1206122,14.7929764 C20.2369289,14.6120849 20.2369289,14.3888321 20.1206122,14.2079406 C20.0055863,14.0276078 19.7906376,13.9183085 19.5600947,13.9229232 L19.5600947,13.9239947 Z M13.2352732,10.4609259 L9.44109279,10.4609259 C9.09653722,10.4707882 8.8233015,10.7263495 8.82475532,11.0373897 C8.82475532,11.3502659 9.09789463,11.606353 9.44228033,11.614925 L13.2352732,11.614925 C13.465816,11.6195396 13.6807647,11.5102404 13.7957906,11.3299075 C13.9121074,11.1490161 13.9121074,10.9257632 13.7957906,10.7448718 C13.6804575,10.5649515 13.4655679,10.4560931 13.2352732,10.4609259 L13.2352732,10.4609259 Z" id="形状" fill="#1E1E1E"></path>
                </g>
            </g>
        </g>
    </g>
</svg>