<?xml version="1.0" encoding="UTF-8"?>
<svg width="86px" height="40px" viewBox="0 0 86 40" version="1.1" xmlns="http://www.w3.org/2000/svg" xmlns:xlink="http://www.w3.org/1999/xlink">
    <title>雨量站</title>
    <defs>
        <linearGradient x1="53.8304822%" y1="103.830482%" x2="53.8304822%" y2="-3.83048222%" id="linearGradient-1">
            <stop stop-color="#68C9FF" offset="0%"></stop>
            <stop stop-color="#CCEDFF" offset="100%"></stop>
        </linearGradient>
    </defs>
    <g id="页面-1" stroke="none" stroke-width="1" fill="none" fill-rule="evenodd">
        <g id="第一部分图标" transform="translate(-510.000000, -714.000000)">
            <g id="雨量站" transform="translate(510.000000, 714.000000)">
                <polygon id="矩形" fill-opacity="0.84" fill="#0E1726" points="0 -7.82360288e-14 86 -1.86870311e-12 86 36 48.1056366 36 44 40 39.9508209 36 0 36"></polygon>
                <g id="编组-44" transform="translate(4.000000, 4.000000)" fill-rule="nonzero">
                    <polygon id="矩形" fill="url(#linearGradient-1)" points="0 2.19618562e-14 28 2.19618562e-14 28 28 0 28"></polygon>
                    <g id="编组备份" transform="translate(6.000000, 6.000000)" fill="#1E1E1E">
                        <path d="M4.32819493,0 L4.32819493,13.832 L4.37593237,13.792 C5.05221283,13.28 5.98309299,13.28 6.65937345,13.792 L7.2958727,14.28 C7.50273496,14.44 7.8050721,14.44 8.0198906,14.28 L8.65638986,13.792 C9.32471407,13.28 10.2635505,13.28 10.9398309,13.792 L11.5763302,14.28 C11.7831924,14.44 12.0855296,14.44 12.3003481,14.28 L12.9368473,13.792 C13.6051716,13.28 14.544008,13.28 15.2202884,13.792 L15.8567877,14.28 C15.9124814,14.32 15.9761313,14.352 16,14.368 L16,15.68 C15.6658379,15.648 15.3316758,15.528 15.0452511,15.312 L14.4087519,14.824 C14.2018896,14.656 13.8995525,14.664 13.684734,14.824 L13.0482347,15.312 C12.3799105,15.824 11.4410741,15.824 10.7647936,15.312 L10.1282944,14.824 C9.92143212,14.656 9.61909498,14.664 9.40427648,14.824 L8.76777723,15.312 C8.09945301,15.824 7.16061661,15.824 6.48433615,15.312 L5.8478369,14.824 C5.64097464,14.664 5.33863749,14.664 5.123819,14.824 L4.29636997,15.456 L4.29636997,16 L0,16 L0,14.696 L3.01541522,14.696 L3.01541522,12.096 L1.41621084,12.096 L1.41621084,10.8 L3.00745898,10.8 L3.00745898,8.44 L0,8.44 L0,7.144 L3.01541522,7.144 L3.01541522,4.848 L1.41621084,4.848 L1.41621084,3.552 L3.00745898,3.552 L3.00745898,1.296 L0,1.296 L0,0 L4.32819493,0 Z M13.8199901,11.32 C14.0984585,11.6 14.1302834,12.024 13.8995525,12.256 L13.2869219,12.872 C13.1755346,12.984 13.0084535,13.032 12.8413725,13.024 C12.6742914,13.008 12.4992541,12.928 12.3560418,12.792 C12.0775733,12.512 12.0457484,12.088 12.2764794,11.856 L12.8891099,11.24 C13.1277971,11 13.5415216,11.04 13.8199901,11.32 Z M9.42018896,11.56 C9.69865738,11.84 9.73048235,12.264 9.49975137,12.496 L9.1735455,12.824 C9.06215813,12.936 8.89507708,12.992 8.72799602,12.976 C8.56091497,12.96 8.38587767,12.88 8.24266534,12.744 C7.96419692,12.464 7.93237195,12.04 8.16310293,11.808 L8.4893088,11.48 C8.72799602,11.24 9.14172054,11.28 9.42018896,11.56 Z M11.7434112,9.224 C12.0218797,9.504 12.0537046,9.928 11.8229736,10.16 L11.2103431,10.776 C11.0909995,10.888 10.9318747,10.944 10.7647936,10.928 C10.5977126,10.912 10.4226753,10.832 10.279463,10.696 C10.0009945,10.416 9.96916957,9.992 10.1999005,9.76 L10.8125311,9.144 C11.0512183,8.904 11.4649428,8.944 11.7434112,9.224 Z M7.3356539,9.464 C7.61412233,9.744 7.64594729,10.168 7.41521631,10.4 L7.08901044,10.728 C6.97762307,10.848 6.81849826,10.896 6.64346096,10.88 C6.47637991,10.864 6.30134262,10.784 6.15813028,10.648 C5.87966186,10.368 5.8478369,9.944 6.07856788,9.712 L6.40477374,9.384 C6.64346096,9.144 7.05718548,9.184 7.3356539,9.464 Z M9.65887618,7.136 C9.9373446,7.416 9.96916957,7.84 9.73843859,8.072 L9.12580806,8.688 C9.01442069,8.8 8.84733963,8.848 8.68025858,8.84 C8.51317752,8.824 8.33814023,8.744 8.1949279,8.608 C7.91645947,8.328 7.88463451,7.904 8.11536549,7.672 L8.72799602,7.056 C8.96668324,6.816 9.38040776,6.856 9.65887618,7.136 Z M14.0666335,6.888 C14.3451019,7.168 14.3769269,7.592 14.1461959,7.824 L13.5335654,8.44 C13.4142218,8.552 13.255097,8.608 13.0880159,8.592 C12.9209349,8.576 12.7458976,8.496 12.6026852,8.36 C12.3242168,8.08 12.2923918,7.656 12.5231228,7.424 L13.1357534,6.808 C13.3744406,6.568 13.7881651,6.608 14.0666335,6.888 Z M7.57434112,5.04 C7.85280955,5.32 7.88463451,5.744 7.65390353,5.976 L7.041273,6.592 C6.92988563,6.704 6.77076082,6.76 6.59572352,6.744 C6.42864247,6.728 6.25360517,6.648 6.11039284,6.512 C5.83192442,6.232 5.80009945,5.808 6.03083043,5.576 L6.64346096,4.96 C6.88214818,4.72 7.2958727,4.76 7.57434112,5.04 Z M11.9820985,4.8 C12.2605669,5.08 12.2923918,5.504 12.0616609,5.736 L11.4490303,6.352 C11.337643,6.464 11.1705619,6.512 11.0034809,6.504 C10.8363998,6.488 10.6613625,6.408 10.5181502,6.272 C10.2396818,5.992 10.2078568,5.568 10.4385878,5.336 L11.0512183,4.72 C11.2899055,4.48 11.70363,4.52 11.9820985,4.8 Z M9.90551964,2.704 C10.1839881,2.984 10.215813,3.408 9.98508205,3.64 L9.37245152,4.256 C9.25310791,4.368 9.09398309,4.424 8.92690204,4.408 C8.75982098,4.392 8.58478369,4.312 8.44157136,4.176 C8.16310293,3.896 8.13127797,3.472 8.36200895,3.24 L8.97463948,2.624 C9.2133267,2.384 9.62705122,2.424 9.90551964,2.704 Z M14.3053207,2.464 C14.5837892,2.744 14.6156141,3.168 14.3848831,3.4 L13.7722526,4.016 C13.6608652,4.128 13.4937842,4.176 13.3267031,4.168 C13.1596221,4.152 12.9845848,4.072 12.8413725,3.936 C12.562904,3.656 12.5310791,3.232 12.76181,3 L13.3744406,2.384 C13.6131278,2.144 14.0268523,2.184 14.3053207,2.464 Z M7.82098458,0.608 C8.09945301,0.888 8.13127797,1.312 7.90054699,1.544 L7.2958727,2.16 C7.17652909,2.28 7.00944804,2.328 6.84236698,2.312 C6.67528593,2.296 6.50024863,2.216 6.3570363,2.08 C6.07856788,1.8 6.04674291,1.376 6.27747389,1.144 L6.89010443,0.528 C7.12879165,0.288 7.54251616,0.328 7.82098458,0.608 Z M12.2287419,0.368 C12.5072103,0.648 12.5390353,1.072 12.3083043,1.304 L11.6956738,1.92 C11.5763302,2.032 11.4172054,2.088 11.2501243,2.072 C11.0830433,2.056 10.908006,1.976 10.7647936,1.84 C10.4863252,1.56 10.4545002,1.136 10.6852312,0.904 L11.2978618,0.288 C11.536549,0.048 11.9502735,0.088 12.2287419,0.368 Z" id="形状结合"></path>
                    </g>
                </g>
            </g>
        </g>
    </g>
</svg>