<?xml version="1.0" encoding="UTF-8"?>
<svg width="16px" height="16px" viewBox="0 0 16 16" version="1.1" xmlns="http://www.w3.org/2000/svg" xmlns:xlink="http://www.w3.org/1999/xlink">
    <title>容器</title>
    <defs>
        <rect id="path-1" x="0" y="0" width="16" height="16"></rect>
    </defs>
    <g id="导航" stroke="none" stroke-width="1" fill="none" fill-rule="evenodd">
        <g transform="translate(-24.000000, -362.000000)" id="aside-1">
            <g transform="translate(0.000000, 56.000000)">
                <g id="容器-148" transform="translate(0.000000, 76.000000)">
                    <g id="hl-sub-menu-7备份-2" transform="translate(0.000000, 216.000000)">
                        <g id="容器" transform="translate(24.000000, 14.000000)">
                            <mask id="mask-2" fill="white">
                                <use xlink:href="#path-1"></use>
                            </mask>
                            <g fill-rule="nonzero"></g>
                            <polygon id="路径" fill-rule="nonzero" mask="url(#mask-2)" points="0 0 16 0 16 16 0 16"></polygon>
                            <g id="FillSetting2" mask="url(#mask-2)">
                                <g transform="translate(8.000000, 8.000000) rotate(-0.000037) translate(-8.000000, -8.000000) translate(0.000000, -0.000000)">
                                    <rect id="FillSetting2" fill-rule="nonzero" x="0" y="0" width="16" height="16"></rect>
                                    <g id="编组" stroke-width="1" fill-rule="evenodd" transform="translate(2.000000, 1.000000)">
                                        <path d="M0,7.7 L12.6,7.7 L12.6,13.30175 C12.6,13.68738 12.28857,14 11.90462,14 L0.69538,14 C0.311332,14 0,13.68759 0,13.30175 L0,7.7 Z M0,0.698278 C0,0.312634 0.311465,0 0.69538,0 L11.90462,0 C12.28864,0 12.6,0.312417 12.6,0.698278 L12.6,6.3 L0,6.3 L0,0.698278 Z M4.2,2.1 L4.2,3.5 L8.4,3.5 L8.4,2.1 L4.2,2.1 Z M4.2,9.8 L4.2,11.2 L8.4,11.2 L8.4,9.8 L4.2,9.8 Z" id="形状" fill="currentColor" fill-rule="nonzero"></path>
                                    </g>
                                </g>
                            </g>
                        </g>
                    </g>
                </g>
            </g>
        </g>
    </g>
</svg>