<?xml version="1.0" encoding="UTF-8"?>
<svg width="16px" height="16px" viewBox="0 0 16 16" version="1.1" xmlns="http://www.w3.org/2000/svg" xmlns:xlink="http://www.w3.org/1999/xlink">
    <title>门户管理常态</title>
    <g id="导航" stroke="none" stroke-width="1" fill="none" fill-rule="evenodd">
        <g transform="translate(-24.000000, -146.000000)" fill-rule="nonzero" id="aside-1">
            <g transform="translate(0.000000, 56.000000)">
                <g id="容器-148" transform="translate(0.000000, 76.000000)">
                    <g id="门户管理常态" transform="translate(24.000000, 14.000000)">
                        <rect id="FillSetting2" x="0" y="0" width="16" height="16"></rect>
                        <path d="M13.7272727,12.1818182 L15,12.1818182 L15,13.4545455 L1,13.4545455 L1,12.1818182 L2.27272727,12.1818182 L2.27272727,2.63636364 C2.27272727,2.28491273 2.55764,2 2.90909091,2 L9.27272727,2 C9.62419091,2 9.90909091,2.28491273 9.90909091,2.63636364 L9.90909091,12.1818182 L11.1818182,12.1818182 L11.1818182,5.81818182 L13.0909091,5.81818182 C13.4423727,5.81818182 13.7272727,6.10309455 13.7272727,6.45454545 L13.7272727,12.1818182 Z M4.81818182,7.09090909 L4.81818182,8.36363636 L7.36363636,8.36363636 L7.36363636,7.09090909 L4.81818182,7.09090909 Z M4.81818182,4.54545455 L4.81818182,5.81818182 L7.36363636,5.81818182 L7.36363636,4.54545455 L4.81818182,4.54545455 Z" id="形状" fill="currentColor"></path>
                    </g>
                </g>
            </g>
        </g>
    </g>
</svg>