<?xml version="1.0" encoding="UTF-8"?>
<svg width="16px" height="16px" viewBox="0 0 16 16" version="1.1" xmlns="http://www.w3.org/2000/svg" xmlns:xlink="http://www.w3.org/1999/xlink">
    <title>容器</title>
    <defs>
        <rect id="path-1" x="0" y="0" width="16" height="16"></rect>
    </defs>
    <g id="导航" stroke="none" stroke-width="1" fill="none" fill-rule="evenodd">
        <g transform="translate(-24.000000, -470.000000)" id="aside-1">
            <g transform="translate(0.000000, 56.000000)">
                <g id="容器-148" transform="translate(0.000000, 76.000000)">
                    <g id="hl-sub-menu-7备份-4" transform="translate(0.000000, 324.000000)">
                        <g id="容器" transform="translate(24.000000, 14.000000)">
                            <mask id="mask-2" fill="white">
                                <use xlink:href="#path-1"></use>
                            </mask>
                            <g fill-rule="nonzero"></g>
                            <g id="FillSetting2" mask="url(#mask-2)" fill-rule="nonzero">
                                <g transform="translate(8.000000, 8.000039) rotate(-0.000037) translate(-8.000000, -8.000039) translate(0.000000, 0.000039)">
                                    <rect id="FillSetting2" fill="none" x="2.95202156e-14" y="-3.28720216e-14" width="16" height="16"></rect>
                                    <path d="M4.7593457,1.00000196 C4.95213228,1.00000196 5.11921399,1.14752137 5.16419753,1.35123408 L6.58230317,7.13275924 C6.95414212,7.29475468 7.57406753,7.37445368 8.3901597,6.81635439 C9.39907615,5.98042982 10.8064182,6.00150355 11.7896298,6.872551 C11.7896298,6.872551 13.2419554,8.03863066 14.1544785,6.90767388 C14.3279865,6.68991202 14.636445,6.66181371 14.8356578,6.85850185 C15.0348706,7.04816541 15.0541493,7.37832049 14.8870676,7.58905777 C14.4436584,8.15102387 13.8010365,8.4671298 13.1327097,8.4390315 C12.4065469,8.41093319 11.7060889,8.13697472 11.1277292,7.65930353 C10.9992048,7.53286116 10.1895012,6.78825608 8.87212616,7.65930353 C8.28180347,8.15471872 7.55379477,8.34912149 6.8553139,8.24689865 L7.40626766,10.4920566 C7.69071501,10.4500676 8.02029018,10.3286997 8.3901597,10.0757578 C9.39907615,9.23983318 10.8064182,9.26090692 11.7896298,10.1319544 C11.7896298,10.1319544 13.2419554,11.298034 14.1544785,10.1670772 C14.3215603,9.99848742 14.5721828,9.98443826 14.7585432,10.1319544 C14.957756,10.3216179 14.9770346,10.651773 14.8099529,10.8625103 C14.3858224,11.4104272 13.7753316,11.7195086 13.1327097,11.712484 C12.4065469,11.6843857 11.7060889,11.4104272 11.1277292,10.9327561 C10.9992048,10.8063137 10.1895012,10.0617086 8.87212616,10.9327561 C8.50567647,11.2377065 8.08617016,11.4266633 7.65360602,11.5010256 L8.14598623,13.5104934 C8.22528864,13.4654287 8.30669831,13.4142103 8.3901597,13.3562349 C9.40550237,12.5203103 10.8064182,12.5484086 11.7896298,13.4264806 C11.7896298,13.4264806 13.2419554,14.5925603 14.1544785,13.4264806 C14.3279865,13.2087188 14.636445,13.1806205 14.8356578,13.3773086 C15.0348706,13.5669722 15.0541493,13.8971272 14.8870676,14.1078645 C14.4436584,14.6909043 13.8010365,15.0070103 13.1327097,14.9859365 C12.4129731,14.9648628 11.7125152,14.7049535 11.1277292,14.2413315 C10.9992048,14.1148891 10.1895012,13.3632594 8.87212616,14.2413315 C8.71815086,14.3686445 8.5552312,14.4757404 8.3862079,14.5626699 C8.38247679,14.7994895 8.20722665,14.999989 7.97888164,14.999989 L1.34702316,14.999989 C1.25487114,15.0004073 1.16638201,14.960578 1.10122012,14.8893488 C1.03605823,14.8181195 0.999621608,14.721391 1.00000429,14.6206586 L1.00000429,1.37933239 C0.999621608,1.27859993 1.03605823,1.18187142 1.10122012,1.11064219 C1.16638201,1.03941295 1.25487114,0.999583649 1.34702316,1.00000196 L4.7593457,1.00000196 Z" id="形状结合" fill="currentColor"></path>
                                </g>
                            </g>
                        </g>
                    </g>
                </g>
            </g>
        </g>
    </g>
</svg>