<?xml version="1.0" encoding="UTF-8"?>
<svg width="16px" height="16px" viewBox="0 0 16 16" version="1.1" xmlns="http://www.w3.org/2000/svg" xmlns:xlink="http://www.w3.org/1999/xlink">
    <title>容器</title>
    <defs>
        <rect id="path-1" x="0" y="0" width="16" height="16"></rect>
    </defs>
    <g id="导航" stroke="none" stroke-width="1" fill="none" fill-rule="evenodd">
        <g transform="translate(-24.000000, -524.000000)" id="aside-1">
            <g transform="translate(0.000000, 56.000000)">
                <g id="容器-148" transform="translate(0.000000, 76.000000)">
                    <g id="hl-sub-menu-7备份-6" transform="translate(0.000000, 378.000000)">
                        <g id="容器" transform="translate(24.000000, 14.000000)">
                            <mask id="mask-2" fill="white">
                                <use xlink:href="#path-1"></use>
                            </mask>
                            <g fill-rule="nonzero"></g>
                            <g id="FillSetting2" mask="url(#mask-2)" fill-rule="nonzero">
                                <g transform="translate(8.000000, 8.000027) rotate(-0.000037) translate(-8.000000, -8.000027) translate(0.000000, 0.000027)">
                                    <rect id="FillSetting2" fill="none" x="0" y="0" width="16" height="16"></rect>
                                    <path d="M14.6,5.9 L14.6,14.29475 C14.6,14.68577 14.28864,15 13.90462,15 L2.69538,15 C2.311465,15 2,14.6892 2,14.30574 L2,1.69426 C2,1.318717 2.312858,1 2.698782,1 L9.7,1 L9.7,5.2 C9.7,5.586596 10.01339,5.9 10.4,5.9 L14.6,5.9 Z M14.6,4.5 L11.1,4.5 L11.1,1.002226 L14.6,4.5 Z M5.5,4.5 L5.5,5.9 L7.6,5.9 L7.6,4.5 L5.5,4.5 Z M5.5,7.3 L5.5,8.7 L11.1,8.7 L11.1,7.3 L5.5,7.3 Z M5.5,10.1 L5.5,11.5 L11.1,11.5 L11.1,10.1 L5.5,10.1 Z" id="形状" fill="currentColor"></path>
                                </g>
                            </g>
                        </g>
                    </g>
                </g>
            </g>
        </g>
    </g>
</svg>