<?xml version="1.0" encoding="UTF-8"?>
<svg width="16px" height="16px" viewBox="0 0 16 16" version="1.1" xmlns="http://www.w3.org/2000/svg" xmlns:xlink="http://www.w3.org/1999/xlink">
    <title>门户风格配置hover</title>
    <g id="导航" stroke="none" stroke-width="1" fill="none" fill-rule="evenodd">
        <g transform="translate(-24.000000, -200.000000)" fill-rule="nonzero" id="aside-1">
            <g transform="translate(0.000000, 56.000000)">
                <g id="容器-148" transform="translate(0.000000, 76.000000)">
                    <g id="hl-sub-menu-2" transform="translate(0.000000, 54.000000)">
                        <g id="门户风格配置hover" transform="translate(23.999995, 14.000000)">
                            <path d="M8.0010326,2 C9.01990557,2 9.84509487,2.82518929 9.84509487,3.84406226 C9.84509487,4.66461889 9.30988611,5.35955225 8.56931651,5.59899241 L8.56900522,6.759 L10.5351053,7.89333465 C10.6830679,7.97909102 10.7833848,8.12509109 10.8127137,8.29046544 L10.8216057,8.39168801 L10.8210052,10.508 L12.2039458,11.5349761 C12.4411676,11.3917854 12.7132995,11.3005193 13.0046295,11.27689 L13.1559289,11.27078 C14.1748159,11.27078 15.0000052,12.0959693 15.0000052,13.1148422 C15.0000052,14.1337152 14.1748159,14.9589045 13.1559289,14.9589045 C12.1370559,14.9589045 11.3118666,14.1337152 11.3118666,13.1148422 C11.3118666,12.8573596 11.3645665,12.6122464 11.4597741,12.3896946 L10.3700052,11.579 L8.28751894,12.7819405 C8.22834329,12.8155675 8.16468278,12.8384359 8.09952316,12.8499451 L8.0010326,12.8586146 C7.90216414,12.8586146 7.80330974,12.832381 7.71453219,12.7819546 L5.65900522,11.595 L4.55306506,12.4183729 C4.62336944,12.5909399 4.66819446,12.7765843 4.68286428,12.9706747 L4.68814753,13.1148422 C4.68814753,14.1337152 3.86295452,14.9589045 2.84408155,14.9589045 C1.82519451,14.9589045 1.00000522,14.1337152 1.00000522,13.1148422 C1.00000522,12.0959693 1.82519451,11.27078 2.84408155,11.27078 C3.20413441,11.27078 3.54025315,11.3738295 3.824301,11.5520599 L5.18000522,10.544 L5.18044544,8.39168801 C5.18044544,8.22019872 5.25611168,8.05990983 5.38407741,7.9516989 L5.46694585,7.89334872 L7.44000522,6.754 L7.44063698,5.60152356 C6.74204658,5.37914602 6.22443627,4.75200327 6.16306625,3.99536164 L6.15695627,3.84406226 C6.15695627,2.82518929 6.98214556,2 8.0010326,2 Z" id="形状结合" fill="currentColor"></path>
                            <rect id="FillSetting2" x="0" y="0" width="16" height="16"></rect>
                        </g>
                    </g>
                </g>
            </g>
        </g>
    </g>
</svg>