<svg xmlns="http://www.w3.org/2000/svg" viewBox="0 0 24 24" aria-labelledby="ShapeAnnular" role="presentation" class="icon-fill" fill="currentColor" style="--fill-opacity: 0.35;">
  <g stroke="none" stroke-width="1" fill="currentColor" fill-rule="evenodd">
    <path d="M12.0169106,22 C6.48472364,22 2,17.5161791 2,11.9851058 C2,6.84327245 5.87572392,2.60648075 10.8657157,2.0356309 L11.2076366,2.00242243 L11.2076366,2.00242243 C11.6202993,1.96943783 11.9815733,2.27716044 12.0145645,2.68974012 L12.0169106,8.68387522 L12.0169106,8.68387522 C12.0169041,8.89267188 11.8840792,9.07368009 11.6939774,9.14091315 L11.5945031,9.16465034 L11.5945031,9.16465034 C11.4411186,9.18458815 11.3176703,9.20800479 11.2241583,9.23490024 C10.0291594,9.5786 9.15493615,10.6797805 9.15493615,11.9851058 C9.15493615,13.5654124 10.4362858,14.8465041 12.0169106,14.8465041 C13.3485958,14.8465041 14.4678507,13.9371653 14.7873719,12.7056731 L14.8353367,12.4851263 L14.8353367,12.4851263 C14.8799419,12.2320815 15.0779255,12.0390198 15.3234872,11.9947231 L15.4689841,11.9851058 L15.4689841,11.9851058 L21.2041538,11.9851058 L21.2041538,11.9851058 C21.6436875,11.9851301 22,12.3413708 22,12.7808161 L21.9971143,12.8485134 L21.9971143,12.8485134 C21.5592438,17.9753651 17.2581737,22 12.0169106,22 Z"></path>
  </g>
</svg>