<?xml version="1.0" encoding="UTF-8"?>
<svg width="16px" height="16px" viewBox="0 0 16 16" version="1.1" xmlns="http://www.w3.org/2000/svg" xmlns:xlink="http://www.w3.org/1999/xlink">
    <title>容器</title>
    <defs>
        <rect id="path-1" x="0" y="0" width="16" height="16"></rect>
    </defs>
    <g id="导航" stroke="none" stroke-width="1" fill="none" fill-rule="evenodd">
        <g transform="translate(-24.000000, -254.000000)" id="aside-1">
            <g transform="translate(0.000000, 56.000000)">
                <g id="容器-148" transform="translate(0.000000, 76.000000)">
                    <g id="hl-sub-menu-7" transform="translate(0.000000, 108.000000)">
                        <g id="容器" transform="translate(24.000000, 14.000000)">
                            <mask id="mask-2" fill="white">
                                <use xlink:href="#path-1"></use>
                            </mask>
                            <g fill-rule="nonzero"></g>
                            <polygon id="路径" fill-rule="nonzero" mask="url(#mask-2)" points="0 0 16 0 16 16 0 16"></polygon>
                            <g id="FillSetting2" mask="url(#mask-2)" fill-rule="nonzero">
                                <g transform="translate(8.000000, 8.000000) rotate(-0.000037) translate(-8.000000, -8.000000) translate(0.000000, -0.000000)">
                                    <rect id="FillSetting2" fill="none" x="0" y="0" width="16" height="16"></rect>
                                    <path d="M1.22012875,11.1329426 L3.63588968,13.1797099 C3.90617028,13.4087067 4.30811324,13.3807075 4.5442982,13.1203053 L4.56202426,13.0999475 L4.56202426,13.0999475 L5.82453236,11.5890453 C6.0407209,11.3303224 6.01048381,10.9462535 5.75647202,10.7245486 C5.51504484,10.5138278 5.15128673,10.5334844 4.93377942,10.7652784 L4.91489134,10.7863789 L4.91489134,10.7863789 L4.1011427,11.7613634 C4.04608714,11.8273315 3.95013079,11.8390339 3.8811366,11.7903516 L3.86962654,11.7814477 L3.86962654,11.7814477 L1.9846822,10.1865042 C1.73950684,9.97904933 1.37522439,10.0044532 1.16096877,10.2402872 L1.14691028,10.256321 C1.14399593,10.2597652 1.14112089,10.2632425 1.13828572,10.2667522 C0.925798096,10.529794 0.962133789,10.9143549 1.22012875,11.1329426 Z M1.9591207,5.2809694 C1.63510479,5.6769533 1.68548238,6.25941428 2.07075105,6.59414543 L9.72780486,13.1941479 C9.79288821,13.2502466 9.88946792,13.2461321 9.94959221,13.1868427 L9.95995752,13.1756332 L9.95995752,13.1756332 L13.5331966,8.83811974 C13.5898083,8.76939923 13.5811449,8.66803982 13.5136922,8.60992334 L5.84955063,2.00658551 C5.66582193,1.84734963 5.42530857,1.76954497 5.18312698,1.79100138 C4.94084679,1.81244187 4.71754561,1.9309859 4.56404229,2.11965523 L1.95464269,5.2809694 L1.9591207,5.2809694 Z M3.46487266,5.54795753 L3.852713,5.88263565 C3.92008758,5.94077503 3.92870313,6.042077 3.8721145,6.11075923 L3.54388194,6.50913866 C3.48924414,6.57545315 3.39336361,6.58776142 3.32406332,6.53951584 L3.3119182,6.53019887 L3.3119182,6.53019887 L2.92265783,6.19430942 C2.85528325,6.13617004 2.8466677,6.03486807 2.90325633,5.96618584 L3.23148889,5.56780641 C3.28612669,5.50149192 3.38200722,5.48918365 3.45130751,5.53742923 L3.46487266,5.54795753 L3.46487266,5.54795753 Z" id="形状" fill="currentColor"></path>
                                    <path d="M13.3604638,10.7060078 L11.7416461,12.6675931 C11.692999,12.7265407 11.6915943,12.8112995 11.7382614,12.8718267 L12.7010324,14.1205419 C12.7562584,14.1921701 12.859094,14.2054667 12.9307221,14.1502407 C12.9404419,14.1427466 12.9492885,14.1341837 12.9570952,14.1247131 L14.9625967,11.691763 C15.0201264,11.6219716 15.0101863,11.5187575 14.9403949,11.4612279 C14.9333661,11.455434 14.9258662,11.4502366 14.9179732,11.4456898 L13.5685182,10.6683395 C13.4992659,10.6284469 13.4113334,10.6443671 13.3604638,10.7060078 Z" id="形状" fill="#5281E9" opacity="0.319999993"></path>
                                </g>
                            </g>
                        </g>
                    </g>
                </g>
            </g>
        </g>
    </g>
</svg>