<svg xmlns="http://www.w3.org/2000/svg" viewBox="0 0 24 24" aria-labelledby="Alert" role="presentation" class="icon-fill" fill="currentColor" style="--fill-opacity: 0.35;">
  <g stroke="none" stroke-width="1" fill="currentColor" fill-rule="evenodd">
    <path d="M5,22 C4.44771525,22 4,21.5522847 4,21 C4,20.4871642 4.38604019,20.0644928 4.88337887,20.0067277 L5,20 L6,20 L6,12 C6,8.76160306 8.56557489,6.12242824 11.7750617,6.00413847 L12,6 C15.3137085,6 18,8.6862915 18,12 L18,12 L18,20 L19,20 C19.5522847,20 20,20.4477153 20,21 C20,21.5128358 19.6139598,21.9355072 19.1166211,21.9932723 L19,22 L5,22 Z" style="opacity: var(--fill-opacity);"></path>
    <path d="M12,1 C12.5128358,1 12.9355072,1.38604019 12.9932723,1.88337887 L13,2 L13,3.5 C13,4.05228475 12.5522847,4.5 12,4.5 C11.4871642,4.5 11.0644928,4.11395981 11.0067277,3.61662113 L11,3.5 L11,2 C11,1.44771525 11.4477153,1 12,1 Z M19.7781746,4.22182541 C20.1408043,4.58445511 20.1667064,5.1563005 19.855881,5.54881816 L19.7781746,5.63603897 L18.7175144,6.69669914 C18.3269901,7.08722343 17.6938252,7.08722343 17.3033009,6.69669914 C16.9406712,6.33406944 16.914769,5.76222405 17.2255945,5.36970639 L17.3033009,5.28248558 L18.363961,4.22182541 C18.7544853,3.83130112 19.3876503,3.83130112 19.7781746,4.22182541 Z M23,12 C23,12.5128358 22.6139598,12.9355072 22.1166211,12.9932723 L22,13 L20.5,13 C19.9477153,13 19.5,12.5522847 19.5,12 C19.5,11.4871642 19.8860402,11.0644928 20.3833789,11.0067277 L20.5,11 L22,11 C22.5522847,11 23,11.4477153 23,12 Z M1,12 C1,11.4871642 1.38604019,11.0644928 1.88337887,11.0067277 L2,11 L3.5,11 C4.05228475,11 4.5,11.4477153 4.5,12 C4.5,12.5128358 4.11395981,12.9355072 3.61662113,12.9932723 L3.5,13 L2,13 C1.44771525,13 1,12.5522847 1,12 Z M4.22182541,4.22182541 C4.58445511,3.85919571 5.1563005,3.83329359 5.54881816,4.14411904 L5.63603897,4.22182541 L6.69669914,5.28248558 C7.08722343,5.67300987 7.08722343,6.30617485 6.69669914,6.69669914 C6.33406944,7.05932884 5.76222405,7.08523096 5.36970639,6.77440551 L5.28248558,6.69669914 L4.22182541,5.63603897 C3.83130112,5.24551468 3.83130112,4.6123497 4.22182541,4.22182541 Z"></path>
  </g>
</svg>