<svg xmlns="http://www.w3.org/2000/svg" viewBox="0 0 24 24" aria-labelledby="News" role="presentation" class="icon-fill" fill="currentColor" style="--fill-opacity: 0.35;"><!--v-if--><g stroke="none" stroke-width="1" fill="currentColor" fill-rule="evenodd"><path d="M20,4 C21.1045695,4 22,4.8954305 22,6 L22,6 L22,20 C22,21.1045695 21.1045695,22 20,22 L20,22 L17,22 L17,22 C17.5522847,22 18,21.5522847 18,21 L18,4 Z"></path><path d="M16,2 C17.1045695,2 18,2.8954305 18,4 L18,4 L18,21 C18,21.5522847 17.5522847,22 17,22 L17,22 L4,22 C2.8954305,22 2,21.1045695 2,20 L2,20 L2,4 C2,2.8954305 2.8954305,2 4,2 L4,2 Z M10,12 L7,12 L6.88337887,12.0067277 C6.38604019,12.0644928 6,12.4871642 6,13 C6,13.5522847 6.44771525,14 7,14 L7,14 L10,14 L10.1166211,13.9932723 C10.6139598,13.9355072 11,13.5128358 11,13 C11,12.4477153 10.5522847,12 10,12 L10,12 Z M13,8 L7,8 L6.88337887,8.00672773 C6.38604019,8.06449284 6,8.48716416 6,9 C6,9.55228475 6.44771525,10 7,10 L7,10 L13,10 L13.1166211,9.99327227 C13.6139598,9.93550716 14,9.51283584 14,9 C14,8.44771525 13.5522847,8 13,8 L13,8 Z" style="opacity: var(--fill-opacity);"></path></g></svg>