<svg xmlns="http://www.w3.org/2000/svg" xmlns:xlink="http://www.w3.org/1999/xlink" fill="none" version="1.1" width="320" height="320" viewBox="0 0 320 320"><defs><mask id="master_svg0_18042_17162"><g><path d="M95.0957,84.95123789062501L95.0957,61.877537890625L266.449,61.877537890625Q272.75800000000004,62.391837890625,283.674,58.371397890625Q294.589,54.350967890625,300.13,49.683837890625L294.592,64.563237890625L274.425,122.986237890625C273.78499999999997,124.839137890625,272.041,126.082337890625,270.081,126.082337890625L191.18,126.082337890625L181.064,90.74433789062499L161.145,126.082337890625L136.23399999999998,126.082337890625C125.324,126.083237890625,114.8611,121.750337890625,107.1462,114.036837890625C99.4314,106.323237890625,95.0966,95.86083789062499,95.0957,84.95123789062501ZM145.985,148.441737890625L134.852,148.441737890625C92.0383,148.435437890625,53.7827,175.182837890625,39.089600000000004,215.396837890625L20,268.561837890625L91.0346,268.561837890625L110.5767,211.507837890625L209.178,211.507837890625L231.081,148.441737890625L195.217,148.441737890625L194.164,182.435837890625L167.048,167.008837890625L133.555,182.435837890625L145.985,148.441737890625Z" fill-rule="evenodd" fill="#FFFFFF" fill-opacity="1"/></g></mask><linearGradient x1="-0.09389592707157135" y1="-0.23841746151447296" x2="1.2577922344207764" y2="0.8909902572631836" id="master_svg1_9652_8296"><stop offset="0%" stop-color="#BBE3FF" stop-opacity="1"/><stop offset="100%" stop-color="#00A0EA" stop-opacity="1"/></linearGradient><linearGradient x1="-0.09389592707157135" y1="-0.23841746151447296" x2="1.2577922344207764" y2="0.8909902572631836" id="master_svg2_9652_8296"><stop offset="0%" stop-color="#BBE3FF" stop-opacity="1"/><stop offset="100%" stop-color="#00A0EA" stop-opacity="1"/></linearGradient><linearGradient x1="-0.09389592707157135" y1="-0.23841746151447296" x2="1.2545814514160156" y2="0.8883074522018433" id="master_svg3_9652_8308"><stop offset="0%" stop-color="#4690FF" stop-opacity="1"/><stop offset="100%" stop-color="#0065FF" stop-opacity="1"/></linearGradient><linearGradient x1="0.17119070887565613" y1="-0.14188528060913086" x2="1.2577922344207764" y2="0.8909902572631836" id="master_svg4_9652_8305"><stop offset="0%" stop-color="#40A2FF" stop-opacity="1"/><stop offset="100%" stop-color="#0083FE" stop-opacity="1"/></linearGradient><linearGradient x1="0.12515130639076233" y1="-0.08426471054553986" x2="0.940731942653656" y2="0.7204076051712036" id="master_svg5_9652_8316"><stop offset="0%" stop-color="#44B9FE" stop-opacity="1"/><stop offset="100%" stop-color="#02A0FD" stop-opacity="1"/></linearGradient><linearGradient x1="-0.09389592707157135" y1="-0.23841746151447296" x2="1.2577922344207764" y2="0.8909902572631836" id="master_svg6_9652_8290"><stop offset="0%" stop-color="#85E0FF" stop-opacity="1"/><stop offset="100%" stop-color="#00AEFF" stop-opacity="1"/></linearGradient><linearGradient x1="0.03457605466246605" y1="-0.08107803016901016" x2="1.2577922344207764" y2="0.8909902572631836" id="master_svg7_9652_8293"><stop offset="0%" stop-color="#B5F5FF" stop-opacity="1"/><stop offset="100%" stop-color="#00D9FB" stop-opacity="1"/></linearGradient></defs><g><g><rect x="0" y="0" width="320" height="320" rx="0" fill="#FFFFFF" fill-opacity="0.009999999776482582"/></g><g><g><g><path d="M95.0957,84.95123789062501L95.0957,61.877537890625L266.449,61.877537890625Q272.75800000000004,62.391837890625,283.674,58.371397890625Q294.589,54.350967890625,300.13,49.683837890625L294.592,64.563237890625L274.425,122.986237890625C273.78499999999997,124.839137890625,272.041,126.082337890625,270.081,126.082337890625L191.18,126.082337890625L181.064,90.74433789062499L161.145,126.082337890625L136.23399999999998,126.082337890625C125.324,126.083237890625,114.8611,121.750337890625,107.1462,114.036837890625C99.4314,106.323237890625,95.0966,95.86083789062499,95.0957,84.95123789062501ZM145.985,148.441737890625L134.852,148.441737890625C92.0383,148.435437890625,53.7827,175.182837890625,39.089600000000004,215.396837890625L20,268.561837890625L91.0346,268.561837890625L110.5767,211.507837890625L209.178,211.507837890625L231.081,148.441737890625L195.217,148.441737890625L194.164,182.435837890625L167.048,167.008837890625L133.555,182.435837890625L145.985,148.441737890625Z" fill-rule="evenodd" fill="#FFFFFF" fill-opacity="1"/></g><g mask="url(#master_svg0_18042_17162)"><g transform="matrix(-1,0,0,1,-139.33282470703125,0)"><path d="M93.42758764648437,268.54749920654297L21.932887646484374,61.61949920654297L-69.66641235351578,61.61949920654297L1.8286876464843687,268.54749920654297L93.42758764648437,268.54749920654297Z" fill="url(#master_svg1_9652_8296)" fill-opacity="1"/></g><g transform="matrix(-1,0,0,1,44.49319267272949,0)"><path d="M185.34059633636474,268.54749920654297L113.84589633636475,61.61949920654297L22.246596336364846,61.61949920654297L93.74169633636474,268.54749920654297L185.34059633636474,268.54749920654297Z" fill="url(#master_svg2_9652_8296)" fill-opacity="1"/></g><g transform="matrix(-1,0,0,1,263.01637268066406,0)"><path d="M306.091186340332,268.54749920654297L234.59618634033203,61.61949920654297L131.50818634033254,61.61949920654297L203.003286340332,268.54749920654297L306.091186340332,268.54749920654297Z" fill="url(#master_svg3_9652_8308)" fill-opacity="1"/></g><g transform="matrix(-1,0,0,1,411.4559020996094,0)"><path d="M357.3329510498047,268.54749920654297L285.8381510498047,61.61949920654297L205.7279510498048,61.61949920654297L277.22305104980467,268.54749920654297L357.3329510498047,268.54749920654297Z" fill="url(#master_svg4_9652_8305)" fill-opacity="1"/></g><g transform="matrix(-1,0,0,1,483.3778381347656,0)"><path d="M392.70191906738285,268.54749920654297L321.2066190673828,61.61949920654297L241.68891906738293,61.61949920654297L312.5915190673828,268.54749920654297L392.70191906738285,268.54749920654297Z" fill="url(#master_svg5_9652_8316)" fill-opacity="1"/></g><g transform="matrix(-1,0,0,1,604.3200073242188,0)"><path d="M465.25400366210937,240.97359516906738L393.75930366210935,34.04559516906738L302.16000366210955,34.04559516906738L373.65510366210935,240.97359516906738L465.25400366210937,240.97359516906738Z" fill="url(#master_svg6_9652_8290)" fill-opacity="1"/></g><g transform="matrix(-1,0,0,1,693.245849609375,0)"><path d="M509.7169248046875,240.97359516906738L438.22222480468747,34.04559516906738L346.62292480468767,34.04559516906738L418.1180248046875,240.97359516906738L509.7169248046875,240.97359516906738Z" fill="url(#master_svg7_9652_8293)" fill-opacity="1"/></g></g></g></g></g></svg>