<?xml version="1.0" encoding="UTF-8"?>
<svg width="16px" height="16px" viewBox="0 0 16 16" version="1.1" xmlns="http://www.w3.org/2000/svg" xmlns:xlink="http://www.w3.org/1999/xlink">
    <!-- Generator: Sketch 63.1 (92452) - https://sketch.com -->
    <title>icon/normal/补集</title>
    <desc>Created with Sketch.</desc>
    <g id="分析研判" stroke="none" stroke-width="1" fill="none" fill-rule="evenodd">
        <g id="图标样式汇总" transform="translate(-1404.000000, -861.000000)">
            <g id="icon/normal/补集" transform="translate(1404.000000, 861.000000)">
                <g id="补集">
                    <rect id="矩形" fill="#FFFFFF" fill-rule="nonzero" opacity="0.01" x="0" y="0" width="16" height="16"></rect>
                    <path d="M10.259375,10.709375 L2.603125,10.709375 C2.0765625,10.709375 1.6484375,10.28125 1.6484375,9.753125 L1.6484375,2.096875 C1.6484375,1.56875 2.0765625,1.140625 2.603125,1.140625 L10.2609375,1.140625 C10.7890625,1.140625 11.2171875,1.56875 11.2171875,2.096875 L11.2171875,9.753125 C11.215625,10.2796875 10.7875,10.709375 10.259375,10.709375 L10.259375,10.709375 Z M14.040625,14.9625 L6.3828125,14.9625 C5.8546875,14.9625 5.4265625,14.534375 5.4265625,14.00625 L5.4265625,6.35 C5.4265625,5.821875 5.8546875,5.39375 6.3828125,5.39375 L14.040625,5.39375 C14.5671875,5.39375 14.9953125,5.821875 14.9953125,6.35 L14.9953125,14.00625 C14.9953125,14.5328125 14.5671875,14.9625 14.040625,14.9625 Z M6.490625,13.8984375 L13.9328125,13.8984375 L13.9328125,6.45625 L6.490625,6.45625 L6.490625,13.8984375 Z" id="形状" fill="#9B9B9B" fill-rule="nonzero"></path>
                </g>
            </g>
        </g>
    </g>
</svg>