<?xml version="1.0" encoding="UTF-8"?>
<svg width="14px" height="14px" viewBox="0 0 14 14" version="1.1" xmlns="http://www.w3.org/2000/svg" xmlns:xlink="http://www.w3.org/1999/xlink">
    <!-- Generator: Sketch 63.1 (92452) - https://sketch.com -->
    <title>icon/Operation/Delete备份 3</title>
    <desc>Created with Sketch.</desc>
    <g id="分析研判" stroke="none" stroke-width="1" fill="none" fill-rule="evenodd">
        <g id="图标样式汇总" transform="translate(-1295.000000, -775.000000)" fill="#000000">
            <g id="icon/normal/jianqu备份-3" transform="translate(1294.000000, 774.000000)">
                <g id="添加">
                    <rect id="矩形" fill-rule="nonzero" opacity="0" x="0" y="0" width="16" height="16"></rect>
                    <path d="M13.6666719,1.33332813 C14.2189566,1.33332813 14.6666719,1.78104338 14.6666719,2.33332813 L14.6666719,13.6666719 C14.6666719,14.2189566 14.2189566,14.6666719 13.6666719,14.6666719 L2.33332813,14.6666719 C1.78104338,14.6666719 1.33332813,14.2189566 1.33332813,13.6666719 L1.33332813,2.33332813 C1.33332813,1.78104338 1.78104338,1.33332813 2.33332813,1.33332813 L13.6666719,1.33332813 Z M13.6666719,2.33332813 L2.33332813,2.33332813 L2.33332813,13.6666719 L13.6666719,13.6666719 L13.6666719,2.33332813 Z" id="形状结合" fill-opacity="0.5" fill-rule="nonzero"></path>
                    <polygon id="路径" stroke="#000000" stroke-width="0.2" opacity="0.5" points="7.67139562 11.1024886 7.67139562 5.68534575 5.64853847 5.68534575 5.64853847 4.96191718 10.5171099 4.96191718 10.5171099 5.68648861 8.48282419 5.68648861 8.48282419 11.1036315"></polygon>
                </g>
            </g>
        </g>
    </g>
</svg>