<?xml version="1.0" encoding="UTF-8"?>
<svg width="16px" height="16px" viewBox="0 0 16 16" version="1.1" xmlns="http://www.w3.org/2000/svg" xmlns:xlink="http://www.w3.org/1999/xlink">
    <!-- Generator: Sketch 63.1 (92452) - https://sketch.com -->
    <title>icon/Operation/Download备份 7</title>
    <desc>Created with Sketch.</desc>
    <g id="分析研判" stroke="none" stroke-width="1" fill="none" fill-rule="evenodd">
        <g id="图标样式汇总" transform="translate(-783.000000, -446.000000)">
            <g id="icon/Operation/shenhe备份-3" transform="translate(783.000000, 446.000000)">
                <g id="icon/Operation/Refresh" stroke-width="1" fill-rule="evenodd" fill="#FFFFFF" opacity="0.01">
                    <rect id="矩形" fill-rule="nonzero" x="0" y="0" width="16" height="16"></rect>
                </g>
                <path d="M6.1586512,7.22086527 C6.3123188,7.22010924 6.45468185,7.30150912 6.53197665,7.43432409 C6.60927146,7.56713906 6.6097193,7.73112985 6.53315105,7.864365 C6.45515051,7.99679223 6.31233448,8.07744801 6.1586512,8.0758649 L6.1586512,8.0758649 L4.44515191,8.0758649 C4.20907792,8.07582582 4.01772287,7.88443908 4.01772287,7.64837392 C4.01772287,7.41229109 4.20907792,7.22090435 4.44515191,7.22086527 L4.44515191,7.22086527 Z M7.01565084,5.11335028 C7.16847607,5.11350991 7.30964896,5.19505106 7.38615069,5.32735019 C7.46360112,5.45962168 7.46411723,5.62328116 7.3875026,5.7560385 C7.31088796,5.88879584 7.16892686,5.97023132 7.01565084,5.96934992 L7.01565084,5.96934992 L4.44415192,5.96834993 C4.20805028,5.96834993 4.01665209,5.77695174 4.01665209,5.5408501 C4.01665209,5.30474847 4.20805028,5.11335028 4.44415192,5.11335028 L4.44415192,5.11335028 Z" id="形状结合" stroke="#5C658D" stroke-width="0.3" fill="#5C658D" fill-rule="nonzero" stroke-linejoin="round"></path>
                <path d="M13.8660314,5.99390738 C12.4986698,4.66881483 9.33039267,1.67145894 9.2987099,1.64224159 C9.21199916,1.55802689 9.10694576,1.54084022 9.03691016,1.53396555 C9.02857259,1.53396555 9.35207036,1.53224688 2.89378764,1.52709088 C2.40020342,1.52709088 2,1.93957105 2,2.44829659 L2,13.6058852 C2,14.1146107 2.40020342,14.5270909 2.89378764,14.5270909 L13.582554,14.5270909 C13.8110035,14.5270909 13.9977651,14.3346001 13.9977651,14.0991427 C13.9977651,13.8636853 13.8110035,13.6711945 13.582554,13.6711945 L2.89378764,13.6711945 C2.85876984,13.6711945 2.82875459,13.6419772 2.82875459,13.6041665 L2.82875459,2.44829659 C2.82875459,2.41220458 2.85710233,2.38126856 2.89378764,2.38126856 L8.60168894,2.38126856 L8.60168894,5.81172864 C8.60168894,6.32045418 9.00189236,6.73293435 9.49547658,6.73293435 L13.1690105,6.73293435 L13.1690105,14.066488 L13.170678,14.1163294 C13.1790156,14.3466308 13.3607746,14.5270909 13.5842215,14.5270909 C13.8076685,14.5270909 13.98776,14.3466308 13.9960976,14.1197667 L13.9977651,14.0802374 L13.9977651,6.36342086 C14.0111052,6.22077147 13.9644148,6.09015275 13.8660314,5.99390738 Z M9.49380907,5.87875666 C9.45879127,5.87875666 9.42877601,5.84953932 9.42877601,5.81172864 L9.42877601,2.93639812 L12.5270175,5.87875666 L9.49380907,5.87875666 Z" id="形状" stroke="#5C658D" stroke-width="0.2" fill="#5C658D" fill-rule="nonzero" stroke-linejoin="round"></path>
            </g>
        </g>
    </g>
</svg>