<?xml version="1.0" encoding="UTF-8"?>
<svg width="16px" height="14px" viewBox="0 0 16 14" version="1.1" xmlns="http://www.w3.org/2000/svg" xmlns:xlink="http://www.w3.org/1999/xlink">
    <!-- Generator: Sketch 63.1 (92452) - https://sketch.com -->
    <title>icon/normal/自定义</title>
    <desc>Created with Sketch.</desc>
    <g id="分析研判" stroke="none" stroke-width="1" fill="none" fill-rule="evenodd">
        <g id="图标样式汇总" transform="translate(-1404.000000, -808.000000)">
            <g id="icon/normal/自定义" transform="translate(1404.000000, 807.000000)">
                <g id="自定义">
                    <rect id="矩形" fill="#000000" fill-rule="nonzero" opacity="0" x="0" y="0" width="16" height="16"></rect>
                    <path d="M14.3437849,2 L1.65624109,2 C1.29374131,2 1,2.2877204 1,2.64287212 L1,13.3571787 C1,13.7123304 1.29371537,14 1.65624109,14 L14.3437589,14 C14.7062846,14 15,13.7123304 15,13.3571787 L15,2.64287212 C15,2.2877204 14.7062846,2 14.3437849,2 Z M6.25000648,2.64287212 C6.61253219,2.64287212 6.90624757,2.93059254 6.90624757,3.28571883 C6.90624757,3.64084512 6.61253219,3.92856554 6.25000648,3.92856554 C5.88748077,3.92856554 5.5937654,3.64081971 5.5937654,3.28571883 C5.5937654,2.93059254 5.88748077,2.64287212 6.25000648,2.64287212 Z M4.28125731,2.64287212 C4.64378302,2.64287212 4.93749839,2.93059254 4.93749839,3.28571883 C4.93749839,3.64084512 4.64378302,3.92856554 4.28125731,3.92856554 C3.9187316,3.92856554 3.62501622,3.64081971 3.62501622,3.28571883 C3.62499026,2.93059254 3.91873157,2.64287212 4.28125731,2.64287212 Z M2.31250811,2.64287212 C2.67503382,2.64287212 2.9687492,2.93059254 2.9687492,3.28571883 C2.9687492,3.64084512 2.67500788,3.92856554 2.31250811,3.92856554 C1.9499824,3.92856554 1.65626703,3.64081971 1.65626703,3.28571883 C1.65624109,2.93059254 1.9499824,2.64287212 2.31250811,2.64287212 Z M14.3437849,13.3571279 L1.65624109,13.3571279 L1.65624109,4.57143766 L14.3437849,4.57143766 L14.3437849,13.3571279 L14.3437849,13.3571279 Z M9.71527698,7.36529945 L8.77372722,6.44477203 L5.9488704,9.20645593 L6.890498,10.127085 L9.71527698,7.36529945 Z M10.6569565,6.44477205 C10.7869489,6.31763624 10.7869489,6.11158063 10.6569565,5.98444481 L10.1860778,5.52414298 C10.0560594,5.39700716 9.84529531,5.39700716 9.71527696,5.52414298 L9.00911465,6.21462113 L9.95076819,7.1352502 L10.6569565,6.44477205 Z M11.3072558,11.3363241 L4.84089924,11.3363241 C4.65613359,11.3363241 4.50642179,11.4830818 4.50642179,11.6639746 C4.50642179,11.8450707 4.65613359,11.9916251 4.84089924,11.9916251 L11.3072817,11.9916251 C11.4920474,11.9916251 11.6417592,11.8450707 11.6417592,11.6639746 C11.6417592,11.4831072 11.4920214,11.3363241 11.3072558,11.3363241 Z M5.71151101,9.43640349 L5.39810218,10.6635616 L6.65324237,10.3572359 L5.71151101,9.43640349 Z" id="形状" stroke="#9B9B9B" stroke-width="0.3" fill="#9B9B9B" fill-rule="nonzero"></path>
                </g>
            </g>
        </g>
    </g>
</svg>