<?xml version="1.0" encoding="UTF-8"?>
<svg width="16px" height="16px" viewBox="0 0 16 16" version="1.1" xmlns="http://www.w3.org/2000/svg" xmlns:xlink="http://www.w3.org/1999/xlink">
    <!-- Generator: Sketch 63.1 (92452) - https://sketch.com -->
    <title>矩形</title>
    <desc>Created with Sketch.</desc>
    <g id="分析研判" stroke="none" stroke-width="1" fill="none" fill-rule="evenodd">
        <g id="图标样式汇总" transform="translate(-783.000000, -664.000000)" fill-rule="nonzero">
            <g id="icon/hover/jiaotongliuliang" transform="translate(783.000000, 664.000000)">
                <g id="icon_jichu备份">
                    <rect id="矩形" fill-opacity="0.01" fill="#2E314F" opacity="0" x="0" y="0" width="16" height="16"></rect>
                    <path d="M1.78316044,12.1810699 C1.35063288,12.1810699 1,11.830437 1,11.3979094 L1,1.78316046 C1,1.35063289 1.35063287,1 1.78316044,1 L14.2168396,1 C14.6493671,1 15,1.35063289 15,1.78316046 L15,11.3981332 C15,11.8306608 14.6493671,12.1812937 14.2168396,12.1812937 L1.78316044,12.1810699 Z M14.0602075,2.25305672 C14.0602075,2.08004569 13.9199543,1.93979255 13.7469433,1.93979255 L2.25305672,1.93979255 C2.08004569,1.93979255 1.93979254,2.08004569 1.93979254,2.25305672 L1.93979254,10.9282369 C1.93979254,11.101248 2.08004569,11.2415011 2.25305672,11.2415011 L13.747167,11.2415011 C13.9201781,11.2415011 14.0604312,11.101248 14.0604312,10.9282369 L14.0602075,2.25305672 Z M7.72980965,3.43160133 L7.72980965,9.76401297 C7.72980965,9.96159316 7.93969664,10.1220292 8.19836335,10.1220292 C8.45703006,10.1220292 8.66825963,9.96181694 8.66825963,9.76401297 L8.66825963,3.43160133 C8.66825963,3.23402114 8.45837263,3.07358512 8.19836335,3.07358512 C7.93835407,3.07358512 7.72980963,3.23379737 7.72980965,3.43160133 Z M10.6881423,9.76401297 C10.6881423,9.96159316 10.8980293,10.1220292 11.156696,10.1220292 C11.4153627,10.1220292 11.6254735,9.96181694 11.6254735,9.76401297 L11.6254735,7.61591573 C11.6254735,7.41833554 11.4153627,7.25789953 11.156696,7.25789953 C10.8980293,7.25789953 10.6881423,7.41811178 10.6881423,7.61591573 L10.6881423,9.76401297 Z M4.68353924,9.76401297 C4.68353924,9.96159316 4.89342624,10.1220292 5.15209296,10.1220292 C5.41075968,10.1220292 5.62198923,9.96181694 5.62198923,9.76401297 L5.62198923,6.38523503 C5.62198923,6.18765484 5.41210224,6.02721882 5.15209296,6.02721882 C4.89208368,6.02721882 4.68353924,6.18743106 4.68353924,6.38523503 L4.68353924,9.76401297 Z M2.8323717,14.0602074 L13.1676283,14.0602074 C13.4271448,14.0602074 13.6375246,14.2705872 13.6375246,14.5301037 C13.6375246,14.7896203 13.4271448,15 13.1676283,15 L2.8323717,15 C2.57285515,15 2.36247542,14.7896203 2.36247542,14.5301037 C2.36247542,14.2705872 2.57285515,14.0602074 2.8323717,14.0602074 Z" id="形状" stroke="#5C658D" stroke-width="0.3" fill="#5C658D"></path>
                </g>
            </g>
        </g>
    </g>
</svg>