<?xml version="1.0" encoding="UTF-8"?>
<svg width="15px" height="15px" viewBox="0 0 15 15" version="1.1" xmlns="http://www.w3.org/2000/svg" xmlns:xlink="http://www.w3.org/1999/xlink">
    <!-- Generator: Sketch 63.1 (92452) - https://sketch.com -->
    <title>icon/normal/去重</title>
    <desc>Created with Sketch.</desc>
    <g id="分析研判" stroke="none" stroke-width="1" fill="none" fill-rule="evenodd">
        <g id="1-运算组件" transform="translate(-325.000000, -711.000000)" fill="#000000">
            <g id="icon/normal/去重" transform="translate(325.000000, 711.000000)">
                <g id="去重">
                    <rect id="矩形" fill-rule="nonzero" opacity="0" x="0" y="0" width="16" height="16"></rect>
                    <path d="M1.433,12 L4,12 L4,4.716 C4,4.321 4.322,4 4.717,4 L12,4 L12,1.433 L1.433,1.433 L1.433,12 Z M4.717,14.433 C4.322,14.433 4,14.111 4,13.716 L4,12.433 L1.717,12.433 C1.322,12.433 1,12.111 1,11.716 L1,1.716 C1,1.321 1.322,1 1.717,1 L11.717,1 C12.112,1 12.433,1.321 12.433,1.716 L12.433,4 L13.717,4 C14.112,4 14.433,4.321 14.433,4.716 L14.433,7.823 C14.433,7.944 14.424,8.002 14.226,8.002 C14,8.002 14,7.915 14,7.823 L14,4.433 L4.433,4.433 L4.433,14 L7.86,14 C7.978,14 8.049,14.081 8.049,14.216 C8.049,14.325 8.034,14.405 7.841,14.433 L4.717,14.433 Z M11.211,14.598 C11.144,14.598 11.08,14.571 11.032,14.523 C10.986,14.478 10.959,14.413 10.959,14.347 C10.959,14.281 10.986,14.217 11.033,14.17 L13.277,11.927 L7.473,11.927 C7.334,11.927 7.223,11.815 7.223,11.677 C7.223,11.539 7.334,11.426 7.473,11.426 L13.277,11.426 L11.033,9.183 C10.97,9.121 10.945,9.027 10.969,8.941 C10.992,8.854 11.059,8.787 11.146,8.764 C11.162,8.763 11.177,8.762 11.191,8.762 C11.292,8.762 11.347,8.788 11.388,8.829 L14.058,11.499 C14.105,11.546 14.132,11.609 14.132,11.676 C14.132,11.743 14.105,11.806 14.059,11.853 L11.388,14.524 C11.342,14.571 11.277,14.598 11.211,14.598 L11.211,14.598 Z" id="Fill-1" stroke="#000000" stroke-width="0.3" fill-rule="nonzero" opacity="0.5"></path>
                </g>
            </g>
        </g>
    </g>
</svg>