<?xml version="1.0" encoding="UTF-8"?>
<svg width="16px" height="16px" viewBox="0 0 16 16" version="1.1" xmlns="http://www.w3.org/2000/svg" xmlns:xlink="http://www.w3.org/1999/xlink">
    <!-- Generator: Sketch 63.1 (92452) - https://sketch.com -->
    <title>icon/Operation/Download备份 17</title>
    <desc>Created with Sketch.</desc>
    <g id="分析研判" stroke="none" stroke-width="1" fill="none" fill-rule="evenodd">
        <g id="图标样式汇总" transform="translate(-783.000000, -514.000000)">
            <g id="icon/Operation/daochu备份" transform="translate(783.000000, 514.000000)">
                <g id="icon/Operation/Download">
                    <rect id="矩形" fill="#FFFFFF" fill-rule="nonzero" opacity="0.01" x="0" y="0" width="16" height="16"></rect>
                    <path d="M14.32,10.7423529 C14.6292795,10.7423529 14.88,10.9930734 14.88,11.3023529 L14.88,11.3023529 L14.88,12.2623529 C14.88,13.4994729 13.87712,14.5023529 12.64,14.5023529 L12.64,14.5023529 L3.36,14.5023529 C2.12288,14.5023529 1.12,13.4994729 1.12,12.2623529 L1.12,12.2623529 L1.12,11.3023529 C1.12,11.1022842 1.22673539,10.917413 1.4,10.8173787 C1.5732646,10.7173443 1.7867354,10.7173443 1.96,10.8173787 C2.13326461,10.917413 2.24,11.1022842 2.24,11.3023529 L2.24,11.3023529 L2.24,12.2623529 C2.24,12.8809129 2.74144,13.3823529 3.36,13.3823529 L3.36,13.3823529 L12.64,13.3823529 C13.25856,13.3823529 13.76,12.8809129 13.76,12.2623529 L13.76,12.2623529 L13.76,11.3023529 C13.76,10.9930734 14.0107205,10.7423529 14.32,10.7423529 Z M8.00864,1.74058753 C8.1224616,1.74033423 8.23331346,1.77690132 8.32464,1.84483428 C8.364,1.87291428 8.39976,1.90563428 8.43064,1.94267428 L12.2332,5.74531428 C12.34224,5.85427428 12.40288,5.99499428 12.4064,6.14243428 C12.410133,6.28639971 12.3576178,6.42615342 12.26,6.53203428 L12.252,6.54003428 C12.1510477,6.63670171 12.0164896,6.69037004 11.87672,6.68971428 C11.7212452,6.68934511 11.5726386,6.62561531 11.4652,6.51323428 L8.56,3.60803428 L8.56,11.4205143 C8.56,11.7297937 8.30927946,11.9805143 8,11.9805143 C7.69072054,11.9805143 7.44,11.7297937 7.44,11.4205143 L7.44,3.61091428 L4.53792,6.51307428 C4.42888,6.62211428 4.28824,6.68275428 4.1408,6.68627428 L4.12736,6.68643428 C3.98496,6.68643428 3.85224,6.63275428 3.75112,6.53987428 L3.74312,6.53187428 C3.53536,6.31571428 3.54368,5.96331428 3.76992,5.74507428 L7.55968,1.95531428 C7.61000237,1.89119032 7.67369309,1.83880177 7.74632,1.80179428 L7.77464,1.78811428 L7.77464,1.78811428 C7.77816,1.78659428 7.7816,1.78483428 7.7852,1.78339428 C7.8512,1.75523428 7.922,1.74075428 7.9936,1.74075428 L8.00864,1.74058753 L8.00864,1.74058753 Z" id="形状结合" fill="#5C658D" fill-rule="nonzero"></path>
                </g>
            </g>
        </g>
    </g>
</svg>