<?xml version="1.0" encoding="UTF-8"?>
<svg width="16px" height="16px" viewBox="0 0 16 16" version="1.1" xmlns="http://www.w3.org/2000/svg" xmlns:xlink="http://www.w3.org/1999/xlink">
    <!-- Generator: Sketch 63.1 (92452) - https://sketch.com -->
    <title>预案管理备份 4</title>
    <desc>Created with Sketch.</desc>
    <g id="分析研判" stroke="none" stroke-width="1" fill="none" fill-rule="evenodd">
        <g id="模版管理-查看" transform="translate(-484.000000, -372.000000)" fill="#000000" fill-rule="nonzero">
            <g id="编组" transform="translate(380.000000, 246.000000)">
                <g id="编组-3" transform="translate(104.000000, 124.000000)">
                    <g id="预案管理备份-4" transform="translate(0.000000, 2.000000)">
                        <rect id="矩形" opacity="0" x="0" y="0" width="16" height="16"></rect>
                        <path d="M12.55,1 C13.439,1 14.16,1.721 14.16,2.61 L14.1606673,6.34330191 C14.6525409,6.53841645 15,7.01833068 15,7.58 L15,13.32 C15,14.055 14.405,14.65 13.67,14.65 L2.33,14.65 C1.595,14.65 1,14.055 1,13.32 L1,5.9 C1,5.33833068 1.3474591,4.85841645 1.83933267,4.66330191 L1.84,2.61 C1.84,1.721 2.561,1 3.45,1 L12.55,1 Z M6.614,5.55 L2.33,5.55 C2.134,5.55 1.98,5.704 1.98,5.9 L1.98,13.32 C1.98,13.516 2.134,13.67 2.33,13.67 L13.67,13.67 C13.866,13.67 14.02,13.516 14.02,13.32 L14.02,7.58 C14.02,7.384 13.866,7.23 13.67,7.23 L7.594,7.23 C7.244,7.23 6.964,6.95 6.964,6.6 L6.964,5.9 C6.964,5.704 6.81,5.55 6.614,5.55 Z M12.55,1.98 L3.45,1.98 C3.1,1.98 2.82,2.26 2.82,2.61 L2.82,4.569 L6.614,4.57 C7.349,4.57 7.944,5.165 7.944,5.9 L7.944,6.25 L13.18,6.249 L13.18,2.61 C13.18,2.26 12.9,1.98 12.55,1.98 Z M11.22,4.5 C11.493,4.5 11.71,4.717 11.71,4.99 C11.71,5.263 11.493,5.48 11.22,5.48 L9.19,5.48 C8.917,5.48 8.7,5.263 8.7,4.99 C8.7,4.717 8.917,4.5 9.19,4.5 L11.22,4.5 Z M11.22,2.75 C11.493,2.75 11.71,2.967 11.71,3.24 C11.71,3.513 11.493,3.73 11.22,3.73 L4.78,3.73 C4.507,3.73 4.29,3.513 4.29,3.24 C4.29,2.967 4.507,2.75 4.78,2.75 L11.22,2.75 Z" id="形状结合" opacity="0.5"></path>
                    </g>
                </g>
            </g>
        </g>
    </g>
</svg>