<?xml version="1.0" encoding="UTF-8"?>
<svg width="14px" height="14px" viewBox="0 0 14 14" version="1.1" xmlns="http://www.w3.org/2000/svg" xmlns:xlink="http://www.w3.org/1999/xlink">
    <!-- Generator: Sketch 63.1 (92452) - https://sketch.com -->
    <title>icon/normal/过滤</title>
    <desc>Created with Sketch.</desc>
    <g id="分析研判" stroke="none" stroke-width="1" fill="none" fill-rule="evenodd">
        <g id="1-运算组件" transform="translate(-326.000000, -568.000000)" fill="#000000">
            <g id="icon/normal/过滤" transform="translate(325.000000, 567.000000)">
                <g id="过滤">
                    <rect id="矩形" fill-rule="nonzero" opacity="0" x="0" y="0" width="16" height="16"></rect>
                    <path d="M13.675,2.3 L9.825,6.65 L9.625,6.875 L9.625,13.675 L9.6,13.65 L9.55,13.625 L6.375,11.6 L6.375,6.85 L6.175,6.625 L2.325,2.3 L13.675,2.3 M13.675,1.5 L2.325,1.5 C1.625,1.5 1.25,2.325 1.7,2.85 L5.575,7.2 L5.575,11.625 C5.575,11.9 5.725,12.175 5.95,12.3 L9.125,14.325 C9.275,14.45 9.45,14.5 9.625,14.5 C10.05,14.5 10.45,14.175 10.45,13.675 L10.45,7.175 L14.325,2.825 C14.75,2.325 14.375,1.5 13.675,1.5 L13.675,1.5 Z" id="形状" fill-rule="nonzero" opacity="0.5"></path>
                </g>
            </g>
        </g>
    </g>
</svg>