<?xml version="1.0" encoding="UTF-8"?>
<svg width="16px" height="16px" viewBox="0 0 16 16" version="1.1" xmlns="http://www.w3.org/2000/svg" xmlns:xlink="http://www.w3.org/1999/xlink">
    <!-- Generator: Sketch 63.1 (92452) - https://sketch.com -->
    <title>icon/Operation/suanfazujian</title>
    <desc>Created with Sketch.</desc>
    <g id="分析研判" stroke="none" stroke-width="1" fill="none" fill-rule="evenodd">
        <g id="图标样式汇总" transform="translate(-1404.000000, -807.000000)">
            <g id="icon/Operation/suanfazujian" transform="translate(1404.000000, 807.000000)">
                <g id="算法">
                    <rect id="矩形" fill="#FFFFFF" fill-rule="nonzero" opacity="0.01" x="0" y="0" width="15.9688109" height="15.9688109"></rect>
                    <path d="M11.2123678,3.96683938 C11.392188,4.15544041 11.407173,4.43108808 11.2498303,4.5761658 L5.30827187,9.89326425 C5.14343671,10.038342 4.86621393,10.0020725 4.67890124,9.8134715 C4.49908106,9.62487047 4.48409605,9.3492228 4.64143871,9.20414508 L10.5829971,3.88704663 C10.7553248,3.74196891 11.0325476,3.77823834 11.2123678,3.96683938 Z M14.479101,1 L1.40467547,1 C0.872707438,1 0.445634511,1.42072539 0.445634511,1.92849741 L0.445634511,11.8590674 C0.445634511,12.3740933 0.880199946,12.7875648 1.40467547,12.7875648 L6.55202812,12.7875648 L6.55202812,14.0569948 L3.04553461,14.0569948 C2.77580434,14.0569948 2.55852162,14.2673575 2.55852162,14.5284974 C2.55852162,14.7896373 2.77580434,15 3.04553461,15 L12.8382419,15 C13.1079722,15 13.3252549,14.7896373 13.3252549,14.5284974 C13.3252549,14.2746114 13.1079722,14.0642487 12.8382419,14.0569948 L9.36921093,14.0569948 L9.36921093,12.7875648 L14.4865936,12.7875648 C15.0185616,12.7875648 15.4456345,12.3668394 15.4456345,11.8590674 L15.4456345,1.92124352 C15.438142,1.4134715 15.0035766,1 14.479101,1 Z M14.1419382,11.8373057 L1.76431583,11.8373057 C1.58449565,11.8373057 1.4346455,11.692228 1.4346455,11.5108808 L1.4346455,2.26217617 C1.4346455,2.0880829 1.58449565,1.94300518 1.76431583,1.94300518 L14.1494307,1.94300518 C14.3292509,1.94300518 14.479101,2.0880829 14.479101,2.26217617 L14.479101,11.5181347 C14.4716085,11.692228 14.3217584,11.8373057 14.1419382,11.8373057 Z M5.54803211,7.17305699 C4.58149865,7.17305699 3.79478536,6.41139896 3.79478536,5.47564767 C3.79478536,4.53989637 4.58149865,3.77823834 5.54803211,3.77823834 C6.51456558,3.77823834 7.30127887,4.53989637 7.30127887,5.47564767 C7.30127887,6.41139896 6.51456558,7.17305699 5.54803211,7.17305699 Z M5.54803211,4.71398964 C5.11346668,4.71398964 4.76881133,5.05492228 4.76881133,5.46839378 C4.76881133,5.88911917 5.12095919,6.22279793 5.54803211,6.22279793 C5.97510504,6.22279793 6.32725289,5.88186528 6.32725289,5.46839378 C6.32725289,5.05492228 5.98259755,4.71398964 5.54803211,4.71398964 Z M10.3432369,10.0093264 C9.37670344,10.0093264 8.58999016,9.24766839 8.58999016,8.3119171 C8.58999016,7.3761658 9.37670344,6.61450777 10.3432369,6.61450777 C11.3097704,6.61450777 12.0964837,7.3761658 12.0964837,8.3119171 C12.1039762,9.24766839 11.3097704,10.0093264 10.3432369,10.0093264 Z M10.3432369,7.55025907 C9.90867147,7.55025907 9.56401613,7.89119171 9.56401613,8.30466321 C9.56401613,8.71813472 9.91616398,9.05906736 10.3432369,9.05906736 C10.7703098,9.05906736 11.1224577,8.71813472 11.1224577,8.30466321 C11.1224577,7.89119171 10.7778023,7.55025907 10.3432369,7.55025907 Z" id="形状" fill="#9B9B9B" fill-rule="nonzero"></path>
                </g>
            </g>
        </g>
    </g>
</svg>