<?xml version="1.0" encoding="UTF-8"?>
<svg width="12px" height="12px" viewBox="0 0 12 12" version="1.1" xmlns="http://www.w3.org/2000/svg" xmlns:xlink="http://www.w3.org/1999/xlink">
    <!-- Generator: Sketch 63.1 (92452) - https://sketch.com -->
    <title>重要</title>
    <desc>Created with Sketch.</desc>
    <g id="分析研判" stroke="none" stroke-width="1" fill="none" fill-rule="evenodd">
        <g id="图标样式汇总" transform="translate(-1101.000000, -499.000000)">
            <g id="Tag/Success备份-3" transform="translate(1099.000000, 495.000000)">
                <g id="编组-16">
                    <g id="重要" transform="translate(0.000000, 2.000000)">
                        <rect id="矩形" fill="#FFFFFF" opacity="0" x="0" y="0" width="16" height="16"></rect>
                        <path d="M8,2 C9.56923077,2 11.1384615,2.64615385 12.2461539,3.75384615 C13.3538461,4.86153846 14,6.43076923 14,8 C14,9.56923077 13.3538462,11.1384616 12.2461539,12.2461539 C11.1384615,13.3538461 9.56923077,14 8,14 C6.43076923,14 4.86153845,13.3538462 3.75384615,12.2461539 C2.64615385,11.1384615 2,9.56923077 2,8 C2,6.43076923 2.64615385,4.86153846 3.75384615,3.75384615 C4.86153846,2.64615385 6.43076923,2 8,2 Z M7.55088379,4.50487522 L5.72284001,7.72811835 C5.51102927,8.07800454 5.76295238,8.525 6.17195622,8.525 L8.90206127,8.525 L7.54864363,10.9642495 C7.40055053,11.2135267 7.48257648,11.5356591 7.73185373,11.6837522 C7.98113097,11.8318452 8.30326328,11.7498193 8.45135637,11.5005421 L10.2759742,8.26814627 C10.4838814,7.9181872 10.2316765,7.475 9.82461785,7.475 L7.10348098,7.475 L8.44911621,5.04863852 C8.5992723,4.80059849 8.51992168,4.47779675 8.27188165,4.32764066 C8.02384162,4.17748457 7.70103988,4.25683518 7.55088379,4.50487522 Z" id="紧急" fill="#FF6B6B" fill-rule="nonzero"></path>
                    </g>
                </g>
            </g>
        </g>
    </g>
</svg>