<?xml version="1.0" encoding="UTF-8"?>
<svg width="12px" height="12px" viewBox="0 0 12 12" version="1.1" xmlns="http://www.w3.org/2000/svg" xmlns:xlink="http://www.w3.org/1999/xlink">
    <!-- Generator: Sketch 63.1 (92452) - https://sketch.com -->
    <title>失效</title>
    <desc>Created with Sketch.</desc>
    <g id="分析研判" stroke="none" stroke-width="1" fill="none" fill-rule="evenodd">
        <g id="图标样式汇总" transform="translate(-978.000000, -466.000000)">
            <g id="Tag/Success" transform="translate(976.000000, 462.000000)">
                <g id="编组-16">
                    <g id="失效" transform="translate(0.000000, 2.000000)">
                        <rect id="矩形" fill-opacity="0" fill="#FFFFFF" x="0" y="0" width="16" height="16"></rect>
                        <path d="M8,2 C9.56923077,2 11.1384615,2.64615385 12.2461539,3.75384615 C13.3538461,4.86153846 14,6.43076923 14,8 C14,9.56923077 13.3538462,11.1384616 12.2461539,12.2461539 C11.1384615,13.3538461 9.56923077,14 8,14 C6.43076923,14 4.86153845,13.3538462 3.75384615,12.2461539 C2.64615385,11.1384615 2,9.56923077 2,8 C2,6.43076923 2.64615385,4.86153846 3.75384615,3.75384615 C4.86153846,2.64615385 6.43076923,2 8,2 Z M11.1035483,7.49415963 L4.95106126,7.52524336 C4.60391053,7.53339414 4.34542207,7.80106678 4.34939164,8.14829049 C4.35336524,8.49586691 4.61839025,8.75179859 4.96589361,8.74363953 L11.1176899,8.71256566 C11.4655314,8.70440502 11.7240199,8.43673238 11.7200503,8.08950867 C11.7160767,7.74193225 11.4510517,7.48600058 11.1035483,7.49415963 Z" id="形状结合" fill="#000000" fill-rule="nonzero" opacity="0.2"></path>
                    </g>
                </g>
            </g>
        </g>
    </g>
</svg>