<?xml version="1.0" encoding="UTF-8"?>
<svg width="15px" height="15px" viewBox="0 0 15 15" version="1.1" xmlns="http://www.w3.org/2000/svg" xmlns:xlink="http://www.w3.org/1999/xlink">
    <!-- Generator: Sketch 63.1 (92452) - https://sketch.com -->
    <title>icon/normal/计算公式</title>
    <desc>Created with Sketch.</desc>
    <g id="分析研判" stroke="none" stroke-width="1" fill="none" fill-rule="evenodd">
        <g id="1-运算组件" transform="translate(-326.000000, -748.000000)" fill="#000000">
            <g id="icon/normal/计算公式" transform="translate(325.000000, 747.000000)">
                <g id="计算公式">
                    <rect id="矩形" fill-rule="nonzero" opacity="0" x="0" y="0" width="16" height="16"></rect>
                    <path d="M13.6533333,1 C14.7284476,1 15.6,1.87155235 15.6,2.94666667 L15.6,13.6533333 C15.6,14.7284476 14.7284476,15.6 13.6533333,15.6 L2.94666667,15.6 C1.87155235,15.6 1,14.7284476 1,13.6533333 L1,2.94666667 C1,1.87155235 1.87155235,1 2.94666667,1 L13.6533333,1 Z M13.6533333,1.83428571 L2.94666667,1.83428571 C2.37327237,1.83428571 1.90120669,2.26812511 1.84081301,2.82546051 L1.83428571,2.94666667 L1.83428571,13.6533333 C1.83428571,14.2267276 2.26812511,14.6987933 2.82546051,14.759187 L2.94666667,14.7657143 L13.6533333,14.7657143 C14.2267276,14.7657143 14.6987933,14.3318749 14.759187,13.7745395 L14.7657143,13.6533333 L14.7657143,2.94666667 C14.7657143,2.37327237 14.3318749,1.90120669 13.7745395,1.84081301 L13.6533333,1.83428571 Z M8.42732993,3.60891356 C8.73005808,3.63122509 9.03952546,3.74844359 9.23658477,3.98142525 C9.36970363,4.14001372 9.4041449,4.38032556 9.28924934,4.55757653 C9.15420186,4.76625628 8.92892548,4.89299864 8.72017389,5.02132476 C8.65515955,4.99838186 8.59241354,4.97019549 8.52955794,4.94235155 C8.48525439,4.78678075 8.42722035,4.62726129 8.31007839,4.5089834 C8.11398339,4.33268481 7.80140392,4.33268481 7.57688364,4.45628109 C7.33714258,4.5791604 7.17826126,4.80637424 7.05125701,5.03252868 C6.68965105,5.7186646 6.59225556,6.49458171 6.42800477,7.23968001 L8.16342629,7.23979772 L8.16342629,7.23979772 C8.56794412,7.22063227 8.97696573,7.21517477 9.37482105,7.12718064 C9.41934377,7.18783378 9.47608475,7.23947669 9.51577495,7.30358624 C9.39381142,7.57332576 9.20673493,7.86579415 8.89425408,7.94278768 C8.56986179,8.0164211 8.23550859,8.00563451 7.90597696,8.02544202 L6.26688799,8.02512099 L6.26688799,8.02512099 C6.03614352,9.13917826 5.81002337,10.2542842 5.58101028,11.3687481 C5.50935534,11.7207247 5.42986536,12.0737392 5.41398709,12.4331529 C5.39082169,12.6265302 5.41141194,12.8325775 5.51096618,13.004799 C5.47051987,13.0726753 5.47933017,13.1930399 5.38094846,13.2061272 C5.13852266,13.2755766 4.89019046,13.3517247 4.63456017,13.3346674 C4.50969276,13.3188513 4.38387198,13.2632276 4.31082537,13.1594068 C4.21566532,13.0183037 4.20559484,12.8418981 4.21920479,12.6783872 C4.26179888,12.1680148 4.38128587,11.667605 4.48126747,11.1658469 C4.69322978,10.1184139 4.91560227,9.0727573 5.11898439,8.02396528 C4.75940568,8.039471 4.39705456,8.13008687 4.09626599,8.32869699 C4.025148,8.29663687 3.96068156,8.24406297 3.8939468,8.20141958 C3.95927893,7.91576771 4.02417273,7.59165653 4.27571565,7.40246326 C4.57693159,7.22658201 4.94841079,7.25560306 5.28040799,7.23203951 C5.42242482,6.56906051 5.53603828,5.88826437 5.83498589,5.26989774 C6.0585309,4.76582824 6.43623429,4.33350878 6.90393647,4.02971876 C7.34690624,3.73315189 7.88981378,3.57224131 8.42732993,3.60891356 Z M12.5585512,8.78226859 C12.70711,8.94505184 12.6738741,9.20787853 12.5161763,9.35306938 C12.0571748,9.79083563 11.6163967,10.2449316 11.1840891,10.7067001 C11.7068119,11.28054 12.176881,11.9006937 12.5895407,12.5546625 C12.6810407,12.7242622 12.6398493,12.9605933 12.4760478,13.074548 C12.3362773,13.1682993 12.1406097,13.1471327 12.0099674,13.047314 C11.9117172,12.9853982 11.8728707,12.8734232 11.8064757,12.7850117 C11.4703911,12.260621 11.0750014,11.775503 10.6697384,11.3013855 C10.2396991,11.8069317 9.85062126,12.3447307 9.47827637,12.8918609 C9.39449082,13.0008076 9.26362933,13.0884807 9.11828124,13.074869 C8.9227232,13.0895401 8.75560139,12.9137551 8.75281803,12.7286603 C8.7429448,12.5951015 8.8133286,12.4740092 8.88862163,12.3681979 C9.25333969,11.8092217 9.65989573,11.2772869 10.0874803,10.7629445 C10.1102293,10.7404189 10.1458322,10.7099318 10.1101088,10.6810285 C9.70538275,10.2461943 9.27757898,9.83168126 8.86158802,9.40669198 C8.70753921,9.27260874 8.66399177,9.01953064 8.80666608,8.86280414 C8.9629613,8.69446708 9.25828178,8.70284594 9.41617688,8.86541518 L10.2488796,9.69757147 C10.3866836,9.83714589 10.5231447,9.97793508 10.6569832,10.1210999 C11.0770505,9.66804193 11.5071117,9.22188611 11.963538,8.80277166 C12.1162718,8.64640899 12.399889,8.62251371 12.5585512,8.78226859 Z" id="形状结合" fill-rule="nonzero" opacity="0.5"></path>
                </g>
            </g>
        </g>
    </g>
</svg>