<?xml version="1.0" encoding="UTF-8"?>
<svg width="14px" height="14px" viewBox="0 0 14 14" version="1.1" xmlns="http://www.w3.org/2000/svg" xmlns:xlink="http://www.w3.org/1999/xlink">
    <!-- Generator: Sketch 63.1 (92452) - https://sketch.com -->
    <title>icon/normal/伪码</title>
    <desc>Created with Sketch.</desc>
    <g id="分析研判" stroke="none" stroke-width="1" fill="none" fill-rule="evenodd">
        <g id="1-运算组件" transform="translate(-326.000000, -784.000000)" fill="#000000">
            <g id="icon/normal/伪码" transform="translate(325.000000, 783.000000)">
                <g id="防伪码">
                    <rect id="矩形" fill-rule="nonzero" opacity="0" x="0" y="0" width="16" height="16"></rect>
                    <path d="M14.1789844,14.3766563 L13.8039062,14.3766563 C13.7011875,14.3766563 13.6171406,14.2925937 13.6171406,14.1898906 L13.6171406,9.31515625 C13.6171406,9.2124375 13.7011875,9.12839062 13.8039062,9.12839062 L14.179,9.12839062 C14.2817344,9.12839062 14.3657812,9.2124375 14.3657812,9.31515625 L14.3657812,14.189875 C14.3657812,14.2925937 14.2832812,14.3766563 14.179,14.3766563 L14.1789844,14.3766563 Z M14.1789844,8.37665625 L1.80390625,8.37665625 C1.7011875,8.37665625 1.61714062,8.29259375 1.61714062,8.18989063 L1.61714062,7.81478125 C1.61714062,7.7120625 1.7011875,7.62801562 1.80390625,7.62801562 L14.179,7.62801562 C14.2817344,7.62801562 14.3657812,7.7120625 14.3657812,7.81478125 L14.3657812,8.18989063 C14.3657812,8.29260937 14.2832812,8.37665625 14.179,8.37665625 L14.1789844,8.37665625 Z M13.6171094,6.87626563 L9.86615625,6.87626563 C9.45215625,6.87626563 9.11596875,6.54007812 9.11596875,6.1260625 L9.11596875,2.37665625 C9.11596875,1.96264062 9.45215625,1.62645312 9.86615625,1.62645312 L13.6155781,1.62645312 C14.0295937,1.62645312 14.3657812,1.96264062 14.3657812,2.37665625 L14.3657812,6.1260625 C14.3657812,6.54164062 14.0311406,6.87626563 13.6171406,6.87626563 L13.6171094,6.87626563 Z M13.6171094,2.37665625 L9.86615625,2.37665625 L9.86615625,6.1260625 L13.6155781,6.1260625 L13.6155781,2.37665625 L13.6171094,2.37665625 Z M8.179,6.87626563 L7.80390625,6.87626563 C7.7011875,6.87626563 7.61714062,6.7921875 7.61714062,6.68948437 L7.61714062,1.81478125 C7.61714062,1.7120625 7.7011875,1.62801507 7.80390625,1.62801507 L8.179,1.62801507 C8.22857166,1.62789494 8.27614798,1.64753271 8.31120201,1.68258381 C8.34625604,1.7176349 8.36589779,1.76520958 8.36578125,1.81478125 L8.36578125,6.6895 C8.36734375,6.79221875 8.28328125,6.87626563 8.179,6.87626563 L8.179,6.87626563 Z M6.11675,6.87626562 L2.3673125,6.87626562 C1.9533125,6.87626562 1.617125,6.5400625 1.617125,6.12604688 L1.617125,2.37665625 C1.617125,1.96264062 1.9533125,1.62645312 2.3673125,1.62645312 L6.11673437,1.62645312 C6.53073437,1.62645312 6.86692187,1.96264062 6.86692187,2.37665625 L6.86692187,6.1260625 C6.86692187,6.54164062 6.53073437,6.87626562 6.11673437,6.87626562 L6.11675,6.87626562 Z M6.11675,2.37664062 L2.3673125,2.37664062 L2.3673125,6.12604687 L6.11675,6.12604687 L6.11675,2.37664062 L6.11675,2.37664062 Z M2.3673125,9.12684375 L6.11673437,9.12684375 C6.53073437,9.12684375 6.86692187,9.46303125 6.86692187,9.87704687 L6.86692187,13.6264531 C6.86692187,14.0404688 6.53073437,14.3766563 6.11673437,14.3766563 L2.3673125,14.3766563 C1.9533125,14.3766563 1.617125,14.0404688 1.617125,13.6264531 L1.617125,9.87704687 C1.617125,9.46303125 1.95175,9.12684375 2.3673125,9.12684375 L2.3673125,9.12684375 Z M2.3673125,13.6264531 L6.11673437,13.6264531 L6.11673437,9.87704687 L2.3673125,9.87704687 L2.3673125,13.6264531 L2.3673125,13.6264531 Z M7.80390625,9.1268432 L8.179,9.1268432 C8.22857437,9.12672304 8.27615308,9.14636296 8.31120756,9.18141744 C8.34626204,9.21647192 8.36590196,9.26405063 8.3657818,9.313625 L8.3657818,13.0630312 C8.36590196,13.1126056 8.34626204,13.1601843 8.31120756,13.1952388 C8.27615308,13.2302933 8.22857437,13.2499332 8.179,13.2498131 L7.80390625,13.2498131 C7.7011875,13.2498131 7.61714062,13.16575 7.61714062,13.0630312 L7.61714062,9.31517187 C7.61714062,9.21089062 7.7011875,9.1268432 7.80390625,9.1268432 Z M10.0544844,10.6272339 L10.4295937,10.6272339 C10.4791627,10.6271178 10.526735,10.6467575 10.5617856,10.6818081 C10.5968363,10.7168587 10.6164759,10.764431 10.6163599,10.814 L10.6163599,14.1883281 C10.6163599,14.2910469 10.5322969,14.3750943 10.4295937,14.3750943 L10.0544844,14.3750943 C10.0049154,14.3752103 9.95734312,14.3555707 9.92229248,14.32052 C9.88724184,14.2854694 9.86760222,14.2378971 9.86771875,14.1883281 L9.86771875,10.814 C9.86615625,10.7112813 9.95021875,10.6272339 10.0544844,10.6272339 Z M11.9284219,9.87704687 L12.3035156,9.87704687 C12.4062344,9.87704687 12.4902813,9.96109375 12.4902813,10.0638125 L12.4902813,14.1883281 C12.4902813,14.2910469 12.4062344,14.3750943 12.3035156,14.3750943 L11.9284219,14.3750943 C11.8788529,14.3752103 11.8312806,14.3555707 11.79623,14.32052 C11.7611793,14.2854694 11.7415397,14.2378971 11.7416557,14.1883281 L11.7416557,10.0638125 C11.7416557,9.96109375 11.8257031,9.87704687 11.9284219,9.87704687 L11.9284219,9.87704687 Z" id="形状" fill-rule="nonzero" opacity="0.5"></path>
                </g>
            </g>
        </g>
    </g>
</svg>