<?xml version="1.0" encoding="UTF-8"?>
<svg width="16px" height="16px" viewBox="0 0 16 16" version="1.1" xmlns="http://www.w3.org/2000/svg" xmlns:xlink="http://www.w3.org/1999/xlink">
    <!-- Generator: Sketch 63.1 (92452) - https://sketch.com -->
    <title>icon/normal/统计</title>
    <desc>Created with Sketch.</desc>
    <g id="分析研判" stroke="none" stroke-width="1" fill="none" fill-rule="evenodd">
        <g id="1-运算组件" transform="translate(-325.000000, -531.000000)" fill="#000000">
            <g id="icon/normal/统计" transform="translate(325.000000, 531.000000)">
                <g id="统计">
                    <rect id="矩形" fill-rule="nonzero" opacity="0" x="0" y="0" width="16" height="16"></rect>
                    <path d="M5.41804052,1.47727273 C5.79064635,1.42424242 6.00356396,1.95454545 5.63095813,2.16666667 C3.34209377,3.12121212 1.74521165,5.40151515 1.74521165,8 C1.74521165,11.4469697 4.56637006,14.3106061 8.02628131,14.2575758 C10.6345221,14.2575758 12.8701571,12.719697 13.8282863,10.4924242 C14.0412039,10.1212121 14.6267274,10.3863636 14.4670392,10.7045455 C14.4670392,10.7045455 14.2008922,11.7121212 12.9766159,12.9318182 C12.337863,13.5681818 11.5926514,14.0984848 10.7942103,14.4166667 C9.94253984,14.7878788 9.03763998,15 8.02628131,15 C6.11002277,15 4.35345244,14.2045455 3.07594675,12.9318182 C1.79844106,11.6590909 1,9.90909091 1,8 C1,6.99242424 1.21291762,6.03787879 1.31937642,5.87878788 C1.95812927,3.91666667 3.39532317,2.32575758 5.31158171,1.53030303 C5.36481111,1.47727273 5.41804052,1.47727273 5.41804052,1.47727273 Z M8.02628131,1 C11.9120278,1 15.0525626,4.12878788 14.9993332,8 C14.9993332,8.26515152 14.7864156,8.47727273 14.5202686,8.47727273 L14.5202686,8.47727273 L8.02628131,8.47727273 C7.76013429,8.47727273 7.54721667,8.26515152 7.54721667,8 L7.54721667,8 L7.54721667,1.47727273 C7.54721667,1.21212121 7.76013429,1 8.02628131,1 Z" id="形状结合" stroke="#000000" stroke-width="0.1" fill-rule="nonzero" opacity="0.5"></path>
                </g>
            </g>
        </g>
    </g>
</svg>