<?xml version="1.0" encoding="UTF-8"?>
<svg width="12px" height="12px" viewBox="0 0 12 12" version="1.1" xmlns="http://www.w3.org/2000/svg" xmlns:xlink="http://www.w3.org/1999/xlink">
    <!-- Generator: Sketch 63.1 (92452) - https://sketch.com -->
    <title>成功</title>
    <desc>Created with Sketch.</desc>
    <g id="分析研判" stroke="none" stroke-width="1" fill="none" fill-rule="evenodd">
        <g id="图标样式汇总" transform="translate(-1101.000000, -432.000000)">
            <g id="Tag/Success备份" transform="translate(1099.000000, 428.000000)">
                <g id="编组-16">
                    <g id="成功" transform="translate(0.000000, 2.000000)">
                        <rect id="矩形" fill="#FFFFFF" opacity="0" x="0" y="0" width="16" height="16"></rect>
                        <path d="M8,2 C4.69165204,2 2,4.69165204 2,8 C2,11.308348 4.69165204,14 8,14 C11.308348,14 14,11.308348 14,8 C14,4.69165203 11.3083479,2 8,2 Z M11.3573949,6.8496069 L7.45554146,10.8496028 C7.36229267,10.945055 7.23438599,10.9992513 7.10084301,11.0000061 L7.0981405,11.0000061 C6.96559573,11.0000061 6.83839513,10.9472584 6.74463504,10.8535105 L4.64650063,8.75585088 C4.45115292,8.56079534 4.45115292,8.24415116 4.64650063,8.04885215 C4.84179964,7.85350444 5.15820035,7.85350444 5.35349936,8.04885215 L7.09424498,9.78904997 L10.6425929,6.15039919 C10.8359442,5.95315243 11.152844,5.9494517 11.3495917,6.142596 C11.5470941,6.33570378 11.5505513,6.65234796 11.3573949,6.8496069 Z" id="形状" fill="#3BC362" fill-rule="nonzero"></path>
                    </g>
                </g>
            </g>
        </g>
    </g>
</svg>