<?xml version="1.0" encoding="UTF-8"?>
<svg width="16px" height="16px" viewBox="0 0 16 16" version="1.1" xmlns="http://www.w3.org/2000/svg" xmlns:xlink="http://www.w3.org/1999/xlink">
    <!-- Generator: Sketch 64 (93537) - https://sketch.com -->
    <title></title>
    <desc>Created with Sketch.</desc>
    <g id="资源中心" stroke="none" stroke-width="1" fill="none" fill-rule="evenodd">
        <g id="画板备份-2" transform="translate(-523.000000, -96.000000)" fill-rule="nonzero">
            <g id="编组-3备份-6" transform="translate(507.000000, 88.000000)">
                <g id="icon/add2" transform="translate(16.000000, 8.000000)">
                    <g>
                        <rect id="矩形" fill="#FFFFFF" opacity="0.01" x="0" y="0" width="16" height="16"></rect>
                        <path d="M13.2,8 C13.2,8.28 13.0133333,8.46666667 12.7333333,8.46666667 L8.46666667,8.46666667 L8.46666667,12.7333333 C8.46666667,13.0133333 8.28,13.2 8,13.2 C7.72,13.2 7.53333333,13.0133333 7.53333333,12.7333333 L7.53333333,8.46666667 L3.26666667,8.46666667 C2.98666667,8.46666667 2.8,8.28 2.8,8 C2.8,7.72 2.98666667,7.53333333 3.26666667,7.53333333 L7.53333333,7.53333333 L7.53333333,3.26666667 C7.53333333,2.98666667 7.72,2.8 8,2.8 C8.28,2.8 8.46666667,2.98666667 8.46666667,3.26666667 L8.46666667,7.53333333 L12.7333333,7.53333333 C13.0133333,7.53333333 13.2,7.72 13.2,8 Z" id="形状" fill="#36A4FF"></path>
                    </g>
                </g>
            </g>
        </g>
    </g>
</svg>
