<?xml version="1.0" encoding="UTF-8"?>
<svg width="16px" height="16px" viewBox="0 0 16 16" version="1.1" xmlns="http://www.w3.org/2000/svg" xmlns:xlink="http://www.w3.org/1999/xlink">
    <!-- Generator: Sketch 64 (93537) - https://sketch.com -->
    <title></title>
    <desc>Created with Sketch.</desc>
    <g id="资源中心" stroke="none" stroke-width="1" fill="none" fill-rule="evenodd">
        <g id="画板备份-2" transform="translate(-754.000000, -96.000000)">
            <g id="编组-3备份-3" transform="translate(657.000000, 88.000000)">
                <g id="icon/关闭" transform="translate(97.000000, 8.000000)">
                    <rect id="矩形" fill="#FFFFFF" opacity="0.01" x="0" y="0" width="16" height="16"></rect>
                    <path d="M12.9949747,3.00502525 C13.2410051,3.25105556 13.2656081,3.63466313 13.0687838,3.90820889 L12.9949747,3.99497475 L8.989,8 L12.9949747,12.0050253 C13.2683418,12.2783923 13.2683418,12.7216077 12.9949747,12.9949747 C12.7489444,13.2410051 12.3653369,13.2656081 12.0917911,13.0687838 L12.0050253,12.9949747 L8,8.989 L3.99497475,12.9949747 C3.72160774,13.2683418 3.27839226,13.2683418 3.00502525,12.9949747 C2.75899495,12.7489444 2.73439192,12.3653369 2.93121616,12.0917911 L3.00502525,12.0050253 L7.011,8 L3.00502525,3.99497475 C2.73165825,3.72160774 2.73165825,3.27839226 3.00502525,3.00502525 C3.25105556,2.75899495 3.63466313,2.73439192 3.90820889,2.93121616 L3.99497475,3.00502525 L8,7.011 L12.0050253,3.00502525 C12.2783923,2.73165825 12.7216077,2.73165825 12.9949747,3.00502525 Z" id="形状结合" fill="#36A4FF" fill-rule="nonzero"></path>
                </g>
            </g>
        </g>
    </g>
</svg>
