<?xml version="1.0" encoding="UTF-8"?>
<svg width="16px" height="16px" viewBox="0 0 16 16" version="1.1" xmlns="http://www.w3.org/2000/svg" xmlns:xlink="http://www.w3.org/1999/xlink">
    <!-- Generator: Sketch 63.1 (92452) - https://sketch.com -->
    <title>icon/Operation/Delete备份 5</title>
    <desc>Created with Sketch.</desc>
    <g id="分析研判" stroke="none" stroke-width="1" fill="none" fill-rule="evenodd">
        <g id="图标样式汇总" transform="translate(-1404.000000, -834.000000)">
            <g id="icon/normal/jianqu备份-4" transform="translate(1404.000000, 834.000000)">
                <g id="添加">
                    <rect id="矩形" fill="#FFFFFF" fill-rule="nonzero" opacity="0.01" x="0" y="0" width="16" height="16"></rect>
                    <path d="M13.6666719,1.33332813 C14.2189566,1.33332813 14.6666719,1.78104338 14.6666719,2.33332813 L14.6666719,13.6666719 C14.6666719,14.2189566 14.2189566,14.6666719 13.6666719,14.6666719 L2.33332813,14.6666719 C1.78104338,14.6666719 1.33332813,14.2189566 1.33332813,13.6666719 L1.33332813,2.33332813 C1.33332813,1.78104338 1.78104338,1.33332813 2.33332813,1.33332813 L13.6666719,1.33332813 Z M13.6666719,2.33332813 L2.33332813,2.33332813 L2.33332813,13.6666719 L13.6666719,13.6666719 L13.6666719,2.33332813 Z" id="形状结合" fill="#9B9B9B" fill-rule="nonzero"></path>
                    <path d="M11.2605739,8.04479787 L8.38932019,5.24475941 C8.32298685,5.17552864 8.23632019,5.14229787 8.14998685,5.14299018 C8.13832019,5.14195172 8.12832019,5.1360671 8.11665352,5.1360671 C8.06798685,5.1360671 8.02265352,5.14783633 7.98098685,5.16722095 C7.93898685,5.18383633 7.89898685,5.20910557 7.86498685,5.24441326 L5.16365352,8.04479787 C5.03332019,8.17979787 5.03298685,8.39891326 5.16332019,8.53425941 C5.22832019,8.60210557 5.31365352,8.63602864 5.39932019,8.63602864 C5.48465352,8.63602864 5.56965352,8.60210557 5.63498685,8.53495172 L7.78332019,6.30745172 L7.78332019,11.7475079 C7.78332019,11.938931 7.93265352,12.0936618 8.11665352,12.0936618 C8.30065352,12.0936618 8.44998685,11.938931 8.44998685,11.7475079 L8.44998685,6.29049018 L10.7879073,8.5328748 C10.8529073,8.60072095 10.9389073,8.63499018 11.0242406,8.63499018 C11.1095739,8.63499018 11.1942406,8.60141326 11.2592406,8.53425941 C11.3902406,8.39960557 11.3905739,8.18014403 11.2605739,8.04479787 Z M11.2605739,4.44375941 L5.16365352,4.44375941 C4.97965352,4.44375941 4.83032019,4.28868249 4.83032019,4.09760557 C4.83032019,3.90652864 4.97965352,3.75145172 5.16365352,3.75145172 L11.2605739,3.75145172 C11.4449073,3.75145172 11.5939073,3.90652864 11.5939073,4.09760557 C11.5939073,4.28868249 11.4449073,4.44375941 11.2605739,4.44375941 Z" id="形状" stroke="#9B9B9B" stroke-width="0.2" fill="#9B9B9B" fill-rule="nonzero"></path>
                </g>
            </g>
        </g>
    </g>
</svg>