<?xml version="1.0" encoding="UTF-8"?>
<svg width="16px" height="16px" viewBox="0 0 16 16" version="1.1" xmlns="http://www.w3.org/2000/svg" xmlns:xlink="http://www.w3.org/1999/xlink">
    <!-- Generator: Sketch 63.1 (92452) - https://sketch.com -->
    <title>icon/normal/zhuce备份 2</title>
    <desc>Created with Sketch.</desc>
    <g id="分析研判" stroke="none" stroke-width="1" fill="none" fill-rule="evenodd">
        <g id="图标样式汇总" transform="translate(-668.000000, -745.000000)">
            <g id="icon/normal/zhuce备份-3" transform="translate(668.000000, 745.000000)">
                <g id="注册" stroke-width="1" fill-rule="evenodd">
                    <rect id="矩形" fill="#FFFFFF" fill-rule="nonzero" opacity="0.01" x="0" y="0" width="16" height="16"></rect>
                    <path d="M5.05078125,6.64268066 L9.0184375,6.64268066 C9.301875,6.64268066 9.53078125,6.87361816 9.53078125,7.15611816 C9.53078125,7.43861816 9.3003125,7.66955566 9.0184375,7.66955566 L5.05078125,7.66955566 C4.76734375,7.66955566 4.5384375,7.43861816 4.5384375,7.15611816 C4.5384375,6.87361816 4.76734375,6.64268066 5.05078125,6.64268066 Z M5.05078125,8.7978418 L7.06953125,8.7978418 C7.35296875,8.7978418 7.581875,9.0287793 7.581875,9.3112793 C7.581875,9.5937793 7.35140625,9.8247168 7.06953125,9.8247168 L5.05078125,9.8247168 C4.76734375,9.8247168 4.5384375,9.5937793 4.5384375,9.3112793 C4.5384375,9.0287793 4.76734375,8.7978418 5.05078125,8.7978418 Z" id="形状" stroke="#5C658D" stroke-width="0.2" fill="#5C658D" fill-rule="nonzero"></path>
                </g>
                <g id="查看报告" stroke-width="1" fill-rule="evenodd">
                    <rect id="矩形" fill="#000000" fill-rule="nonzero" opacity="0" x="0" y="0" width="15.8146718" height="15.8146718"></rect>
                    <path d="M2.90446359,4.54748535 L5.30297852,1.90547824 L12.6444792,1.90547824 C12.764107,1.90547824 12.8788352,1.95305058 12.9634248,2.03772987 C13.0480145,2.12240917 13.0955364,2.23725894 13.0955364,2.35701355 L13.0955364,9.37200563 C13.0955364,9.6220311 13.2980075,9.8247168 13.5477682,9.8247168 C13.7975289,9.8247168 14,9.6220311 14,9.37200563 L14,2.35701355 C14,1.99671817 13.8568647,1.65121382 13.6021469,1.39666719 C13.3474292,1.14212056 13.0020433,0.999431498 12.64213,1.00000342 L4.93649456,1.00000342 L2,4.1641507 L2,13.6430441 C2,14.3924711 2.60688731,14.9999149 3.35552075,14.9999149 L8.37784633,14.9999149 C8.62760705,14.9999149 8.83007812,14.797316 8.83007812,14.5472905 C8.83007812,14.2972651 8.62760705,14.0945794 8.37784633,14.0945794 L3.35552075,14.0945794 C3.10640876,14.0945794 2.90446359,13.8924201 2.90446359,13.6430441 L2.90446359,4.54748535 Z M5.43284566,1.97519801 L5.88805147,1.97519801 L6.37231297,1.97519801 L6.38684082,4.0000017 C6.38301056,4.32771744 6.25024126,4.64047358 6.01774563,4.86945563 C5.78525,5.09843767 5.47207647,5.22488506 5.14713137,5.22097606 L2.65750735,5.22097606 L2.65750735,4.6568859 L3.0279674,4.2954775 L5.15197399,4.2954775 C5.31150329,4.29548308 5.44120147,4.16576927 5.44253089,4.0048856 L5.43284566,1.97519801 Z" id="形状" stroke="#5C658D" stroke-width="0.3" fill="#5C658D" fill-rule="nonzero"></path>
                </g>
                <path d="M12.7219884,12.9947156 C13.4511157,11.8921963 13.2268633,10.4166526 12.2031031,9.58053621 C11.179343,8.74441981 9.6887415,8.81942315 8.75408232,9.75408232 C7.81942315,10.6887415 7.74441981,12.179343 8.58053621,13.2031031 C9.41665261,14.2268633 10.8921963,14.4511157 11.9947156,13.7219884 L13.1219884,14.8528974 C13.3228192,15.0537282 13.6484302,15.0537282 13.8492611,14.8528974 C14.0500919,14.6520666 14.0500919,14.3264555 13.8492611,14.1256247 L12.7219884,12.9947156 Z M10.5765338,13.1183563 C9.95112698,13.1198235 9.3864831,12.74422 9.14612993,12.1668413 C8.90577675,11.5894626 9.03710019,10.9241395 9.47880963,10.4813882 C9.92051907,10.038637 10.585531,9.90574664 11.1634743,10.144739 C11.7414177,10.3837314 12.118352,10.9474889 12.118352,11.5728974 C12.118352,11.9834083 11.9550298,12.3770528 11.6644139,12.6669865 C11.373798,12.9569202 10.9797708,13.1193179 10.5692611,13.1183563 L10.5765338,13.1183563 Z" id="形状" fill="#5C658D" fill-rule="nonzero"></path>
            </g>
        </g>
    </g>
</svg>