<?xml version="1.0" encoding="UTF-8"?>
<svg width="16px" height="16px" viewBox="0 0 16 16" version="1.1" xmlns="http://www.w3.org/2000/svg" xmlns:xlink="http://www.w3.org/1999/xlink">
    <!-- Generator: Sketch 63.1 (92452) - https://sketch.com -->
    <title>icon/normal/zhuce备份</title>
    <desc>Created with Sketch.</desc>
    <g id="分析研判" stroke="none" stroke-width="1" fill="none" fill-rule="evenodd">
        <g id="图标样式汇总" transform="translate(-668.000000, -769.000000)">
            <g id="icon/normal/zhuce备份-2" transform="translate(668.000000, 769.000000)">
                <g id="注册" stroke-width="1" fill-rule="evenodd">
                    <rect id="矩形" fill="#FFFFFF" fill-rule="nonzero" opacity="0.01" x="0" y="0" width="16" height="16"></rect>
                    <path d="M5.05078125,3.8734375 L10.8575,3.8734375 C11.1409375,3.8734375 11.3698437,4.104375 11.3698437,4.386875 C11.3698437,4.6709375 11.139375,4.9003125 10.8575,4.9003125 L5.05078125,4.9003125 C4.76734375,4.9003125 4.5384375,4.669375 4.5384375,4.386875 C4.5384375,4.1028125 4.76734375,3.8734375 5.05078125,3.8734375 Z M5.05078125,6.22390625 L9.0184375,6.22390625 C9.301875,6.22390625 9.53078125,6.45484375 9.53078125,6.73734375 C9.53078125,7.01984375 9.3003125,7.25078125 9.0184375,7.25078125 L5.05078125,7.25078125 C4.76734375,7.25078125 4.5384375,7.01984375 4.5384375,6.73734375 C4.5384375,6.45484375 4.76734375,6.22390625 5.05078125,6.22390625 Z M5.05078125,8.574375 L7.06953125,8.574375 C7.35296875,8.574375 7.581875,8.8053125 7.581875,9.0878125 C7.581875,9.3703125 7.35140625,9.60125 7.06953125,9.60125 L5.05078125,9.60125 C4.76734375,9.60125 4.5384375,9.3703125 4.5384375,9.0878125 C4.5384375,8.8053125 4.76734375,8.574375 5.05078125,8.574375 Z M8.66484375,13.9371875 C8.94828125,13.9371875 9.1771875,14.168125 9.1771875,14.450625 C9.1771875,14.733125 8.94671875,14.9640625 8.66484375,14.9640625 L3.966875,14.9640625 C2.90953125,14.9640625 2.0625,14.0698438 2.0625,12.9803125 L2.0625,2.9915625 C2.0640625,1.9021875 2.90953125,1.0078125 3.966875,1.0078125 L12.0329688,1.0078125 C13.0904687,1.0078125 13.9375,1.9021875 13.9375,2.9915625 L13.9375,9.52015625 C13.9375,9.80421875 13.7070312,10.0335937 13.4251563,10.0335937 C13.1417188,10.0335937 12.9128125,9.80265625 12.9128125,9.52015625 L12.9128125,2.9915625 C12.9128125,2.4578125 12.5142188,2.03640625 12.0345313,2.03640625 L3.966875,2.03640625 C3.48875,2.03640625 3.08859375,2.4578125 3.08859375,2.9915625 L3.08859375,12.9820313 C3.08859375,13.5157812 3.4871875,13.9371875 3.966875,13.9371875 L8.66484375,13.9371875 Z" id="形状" stroke="#5C658D" stroke-width="0.2" fill="#5C658D" fill-rule="nonzero"></path>
                </g>
                <path d="M12.7219884,12.9947156 C13.4511157,11.8921963 13.2268633,10.4166526 12.2031031,9.58053621 C11.179343,8.74441981 9.6887415,8.81942315 8.75408232,9.75408232 C7.81942315,10.6887415 7.74441981,12.179343 8.58053621,13.2031031 C9.41665261,14.2268633 10.8921963,14.4511157 11.9947156,13.7219884 L13.1219884,14.8528974 C13.3228192,15.0537282 13.6484302,15.0537282 13.8492611,14.8528974 C14.0500919,14.6520666 14.0500919,14.3264555 13.8492611,14.1256247 L12.7219884,12.9947156 Z M10.5765338,13.1183563 C9.95112698,13.1198235 9.3864831,12.74422 9.14612993,12.1668413 C8.90577675,11.5894626 9.03710019,10.9241395 9.47880963,10.4813882 C9.92051907,10.038637 10.585531,9.90574664 11.1634743,10.144739 C11.7414177,10.3837314 12.118352,10.9474889 12.118352,11.5728974 C12.118352,11.9834083 11.9550298,12.3770528 11.6644139,12.6669865 C11.373798,12.9569202 10.9797708,13.1193179 10.5692611,13.1183563 L10.5765338,13.1183563 Z" id="形状" fill="#5C658D" fill-rule="nonzero"></path>
            </g>
        </g>
    </g>
</svg>