<?xml version="1.0" encoding="UTF-8"?>
<svg width="16px" height="16px" viewBox="0 0 16 16" version="1.1" xmlns="http://www.w3.org/2000/svg" xmlns:xlink="http://www.w3.org/1999/xlink">
    <title>定位</title>
    <defs>
        <rect id="path-1" x="0" y="0" width="16" height="16"></rect>
    </defs>
    <g id="v1.1" stroke="none" stroke-width="1" fill="none" fill-rule="evenodd">
        <g id="事件汇聚_统一待办" transform="translate(-416.000000, -767.000000)">
            <g id="编组-21" transform="translate(276.000000, 140.000000)">
                <g id="编组-29备份-8" transform="translate(20.000000, 466.000000)">
                    <g id="编组-14" transform="translate(12.000000, 148.000000)">
                        <g id="编组-13" transform="translate(108.000000, 11.000000)">
                            <g id="定位" transform="translate(0.000000, 2.000000)">
                                <mask id="mask-2" fill="white">
                                    <use xlink:href="#path-1"></use>
                                </mask>
                                <g id="矩形"></g>
                                <g id="编组" mask="url(#mask-2)">
                                    <g transform="translate(2.000000, 0.666992)">
                                        <g id="编组" opacity="0.200000003" stroke-width="1" fill="none" transform="translate(3.333374, 3.333008)">
                                            <path d="M5.33333,2.66667 C5.33333,2.75400333 5.32905,2.84113 5.32049,2.92805 C5.31193,3.01496333 5.29913,3.10125 5.28209,3.18691 C5.26505667,3.27257 5.24386333,3.35718667 5.21851,3.44076 C5.19315667,3.52433333 5.16376667,3.60646667 5.13034,3.68716 C5.09692,3.76784667 5.05962667,3.8467 5.01846,3.92372 C4.97728667,4.00074667 4.93244,4.07557 4.88392,4.14819 C4.8354,4.22080333 4.78343667,4.29086667 4.72803,4.35838 C4.67262333,4.42589333 4.61404,4.49052667 4.55228,4.55228 C4.49052667,4.61404 4.42589333,4.67262333 4.35838,4.72803 C4.29086667,4.78343667 4.22080333,4.8354 4.14819,4.88392 C4.07557,4.93244 4.00074667,4.97728667 3.92372,5.01846 C3.8467,5.05962667 3.76784667,5.09692 3.68716,5.13034 C3.60646667,5.16376667 3.52433333,5.19315667 3.44076,5.21851 C3.35718667,5.24386333 3.27257,5.26505667 3.18691,5.28209 C3.10125,5.29913 3.01496333,5.31193 2.92805,5.32049 C2.84113,5.32905 2.75400333,5.33333 2.66667,5.33333 C2.57933,5.33333 2.49220333,5.32905 2.40529,5.32049 C2.31837,5.31193 2.23208333,5.29913 2.14643,5.28209 C2.06077,5.26505667 1.97615,5.24386333 1.89257,5.21851 C1.80899667,5.19315667 1.72686667,5.16376667 1.64618,5.13034 C1.56548667,5.09692 1.48663,5.05962667 1.40961,5.01846 C1.33258333,4.97728667 1.25776333,4.93244 1.18515,4.88392 C1.11253,4.8354 1.04246367,4.78343667 0.974951,4.72803 C0.907439,4.67262333 0.842805,4.61404 0.781049,4.55228 C0.719292333,4.49052667 0.660711,4.42589333 0.605305,4.35838 C0.549899667,4.29086667 0.497936,4.22080333 0.449414,4.14819 C0.400892667,4.07557 0.356047,4.00074667 0.314877,3.92372 C0.273706333,3.8467 0.23641,3.76784667 0.202988,3.68716 C0.169565333,3.60646667 0.140178,3.52433333 0.114826,3.44076 C0.0894733333,3.35718667 0.0682777333,3.27257 0.0512392,3.18691 C0.0342007333,3.10125 0.0214012333,3.01496333 0.0128407,2.92805 C0.00428023333,2.84113 0,2.75400333 0,2.66667 C0,2.57933 0.00428023333,2.49220333 0.0128407,2.40529 C0.0214012333,2.31837 0.0342007333,2.23208333 0.0512392,2.14643 C0.0682777333,2.06077 0.0894733333,1.97615 0.114826,1.89257 C0.140178,1.80899667 0.169565333,1.72686667 0.202988,1.64618 C0.23641,1.56548667 0.273706333,1.48663 0.314877,1.40961 C0.356047,1.33258333 0.400892667,1.25776333 0.449414,1.18515 C0.497936,1.11253 0.549899667,1.04246367 0.605305,0.974951 C0.660711,0.907439 0.719292333,0.842805 0.781049,0.781049 C0.842805,0.719292333 0.907439,0.660711 0.974951,0.605305 C1.04246367,0.549899667 1.11253,0.497936 1.18515,0.449414 C1.25776333,0.400892667 1.33258333,0.356047 1.40961,0.314877 C1.48663,0.273706333 1.56548667,0.23641 1.64618,0.202988 C1.72686667,0.169565333 1.80899667,0.140178 1.89257,0.114826 C1.97615,0.0894733333 2.06077,0.0682777333 2.14643,0.0512392 C2.23208333,0.0342007333 2.31837,0.0214012333 2.40529,0.0128407 C2.49220333,0.00428023333 2.57933,0 2.66667,0 C2.75400333,0 2.84113,0.00428023333 2.92805,0.0128407 C3.01496333,0.0214012333 3.10125,0.0342007333 3.18691,0.0512392 C3.27257,0.0682777333 3.35718667,0.0894733333 3.44076,0.114826 C3.52433333,0.140178 3.60646667,0.169565333 3.68716,0.202988 C3.76784667,0.23641 3.8467,0.273706333 3.92372,0.314877 C4.00074667,0.356047 4.07557,0.400892667 4.14819,0.449414 C4.22080333,0.497936 4.29086667,0.549899667 4.35838,0.605305 C4.42589333,0.660711 4.49052667,0.719292333 4.55228,0.781049 C4.61404,0.842805 4.67262333,0.907439 4.72803,0.974951 C4.78343667,1.04246367 4.8354,1.11253 4.88392,1.18515 C4.93244,1.25776333 4.97728667,1.33258333 5.01846,1.40961 C5.05962667,1.48663 5.09692,1.56548667 5.13034,1.64618 C5.16376667,1.72686667 5.19315667,1.80899667 5.21851,1.89257 C5.24386333,1.97615 5.26505667,2.06077 5.28209,2.14643 C5.29913,2.23208333 5.31193,2.31837 5.32049,2.40529 C5.32905,2.49220333 5.33333,2.57933 5.33333,2.66667 Z" id="路径" fill="#36A4FF" fill-rule="nonzero"></path>
                                        </g>
                                        <path d="M0.471842,3.66431 C0.157280667,4.40790333 0,5.18646667 0,6 C0,8.88886667 1.86664667,11.7333333 5.59994,14.5334 C5.83708,14.7111 6.16292,14.7111 6.40007,14.5334 C10.1333567,11.7333333 12,8.88886667 12,6 C12,5.18646667 11.8427333,4.40790333 11.5282,3.66431 C11.2246,2.94642333 10.7961,2.31076 10.2427,1.75732 C9.6893,1.20393733 9.05360333,0.775417667 8.33561,0.471761 C7.59201,0.157253667 6.81347333,1.77635684e-15 6,1.77635684e-15 C5.18652667,1.77635684e-15 4.40799,0.157253667 3.66439,0.471761 C2.94639667,0.775417667 2.31070667,1.20393733 1.75732,1.75732 C1.20393733,2.31070667 0.775444667,2.94637 0.471842,3.66431 Z M6,13.1607 C2.88888667,10.73282 1.33333,8.34592 1.33333,6 C1.33333,4.71132 1.78895333,3.61138667 2.7002,2.7002 C3.61144,1.78895333 4.71137333,1.33333 6,1.33333 C7.28862667,1.33333 8.38856,1.78895333 9.2998,2.7002 C10.2110667,3.61138667 10.6667,4.71132 10.6667,6 C10.6667,8.34592 9.11113333,10.73282 6,13.1607 Z M7.88558,4.11442 C7.36485333,3.59369333 6.73632667,3.33333 6,3.33333 C5.26367333,3.33333 4.63514667,3.59369333 4.11442,4.11442 C3.59369333,4.63509333 3.33333,5.26362 3.33333,6 C3.33333,6.73638 3.59369333,7.36490667 4.11442,7.88558 C4.63514667,8.40630667 5.26367333,8.66667 6,8.66667 C6.73632667,8.66667 7.36485333,8.40630667 7.88558,7.88558 C8.40630667,7.36490667 8.66667,6.73638 8.66667,6 C8.66667,5.26362 8.40630667,4.63509333 7.88558,4.11442 Z M5.05713,5.05721 C5.31754333,4.79685 5.63183333,4.66667 6,4.66667 C6.36816667,4.66667 6.68245667,4.79685 6.94287,5.05721 C7.20317667,5.31757 7.33333,5.63183333 7.33333,6 C7.33333,6.36816667 7.20317667,6.68243 6.94287,6.94279 C6.68245667,7.20315 6.36816667,7.33333 6,7.33333 C5.63183333,7.33333 5.31754333,7.20315 5.05713,6.94279 C4.79682333,6.68243 4.66667,6.36816667 4.66667,6 C4.66667,5.63183333 4.79682333,5.31757 5.05713,5.05721 Z" id="形状" fill="#36A4FF"></path>
                                    </g>
                                </g>
                            </g>
                        </g>
                    </g>
                </g>
            </g>
        </g>
    </g>
</svg>