<?xml version="1.0" encoding="UTF-8"?>
<svg width="16px" height="16px" viewBox="0 0 16 16" version="1.1" xmlns="http://www.w3.org/2000/svg" xmlns:xlink="http://www.w3.org/1999/xlink">
    <title>查看周边</title>
    <defs>
        <rect id="path-1" x="0" y="0" width="16" height="16"></rect>
    </defs>
    <g id="v1.1" stroke="none" stroke-width="1" fill="none" fill-rule="evenodd">
        <g id="事件汇聚_统一待办" transform="translate(-488.000000, -767.000000)">
            <g id="编组-21" transform="translate(276.000000, 140.000000)">
                <g id="编组-29备份-8" transform="translate(20.000000, 466.000000)">
                    <g id="编组-14" transform="translate(12.000000, 148.000000)">
                        <g id="编组-12" transform="translate(180.000000, 11.000000)">
                            <g id="查看周边" transform="translate(0.000000, 2.000000)">
                                <mask id="mask-2" fill="white">
                                    <use xlink:href="#path-1"></use>
                                </mask>
                                <g id="矩形"></g>
                                <g id="编组" mask="url(#mask-2)">
                                    <g transform="translate(0.666626, 0.666992)">
                                        <g id="编组" opacity="0.200000003" stroke-width="1" fill="none" transform="translate(4.000000, 4.000000)">
                                            <path d="M6.66667,3.33333 C6.66667,3.44250333 6.66132,3.55141333 6.65062,3.66006 C6.63991333,3.7687 6.62391333,3.87655667 6.60262,3.98363 C6.58132,4.09070333 6.55482333,4.19647667 6.52313,4.30095 C6.49144333,4.40541667 6.45471,4.50808 6.41293,4.60894 C6.37115,4.70980667 6.32453,4.80838 6.27307,4.90466 C6.22161,5.00094 6.16555333,5.09446333 6.1049,5.18523 C6.04424667,5.27600333 5.97929,5.36358667 5.91003,5.44798 C5.84077667,5.53236667 5.76755333,5.61316 5.69036,5.69036 C5.61316,5.76755333 5.53236667,5.84078 5.44798,5.91004 C5.36358667,5.97929333 5.27600333,6.04424667 5.18523,6.1049 C5.09446333,6.16555333 5.00094,6.22161 4.90466,6.27307 C4.80838,6.32453667 4.70980667,6.37115667 4.60894,6.41293 C4.50808,6.45471 4.40541667,6.49144333 4.30095,6.52313 C4.19647667,6.55482333 4.09070333,6.58132 3.98363,6.60262 C3.87655667,6.62391333 3.7687,6.63991333 3.66006,6.65062 C3.55141333,6.66132 3.44250333,6.66667 3.33333,6.66667 C3.22416333,6.66667 3.11525667,6.66132 3.00661,6.65062 C2.89796333,6.63991333 2.79010333,6.62391333 2.68303,6.60262 C2.57595667,6.58132 2.47018667,6.55482333 2.36572,6.52313 C2.26124667,6.49144333 2.15858,6.45471 2.05772,6.41293 C1.95686,6.37115 1.85829,6.32453 1.76201,6.27307 C1.66573,6.22161 1.57220333,6.16555333 1.48143,6.1049 C1.39065667,6.04424667 1.30307667,5.97929 1.21869,5.91003 C1.13429667,5.84077667 1.05350367,5.76755333 0.976311,5.69036 C0.899115667,5.61316 0.825889333,5.53236667 0.756632,5.44798 C0.687374667,5.36358667 0.62242,5.27600333 0.561768,5.18523 C0.501116,5.09446333 0.445058667,5.00094 0.393596,4.90466 C0.342133333,4.80838 0.295513,4.70980667 0.253735,4.60894 C0.211957,4.50808 0.175222667,4.40541667 0.143532,4.30095 C0.111841533,4.19647667 0.0853472333,4.09070333 0.0640491,3.98363 C0.0427509,3.87655667 0.0267515,3.7687 0.0160509,3.66006 C0.0053503,3.55141333 0,3.44250333 0,3.33333 C0,3.22416333 0.0053503,3.11525667 0.0160509,3.00661 C0.0267515,2.89796333 0.0427509,2.79010333 0.0640491,2.68303 C0.0853472333,2.57595667 0.111841533,2.47018667 0.143532,2.36572 C0.175222667,2.26124667 0.211957,2.15858 0.253735,2.05772 C0.295513,1.95686 0.342133333,1.85829 0.393596,1.76201 C0.445058667,1.66573 0.501116,1.57220333 0.561768,1.48143 C0.62242,1.39065667 0.687374667,1.30307667 0.756632,1.21869 C0.825889333,1.13429667 0.899115667,1.05350367 0.976311,0.976311 C1.05350367,0.899115667 1.13429667,0.825889333 1.21869,0.756632 C1.30307667,0.687374667 1.39065667,0.62242 1.48143,0.561768 C1.57220333,0.501116 1.66573,0.445058667 1.76201,0.393596 C1.85829,0.342133333 1.95686,0.295513 2.05772,0.253735 C2.15858,0.211957 2.26124667,0.175222667 2.36572,0.143532 C2.47018667,0.111841533 2.57595667,0.0853472333 2.68303,0.0640491 C2.79010333,0.0427509 2.89796333,0.0267515 3.00661,0.0160509 C3.11525667,0.0053503 3.22416333,0 3.33333,0 C3.44250333,0 3.55141333,0.0053503 3.66006,0.0160509 C3.7687,0.0267515 3.87655667,0.0427509 3.98363,0.0640491 C4.09070333,0.0853472333 4.19647667,0.111841533 4.30095,0.143532 C4.40541667,0.175222667 4.50808,0.211957 4.60894,0.253735 C4.70980667,0.295513 4.80838,0.342133333 4.90466,0.393596 C5.00094,0.445058667 5.09446333,0.501116 5.18523,0.561768 C5.27600333,0.62242 5.36358667,0.687374667 5.44798,0.756632 C5.53236667,0.825889333 5.61316,0.899115667 5.69036,0.976311 C5.76755333,1.05350367 5.84078,1.13429667 5.91004,1.21869 C5.97929333,1.30307667 6.04424667,1.39065667 6.1049,1.48143 C6.16555333,1.57220333 6.22161,1.66573 6.27307,1.76201 C6.32453667,1.85829 6.37115667,1.95686 6.41293,2.05772 C6.45471,2.15858 6.49144333,2.26124667 6.52313,2.36572 C6.55482333,2.47018667 6.58132,2.57595667 6.60262,2.68303 C6.62391333,2.79010333 6.63991333,2.89796333 6.65062,3.00661 C6.66132,3.11525667 6.66667,3.22416333 6.66667,3.33333 Z" id="路径" fill="#36A4FF" fill-rule="nonzero"></path>
                                        </g>
                                        <path d="M0.576497,4.47868 C0.192165667,5.38742667 0,6.33897667 0,7.33333 C0,7.70154 0.298503,8 0.666667,8 C1.03483,8 1.33333,7.70154 1.33333,7.33333 C1.33333,6.51923 1.49039333,5.74081667 1.80452,4.99809 C2.10812667,4.28031667 2.53684,3.64452 3.09066,3.0907 C3.64448,2.53685333 4.28027667,2.10814333 4.99805,1.80457 C5.74077667,1.49041 6.51920333,1.33333 7.33333,1.33333 C8.67046333,1.33333 9.87152,1.73396667 10.9365,2.53524 L10.9372,2.53577 C11.0527,2.62272 11.1934,2.66976 11.3381,2.66976 C11.3462,2.66976 11.3543,2.6696 11.3626,2.66931 C11.5633,2.66191 11.75,2.56445 11.8708,2.40397 C11.9577,2.28841 12.0047,2.14771 12.0047,2.00309 L12.0047,1.99833 C12.0047,1.96875 12.0023,1.93921 11.9982,1.90991 C11.9735,1.73482 11.8802,1.57674 11.7389,1.47042 L11.738,1.46969 C10.4356733,0.489896667 8.96745,0 7.33333,0 C6.33897667,0 5.38742667,0.192193 4.47868,0.576579 C3.60118667,0.947699667 2.82422333,1.47147667 2.14779,2.14791 C1.47146333,2.82431667 0.947699,3.60124 0.576497,4.47868 Z M14.6668,7.33329 C14.6668,6.02017 14.3398333,4.79811 13.6859,3.66711 C13.5973,3.51404 13.4517,3.40238 13.2809,3.35673 C13.2248,3.34176 13.1668,3.33415 13.1087,3.33415 C13.1016,3.33415 13.0944,3.33427 13.0872,3.33447 C12.9774,3.33801 12.8701,3.36865 12.7751,3.42367 C12.569,3.54285 12.4421,3.76278 12.4421,4.00081 C12.4421,4.01127 12.4424,4.02173 12.4429,4.03219 C12.4478,4.13859 12.4782,4.24231 12.5316,4.33451 C13.0662,5.25907 13.3335,6.25866333 13.3335,7.33329 C13.3335,8.54444333 12.9993667,9.65164667 12.3311,10.6549 C11.6793667,11.6333 10.81721,12.3581 9.74463,12.8293 C9.74409,12.8295667 9.74354667,12.8298333 9.743,12.8301 L9.74154,12.8306 C9.49935,12.937 9.34277,13.1766 9.34277,13.4412 C9.34277,13.4493 9.34294,13.4574 9.34326,13.4655 C9.34635,13.5494 9.36523,13.6321 9.39893,13.709 C9.50521,13.9513 9.74479,14.1078 10.0094,14.1078 C10.0176,14.1078 10.0257,14.1078 10.0337,14.1074 C10.1177,14.1043 10.2004,14.0854 10.2773,14.0517 L10.2778,14.0514 C11.5898667,13.4756667 12.6442,12.5899 13.4408,11.3941 C14.2581333,10.1669867 14.6668,8.81338333 14.6668,7.33329 Z M9.69043,4.97632 C9.03949667,4.32544 8.25379667,4 7.33333,4 C6.41287,4 5.62717333,4.32544 4.97624,4.97632 C4.32541333,5.6272 4,6.41287 4,7.33333 C4,8.25379667 4.32541333,9.03947 4.97624,9.69035 C5.62717333,10.34125 6.41287,10.6667 7.33333,10.6667 C8.25379667,10.6667 9.03949667,10.34125 9.69043,9.69035 C10.3412767,9.03947 10.6667,8.25379667 10.6667,7.33333 C10.6667,6.41287 10.3412767,5.6272 9.69043,4.97632 Z M5.91911,5.91911 C6.30962333,5.52859 6.78103,5.33333 7.33333,5.33333 C7.88563,5.33333 8.35704,5.52859 8.74756,5.91911 C9.13807333,6.30965 9.33333,6.78105667 9.33333,7.33333 C9.33333,7.88560333 9.13807333,8.35701333 8.74756,8.74756 C8.35704,9.13807333 7.88563,9.33333 7.33333,9.33333 C6.78103,9.33333 6.30962333,9.13807333 5.91911,8.74756 C5.52859,8.35701333 5.33333,7.88560333 5.33333,7.33333 C5.33333,6.78105667 5.52859,6.30965 5.91911,5.91911 Z M3.26725,13.4371 C4.49555,14.2568333 5.85085667,14.6667 7.33317,14.6667 C7.70133,14.6667 7.99984,14.3682 7.99984,14 C7.99984,13.6318 7.70133,13.3333 7.33317,13.3333 C6.12017,13.3333 5.01155333,12.9982 4.00732,12.328 C3.02696,11.6737333 2.30175667,10.8083367 1.83171,9.73181 C1.76091,9.56978 1.62874,9.4425 1.46403,9.37797 C1.38656,9.34758 1.30404,9.33195 1.2207,9.33195 C1.2207,9.33195 1.20801,9.33207 1.20801,9.33207 C1.12044,9.33374 1.03418,9.35262 0.953939,9.38766 C0.7111,9.49373 0.554036,9.7336 0.554036,9.99862 C0.554036,10.0063 0.554199,10.0141 0.554362,10.0218 C0.557292,10.1058 0.576172,10.1884 0.609701,10.2654 C1.18413367,11.5808 2.06998333,12.6380333 3.26725,13.4371 Z" id="形状" fill="#36A4FF"></path>
                                    </g>
                                </g>
                            </g>
                        </g>
                    </g>
                </g>
            </g>
        </g>
    </g>
</svg>