<svg xmlns="http://www.w3.org/2000/svg" xmlns:xlink="http://www.w3.org/1999/xlink" viewBox="0 0 140 140" class="design-iconfont">
  <defs>
    <linearGradient x1="50%" y1="0%" x2="50%" y2="87.688032%" id="j5n53drnka">
      <stop stop-color="#384B67" offset="0%"/>
      <stop stop-color="#384B67" stop-opacity="0" offset="100%"/>
    </linearGradient>
    <linearGradient x1="82.7827788%" y1="64.7169081%" x2="142.252235%" y2="32.3851095%" id="3u75oxxkfb">
      <stop stop-color="#233D56" offset="0%"/>
      <stop stop-color="#6283AD" offset="100%"/>
    </linearGradient>
    <linearGradient x1="50%" y1="100%" x2="49.4759114%" y2="0%" id="oh02h6k9jd">
      <stop stop-color="#263E56" stop-opacity=".87813371" offset="0%"/>
      <stop stop-color="#2C455E" offset="11.6350065%"/>
      <stop stop-color="#6283AD" offset="100%"/>
    </linearGradient>
    <linearGradient x1="83.6196152%" y1="50%" x2="0%" y2="50%" id="qqgmspw92f">
      <stop stop-color="#FFF" offset="0%"/>
      <stop stop-color="#FFF" stop-opacity=".07953265" offset="100%"/>
    </linearGradient>
    <linearGradient x1="83.6196152%" y1="50%" x2="0%" y2="50%" id="gifwlf59ug">
      <stop stop-color="#FFF" offset="0%"/>
      <stop stop-color="#FFF" stop-opacity=".07953265" offset="100%"/>
    </linearGradient>
    <linearGradient x1="50%" y1="0%" x2="50%" y2="100%" id="09je3n58sh">
      <stop stop-color="#71F8FC" offset="0%"/>
      <stop stop-color="#068996" offset="100%"/>
    </linearGradient>
    <linearGradient x1="47.9552987%" y1="0%" x2="10.6791449%" y2="141.532393%" id="raw2gmvn6i">
      <stop stop-color="#384B67" offset="0%"/>
      <stop stop-color="#384B67" stop-opacity="0" offset="100%"/>
    </linearGradient>
    <linearGradient x1="42.1095624%" y1="23.6551517%" x2="94.0991417%" y2="37.9691492%" id="dvfsyxhfrj">
      <stop stop-color="#657DA0" offset="0%"/>
      <stop stop-color="#384B67" stop-opacity="0" offset="100%"/>
    </linearGradient>
    <linearGradient x1="48.0938419%" y1="0%" x2="13.3434155%" y2="141.532393%" id="8mskti4gvk">
      <stop stop-color="#384B67" offset="0%"/>
      <stop stop-color="#384B67" stop-opacity="0" offset="100%"/>
    </linearGradient>
    <linearGradient x1="42.2238732%" y1="23.6551517%" x2="93.460266%" y2="37.9691492%" id="wkr4shp7gl">
      <stop stop-color="#657DA0" offset="0%"/>
      <stop stop-color="#384B67" stop-opacity="0" offset="100%"/>
    </linearGradient>
    <rect id="r10hy3cmic" x=".30342709" y="31.5934066" width="48.7455621" height="30.5934066" rx="2.9727539"/>
    <path d="M36.4272538,6.63562753 C38.0690604,6.63562753 39.4000077,7.96657479 39.4000077,9.60838143 L39.4,58.3556275 L39.404,58.3556275 C39.5094846,60.4921312 41.2672913,62.1868132 43.4204167,62.1868132 L2.9727539,62.1868132 C1.33094726,62.1868132 6.95523087e-15,60.8558659 0,59.2140593 L0,9.60838143 C2.43025885e-16,7.96657479 1.33094726,6.63562753 2.9727539,6.63562753 L36.4272538,6.63562753 Z" id="mwbahdmoxe"/>
  </defs>
  <g fill="none" fill-rule="evenodd">
    <path d="M115.000131,88 C115.000131,62.5949015 90.375792,42 60.0001307,42 C29.6244695,42 5.00013073,62.5949015 5.00013073,88 L115.000131,88 Z" fill="url(#j5n53drnka)" opacity=".600512" transform="translate(10 26)"/>
    <g transform="translate(47.000131 26)">
      <g opacity=".88">
        <use fill="url(#3u75oxxkfb)" xlink:href="#r10hy3cmic"/>
        <use fill-opacity=".020958" fill="#71F8FC" xlink:href="#r10hy3cmic"/>
      </g>
      <use fill="url(#oh02h6k9jd)" xlink:href="#mwbahdmoxe"/>
      <use fill-opacity=".040958" fill="#71F8FC" xlink:href="#mwbahdmoxe"/>
      <rect fill="url(#qqgmspw92f)" x="5.62857253" y="19.5170619" width="15.277554" height="4.02544824" rx=".74318848"/>
      <rect fill="url(#gifwlf59ug)" x="5.62857253" y="31.5934066" width="27.3387809" height="4.02544824" rx=".74318848"/>
      <path d="M29.7180647,2.22956543 C29.7180647,0.998210443 30.7162752,2.26196241e-16 31.9476301,0 L50.8068712,0 C52.0382262,-2.41352209e-15 53.0364366,0.998210443 53.0364366,2.22956543 L53.0364366,14.6773172 C53.0364366,15.9086721 52.0382262,16.9068826 50.8068712,16.9068826 L36.6460647,16.906 L30.9302559,21.5563703 C30.8242326,21.6426222 30.6970257,21.6975443 30.5629112,21.716063 L30.4612532,21.7230472 C30.0508015,21.7230472 29.7180647,21.3903104 29.7180647,20.9798587 L29.7180647,20.9798587 L29.7180647,2.22956543 Z" fill="url(#09je3n58sh)"/>
    </g>
    <path d="M7.17994076,10.1219207 C13.5534194,10.1223351 18.553883,6.83887204 22.1813315,0.271531597 C22.4009246,3.87050519 22.5107212,6.4104671 22.5107212,7.89141733 C22.5107212,10.1128427 21.6821152,13.39075 16.810774,17.9833009 C11.9394328,22.5758518 8.33858077,23.2099951 6.42893567,23.2099951 C5.15583893,23.2099951 4.4619266,23.2099951 4.34719869,23.2099951 C7.1320851,18.7256676 8.07633246,14.3629761 7.17994076,10.1219207 Z" fill="url(#raw2gmvn6i)" transform="rotate(75 -10.826399 40.70531636)"/>
    <path d="M8.81944173,12.7242786 C12.4484314,12.7245146 14.6804724,11.8954352 15.5155646,10.2370405 C14.4102469,13.2454784 12.555783,15.8951462 9.9521729,18.1860438 C7.34856277,20.4769415 5.56194335,21.7043161 4.59231464,21.8681677 C7.40922615,19.4970564 8.81826851,16.4490934 8.81944173,12.7242786 Z" fill="url(#dvfsyxhfrj)" transform="rotate(75 -14.201419 45.01715736)"/>
    <g>
      <path d="M4.38973202,4.99343042 C8.74960777,4.9937949 12.1543187,3.87422792 14.6038649,1.63472949 C14.7540681,4.18454601 14.8292136,5.98406881 14.8293014,7.03329788 C14.8294328,8.60714149 14.7182191,10.8863931 11.3859712,14.1400863 C8.05372329,17.3937795 5.13485708,17.8860814 3.82853507,17.8860814 C2.95765374,17.8860814 2.48297237,17.8860814 2.40449099,17.8860814 C4.53707804,14.328326 5.19882505,10.0307756 4.38973202,4.99343042 Z" fill="url(#8mskti4gvk)" transform="rotate(20 -95.46077445 349.597876)"/>
      <path d="M8.82176394,12.0766625 C11.0070104,12.0768452 12.4884455,11.3342297 13.2660692,9.84881592 C12.8231217,11.5846049 11.7667635,13.2137503 10.0969944,14.7362519 C8.42722538,16.2587535 7.08148371,17.2061066 6.05976942,17.5783112 C7.87753011,16.2552373 8.79819495,14.4213544 8.82176394,12.0766625 Z" fill="url(#wkr4shp7gl)" transform="rotate(20 -94.41475145 353.551035)"/>
    </g>
  </g>
</svg>
