<?xml version="1.0" encoding="UTF-8"?>
<svg width="16px" height="16px" viewBox="0 0 16 16" version="1.1" xmlns="http://www.w3.org/2000/svg" xmlns:xlink="http://www.w3.org/1999/xlink">
    <title>6要素n</title>
    <g id="6要素n" stroke="none" stroke-width="1" fill="none" fill-rule="evenodd">
        <rect id="矩形" opacity="0" x="0" y="0" width="16" height="16"></rect>
        <path d="M8,0 C9.27153931,0 10.3583147,1.97767134 10.7950225,4.76975523 L10.8671571,5.28612214 C10.9535093,5.98588645 11,6.72937012 11,7.5 C11,8.27062988 10.9535093,9.01411355 10.8671571,9.71387786 L10.7950225,10.2302448 C10.3583147,13.0223287 9.27153931,15 8,15 C6.72846069,15 5.64168534,13.0223287 5.20497746,10.2302448 L5.13284289,9.71387786 C5.04649071,9.01411355 5,8.27062988 5,7.5 C5,6.72937012 5.04649071,5.98588645 5.13284289,5.28612214 L5.20497746,4.76975523 C5.64168534,1.97767134 6.72846069,0 8,0 Z M8,1.682 C7.79179512,1.90336993 7.56821907,2.28098245 7.36424236,2.79092422 C6.88591204,3.98675002 6.6,5.67668 6.6,7.5 C6.6,9.32332 6.88591204,11.01325 7.36424236,12.2090758 C7.54272198,12.6552748 7.73620735,13.0001593 7.917756,13.2231805 L7.999,13.317 C8.18283512,13.1234563 8.37620907,12.8108738 8.5584262,12.3940411 L8.63575764,12.2090758 C9.11408796,11.01325 9.4,9.32332 9.4,7.5 C9.4,5.67668 9.11408796,3.98675002 8.63575764,2.79092422 C8.45727802,2.34472517 8.26379265,1.9998407 8.082244,1.77681947 L8,1.682 Z" id="椭圆形" fill="#4B4B4B" fill-rule="nonzero" transform="translate(8.000000, 7.500000) rotate(180.000000) translate(-8.000000, -7.500000) "></path>
        <path d="M8,0 C9.27153931,0 10.3583147,1.97767134 10.7950225,4.76975523 L10.8671571,5.28612214 C10.9535093,5.98588645 11,6.72937012 11,7.5 C11,8.27062988 10.9535093,9.01411355 10.8671571,9.71387786 L10.7950225,10.2302448 C10.3583147,13.0223287 9.27153931,15 8,15 C6.72846069,15 5.64168534,13.0223287 5.20497746,10.2302448 L5.13284289,9.71387786 C5.04649071,9.01411355 5,8.27062988 5,7.5 C5,6.72937012 5.04649071,5.98588645 5.13284289,5.28612214 L5.20497746,4.76975523 C5.64168534,1.97767134 6.72846069,0 8,0 Z M8,1.682 C7.79179512,1.90336993 7.56821907,2.28098245 7.36424236,2.79092422 C6.88591204,3.98675002 6.6,5.67668 6.6,7.5 C6.6,9.32332 6.88591204,11.01325 7.36424236,12.2090758 C7.54272198,12.6552748 7.73620735,13.0001593 7.917756,13.2231805 L7.999,13.317 C8.18283512,13.1234563 8.37620907,12.8108738 8.5584262,12.3940411 L8.63575764,12.2090758 C9.11408796,11.01325 9.4,9.32332 9.4,7.5 C9.4,5.67668 9.11408796,3.98675002 8.63575764,2.79092422 C8.45727802,2.34472517 8.26379265,1.9998407 8.082244,1.77681947 L8,1.682 Z" id="椭圆形" fill="#4B4B4B" fill-rule="nonzero" transform="translate(8.000000, 7.500000) rotate(240.000000) translate(-8.000000, -7.500000) "></path>
        <path d="M7.03304994,3.71431709 L7.51630409,3.91003017 C8.16549385,4.18512915 8.83261494,4.51660885 9.5,4.90192379 C10.1673851,5.28723873 10.7880154,5.6992427 11.350853,6.12390804 L11.7619726,6.44456186 C13.9616342,8.21880393 15.1309602,10.1488147 14.4951905,11.25 C13.8594209,12.3511853 11.6033196,12.3035247 8.96695006,11.2856829 L8.48369591,11.0899698 C7.83450615,10.8148708 7.16738506,10.4833912 6.5,10.0980762 C5.83261494,9.71276127 5.21198456,9.3007573 4.64914697,8.87609196 L4.2380274,8.55543814 C3.60024841,8.04100706 3.04908727,7.51348088 2.60342868,6.996859 C3.21116059,6.9727456 3.76144464,6.73196298 4.18128324,6.3502365 C4.97377153,7.16473504 6.0567728,7.99465801 7.3,8.71243557 C8.87904144,9.62409557 10.4855197,10.2214535 11.7603004,10.4051202 C12.23596,10.4736518 12.6313814,10.4785308 12.9152977,10.4328157 L13.0385358,10.409 C12.9509263,10.1180043 12.7356922,9.73557552 12.3960581,9.30395562 C11.5996077,8.29179651 10.2790414,7.19922444 8.7,6.28756443 C7.4158857,5.5461807 6.11362649,5.01265537 4.9863692,4.7404411 L4.99468232,4.66437569 L4.99468232,4.66437569 L5,4.5 C5,3.94543308 4.81943079,3.43304036 4.51387913,3.0184086 C5.27611083,3.13209879 6.13238977,3.36659285 7.03304994,3.71431709 Z" id="形状结合" fill="#4B4B4B" fill-rule="nonzero"></path>
        <path d="M2.5,3 C3.32842712,3 4,3.67157288 4,4.5 C4,5.32842712 3.32842712,6 2.5,6 C1.67157288,6 1,5.32842712 1,4.5 C1,3.67157288 1.67157288,3 2.5,3 Z" id="椭圆形" fill="#36A4FF" fill-rule="nonzero"></path>
    </g>
</svg>