<?xml version="1.0" encoding="UTF-8"?>
<svg width="24px" height="24px" viewBox="0 0 24 24" version="1.1" xmlns="http://www.w3.org/2000/svg" xmlns:xlink="http://www.w3.org/1999/xlink">
    <title>编组 27</title>
    <g id="页面-1" stroke="none" stroke-width="1" fill="none" fill-rule="evenodd">
        <g id="工作台" transform="translate(-934.000000, -1284.000000)">
            <g id="预览型-双栏-转化漏斗" transform="translate(822.000000, 1024.000000)">
                <g id="编组-13备份" transform="translate(112.000000, 200.000000)">
                    <g id="编组-27" transform="translate(0.000000, 60.000000)">
                        <circle id="椭圆形备份-5" stroke="#FFFFFF" stroke-width="0.5" opacity="0.5" cx="12" cy="12" r="11.75"></circle>
                        <path d="M17.751875,17.1878126 L17.751875,4.85125098 C17.7521241,4.62540917 17.6625191,4.40874563 17.5028248,4.24905126 C17.3431304,4.0893569 17.1264668,3.9997519 16.900625,4.00000052 L8.1134375,4.00000052 C7.88486063,3.9997519 7.66557406,4.0904434 7.50394572,4.25207173 C7.34231737,4.41370007 7.25162587,4.63298663 7.251875,4.86156347 L7.251875,17.1878126 C7.251875,17.2706099 7.21898391,17.350016 7.1604374,17.4085625 C7.10189089,17.467109 7.02248477,17.5000005 6.9396875,17.5000005 L5.3121875,17.5000005 C5.1397711,17.5000005 5,17.6397712 5,17.8121876 L5,19.0000005 L20,19.0000005 L20,17.8121876 C20,17.6397712 19.8602289,17.5000005 19.6878125,17.5000005 L18.0640625,17.5000005 C17.8916461,17.5000005 17.751875,17.360229 17.751875,17.1878126 Z M10.6878125,16.0000003 L9.8121875,16.0000003 C9.6397711,16.0000003 9.5,15.8602291 9.5,15.6878127 L9.5,14.8121878 C9.5,14.6396878 9.6396875,14.5000003 9.8121875,14.5000003 L10.6878125,14.5000003 C10.8603125,14.5000003 11,14.6396878 11,14.8121878 L11,15.6878127 C11,15.8602291 10.8602289,16.0000003 10.6878125,16.0000003 Z M10.6878125,12.2518756 L9.8121875,12.2518756 C9.6397711,12.2518756 9.5,12.1121044 9.5,11.939688 L9.5,11.064063 C9.5,10.8915631 9.6396875,10.7518756 9.8121875,10.7518756 L10.6878125,10.7518756 C10.8603125,10.7518756 11,10.8915631 11,11.064063 L11,11.939688 C11,12.1121044 10.8602289,12.2518756 10.6878125,12.2518756 Z M10.6878125,8.50000083 L9.8121875,8.50000083 C9.6397711,8.50000083 9.5,8.36022963 9.5,8.18781325 L9.5,7.31218831 C9.5,7.13968832 9.6396875,7.00000083 9.8121875,7.00000083 L10.6878125,7.00000083 C10.8603125,7.00000083 11,7.13968832 11,7.31218831 L11,8.18781325 C11,8.36022963 10.8602289,8.50000083 10.6878125,8.50000083 Z M15.1878125,16.0000008 L14.3121875,16.0000008 C14.1397711,16.0000008 14,15.8602291 14,15.6878127 L14,7.31218831 C14,7.13968832 14.1396875,7.00000083 14.3121875,7.00000083 L15.1878125,7.00000083 C15.3603125,7.00000083 15.5,7.13968832 15.5,7.31218831 L15.5,15.6878127 C15.5,15.8602291 15.3602289,16.0000008 15.1878125,16.0000008 L15.1878125,16.0000008 Z" id="形状" fill="#FFFFFF"></path>
                    </g>
                </g>
            </g>
        </g>
    </g>
</svg>