<?xml version="1.0" encoding="UTF-8"?>
<svg width="22px" height="26px" viewBox="0 0 22 26" version="1.1" xmlns="http://www.w3.org/2000/svg" xmlns:xlink="http://www.w3.org/1999/xlink">
    <title>wenjianleixing-biaozhuntu-yasuowenjian</title>
    <g id="2.4" stroke="none" stroke-width="1" fill="none" fill-rule="evenodd">
        <g id="任务列表查看" transform="translate(-2081.000000, -715.000000)" fill-rule="nonzero">
            <g id="编组-13" transform="translate(2072.000000, 704.000000)">
                <g id="wenjianleixing-biaozhuntu-yasuowenjian" transform="translate(9.000000, 11.000000)">
                    <path d="M1.61538462,0 L14.5384615,0 L21,6.5 L21,24.375 C21,25.2724875 20.2767923,26 19.3846154,26 L1.61538462,26 C0.723207692,26 0,25.2724875 0,24.375 L0,1.625 C0,0.7275125 0.723207692,0 1.61538462,0 Z" id="路径" fill="#576A95"></path>
                    <path d="M12,16.4546106 L12,20.0909221 C11.9999068,20.3321389 11.8955693,20.5634136 11.71,20.7337366 C11.5243012,20.9042752 11.2726825,21 11.0103636,21 L8.98963636,21 C8.72735147,21 8.47575103,20.9043501 8.29,20.7339039 C8.10434145,20.563499 8,20.3320876 8,20.0907548 L8,16.4546106 L12,16.4546106 L12,16.4546106 Z M11.0103636,18.5378583 L8.98963636,18.5378583 L8.98963636,20.3637124 L11.0103636,20.3637124 L11.0103636,18.5378583 Z M11.9669091,12.8182992 L11.9669091,14.6441533 L9.97945455,14.6441533 L9.97945455,12.8182992 L11.9669091,12.8182992 L11.9669091,12.8182992 Z M10.0041818,0 L10.0041818,1.84091615 L12,1.84091615 L12,3.68183231 L10.004,3.68183231 L10.004,5.38635331 L12,5.38635331 L12,7.22726946 L10.0041818,7.22726946 L10.0041818,9.04559255 L12,9.04559255 L12,10.8639156 L10.0041818,10.8639156 L10.0041818,12.6820714 L8,12.6820714 L8,10.8637483 L9.99581818,10.8637483 L9.99581818,9.0454252 L8,9.0454252 L8,7.22726946 L9.99581818,7.22726946 L9.99581818,5.38635331 L8,5.38635331 L8,3.54543716 L9.99581818,3.54543716 L9.99581818,1.84091615 L8,1.84091615 L8,0 L10.0041818,0 Z" id="形状" fill="#FFFFFF"></path>
                    <path d="M15,0 L22,7 L16.75,7 C15.783475,7 15,6.216525 15,5.25 L15,0 Z" id="路径" fill="#BBC3D4"></path>
                </g>
            </g>
        </g>
    </g>
</svg>