<?xml version="1.0" encoding="UTF-8"?>
<svg width="24px" height="24px" viewBox="0 0 24 24" version="1.1" xmlns="http://www.w3.org/2000/svg" xmlns:xlink="http://www.w3.org/1999/xlink">
    <title>编组 28</title>
    <g id="页面-1" stroke="none" stroke-width="1" fill="none" fill-rule="evenodd">
        <g id="工作台" transform="translate(-934.000000, -1224.000000)">
            <g id="预览型-双栏-转化漏斗" transform="translate(822.000000, 1024.000000)">
                <g id="编组-28" transform="translate(112.000000, 200.000000)">
                    <circle id="椭圆形" stroke="#FFFFFF" stroke-width="0.5" opacity="0.5" cx="12" cy="12" r="11.75"></circle>
                    <path d="M12.5000062,7.54325152 L18.5716284,12.6169515 L18.5716284,17.8333054 C18.5716284,18.4166607 17.9644479,19 17.357284,19 L17.357284,19 L7.64274501,19 C7.03556451,19 6.42841724,18.4166447 6.42841724,17.8333054 L6.42841724,17.8333054 L6.42841724,12.6169515 L12.5000062,7.54325152 Z M13.1072033,13.1666228 L11.8928756,13.1666228 C11.2222553,13.1666228 10.6785478,13.6890436 10.6785478,14.3333014 L10.6785478,14.3333014 L10.6785478,17.249982 L14.3215311,17.249982 L14.3215311,14.3333014 C14.3215311,13.6890117 13.777807,13.1666228 13.1072033,13.1666228 L13.1072033,13.1666228 Z M12.5000228,5 C12.8154437,5 13.1308977,5.10480344 13.3799544,5.31330882 L15.535809,7.11600787 L15.535809,6.16667864 C15.535809,5.8442544 15.8073637,5.58335528 16.1429563,5.58335528 L16.7501202,5.58335528 C17.0856961,5.58335528 17.3572674,5.8442544 17.3572674,6.16667864 L17.3572674,8.63900225 L20.7790923,11.5004156 C20.9806771,11.6678936 21.0524082,11.9396482 20.9605053,12.1817418 C20.8692505,12.4232926 20.6338189,12.5833313 20.3687943,12.5833313 L19.4568438,12.5833313 L12.5000228,6.77022834 L5.54316861,12.5833313 L4.63125136,12.5833313 C4.36621015,12.5833313 4.13081181,12.4232926 4.03949048,12.1817577 C3.94758759,11.9396323 4.01933531,11.6678936 4.2209534,11.5004316 L11.6200913,5.31330882 C11.869148,5.10483537 12.184602,5 12.5000228,5 Z" id="形状结合" fill="#FFFFFF"></path>
                </g>
            </g>
        </g>
    </g>
</svg>