<?xml version="1.0" encoding="UTF-8"?>
<svg width="16px" height="16px" viewBox="0 0 16 16" version="1.1" xmlns="http://www.w3.org/2000/svg" xmlns:xlink="http://www.w3.org/1999/xlink">
    <g id="页面-1" stroke="none" stroke-width="1" fill="none" fill-rule="evenodd">
        <g id="切图" transform="translate(-23.000000, -724.000000)" fill-rule="nonzero">
            <g id="icon/more" transform="translate(23.000000, 724.000000)">
                <rect id="矩形" fill="#FFFFFF" opacity="0.01" x="0" y="0" width="16" height="16"></rect>
                <path d="M8.00492611,11 C8.55665025,11 9,11.453202 9,12.0049261 C9,12.5566502 8.54679803,13 7.99507389,13 C7.44334975,13 7,12.546798 7,11.9950739 C7,11.4433498 7.45320197,11 8.00492611,11 Z M8.00492611,7.00015766 C8.55665025,7.00015766 9,7.45335963 9,8.00508377 C9,8.5568079 8.54679803,9.00015766 7.99507389,9.00015766 C7.44334975,9.00015766 7,8.54695569 7,7.99523155 C7,7.44350741 7.45320197,6.99030544 8.00492611,7.00015766 Z M8.00492611,3 C8.55665025,3 9,3.45320197 9,4.00492611 C9,4.55665025 8.54679803,5 7.99507389,5 C7.44334975,5 7,4.54679803 7,3.99507389 C7,3.44334975 7.45320197,3 8.00492611,3 Z" id="形状结合" fill="#36A4FF"></path>
            </g>
        </g>
    </g>
</svg>
