<?xml version="1.0" encoding="UTF-8"?>
<svg width="16px" height="16px" viewBox="0 0 16 16" version="1.1" xmlns="http://www.w3.org/2000/svg" xmlns:xlink="http://www.w3.org/1999/xlink">
    <g id="页面-1" stroke="none" stroke-width="1" fill="none" fill-rule="evenodd">
        <g id="切图" transform="translate(-22.000000, -699.000000)" fill-rule="nonzero">
            <g id="icon/add" transform="translate(22.000000, 699.000000)">
                <rect id="矩形" fill="#FFFFFF" opacity="0.01" x="0" y="0" width="16" height="16"></rect>
                <path d="M8,1 C4.17333333,1 1,4.17333333 1,8 C1,11.8266667 4.17333333,15 8,15 C11.8266667,15 15,11.8266667 15,8 C15,4.17333333 11.8266667,1 8,1 Z M8,14.0666667 C4.64,14.0666667 1.93333333,11.36 1.93333333,8 C1.93333333,4.64 4.64,1.93333333 8,1.93333333 C11.36,1.93333333 14.0666667,4.64 14.0666667,8 C14.0666667,11.36 11.36,14.0666667 8,14.0666667 Z M11.2,8 C11.2,8.28 11.0133333,8.46666667 10.7333333,8.46666667 L8.46666667,8.46666667 L8.46666667,10.7333333 C8.46666667,11.0133333 8.28,11.2 8,11.2 C7.72,11.2 7.53333333,11.0133333 7.53333333,10.7333333 L7.53333333,8.46666667 L5.26666667,8.46666667 C4.98666667,8.46666667 4.8,8.28 4.8,8 C4.8,7.72 4.98666667,7.53333333 5.26666667,7.53333333 L7.53333333,7.53333333 L7.53333333,5.26666667 C7.53333333,4.98666667 7.72,4.8 8,4.8 C8.28,4.8 8.46666667,4.98666667 8.46666667,5.26666667 L8.46666667,7.53333333 L10.7333333,7.53333333 C11.0133333,7.53333333 11.2,7.72 11.2,8 Z" id="形状" fill="#36A4FF"></path>
            </g>
        </g>
    </g>
</svg>
