<?xml version="1.0" encoding="UTF-8"?>
<svg width="16px" height="16px" viewBox="0 0 16 16" version="1.1" xmlns="http://www.w3.org/2000/svg" xmlns:xlink="http://www.w3.org/1999/xlink">
    <title>会议h</title>
    <g id="页面-1" stroke="none" stroke-width="1" fill="none" fill-rule="evenodd">
        <g id="画板" transform="translate(-46.000000, -28.000000)" fill-rule="nonzero">
            <g id="会议h" transform="translate(46.000000, 28.000000)">
                <rect id="矩形" fill="#FFFFFF" opacity="0.01" x="0" y="0" width="16" height="16"></rect>
                <path d="M13.6,10.1950771 L2.40000001,10.1950771 L2.40000001,2.41462726 L13.6,2.41462726 L13.6,10.1950771 L13.6,10.1950771 Z M14.3,1 L1.7,1 C1.31340068,1 1,1.3166751 1,1.70731363 L1,10.9023907 C1,11.2930293 1.31340068,11.6097043 1.7,11.6097043 L6.31020001,11.6097043 L2.9551,14.9998585 L3.9449,16 L7.3,12.6098458 L7.3,14.7926156 L8.7,14.7926156 L8.7,12.6098458 L12.0551,16 L13.0449,14.9998585 L9.68979999,11.6097043 L14.3,11.6097043 C14.6865993,11.6097043 15,11.2930293 15,10.9023907 L15,1.70731363 C15,1.3166751 14.6865993,1 14.3,1 L14.3,1 Z" id="形状" fill="#36A4FF"></path>
                <path d="M7.3,7.17555525 L5.84820001,5.80478145 L4.78980001,6.80492291 L7.41060001,9.28052059 C7.70250001,9.5563729 8.17710001,9.5563729 8.46900001,9.28052059 L11.0898,6.80492291 L10.0314,5.80478145 L8.7,7.06238506 L8.7,3.8292545 L7.3,3.8292545 L7.3,7.17555525 Z" id="路径" fill="#36A4FF"></path>
            </g>
        </g>
    </g>
</svg>