<?xml version="1.0" encoding="UTF-8"?>
<svg width="16px" height="16px" viewBox="0 0 16 16" version="1.1" xmlns="http://www.w3.org/2000/svg" xmlns:xlink="http://www.w3.org/1999/xlink">
    <title>icon/9+x_护路护线</title>
    <g id="icon/9+x_护路护线" stroke="none" stroke-width="1" fill="none" fill-rule="evenodd">
        <g id="huluhuxian" transform="translate(0.976173, 1.934767)">
            <path d="M6.53635766,0.0752078237 L7.41814141,0.0752078237 L7.48884269,1.69449294 C7.49333481,1.79839332 7.45138537,1.89948685 7.37265984,1.97448079 C7.29393431,2.04947472 7.18522268,2.09190092 7.07157297,2.09198414 L6.89184635,2.09198414 C6.77852664,2.0920469 6.67004459,2.04997211 6.59129775,1.97541623 C6.51255092,1.90086035 6.47030156,1.80022572 6.47424625,1.69660887 L6.53635766,0.0752078237 L6.53635766,0.0752078237 Z M6.81850203,3.10037219 L7.11485273,3.10037219 C7.33951101,3.10037219 7.52386295,3.26299593 7.53245283,3.46824039 L7.66625665,6.73734037 C7.67056679,6.84111033 7.62852557,6.94201527 7.54981024,7.01682843 C7.4710949,7.09164159 7.3624872,7.13392467 7.24898694,7.13392467 L6.69328807,7.13392467 C6.57996631,7.13392467 6.47151761,7.09175632 6.39283273,7.01714311 C6.31414785,6.94252989 6.27198396,6.84186303 6.27601836,6.73824719 L6.40090193,3.46914722 C6.40883105,3.26360048 6.59351337,3.10037219 6.81850203,3.10037219 L6.81850203,3.10037219 Z M6.09563097,12.0652328 L6.24562341,8.39954849 C6.25397865,8.19410224 6.43851973,8.03153811 6.66322351,8.03168019 L7.33521607,8.03168019 C7.55987435,8.03168019 7.74422629,8.19430402 7.75281617,8.39954849 L7.90313899,12.0652328 L6.09563097,12.0652328 Z M13.988582,11.9395451 L10.320032,11.9395451 L8.62221006,0 L10.5160978,0 L13.988582,11.9395451 Z M0,12.0047778 L3.66855001,12.0047778 L5.36637193,0.0652327613 L3.47248413,0.0652327613 L0,12.0047778 Z" id="形状" fill="#444444" fill-rule="nonzero"></path>
            <polygon id="矩形" fill="#36A4FF" points="6.53635766 0.0752078237 7.41814141 0.0752078237 7.5457569 2.09198414 6.40070249 2.09198414"></polygon>
            <polygon id="矩形" fill="#36A4FF" points="6.40070249 3.10037219 7.5457569 3.10037219 7.72945654 7.13392467 6.21236538 7.13392467"></polygon>
            <polygon id="矩形" fill="#36A4FF" points="6.21236538 8.03168019 7.78981089 8.03168019 7.90313899 12.0652328 6.09563097 12.0652328"></polygon>
        </g>
    </g>
</svg>