<?xml version="1.0" encoding="UTF-8"?>
<svg width="16px" height="16px" viewBox="0 0 16 16" version="1.1" xmlns="http://www.w3.org/2000/svg" xmlns:xlink="http://www.w3.org/1999/xlink">
    <title>icon/9+x_hover</title>
    <g id="icon/9+x_hover" stroke="none" stroke-width="1" fill="none" fill-rule="evenodd">
        <g id="编组" transform="translate(1.000000, 2.000000)" fill="#36A4FF" fill-rule="nonzero">
            <g id="a-9">
                <path d="M1.55120313,7.43595264 C1.06155568,7.08288482 0.677672076,6.60495156 0.407386682,6.00645856 C0.137101287,5.40796555 0,4.75349839 0,4.04736276 C0,3.20775027 0.152770006,2.48439182 0.454392837,1.8729817 C0.759932848,1.26157158 1.17515389,0.796555436 1.70397314,0.477933262 C2.23279239,0.159311087 2.83212087,0 3.50195859,0 C4.17179631,0 4.77112479,0.159311087 5.29994404,0.477933262 C5.82876329,0.796555436 6.24398433,1.26157158 6.54560716,1.8729817 C6.84722999,2.48439182 7,3.20775027 7,4.04736276 C7,4.62432723 6.91382205,5.18406889 6.74538332,5.72658773 C6.5769446,6.27341227 6.32232792,6.87190527 5.98545048,7.52206674 C5.64857303,8.1722282 5.09233352,9.19698601 4.31281477,10.5877287 C4.10912143,10.9321851 3.85058758,11.3972013 3.52937885,11.9827772 L1.57470621,12 L3.97202015,7.90958019 C3.79574706,7.94833154 3.54896475,7.96986006 3.22775602,7.96986006 C2.60100727,7.96555436 2.04476777,7.78902045 1.55120313,7.43595264 Z M2.51091214,2.01506997 C2.23670957,2.23896663 2.02909905,2.52744887 1.89199776,2.88482239 C1.75489647,3.24219591 1.68438724,3.62109795 1.68438724,4.01291712 C1.68438724,4.598493 1.83324007,5.11948332 2.12702854,5.58019376 C2.42081701,6.0409042 2.89087857,6.26910657 3.53329603,6.26910657 C3.90934527,6.26910657 4.23447118,6.16146394 4.50475658,5.94187298 C4.77504197,5.72658773 4.97873531,5.4467169 5.11975378,5.1022605 C5.25685506,4.75780409 5.3273643,4.39612487 5.3273643,4.01291712 C5.3273643,3.62109795 5.25685506,3.24219591 5.11975378,2.88482239 C4.98265249,2.52744887 4.77504197,2.23466093 4.5008394,2.01506997 C4.22663682,1.7911733 3.89367655,1.68353068 3.50979295,1.68353068 C3.12590935,1.68353068 2.78511472,1.7911733 2.51091214,2.01506997 Z" id="形状"></path>
            </g>
            <g id="+x" transform="translate(6.000000, 7.000000)">
                <polygon id="路径" points="1.48684583 1.25 1.48684583 2.86881188 0 2.86881188 0 3.37376238 1.48684583 3.37376238 1.48684583 5 1.94851485 5 1.94851485 3.37376238 3.42857143 3.37376238 3.42857143 2.86881188 1.94851485 2.86881188 1.94851485 1.25"></polygon>
                <polygon id="路径" points="3.63011738 0 5.30661323 2.35009671 3.42857143 5 4.29888348 5 5.7188663 2.92069632 7.12968795 5 8 5 6.1219582 2.35009671 7.79845405 0 6.93730318 0 5.7188663 1.7794971 4.49126825 0"></polygon>
            </g>
        </g>
    </g>
</svg>