<?xml version="1.0" encoding="UTF-8"?>
<svg width="16px" height="16px" viewBox="0 0 16 16" version="1.1" xmlns="http://www.w3.org/2000/svg" xmlns:xlink="http://www.w3.org/1999/xlink">
    <title>任务巡检_地址管理hover</title>
    <g id="任务巡检_地址管理hover" stroke="none" stroke-width="1" fill="none" fill-rule="evenodd">
        <g id="icon/导航/地址管理hover">
            <rect id="矩形" fill="#FFFFFF" fill-rule="nonzero" opacity="0.01" x="0" y="0" width="16" height="16"></rect>
            <rect id="矩形" fill="#36A4FF" x="1" y="14" width="14" height="1.4"></rect>
            <path d="M8.00610352,0.3 L7.73308458,0.307562425 C6.63985388,0.370214796 5.61289915,0.76975634 4.77961843,1.45086384 C2.59957065,3.2327926 2.27681364,6.44461444 4.05869144,8.62472395 L8.00026619,13.4469264 L11.9491962,8.61533225 C12.6925878,7.70584557 13.0986906,6.56728269 13.0986906,5.39258707 C13.0986906,2.58002889 10.8186617,0.3 8.00610352,0.3 Z M7.7934434,1.7061158 L8.00610352,1.7 C10.045463,1.7 11.6986906,3.35322754 11.6986906,5.39258707 L11.6914275,5.62412858 C11.643132,6.39306708 11.3552327,7.12983688 10.8652113,7.72934311 L8,11.234 L5.14266953,7.7387265 C3.85010556,6.1572875 4.08423335,3.82743334 5.665631,2.53482958 C6.27008454,2.04076098 7.01504151,1.75093198 7.7934434,1.7061158 Z" id="矩形" fill="#36A4FF" fill-rule="nonzero"></path>
            <path d="M8,3 C9.1045695,3 10,3.8954305 10,5 C10,6.1045695 9.1045695,7 8,7 C6.8954305,7 6,6.1045695 6,5 C6,3.8954305 6.8954305,3 8,3 Z M8,4.4 C7.66862915,4.4 7.4,4.66862915 7.4,5 C7.4,5.33137085 7.66862915,5.6 8,5.6 C8.33137085,5.6 8.6,5.33137085 8.6,5 C8.6,4.66862915 8.33137085,4.4 8,4.4 Z" id="椭圆形" fill="#36A4FF" fill-rule="nonzero"></path>
        </g>
    </g>
</svg>