<?xml version="1.0" encoding="UTF-8"?>
<svg width="16px" height="16px" viewBox="0 0 16 16" version="1.1" xmlns="http://www.w3.org/2000/svg" xmlns:xlink="http://www.w3.org/1999/xlink">
    <title>icon/导航/实时情况bl</title>
    <g id="icon/导航/实时情况bl" stroke="none" stroke-width="1" fill="none" fill-rule="evenodd">
        <g id="shishijifei" transform="translate(1.000000, 1.000000)" fill-rule="nonzero">
            <path d="M7,1 C7.8109375,1 8.596875,1.1578125 9.3359375,1.471875 C10.05,1.7734375 10.6921875,2.20625 11.24375,2.7578125 C11.7953125,3.309375 12.228125,3.9515625 12.5296875,4.665625 C12.8421875,5.4046875 13.0015625,6.190625 13.0015625,7.0015625 C13.0015625,7.8125 12.84375,8.5984375 12.5296875,9.3375 C12.228125,10.0515625 11.7953125,10.69375 11.24375,11.2453125 C10.6921875,11.796875 10.05,12.2296875 9.3359375,12.53125 C8.596875,12.84375 7.8109375,13.003125 7,13.003125 C6.1890625,13.003125 5.403125,12.8453125 4.6640625,12.53125 C3.95,12.2296875 3.3078125,11.796875 2.75625,11.2453125 C2.2046875,10.69375 1.771875,10.0515625 1.4703125,9.3375 C1.1578125,8.5984375 0.9984375,7.8125 0.9984375,7.0015625 C0.9984375,6.190625 1.15625,5.4046875 1.4703125,4.665625 C1.771875,3.9515625 2.2046875,3.309375 2.75625,2.7578125 C3.3078125,2.20625 3.95,1.7734375 4.6640625,1.471875 C5.4046875,1.159375 6.190625,1 7,1 M7,0 C3.134375,0 0,3.134375 0,7 C0,10.865625 3.134375,14 7,14 C10.865625,14 14,10.865625 14,7 C14,3.134375 10.8671875,0 7,0 Z" id="形状" fill="#36A4FF"></path>
            <path d="M6.9953125,1.8421875 C4.146875,1.8421875 1.8390625,4.15 1.8390625,6.9984375 C1.8390625,9.846875 4.146875,12.1546875 6.9953125,12.1546875 C9.84375,12.1546875 12.1515625,9.846875 12.1515625,6.9984375 C12.1515625,4.15 9.84375,1.8421875 6.9953125,1.8421875 Z" id="形状" fill="#36A4FF"></path>
            <path d="M10.1046875,6.6078125 C10.1046875,6.8921875 9.8734375,7.1234375 9.5890625,7.1234375 L6.50625,7.1234375 C6.221875,7.1234375 5.990625,6.8921875 5.990625,6.6078125 L5.990625,3.5265625 C5.990625,3.2421875 6.221875,3.0109375 6.50625,3.0109375 C6.790625,3.0109375 7.021875,3.2421875 7.021875,3.5265625 L7.021875,6.0921875 L9.5890625,6.0921875 C9.8734375,6.0921875 10.1046875,6.3234375 10.1046875,6.6078125 Z" id="路径" fill="#FFFFFF"></path>
        </g>
    </g>
</svg>