<?xml version="1.0" encoding="UTF-8"?>
<svg width="16px" height="16px" viewBox="0 0 16 16" version="1.1" xmlns="http://www.w3.org/2000/svg" xmlns:xlink="http://www.w3.org/1999/xlink">
    <title>icon/9+x_数据概览hover</title>
    <g id="icon/9+x_数据概览hover" stroke="none" stroke-width="1" fill="none" fill-rule="evenodd">
        <g id="shuju" transform="translate(1.000000, 2.000000)" fill="#36A4FF" fill-rule="nonzero">
            <path d="M12.7166667,5.85 L12.7166667,11.9166667 L14,11.9166667 L14,13 L0,13 L0,11.9166667 L1.16666667,11.9166667 L1.16666667,9.85833333 L2.33333333,9.85833333 L2.33333333,11.9166667 L4.66666667,11.9166667 L4.66666667,6.825 L5.83333333,6.825 L5.83333333,11.9166667 L8.16666667,11.9166667 L8.16666667,8.88333333 L9.33333333,8.88333333 L9.33333333,11.9166667 L11.6666667,11.9166667 L11.6666667,5.85 L12.7166667,5.85 Z M14,0 L14,4.55 L12.8333333,4.55 L12.8333333,1.73333333 L8.98333333,5.30833333 L8.05,6.06666667 L6.06666667,4.225 L1.05,8.88333333 L0.233333333,8.125 L6.06666667,2.70833333 L8.16666667,4.55 L11.9,1.08333333 L9.33333333,1.08333333 L9.33333333,0 L14,0 Z" id="形状"></path>
        </g>
    </g>
</svg>