<?xml version="1.0" encoding="UTF-8"?>
<svg width="16px" height="16px" viewBox="0 0 16 16" version="1.1" xmlns="http://www.w3.org/2000/svg" xmlns:xlink="http://www.w3.org/1999/xlink">
    <title>icon/导航/组织管理w</title>
    <g id="icon/导航/组织管理w" stroke="none" stroke-width="1" fill="none" fill-rule="evenodd">
        <rect id="矩形" fill="#D8D8D8" opacity="0" x="0" y="0" width="16" height="16"></rect>
        <g id="zuzhiguanli" transform="translate(0.000000, 0.000000)" fill="#4B4B4B" fill-rule="nonzero">
            <polygon id="路径备份" points="14.4031111 6.97314286 12.0146667 8.50314286 12.0142222 8.50228572 8 11.0822857 3.98666667 8.50228572 3.98622222 8.50314286 1.59733333 6.97314286 0 8 8 13.1428571 16 8 14.4031111 6.97314286"></polygon>
            <path d="M14.4031111,9.83028572 L12.0146667,11.3602857 L12.0142222,11.3594286 L8,13.9394286 L3.98666667,11.3594286 L3.98622222,11.3602857 L1.59733333,9.83028572 L0,10.8571429 L8,16 L16,10.8571429 L14.4031111,9.83028572 L14.4031111,9.83028572 Z M8,0 L16,5.14285714 L8,10.2857143 L0,5.14285714 L8,0 Z M8,2.06014285 L3.20488889,5.14285714 L8,8.22557143 L12.7951111,5.14285714 L8,2.06014285 Z" id="形状"></path>
        </g>
    </g>
</svg>