<?xml version="1.0" encoding="UTF-8"?>
<svg width="16px" height="16px" viewBox="0 0 16 16" version="1.1" xmlns="http://www.w3.org/2000/svg" xmlns:xlink="http://www.w3.org/1999/xlink">
    <title>icon/视频平台hover</title>
    <g id="icon/视频平台hover" stroke="none" stroke-width="1" fill="none" fill-rule="evenodd">
        <g id="shipinyingshi" transform="translate(1.662651, 2.786506)" fill="#36A4FF" fill-rule="nonzero">
            <path d="M6.1686747,4.22554217 C2.76240963,4.22554217 0,3.18978314 0,1.91228916 C0,1.11730121 1.06987951,0.416385545 2.69879518,0 L2.69879518,0.732530121 C1.52096385,1.01551808 0.771084339,1.43903615 0.771084339,1.91306025 C0.771084339,2.7647229 3.18843374,3.45522892 6.1686747,3.45522892 C9.14891565,3.45522892 11.5662651,2.7647229 11.5662651,1.91306025 C11.5662651,1.43903615 10.8163855,1.01551808 9.63855421,0.732530121 L9.63855421,0 C11.2674699,0.416385545 12.3373494,1.11807228 12.3373494,1.91228916 C12.3373494,3.18978314 9.57493976,4.22554217 6.1686747,4.22554217 L6.1686747,4.22554217 Z" id="路径"></path>
            <path d="M6.1686747,10.0086747 C9.14891567,10.0086747 11.5662651,9.23199999 11.5662651,8.27373494 L12.3373494,8.27373494 C12.3373494,9.65783133 9.57493976,10.779759 6.1686747,10.779759 C2.76240963,10.779759 0,9.65783132 0,8.27373494 L0.771084339,8.27373494 C0.771084339,9.232 3.18843374,10.0086747 6.1686747,10.0086747 L6.1686747,10.0086747 Z" id="路径"></path>
            <path d="M9.63855421,9.62313253 L9.63855421,8.08096385 L10.4096386,8.08096385 L10.4096386,9.62313253 L9.63855421,9.62313253 Z M9.63855421,5.76771085 L10.4096386,5.76771085 L10.4096386,7.30987951 L9.63855421,7.30987951 L9.63855421,5.76771085 Z M9.63855421,0.370120478 L10.4096386,0.370120478 L10.4096386,4.99662651 L9.63855421,4.99662651 L9.63855421,0.370120478 Z M1.92771084,8.08096385 L2.69879518,8.08096385 L2.69879518,9.62313253 L1.92771084,9.62313253 L1.92771084,8.08096385 Z M1.92771084,5.76771085 L2.69879518,5.76771085 L2.69879518,7.30987951 L1.92771084,7.30987951 L1.92771084,5.76771085 Z M1.92771084,0.370120478 L2.69879518,0.370120478 L2.69879518,4.99662651 L1.92771084,4.99662651 L1.92771084,0.370120478 Z M0,2.49060241 L0.771084339,2.49060241 L0.771084339,8.27373494 L0,8.27373494 L0,2.49060241 L0,2.49060241 Z M11.5662651,2.49060241 L12.3373494,2.49060241 L12.3373494,8.27373494 L11.5662651,8.27373494 L11.5662651,2.49060241 Z" id="形状"></path>
            <polygon id="路径" points="5.0120482 5.38216867 5.0120482 8.46650603 7.71084337 6.92433735"></polygon>
        </g>
    </g>
</svg>