<?xml version="1.0" encoding="UTF-8"?>
<svg width="16px" height="16px" viewBox="0 0 16 16" version="1.1" xmlns="http://www.w3.org/2000/svg" xmlns:xlink="http://www.w3.org/1999/xlink">
    <title>治理要素_环境主题hover</title>
    <g id="治理要素_环境主题hover" stroke="none" stroke-width="1" fill="none" fill-rule="evenodd">
        <g id="icon/导航/环境主题hover">
            <rect id="矩形" fill="#D8D8D8" opacity="0" x="0" y="0" width="16" height="16"></rect>
            <g id="编组" fill="#36A4FF" fill-rule="nonzero">
                <path d="M4.9355433,0 L6.66705333,1.66135142 C8.26134719,3.19104649 9.3904752,5.31974734 9.61491305,7.35710582 L9.64077379,7.64746111 L8.24397324,7.74205619 C8.13133494,6.07882763 7.23093496,4.24818523 5.92000616,2.89292094 L5.69778151,2.67155543 L4.896,1.90241149 L3.74213442,2.92310405 C2.32378975,4.17660896 1.48266901,5.95236935 1.40577848,7.83554049 L1.4,8.11876988 C1.4,9.99679075 2.19600552,11.7820319 3.58224125,13.0361093 L3.79457762,13.2201824 L4,13.391 L4,10.988 L2.34324486,9.30036041 L3.05675514,8.59971564 L4,9.56 L4,7.52 L2.90601469,6.50756043 L3.58529391,5.77368051 L4,6.157 L4,4.54052281 L5.4,4.54052281 L5.4,7.294 L6.4017113,6.55013371 L6.9982887,7.35268926 L5.4,8.54 L5.4,14.3356888 L5.137,14.335 L5.23072518,14.4129079 L4.843,14.8794115 L5.48047005,14.8564366 C5.4771877,14.7674101 5.45416049,14.6810142 5.41394316,14.6031578 L5.36809041,14.5283669 L5.73474424,15.038513 L4.80109477,15.8759561 L2.90011944,14.2971897 C1.06287365,12.7713508 0,10.5070028 0,8.11876988 C0,5.82949511 0.941428582,3.64569381 2.59528129,2.07537721 L2.8150226,1.87407418 L4.9355433,0 Z" id="形状结合"></path>
            </g>
            <g id="编组" transform="translate(9.531224, 11.262159) rotate(60.000000) translate(-9.531224, -11.262159) translate(5.520111, 5.326646)" fill="#36A4FF" fill-rule="nonzero">
                <path d="M4.40847572,1.42108547e-14 L6.16337115,1.68378928 C7.44981137,2.91810455 8.12543122,4.65757179 8.00939857,6.4366162 L7.95648418,7.24791415 C7.87314718,8.52565982 7.2882912,9.71871443 6.3293107,10.5672045 L4.88408488,11.8459164 C4.85289159,11.8735157 4.80785813,11.878891 4.77104516,11.859409 L2.26967085,10.5356422 C0.783310943,9.74903704 -0.101936274,8.16232602 0.00939856606,6.4843457 C0.126637928,4.71737551 0.936833544,3.06816856 2.26374796,1.8954679 L4.40847572,1.42108547e-14 Z M4.36938586,1.903 L3.19085978,2.94449777 C2.14048035,3.87280229 1.49913318,5.17830702 1.40632703,6.5770326 C1.33594374,7.63781268 1.85851665,8.64428845 2.7525867,9.19951821 L2.92452424,9.29823884 L3.903,9.816 L3.462,5.513 L2.27762057,4.40286887 L2.96151522,3.67328809 L3.307,3.997 L3.26415526,3.58117523 L4.67496888,3.42250789 L4.928,5.673 L5.52809717,5.23269682 L6.12467456,6.03525237 L5.058,6.827 L5.365,9.55 L5.4016084,9.5186968 C6.03149719,8.96138162 6.43455197,8.19515484 6.53947423,7.36545912 L6.55945244,7.1567971 L6.61236683,6.34549915 C6.69594088,5.06411877 6.2449541,3.80946275 5.37388116,2.87626039 L5.19409934,2.69399329 L4.36938586,1.903 Z" id="形状结合"></path>
            </g>
        </g>
    </g>
</svg>