<?xml version="1.0" encoding="UTF-8"?>
<svg width="16px" height="16px" viewBox="0 0 16 16" version="1.1" xmlns="http://www.w3.org/2000/svg" xmlns:xlink="http://www.w3.org/1999/xlink">
    <title>icon/一标N实_实有房屋hover</title>
    <g id="icon/一标N实_实有房屋hover" stroke="none" stroke-width="1" fill="none" fill-rule="evenodd">
        <g id="icon/导航/任务" fill="#FFFFFF" fill-rule="nonzero" opacity="0.01">
            <rect id="矩形" x="0" y="0" width="16" height="16"></rect>
        </g>
        <g id="danwei" transform="translate(1.000000, 1.000000)" fill="#36A4FF">
            <path d="M12.5990157,14 L12.5990157,6.63130628 L12.5990157,5.1582583 L4.2013124,5.1582583 L4.2013124,6.63130628 L4.2013124,14 L12.5990157,14 Z M14,14 L12.5990157,14 L4.20002774,14 L3.49487305,14 L2.79904344,14 L2.7986876,6.63130628 L2.7986876,3.68348341 L8.3993438,3.68348341 L8.3993438,2.94782287 L8.3993438,1.47477489 L1.4009843,1.47477489 L1.4009843,2.94782287 L1.4009843,14 L0.674682617,14 L0,14 L0,2.94782287 L0,0 L9.8003281,0 L9.8003281,2.94782287 L9.8003281,3.68521031 L14,3.68521031 L14,6.63303318 L14,14 Z" id="形状" fill-rule="nonzero"></path>
            <polygon id="路径" points="10.8382802 8.87850467 9.50032121 8.87850467 9.50032121 6 10.1693007 6 10.8382802 6"></polygon>
            <polygon id="路径" points="7.76699219 8.87850467 6.42903321 8.87850467 6.42903321 6 7.0980127 6 7.76699219 6"></polygon>
            <polygon id="路径" points="10.8382802 13 9.50032121 13 9.50032121 10.1214953 10.1693007 10.1214953 10.8382802 10.1214953"></polygon>
            <polygon id="路径" points="7.76699219 13 6.42903321 13 6.42903321 10.1214953 7.0980127 10.1214953 7.76699219 10.1214953"></polygon>
        </g>
    </g>
</svg>