<?xml version="1.0" encoding="UTF-8"?>
<svg width="16px" height="16px" viewBox="0 0 16 16" version="1.1" xmlns="http://www.w3.org/2000/svg" xmlns:xlink="http://www.w3.org/1999/xlink">
    <title>icon/群众诉求</title>
    <g id="icon/群众诉求" stroke="none" stroke-width="1" fill="none" fill-rule="evenodd">
        <g id="qiyesuqiu" transform="translate(1.000862, 1.000000)" fill-rule="nonzero">
            <path d="M1.8342104,12.9997656 L0,14 L0,0 L11.0107947,0 L11.0107947,7.23462075 L10.0093354,7.23460708 L10.0093354,0.999824219 L1.00143199,0.999824219 L1.00143199,12.3137656 L1.35510332,12.1216484 L1.83381328,11.860707 L2.31252324,12.1216484 L3.66920136,12.8605449 L5.0325073,12.1216484 L5.51121726,11.8622656 L5.99032435,12.123207 L7.39802632,12.8605449 L6.91775525,13.7374863 L5.51008067,12.9997656 L3.67115958,14 L1.8342104,12.9997656 Z M12.497948,12.9515586 L8.99427798,12.9515586 L8.99427798,8.96738281 C9.23938837,8.96733916 9.40622523,8.96733916 9.49478857,8.96738281 L13.498216,8.96738281 C13.5868059,8.96733916 13.7538032,8.97826039 13.9992077,9.00014648 C13.9992077,9.22326778 13.9991842,9.37905228 13.9991374,9.4675 L13.9991374,12.9515586 C13.753753,12.9516875 13.5867792,12.9516829 13.498216,12.9515449 L13.482646,12.9515449 L13.9991374,13.9513828 L12.497948,12.9515586 Z M9.99570997,11.951707 L12.9976917,11.951707 L12.9976917,9.9672207 L9.99570997,9.9672207 L9.99570997,11.951707 Z" id="形状" fill="#4B4B4B"></path>
            <polygon id="路径" fill="#36A4FF" points="2.5026208 9.00005859 2.5026208 8.00023438 7.0065731 8.00023437 7.0065731 9.00005859"></polygon>
            <polygon id="路径" fill="#36A4FF" points="2.5026208 6.49988281 2.5026208 5.50005859 8.51085746 5.50005859 8.51240487 6.49988281"></polygon>
            <polygon id="路径" fill="#36A4FF" points="2.5026208 3.9997207 2.5026208 2.99988281 8.50932375 2.99988281 8.51085746 3.9997207"></polygon>
        </g>
    </g>
</svg>