<?xml version="1.0" encoding="UTF-8"?>
<svg width="16px" height="16px" viewBox="0 0 16 16" version="1.1" xmlns="http://www.w3.org/2000/svg" xmlns:xlink="http://www.w3.org/1999/xlink">
    <title>icon/消息平台</title>
    <g id="icon/消息平台" stroke="none" stroke-width="1" fill="none" fill-rule="evenodd">
        <g id="message" transform="translate(1.000000, 2.000000)" fill-rule="nonzero">
            <path d="M5.12199314,4.20671554 L2.62003515,4.20671554 L2.62003515,5.73109169 L5.12199314,5.73109169 L5.12199314,4.20671554 Z M8.12199314,4.20671554 L5.62003515,4.20671554 L5.62003515,5.73109169 L8.12199314,5.73109169 L8.12199314,4.20671554 Z M11.1219931,4.20671554 L8.62003515,4.20671554 L8.62003515,5.73109169 L11.1219931,5.73109169 L11.1219931,4.20671554 Z" id="形状" fill="#36A4FF"></path>
            <path d="M0,0 L0,8.69766333 C0,8.89440294 0,9.31389109 0,9.9561278 C0.580666569,9.9561278 1.00599752,9.9561278 1.27599286,9.9561278 L3.77019188,9.9561278 L3.77019188,8.71626133 L1.27599286,8.71626133 C1.26662204,8.71626133 1.25568942,8.70541249 1.25568942,8.69766333 L1.25568942,1.25846447 C1.25568942,1.24916547 1.26662204,1.23986648 1.27599286,1.23986648 L12.7240071,1.23986648 C12.733378,1.23986648 12.7443106,1.25071531 12.7443106,1.25846447 L12.7443106,8.69766333 C12.7443106,8.70696233 12.733378,8.71626133 12.7240071,8.71626133 L7.00780901,8.71626133 L6.52833556,8.8975918 L2.68335646,12.8186695 L4.33244087,12.8186695 L7.23114681,9.95767763 L12.7240071,9.95767763 C12.9339951,9.95767763 13.359326,9.95767763 14,9.95767763 C14,9.37413233 14,8.95464417 14,8.69921316 L14,0 L0,0 Z" id="路径" fill="#444444"></path>
        </g>
    </g>
</svg>