<?xml version="1.0" encoding="UTF-8"?>
<svg width="16px" height="16px" viewBox="0 0 16 16" version="1.1" xmlns="http://www.w3.org/2000/svg" xmlns:xlink="http://www.w3.org/1999/xlink">
    <title>协同中心</title>
    <g id="协同中心" stroke="none" stroke-width="1" fill="none" fill-rule="evenodd">
        <path d="M12,1 L12,2.3 L14.7,2.3 L14.7,15.7 L1.3,15.7 L1.3,2.3 L4,2.3 L4,1 L12,1 Z M12,4 L4,4 L4,3.7 L2.7,3.7 L2.7,14.3 L13.3,14.3 L13.3,3.7 L12,3.7 L12,4 Z M10.6,2.4 L5.4,2.4 L5.4,2.6 L10.6,2.6 L10.6,2.4 Z" id="形状结合" fill="#4B4B4B" fill-rule="nonzero"></path>
        <polygon id="路径-14" fill="#36A4FF" fill-rule="nonzero" points="10.7407488 5.59398247 11.8857771 6.711529 7.35765817 11.3509995 4.24102208 8.83435826 5.24620632 7.58952709 7.23 9.191"></polygon>
    </g>
</svg>