<?xml version="1.0" encoding="UTF-8"?>
<svg width="16px" height="16px" viewBox="0 0 16 16" version="1.1" xmlns="http://www.w3.org/2000/svg" xmlns:xlink="http://www.w3.org/1999/xlink">
    <title>移动管理后台-首页h</title>
    <g id="移动管理后台-首页h" stroke="none" stroke-width="1" fill="none" fill-rule="evenodd">
        <path d="M7.99880523,0.7 C8.36073833,0.7 8.72329001,0.815844737 9.01958447,1.05037132 L9.01958447,1.05037132 L14.7338717,5.57320264 C15.0888485,5.85415896 15.2986569,6.27103477 15.2988231,6.7133042 L15.2988231,6.7133042 L15.2988231,13.8088458 C15.2988231,14.2173463 15.1236629,14.5857006 14.8449298,14.8528983 C14.5552592,15.130581 14.1544526,15.3 13.7130738,15.3 L13.7130738,15.3 L2.28457249,15.3 C1.84319366,15.3 1.4423871,15.130581 1.15271644,14.8528983 C0.873983397,14.5857006 0.698823131,14.2173463 0.698823131,13.8088458 L0.698823131,13.8088458 L0.698823131,6.71369649 C0.698823131,6.27109407 0.908709916,5.85417291 1.26369862,5.57319798 L1.26369862,5.57319798 L6.97797297,1.05037684 C7.27428615,0.815852483 7.63685947,0.7 7.99880523,0.7 Z" id="路径" stroke="#00A2FF" stroke-width="1.4"></path>
        <path d="M5.1114575,7.60070293 C5.51479024,7.60070293 5.84180305,7.9277157 5.84180305,8.33104845 L5.84180305,11.2525286 C5.84188147,11.5134994 5.70265782,11.7546987 5.47662045,11.8851743 C5.25068114,12.0156499 4.97217501,12.0156499 4.74621609,11.8851743 C4.52019833,11.7546987 4.38105314,11.5134994 4.38105314,11.2525286 L4.38105314,8.33104845 C4.38105314,7.9277157 4.70806591,7.60070293 5.1114575,7.60070293 Z" id="路径" fill="#00A2FF"></path>
    </g>
</svg>