<?xml version="1.0" encoding="UTF-8"?>
<svg width="16px" height="16px" viewBox="0 0 16 16" version="1.1" xmlns="http://www.w3.org/2000/svg" xmlns:xlink="http://www.w3.org/1999/xlink">
    <title>日常治理-网格员管理_工作统计hover</title>
    <g id="日常治理-网格员管理_工作统计hover" stroke="none" stroke-width="1" fill="none" fill-rule="evenodd">
        <g id="日常治理-网格员管理_工作统计" transform="translate(1.000000, 1.000000)" fill-rule="nonzero" stroke="#36A4FF" stroke-width="1.6">
            <path d="M7.19130435,0.846418691 C8.75282576,1.02887576 10.1516898,1.73890239 11.2059515,2.79316411 C12.261068,3.84828059 12.9710069,5.24810982 13.1535299,6.80869564 L13.1535299,6.80869564 L7.19130435,6.80869564 Z" id="路径"></path>
            <path d="M4.9826087,2.19783052 L4.9826087,9.0173913 L11.8021695,9.0173913 C11.5253623,10.083392 10.9402286,11.0261498 10.1488687,11.7455678 C9.15532152,12.6487926 7.83605657,13.2 6.39130435,13.2 C4.8503675,13.2 3.45278558,12.5722299 2.44027784,11.5597222 C1.42777008,10.5472144 0.8,9.14963249 0.8,7.60869564 C0.8,6.16394342 1.35120741,4.84467847 2.25443217,3.85113124 C2.97385024,3.05977137 3.91660799,2.4746377 4.9826087,2.19783052 L4.9826087,2.19783052 Z" id="路径"></path>
        </g>
    </g>
</svg>