<?xml version="1.0" encoding="UTF-8"?>
<svg width="16px" height="16px" viewBox="0 0 16 16" version="1.1" xmlns="http://www.w3.org/2000/svg" xmlns:xlink="http://www.w3.org/1999/xlink">
    <title>icon/科学决策hover</title>
    <g id="icon/科学决策hover" stroke="none" stroke-width="1" fill="none" fill-rule="evenodd">
        <g id="kexuelilun" transform="translate(2.000000, 2.000000)" fill="#36A4FF" fill-rule="nonzero">
            <path d="M9.15789474,0 C9.38226432,0 9.80331695,0 10.4210526,0 L10.4210526,1.95 L12,1.95 C12,2.54516192 12,2.97849525 12,3.25 L12,11.7 C12,11.8662157 12,12.2995491 12,13 C11.4614715,13 11.0404188,13 10.7368421,13 L1.26315789,13 C0.565535053,13 0,12.4179702 0,11.7 L0,1.3 L0.00157894737,1.365 L0.00221052632,1.378325 C0.0455562188,0.60453356 0.66794208,0 1.42105263,0 L9.15789474,0 Z M1.42105263,2.925 L1.40778947,2.924675 L1.23915789,2.924675 L1.01652632,2.9172 L0.947368421,2.91525 L0.947368421,11.7 C0.947368421,11.8647668 1.06721277,12.0034473 1.22621053,12.022725 L1.26315789,12.025 L10.7368421,12.025 C10.7691201,12.025 10.8743833,12.0242417 11.0526316,12.022725 L11.0526316,2.9172 L1.42105263,2.925 Z M1.42105263,0.975 C1.16838436,0.975128754 0.960292648,1.17933496 0.94815025,1.43907231 C0.936007851,1.69880966 1.12408973,1.92263262 1.37557895,1.947725 L1.42105263,1.95 L9.47368421,1.95 L9.47368421,0.975 L1.42105263,0.975 Z" id="形状"></path>
            <polygon id="路径" points="2.63126783 5 9.47368421 5 9.47368421 6.33913536 2.63126783 6.33913536"></polygon>
            <polygon id="路径" points="2.63126783 7.470125 6.8153528 7.470125 6.8153528 8.67274118 2.63126783 8.67274118"></polygon>
        </g>
    </g>
</svg>