<?xml version="1.0" encoding="UTF-8"?>
<svg width="16px" height="16px" viewBox="0 0 16 16" version="1.1" xmlns="http://www.w3.org/2000/svg" xmlns:xlink="http://www.w3.org/1999/xlink">
    <title>治理要素</title>
    <g id="治理要素" stroke="none" stroke-width="1" fill="none" fill-rule="evenodd">
        <g id="yaosuziyuan" transform="translate(0.000000, 1.000000)" fill="#4B4B4B" fill-rule="nonzero">
            <path d="M12.9048898,0 C11.1991402,0 9.81493821,1.36528748 9.81493821,3.05212251 C9.81493821,3.52326706 9.93186459,3.96518001 10.1261687,4.36582483 L7.99914025,5.73799033 L5.90650188,4.38645889 C6.08533047,3.99613111 6.17818377,3.57141322 6.17990328,3.14153681 C6.17990328,1.45642128 4.79742074,0.0894142934 3.08995164,0.0894142934 C1.38420204,0.0894142934 0,1.45470177 0,3.14153681 C0,4.82837184 1.38420204,6.19365932 3.08995164,6.19365932 C3.98581408,6.19365932 4.78710371,5.81192907 5.35282106,5.2101021 L7.45577646,6.56335304 L7.45577646,8.75744224 C5.98731865,8.99301451 4.86620097,10.2448146 4.86620097,11.7596991 C4.86620097,13.4448146 6.2486835,14.8118216 7.95615261,14.8118216 C9.6619022,14.8118216 11.0461042,13.4465341 11.0461042,11.7596991 C11.0461042,10.2413756 9.92498657,8.99301451 8.45652875,8.75744224 L8.45652875,6.62353573 L10.6970446,5.17915099 C11.279957,5.77409995 12.0778076,6.10768404 12.9100484,6.10768404 C14.615798,6.10768404 16,4.74239656 16,3.05556153 C15.993122,1.36700699 14.6106394,0 12.9048898,0 M3.08651263,4.94013971 C2.08404084,4.94013971 1.27071467,4.13541107 1.27071467,3.14497582 C1.27071467,2.15454057 2.08404084,1.34981193 3.08651263,1.34981193 C4.08898442,1.34981193 4.90404093,2.15454057 4.90404093,3.14497582 C4.9074691,4.13541107 4.09242343,4.94013971 3.08651263,4.94013971 M9.76851155,11.7631381 C9.76851155,12.7535733 8.95518538,13.558302 7.95271359,13.558302 C6.95024181,13.558302 6.13691564,12.7535733 6.13691564,11.7648576 C6.13691564,10.7744224 6.95024181,9.96968273 7.95271359,9.96968273 C8.95518538,9.9662547 9.76851155,10.7709833 9.76851155,11.7631381 M12.9048898,4.85072542 C11.9024181,4.85072542 11.0890919,4.04599678 11.0890919,3.05556153 C11.0890919,2.06512628 11.9024181,1.26211714 12.9048898,1.26211714 C13.9073616,1.26211714 14.7206878,2.06684578 14.7206878,3.05556153 C14.7206878,4.04599678 13.9073616,4.85072542 12.9048898,4.85072542" id="形状"></path>
        </g>
        <path d="M11.4054809,7.91413219 C12.0588931,7.91413219 12.5867813,8.4368619 12.5867813,9.08167652 C12.5867813,9.72649113 12.0588931,10.2492208 11.4054809,10.2492208 C10.7520688,10.2492208 10.2241805,9.72821064 10.2241805,9.08167652 C10.2241805,8.4368619 10.7520688,7.91413219 11.4054809,7.91413219 Z M4.40709296,7.73358409 C5.0605051,7.7353036 5.58839334,8.25631381 5.58839334,8.90112843 C5.58839334,9.54594304 5.05706609,10.0686728 4.40709296,10.0686728 C3.75368082,10.0686728 3.22579258,9.54766255 3.22579258,8.90112843 C3.22579258,8.2545943 3.75368082,7.73358409 4.40709296,7.73358409 Z M8.04384739,1.63105857 C8.69725954,1.63105857 9.22514777,2.15206878 9.22514777,2.7986029 C9.22514777,3.44513702 8.69725954,3.96614723 8.04384739,3.96614723 C7.39043525,3.96614723 6.86082751,3.44169801 6.86254284,2.7986029 C6.86254284,2.15206878 7.39043525,1.63105857 8.04384739,1.63105857 Z" id="形状结合" fill="#36A4FF" fill-rule="nonzero"></path>
    </g>
</svg>