<?xml version="1.0" encoding="UTF-8"?>
<svg width="16px" height="16px" viewBox="0 0 16 16" version="1.1" xmlns="http://www.w3.org/2000/svg" xmlns:xlink="http://www.w3.org/1999/xlink">
    <title>协同中心_事件管理hover</title>
    <defs>
        <linearGradient x1="1.51499155%" y1="30.5343083%" x2="100%" y2="30.5343083%" id="linearGradient-1">
            <stop stop-color="#7AC1FF" offset="0%"></stop>
            <stop stop-color="#36A4FF" offset="100%"></stop>
        </linearGradient>
    </defs>
    <g id="协同中心_事件管理hover" stroke="none" stroke-width="1" fill="none" fill-rule="evenodd">
        <rect id="矩形" fill="url(#linearGradient-1)" opacity="0" x="0" y="0" width="16" height="16"></rect>
        <path d="M3,2 L3,3.299 L2.4,3.3 L2.4,13.7 L13.6,13.7 L13.6,3.3 L13,3.299 L13,2 L15,2 L15,15 L1,15 L1,2 L3,2 Z M12,1 L12,4 L4,4 L4,1 L12,1 Z M10.8,2.2 L5.2,2.2 L5.2,2.8 L10.8,2.8 L10.8,2.2 Z" id="形状结合" fill="#36A4FF" fill-rule="nonzero"></path>
        <path d="M12,6.2 L12,7.8 L6.37462936,7.8 L6.37462936,6.2 L12,6.2 Z M5.55958477,6.2 L5.55958477,7.8 L4,7.8 L4,6.2 L5.55958477,6.2 Z" id="形状结合" fill="#36A4FF" fill-rule="nonzero"></path>
        <path d="M9,9.40895111 L9,11.0089511 L6.37462936,11.0089511 L6.37462936,9.40895111 L9,9.40895111 Z M5.55958477,9.40895111 L5.55958477,11.0089511 L4,11.0089511 L4,9.40895111 L5.55958477,9.40895111 Z" id="形状结合" fill="#36A4FF" fill-rule="nonzero"></path>
    </g>
</svg>