<?xml version="1.0" encoding="UTF-8"?>
<svg width="16px" height="16px" viewBox="0 0 16 16" version="1.1" xmlns="http://www.w3.org/2000/svg" xmlns:xlink="http://www.w3.org/1999/xlink">
    <title>icon/运营平台</title>
    <g id="icon/运营平台" stroke="none" stroke-width="1" fill="none" fill-rule="evenodd">
        <g id="huodongyunying" transform="translate(1.000000, 2.000000)" fill-rule="nonzero">
            <path d="M2.13949163,0 C1.7730754,0 1.05991152,0 0,0 C0,0.968544838 0,1.65489494 0,2.05905031 L0,8.68392983 C0,9.07654955 0,9.76289966 0,10.7429801 C1.04792521,10.7429801 1.76108908,10.7429801 2.13949163,10.7429801 L11.8605084,10.7429801 C12.2785079,10.7429801 12.9916718,10.7429801 14,10.7429801 C14,9.72479142 14,9.03844132 14,8.68392983 L14,0 L2.13949163,0 Z M12.9584625,9.74060271 L1.04153751,9.74060271 L1.04153751,1.00237743 L12.9584625,1.00237743 L12.9584625,9.74060271 Z M11.948563,11.9976226 L1.98188022,11.9976226 L1.98188022,13 L11.948563,13 L11.948563,11.9976226 Z" id="形状" fill="#4B4B4B"></path>
            <path d="M3.57565789,5.14972706 C3.36394371,5.14972706 3.17205775,5.14972706 3,5.14972706 L3,9.05463862 L4.15131579,9.05463862 L4.15131579,5.14972706 L3.57565789,5.14972706 Z M6.26560639,2.06951913 L6.26560639,8.99238987 L7.55086595,8.99238987 L7.55086595,2.06951913 L6.26560639,2.06951913 Z M9.84868421,3.67037479 L9.84868421,8.98287543 L11,8.98287543 L11,3.67037479 L9.84868421,3.67037479 Z" id="形状" fill="#36A4FF"></path>
        </g>
    </g>
</svg>