<?xml version="1.0" encoding="UTF-8"?>
<svg width="16px" height="16px" viewBox="0 0 16 16" version="1.1" xmlns="http://www.w3.org/2000/svg" xmlns:xlink="http://www.w3.org/1999/xlink">
    <title>网格管理员</title>
    <g id="网格管理员" stroke="none" stroke-width="1" fill="none" fill-rule="evenodd">
        <g id="wanggeyuanguanli" transform="translate(1.000000, 1.000000)">
            <path d="M0,13.8050728 C0.078884702,12.8634777 0.19612489,12.1686228 0.351720563,11.7205082 C0.576832156,11.0721874 0.90413085,10.4638416 1.32455218,9.9124095 C1.73904431,9.36844182 2.23557825,8.89221386 2.79636922,8.50078309 C3.18245647,8.23122956 3.59291668,8.00587342 4.02243508,7.82729054 C3.61931121,7.48874279 3.27628014,7.08028785 3.01344344,6.62253268 C2.62672037,5.94899123 2.42229726,5.18077835 2.42229726,4.40092514 C2.42229726,3.21458965 2.88515526,2.10396521 3.72559036,1.27365427 C4.13054016,0.873579059 4.60161486,0.559534691 5.12572317,0.340259565 C5.66536822,0.114479549 6.23649434,0 6.8232061,0 C8.00954159,0 9.12016603,0.462858 9.95049327,1.30329309 C10.3505685,1.7082429 10.6645966,2.1793176 10.8838717,2.70344221 C11.1096517,3.24308726 11.2241475,3.81421338 11.2241475,4.40094144 C11.2241475,4.98641418 11.1103364,5.56057265 10.8858769,6.10747253 C10.6683951,6.63735209 10.3581331,7.11590986 9.96366608,7.52985891 C9.13818083,8.39611793 8.04817966,8.87319214 6.89445014,8.87319214 C6.79278473,8.87319214 6.68922818,8.86960548 6.58586727,8.86251368 C6.54663792,8.86957077 6.50686125,8.87314418 6.46700222,8.87319214 C3.74756678,8.87319214 1.53513782,11.4 1.53513782,13.8050728 C1.53513782,13.8050728 1.02342521,13.8050728 0,13.8050728 Z M6.89446644,1.53513782 C5.31423457,1.53513782 4.02861391,2.82072587 4.02861391,4.40092514 C4.02861391,5.98115701 5.31423457,7.26676137 6.89446644,7.26676137 C8.47466571,7.26676137 9.76025376,5.98115701 9.76025376,4.40092514 C9.76025376,2.82072587 8.47466571,1.53513782 6.89446644,1.53513782 Z" id="形状" fill="#4B4B4B" fill-rule="nonzero"></path>
            <path d="M9.7,8.7 L9.699,10 L10.3,10 L10.3,8.7 L11.7,8.7 L11.7,10 L13,10 L13,11.4 L11.7,11.4 L11.7,12 L13,12 L13,13.4 L11.7,13.4 L11.7,14.7 L10.3,14.7 L10.3,13.4 L9.7,13.4 L9.7,14.7 L8.3,14.7 L8.3,13.4 L7,13.4 L7,12 L8.3,12 L8.299,11.4 L7,11.4 L7,10 L8.299,10 L8.3,8.7 L9.7,8.7 Z M10.3,12 L10.3,11.4 L9.699,11.4 L9.7,12 L10.3,12 Z" id="形状结合" fill="#36A4FF"></path>
        </g>
    </g>
</svg>