<?xml version="1.0" encoding="utf-8"?>
<!-- Generator: Adobe Illustrator 25.0.1, SVG Export Plug-In . SVG Version: 6.00 Build 0)  -->
<svg version="1.1" id="图层_1" xmlns="http://www.w3.org/2000/svg" xmlns:xlink="http://www.w3.org/1999/xlink" x="0px" y="0px"
	 viewBox="0 0 16 16" style="enable-background:new 0 0 16 16;" xml:space="preserve">
<style type="text/css">
	.st0{opacity:1.000000e-02;}
	.st1{fill:#FFFFFF;}
	.st2{fill:#36A4FF;}
</style>
<g id="icon_x2F_一标N实_x5F_小区组管理">
	<g id="icon_x2F_导航_x2F_任务" class="st0">
		<rect id="矩形" class="st1" width="16" height="16"/>
	</g>
	<g id="chengshi" transform="translate(1.000000, 1.000000)">
		<path id="形状" class="st2" d="M10.1,8.4v0.5v0.5H7.7c-0.3,0-0.5-0.2-0.5-0.5c0-0.3,0.2-0.5,0.5-0.5H10.1z M10.1,10.5V11v0.5
			H7.7c-0.3,0-0.5-0.2-0.5-0.5s0.2-0.5,0.5-0.5H10.1z M6,5.1H4.7V3h0.5H6V5.1z M3.9,5.1H2.7V3h0.5h0.7V5.1z M6,8.1H4.7V6h0.5H6V8.1z
			 M3.9,8.1H2.7V6h0.5h0.7V8.1z M3.8,14h-1v-3.5h3.1V14h-1v-2.5H3.8V14z"/>
		<path id="形状_1_" class="st2" d="M2,13H0.7V1V0H8v1v12H6.6L6.6,1.4H2V13z M11.4,6.5h1.2V13h-1.2V6.5z M13.6,12.6V14H0v-1.4
			H13.6z M7.8,4.2L14,6.8v1.3L7.5,5.5C7.3,5.4,7.1,4.8,7.2,4.5C7.3,4.3,7.6,4.1,7.8,4.2z"/>
	</g>
</g>
</svg>
