<?xml version="1.0" encoding="UTF-8"?>
<svg width="16px" height="16px" viewBox="0 0 16 16" version="1.1" xmlns="http://www.w3.org/2000/svg" xmlns:xlink="http://www.w3.org/1999/xlink">
    <title>icon/9+x_特需人群</title>
    <g id="icon/9+x_特需人群" stroke="none" stroke-width="1" fill="none" fill-rule="evenodd">
        <g id="shiyourenkou" fill-rule="nonzero">
            <rect id="矩形" fill="#FFFFFF" opacity="0.01" x="0" y="0" width="16" height="16"></rect>
            <path d="M7.88360596,0.850891113 C9.14916099,0.838547354 10.3677286,1.30892556 11.2698716,2.1580205 C12.1720147,3.00711544 12.6834154,4.16497947 12.6911102,5.37650635 C12.6922647,6.47012705 12.320298,7.66644547 11.5855728,8.48101421 L11.3952443,8.67970715 L11.2005788,8.8581805 C9.95381832,9.65491141 8.88653538,10.0532766 7.99872996,10.0532761 C6.67786461,10.0496121 5.41033333,10.5514388 4.47770459,11.4477425 C3.58163737,12.2986428 3.06074374,13.4457999 3.02226492,14.6533407 C3.01986416,14.7245757 3.02727635,14.8368506 3.04450149,14.9901654 L1.376106,15 L1.00019114,14.9901654 L1.00019114,14.6317046 L1.00019114,14.6317046 C1.04383615,12.9192195 1.77623794,11.2888178 3.04450149,10.0803359 C3.53384498,9.61107435 4.08682222,9.21850406 4.69144482,8.90822395 L4.79432445,8.8581805 L4.6218429,8.69905112 C3.5077796,7.61309916 2.99757667,5.91111696 3.33282155,4.42512441 L3.40514465,4.14741199 L3.48602516,3.90089544 C4.1073376,2.17959437 5.74170996,0.989637676 7.6241883,0.861718025 L7.88360596,0.850891113 Z M7.97046042,2.4963543 L7.73110461,2.51043084 C6.6228482,2.61393574 5.65386925,3.32415214 5.22814353,4.36587748 C4.77200882,5.48201178 5.02787326,6.762477 5.87800836,7.61805794 C6.43889574,8.18262541 7.2029005,8.4989791 8,8.4963705 C8.79855468,8.49710608 9.5629656,8.18111498 10.1251563,7.61769424 C10.6935333,7.04830869 11.0049484,6.29748608 11.0049484,5.49538178 C11.0049484,4.6832076 10.6857268,3.92276878 10.1048124,3.3543253 C9.59743178,2.86029072 8.93464357,2.56210627 8.23386425,2.50687925 L7.97046042,2.4963543 Z" id="形状结合" fill="#4B4B4B"></path>
        </g>
        <path d="M7.95197654,1.85065416 C8.92210692,1.85065416 9.93246622,2.22460076 10.663333,2.92259135 C11.2830805,3.51446116 11.6910014,4.34606103 11.6910014,5.37650635 C11.6910014,6.44772645 11.3097315,7.32413914 10.6828887,7.93999687 C9.99589788,8.61494862 9.03160065,8.97387695 8.01162761,8.97387695 C6.97520786,8.97387695 5.97093701,8.6047889 5.2521546,7.9122872 C4.61242922,7.295952 4.21295166,6.42238805 4.21295166,5.35065416 C4.21295166,4.3172762 4.61477433,3.4923413 5.2296375,2.90849034 C5.96210141,2.21297012 6.97800392,1.85065416 7.95197654,1.85065416 Z" id="椭圆形" stroke="#4B4B4B" stroke-width="2"></path>
        <g id="aixin_shixin" transform="translate(9.000000, 11.000000)" fill="#36A4FF" fill-rule="nonzero">
            <path d="M0,1.48079613 C0,0.878160846 0.359146372,0.335636253 0.908233757,0.10887408 C1.45732114,-0.117888094 2.08678206,0.0163559257 2.5,0.448346856 C2.91321417,0.0163559257 3.54267508,-0.117888094 4.09176247,0.10887408 C4.64084986,0.335636253 5,0.878160846 5,1.48079613 C5.0011271,1.94983964 4.78252445,2.39139464 4.41132955,2.66984144 L2.76349785,4.05056439 C2.57423995,4.2091961 2.29976934,4.20481725 2.1154985,4.04022634 L0.510500091,2.6066268 C0.186240619,2.32560624 -0.000385523726,1.91403005 0,1.48079613 Z" id="路径"></path>
        </g>
    </g>
</svg>