<?xml version="1.0" encoding="UTF-8"?>
<svg width="16px" height="16px" viewBox="0 0 16 16" version="1.1" xmlns="http://www.w3.org/2000/svg" xmlns:xlink="http://www.w3.org/1999/xlink">
    <title>icon/一标N实_小区总览hover</title>
    <g id="icon/一标N实_小区总览hover" stroke="none" stroke-width="1" fill="none" fill-rule="evenodd">
        <g id="xiaoqu" transform="translate(1.000000, 1.000000)" fill="#36A4FF" fill-rule="nonzero">
            <path d="M5.30548096,1.3371582 L5.30548096,12.6382446 L8.71508789,12.6382446 L8.71508789,1.3371582 L5.30548096,1.3371582 Z M4,0 L10,0 L10,14 L4,14 L4,0 Z" id="形状"></path>
            <path d="M2.24597168,5.27288818 L2.24597168,12.6382446 L4,12.6382446 L4,5.27288818 L2.24597168,5.27288818 Z M1,4 L5,4 L5,14 L1,14 L1,4 Z M10,8 L10,13 L11.6587524,13 L11.6587524,8 L10,8 Z M9,6.61590576 L13,6.61590576 L13,14 L9,14 L9,6.61590576 Z" id="形状"></path>
            <polygon id="路径" points="-1.46493928e-13 12.6382446 14 12.6382446 14 14 0 14"></polygon>
            <path d="M6.00000001,3.10195312 L6.00000001,2.10195312 L8.00000001,2.10195312 L8.00000001,3.10195312 L6.00000001,3.10195312 Z M6.00000001,6.10195312 L6.00000001,5.10195312 L8.00000001,5.10195312 L8.00000001,6.10195312 L6.00000001,6.10195312 Z M6.00000001,9.10195313 L6.00000001,8.10195313 L8.00000001,8.10195313 L8.00000001,9.10195313 L6.00000001,9.10195313 Z M2.24597168,9.10195313 L2.24597168,8.10195313 L4,8.10195313 L4,9.10195313 L2.24597168,9.10195313 Z M6.00000001,12.1019531 L6.00000001,11.1019531 L8.00000001,11.1019531 L8.00000001,12.1019531 L6.00000001,12.1019531 Z M2.24597168,12.1019531 L2.24597168,11.1019531 L4,11.1019531 L4,12.1019531 L2.24597168,12.1019531 Z M10,12.1019531 L10,11.1019531 L11.6587524,11.1019531 L11.6587524,12.1019531 L10,12.1019531 Z" id="形状"></path>
        </g>
    </g>
</svg>