<?xml version="1.0" encoding="UTF-8"?>
<svg width="16px" height="16px" viewBox="0 0 16 16" version="1.1" xmlns="http://www.w3.org/2000/svg" xmlns:xlink="http://www.w3.org/1999/xlink">
    <title>日常治理</title>
    <g id="日常治理" stroke="none" stroke-width="1" fill="none" fill-rule="evenodd">
        <g>
            <rect id="矩形" fill="#FFFFFF" fill-rule="nonzero" opacity="0.01" x="0" y="0" width="16" height="16"></rect>
            <path d="M8.00174046,0.970590257 L8.02936467,0.954054683 C9.85473423,-0.142927694 12.258412,0.0955467361 13.8323432,1.66947797 C15.3810555,3.21819033 15.6367639,5.57027237 14.5994683,7.38427396 L14.5407377,7.3232233 C16.3957281,9.17821369 16.3957281,12.1857473 14.5407377,14.0407377 C12.7442405,15.837235 9.86673991,15.8938837 8.00206842,14.2106838 C6.13725802,15.8970951 3.25612148,15.8419936 1.45797452,14.0438466 C-0.345488357,12.2403838 -0.395584548,9.3475185 1.30768595,7.48353327 L1.40143109,7.38498573 C0.361589838,5.57046721 0.61656916,3.21616895 2.16636906,1.66636906 C3.74962818,0.0831099268 6.17249791,-0.148816339 8.00174046,0.970590257 Z M3.22702923,2.72702923 C2.27076235,3.6832961 2.03498357,5.0872169 2.51969289,6.26423238 L3.18203067,5.60227607 L4.24269084,6.66293624 L2.51863469,8.38699239 C1.24943074,9.65619634 1.24943074,11.7139825 2.51863469,12.9831865 C3.72909055,14.1936423 5.65681543,14.2496711 6.93367226,13.1512729 L5.80204182,12.0195562 L6.86270199,10.9588961 L8.88388348,12.9800776 C10.1530874,14.2492815 12.2108736,14.2492815 13.4800776,12.9800776 C14.7055158,11.7546393 14.7477723,9.79406604 13.606847,8.51792879 L13.4800776,8.38388348 L12.8357317,7.74012627 L12.5896775,7.55996795 L12.6969296,7.41352134 L12.771683,7.32633222 C14.040887,6.05712827 14.040887,3.99934209 12.771683,2.73013814 C11.7870526,1.74550768 10.3278189,1.5247396 9.13036288,2.06783389 L8.14796486,3.05177078 L7.8232233,2.72702923 C6.55401936,1.45782528 4.49623318,1.45782528 3.22702923,2.72702923 Z" id="形状结合" fill="#4B4B4B" fill-rule="nonzero"></path>
            <path d="M8,6 C9.1045695,6 10,6.8954305 10,8 C10,9.1045695 9.1045695,10 8,10 C6.8954305,10 6,9.1045695 6,8 C6,6.8954305 6.8954305,6 8,6 Z M8,7.4 C7.66862915,7.4 7.4,7.66862915 7.4,8 C7.4,8.33137085 7.66862915,8.6 8,8.6 C8.33137085,8.6 8.6,8.33137085 8.6,8 C8.6,7.66862915 8.33137085,7.4 8,7.4 Z" id="椭圆形" fill="#36A4FF" fill-rule="nonzero"></path>
            <circle id="椭圆形备份" fill="#36A4FF" cx="4.25" cy="6.25" r="1.25"></circle>
            <circle id="椭圆形备份-2" fill="#36A4FF" cx="6.25" cy="11.25" r="1.25"></circle>
        </g>
    </g>
</svg>