<?xml version="1.0" encoding="UTF-8"?>
<svg width="16px" height="16px" viewBox="0 0 16 16" version="1.1" xmlns="http://www.w3.org/2000/svg" xmlns:xlink="http://www.w3.org/1999/xlink">
    <title>协同中心_值班hover</title>
    <g id="协同中心_值班hover" stroke="none" stroke-width="1" fill="none" fill-rule="evenodd">
        <g id="icon/solution" fill="#FFFFFF" fill-rule="nonzero" opacity="0.01">
            <rect id="矩形" x="0" y="0" width="16" height="16"></rect>
        </g>
        <path d="M15,1 L15,15 L1,15 L1,12 L2.5,12 L2.5,13.5 L13.5,13.5 L13.5,2.5 L2.5,2.5 L2.5,4 L1,4 L1,1 L15,1 Z M3,10.5 L3,11.5 L1,11.5 L1,10.5 L3,10.5 Z M2.5,6 L2.5,10 L1,10 L1,6 L2.5,6 Z M3,4.5 L3,5.5 L1,5.5 L1,4.5 L3,4.5 Z" id="形状结合" fill="#36A4FF" fill-rule="nonzero" transform="translate(8.000000, 8.000000) rotate(90.000000) translate(-8.000000, -8.000000) "></path>
        <path d="M11.6,5 L11.6,6.6 L10,6.6 L10,5 L11.6,5 Z M8.6,5 L8.6,6.6 L7,6.6 L7,5 L8.6,5 Z M5.6,5 L5.6,6.6 L4,6.6 L4,5 L5.6,5 Z" id="形状结合" fill="#36A4FF"></path>
        <path d="M11.6,9 L11.6,10.6 L10,10.6 L10,9 L11.6,9 Z M8.6,9 L8.6,10.6 L7,10.6 L7,9 L8.6,9 Z M5.6,9 L5.6,10.6 L4,10.6 L4,9 L5.6,9 Z" id="形状结合备份" fill="#36A4FF"></path>
    </g>
</svg>