<?xml version="1.0" encoding="UTF-8"?>
<svg width="16px" height="16px" viewBox="0 0 16 16" version="1.1" xmlns="http://www.w3.org/2000/svg" xmlns:xlink="http://www.w3.org/1999/xlink">
    <title>门户中心-系统配置</title>
    <g id="门户中心-系统配置" stroke="none" stroke-width="1" fill="none" fill-rule="evenodd">
        <path d="M16,7.83678012 C15.949494,7.34728614 15.5105841,6.9598783 15.0072235,6.9598783 C14.5038433,6.9598783 14.0649529,7.34728614 14.0144469,7.83678012 L14.0164195,7.83678012 C14.010326,10.1207794 12.685374,12.1957433 10.6159763,13.1623489 L10.6198629,13.1722704 C10.3078429,13.3471274 10.1151937,13.6775451 10.1165729,14.035286 C10.1160335,14.2929915 10.2179634,14.5403263 10.3999295,14.7228197 C10.581876,14.9053131 10.8288983,15.0079852 11.0865452,15.0082195 C11.210447,15.0082195 11.3362432,14.998298 11.4442666,14.9577135 L11.4442666,14.9597057 C14.2157092,13.6700649 15.9907621,10.8935248 15.9980079,7.83678012 L16,7.83678012 Z" id="Fill-1" fill="#4B4B4B"></path>
        <path d="M0.246098086,4.91085097 C0.246019977,5.56399137 0.594444854,6.16752419 1.16006889,6.49413346 C1.72569293,6.82072319 2.42260128,6.82072319 2.98822532,6.49413346 C3.55384936,6.16752419 3.90227423,5.56399137 3.90219612,4.91085097 C3.90227423,4.2577301 3.55384936,3.65417775 2.98822532,3.32758802 C2.42260128,3.00097876 1.72569293,3.00097876 1.16006889,3.32758802 C0.594444854,3.65417775 0.246019977,4.2577301 0.246098086,4.91085097 Z" id="Fill-3" fill="#00A2FF"></path>
        <path d="M12.1606469,4.91184703 C12.1606469,5.56528039 12.509228,6.1691257 13.075145,6.49587167 C13.6410816,6.82255906 14.3383024,6.82255906 14.9041608,6.49587167 C15.4700778,6.1691257 15.818737,5.56528039 15.818737,4.91184703 C15.818737,4.25841367 15.4700778,3.65456836 14.9041608,3.32788098 C14.3383024,3.001135 13.6410816,3.001135 13.075145,3.32788098 C12.509228,3.65456836 12.1606469,4.25841367 12.1606469,4.91184703 Z" id="Fill-4" fill="#00A2FF"></path>
        <path d="M7.97447045,12.3429841 C6.96452657,12.3429841 6.14592341,13.1615872 6.14592341,14.171453 C6.14592341,15.1813968 6.96452657,16 7.97447045,16 C8.98013714,16 9.79852546,15.1816312 9.79852546,14.1710038 C9.79852546,13.1603763 8.98013714,12.3429841 7.97447045,12.3429841 Z" id="路径" fill="#00A2FF"></path>
        <path d="M5.34876479,12.9929214 L5.3566942,12.9889372 C3.47062971,11.9604589 2.29672693,9.98406561 2.29612148,7.83578407 L2.30496882,7.83578407 C2.22676853,7.37697256 1.84523938,7.02130186 1.36377245,7.02130186 C0.882207866,7.02130186 0.393729469,7.37794909 0.314454998,7.83678012 C0.314454998,10.7101331 1.88293333,13.3496468 4.40649425,14.7298312 L4.41838835,14.735788 C4.54525875,14.7981881 4.68396466,14.8071139 4.83356862,14.8071139 C5.09180145,14.8073479 5.33952685,14.7049688 5.52217648,14.5224754 C5.70488471,14.339982 5.80749818,14.0923543 5.80749818,13.8341019 C5.80749818,13.484388 5.6242431,13.1653371 5.34876479,12.9929214 Z" id="路径" fill="#4B4B4B"></path>
        <path d="M3.95965497,3.39494886 C4.16777243,3.39494886 4.35895691,3.35428627 4.51748632,3.24335279 L4.52938042,3.23145869 C4.89344926,2.94322695 5.29062237,2.69940765 5.71244303,2.50515688 C7.52358835,1.67092929 9.7331372,1.83938022 11.3887999,2.94406676 L11.5265097,3.03920003 L11.541392,3.0461529 C11.7195301,3.19521 11.9462601,3.27348842 12.1784197,3.26608634 C12.7164276,3.26608634 13.1514313,2.83016464 13.1514313,2.29215678 C13.1514313,1.92756062 12.9621608,1.58372542 12.6659216,1.41625102 L12.6698863,1.42121178 L12.4915138,1.29740767 C10.2562628,-0.189823607 7.31158431,-0.413741276 4.88208248,0.70485101 C4.31714201,0.965447038 3.78493473,1.2920563 3.29682742,1.67786263 L3.29682742,1.67290188 C3.09763541,1.85127432 2.98670193,2.13263131 2.98670193,2.42094118 C2.98670193,2.95894903 3.42164711,3.39494886 3.95965497,3.39494886 Z" id="路径" fill="#4B4B4B"></path>
    </g>
</svg>