<?xml version="1.0" encoding="UTF-8"?>
<svg width="16px" height="16px" viewBox="0 0 16 16" version="1.1" xmlns="http://www.w3.org/2000/svg" xmlns:xlink="http://www.w3.org/1999/xlink">
    <title>icon/调度处置_工作台_hover</title>
    <g id="icon/调度处置_工作台_hover" stroke="none" stroke-width="1" fill="none" fill-rule="evenodd">
        <g id="gongzuotai" transform="translate(1.000000, 2.000000)" fill="#36A4FF" fill-rule="nonzero">
            <path d="M14,10.15625 L14,0 L0,0 L0,10.15625 L6.4,10.15625 L6.4,11.78125 L3.8,11.78125 L3.8,13 L10.2,13 L10.2,11.78125 L7.6,11.78125 L7.6,10.15625 L14,10.15625 Z M1.2,8.9375 L1.2,1.21875 L12.8,1.21875 L12.8,8.9375 L1.2,8.9375 Z" id="形状"></path>
            <path d="M3,3 L4.23076923,3 L4.23076923,7 L3,7 L3,3 Z M5.25641026,4.81818182 L6.48717949,4.81818182 L6.48717949,7 L5.25641026,7 L5.25641026,4.81818182 Z M7.51282051,3 L8.74358974,3 L8.74358974,7 L7.51282051,7 L7.51282051,3 Z M9.76923077,4.81818182 L11,4.81818182 L11,7 L9.76923077,7 L9.76923077,4.81818182 Z" id="形状"></path>
        </g>
    </g>
</svg>