<?xml version="1.0" encoding="UTF-8"?>
<svg width="16px" height="16px" viewBox="0 0 16 16" version="1.1" xmlns="http://www.w3.org/2000/svg" xmlns:xlink="http://www.w3.org/1999/xlink">
    <title>icon/日常治理_访谈任务管理</title>
    <g id="icon/日常治理_访谈任务管理" stroke="none" stroke-width="1" fill="none" fill-rule="evenodd">
        <g id="fangtanjilu" transform="translate(1.000000, 2.104000)" fill="#000000" fill-rule="nonzero">
            <path d="M12.6451613,0 C12.6451613,0.0693333333 12.6451613,0.208 12.6451613,0.416 L12.6451613,3.432 L11.6415771,3.432 L11.6415771,1.04 L1.10394265,1.04 L1.10394265,11.648 L11.6415771,11.648 L11.6415771,9.6372402 L11.6415771,9.256 L12.7455197,9.256 L12.7455197,12.376 C12.7455197,12.4611329 12.7455197,12.6344662 12.7455197,12.896 C12.5295566,12.896 12.3622925,12.896 12.2437276,12.896 L0.501792115,12.896 C0.39697946,12.896 0.229715422,12.896 0,12.896 C0,12.6487175 0,12.4753841 0,12.376 L0,0 C0.238169075,0 0.405433113,0 0.501792115,0 L12.1433692,0 L12.6451613,0 Z M3.11111111,3.48876466 L3.11111111,9.36 L2.00716846,9.36 L2.00716846,3.48876466 L3.11111111,3.48876466 Z M5.11827957,4.39161382 L5.11827957,8.29414635 L4.01433692,8.29414635 L4.01433692,4.39161382 L5.11827957,4.39161382 Z" id="形状"></path>
        </g>
        <polygon id="路径" fill="#36A4FF" points="14.8494624 7.408 10.3414507 11.9020207 9.75655608 11.9020207 7.14977504 9 8 8.29396816 9.93189964 10.528 14.8494624 5.59276466"></polygon>
    </g>
</svg>