<?xml version="1.0" encoding="UTF-8"?>
<svg width="16px" height="16px" viewBox="0 0 16 16" version="1.1" xmlns="http://www.w3.org/2000/svg" xmlns:xlink="http://www.w3.org/1999/xlink">
    <title>移动管理后台h</title>
    <g id="移动管理后台h" stroke="none" stroke-width="1" fill="none" fill-rule="evenodd">
        <g id="yidongguanli" transform="translate(2.000000, 0.000000)">
            <path d="M5.57144452,12.8928838 C5.57144452,13.2873252 5.89117621,13.6071685 6.28572923,13.6071685 C6.68019297,13.6071685 7.00001395,13.2873252 7.00001395,12.8928838 C7.00001395,12.4983308 6.68019297,12.1785991 6.28572923,12.1785991 C5.89117621,12.1785991 5.57144452,12.4983308 5.57144452,12.8928838 Z" id="Fill-2" fill="#00A2FF"></path>
            <path d="M10.7026068,0.7 C10.8783993,0.7 11.0405702,0.757797084 11.1569478,0.860310494 C11.2391047,0.932679895 11.3,1.02971336 11.3,1.14283323 L11.3,1.14283323 L11.3,14.8571668 C11.3,14.9702866 11.2391047,15.0673201 11.1569478,15.1396895 C11.0405702,15.2422029 10.8783993,15.3 10.7026068,15.3 L10.7026068,15.3 L1.29726648,15.3 C1.12152805,15.3 0.959399068,15.2421998 0.843047791,15.1396996 C0.760895175,15.0673268 0.7,14.9702897 0.7,14.8571668 L0.7,14.8571668 L0.7,1.14283323 C0.7,1.02971028 0.760895175,0.932673151 0.843047791,0.860300403 L0.843047791,0.860300403 Z" id="路径" stroke="#00A2FF" stroke-width="1.4"></path>
        </g>
    </g>
</svg>