<?xml version="1.0" encoding="UTF-8"?>
<svg width="16px" height="16px" viewBox="0 0 16 16" version="1.1" xmlns="http://www.w3.org/2000/svg" xmlns:xlink="http://www.w3.org/1999/xlink">
    <title>icon/一标N实_实有车辆hover</title>
    <g id="icon/一标N实_实有车辆hover" stroke="none" stroke-width="1" fill="none" fill-rule="evenodd">
        <g id="icon/导航/任务" fill="#FFFFFF" fill-rule="nonzero" opacity="0.01">
            <rect id="矩形" x="0" y="0" width="16" height="16"></rect>
        </g>
        <g id="cheliang" transform="translate(0.967090, 1.000000)" fill="#36A4FF" fill-rule="nonzero">
            <path d="M12.6213379,4.73937705 L13.7197754,4.12807617 L13.7197754,3.11259766 L12.3838893,3.9143031 L12.1362793,1.11517776 L12.0329102,0 L1.9730957,0 L1.85311847,1.11517776 L1.6386934,3.89185258 L0.246289062,3.23994141 L0.0744000143,4.12807617 L1.2127279,4.73861571 L0.365673828,4.73937705 L0,11.6134116 L1.0128863,11.6134116 L1.34010089,11.6134116 L1.34010089,12.7555016 C1.34010089,13.4416941 1.84544212,14 2.46653762,14 L3.18886804,14 C3.80996356,14 4.31530479,13.4416941 4.31530479,12.7555016 L4.31530479,11.6134116 L9.71764663,11.6134116 L9.71764663,12.7555016 C9.71764663,13.4416941 10.2229879,14 10.8440834,14 L11.5668465,14 C12.187942,14 12.6932832,13.4416941 12.6932832,12.7555016 L12.6932832,11.6134116 L13.0427096,11.6134116 L14.0201213,11.6134116 L13.5674805,4.73861571 L12.6213379,4.73937705 Z M10.701001,1.38195801 L11.0508545,4.42285156 L3.02564697,4.42285156 L3.24647217,1.38195801 L10.701001,1.38195801 Z M3.44045692,12.7554839 C3.44045692,12.9088663 3.32768344,13.0334595 3.18885203,13.0334595 L2.46652159,13.0334595 C2.32769017,13.0334595 2.2149167,12.9088663 2.2149167,12.7554839 L2.2149167,11.6133939 L3.44045692,11.6133939 L3.44045692,12.7554839 Z M11.8184514,12.7554839 C11.8184514,12.9088663 11.7056779,13.0334595 11.5668465,13.0334595 L10.8440834,13.0334595 C10.7052519,13.0334595 10.5924785,12.9088663 10.5924785,12.7554839 L10.5924785,11.6133939 L11.8184354,11.6133939 L11.8184354,12.7554839 L11.8184514,12.7554839 Z M1.30683594,10.5213013 L1.65125732,5.80706787 L12.3097656,5.80706787 L12.6925171,10.5213013 L1.30683594,10.5213013 Z" id="形状"></path>
            <path d="M3.560524,7 C2.71839789,7 2.03291016,7.6730806 2.03291016,8.5 C2.03291016,9.32690346 2.71838165,10 3.560524,10 C4.40265012,10 5.08813785,9.3269194 5.08813785,8.5 C5.08813785,7.6730806 4.40266636,7 3.560524,7 L3.560524,7 Z M3.560524,9.12973473 C3.20696741,9.12973473 2.91919634,8.84716554 2.91919634,8.5 C2.91919634,8.15283446 3.20696741,7.87024933 3.560524,7.87024933 C3.9140806,7.87024933 4.2018679,8.15281851 4.2018679,8.5 C4.2018679,8.84716554 3.9140806,9.12973473 3.560524,9.12973473 Z M10.5052963,7 C9.66273184,7 8.97726035,7.6730806 8.97726035,8.5 C8.97726035,9.32690346 9.66273184,10 10.5052963,10 C11.3474224,10 12.0329102,9.3269194 12.0329102,8.5 C12.0329102,7.6730806 11.3474224,7 10.5052963,7 Z M10.5052963,9.12973473 C10.1513014,9.12973473 9.8635303,8.84716554 9.8635303,8.5 C9.8635303,8.15283446 10.1513014,7.87024933 10.5052963,7.87024933 C10.8588529,7.87024933 11.1466402,8.15281851 11.1466402,8.5 C11.1466402,8.84716554 10.8588529,9.12973473 10.5052963,9.12973473 Z" id="形状"></path>
        </g>
    </g>
</svg>