<?xml version="1.0" encoding="UTF-8"?>
<svg width="16px" height="16px" viewBox="0 0 16 16" version="1.1" xmlns="http://www.w3.org/2000/svg" xmlns:xlink="http://www.w3.org/1999/xlink">
    <title>协同中心_事件分析hover</title>
    <g id="协同中心_事件分析hover" stroke="none" stroke-width="1" fill="none" fill-rule="evenodd">
        <rect id="矩形" fill="#D8D8D8" opacity="0" x="0" y="0" width="16" height="16"></rect>
        <path d="M8,1 L8,8 L15,8 C15,11.8659932 11.8659932,15 8,15 C4.13400675,15 1,11.8659932 1,8 C1,4.21454828 4.00478338,1.13090132 7.75935025,1.00405902 L8,1 Z M6.6,2.577 L6.4995644,2.60299731 C4.13160847,3.25948619 2.4,5.43220741 2.4,8 C2.4,11.0927946 4.9072054,13.6 8,13.6 C10.5773288,13.6 12.7479985,11.8588851 13.3999626,9.48870183 L13.422,9.4 L6.6,9.4 L6.6,2.577 Z" id="形状结合" fill="#36A4FF" fill-rule="nonzero"></path>
        <path d="M9.00022508,1.07092106 C12.0658071,1.50951992 14.4906048,3.93437953 14.92911,7 L9,7 L9.00022508,1.07092106 Z M10.4,2.939 L10.399,5.6 L13.06,5.599 L12.9727242,5.42181303 C12.4407902,4.3983245 11.6018122,3.55932088 10.5783408,3.0273555 L10.4,2.939 Z" id="形状结合" fill="#36A4FF" fill-rule="nonzero"></path>
    </g>
</svg>