<?xml version="1.0" encoding="UTF-8"?>
<svg width="16px" height="16px" viewBox="0 0 16 16" version="1.1" xmlns="http://www.w3.org/2000/svg" xmlns:xlink="http://www.w3.org/1999/xlink">
    <title>全景要素-全景概述</title>
    <g id="全景要素-全景概述" stroke="none" stroke-width="1" fill="none" fill-rule="evenodd">
        <g id="编组" stroke="#4B4B4B" stroke-width="1.4">
            <circle id="椭圆形" cx="8" cy="8" r="7.3"></circle>
            <ellipse id="椭圆形" cx="8" cy="8" rx="3.3" ry="7.3"></ellipse>
            <ellipse id="椭圆形" transform="translate(8.000000, 8.000000) rotate(-270.000000) translate(-8.000000, -8.000000) " cx="8" cy="8" rx="3.3" ry="7.3"></ellipse>
        </g>
        <circle id="椭圆形" fill="#FFFFFF" cx="12" cy="12" r="4.5"></circle>
        <path d="M12.5007312,11.921937 C12.476574,11.9187364 12.4357339,11.910532 12.4202812,11.9011097 L9.67467759,10.9127536 C9.58325087,10.878484 9.52472854,10.7980088 9.52571537,10.7077835 C9.52795747,10.6186511 9.58725714,10.5376295 9.67641165,10.5014317 L12.4120722,9.51729096 C12.4404663,9.50579228 12.4696036,9.5 12.499262,9.5 C12.5286299,9.5 12.557528,9.5056986 12.5846836,9.51683039 L15.3240855,10.5018922 C15.4155122,10.5359199 15.4740346,10.6163951 15.4727904,10.7068624 C15.4707971,10.7957527 15.4117708,10.8767744 15.3223515,10.9132142 L12.5864176,11.8974486 C12.5642678,11.9133969 12.5231544,11.9215701 12.5007312,11.921937 Z M10.4946309,10.6919523 L12.4995011,11.4337932 L14.5332354,10.7227794 L12.5141766,9.97572396 L10.4946309,10.6919523 Z" id="Fill-1" stroke="#00A2FF" stroke-width="0.4" fill="#00A2FF"></path>
        <path d="M9.67467759,14.4676163 C9.58575372,14.4398337 9.52048308,14.3710992 9.50403943,14.288126 C9.4876214,14.2050357 9.5219865,14.1201421 9.59373209,14.0666533 C9.63931305,14.0327193 9.69633196,14.0139296 9.75486283,14.0139296 C9.78675926,14.0139296 9.81839087,14.0195111 9.84902305,14.0304633 L12.4698684,14.9890774 L15.1208419,14.0304633 C15.1514741,14.0195111 15.1831057,14.0139296 15.2147373,14.0139296 C15.273328,14.0140232 15.3300907,14.0325944 15.3753983,14.0665362 C15.4473745,14.1199001 15.4817481,14.2049108 15.4655608,14.2882197 C15.4488779,14.3713178 15.3841113,14.4397088 15.2969215,14.4668201 L12.5139459,15.5 L9.67467759,14.4676163 Z" id="Fill-4" stroke="#00A2FF" stroke-width="0.4" fill="#00A2FF"></path>
        <path d="M9.67467759,12.4676163 C9.58575372,12.4398337 9.52048308,12.3710992 9.50403943,12.288126 C9.4876214,12.2050357 9.5219865,12.1201421 9.59373209,12.0666533 C9.63931305,12.0327193 9.69633196,12.0139296 9.75486283,12.0139296 C9.78675926,12.0139296 9.81839087,12.0195111 9.84902305,12.0304633 L12.4698684,12.9890774 L15.1208419,12.0304633 C15.1514741,12.0195111 15.1831057,12.0139296 15.2147373,12.0139296 C15.273328,12.0140232 15.3300907,12.0325944 15.3753983,12.0665362 C15.4473745,12.1199001 15.4817481,12.2049108 15.4655608,12.2882197 C15.4488779,12.3713178 15.3841113,12.4397088 15.2969215,12.4668201 L12.5139459,13.5 L9.67467759,12.4676163 Z" id="Fill-4备份" stroke="#00A2FF" stroke-width="0.4" fill="#00A2FF"></path>
    </g>
</svg>