<?xml version="1.0" encoding="UTF-8"?>
<svg width="16px" height="16px" viewBox="0 0 16 16" version="1.1" xmlns="http://www.w3.org/2000/svg" xmlns:xlink="http://www.w3.org/1999/xlink">
    <title>协同中心_策略配置</title>
    <g id="协同中心_策略配置" stroke="none" stroke-width="1" fill="none" fill-rule="evenodd">
        <rect id="矩形" fill="#D8D8D8" opacity="0" x="0" y="0" width="16" height="16"></rect>
        <path d="M15,1 L15,15 L1,15 L1,1 L15,1 Z M13.6,2.4 L2.4,2.4 L2.4,13.6 L13.6,13.6 L13.6,2.4 Z" id="矩形" fill="#4B4B4B" fill-rule="nonzero"></path>
        <rect id="矩形" fill="#4B4B4B" x="5" y="4" width="1.4" height="8"></rect>
        <path d="M10.4,9 L10.4,12 L9,12 L9,9 L10.4,9 Z M9,4 L10.4,4 L10.4,7 L9,7 L9,4 Z" id="形状结合" fill="#4B4B4B"></path>
        <path d="M9.8875,5.69923734 C8.61724508,5.69923734 7.5875,6.72898241 7.5875,7.99923734 C7.5875,9.26949226 8.61724508,10.2992373 9.8875,10.2992373 C11.1577549,10.2992373 12.1875,9.26949226 12.1875,7.99923734 C12.1875,6.72898241 11.1577549,5.69923734 9.8875,5.69923734 Z M9.8875,7.19923734 C10.3293278,7.19923734 10.6875,7.55740954 10.6875,7.99923734 C10.6875,8.44106514 10.3293278,8.79923734 9.8875,8.79923734 C9.4456722,8.79923734 9.0875,8.44106514 9.0875,7.99923734 C9.0875,7.55740954 9.4456722,7.19923734 9.8875,7.19923734 Z" id="椭圆形" fill="#36A4FF" fill-rule="nonzero"></path>
    </g>
</svg>