<?xml version="1.0" encoding="UTF-8"?>
<svg width="16px" height="16px" viewBox="0 0 16 16" version="1.1" xmlns="http://www.w3.org/2000/svg" xmlns:xlink="http://www.w3.org/1999/xlink">
    <title>全景要素-场景接入管理</title>
    <g id="全景要素-场景接入管理" stroke="none" stroke-width="1" fill="none" fill-rule="evenodd">
        <g id="编组" stroke="#4B4B4B" stroke-width="1.4">
            <circle id="椭圆形" cx="8" cy="8" r="7.3"></circle>
            <ellipse id="椭圆形" cx="8" cy="8" rx="3.3" ry="7.3"></ellipse>
            <ellipse id="椭圆形" transform="translate(8.000000, 8.000000) rotate(-270.000000) translate(-8.000000, -8.000000) " cx="8" cy="8" rx="3.3" ry="7.3"></ellipse>
        </g>
        <circle id="椭圆形" fill="#FFFFFF" cx="12" cy="12" r="4.5"></circle>
        <g id="shezhi" transform="translate(8.500000, 9.000000)" fill="#00A2FF" stroke="#00A2FF" stroke-width="0.4">
            <path d="M4.82886054,6 L2.17166766,6 C1.87120673,5.99990456 1.59346704,5.84704926 1.44246667,5.59869363 L0.112021557,3.4013387 C-0.0373405191,3.15284611 -0.0373405191,2.8471783 0.112021557,2.59869427 L1.44246667,0.401305098 C1.59346704,0.152949469 1.87120673,0.000102725339 2.17166766,0 L4.82886054,0 C5.12928565,0.000102725339 5.40702534,0.152949469 5.55806152,0.401305098 L6.88847083,2.6020414 C7.03790452,2.85055968 7.03790452,3.15629597 6.88847083,3.40481424 L5.55806152,5.60555055 C5.40460819,5.85066177 5.12761155,6.00050379 4.82886054,6 Z M2.17166766,0.676733306 C2.12505244,0.676377874 2.08172275,0.699645164 2.05783771,0.737936034 L0.727392597,2.93529096 C0.706094804,2.97354759 0.706094804,3.01943157 0.727392597,3.05771388 L2.05783771,5.25507737 C2.08175856,5.29332544 2.12505244,5.31660129 2.17166766,5.31627097 L4.82886054,5.31627097 C4.87543995,5.31660129 4.91876963,5.29332544 4.94268153,5.25507737 L6.27309979,3.05771388 C6.29443339,3.01945725 6.29443339,2.97354759 6.27309979,2.93529096 L4.94201905,0.738098682 C4.9180982,0.699816373 4.87477747,0.676506281 4.8281533,0.67687438 L2.17166766,0.676733306 Z" id="Fill-1"></path>
            <path d="M3.50190686,4.09877527 C2.86764623,4.0981418 2.35365233,3.60665241 2.35302566,3.00017057 C2.35365233,2.39368017 2.86764623,1.90219079 3.50190686,1.90155731 C4.1361675,1.90219079 4.65019721,2.39368017 4.65082388,3.00017057 C4.65019721,3.60665241 4.1361675,4.0981418 3.50190686,4.09877527 Z M3.50190686,2.47961848 C3.20189356,2.48085118 2.95898771,2.71312173 2.95773437,2.99999936 C2.95898771,3.28691124 3.20189356,3.51914755 3.50190686,3.52038025 C3.80195597,3.51914755 4.04485287,3.28691124 4.04611516,2.99999936 C4.04485287,2.71312173 3.80195597,2.48085118 3.50190686,2.47961848 Z" id="Fill-3"></path>
        </g>
    </g>
</svg>