<?xml version="1.0" encoding="UTF-8"?>
<svg width="16px" height="16px" viewBox="0 0 16 16" version="1.1" xmlns="http://www.w3.org/2000/svg" xmlns:xlink="http://www.w3.org/1999/xlink">
    <title>全景要素-全景概述h</title>
    <g id="全景要素-全景概述h" stroke="none" stroke-width="1" fill="none" fill-rule="evenodd">
        <g id="编组" stroke="#00A2FF" stroke-width="1.4">
            <circle id="椭圆形" cx="8" cy="8" r="7.3"></circle>
            <ellipse id="椭圆形" cx="8" cy="8" rx="3.3" ry="7.3"></ellipse>
            <ellipse id="椭圆形" transform="translate(8.000000, 8.000000) rotate(-270.000000) translate(-8.000000, -8.000000) " cx="8" cy="8" rx="3.3" ry="7.3"></ellipse>
        </g>
        <circle id="椭圆形" fill="#FFFFFF" cx="12" cy="12" r="4"></circle>
        <g id="guanli" transform="translate(9.500000, 9.500000)" fill="#00A2FF" stroke="#00A2FF" stroke-width="0.4">
            <path d="M3.00073122,2.42193696 C2.97657399,2.41873638 2.93573393,2.41053195 2.92028117,2.40110974 L0.17467759,1.41275363 C0.0832508655,1.37848395 0.024728536,1.29800877 0.0257153667,1.20778351 C0.027957472,1.11865113 0.087257138,1.03762951 0.176411649,1.00143168 L2.91207215,0.0172909628 C2.94046629,0.00579227738 2.96960359,0 2.99926197,0 C3.02862991,0 3.05752803,0.00569860173 3.08468355,0.0168303909 L5.82408552,1.00189225 C5.91551225,1.03591993 5.97403458,1.11639511 5.97279042,1.20686237 C5.9707971,1.29575275 5.91177078,1.37677437 5.82235147,1.4132142 L3.08641761,2.39744859 C3.06426779,2.41339687 3.02315438,2.42157007 3.00073122,2.42193696 Z M0.994630865,1.19195233 L2.99950115,1.93379318 L5.03323538,1.22277942 L3.01417658,0.475723957 L0.994630865,1.19195233 Z" id="Fill-1"></path>
            <path d="M0.17467759,4.96761633 C0.085753718,4.93983369 0.0204830831,4.87109919 0.00403942758,4.78812599 C-0.0123786015,4.70503569 0.0219865031,4.62014214 0.0937320943,4.56665334 C0.139313053,4.53271934 0.196331963,4.51392957 0.254862835,4.51392957 C0.286759255,4.51392957 0.318390869,4.51951108 0.34902305,4.53046332 L2.9698684,5.48907742 L5.62084194,4.53046332 C5.65147412,4.51951108 5.68310574,4.51392957 5.71473735,4.51392957 C5.77332802,4.51402324 5.83009066,4.53259444 5.87539827,4.56653625 C5.9473745,4.61990014 5.98174815,4.70491079 5.96556076,4.78821966 C5.94887792,4.87131777 5.88411127,4.93970879 5.79692146,4.96682009 L3.01394594,6 L0.17467759,4.96761633 Z" id="Fill-4"></path>
            <path d="M0.17467759,2.96761633 C0.085753718,2.93983369 0.0204830831,2.87109919 0.00403942758,2.78812599 C-0.0123786015,2.70503569 0.0219865031,2.62014214 0.0937320943,2.56665334 C0.139313053,2.53271934 0.196331963,2.51392957 0.254862835,2.51392957 C0.286759255,2.51392957 0.318390869,2.51951108 0.34902305,2.53046332 L2.9698684,3.48907742 L5.62084194,2.53046332 C5.65147412,2.51951108 5.68310574,2.51392957 5.71473735,2.51392957 C5.77332802,2.51402324 5.83009066,2.53259444 5.87539827,2.56653625 C5.9473745,2.61990014 5.98174815,2.70491079 5.96556076,2.78821966 C5.94887792,2.87131777 5.88411127,2.93970879 5.79692146,2.96682009 L3.01394594,4 L0.17467759,2.96761633 Z" id="Fill-4备份"></path>
        </g>
    </g>
</svg>