<?xml version="1.0" encoding="UTF-8"?>
<svg width="16px" height="16px" viewBox="0 0 16 16" version="1.1" xmlns="http://www.w3.org/2000/svg" xmlns:xlink="http://www.w3.org/1999/xlink">
    <title>icon/辅助决策hover</title>
    <g id="icon/辅助决策hover" stroke="none" stroke-width="1" fill="none" fill-rule="evenodd">
        <g id="fuzhujuece" transform="translate(2.000000, 1.000000)" fill="#36A4FF" fill-rule="nonzero">
            <path d="M11.9931663,13.2926463 L11.5763098,13.2926463 L11.5763098,11.835918 L11.9931663,11.835918 L11.9931663,0 L0.970387244,0 C0.437357631,0 0,0.448224112 0,0.994497249 L0,12.5782891 C0,13.3626813 0.621867882,14 1.38724374,14 L11.9931663,14 L11.9931663,13.2926463 Z M1.67425968,0.896448224 L1.67425968,10.9534767 L1.38724374,10.9534767 C1.15489749,10.9534767 1.03189066,10.9534767 0.874715262,11.0305153 L0.874715262,1.33066533 L0.881548975,1.33066533 L0.881548975,1.1905953 C0.881548975,1.02951476 1.01138952,0.896448224 1.16856492,0.896448224 L1.67425968,0.896448224 Z M1.38724374,11.863932 L10.6947608,11.863932 L10.6947608,13.1105553 L1.38724374,13.1105553 C1.01138952,13.1105553 0.833712984,12.9074537 0.833712984,12.4872436 C0.833712984,12.0670335 1.01822323,11.863932 1.38724374,11.863932 Z M2.56264237,0.896448224 L10.8314351,0.896448224 C10.9886105,0.896448224 11.118451,1.02951476 11.118451,1.1905953 L11.118451,10.9534767 L2.56264237,10.9534767 L2.56264237,0.896448224 Z" id="形状"></path>
            <path d="M8.2246941,6.3164557 L4.09098842,6.3164557 L4.09098842,7.2505362 L8.2246941,7.2505362 L8.2246941,6.3164557 Z M4.05654669,4.64315909 L4.05654669,5.52211451 L9.67358865,5.52211451 L9.67358865,4.64315909 L4.05654669,4.64315909 Z M4.01082985,3.83895839 L7.39797919,3.83895839 L7.39797919,3 L4.01082985,3 L4.01082985,3.83895839 Z" id="形状"></path>
        </g>
    </g>
</svg>