<?xml version="1.0" encoding="UTF-8"?>
<svg width="16px" height="16px" viewBox="0 0 16 16" version="1.1" xmlns="http://www.w3.org/2000/svg" xmlns:xlink="http://www.w3.org/1999/xlink">
    <title>icon/治理要素_人口专题</title>
    <g id="icon/治理要素_人口专题" stroke="none" stroke-width="1" fill="none" fill-rule="evenodd">
        <g id="icon/导航/任务" fill="#FFFFFF" fill-rule="nonzero" opacity="0.01">
            <rect id="矩形" x="0" y="0" width="16" height="16"></rect>
        </g>
        <g id="治理要素_人口专题hover" fill-rule="nonzero">
            <rect id="矩形" fill="#FFFFFF" opacity="0.01" x="0" y="0" width="16" height="16"></rect>
            <path d="M9.69189272,3.8598186 C10.6681844,3.84986375 11.6082285,4.2292088 12.3041719,4.91397685 C13.0001154,5.5987449 13.3946271,6.53252539 13.4004792,7.50958327 C13.4014538,8.39155356 13.082789,9.23590363 12.5159974,9.89282739 L12.3691715,10.0530669 L12.219,10.197 L12.258982,10.2162914 C12.5806071,10.3856999 12.8841772,10.5868684 13.1651061,10.8165648 L13.3714859,10.9941356 L13.5689452,11.1821014 C14.5499935,12.1558584 15.1164802,13.4712937 15.1498875,14.8526446 C15.1537758,14.9923001 15.0575415,15.1111451 14.9274508,15.1422506 L14.8598909,15.150182 L13.8799082,15.150182 C13.7239668,15.150182 13.5946436,15.026568 13.5899891,14.8706285 C13.5584989,13.8970877 13.1564409,12.9723158 12.4657053,12.2850126 C11.7404072,11.5597145 10.7763106,11.1608072 9.74898615,11.1608066 C8.73002621,11.1578516 7.75220996,11.5625589 7.03274879,12.2853994 C6.34149241,12.9716234 5.93965755,13.8967691 5.90997369,14.8706123 C5.905641,15.0050097 5.81004783,15.1153871 5.68484029,15.1433429 L5.62005405,15.150182 L4.64007135,15.150182 C4.56195436,15.150182 4.487135,15.1186828 4.43255486,15.0627927 C4.37800244,15.006931 4.34828262,14.9314336 4.34993054,14.8531635 C4.38374722,13.4720987 4.94874658,12.1572316 5.92712773,11.1826294 C6.30462375,10.8041849 6.73120899,10.4875895 7.1976352,10.2373585 L7.277,10.197 L7.14394193,10.0686672 C6.28451604,9.19288153 5.92264544,7.94072971 6.18126461,6.74232401 L6.23705708,6.51835778 L6.29945103,6.31955002 C6.77875233,4.93137549 8.03956213,3.97171328 9.49176921,3.86855016 L9.69189272,3.8598186 Z M9.729,5.42 L9.56235962,5.42980866 C8.7907875,5.50193179 8.11618084,5.9968169 7.81978905,6.72270038 C7.50222641,7.50043268 7.68036016,8.39267223 8.2722273,8.98884864 C8.66271913,9.38224427 9.194622,9.60268233 9.74956557,9.60086464 C10.3055222,9.6013772 10.8377079,9.38119179 11.2291071,8.98859521 C11.6248132,8.59184229 11.8416216,8.06866242 11.8416216,7.50974901 C11.8416216,6.94381882 11.6193783,6.41393829 11.2149436,6.01784182 C10.8617034,5.67359413 10.4002678,5.46581656 9.9123827,5.42733388 L9.729,5.42 Z" id="形状结合" fill="#4B4B4B"></path>
            <path d="M6.31117994,0.850442156 C4.28808342,0.81890428 2.60178468,2.47746304 2.60178468,4.49812218 L2.60845439,4.72024942 C2.66162686,5.60366736 3.0304999,6.42229555 3.6350512,7.04301899 L3.782,7.185 L3.9879641,7.08354443 C3.41037948,7.35083711 2.88398046,7.71757146 2.43068247,8.17086945 C1.44976068,9.14451404 0.883248344,10.4604125 0.850106921,11.8427171 C0.84777002,11.9202032 0.877204572,11.9962561 0.931798764,12.0525973 C0.98644215,12.1089893 1.06161538,12.1408161 1.14013314,12.1408161 L2.1223558,12.1408161 C2.27795018,12.1421254 2.40722064,12.0180224 2.41227544,11.8612254 C2.44168739,10.8869622 2.84354308,9.96138291 3.53505187,9.2748912 C4.02143496,8.78595168 4.63071655,8.43885483 5.29842694,8.27004242 C5.43929554,8.23385146 5.53095604,8.10012712 5.51615517,7.95587103 C5.473785,7.54419117 5.49055392,7.1286136 5.565947,6.72173247 C5.59015409,6.59189905 5.52372929,6.46189621 5.40418454,6.40536407 C4.62840708,6.0597223 4.14077015,5.28222835 4.16728862,4.43674576 C4.18146946,3.91270935 4.39261698,3.41393862 4.75855295,3.03946591 C5.15758744,2.62766066 5.70824972,2.39900543 6.28098166,2.40702704 C6.98548706,2.41418736 7.63840972,2.77561265 8.01819048,3.36834674 C8.09131997,3.48040712 8.22980705,3.52816129 8.35527219,3.48540438 C8.65811226,3.37969004 8.972925,3.30827797 9.29056483,3.27416901 C9.38461881,3.26439671 9.46836207,3.20884044 9.51418067,3.12553388 C9.55999928,3.04222733 9.56207298,2.94175279 9.51973065,2.85662668 C8.93814599,1.7067245 7.79845472,0.952976888 6.52453948,0.859806748 L6.31117994,0.850442156 Z" id="路径" fill="#36A4FF"></path>
        </g>
    </g>
</svg>