<?xml version="1.0" encoding="UTF-8"?>
<svg width="16px" height="16px" viewBox="0 0 16 16" version="1.1" xmlns="http://www.w3.org/2000/svg" xmlns:xlink="http://www.w3.org/1999/xlink">
    <title>一标N实-实有单位h</title>
    <g id="一标N实-实有单位h" stroke="none" stroke-width="1" fill="none" fill-rule="evenodd">
        <rect id="矩形" fill="#D8D8D8" opacity="0" x="0" y="0" width="16" height="16"></rect>
        <path d="M2.20039138,16.5 L2.20039138,3.5 C2.20039138,2.3954305 3.09582188,1.5 4.20039138,1.5 L9.20039138,1.5 C10.3049609,1.5 11.2003914,2.3954305 11.2003914,3.5 L11.2003914,4.5 L11.2003914,4.5" id="路径-2" stroke="#00A2FF" stroke-width="1.4"></path>
        <path d="M5,17 L5,7 C5,5.8954305 5.8954305,5 7,5 L12,5 C13.1045695,5 14,5.8954305 14,7 L14,17 L14,17" id="路径-2" stroke="#00A2FF" stroke-width="1.4"></path>
        <path d="M11.0010136,11.0010136 C11.4434562,11.0010136 11.8014835,11.3590408 11.8014835,11.8014835 L11.8014835,13.4007828 C11.8014835,13.8432254 11.4434562,14.2013464 11.0010136,14.2013464 C10.5584772,14.2013464 10.20045,13.8413974 10.20045,13.4007828 L10.20045,11.8014835 C10.20045,11.3590408 10.5584772,11.0010136 11.0010136,11.0010136 Z M11.0010136,7 C11.4434562,7 11.8014835,7.35812098 11.8014835,7.80056363 L11.8014835,9.39988634 C11.8014835,9.84230555 11.4434562,10.20045 11.0010136,10.20045 C10.5584772,10.20045 10.20045,9.84230555 10.20045,9.39988634 L10.20045,7.80056363 C10.20045,7.35812098 10.5584772,7 11.0010136,7 Z M7.80056363,11.0010136 C8.24300627,11.0010136 8.60115069,11.3590408 8.60115069,11.8014835 L8.60115069,13.4007828 C8.60115069,13.8432254 8.24300627,14.2013464 7.80056363,14.2013464 C7.35812098,14.2013464 7,13.8432254 7,13.4007828 L7,11.8014835 C7,11.3590408 7.35812098,11.0010136 7.80056363,11.0010136 Z M7.80056363,7 C8.24300627,7 8.60115069,7.35812098 8.60115069,7.80056363 L8.60115069,9.39988634 C8.60115069,9.84230555 8.24300627,10.20045 7.80056363,10.20045 C7.35812098,10.20045 7,9.84230555 7,9.39988634 L7,7.80056363 C7,7.35812098 7.35812098,7 7.80056363,7 Z" id="Fill-1" fill="#00A2FF"></path>
    </g>
</svg>