<?xml version="1.0" encoding="UTF-8"?>
<svg width="16px" height="16px" viewBox="0 0 16 16" version="1.1" xmlns="http://www.w3.org/2000/svg" xmlns:xlink="http://www.w3.org/1999/xlink">
    <title>治理机制hover</title>
    <g id="治理机制hover" stroke="none" stroke-width="1" fill="none" fill-rule="evenodd">
        <g id="yunhangjizhi" fill="#36A4FF" fill-rule="nonzero">
            <path d="M1.6927326,8.0552564 C2.6265505,8.0552564 3.38471454,8.80065927 3.38471454,9.71871335 C3.38471454,10.2862104 3.09571142,10.7876496 2.65357417,11.0879126 C3.38696652,12.307731 4.56324678,13.2107719 5.97373217,13.7302269 C7.23853303,14.1215914 8.59208241,14.1215914 9.85688328,13.7302269 C10.1556449,13.6326414 10.4544066,13.5350559 10.7531683,13.339885 L11.2508542,14.2196556 C10.9520925,14.4148265 10.5542441,14.5131626 10.2554824,14.6114988 C9.35919737,14.8066697 8.66183658,15.0025913 7.865389,15.0025913 C7.06969208,15.0025913 6.37158063,14.9050058 5.57588371,14.6114988 C3.91768135,14.0687734 2.51545319,12.9390339 1.60565633,11.3791677 C0.711623284,11.3356296 0,10.6089931 0,9.71871335 C0,8.80065927 0.75741339,8.0552564 1.6927326,8.0552564 L1.6927326,8.0552564 Z M12.6448251,2.7721291 C14.7361568,4.630757 15.5326044,7.56657838 14.6363194,10.208142 C14.5687602,10.3395071 14.5027024,10.4708721 14.4358939,10.6315128 C14.6258102,10.9017495 14.7361568,11.2267842 14.7361568,11.5780919 C14.7361568,12.4968967 13.9779928,13.2415489 13.0434242,13.2415489 C12.1088557,13.2415489 11.3506916,12.4968967 11.3506916,11.5780919 C11.3506916,10.6592872 12.108105,9.91463496 13.0434242,9.91463496 C13.2506057,9.91463496 13.4487793,9.95141717 13.6319397,10.0182257 C13.6379431,9.98402231 13.6409571,9.94936119 13.6409476,9.91463496 C14.4366445,7.66416385 13.7400344,5.12018568 11.948215,3.55431419 L12.6448251,2.7721291 L12.6448251,2.7721291 Z M7.76555156,5.0226002 C9.41549668,5.0226002 10.7531683,6.33625078 10.7531683,7.95767092 C10.7531683,9.57909106 9.41549668,10.8927416 7.76630221,10.8927416 C6.11635709,10.8927416 4.77868547,9.57909106 4.77868547,7.95767092 C4.77868547,6.33625078 6.11635709,5.0226002 7.76555156,5.0226002 Z M7.76780353,0.000701711818 L7.89616596,0.00970960149 C8.82623057,0.107295073 9.49881966,0.927763691 9.39973287,1.84131384 C9.29989543,2.75486398 8.46591498,3.41544256 7.53585037,3.31785708 C6.92491292,3.25546056 6.39586723,2.86665078 6.15388996,2.30221752 L6.27249384,2.28270043 C4.28099957,2.5762075 2.68810441,3.84857192 1.79181939,5.70719982 C1.6927326,5.90237076 1.6927326,6.00070689 1.59289516,6.19662849 C1.49305771,6.39179944 1.49305771,6.68605716 1.39397093,6.88122811 L0.397848461,6.68605716 C0.497685904,6.49013556 0.497685904,6.19662849 0.596772691,6.00070689 C0.696610135,5.70795048 0.796447579,5.51127822 0.895534365,5.21777115 C1.89015552,3.16622427 3.77805906,1.69943957 6.06456172,1.30684571 C6.11394748,1.08127475 6.21094436,0.868854143 6.3490609,0.683800012 C6.70966916,0.201827112 7.29764158,-0.0543588351 7.89616596,0.00970960149 L7.76780353,0.000701711818 Z" id="形状"></path>
        </g>
    </g>
</svg>