<?xml version="1.0" encoding="UTF-8"?>
<svg width="16px" height="16px" viewBox="0 0 16 16" version="1.1" xmlns="http://www.w3.org/2000/svg" xmlns:xlink="http://www.w3.org/1999/xlink">
    <title>全景全要素</title>
    <g id="全景全要素" stroke="none" stroke-width="1" fill="none" fill-rule="evenodd">
        <g id="编组" fill-rule="nonzero">
            <path d="M7.5,0.3 C9.44992949,0.3 10.7,3.55018331 10.7,7.5 C10.7,11.4498167 9.44992949,14.7 7.5,14.7 C5.5964974,14.7 4.35992391,11.6027448 4.30211854,7.78090548 L4.3,7.5 L5.7,7.5 C5.7,8.25997296 5.75472696,8.98341885 5.84899808,9.64545225 L5.92687872,10.1300736 C6.26616156,12.0193891 6.92718053,13.3 7.5,13.3 C8.07281947,13.3 8.73383844,12.0193891 9.07312128,10.1300736 L9.15100192,9.64545225 C9.24527304,8.98341885 9.3,8.25997296 9.3,7.5 C9.3,6.74002704 9.24527304,6.01658115 9.15100192,5.35454775 L9.07312128,4.86992637 C8.73383844,2.9806109 8.07281947,1.7 7.5,1.7 C7.0443299,1.7 6.40067606,2.69968286 6.02264943,4.3802845 L5.9727894,4.61364808 L4.60067351,4.33562295 C5.09057779,1.91783633 6.10017239,0.3 7.5,0.3 Z" id="路径" fill="#4B4B4B"></path>
            <path d="M7.5,4.3 C11.4498167,4.3 14.7,5.55007051 14.7,7.5 C14.7,8.91211862 13.0488303,9.93155417 10.5960517,10.4130929 L10.3302254,10.4626215 L10.0868321,9.08394103 C12.0709009,8.73367209 13.3,8.01107049 13.3,7.5 C13.3,6.92718053 12.0193891,6.26616156 10.1300736,5.92687872 L9.64545225,5.84899808 C8.98341885,5.75472696 8.25997296,5.7 7.5,5.7 C6.74002704,5.7 6.01658115,5.75472696 5.35454775,5.84899808 L4.86992637,5.92687872 C2.9806109,6.26616156 1.7,6.92718053 1.7,7.5 C1.7,8.07281947 2.9806109,8.73383844 4.86992637,9.07312128 L5.35454775,9.15100192 C5.93382698,9.23348915 6.56012514,9.28570038 7.21677095,9.29746433 L7.5,9.3 L7.5,10.7 C3.55018331,10.7 0.3,9.44992949 0.3,7.5 C0.3,5.55007051 3.55018331,4.3 7.5,4.3 Z" id="路径" fill="#36A4FF"></path>
            <path d="M7.5,0 C11.6421356,0 15,3.35786438 15,7.5 C15,11.6421356 11.6421356,15 7.5,15 C3.35786438,15 0,11.6421356 0,7.5 C0,3.35786438 3.35786438,0 7.5,0 Z M7.5,1.4 C4.13106303,1.4 1.4,4.13106303 1.4,7.5 C1.4,10.868937 4.13106303,13.6 7.5,13.6 C10.868937,13.6 13.6,10.868937 13.6,7.5 C13.6,4.13106303 10.868937,1.4 7.5,1.4 Z" id="椭圆形" fill="#4B4B4B"></path>
        </g>
    </g>
</svg>