<?xml version="1.0" encoding="UTF-8"?>
<svg width="16px" height="16px" viewBox="0 0 16 16" version="1.1" xmlns="http://www.w3.org/2000/svg" xmlns:xlink="http://www.w3.org/1999/xlink">
    <title>icon/一标N实_实有力量hover</title>
    <g id="icon/一标N实_实有力量hover" stroke="none" stroke-width="1" fill="none" fill-rule="evenodd">
        <g id="icon/导航/任务" fill="#FFFFFF" fill-rule="nonzero" opacity="0.01">
            <rect id="矩形" x="0" y="0" width="16" height="16"></rect>
        </g>
        <g id="shoucang" transform="translate(1.000000, 1.000000)" fill-rule="nonzero">
            <path d="M7.55037469,12.8650689 C7.41353417,12.7740855 7.41353417,12.016073 7.55037469,10.5910316 C6.4892605,9.41811291 5.98511123,8.75820911 6.03792687,8.61132022 C6.09074251,8.46443134 6.88493615,8.25033892 8.42050781,7.96904297 L9.99909973,6.0375 L11.7384147,7.96904297 C13.168038,8.25033892 13.9092575,8.46443134 13.9620731,8.61132022 C14.0148888,8.75820911 13.5107395,9.41811291 12.4496253,10.5910316 C12.5864658,12.016073 12.5864658,12.7740855 12.4496253,12.8650689 C12.3115844,12.9560523 11.4947426,12.6924356 9.99909973,12.0742188 C8.45544267,12.65955 7.63920099,12.9231667 7.55037469,12.8650689 Z M10,10.6903131 C10.0911628,10.6903131 10.1804651,10.7035225 10.267907,10.7270059 L11.2372093,11 L11.2074419,10.1883562 C11.2018605,10.0430528 11.2613953,9.90215264 11.3730233,9.78767123 L12,9.1462818 L11.012093,8.91878669 C10.8372093,8.8776908 10.6827907,8.79109589 10.5786047,8.67074364 L10,8 L9.42139535,8.66927593 C9.3172093,8.78962818 9.16465116,8.87622309 8.98790698,8.91731898 L8,9.14481409 L8.62697674,9.78620352 C8.74046512,9.90068493 8.79813953,10.0430528 8.79255814,10.1868885 L8.7627907,10.9985323 L9.73023256,10.7255382 C9.81767442,10.7020548 9.90883721,10.6903131 10,10.6903131" id="形状" fill="#00A2FF"></path>
            <polygon id="路径" fill="#36A4FF" points="13 2.6671875 13 4.94769287 1.74627686 4.94769287 1.74627686 3.37670898 11.4073486 3.37670898 11.4073486 1.8706665 2.03222656 1.8706665 2.03222656 11.3406372 6.5 11.3406372 6.5 12.3359375 6.5 13 2.60030466 13 1.46493928e-13 13 1.46486362e-13 2.6671875 1.46493928e-13 -5.77315973e-14 13 -5.77315973e-14"></polygon>
        </g>
    </g>
</svg>