<?xml version="1.0" encoding="UTF-8"?>
<svg width="16px" height="16px" viewBox="0 0 16 16" version="1.1" xmlns="http://www.w3.org/2000/svg" xmlns:xlink="http://www.w3.org/1999/xlink">
    <title>icon/9+x_留守人员hover</title>
    <g id="icon/9+x_留守人员hover" stroke="none" stroke-width="1" fill="none" fill-rule="evenodd">
        <g id="shiyourenkou" fill-rule="nonzero">
            <rect id="矩形" fill="#FFFFFF" opacity="0.01" x="0" y="0" width="16" height="16"></rect>
            <path d="M7.88360596,0.850891113 C9.14916099,0.838547354 10.3677286,1.30892556 11.2698716,2.1580205 C12.1720147,3.00711544 12.6834154,4.16497947 12.6911102,5.37650635 C12.6922647,6.47012705 12.320298,7.66644547 11.5855728,8.48101421 L11.3952443,8.67970715 L11.2005788,8.8581805 C9.95381832,9.65491141 8.88653538,10.0532766 7.99872996,10.0532761 C6.67786461,10.0496121 5.41033333,10.5514388 4.47770459,11.4477425 C3.58163737,12.2986428 3.06074374,13.4457999 3.02226492,14.6533407 C3.01986416,14.7245757 3.02727635,14.8368506 3.04450149,14.9901654 L1.376106,15 L1.00019114,14.9901654 C0.998639594,14.8158935 0.998639594,14.6964066 1.00019114,14.6317046 C1.04383615,12.9192195 1.77623794,11.2888178 3.04450149,10.0803359 C3.53384498,9.61107435 4.08682222,9.21850406 4.69144482,8.90822395 L4.79432445,8.8581805 L4.6218429,8.69905112 C3.5077796,7.61309916 2.99757667,5.91111696 3.33282155,4.42512441 L3.40514465,4.14741199 L3.48602516,3.90089544 C4.1073376,2.17959437 5.74170996,0.989637676 7.6241883,0.861718025 L7.88360596,0.850891113 Z M7.97046042,2.4963543 L7.73110461,2.51043084 C6.6228482,2.61393574 5.65386925,3.32415214 5.22814353,4.36587748 C4.77200882,5.48201178 5.02787326,6.762477 5.87800836,7.61805794 C6.43889574,8.18262541 7.2029005,8.4989791 8,8.4963705 C8.79855468,8.49710608 9.5629656,8.18111498 10.1251563,7.61769424 C10.6935333,7.04830869 11.0049484,6.29748608 11.0049484,5.49538178 C11.0049484,4.6832076 10.6857268,3.92276878 10.1048124,3.3543253 C9.59743178,2.86029072 8.93464357,2.56210627 8.23386425,2.50687925 L7.97046042,2.4963543 Z" id="形状结合" fill="#36A4FF"></path>
        </g>
        <path d="M7.95197654,1.85065416 C8.92210692,1.85065416 9.93246622,2.22460076 10.663333,2.92259135 C11.2830805,3.51446116 11.6910014,4.34606103 11.6910014,5.37650635 C11.6910014,6.44772645 11.3097315,7.32413914 10.6828887,7.93999687 C9.99589788,8.61494862 9.03160065,8.97387695 8.01162761,8.97387695 C6.97520786,8.97387695 5.97093701,8.6047889 5.2521546,7.9122872 C4.61242922,7.295952 4.21295166,6.42238805 4.21295166,5.35065416 C4.21295166,4.3172762 4.61477433,3.4923413 5.2296375,2.90849034 C5.96210141,2.21297012 6.97800392,1.85065416 7.95197654,1.85065416 Z" id="椭圆形" stroke="#36A4FF" stroke-width="2"></path>
        <g id="liushourenyuan" transform="translate(8.000000, 10.000000)" fill="#36A4FF" fill-rule="nonzero">
            <path d="M2.66667318,1.82198466 C2.20729149,1.66978418 1.93169648,1.22945018 2.01405816,0.779264144 C2.09641984,0.329078104 2.51277905,0 3,0 C3.48723267,0 3.90359188,0.329078104 3.98595356,0.779264144 C4.06831524,1.22945018 3.79272023,1.66978418 3.33333854,1.82198466 L3.33333854,2.50759513 C4.83333855,2.57665496 6,3.10663362 6,3.75004575 C6,4.440644 4.65667286,5 3,5 C1.34332714,5 0,4.44064399 0,3.75004575 C0,3.10663362 1.16667317,2.57665496 2.66667318,2.50759513 L2.66667318,1.82198466 L2.66667318,1.82198466 Z M2.66666536,3.13350609 C2.07866652,3.16381726 1.54433342,3.27287818 1.14934061,3.43724408 C0.950338301,3.52036635 0.803333701,3.61099226 0.718663083,3.69443314 C0.674669526,3.73786195 0.666665362,3.75379207 0.666665362,3.75004575 C0.666665362,3.74629942 0.674669514,3.76254815 0.718674803,3.80566934 C0.803333701,3.88911021 0.950338289,3.97972514 1.14934061,4.06285841 C1.61799978,4.2578431 2.28199319,4.37502287 3,4.37502287 C3.71800681,4.37502287 4.38200022,4.2578431 4.85067112,4.06253981 C5.04966171,3.97972514 5.19666631,3.88911022 5.28134864,3.80568032 C5.32534219,3.76222954 5.33333464,3.74629942 5.33333464,3.75004575 C5.33333464,3.75379208 5.3253422,3.73754335 5.28133692,3.69442215 C5.1966663,3.61099226 5.04967343,3.52036635 4.85067112,3.43724408 C4.45566659,3.27287818 3.92134521,3.16381727 3.33333854,3.13350609 L3.33333854,3.5841198 C3.33404746,3.69620263 3.2706701,3.80005698 3.16724536,3.85629112 C3.06382063,3.91252527 2.93619109,3.91252527 2.83276635,3.85629112 C2.72934162,3.80005698 2.66596426,3.69620263 2.66666536,3.5841198 L2.66666536,3.13350609 L2.66666536,3.13350609 Z" id="形状"></path>
        </g>
    </g>
</svg>