<?xml version="1.0" encoding="UTF-8"?>
<svg width="16px" height="16px" viewBox="0 0 16 16" version="1.1" xmlns="http://www.w3.org/2000/svg" xmlns:xlink="http://www.w3.org/1999/xlink">
    <title>icon/一标N实_实有设备管理</title>
    <g id="icon/一标N实_实有设备管理" stroke="none" stroke-width="1" fill="none" fill-rule="evenodd">
        <g id="icon/导航/任务" fill="#FFFFFF" fill-rule="nonzero" opacity="0.01">
            <rect id="矩形" x="0" y="0" width="16" height="16"></rect>
        </g>
        <g id="shezhi" transform="translate(1.988743, 0.914980)" fill-rule="nonzero">
            <path d="M6.01052866,14.0850202 C5.90280089,14.0850202 5.79507313,14.0566802 5.70044738,14 L0.321337835,10.818453 C0.129174787,10.7050927 0.0112565535,10.4947795 0.0112565535,10.2680588 L0.0112565535,3.90347326 C0.0112565535,3.67675261 -0.0556013181,3.66444502 0.136561729,3.5510847 L5.83584151,0.0850202429 C6.02800456,-0.028340081 5.95349292,-0.028340081 6.14565597,0.0850202429 L11.9151262,3.5510847 C12.1072892,3.66444502 12.0112566,3.67526103 12.0112566,3.90198167 L12.0112566,10.4759504 C12.0112566,10.7041626 12.1072892,10.5528024 11.9151262,10.6646711 L6.32060994,14 C6.2259842,14.0581717 6.11825643,14.0850202 6.01052866,14.0850202 Z M1.62282882,9.68328684 L6.01052866,12.1638166 L10.4951433,9.45519847 L10.4951433,4.54601878 L6.01052866,1.88464182 L1.62282882,4.68035716 L1.62282882,9.68328684 Z" id="形状" fill="#4B4B4B"></path>
            <path d="M6.01125655,10.0850202 C4.35747799,10.0850202 3.01125655,8.74055627 3.01125655,7.08502024 C3.01125655,5.42948421 4.35747799,4.08502024 6.01125655,4.08502024 C7.66503511,4.08502024 9.01125655,5.42948421 9.01125655,7.08502024 C9.01125655,8.74055627 7.66503511,10.0850202 6.01125655,10.0850202 M6.01125655,5.58589898 C5.18348854,5.58589898 4.51213529,6.2590097 4.51213529,7.08502024 C4.51213529,7.91103079 5.18524601,8.58414151 6.01125655,8.58414151 C6.83902457,8.58414151 7.51037782,7.91103079 7.51037782,7.08502024 C7.51037782,6.2590097 6.83902457,5.58589898 6.01125655,5.58589898" id="形状" fill="#36A4FF"></path>
        </g>
    </g>
</svg>