<?xml version="1.0" encoding="UTF-8"?>
<svg width="16px" height="16px" viewBox="0 0 16 16" version="1.1" xmlns="http://www.w3.org/2000/svg" xmlns:xlink="http://www.w3.org/1999/xlink">
    <title>协同中心_通讯录hover</title>
    <defs>
        <linearGradient x1="1.51499155%" y1="30.5343083%" x2="100%" y2="30.5343083%" id="linearGradient-1">
            <stop stop-color="#7AC1FF" offset="0%"></stop>
            <stop stop-color="#36A4FF" offset="100%"></stop>
        </linearGradient>
    </defs>
    <g id="协同中心_通讯录hover" stroke="none" stroke-width="1" fill="none" fill-rule="evenodd">
        <rect id="矩形" fill="url(#linearGradient-1)" opacity="0" x="0" y="0" width="16" height="16"></rect>
        <g id="icon/solution" fill-rule="nonzero">
            <rect id="矩形" fill="#FFFFFF" opacity="0.01" x="0" y="0" width="16" height="16"></rect>
            <path d="M7.87865807,4.51878194 C9.30266173,4.51878194 10.4579105,5.67403075 10.4579105,7.09803442 C10.4579105,7.63431836 10.2935369,8.14400924 9.99817724,8.56868338 L9.8813426,8.72383691 L9.79918378,8.81664272 L9.94281596,8.91786133 C10.6404894,9.44213598 11.1183117,10.2129844 11.2679675,11.0785563 L11.298482,11.2968347 C11.3094773,11.4446334 11.3149749,11.5185328 11.3149749,11.5185328 L9.84804205,11.5185328 L9.84804205,11.5185328 C9.78960642,10.4816749 8.92382693,9.69377226 7.87865807,9.69377226 C6.8334892,9.69377226 5.96770971,10.4789377 5.90910147,11.5185328 L4.44235842,11.5187819 L4.44235842,11.5187819 C4.4841839,10.5512192 4.93098323,9.66474231 5.64544974,9.05365244 L5.81501561,8.91760867 L5.95688888,8.81664272 L5.87597353,8.72383691 C5.5893371,8.37164322 5.39979155,7.94876724 5.32970396,7.4943483 L5.30704539,7.29778024 L5.29940559,7.09803442 C5.29940559,5.67403075 6.4546544,4.51878194 7.87865807,4.51878194 Z M7.87865807,5.98456604 C7.26342258,5.98456604 6.76518968,6.48279893 6.76518968,7.09803442 C6.76518968,7.7132699 7.26342258,8.2115028 7.87865807,8.2115028 C8.49389355,8.2115028 8.99212645,7.7132699 8.99212645,7.09803442 C8.99212645,6.48279893 8.49389355,5.98456604 7.87865807,5.98456604 Z" id="形状结合" fill="#36A4FF"></path>
            <path d="M15,1 L15,15 L1,15 L1,12 L2.5,12 L2.5,13.5 L13.5,13.5 L13.5,2.5 L2.5,2.5 L2.5,4 L1,4 L1,1 L15,1 Z M3,10.5 L3,11.5 L1,11.5 L1,10.5 L3,10.5 Z M2.5,6 L2.5,10 L1,10 L1,6 L2.5,6 Z M3,4.5 L3,5.5 L1,5.5 L1,4.5 L3,4.5 Z" id="形状结合" fill="#36A4FF"></path>
        </g>
    </g>
</svg>