<?xml version="1.0" encoding="UTF-8"?>
<svg width="16px" height="16px" viewBox="0 0 16 16" version="1.1" xmlns="http://www.w3.org/2000/svg" xmlns:xlink="http://www.w3.org/1999/xlink">
    <title>治理要素_分类管理hover</title>
    <g id="治理要素_分类管理hover" stroke="none" stroke-width="1" fill="none" fill-rule="evenodd">
        <g id="icon/导航/分类管理hover">
            <rect id="矩形" fill="#D8D8D8" opacity="0" x="0" y="0" width="16" height="16"></rect>
            <path d="M7.5,9 L7.5,12.5 C7.5,14.4329966 5.93299662,16 4,16 C2.06700338,16 0.5,14.4329966 0.5,12.5 C0.5,10.5670034 2.06700338,9 4,9 L7.5,9 Z M6.1,10.4 L4,10.4 C2.84020203,10.4 1.9,11.340202 1.9,12.5 C1.9,13.659798 2.84020203,14.6 4,14.6 C5.10937198,14.6 6.01782819,13.7397774 6.09472727,12.6499734 L6.1,12.5 L6.1,10.4 Z M4,1 C5.93299662,1 7.5,2.56700338 7.5,4.5 L7.5,8 L4,8 C2.06700338,8 0.5,6.43299662 0.5,4.5 C0.5,2.56700338 2.06700338,1 4,1 Z M12,1 C13.9329966,1 15.5,2.56700338 15.5,4.5 C15.5,6.43299662 13.9329966,8 12,8 L8.5,8 L8.5,4.5 C8.5,2.56700338 10.0670034,1 12,1 Z M4,2.4 C2.84020203,2.4 1.9,3.34020203 1.9,4.5 C1.9,5.60937198 2.76022265,6.51782819 3.85002658,6.59472727 L4,6.6 L6.1,6.6 L6.1,4.5 C6.1,3.39062802 5.23977735,2.48217181 4.14997342,2.40527273 L4,2.4 Z M12,2.4 C10.890628,2.4 9.98217181,3.26022265 9.90527273,4.35002658 L9.9,4.5 L9.9,6.6 L12,6.6 C13.109372,6.6 14.0178282,5.73977735 14.0947273,4.64997342 L14.1,4.5 C14.1,3.34020203 13.159798,2.4 12,2.4 Z" id="形状结合" fill="#36A4FF" fill-rule="nonzero"></path>
            <path d="M12,9 C13.9329966,9 15.5,10.5670034 15.5,12.5 C15.5,14.4329966 13.9329966,16 12,16 C10.0670034,16 8.5,14.4329966 8.5,12.5 C8.5,10.5670034 10.0670034,9 12,9 Z M12,10.4 C10.840202,10.4 9.9,11.340202 9.9,12.5 C9.9,13.659798 10.840202,14.6 12,14.6 C13.159798,14.6 14.1,13.659798 14.1,12.5 C14.1,11.340202 13.159798,10.4 12,10.4 Z" id="矩形备份-3" fill="#36A4FF" fill-rule="nonzero"></path>
        </g>
    </g>
</svg>