<?xml version="1.0" encoding="UTF-8"?>
<svg width="16px" height="16px" viewBox="0 0 16 16" version="1.1" xmlns="http://www.w3.org/2000/svg" xmlns:xlink="http://www.w3.org/1999/xlink">
    <title>icon/调度处置_流程配置_hover</title>
    <g id="icon/调度处置_流程配置_hover" stroke="none" stroke-width="1" fill="none" fill-rule="evenodd">
        <g id="icon/导航/任务" fill="#FFFFFF" fill-rule="nonzero" opacity="0.01">
            <rect id="矩形" x="0" y="0" width="16" height="16"></rect>
        </g>
        <g id="peizhiip" transform="translate(1.000000, 1.000000)" fill="#36A4FF" fill-rule="nonzero">
            <path d="M13.125,6.125 L9.625,6.125 L8.75,6.125 L8.75,3.5 L9.625,3.5 L13.125,3.5 L14,3.5 L14,6.125 L13.125,6.125 Z M10.5,0.875 L10.5,0 L12.25,0 L12.25,0.875 L12.25,2.625 L10.5,2.625 L10.5,0.875 Z M6.125,0.875 L6.125,0 L7.875,0 C7.87414901,0.475257243 7.87414901,0.76692391 7.875,0.875 L7.875,7.875 L6.125,7.875 L6.125,0.875 Z M9.625,9.625 L9.625,10.5 C9.625,10.983 9.233,11.375 8.75,11.375 L5.25,11.375 C4.767,11.375 4.375,10.983 4.375,10.5 L4.375,9.625 C4.375,9.142 4.767,8.75 5.25,8.75 L8.75,8.75 C9.233,8.75 9.625,9.142 9.625,9.625 Z M4.375,7.875 L0.875,7.875 C0.392,7.875 0,7.483 0,7 L0,6.125 C0,5.642 0.392,5.25 0.875,5.25 L4.375,5.25 C4.858,5.25 5.25,5.642 5.25,6.125 L5.25,7 C5.25,7.483 4.858,7.875 4.375,7.875 Z M1.75,0.875 L1.75,0 L3.5,0 L3.5,0.875 L3.5,4.375 L1.75,4.375 L1.75,1.10529273 L1.75,0.875 Z M3.5,13.125 L3.5,14 L1.75,14 L1.75,13.125 L1.75,8.75 L3.5,8.75 L3.5,13.125 Z M7.875,13.125 L7.875,14 L6.125,14 L6.125,13.125 L6.125,12.25 L7.875,12.25 L7.875,13.125 Z M12.25,13.125 L12.25,14 L10.5,14 L10.5,7 L12.25,7 L12.25,13.125 Z" id="形状"></path>
        </g>
        <polygon id="矩形" fill="#36A4FF" points="9.75 4.5 15 4.5 15 7.125 9.75 7.125"></polygon>
        <polygon id="矩形" fill="#36A4FF" points="5.375 9.75 10.625 9.75 10.625 12.375 5.375 12.375"></polygon>
        <polygon id="矩形" fill="#36A4FF" points="1 6.25 6.25 6.25 6.25 8.875 1 8.875"></polygon>
    </g>
</svg>