<?xml version="1.0" encoding="UTF-8"?>
<svg width="16px" height="16px" viewBox="0 0 16 16" version="1.1" xmlns="http://www.w3.org/2000/svg" xmlns:xlink="http://www.w3.org/1999/xlink">
    <title>协同中心_督查督办</title>
    <g id="协同中心_督查督办" stroke="none" stroke-width="1" fill="none" fill-rule="evenodd">
        <rect id="矩形" fill="#D8D8D8" opacity="0" x="0" y="0" width="16" height="16"></rect>
        <path d="M8.02495452,0.739605884 L14.1222538,2.82506453 L14.1222538,11.1853624 C12.0920594,13.8686642 10.0807717,15.3 8.02498464,15.3 C5.96807011,15.3 3.94472586,13.8683932 1.89244871,11.1834427 L1.89244871,11.1834427 L1.89244871,2.8259285 L8.02495452,0.739605884 Z" id="路径-3" stroke="#4B4B4B" stroke-width="1.4"></path>
        <path d="M9.13837508,6.14412069 L7.86056931,4.03535129 L6.58145833,6.14412069 L4.18045153,6.70911337 L5.79180307,8.577042 L5.58613144,11.0353513 L7.86056931,10.0793448 L10.1350072,11.0353513 L9.92803034,8.577042 L11.5406871,6.70911337 L9.13837508,6.14412069 Z M7.41403,7.29024749 L7.86056931,6.55265308 L8.30710862,7.29024749 L9.14490116,7.48718723 L8.58308509,8.13961573 L8.65414021,8.99862654 L7.86056931,8.66455417 L7.0656932,8.99862654 L7.13805354,8.13961573 L6.57493225,7.48718723 L7.41403,7.29024749 Z" id="星形" fill="#36A4FF" fill-rule="nonzero"></path>
    </g>
</svg>