<?xml version="1.0" encoding="UTF-8"?>
<svg width="16px" height="16px" viewBox="0 0 16 16" version="1.1" xmlns="http://www.w3.org/2000/svg" xmlns:xlink="http://www.w3.org/1999/xlink">
    <title>icon/一标N实_系统管理</title>
    <g id="icon/一标N实_系统管理" stroke="none" stroke-width="1" fill="none" fill-rule="evenodd">
        <g id="icon/导航/任务" fill="#FFFFFF" fill-rule="nonzero" opacity="0.01">
            <rect id="矩形" x="0" y="0" width="16" height="16"></rect>
        </g>
        <g id="xitongguanli-2" transform="translate(1.000000, 1.000000)" fill="#4B4B4B" fill-rule="nonzero">
            <path d="M12.9774811,8.34328906 C12.2160906,7.07106641 12.6739793,5.44069531 14,4.69989844 L12.5739552,2.317 C12.1665179,2.54742578 11.6928135,2.67955078 11.1873078,2.67955078 C9.66333631,2.67955078 8.42795799,1.47989844 8.42795799,0 L5.57578334,0 C5.57955302,0.456777344 5.46136077,0.919871094 5.2079135,1.34328906 C4.44655131,2.61553906 2.75399289,3.04819922 1.42601647,2.31068359 L0,4.69358203 C0.410555107,4.91878516 0.765982172,5.24849609 1.0187492,5.67082031 C1.77889262,6.94104688 1.32361152,8.56816406 0.00252256848,9.31060156 L1.42856738,11.6935 C1.83458753,11.4652344 2.3060244,11.3345586 2.80889418,11.3345586 C4.32804728,11.3345586 5.56025112,12.5266367 5.56813061,14 L8.42024857,14 C8.4190298,13.5478164 8.53747715,13.0898633 8.78823179,12.6708477 C9.54834687,11.4006484 11.2367671,10.9674141 12.5637799,11.6999805 L13.9898247,9.31710938 C13.5819622,9.09198828 13.228916,8.76342578 12.9774811,8.34328906 L12.9774811,8.34328906 Z M6.99998583,9.83464453 C5.37720902,9.83464453 4.06167538,8.56556641 4.06167538,7 C4.06167538,5.43446094 5.37718068,4.16535547 6.99998583,4.16535547 C8.62279098,4.16535547 9.93823959,5.43446094 9.93823959,7 C9.93823959,8.56556641 8.62276264,9.83464453 6.99998583,9.83464453 Z" id="形状"></path>
        </g>
    </g>
</svg>