<?xml version="1.0" encoding="UTF-8"?>
<svg width="16px" height="16px" viewBox="0 0 16 16" version="1.1" xmlns="http://www.w3.org/2000/svg" xmlns:xlink="http://www.w3.org/1999/xlink">
    <title>移动管理后台-运营管理h</title>
    <g id="移动管理后台-运营管理h" stroke="none" stroke-width="1" fill="none" fill-rule="evenodd">
        <path d="M14.6349588,1.7 C14.8186325,1.7 14.9849118,1.77439916 15.1052635,1.89474148 C15.2255974,2.01506589 15.3,2.18130431 15.3,2.36493387 L15.3,2.36493387 L15.3,10.8031557 C15.3,10.9867852 15.2255974,11.1530237 15.1052635,11.2733481 C14.9849118,11.3936904 14.8186325,11.4680896 14.6349588,11.4680896 L14.6349588,11.4680896 L1.36332399,11.4680896 C1.17968978,11.4680896 1.01344586,11.3936908 0.893117352,11.2733623 C0.772788842,11.1530338 0.698390123,10.9867899 0.698390123,10.8031557 L0.698390123,10.8031557 L0.698390123,2.36493387 C0.698390123,2.18129966 0.772788842,2.01505574 0.893117352,1.89472723 C1.01344586,1.77439872 1.17968978,1.7 1.36332399,1.7 L1.36332399,1.7 L14.6349588,1.7 Z" id="路径" stroke="#00A2FF" stroke-width="1.4"></path>
        <path d="M3.62952044,9.60736619 C3.30639138,9.60736619 3.04489376,9.34586857 3.04489376,9.02273951 C3.04489376,8.8666888 3.10641787,8.71943876 3.21626512,8.60948419 L6.43422061,5.39160919 C6.66282309,5.16303354 7.03427528,5.16303354 7.26285092,5.39160919 L8.78166216,6.91042043 L11.9556144,3.73217523 C12.1819898,3.50137259 12.5512419,3.49697226 12.7842178,3.7211744 C13.0150205,3.94754989 13.0194208,4.31680191 12.7952455,4.54977789 L12.7842178,4.56080554 L9.19271732,8.14790574 C8.96411484,8.37648138 8.59268948,8.37648138 8.36408701,8.14790574 L6.84519527,6.62909449 L4.04277576,9.43602166 C3.93284802,9.54584207 3.78557115,9.60736619 3.62952044,9.60736619 Z" id="路径" fill="#00A2FF"></path>
        <path d="M12.1336667,14.5617346 L3.86472341,14.5617346 C3.54159435,14.5617346 3.2799894,14.300237 3.2799894,13.9771079 C3.2799894,13.6539788 3.54159435,13.3923739 3.86472341,13.3923739 L12.1358669,13.3923739 C12.4589959,13.3923739 12.7204936,13.6539788 12.7204936,13.9771079 C12.7182934,14.300237 12.4567958,14.5617346 12.1336667,14.5617346 Z" id="路径" fill="#00A2FF"></path>
    </g>
</svg>