<?xml version="1.0" encoding="UTF-8"?>
<svg width="16px" height="16px" viewBox="0 0 16 16" version="1.1" xmlns="http://www.w3.org/2000/svg" xmlns:xlink="http://www.w3.org/1999/xlink">
    <title>icon/一标N实_小区组管理</title>
    <g id="icon/一标N实_小区组管理" stroke="none" stroke-width="1" fill="none" fill-rule="evenodd">
        <g id="icon/导航/任务" fill="#FFFFFF" fill-rule="nonzero" opacity="0.01">
            <rect id="矩形" x="0" y="0" width="16" height="16"></rect>
        </g>
        <g id="chengshi" transform="translate(1.000000, 1.000000)" fill-rule="nonzero">
            <path d="M10.1100071,8.40204762 L10.1100071,8.92585714 L10.1100071,9.44966667 L7.66554697,9.44966667 C7.39661508,9.44966667 7.17860272,9.21514915 7.17860272,8.92585714 C7.17860272,8.63656513 7.39661508,8.40204762 7.66554697,8.40204762 L10.1100071,8.40204762 Z M10.1100071,10.4972857 L10.1100071,11.0210952 L10.1100071,11.5449048 L7.66554697,11.5449048 C7.39661508,11.5449048 7.17860272,11.3103872 7.17860272,11.0210952 C7.17860272,10.7318032 7.39661508,10.4972857 7.66554697,10.4972857 L10.1100071,10.4972857 Z M5.98303223,5.0952381 L4.74777701,5.0952381 L4.74777701,3 L5.23472126,3 L5.98303223,3 L5.98303223,5.0952381 Z M3.91888428,5.0952381 L2.74777701,5.0952381 L2.74777701,3 L3.23472126,3 L3.91888428,3 L3.91888428,5.0952381 Z M6.01782227,8.0952381 L4.74777701,8.0952381 L4.74777701,6 L5.23472126,6 L6.01782227,6 L6.01782227,8.0952381 Z M3.93017578,8.0952381 L2.74777701,8.0952381 L2.74777701,6 L3.23472126,6 L3.93017578,6 L3.93017578,8.0952381 Z M3.7738885,14 L2.8,14 L2.8,10.4972857 L5.86774879,10.4972857 L5.86774879,14 L4.89386028,14 L4.89386028,11.5449048 L3.7738885,11.5449048 L3.7738885,14 Z" id="形状" fill="#36A4FF"></path>
            <path d="M2.01501465,13 L0.687719298,13 L0.687719298,1 L0.687719298,0 L8.02339181,0 L8.02339181,1 L8.02339181,13 L6.64447021,13 L6.55822754,1.44763184 L2.01501465,1.44763184 L2.01501465,13 Z M11.4489136,6.5 L12.6081871,6.5 L12.6081871,13 L11.4489136,13 L11.4489136,6.5 Z M13.6228638,12.5829468 L13.6228638,14 L0,14 L0,12.5829468 L13.6228638,12.5829468 Z M7.84328162,4.24771429 L13.9944275,6.80059814 L13.9944275,8.0952381 L7.5010376,5.45928955 C7.25415411,5.35157882 7.12180778,4.81472202 7.21865851,4.54774402 C7.31550924,4.28076602 7.59383204,4.14707721 7.84328162,4.24771429 Z" id="形状" fill="#4B4B4B"></path>
        </g>
    </g>
</svg>