<?xml version="1.0" encoding="UTF-8"?>
<svg width="16px" height="16px" viewBox="0 0 16 16" version="1.1" xmlns="http://www.w3.org/2000/svg" xmlns:xlink="http://www.w3.org/1999/xlink">
    <title>icon/9+x_社会治安hover</title>
    <g id="icon/9+x_社会治安hover" stroke="none" stroke-width="1" fill="none" fill-rule="evenodd">
        <g id="shehuizhian" transform="translate(2.000000, 1.000000)" fill="#36A4FF" fill-rule="nonzero">
            <path d="M6,14 C5.44923505,14 4.78998609,13.8081097 4.09735744,13.4483152 C3.43810848,13.1045117 2.77885953,12.6247858 2.17802503,12.0651057 C0.792767733,10.7538549 0,9.22672758 0,7.85950885 L0,2.3586522 C0,2.11878926 0.200278164,1.91890348 0.450625869,1.91090805 L1.00139082,1.89491719 L1.00973574,1.89491719 C1.04311544,1.89491719 2.17802503,1.85494003 3.35465925,1.39920046 C4.53963839,0.919474586 5.34075104,0.375785266 5.39916551,0.33580811 L5.7162726,0.0959451742 C5.88317107,-0.0319817247 6.11682893,-0.0319817247 6.2837274,0.0959451742 L6.60083449,0.33580811 C6.65924896,0.375785266 7.46870654,0.935465448 8.64534075,1.39920046 C9.81363004,1.8709309 10.9568846,1.89491719 10.9902643,1.89491719 L10.9986092,1.89491719 L11.5493741,1.91090805 C11.7997218,1.91890348 12,2.11878926 12,2.3586522 L12,7.85950885 C12,9.21873215 11.2072323,10.7538549 9.82197497,12.0651057 C9.2294854,12.6247858 8.56189152,13.1045117 7.90264256,13.4483152 C7.21001391,13.8081097 6.55076495,14 6,14 Z M0.926286509,2.79040548 L0.926286509,7.85950885 C0.926286509,8.44317533 1.10987483,9.05882353 1.46036161,9.70645346 C1.78581363,10.2981154 2.26147427,10.8897773 2.82892907,11.4254712 C3.36300417,11.9291833 3.95549374,12.3529412 4.53963839,12.6567676 C5.09040334,12.9446031 5.6077886,13.1045117 6,13.1045117 C6.3922114,13.1045117 6.90959666,12.9446031 7.46036161,12.6567676 C8.04450626,12.3529412 8.63699583,11.9291833 9.17107093,11.4254712 C9.73852573,10.8897773 10.2058414,10.2981154 10.5396384,9.70645346 C10.8984701,9.05882353 11.0737135,8.44317533 11.0737135,7.85950885 L11.0737135,2.79040548 L10.9735744,2.79040548 C10.8484006,2.79040548 9.60500695,2.75842376 8.28650904,2.2307253 C6.9596662,1.70302684 6.07510431,1.08737864 6.04172462,1.05539692 C6.04172462,1.05539692 6.03337969,1.05539692 6.03337969,1.04740148 L5.99165508,1.01541976 L5.94993046,1.04740148 L5.94158554,1.05539692 C5.90820584,1.07938321 5.0403338,1.68703598 3.69680111,2.22272987 L3.68845619,2.22272987 C2.38664812,2.72644203 1.15159944,2.78241005 1.00973574,2.78241005 L0.926286509,2.79040548 Z M7.78581363,9.63449457 C7.71905424,9.63449457 7.65229485,9.61850371 7.58553547,9.59451742 L6,8.88292404 L4.41446453,9.59451742 C4.26425591,9.6664763 4.08066759,9.64249001 3.94714882,9.55454026 C3.81363004,9.45859509 3.73852573,9.29868646 3.7635605,9.13877784 L3.98052851,7.48372359 L2.77885953,6.25242718 C2.6620306,6.13249572 2.62030598,5.96459166 2.67872045,5.81267847 C2.72878999,5.66076528 2.86230876,5.54083381 3.02920723,5.51684752 L4.74826147,5.19703027 L5.59109875,3.73386636 C5.67454798,3.5899486 5.82475661,3.50199886 6,3.50199886 C6.17524339,3.50199886 6.32545202,3.5899486 6.40890125,3.73386636 L7.25173853,5.19703027 L8.97079277,5.51684752 C9.13769124,5.54882924 9.27121001,5.66076528 9.32127955,5.81267847 C9.3713491,5.96459166 9.3379694,6.13249572 9.22114047,6.25242718 L8.02781641,7.46773272 L8.24478442,9.12278698 C8.26147427,9.2826956 8.19471488,9.44260423 8.06119611,9.5385494 C7.96940195,9.60251285 7.87760779,9.63449457 7.78581363,9.63449457 L7.78581363,9.63449457 Z M4.03059805,6.23643632 L4.79833102,7.01998858 C4.89012517,7.11593375 4.94019471,7.24386065 4.92350487,7.37978298 L4.78998609,8.44317533 L5.80806676,7.98743575 C5.93324061,7.93146773 6.07510431,7.93146773 6.20027816,7.98743575 L7.21835883,8.44317533 L7.07649513,7.37978298 C7.05980529,7.25185608 7.1015299,7.11593375 7.20166898,7.01998858 L7.96940195,6.23643632 L6.86787204,6.03655054 C6.73435327,6.01256425 6.61752434,5.93260994 6.55076495,5.81267847 L6,4.86921759 L5.45757997,5.81267847 C5.39082058,5.92461451 5.27399166,6.01256425 5.14047288,6.03655054 L4.03059805,6.23643632 L4.03059805,6.23643632 Z" id="形状"></path>
        </g>
    </g>
</svg>