<?xml version="1.0" encoding="UTF-8"?>
<svg width="16px" height="16px" viewBox="0 0 16 16" version="1.1" xmlns="http://www.w3.org/2000/svg" xmlns:xlink="http://www.w3.org/1999/xlink">
    <title>icon/9+x_校园周边安全hover</title>
    <g id="icon/9+x_校园周边安全hover" stroke="none" stroke-width="1" fill="none" fill-rule="evenodd">
        <g id="编组" transform="translate(0.615792, 0.939563)">
            <g id="shehuishijian" transform="translate(0.384208, 0.000000)" fill="#444444" fill-rule="nonzero">
                <path d="M0.567807564,13.0604371 C0.366297181,13.057017 0.181274011,12.9527038 0.084182644,12.7885389 C-0.0165725477,12.624374 -0.0275640232,12.422588 0.0548720428,12.2498728 L1.86296976,8.4603992 C1.94906965,8.26716341 2.14874812,8.14061961 2.37407336,8.13719951 L3.4274231,8.13719951 C3.74068015,8.13719951 3.99531599,8.39199715 3.99531599,8.70322648 C3.99531599,9.01616586 3.74068015,9.27096349 3.4274231,9.27096349 L2.73496014,9.27096349 L1.46910855,11.924963 L11.9531442,11.924963 L10.8100308,9.26925344 L8.73081001,9.26925344 C8.39557,9.26925344 8.12444694,9.0144558 8.12444694,8.70322648 C8.12444694,8.3902871 8.39740192,8.13719951 8.73081001,8.13719951 L11.181909,8.13719951 C11.4072343,8.13719951 11.6124085,8.27229356 11.7021722,8.47920976 L13.3362382,12.2686833 C13.4113466,12.4413985 13.3948594,12.6397645 13.2941042,12.8005093 C13.1970129,12.957834 13.0138216,13.058727 12.817807,13.0604371 L0.567807564,13.0604371 L0.567807564,13.0604371 Z M2.37590528,8.32188505 C2.23118418,8.32530515 2.10111839,8.40738761 2.0443291,8.5339314 L2.04249719,8.53564145 L0.234399475,12.325115 C0.177610185,12.4448186 0.184937836,12.5850428 0.254550514,12.6996163 C0.316835541,12.8073495 0.435909859,12.8740415 0.565975652,12.8757515 L12.8141431,12.8757515 C12.9405451,12.8740415 13.0577875,12.8090595 13.1219045,12.7064565 C13.193349,12.5953031 13.2043405,12.456789 13.1512151,12.3370854 L11.517149,8.54761181 C11.4566959,8.41080771 11.3247982,8.32188505 11.1800771,8.32188505 L8.73081001,8.32188505 C8.50548476,8.32188505 8.3222935,8.49289017 8.3222935,8.70322648 C8.3222935,8.91356278 8.50548476,9.08456791 8.73081001,9.08456791 L9.80614269,9.08456791 L9.80614269,9.07943775 L9.9105617,9.08456791 C9.92888083,9.08456791 9.94719996,9.08627796 9.96368717,9.08627796 L10.9455923,9.08627796 L12.2480822,12.1113586 L1.16501106,12.1113586 L2.60672626,9.08627796 L3.4274231,9.08627796 C3.63076539,9.08627796 3.79563752,8.91527283 3.79563752,8.70322648 C3.79563752,8.49289017 3.63076539,8.32188505 3.4274231,8.32188505 L2.37590528,8.32188505 L2.37590528,8.32188505 Z M5.85010267,11.4855169 L4.47473194,0.953591576 L12.8183883,0 L12.8947424,0.238409572 L12.0086359,3.44060722 L12.0809465,3.76293276 L13.8802561,6.2323623 L13.6908899,6.53021853 L6.49770857,7.37793676 L7.07559434,11.1542438 L5.85010267,11.4855169 Z" id="形状"></path>
            </g>
            <g id="shehuishijian" transform="translate(0.384208, 0.000000)" fill="#36A4FF" fill-rule="nonzero">
                <path d="M0.567807564,13.0604371 C0.366297181,13.057017 0.181274011,12.9527038 0.084182644,12.7885389 C-0.0165725477,12.624374 -0.0275640232,12.422588 0.0548720428,12.2498728 L1.86296976,8.4603992 C1.94906965,8.26716341 2.14874812,8.14061961 2.37407336,8.13719951 L3.4274231,8.13719951 C3.74068015,8.13719951 3.99531599,8.39199715 3.99531599,8.70322648 C3.99531599,9.01616586 3.74068015,9.27096349 3.4274231,9.27096349 L2.73496014,9.27096349 L1.46910855,11.924963 L11.9531442,11.924963 L10.8100308,9.26925344 L8.73081001,9.26925344 C8.39557,9.26925344 8.12444694,9.0144558 8.12444694,8.70322648 C8.12444694,8.3902871 8.39740192,8.13719951 8.73081001,8.13719951 L11.181909,8.13719951 C11.4072343,8.13719951 11.6124085,8.27229356 11.7021722,8.47920976 L13.3362382,12.2686833 C13.4113466,12.4413985 13.3948594,12.6397645 13.2941042,12.8005093 C13.1970129,12.957834 13.0138216,13.058727 12.817807,13.0604371 L0.567807564,13.0604371 L0.567807564,13.0604371 Z M2.37590528,8.32188505 C2.23118418,8.32530515 2.10111839,8.40738761 2.0443291,8.5339314 L2.04249719,8.53564145 L0.234399475,12.325115 C0.177610185,12.4448186 0.184937836,12.5850428 0.254550514,12.6996163 C0.316835541,12.8073495 0.435909859,12.8740415 0.565975652,12.8757515 L12.8141431,12.8757515 C12.9405451,12.8740415 13.0577875,12.8090595 13.1219045,12.7064565 C13.193349,12.5953031 13.2043405,12.456789 13.1512151,12.3370854 L11.517149,8.54761181 C11.4566959,8.41080771 11.3247982,8.32188505 11.1800771,8.32188505 L8.73081001,8.32188505 C8.50548476,8.32188505 8.3222935,8.49289017 8.3222935,8.70322648 C8.3222935,8.91356278 8.50548476,9.08456791 8.73081001,9.08456791 L9.80614269,9.08456791 L9.80614269,9.07943775 L9.9105617,9.08456791 C9.92888083,9.08456791 9.94719996,9.08627796 9.96368717,9.08627796 L10.9455923,9.08627796 L12.2480822,12.1113586 L1.16501106,12.1113586 L2.60672626,9.08627796 L3.4274231,9.08627796 C3.63076539,9.08627796 3.79563752,8.91527283 3.79563752,8.70322648 C3.79563752,8.49289017 3.63076539,8.32188505 3.4274231,8.32188505 L2.37590528,8.32188505 L2.37590528,8.32188505 Z M5.85010267,11.4855169 L4.47473194,0.953591576 L12.8183883,0 L12.8947424,0.238409572 L12.0086359,3.44060722 L12.0809465,3.76293276 L13.8802561,6.2323623 L13.6908899,6.53021853 L6.49770857,7.37793676 L7.07559434,11.1542438 L5.85010267,11.4855169 Z" id="形状"></path>
            </g>
            <polygon id="矩形" fill="#36A4FF" points="2.38420808 8.13719951 4.3973035 8.13719951 4.3973035 9.27058631 3.11916822 9.27058631 1.85331663 11.924963 12.3373523 11.924963 11.1942389 9.27058631 8.47989302 9.27058631 8.47989302 8.13719951 11.9580448 8.13719951 14.075098 13.0604371 1.53005431 13.0604371 -2.47952069e-14 13.0604371"></polygon>
        </g>
        <polygon id="矩形" fill="#FFFFFF" points="6.86755444 2.87009786 12.5051641 2.13865251 12.0072634 4.70807547 13 6.49849835 7.4315657 7.25773431"></polygon>
    </g>
</svg>