<?xml version="1.0" encoding="UTF-8"?>
<svg width="16px" height="16px" viewBox="0 0 16 16" version="1.1" xmlns="http://www.w3.org/2000/svg" xmlns:xlink="http://www.w3.org/1999/xlink">
    <title>移动管理后台-版本管理</title>
    <g id="移动管理后台-版本管理" stroke="none" stroke-width="1" fill="none" fill-rule="evenodd">
        <path d="M12.6406551,1.09935202 C12.8521045,1.08196202 13.0644268,1.08608351 13.2751975,1.11158486 C13.4695186,1.15438785 13.6521215,1.24788401 13.8112925,1.38193135 C14.0449083,1.59544127 14.2023518,1.89612793 14.2666958,2.22873537 C14.2980267,2.45649652 14.3072909,2.68754366 14.2943262,2.91773356 L14.2943262,2.91773356 L14.2943262,6.27669578 L14.2939917,13.4661416 C14.3061833,13.6817138 14.2996006,13.8980556 14.2744536,14.1120693 C14.2208721,14.4469709 14.072558,14.753606 13.8455539,14.9758235 C13.6909941,15.1160085 13.5120638,15.2171437 13.3197754,15.2685669 C13.0864041,15.3012682 12.8508388,15.3084773 12.616206,15.2900758 L12.616206,15.2900758 L3.3241336,15.2900758 C3.08705328,15.3075373 2.84902875,15.2949618 2.61441419,15.2526646 C2.22760469,15.1389029 1.93043283,14.8031736 1.79137297,14.3825957 C1.71351263,14.06226 1.68513776,13.7287246 1.7072883,13.3969797 L1.7072883,13.3969797 L1.7072883,3.27503868 C1.7072883,2.98474755 1.70836473,2.69431584 1.71047559,2.4037348 C1.73312213,2.20122167 1.78541409,2.00445443 1.86592089,1.82204277 C1.99589762,1.56290167 2.18746281,1.35075982 2.42142505,1.21984283 L2.42142505,1.21984283 Z" id="路径" stroke="#4B4B4B" stroke-width="1.4"></path>
        <path d="M10.4993342,11.9297434 L5.4184899,11.9297434 C5.11634195,11.9216406 4.87571794,11.6744581 4.87571794,11.3722339 C4.87571794,11.0700288 5.11634195,10.8228463 5.4184899,10.8147244 L10.4993342,10.8147244 C10.8014059,10.8228463 11.0421062,11.0700288 11.0421062,11.3722339 C11.0421062,11.6744581 10.8014059,11.9216406 10.4993342,11.9297434 Z" id="路径" fill="#00A2FF"></path>
        <path d="M8.43655672,8.71314893 C8.33728335,8.8736412 8.16203449,8.97127494 7.97332547,8.97119873 C7.96848287,8.97119873 7.96327802,8.97119873 7.95813037,8.96881551 C7.95292553,8.96643234 7.94770162,8.97119873 7.94249677,8.97119873 C7.75399748,8.97081738 7.57905366,8.87333615 7.47962777,8.71314893 L5.39286604,5.37261047 C5.23142051,5.112311 5.30663338,4.77085026 5.56245249,4.60246493 C5.64965749,4.54534509 5.75154281,4.51503115 5.85573505,4.51525865 C6.04452032,4.51585096 6.21961666,4.61409481 6.31858499,4.77487305 L7.95887392,7.39769573 L9.59916286,4.77323343 C9.69835997,4.61281743 9.87345631,4.51518368 10.0621081,4.51525865 C10.1656903,4.51562218 10.2669083,4.54585985 10.353732,4.60246493 C10.6110382,4.76974447 10.6865561,5.11261605 10.5233184,5.37261047 L8.43655672,8.71314893 Z" id="路径" fill="#00A2FF"></path>
    </g>
</svg>