<?xml version="1.0" encoding="UTF-8"?>
<svg width="16px" height="16px" viewBox="0 0 16 16" version="1.1" xmlns="http://www.w3.org/2000/svg" xmlns:xlink="http://www.w3.org/1999/xlink">
    <!-- Generator: Sketch 64 (93537) - https://sketch.com -->
    <title>切片</title>
    <desc>Created with Sketch.</desc>
    <g id="考核评价" stroke="none" stroke-width="1" fill="none" fill-rule="evenodd">
        <g id="公共切图" transform="translate(-1072.000000, -712.000000)">
            <g id="Tag/keep" transform="translate(1072.000000, 710.000000)">
                <g id="icon/sign/填报">
                    <g transform="translate(0.000000, 2.000000)">
                        <g>
                            <rect id="矩形" fill="#FFFFFF" opacity="0.01" x="0" y="0" width="16" height="16"></rect>
                            <path d="M8,3 C10.7570312,3 13,5.24308036 13,8 C13,10.7569196 10.7570312,13 8,13 C5.24296875,13 3,10.7569196 3,8 C3,5.24308036 5.24296875,3 8,3 Z M9.87678571,5.05379464 L6.17533482,5.05379464 C5.94520089,5.05379464 5.75870536,5.24040179 5.75870536,5.47042411 C5.75870536,5.69665179 5.9390625,5.88069196 6.16372768,5.88683036 L6.16372768,6.51908482 C6.16372768,7.10558036 6.43638393,7.62957589 6.86149554,7.97109375 C6.43638393,8.31272321 6.16372768,8.83660714 6.16372768,9.42310268 L6.16372768,10.0553571 C5.93895089,10.0614955 5.75870536,10.2455357 5.75870536,10.4717634 C5.75870536,10.7018973 5.9453125,10.8883929 6.17533482,10.8883929 L9.87678571,10.8883929 C10.1069196,10.8883929 10.2934152,10.7017857 10.2934152,10.4717634 C10.2934152,10.2455357 10.113058,10.0614955 9.88828125,10.0553571 L9.88828125,9.42310268 C9.88828125,8.83660714 9.615625,8.31261161 9.190625,7.97109375 C9.615625,7.62957589 9.88828125,7.10558036 9.88828125,6.51908482 L9.88828125,5.88683036 C10.113058,5.88069196 10.2934152,5.69665179 10.2934152,5.47042411 C10.2934152,5.24029018 10.106808,5.05379464 9.87678571,5.05379464 Z M8.02600446,8.39430804 C8.59330357,8.39430804 9.05479911,8.85591518 9.05479911,9.42310268 L9.05479911,10.0550223 L6.99709821,10.0550223 L6.99709821,9.42310268 C6.99709821,8.85591518 7.45870536,8.39430804 8.02600446,8.39430804 Z M9.05491071,5.88716518 L9.05491071,6.51908482 C9.05491071,7.08627232 8.59341518,7.54787946 8.02611607,7.54787946 C7.45881696,7.54787946 6.99720982,7.08627232 6.99720982,6.51908482 L6.99720982,5.88716518 L9.05491071,5.88716518 Z" id="形状结合" fill="#36A4FF" fill-rule="nonzero"></path>
                        </g>
                    </g>
                </g>
            </g>
        </g>
    </g>
</svg>