<?xml version="1.0" encoding="UTF-8"?>
<svg width="199px" height="56px" viewBox="0 0 199 56" version="1.1" xmlns="http://www.w3.org/2000/svg" xmlns:xlink="http://www.w3.org/1999/xlink">
    <title>tab选择</title>
    <defs>
        <linearGradient x1="59.6178039%" y1="8.87731933%" x2="59.6178039%" y2="109.009143%" id="linearGradient-1">
            <stop stop-color="#347DA0" stop-opacity="0.895268794" offset="0%"></stop>
            <stop stop-color="#193175" stop-opacity="0.499808785" offset="100%"></stop>
        </linearGradient>
        <linearGradient x1="36.6982189%" y1="0%" x2="36.6982189%" y2="100%" id="linearGradient-2">
            <stop stop-color="#20F7FF" offset="0%"></stop>
            <stop stop-color="#0095FF" offset="100%"></stop>
        </linearGradient>
        <polygon id="path-3" points="9.33333333 1.29922739e-12 190.668919 1.29922739e-12 198.666667 7.95 198.668919 45.05 190.666667 53 9.33108063 53 1.33333333 45.05 1.33333333 37.1689403 5.33333333 35.8439403 5.33333333 17.225 1.33333333 15.9 1.33333333 7.95"></polygon>
        <filter x="-1.3%" y="-4.7%" width="102.5%" height="109.4%" filterUnits="objectBoundingBox" id="filter-4">
            <feGaussianBlur stdDeviation="2" in="SourceAlpha" result="shadowBlurInner1"></feGaussianBlur>
            <feOffset dx="0" dy="1" in="shadowBlurInner1" result="shadowOffsetInner1"></feOffset>
            <feComposite in="shadowOffsetInner1" in2="SourceAlpha" operator="arithmetic" k2="-1" k3="1" result="shadowInnerInner1"></feComposite>
            <feColorMatrix values="0 0 0 0 1   0 0 0 0 1   0 0 0 0 1  0 0 0 0.5 0" type="matrix" in="shadowInnerInner1"></feColorMatrix>
        </filter>
        <linearGradient x1="100%" y1="50%" x2="0%" y2="50%" id="linearGradient-5">
            <stop stop-color="#2FB0CD" offset="0%"></stop>
            <stop stop-color="#1CA5E3" stop-opacity="0.538488855" offset="100%"></stop>
        </linearGradient>
        <linearGradient x1="96.3336896%" y1="50%" x2="13.7344806%" y2="50%" id="linearGradient-6">
            <stop stop-color="#1CA5E3" offset="0%"></stop>
            <stop stop-color="#0892C8" stop-opacity="0" offset="100%"></stop>
        </linearGradient>
    </defs>
    <g id="页面-1" stroke="none" stroke-width="1" fill="none" fill-rule="evenodd">
        <g id="首页全备份-8" transform="translate(-1370.000000, -193.000000)">
            <g id="编组-4备份-3" transform="translate(1370.000000, 193.000000)">
                <g id="编组-54" transform="translate(0.000000, -0.000000)">
                    <g id="矩形">
                        <use fill="url(#linearGradient-1)" fill-rule="evenodd" xlink:href="#path-3"></use>
                        <use fill="black" fill-opacity="1" filter="url(#filter-4)" xlink:href="#path-3"></use>
                        <path stroke="url(#linearGradient-2)" stroke-width="1.33333333" d="M190.393945,0.666666667 L198.000017,8.22732906 L198.002236,44.7725943 L190.391803,52.3333333 L9.60605451,52.3333333 L2,44.7726877 L2,37.6503974 L6,36.3253974 L6,16.7435429 L2,15.4185429 L2,8.22736738 L9.60825229,0.666666667 L190.393945,0.666666667 Z" stroke-linejoin="square"></path>
                    </g>
                    <g id="编组-16">
                        <rect id="矩形" fill-opacity="0.504343313" fill="#2595EF" x="60" y="51.675" width="80" height="1.325"></rect>
                        <polygon id="矩形" fill="url(#linearGradient-5)" points="0 16.9909294 4 18.1950043 4 34.7495982 0 36.109772"></polygon>
                        <path d="M178.703674,1.2141399e-12 L186.703674,8.2667596 L116.22527,8.2667596 L108.148542,1.2141399e-12 L178.703674,1.2141399e-12 Z M190.668919,0 L198.940042,8.2667596 L190.668919,8.2667596 L182.592191,0 L190.668919,0 Z" id="形状" fill="url(#linearGradient-6)"></path>
                    </g>
                </g>
            </g>
        </g>
    </g>
</svg>