<?xml version="1.0" encoding="UTF-8"?>
<svg width="24px" height="24px" viewBox="0 0 24 24" version="1.1" xmlns="http://www.w3.org/2000/svg" xmlns:xlink="http://www.w3.org/1999/xlink">
    <title>编组 26</title>
    <g id="页面-1" stroke="none" stroke-width="1" fill="none" fill-rule="evenodd">
        <g id="工作台" transform="translate(-934.000000, -1344.000000)">
            <g id="预览型-双栏-转化漏斗" transform="translate(822.000000, 1024.000000)">
                <g id="编组-13备份" transform="translate(112.000000, 200.000000)">
                    <g id="编组-26" transform="translate(0.000000, 120.000000)">
                        <circle id="椭圆形备份-6" stroke="#FFFFFF" stroke-width="0.5" opacity="0.5" cx="12" cy="12" r="11.75"></circle>
                        <path d="M18.8256666,13.9283329 L17.1153333,13.9283329 C17.049012,13.9278766 16.9882445,13.9653048 16.9588112,14.0247388 C16.9293779,14.0841728 16.9364394,14.1551918 16.9769999,14.2076662 L18.8143333,16.5813328 C18.8376666,16.6119995 18.8503333,16.6493328 18.8503333,16.6876661 L18.8503333,16.8049995 C18.850245,16.8511471 18.8318281,16.8953697 18.7991342,16.9279385 C18.7664404,16.9605073 18.7221476,16.9787546 18.6759999,16.9786661 L16.3343333,16.9786661 C16.2881856,16.9785776 16.2438928,16.9968249 16.211199,17.0293937 C16.1785051,17.0619626 16.1600883,17.1061851 16.16,17.1523328 L16.16,18.8263327 C16.1596324,18.9224841 16.0814852,19.0001839 15.9853333,18.9999997 L14.9516666,18.9999997 C14.8555147,19.0001839 14.7773675,18.9224841 14.777,18.8263327 L14.777,17.1523328 C14.7769116,17.1061851 14.7584948,17.0619626 14.7258009,17.0293937 C14.6931071,16.9968249 14.6488143,16.9785776 14.6026666,16.9786661 L12.2423333,16.9786661 C12.1961856,16.9787546 12.1518929,16.9605073 12.119199,16.9279385 C12.0865051,16.8953697 12.0680883,16.8511471 12.068,16.8049995 L12.068,16.7043328 C12.068,16.6633328 12.0826666,16.6233328 12.1096666,16.5919995 L14.1436666,14.2143329 C14.1877985,14.1627408 14.1977468,14.0901333 14.1691186,14.028572 C14.1404905,13.9670107 14.0785571,13.9278307 14.0106666,13.9283329 L12.1303333,13.9283329 C12.0341814,13.9285175 11.9560342,13.8508177 11.9556666,13.7546663 L11.9556666,13.7396663 C11.9556666,13.6993329 11.97,13.6599996 11.996,13.6286663 L15.4206666,9.52466645 C15.4543037,9.48444683 15.504202,9.46142828 15.556631,9.46193631 C15.6090601,9.46246137 15.6584952,9.48645858 15.6913333,9.52733313 L18.9619999,13.6166663 C18.9866285,13.6473993 19,13.6856158 19,13.7249996 L19,13.7546663 C18.9999116,13.8008139 18.9814948,13.8450365 18.9488009,13.8776053 C18.916107,13.9101741 18.8718143,13.9284214 18.8256666,13.9283329 L18.8256666,13.9283329 Z M10.71,13.9636662 C10.681977,13.995302 10.6664517,14.0360707 10.6663333,14.0783329 L10.6663333,14.2379996 C10.6663333,14.3339996 10.7446666,14.4119996 10.841,14.4119996 L12.5973333,14.4119996 C12.6622924,14.4115908 12.7220272,14.4475378 12.7520853,14.5051257 C12.7821434,14.5627136 12.7774784,14.6322742 12.74,14.6853329 L11.0703333,17.0526661 C11.0484405,17.0834454 11.03731,17.120586 11.0386666,17.1583328 L11.0443333,17.3316661 C11.0476666,17.4249994 11.1246666,17.4993328 11.2186666,17.4993328 L14.0796666,17.4993328 C14.176,17.4993328 14.254,17.5773327 14.254,17.6729994 L14.254,18.8263327 C14.2539116,18.8724804 14.2354948,18.9167029 14.2028009,18.9492717 C14.1701071,18.9818406 14.1258143,19 14.0796666,19 L7.38433332,19 C7.28818138,19.0001839 7.21003417,18.9224841 7.20966665,18.8263327 L7.20966665,5.48866664 C7.20966665,5.21999999 7.43066665,5 7.70099999,5 L14.211,5 C14.379,5 14.5156666,5.13566666 14.5156666,5.30333332 L14.5156666,9.58899978 C14.5155482,9.63126197 14.5000229,9.67203069 14.472,9.70366645 L10.71,13.9636662 Z M13.488,6.5686666 C13.4876324,6.47251519 13.4094852,6.39481539 13.3133333,6.39499961 L8.41199998,6.39499961 C8.31584804,6.39481539 8.23770083,6.47251519 8.23733331,6.5686666 L8.23733331,7.22566657 C8.23733331,7.32166656 8.31566664,7.39933356 8.41199998,7.39933356 L13.3133333,7.39933356 C13.4094852,7.39951778 13.4876324,7.32181798 13.488,7.22566657 L13.488,6.5686666 L13.488,6.5686666 Z M13.488,8.48433317 C13.4876324,8.38818177 13.4094852,8.31048197 13.3133333,8.31066619 L8.41199998,8.31066619 C8.31584804,8.31048197 8.23770083,8.38818177 8.23733331,8.48433317 L8.23733331,9.16033315 C8.23733331,9.25599981 8.31566664,9.33400013 8.41199998,9.33400013 L13.3133333,9.33400013 C13.4094852,9.33418435 13.4876324,9.25648455 13.488,9.16033315 L13.488,8.48433317 L13.488,8.48433317 Z M6.46399999,18.9999997 L5.17466667,18.9999997 C5.07851473,19.0001839 5.00036752,18.9224841 5,18.8263327 L5,9.71633311 C5.00006947,9.65489018 5.0326617,9.59807571 5.08566666,9.56699978 L6.35566666,8.81866649 C6.40937896,8.78653135 6.47621214,8.7857211 6.53068772,8.81654463 C6.5851633,8.84736815 6.61888604,8.90507523 6.61899999,8.96766648 L6.63833333,18.8259994 C6.63833333,18.8722048 6.61995557,18.916513 6.58725211,18.9491539 C6.55454865,18.9817949 6.51020538,18.9999997 6.46399999,18.9999997 Z" id="形状" fill="#FFFFFF"></path>
                    </g>
                </g>
            </g>
        </g>
    </g>
</svg>