<?xml version="1.0" encoding="UTF-8"?><svg version="1.1" width="16px" height="16px" viewBox="0 0 16.0 16.0" xmlns="http://www.w3.org/2000/svg" xmlns:xlink="http://www.w3.org/1999/xlink"><defs><clipPath id="i0"><path d="M16,0 L16,16 L0,16 L0,0 L16,0 Z"></path></clipPath><clipPath id="i1"><path d="M12.127339,0 C13.159832,0 14,0.840167952 14,1.87266104 L14,9.84626863 C13.9997952,10.8787617 13.159832,11.7189297 12.127339,11.7189297 L1.87266104,11.7189297 C0.840167952,11.7189297 0,10.8787617 0,9.84626863 L0,1.87266104 C0,0.840167952 0.840167952,0 1.87266104,0 L12.127339,0 Z M12.127339,1.4980469 L1.87266104,1.4980469 C1.66620339,1.4980469 1.4980469,1.66599857 1.4980469,1.87266104 L1.4980469,9.84626863 C1.4980469,10.0529311 1.66620339,10.2208828 1.87266104,10.2208828 L12.127339,10.2208828 C12.3337966,10.2208828 12.5019531,10.0529311 12.5019531,9.84626863 L12.5019531,1.87266104 C12.5019531,1.66599857 12.3337966,1.4980469 12.127339,1.4980469 Z"></path></clipPath><clipPath id="i2"><path d="M4.75282724,0 C6.68427136,0 8.34330607,1.37638436 8.69764312,3.27280441 C8.773631,3.67957515 8.5055228,4.07057481 8.09895689,4.1465627 C7.69361989,4.2237795 7.30118649,3.95444238 7.2251986,3.54787646 C7.0031747,2.36033532 5.96351294,1.49825172 4.75282724,1.49825172 L1.4980469,1.49825172 L1.4980469,5.06579082 C1.4980469,5.47932059 1.16255322,5.81460945 0.749023452,5.81460945 C0.335288868,5.81460945 0,5.47911577 0,5.065586 L0,0.749023452 C0,0.335288868 0.335493687,0 0.749023452,0 L4.75282724,0 Z"></path></clipPath><clipPath id="i3"><path d="M4.84929703,0 C5.26303162,0 5.59832048,0.335493687 5.59832048,0.749023452 C5.59832048,1.16255322 5.2628268,1.4980469 4.84929703,1.4980469 L0.749023452,1.4980469 C0.335288868,1.4980469 0,1.16255322 0,0.749023452 C0,0.335493687 0.335493687,0 0.749023452,0 L4.84929703,0 Z"></path></clipPath><clipPath id="i4"><path d="M4.84929703,0 C5.26303162,0 5.59832048,0.335493687 5.59832048,0.749023452 C5.59832048,1.16255322 5.2628268,1.4980469 4.84929703,1.4980469 L0.749023452,1.4980469 C0.335288868,1.4980469 0,1.16255322 0,0.749023452 C0,0.335288868 0.335493687,0 0.749023452,0 L4.84929703,0 Z"></path></clipPath><clipPath id="i5"><path d="M1.08364312,0.0792055763 C1.4543657,0.264771682 1.60429328,0.714554427 1.41954645,1.08466254 C1.28825741,1.34744545 1.02363113,1.49880676 0.748968714,1.49880676 C0.636318209,1.49880676 0.52202915,1.47361401 0.414499122,1.41974659 C0.0445958264,1.23459012 -0.105741394,0.78439774 0.0790054353,0.414699263 C0.264161902,0.04418151 0.714149467,-0.105746072 1.08364312,0.0792055763 Z"></path></clipPath><clipPath id="i6"><path d="M1.27814806,0.219233306 C1.57165383,0.512739077 1.57165383,0.986690476 1.27896733,1.27917215 C1.13293131,1.42541299 0.941015817,1.49853341 0.749305139,1.49853341 C0.55759446,1.49853341 0.365883782,1.42541299 0.219642944,1.27917215 C-0.0730435513,0.986485657 -0.0732483705,0.51212462 0.219233306,0.219642944 C0.511714982,-0.0730435513 0.985666381,-0.0732483705 1.27814806,0.219233306 Z"></path></clipPath><clipPath id="i7"><path d="M1.08364312,0.0792055763 C1.4543657,0.264771682 1.60429328,0.714554427 1.41954645,1.08466254 C1.28825741,1.34744545 1.02363113,1.49880676 0.748968714,1.49880676 C0.636318209,1.49880676 0.52202915,1.47361401 0.414499122,1.41974659 C0.0445958264,1.23459012 -0.105741394,0.78439774 0.0790054353,0.414699263 C0.264161902,0.04418151 0.714149467,-0.105746072 1.08364312,0.0792055763 Z"></path></clipPath><clipPath id="i8"><path d="M4.84929703,0 C5.26303162,0 5.59832048,0.335493687 5.59832048,0.749023452 C5.59832048,1.16275804 5.2628268,1.4980469 4.84929703,1.4980469 L0.749023452,1.4980469 C0.335288868,1.4980469 0,1.16255322 0,0.749023452 C0,0.335288868 0.335493687,0 0.749023452,0 L4.84929703,0 Z"></path></clipPath></defs><g clip-path="url(#i0)"><polygon points="0,0 16,0 16,16 0,16 0,0" stroke="none" fill="#FFFFFF" opacity="1%"></polygon></g><g transform="translate(1.0 1.0000000000000435)"><g transform="translate(0.0 2.6608049390663755)"><g clip-path="url(#i1)"><polygon points="0,0 14,0 14,11.7189297 0,11.7189297 0,0" stroke="none" fill="#4B4B4B"></polygon></g></g><g transform="translate(0.00040963820174511056 0.0)"><g clip-path="url(#i2)"><polygon points="0,0 8.71052012,0 8.71052012,5.81460945 0,5.81460945 0,0" stroke="none" fill="#4B4B4B"></polygon></g></g><g transform="translate(5.330212280368206 10.415460916126523)"><g clip-path="url(#i3)"><polygon points="0,0 5.59832048,0 5.59832048,1.4980469 0,1.4980469 0,0" stroke="none" fill="#36A3FF"></polygon></g></g><g transform="translate(5.330212280368206 7.719222272614235)"><g clip-path="url(#i4)"><polygon points="0,0 5.59832048,0 5.59832048,1.4980469 0,1.4980469 0,0" stroke="none" fill="#36A3FF"></polygon></g></g><g transform="translate(3.4430638228014727 10.414701055474819)"><g clip-path="url(#i5)"><polygon points="-1.66533454e-16,1.66533454e-16 1.49863542,1.66533454e-16 1.49863542,1.49880676 -1.66533454e-16,1.49880676 -1.66533454e-16,1.66533454e-16" stroke="none" fill="#36A3FF"></polygon></g></g><g transform="translate(3.4431370366395226 7.7189405858618425)"><g clip-path="url(#i6)"><polygon points="-2.22044605e-16,-4.99600361e-16 1.4984822,-4.99600361e-16 1.4984822,1.49853341 -2.22044605e-16,1.49853341 -2.22044605e-16,-4.99600361e-16" stroke="none" fill="#36A3FF"></polygon></g></g><g transform="translate(3.4430638228014727 5.291970524261861)"><g clip-path="url(#i7)"><polygon points="-1.66533454e-16,5.55111512e-16 1.49863542,5.55111512e-16 1.49863542,1.49880676 -1.66533454e-16,1.49880676 -1.66533454e-16,5.55111512e-16" stroke="none" fill="#36A3FF"></polygon></g></g><g transform="translate(5.330212280368206 5.292320746711955)"><g clip-path="url(#i8)"><polygon points="0,0 5.59832048,0 5.59832048,1.4980469 0,1.4980469 0,0" stroke="none" fill="#36A3FF"></polygon></g></g></g></svg>