<?xml version="1.0" encoding="UTF-8"?>
<svg width="283px" height="40px" viewBox="0 0 283 40" version="1.1" xmlns="http://www.w3.org/2000/svg" xmlns:xlink="http://www.w3.org/1999/xlink">
    <title>内页导航logo组</title>
    <defs>
        <linearGradient x1="50%" y1="0%" x2="50%" y2="99.4754276%" id="linearGradient-1">
            <stop stop-color="#EEEEEE" offset="0%"></stop>
            <stop stop-color="#FFFFFF" offset="100%"></stop>
        </linearGradient>
        <path d="M71.456,29.572 L71.932,26.24 L67.956,26.24 L68.992,19.072 L72.352,19.072 L72.856,15.46 L69.496,15.46 L70.28,10 L63.756,10 L64.708,11.82 L64.176,15.46 L60.704,15.46 L60.2,19.072 L63.672,19.072 L62.664,26.24 L58.66,26.24 L58.184,29.572 L71.456,29.572 Z M58.324,12.884 L57.596,10.056 L52.584,10.056 L53.2,10.728 L53.816,12.884 L58.324,12.884 Z M54.992,30.132 L55.804,24.336 L57.96,27.052 L58.576,22.768 L56.392,20.052 L56.42,19.856 L58.66,16.804 L59.136,13.5 L50.708,13.5 L50.372,15.992 L54.824,15.992 L49,23.58 L51.716,23.58 L50.792,30.132 L54.992,30.132 Z M93.548,19.296 L93.688,18.232 L98.476,18.232 L93.268,10 L81.312,10 L81.928,10.756 L75.068,18.232 L79.856,18.232 L79.716,19.296 L93.548,19.296 Z M92.148,16.636 L81.844,16.636 L85.484,12.66 L89.628,12.66 L92.148,16.636 Z M96.012,30.16 L93.296,24.896 L88.508,24.896 L89.516,26.884 L82.628,27.248 L87.108,23.3 L97.244,23.3 L97.608,20.64 L75.264,20.64 L74.9,23.3 L81.284,23.3 L76.44,27.556 L76.048,30.16 L90.86,29.46 L91.224,30.16 L96.012,30.16 Z M124.628,19.632 L124.376,12.352 L120.12,12.352 L120.232,16.076 L115.584,16.216 L118.944,10.084 L112.112,10.084 L112.784,10.84 L109.62,16.748 L109.284,19.128 L120.344,18.736 L120.372,19.632 L124.628,19.632 Z M108.752,15.32 L108.332,10.532 L103.544,10.532 L103.936,15.32 L108.752,15.32 Z M107.94,21.172 L107.52,16.384 L102.732,16.384 L103.124,21.172 L107.94,21.172 Z M123.116,30.076 L124.46,20.444 L109.06,20.444 L107.716,30.076 L123.116,30.076 Z M105.084,30.16 L107.772,22.236 L102.956,22.236 L100.268,30.16 L105.084,30.16 Z M118.636,27.528 L112.896,27.528 L113.512,23.16 L119.252,23.16 L118.636,27.528 Z M148.68,29.656 L149.044,26.996 L143.36,26.996 L143.584,25.4 L148.652,25.4 L149.044,22.74 L143.948,22.74 L144.172,21.116 L149.324,21.116 L150.808,10.504 L136.752,10.504 L135.268,21.116 L139.916,21.116 L139.692,22.74 L134.988,22.74 L134.596,25.4 L139.328,25.4 L139.104,26.996 L133.84,26.996 L133.476,29.656 L148.68,29.656 Z M125.58,29.656 L133.308,28.284 L133.672,25.568 L132.048,25.876 L132.776,20.584 L134.456,20.584 L134.876,17.756 L133.168,17.756 L133.84,12.996 L135.464,12.996 L135.8,10.504 L128.408,10.504 L128.072,12.996 L129.416,12.996 L128.744,17.756 L127.316,17.756 L126.896,20.584 L128.352,20.584 L127.484,26.716 L125.944,26.996 L125.58,29.656 Z M140.868,14.536 L139.272,14.536 L139.496,13.024 L141.064,13.024 L140.868,14.536 Z M146.664,14.536 L145.124,14.536 L145.32,13.024 L146.888,13.024 L146.664,14.536 Z M146.132,18.568 L144.536,18.568 L144.76,17.056 L146.328,17.056 L146.132,18.568 Z M140.28,18.568 L138.74,18.568 L138.936,17.056 L140.504,17.056 L140.28,18.568 Z M175.14,20.668 L175.532,17.812 L152.796,17.812 L152.404,20.668 L175.14,20.668 Z M194.04,30.16 L194.6,26.24 L196.112,26.24 L195.972,29.684 L199.416,29.684 L200.088,15.6 L196.616,15.6 L196.252,23.58 L194.964,23.58 L196.224,14.788 L201.264,14.788 L201.628,12.128 L196.588,12.128 L196.896,10 L190.764,10 L191.66,11.064 L191.492,12.128 L186.452,12.128 L186.088,14.788 L191.128,14.788 L189.896,23.58 L188.636,23.58 L190.512,15.6 L187.04,15.6 L183.736,29.684 L187.208,29.684 L188.02,26.24 L189.504,26.24 L188.972,30.16 L194.04,30.16 Z M182.868,30.16 L185.248,13.248 L185.332,12.66 L185.696,10.056 L178.864,11.4 L178.416,14.592 L180.04,14.284 L177.8,30.16 L182.868,30.16 Z M225.26,29.684 L225.848,25.428 L224.644,26.492 L219.324,26.492 L220.36,19.072 L226.52,16.916 L227.052,13.192 L220.892,15.376 L221.648,10 L215.264,10 L216.16,11.064 L215.264,17.336 L211.932,18.512 L211.4,22.236 L214.76,21.06 L213.556,29.684 L225.26,29.684 Z M209.216,30.16 L211.624,13.192 L212.072,10 L204.456,11.092 L204.008,14.256 L206.192,13.948 L203.896,30.16 L209.216,30.16 Z M242.536,30.16 L243.572,22.768 L252.616,22.768 L252.98,20.108 L243.936,20.108 L244.888,13.192 L252.896,13.192 L253.26,10.532 L231.98,10.532 L231.616,13.192 L239.568,13.192 L238.616,20.108 L229.572,20.108 L229.208,22.768 L238.252,22.768 L237.216,30.16 L242.536,30.16 Z M249.956,19.044 L251.692,14.256 L246.904,14.256 L245.168,19.044 L249.956,19.044 Z M237.72,19.044 L237.328,14.256 L232.54,14.256 L232.932,19.044 L237.72,19.044 Z M278.18,19.044 L276.192,11.092 L271.656,11.092 L272.888,16.048 L263.676,16.048 L267.876,10.028 L260.96,10.028 L261.632,10.672 L257.6,16.608 L257.32,18.624 L273.532,18.624 L273.644,19.044 L278.18,19.044 Z M276.416,29.6 L277.76,20.108 L257.18,20.108 L255.836,29.6 L276.416,29.6 Z M271.516,26.94 L261.436,26.94 L262.024,22.74 L272.104,22.74 L271.516,26.94 Z" id="path-2"></path>
        <filter x="-2.8%" y="-27.3%" width="105.7%" height="164.5%" filterUnits="objectBoundingBox" id="filter-3">
            <feOffset dx="0" dy="1" in="SourceAlpha" result="shadowOffsetOuter1"></feOffset>
            <feGaussianBlur stdDeviation="2" in="shadowOffsetOuter1" result="shadowBlurOuter1"></feGaussianBlur>
            <feColorMatrix values="0 0 0 0 0.014608455   0 0 0 0 0.275908158   0 0 0 0 0.492074275  0 0 0 1 0" type="matrix" in="shadowBlurOuter1"></feColorMatrix>
        </filter>
        <linearGradient x1="100%" y1="50%" x2="-2.19815463%" y2="50%" id="linearGradient-4">
            <stop stop-color="#6699CC" offset="0%"></stop>
            <stop stop-color="#FFFFFF" offset="100%"></stop>
        </linearGradient>
        <linearGradient x1="48.9009227%" y1="0.210224873%" x2="48.9009227%" y2="101.099077%" id="linearGradient-5">
            <stop stop-color="#E6F2FF" offset="0%"></stop>
            <stop stop-color="#8FADCC" offset="100%"></stop>
        </linearGradient>
        <linearGradient x1="100%" y1="50%" x2="-2.19815463%" y2="50%" id="linearGradient-6">
            <stop stop-color="#6699CC" offset="0%"></stop>
            <stop stop-color="#FFFFFF" offset="100%"></stop>
        </linearGradient>
    </defs>
    <g id="页面-1" stroke="none" stroke-width="1" fill="none" fill-rule="evenodd">
        <g id="首页-导航收起-栅格" transform="translate(-32.000000, -16.000000)">
            <g id="内页导航logo组" transform="translate(31.999145, 16.001493)">
                <g id="社会治理一体化平台" fill-rule="nonzero">
                    <use fill="black" fill-opacity="1" filter="url(#filter-3)" xlink:href="#path-2"></use>
                    <use fill="#FFFFFF" xlink:href="#path-2"></use>
                    <use fill="url(#linearGradient-1)" xlink:href="#path-2"></use>
                </g>
                <g id="编组">
                    <path d="M20.883998,23.3042224 L41.3018557,23.131746 C41.2982175,27.5479694 37.7215434,31.1284256 33.3053263,31.136731 L13.0133268,31.1748936 L13.0133268,31.1748936 L20.883998,23.3042224 Z" id="矩形" fill="url(#linearGradient-4)" transform="translate(27.157591, 27.153320) rotate(-45.000000) translate(-27.157591, -27.153320) "></path>
                    <polygon id="矩形" fill="url(#linearGradient-5)" transform="translate(19.999768, 20.004520) rotate(-45.000000) translate(-19.999768, -20.004520) " points="17.4450876 17.4498393 22.5586611 17.4456267 22.5544485 22.5592002 17.440875 22.5634128"></polygon>
                    <path d="M6.63313252,8.89681027 L26.9407236,8.79241783 C26.9370881,13.2055314 23.3572957,16.7804852 18.9441813,16.7781519 L-1.23753865,16.7674814 L-1.23753865,16.7674814 L6.63313252,8.89681027 Z" id="矩形备份-2" fill="url(#linearGradient-6)" transform="translate(12.851592, 12.787397) rotate(-225.000000) translate(-12.851592, -12.787397) "></path>
                    <path d="M29.4960068,13.3164604 L37.2302867,13.3100888 L37.2081588,21.3773261 C37.195977,25.8184997 33.5995176,29.4161755 29.1583484,29.4298593 L17.0841092,29.4670616 L17.0841092,29.4670616 C22.1025291,28.0713767 25.2935256,26.9257077 26.6570988,26.0300544 C28.020672,25.1344011 28.8291563,23.6103242 29.0825518,21.4578238 L29.4960068,13.3164604 Z" id="矩形" fill="#FFFFFF" transform="translate(27.157198, 21.388575) rotate(-45.000000) translate(-27.157198, -21.388575) "></path>
                    <path d="M15.0772587,10.5398194 L22.8115385,10.5334478 L22.7894922,18.5709622 C22.7772784,23.0237799 19.1626742,26.6262686 14.7098406,26.6235322 L2.75294088,26.6161846 L2.75294088,26.6161846 C7.71297421,25.2699904 10.8747775,24.1490667 12.2383506,23.2534134 C13.6019238,22.3577601 14.4104081,20.8336832 14.6638036,18.6811828 L15.0772587,10.5398194 Z" id="矩形备份" fill="#FFFFFF" transform="translate(12.782240, 18.580966) rotate(-225.000000) translate(-12.782240, -18.580966) "></path>
                </g>
            </g>
        </g>
    </g>
</svg>