<?xml version="1.0" encoding="UTF-8"?>
<svg width="32px" height="32px" viewBox="0 0 32 32" version="1.1" xmlns="http://www.w3.org/2000/svg" xmlns:xlink="http://www.w3.org/1999/xlink">
    <title>切片</title>
    <g id="3.4" stroke="none" stroke-width="1" fill="none" fill-rule="evenodd">
        <g id="2-9-2事件管理-重复事件过滤详情" transform="translate(-1968.000000, -210.000000)">
            <g id="弹窗备份-4" transform="translate(1940.000000, 149.000000)">
                <g id="icon/告警" transform="translate(28.000000, 61.000000)">
                    <rect id="矩形" fill-opacity="0.01" fill="#FFFFFF" x="0" y="0" width="32" height="32"></rect>
                    <path d="M16.7698816,6.17835663 C17.0563461,6.3196675 17.2908883,6.53660131 17.4436693,6.80155921 L27.8071662,24.7742765 C28.2324493,25.5118164 27.9307843,26.4285875 27.1333785,26.8219421 C26.8963869,26.9388484 26.6319259,27 26.3633354,27 L5.63634161,27 C4.7326151,27 4,26.3223866 4,25.486508 C4,25.2380822 4.06611526,24.9934758 4.19251078,24.7742765 L14.5560077,6.80155921 C14.9812907,6.06401932 15.9724759,5.78500202 16.7698816,6.17835663 Z M17.3184211,21.6947368 L14.6342105,21.6947368 L14.6342105,24.2 L17.3184211,24.2 L17.3184211,21.6947368 Z M17.4526316,12.3 L14.5,12.3 L14.6342105,19.8157895 L17.3184211,19.8157895 L17.4526316,12.3 Z" id="形状结合" fill="#FECC55" fill-rule="nonzero"></path>
                </g>
            </g>
        </g>
    </g>
</svg>