<?xml version="1.0" encoding="UTF-8"?><svg version="1.1" width="26px" height="26px" viewBox="0 0 26.0 26.0" xmlns="http://www.w3.org/2000/svg" xmlns:xlink="http://www.w3.org/1999/xlink"><defs><clipPath id="i0"><path d="M1920,0 L1920,1927 L0,1927 L0,0 L1920,0 Z"></path></clipPath><clipPath id="i1"><path d="M12.5,0 C19.4035594,0 25,5.59644063 25,12.5 C25,19.4035594 19.4035594,25 12.5,25 C5.59644063,25 0,19.4035594 0,12.5 C0,5.59644063 5.59644063,0 12.5,0 Z M19.9,5.5 L5.5,5.5 L5.5,20.4333333 L16.4333333,20.4333333 L19.9,16.9666667 L19.9,5.5 Z M18.4333333,7.1 L18.4333333,16.3 L15.9,18.8333333 L7.1,18.8333333 L7.1,7.1 L18.4333333,7.1 Z M13.7,15.3666667 L11.0746294,15.3666667 L11.0746294,16.9666667 L13.7,16.9666667 L13.7,15.3666667 Z M10.2595848,15.3666667 L8.7,15.3666667 L8.7,16.9666667 L10.2595848,16.9666667 L10.2595848,15.3666667 Z M16.7,12.1577156 L11.0746294,12.1577156 L11.0746294,13.7577156 L16.7,13.7577156 L16.7,12.1577156 Z M10.2595848,12.1577156 L8.7,12.1577156 L8.7,13.7577156 L10.2595848,13.7577156 L10.2595848,12.1577156 Z M16.7,8.96666667 L11.0746294,8.96666667 L11.0746294,10.5666667 L16.7,10.5666667 L16.7,8.96666667 Z M10.2595848,8.96666667 L8.7,8.96666667 L8.7,10.5666667 L10.2595848,10.5666667 L10.2595848,8.96666667 Z"></path></clipPath></defs><g transform="translate(-295.0 -188.0)"><g clip-path="url(#i0)"><g transform="translate(295.5 188.5)"><g clip-path="url(#i1)"><polygon points="0,0 25,0 25,25 0,25 0,0" stroke="none" fill="#00A4FF"></polygon></g></g></g></g></svg>