<?xml version="1.0" encoding="UTF-8"?><svg version="1.1" width="16px" height="16px" viewBox="0 0 16.0 16.0" xmlns="http://www.w3.org/2000/svg" xmlns:xlink="http://www.w3.org/1999/xlink"><defs><clipPath id="i0"><path d="M1920,0 L1920,1927 L0,1927 L0,0 L1920,0 Z"></path></clipPath><clipPath id="i1"><path d="M3,0 L3,11 L0,11 L0,0 L3,0 Z"></path></clipPath><clipPath id="i2"><path d="M3,0 L3,7 L0,7 L0,0 L3,0 Z"></path></clipPath><clipPath id="i3"><path d="M3,0 L3,14 L0,14 L0,0 L3,0 Z"></path></clipPath></defs><g transform="translate(-1013.0 -425.0)"><g clip-path="url(#i0)"><g transform="translate(296.0 324.0)"><g transform="translate(32.0 65.0)"><g transform="translate(616.0 0.0)"><g transform="translate(69.0 32.0)"><g transform="translate(0.0 4.0)"><g transform="translate(1.0 4.0)"><g clip-path="url(#i1)"><polygon points="0,0 3,0 3,11 0,11 0,0" stroke="none" fill="#FFB53C"></polygon></g></g><g transform="translate(6.0 8.0)"><g clip-path="url(#i2)"><polygon points="0,0 3,0 3,7 0,7 0,0" stroke="none" fill="#FFB53C"></polygon></g></g><g transform="translate(11.0 1.0)"><g clip-path="url(#i3)"><polygon points="0,0 3,0 3,14 0,14 0,0" stroke="none" fill="#FFB53C"></polygon></g></g></g></g></g></g></g></g></g></svg>