<?xml version="1.0" encoding="UTF-8"?>
<svg width="422px" height="102px" viewBox="0 0 422 102" version="1.1" xmlns="http://www.w3.org/2000/svg" xmlns:xlink="http://www.w3.org/1999/xlink">
    <title>登录logo组</title>
    <defs>
        <path d="M93.08,37.96 L93.76,33.2 L88.08,33.2 L89.56,22.96 L94.36,22.96 L95.08,17.8 L90.28,17.8 L91.4,10 L82.08,10 L83.44,12.6 L82.68,17.8 L77.72,17.8 L77,22.96 L81.96,22.96 L80.52,33.2 L74.8,33.2 L74.12,37.96 L93.08,37.96 Z M74.32,14.12 L73.28,10.08 L66.12,10.08 L67,11.04 L67.88,14.12 L74.32,14.12 Z M69.56,38.76 L70.72,30.48 L73.8,34.36 L74.68,28.24 L71.56,24.36 L71.6,24.08 L74.8,19.72 L75.48,15 L63.44,15 L62.96,18.56 L69.32,18.56 L61,29.4 L64.88,29.4 L63.56,38.76 L69.56,38.76 Z M124.64,23.28 L124.84,21.76 L131.68,21.76 L124.24,10 L107.16,10 L108.04,11.08 L98.24,21.76 L105.08,21.76 L104.88,23.28 L124.64,23.28 Z M122.64,19.48 L107.92,19.48 L113.12,13.8 L119.04,13.8 L122.64,19.48 Z M128.16,38.8 L124.28,31.28 L117.44,31.28 L118.88,34.12 L109.04,34.64 L115.44,29 L129.92,29 L130.44,25.2 L98.52,25.2 L98,29 L107.12,29 L100.2,35.08 L99.64,38.8 L120.8,37.8 L121.32,38.8 L128.16,38.8 Z M169.04,23.76 L168.68,13.36 L162.6,13.36 L162.76,18.68 L156.12,18.88 L160.92,10.12 L151.16,10.12 L152.12,11.2 L147.6,19.64 L147.12,23.04 L162.92,22.48 L162.96,23.76 L169.04,23.76 Z M146.36,17.6 L145.76,10.76 L138.92,10.76 L139.48,17.6 L146.36,17.6 Z M145.2,25.96 L144.6,19.12 L137.76,19.12 L138.32,25.96 L145.2,25.96 Z M166.88,38.68 L168.8,24.92 L146.8,24.92 L144.88,38.68 L166.88,38.68 Z M141.12,38.8 L144.96,27.48 L138.08,27.48 L134.24,38.8 L141.12,38.8 Z M160.48,35.04 L152.28,35.04 L153.16,28.8 L161.36,28.8 L160.48,35.04 Z M203.4,38.08 L203.92,34.28 L195.8,34.28 L196.12,32 L203.36,32 L203.92,28.2 L196.64,28.2 L196.96,25.88 L204.32,25.88 L206.44,10.72 L186.36,10.72 L184.24,25.88 L190.88,25.88 L190.56,28.2 L183.84,28.2 L183.28,32 L190.04,32 L189.72,34.28 L182.2,34.28 L181.68,38.08 L203.4,38.08 Z M170.4,38.08 L181.44,36.12 L181.96,32.24 L179.64,32.68 L180.68,25.12 L183.08,25.12 L183.68,21.08 L181.24,21.08 L182.2,14.28 L184.52,14.28 L185,10.72 L174.44,10.72 L173.96,14.28 L175.88,14.28 L174.92,21.08 L172.88,21.08 L172.28,25.12 L174.36,25.12 L173.12,33.88 L170.92,34.28 L170.4,38.08 Z M192.24,16.48 L189.96,16.48 L190.28,14.32 L192.52,14.32 L192.24,16.48 Z M200.52,16.48 L198.32,16.48 L198.6,14.32 L200.84,14.32 L200.52,16.48 Z M199.76,22.24 L197.48,22.24 L197.8,20.08 L200.04,20.08 L199.76,22.24 Z M191.4,22.24 L189.2,22.24 L189.48,20.08 L191.72,20.08 L191.4,22.24 Z M241.2,25.24 L241.76,21.16 L209.28,21.16 L208.72,25.24 L241.2,25.24 Z M268.2,38.8 L269,33.2 L271.16,33.2 L270.96,38.12 L275.88,38.12 L276.84,18 L271.88,18 L271.36,29.4 L269.52,29.4 L271.32,16.84 L278.52,16.84 L279.04,13.04 L271.84,13.04 L272.28,10 L263.52,10 L264.8,11.52 L264.56,13.04 L257.36,13.04 L256.84,16.84 L264.04,16.84 L262.28,29.4 L260.48,29.4 L263.16,18 L258.2,18 L253.48,38.12 L258.44,38.12 L259.6,33.2 L261.72,33.2 L260.96,38.8 L268.2,38.8 Z M252.24,38.8 L255.64,14.64 L255.76,13.8 L256.28,10.08 L246.52,12 L245.88,16.56 L248.2,16.12 L245,38.8 L252.24,38.8 Z M312.8,38.12 L313.64,32.04 L311.92,33.56 L304.32,33.56 L305.8,22.96 L314.6,19.88 L315.36,14.56 L306.56,17.68 L307.64,10 L298.52,10 L299.8,11.52 L298.52,20.48 L293.76,22.16 L293,27.48 L297.8,25.8 L296.08,38.12 L312.8,38.12 Z M289.88,38.8 L293.32,14.56 L293.96,10 L283.08,11.56 L282.44,16.08 L285.56,15.64 L282.28,38.8 L289.88,38.8 Z M337.48,38.8 L338.96,28.24 L351.88,28.24 L352.4,24.44 L339.48,24.44 L340.84,14.56 L352.28,14.56 L352.8,10.76 L322.4,10.76 L321.88,14.56 L333.24,14.56 L331.88,24.44 L318.96,24.44 L318.44,28.24 L331.36,28.24 L329.88,38.8 L337.48,38.8 Z M348.08,22.92 L350.56,16.08 L343.72,16.08 L341.24,22.92 L348.08,22.92 Z M330.6,22.92 L330.04,16.08 L323.2,16.08 L323.76,22.92 L330.6,22.92 Z M388.4,22.92 L385.56,11.56 L379.08,11.56 L380.84,18.64 L367.68,18.64 L373.68,10.04 L363.8,10.04 L364.76,10.96 L359,19.44 L358.6,22.32 L381.76,22.32 L381.92,22.92 L388.4,22.92 Z M385.88,38 L387.8,24.44 L358.4,24.44 L356.48,38 L385.88,38 Z M378.88,34.2 L364.48,34.2 L365.32,28.2 L379.72,28.2 L378.88,34.2 Z" id="path-1"></path>
        <filter x="-16.9%" y="-164.7%" width="131.5%" height="455.5%" filterUnits="objectBoundingBox" id="filter-2">
            <feMorphology radius="5" operator="dilate" in="SourceAlpha" result="shadowSpreadOuter1"></feMorphology>
            <feOffset dx="0" dy="0" in="shadowSpreadOuter1" result="shadowOffsetOuter1"></feOffset>
            <feGaussianBlur stdDeviation="10" in="shadowOffsetOuter1" result="shadowBlurOuter1"></feGaussianBlur>
            <feColorMatrix values="0 0 0 0 0.158649789   0 0 0 0 0.283544304   0 0 0 0 0.8  0 0 0 0.2 0" type="matrix" in="shadowBlurOuter1"></feColorMatrix>
        </filter>
        <filter x="-13.1%" y="-121.3%" width="123.9%" height="368.7%" filterUnits="objectBoundingBox" id="filter-3">
            <feGaussianBlur stdDeviation="1" in="SourceAlpha" result="shadowBlurInner1"></feGaussianBlur>
            <feOffset dx="3" dy="3" in="shadowBlurInner1" result="shadowOffsetInner1"></feOffset>
            <feComposite in="shadowOffsetInner1" in2="SourceAlpha" operator="arithmetic" k2="-1" k3="1" result="shadowInnerInner1"></feComposite>
            <feColorMatrix values="0 0 0 0 1   0 0 0 0 1   0 0 0 0 1  0 0 0 0.15 0" type="matrix" in="shadowInnerInner1"></feColorMatrix>
        </filter>
        <linearGradient x1="100%" y1="50%" x2="-7.10542736e-13%" y2="50.6986212%" id="linearGradient-4">
            <stop stop-color="#004783" offset="0%"></stop>
            <stop stop-color="#0795DE" offset="100%"></stop>
        </linearGradient>
        <linearGradient x1="50%" y1="0%" x2="50%" y2="100%" id="linearGradient-5">
            <stop stop-color="#DFB241" offset="0%"></stop>
            <stop stop-color="#CF7913" offset="100%"></stop>
        </linearGradient>
        <linearGradient x1="100%" y1="50%" x2="-2.19815463%" y2="50%" id="linearGradient-6">
            <stop stop-color="#097ECB" offset="0%"></stop>
            <stop stop-color="#35B1DA" offset="100%"></stop>
        </linearGradient>
        <linearGradient x1="50%" y1="0%" x2="50%" y2="100%" id="linearGradient-7">
            <stop stop-color="#005DB3" offset="2.28365385%"></stop>
            <stop stop-color="#138BD0" offset="100%"></stop>
        </linearGradient>
        <linearGradient x1="50%" y1="0%" x2="50%" y2="100%" id="linearGradient-8">
            <stop stop-color="#2BACD7" offset="0%"></stop>
            <stop stop-color="#95E9FF" offset="100%"></stop>
        </linearGradient>
    </defs>
    <g id="页面-1" stroke="none" stroke-width="1" fill="none" fill-rule="evenodd">
        <g id="登录" transform="translate(-1206.000000, -247.000000)">
            <g id="登录logo组" transform="translate(1206.000000, 270.000000)">
                <g id="社会治理一体化平台" fill-rule="nonzero">
                    <use fill="black" fill-opacity="1" filter="url(#filter-2)" xlink:href="#path-1"></use>
                    <use fill="#FFFFFF" xlink:href="#path-1"></use>
                    <use fill="#202020" xlink:href="#path-1"></use>
                    <use fill="black" fill-opacity="1" filter="url(#filter-3)" xlink:href="#path-1"></use>
                </g>
                <g id="编组">
                    <path d="M26.1039292,29.132144 L51.6262513,28.9165486 C51.6217036,34.4368278 47.1508609,38.9123981 41.6305896,38.9227799 L16.2655902,38.970483 L16.2655902,38.970483 L26.1039292,29.132144 Z" id="矩形" fill="url(#linearGradient-4)" transform="translate(33.945921, 33.943516) rotate(-45.000000) translate(-33.945921, -33.943516) "></path>
                    <polygon id="矩形" fill="url(#linearGradient-5)" transform="translate(24.998642, 25.007516) rotate(-45.000000) translate(-24.998642, -25.007516) " points="21.8052912 21.8141652 28.197258 21.8088994 28.1919923 28.2008663 21.8000254 28.206132"></polygon>
                    <path d="M8.29034734,11.1228789 L33.6748362,10.9923883 C33.6702918,16.5087804 29.1955514,20.9774726 23.6791583,20.974556 L-1.54799163,20.9612179 L-1.54799163,20.9612179 L8.29034734,11.1228789 Z" id="矩形备份-2" fill="url(#linearGradient-6)" transform="translate(16.063422, 15.986112) rotate(-225.000000) translate(-16.063422, -15.986112) "></path>
                    <path d="M36.8689402,16.6474416 L46.5367901,16.6394771 L46.5091302,26.7235237 C46.4939029,32.2749907 41.9983287,36.7720854 36.4468672,36.7891902 L21.3540682,36.835693 L21.3540682,36.835693 C27.6270931,35.091087 31.6158387,33.6590007 33.3203052,32.539434 C35.0247716,31.4198674 36.035377,29.5147714 36.3521214,26.8241458 L36.8689402,16.6474416 Z" id="矩形" fill="url(#linearGradient-7)" transform="translate(33.945429, 26.737585) rotate(-45.000000) translate(-33.945429, -26.737585) "></path>
                    <path d="M18.845505,13.1766403 L28.5133549,13.1686759 L28.4857969,23.2155688 C28.4705297,28.7815909 23.9522745,33.2847017 18.3862325,33.2812814 L3.44010778,33.2720969 L3.44010778,33.2720969 C9.64014945,31.5893541 13.5924035,30.1881994 15.29687,29.0686328 C17.0013364,27.9490662 18.0119418,26.0439701 18.3286862,23.3533446 L18.845505,13.1766403 Z" id="矩形备份" fill="url(#linearGradient-8)" transform="translate(15.976731, 23.228073) rotate(-225.000000) translate(-15.976731, -23.228073) "></path>
                </g>
            </g>
        </g>
    </g>
</svg>