<?xml version="1.0" encoding="UTF-8"?><svg version="1.1" width="16px" height="16px" viewBox="0 0 16.0 16.0" xmlns="http://www.w3.org/2000/svg" xmlns:xlink="http://www.w3.org/1999/xlink"><defs><clipPath id="i0"><path d="M16,0 L16,16 L0,16 L0,0 L16,0 Z"></path></clipPath><clipPath id="i1"><path d="M6.75264744e-05,0 L10,0.01875 L10,1.55625 C9.99793817,2.95336444 8.86771993,4.08543479 7.47289122,4.0875 L2.52724574,4.0875 C1.85375884,4.0875 1.20812562,3.8182617 0.733659,3.33949724 C0.259192376,2.86073277 -0.00485183686,2.21207204 6.75264744e-05,1.5375 L6.75264744e-05,0 Z M4.27128223,1.19564448 C3.97575859,1.49165241 3.88735325,1.93682436 4.0472895,2.32357735 C4.20722574,2.71033035 4.58400686,2.9625 5.00194041,2.9625 C5.57176721,2.96044319 6.03319366,2.49826058 6.03524711,1.9275 C6.03524711,1.50888158 5.78349002,1.13148302 5.39736977,0.971284684 C5.01124951,0.811086349 4.56680588,0.899636556 4.27128223,1.19564448 Z"></path></clipPath><clipPath id="i2"><path d="M7.47275426,0 C8.86758297,0.0020652132 9.99780121,1.13413556 9.99986304,2.53125 L9.99986304,9.7875 L0,9.7875 L0,2.53125 C0,1.13327923 1.13142514,0 2.52710878,0 L7.47275426,0 Z M6.97818291,1 L3.02168009,1 C1.90513701,1 1,1.90662027 1,3.02499306 L1,8.82997315 L8.999863,8.82997315 L8.999863,3.02499306 C8.99821354,1.90730534 8.09404205,1.00165216 6.97818291,1 Z"></path></clipPath></defs><g clip-path="url(#i0)"><polygon points="0,0 16,0 16,16 0,16 0,0" stroke="none" fill="#FFFFFF" opacity="1%"></polygon></g><g transform="translate(2.9999999999999547 0.5)"><g transform="translate(0.0 10.912500000000023)"><g clip-path="url(#i1)"><polygon points="-4.50750548e-14,0 10,0 10,4.0875 -4.50750548e-14,4.0875 -4.50750548e-14,0" stroke="none" fill="#36A3FF"></polygon></g></g><g clip-path="url(#i2)"><polygon points="0,0 9.99986304,0 9.99986304,9.7875 0,9.7875 0,0" stroke="none" fill="#36A3FF"></polygon></g></g></svg>