<?xml version="1.0" encoding="UTF-8"?><svg version="1.1" width="16px" height="16px" viewBox="0 0 16.0 16.0" xmlns="http://www.w3.org/2000/svg" xmlns:xlink="http://www.w3.org/1999/xlink"><defs><clipPath id="i0"><path d="M16,0 L16,16 L0,16 L0,0 L16,0 Z"></path></clipPath><clipPath id="i1"><path d="M6.75264744e-05,0 L10,0.01875 L10,1.55625 C9.99793817,2.95336444 8.86771993,4.08543479 7.47289122,4.0875 L2.52724574,4.0875 C1.85375884,4.0875 1.20812562,3.8182617 0.733659,3.33949724 C0.259192376,2.86073277 -0.00485183686,2.21207204 6.75264744e-05,1.5375 L6.75264744e-05,0 Z"></path></clipPath><clipPath id="i2"><path d="M1.42876626,0.0788149369 C1.81488651,0.239013272 2.06664361,0.61641183 2.06664361,1.03503025 C2.06459016,1.60579084 1.6031637,2.06797344 1.03333691,2.07003025 C0.615403357,2.07003025 0.238622237,1.8178606 0.0786859927,1.43110761 C-0.081250252,1.04435461 0.00715508343,0.59918266 0.302678729,0.303174734 C0.598202375,0.0071668086 1.04264601,-0.0813833982 1.42876626,0.0788149369 Z"></path></clipPath><clipPath id="i3"><path d="M7.47275426,0 C8.86758297,0.0020652132 9.99780121,1.13413556 9.99986304,2.53125 L9.99986304,9.7875 L0,9.7875 L0,2.53125 C0,1.13327923 1.13142514,0 2.52710878,0 L7.47275426,0 Z M6.97818291,1 L3.02168009,1 C1.90513701,1 1,1.90662027 1,3.02499306 L1,8.82997315 L8.999863,8.82997315 L8.999863,3.02499306 C8.99821354,1.90730534 8.09404205,1.00165216 6.97818291,1 Z"></path></clipPath></defs><g clip-path="url(#i0)"><polygon points="0,0 16,0 16,16 0,16 0,0" stroke="none" fill="#FFFFFF" opacity="1%"></polygon></g><g transform="translate(3.0 0.4999999999999858)"><g transform="translate(0.0 10.912500000000023)"><g clip-path="url(#i1)"><polygon points="-4.50896915e-14,0 10,0 10,4.0875 -4.50896915e-14,4.0875 -4.50896915e-14,0" stroke="none" fill="#4B4B4B"></polygon></g></g><g transform="translate(3.9686035047616315 11.804969746975644)"><g clip-path="url(#i2)"><polygon points="-2.22044605e-16,1.66533454e-16 2.06664361,1.66533454e-16 2.06664361,2.07003025 -2.22044605e-16,2.07003025 -2.22044605e-16,1.66533454e-16" stroke="none" fill="#36A3FF"></polygon></g></g><g clip-path="url(#i3)"><polygon points="0,0 9.99986304,0 9.99986304,9.7875 0,9.7875 0,0" stroke="none" fill="#4B4B4B"></polygon></g></g></svg>