<?xml version="1.0" encoding="UTF-8"?>
<svg width="280px" height="60px" viewBox="0 0 280 60" version="1.1" xmlns="http://www.w3.org/2000/svg" xmlns:xlink="http://www.w3.org/1999/xlink">
    <title>返回首页</title>
    <defs>
        <linearGradient x1="100%" y1="50%" x2="0%" y2="50%" id="linearGradient-1">
            <stop stop-color="#36A4FF" stop-opacity="0" offset="0%"></stop>
            <stop stop-color="#36A4FF" offset="100%"></stop>
        </linearGradient>
    </defs>
    <g id="页面-1" stroke="none" stroke-width="1" fill="none" fill-rule="evenodd">
        <g id="首页全备份-8" transform="translate(-80.000000, -174.000000)">
            <g id="返回首页" transform="translate(80.000000, 174.000000)">
                <path d="M13.3885084,0 L280,0 L280,0 L280,60 L0,60 L9.44293266,3.34240405 C9.7643913,1.41365217 11.4331517,5.6882637e-15 13.3885084,0 Z" id="矩形备份-3" fill="url(#linearGradient-1)"></path>
                <g id="编组-5" transform="translate(31.000000, 10.000000)">
                    <text id="返回首页" font-family="PingFangSC-Semibold, PingFang SC" font-size="28" font-weight="500" fill="#FFFFFF">
                        <tspan x="50" y="30">返回首页</tspan>
                    </text>
                    <path d="M8,17 L20,9 L32,17 L29,17 L29,28 C29,29.1045695 28.1045695,30 27,30 L23,30 L23,30 L23,23 C23,21.8954305 22.1045695,21 21,21 L19,21 C17.8954305,21 17,21.8954305 17,23 L17,30 L17,30 L13,30 C11.8954305,30 11,29.1045695 11,28 L11,17 L11,17 L8,17 Z" id="矩形" stroke="#FFFFFF" stroke-width="2.5" stroke-linejoin="round"></path>
                    <circle id="椭圆形" stroke="#FFFFFF" stroke-width="2" cx="20" cy="20" r="20"></circle>
                </g>
            </g>
        </g>
    </g>
</svg>