<?xml version="1.0" encoding="UTF-8"?>
<svg width="16px" height="16px" viewBox="0 0 16 16" version="1.1" xmlns="http://www.w3.org/2000/svg" xmlns:xlink="http://www.w3.org/1999/xlink">
    <!-- Generator: Sketch 63.1 (92452) - https://sketch.com -->
    <title>组件库</title>
    <desc>Created with Sketch.</desc>
    <g id="监测预警" stroke="none" stroke-width="1" fill="none" fill-rule="evenodd">
        <g id="图标样式汇总" transform="translate(-602.000000, -841.000000)" fill-rule="nonzero">
            <g id="组件库备份-2" transform="translate(602.000000, 841.000000)">
                <rect id="矩形" fill="#000000" opacity="0" x="0" y="0" width="16" height="16"></rect>
                <path d="M2.39488757,5.74962963 C2.30488757,5.69777778 2.20488757,5.67703704 2.11488757,5.67703704 C1.79488757,5.67703704 1.49488757,5.96740741 1.49488757,6.37185185 L1.49488757,11.2355556 C1.49488757,11.7437037 1.74488757,12.2 2.15488757,12.4281481 L6.59488757,14.917037 C6.68488757,14.9688889 6.78488757,15 6.87488757,15 C7.19488757,15 7.49488757,14.6992593 7.49488757,14.2948148 L7.49488757,9.43111111 C7.49488757,8.93333333 7.24488757,8.46666667 6.83488757,8.23851852 L2.39488757,5.74962963 Z M6.49488757,13.682963 L2.62488757,11.5155556 C2.56488757,11.4740741 2.49488757,11.3807407 2.49488757,11.2355556 L2.49488757,6.9837037 L6.36488757,9.15111111 C6.44488757,9.20296296 6.49488757,9.31703704 6.49488757,9.43111111 L6.49488757,13.682963 Z M13.5948876,5.74962963 L9.15488757,8.24888889 C8.74488757,8.47703704 8.49488757,8.9437037 8.49488757,9.45185185 L8.49488757,14.2948148 C8.49488757,14.6992593 8.79488757,15 9.11488757,15 C9.20488757,15 9.30488757,14.9792593 9.39488757,14.9274074 L13.8348876,12.4281481 C14.2348876,12.2 14.4948876,11.7437037 14.4948876,11.2355556 L14.4948876,6.37185185 C14.4948876,5.96740741 14.1948876,5.67703704 13.8748876,5.67703704 C13.7848876,5.67703704 13.6848876,5.69777778 13.5948876,5.74962963 Z M13.4948876,11.2251852 C13.4948876,11.3703704 13.4248876,11.4740741 13.3648876,11.5051852 L9.49488757,13.682963 L9.49488757,9.45185185 C9.49488757,9.30666667 9.56488757,9.20296296 9.62488757,9.17185185 L13.4948876,6.9837037 L13.4948876,11.2251852 Z M13.1848876,4.60888889 C13.3948876,4.49481481 13.4948876,4.29777778 13.4748876,4.11111111 C13.4948876,3.91407407 13.3948876,3.72740741 13.1848876,3.61333333 L8.66488757,1.16592593 C8.46488757,1.05185185 8.23488757,1 7.99488757,1 C7.75488757,1 7.52488757,1.05185185 7.31488757,1.16592593 L2.78488757,3.60296296 C2.57488757,3.71703704 2.48488757,3.91407407 2.49488757,4.11111111 C2.48488757,4.29777778 2.57488757,4.49481481 2.78488757,4.60888889 L7.30488757,7.04592593 C7.50488757,7.16 7.74488757,7.21185185 7.98488757,7.21185185 L8.00488757,7.21185185 C8.24488757,7.21185185 8.47488757,7.16 8.68488757,7.04592593 L13.1848876,4.60888889 Z M7.76488757,6.12296296 L4.02488757,4.11111111 L7.76488757,2.08888889 C7.82488757,2.05777778 7.90488757,2.03703704 7.99488757,2.03703704 C8.07488757,2.03703704 8.15488757,2.05777778 8.21488757,2.08888889 L11.9548876,4.11111111 L8.20488757,6.12296296 C8.15488757,6.15407407 8.07488757,6.17481481 7.98488757,6.17481481 C7.90488757,6.17481481 7.82488757,6.15407407 7.76488757,6.12296296 Z" id="形状" fill="#5C658D"></path>
            </g>
        </g>
    </g>
</svg>