<?xml version="1.0" encoding="UTF-8"?>
<svg width="16px" height="16px" viewBox="0 0 16 16" version="1.1" xmlns="http://www.w3.org/2000/svg" xmlns:xlink="http://www.w3.org/1999/xlink">
    <title>交通枢纽</title>
    <defs>
        <linearGradient x1="53.8304822%" y1="103.830482%" x2="53.8304822%" y2="-3.83048222%" id="linearGradient-1">
            <stop stop-color="#46F368" offset="0%"></stop>
            <stop stop-color="#C7FFD2" offset="100%"></stop>
        </linearGradient>
        <linearGradient x1="50%" y1="0%" x2="50%" y2="100%" id="linearGradient-2">
            <stop stop-color="#FFFFFF" offset="0%"></stop>
            <stop stop-color="#FFFFFF" stop-opacity="0" offset="100%"></stop>
        </linearGradient>
    </defs>
    <g id="页面-2备份" stroke="none" stroke-width="1" fill="none" fill-rule="evenodd">
        <g id="平时" transform="translate(-534.000000, -286.000000)">
            <g id="交通枢纽" transform="translate(534.000000, 286.000000)">
                <rect id="矩形" x="0" y="0" width="16" height="16"></rect>
                <path d="M14.6120415,6.44781932 L12.1184211,6.44781932 L12.1184211,4.83956387 C13.4828549,4.83956387 14.6120415,3.73676013 14.6120415,2.4042056 L12.1184211,2.4042056 C12.1184211,1.48520249 11.36563,0.75 10.4246411,0.75 L5.43740032,0.75 C4.49641149,0.75 3.74362043,1.48520249 3.74362041,2.4042056 L1.25,2.4042056 C1.25,3.73676011 2.37918661,4.83956385 3.74362041,4.83956387 L3.74362041,6.49376947 L1.25,6.49376947 C1.25,7.82632398 2.37918661,8.92912772 3.74362041,8.92912772 L3.74362041,10.5833333 L1.25,10.5833333 C1.25,11.9158878 2.37918661,13.0186916 3.74362041,13.0186916 L3.74362041,13.8457944 C3.74362041,14.7647975 4.49641147,15.5 5.43740032,15.5 L10.4716906,15.5 C11.4126794,15.5 12.1654705,14.7647975 12.1654705,13.8457944 L12.1654705,13.0186916 C13.5299043,13.0186916 14.6590909,11.9158878 14.6590909,10.5833333 L12.1654705,10.5833333 L12.1654705,8.92912772 C13.4828549,8.92912772 14.6120415,7.82632398 14.6120415,6.44781932 Z M7.93102073,13.7998442 C6.9900319,13.7998442 6.23724084,13.0646417 6.23724084,12.1456386 C6.23724084,11.2266355 6.9900319,10.491433 7.93102073,10.491433 C8.87200957,10.491433 9.62480063,11.2266355 9.62480063,12.1456386 C9.62480063,13.0646418 8.87200957,13.7998442 7.93102073,13.7998442 Z M7.93102073,9.75623053 C6.9900319,9.75623053 6.23724084,9.02102804 6.23724084,8.10202492 C6.23724084,7.18302179 6.9900319,6.44781932 7.93102073,6.44781932 C8.87200957,6.44781932 9.62480063,7.1830218 9.62480063,8.10202492 C9.62480063,9.02102803 8.87200957,9.75623053 7.93102073,9.75623053 Z M7.93102073,5.66666666 C6.9900319,5.66666666 6.23724084,4.93146418 6.23724084,4.01246106 C6.23724084,3.09345795 6.9900319,2.4042056 7.93102073,2.4042056 C8.87200957,2.4042056 9.62480063,3.13940809 9.62480063,4.05841122 C9.62480063,4.97741434 8.87200957,5.66666666 7.93102073,5.66666666 L7.93102073,5.66666666 Z" id="形状" stroke="url(#linearGradient-2)" stroke-width="0.5" fill="url(#linearGradient-1)" fill-rule="nonzero"></path>
            </g>
        </g>
    </g>
</svg>