<?xml version="1.0" encoding="UTF-8"?>
<svg width="16px" height="16px" viewBox="0 0 16 16" version="1.1" xmlns="http://www.w3.org/2000/svg" xmlns:xlink="http://www.w3.org/1999/xlink">
    <title>人员密集场所</title>
    <defs>
        <linearGradient x1="53.8304822%" y1="103.830482%" x2="53.8304822%" y2="-3.83048222%" id="linearGradient-1">
            <stop stop-color="#C360FD" offset="0%"></stop>
            <stop stop-color="#E9D5FF" offset="100%"></stop>
        </linearGradient>
        <linearGradient x1="50%" y1="0%" x2="50%" y2="100%" id="linearGradient-2">
            <stop stop-color="#FFFFFF" offset="0%"></stop>
            <stop stop-color="#FFFFFF" stop-opacity="0" offset="100%"></stop>
        </linearGradient>
    </defs>
    <g id="页面-2备份" stroke="none" stroke-width="1" fill="none" fill-rule="evenodd">
        <g id="平时" transform="translate(-534.000000, -314.000000)">
            <g id="人员密集场所" transform="translate(534.000000, 314.000000)">
                <rect id="矩形" x="0" y="0" width="16" height="16"></rect>
                <path d="M15.5,8.74065362 C15.5,8.0855945 14.7529277,7.44925135 13.7481946,7.10804472 C13.7481946,7.10804472 13.4156826,6.9611963 13.591295,6.39827736 C14.1123743,5.83103934 14.4074607,5.09391787 14.4204157,4.32368351 C14.4895091,3.38932445 13.7884991,2.57589938 12.8542988,2.50679423 C11.9200986,2.4376891 11.1068118,3.13881831 11.0377184,4.07317737 C11.0319606,4.15667941 11.0319606,4.24018146 11.0377184,4.32368351 C11.0506734,5.09391787 11.3457597,5.83103936 11.8668391,6.39827736 C12.0510881,6.89641022 11.7200156,7.07061277 11.6552406,7.09940658 C11.4220504,7.18434832 11.1974968,7.28944571 10.9830194,7.41325909 L10.9830194,6.97127414 C10.9830194,6.31621501 10.1538987,5.67987186 9.13908949,5.33866522 C9.13908949,5.33866522 8.80657753,5.1918168 8.9821899,4.62889787 C9.5018298,4.06741862 9.79979505,3.3374956 9.82138675,2.57301999 C9.89048014,1.63722123 9.1894701,0.823796164 8.25526984,0.754691031 C7.32106959,0.685585898 6.50778276,1.3881548 6.43868937,2.32251387 C6.43293159,2.40601591 6.43293159,2.48951795 6.43868937,2.57301999 C6.45164438,3.34325435 6.74673075,4.08037583 7.2678101,4.64761384 C7.45205914,5.1457467 7.12098663,5.31994925 7.05621158,5.34874306 C6.13496634,5.69858783 5.30440618,6.34500881 5.30440617,6.98135196 L5.30440617,7.44205289 C5.08129208,7.31248075 4.84666243,7.20162459 4.60339612,7.1094844 C4.53862107,7.1094844 4.20754855,6.89784992 4.39179761,6.40835519 C4.91287695,5.84111718 5.20796332,5.10399571 5.22091832,4.33376133 C5.31736118,3.41667855 4.65377671,2.59605504 3.73684981,2.49815609 C3.66343808,2.49095764 3.58858689,2.48807825 3.51517518,2.48951795 C2.59392994,2.46936229 1.83102372,3.19928532 1.81087148,4.12068715 C1.80943203,4.19123198 1.81231093,4.2632165 1.81950816,4.33376133 C1.83390262,5.10399569 2.12898898,5.84111718 2.64862887,6.40835519 C2.83287791,6.97127414 2.53779155,7.09940658 2.49172929,7.11812255 C1.49563287,7.45069103 0.75,8.10431046 0.75,8.74065362 L0.75,11.7927972 C0.75,13.4340443 2.59392992,14.834863 5.14750659,15.481284 L5.14750659,14.5598822 C5.14750659,13.8126829 6.06875184,13.1302696 6.99143652,12.789063 C7.05621157,12.7588295 7.10803162,12.7070006 7.13825998,12.6422146 C7.18000391,12.5356775 7.18000391,12.4176229 7.13825998,12.3096461 C6.60422563,11.719373 6.30050258,10.9577768 6.28035035,10.161628 C6.28035035,9.14376693 7.10515274,8.31738465 8.12284084,8.31738464 C9.14052894,8.31738462 9.96677076,9.14232724 9.96677076,10.1601883 L9.96677076,10.161628 C9.9523763,10.9548974 9.65441105,11.7164937 9.12757393,12.3096461 C9.02681274,12.6422146 9.12757393,12.7804249 9.20098566,12.807779 C10.1222309,13.1115536 11.126964,13.7291808 11.126964,14.5785981 L11.126964,15.5 C13.6531912,14.8550187 15.4956817,13.4441221 15.4956817,11.7942369 L15.4956817,8.74065362 L15.5,8.74065362 Z" id="路径" stroke="url(#linearGradient-2)" stroke-width="0.5" fill="url(#linearGradient-1)" fill-rule="nonzero"></path>
            </g>
        </g>
    </g>
</svg>