<?xml version="1.0" encoding="UTF-8"?>
<svg width="16px" height="16px" viewBox="0 0 16 16" version="1.1" xmlns="http://www.w3.org/2000/svg" xmlns:xlink="http://www.w3.org/1999/xlink">
    <title>地质隐患点</title>
    <defs>
        <linearGradient x1="53.8304822%" y1="103.830482%" x2="53.8304822%" y2="-3.83048222%" id="linearGradient-1">
            <stop stop-color="#44EF66" offset="0%"></stop>
            <stop stop-color="#99F0AB" offset="100%"></stop>
        </linearGradient>
    </defs>
    <g id="页面-2备份" stroke="none" stroke-width="1" fill="none" fill-rule="evenodd">
        <g id="平时" transform="translate(-534.000000, -484.000000)">
            <g id="地质隐患点" transform="translate(534.000000, 484.000000)">
                <rect id="矩形" x="0" y="0" width="16" height="16"></rect>
                <path d="M8.08393431,1.36765217 C8.23903032,1.06817391 8.56381962,0.839913043 8.95977061,1.14304348 L11.0599531,3.2393913 C11.311756,3.51330435 11.3938657,4.01182609 11.0617777,4.39347826 L9.52176557,5.94017391 L9.51081762,5.94017391 L9.51081762,3.50052174 L6.70814145,3.50052174 L6.70814145,6.03695652 L5.02215657,4.32043478 C4.70284125,3.91869565 4.8342167,3.47678261 5.11338952,3.19008696 L7.11321574,1.21426087 C7.42705709,0.929391304 7.84125467,0.918434783 8.08393431,1.36765217 Z M14.6326353,8.02921739 C14.9318794,7.874 15.1599618,7.54895652 14.8570684,7.15269565 L12.7623599,5.05086957 C12.488661,4.79886957 11.9905292,4.71669565 11.6091754,5.04904348 L9.99617691,6.68704348 L12.5324529,6.68704348 L12.5324529,9.51565217 L10.0764619,9.51565217 L11.6803371,11.0933913 C12.0817621,11.4129565 12.5233296,11.2814783 12.809801,11.002087 L14.784082,9.00069565 C15.0705535,8.68843478 15.0796768,8.27391304 14.6326353,8.02921739 L14.6326353,8.02921739 Z M1.36736467,7.92330435 C1.0681206,7.76808696 0.840038231,7.44304348 1.14293162,7.04678261 L3.23764011,4.94495652 C3.51133895,4.69295652 4.00947085,4.61078261 4.39082457,4.94313043 L5.92901208,6.47704348 L3.51316361,6.47704348 L3.51316361,9.30565217 L6.03119298,9.30565217 L4.31966287,10.9874783 C3.9182379,11.3070435 3.47667043,11.1755652 3.19019897,10.8961739 L1.21591798,8.89295652 C0.92944652,8.58252174 0.920323225,8.168 1.36736467,7.92330435 Z M7.96715614,14.6323478 C8.12225215,14.9318261 8.44704145,15.160087 8.84299244,14.8569565 L10.9431749,12.7606087 C11.1949778,12.4866957 11.2770875,11.9881739 10.9449996,11.6065217 L9.29550786,9.99408696 L9.29550786,12.515913 L6.50742897,12.515913 L6.50742897,10.0506957 L4.9053784,11.6795652 C4.58606308,12.0813043 4.71743853,12.5232174 4.99661135,12.809913 L6.99826223,14.7857391 C7.30845425,15.0724348 7.7244765,15.0815652 7.96715614,14.6323478 Z" id="形状" fill="url(#linearGradient-1)" fill-rule="nonzero"></path>
            </g>
        </g>
    </g>
</svg>