<?xml version="1.0" encoding="UTF-8"?>
<svg width="16px" height="16px" viewBox="0 0 16 16" version="1.1" xmlns="http://www.w3.org/2000/svg" xmlns:xlink="http://www.w3.org/1999/xlink">
    <title>重大危险源备份 2</title>
    <defs>
        <linearGradient x1="53.8304822%" y1="103.830482%" x2="53.8304822%" y2="-3.83048222%" id="linearGradient-1">
            <stop stop-color="#FFC326" offset="0%"></stop>
            <stop stop-color="#FFE9AE" offset="100%"></stop>
        </linearGradient>
    </defs>
    <g id="页面-2备份" stroke="none" stroke-width="1" fill="none" fill-rule="evenodd">
        <g id="平时" transform="translate(-534.000000, -707.000000)">
            <g id="重大危险源备份-2" transform="translate(534.000000, 707.000000)">
                <rect id="矩形" x="0" y="0" width="16" height="16"></rect>
                <path d="M2.86144385,7.69269357 C3.43543416,8.26988691 4.24446824,8.69172925 5.28910544,8.9567069 L5.28910544,9.16378247 C5.28910544,9.42011435 5.38803607,9.63548114 5.58636347,9.80932371 C5.78470641,9.98362993 6.03005188,10.0799197 6.3223222,10.0982068 C6.62508069,10.1166847 6.84929444,10.0707967 6.99552283,9.96078821 C7.22494182,10.1070571 7.48097746,10.1803279 7.76305483,10.1803279 C8.02387618,10.1803279 8.26424948,10.11198 8.48330461,9.97450688 C8.62951746,10.0749832 8.84338289,10.116671 9.12546026,10.0982068 C9.41776165,10.0707967 9.66316928,9.97220225 9.86143452,9.80283257 C10.0597775,9.63245376 10.1587392,9.42023709 10.1587392,9.16383702 L10.1587392,9.01275435 C11.2859921,8.75604064 12.1578775,8.32559345 12.7742866,7.71998091 C13.3693154,7.14323758 13.6666667,6.46083594 13.6666667,5.67250324 C13.6666667,5.49811519 13.6458612,5.3150132 13.6037998,5.12235177 C13.3952328,3.95050992 12.7791189,2.98320719 11.7562816,2.22284367 C10.6808946,1.40782366 9.37057266,1 7.82550217,1 C6.28008984,1 4.96996987,1.40320076 3.89508013,2.20877044 C2.87177664,2.97917068 2.26106996,3.95044174 2.06294455,5.12228359 C2.02085203,5.31499956 2,5.49811519 2,5.6724896 C2,6.44212618 2.28695631,7.11509112 2.86142831,7.69270721 L2.86144385,7.69269357 Z M8.9338544,4.41976466 C9.23526909,4.12913646 9.60050044,3.98360656 10.0292291,3.98360656 C10.4687384,3.98360656 10.8390483,4.12913646 11.1405846,4.41976466 C11.4415583,4.71008658 11.5925926,5.06216785 11.5925926,5.47504786 C11.5925926,5.88817846 11.4415583,6.24035719 11.1405846,6.53116639 C10.8390939,6.82236541 10.4687384,6.96721311 10.0292291,6.96721311 C9.60050044,6.96721311 9.23526909,6.82235149 8.9338392,6.53113855 C8.63213561,6.24032935 8.48148148,5.88816454 8.48148148,5.47502001 C8.48148148,5.06216785 8.6321052,4.71012834 8.9338392,4.41976466 L8.9338544,4.41976466 Z M7.41435208,7.20918649 C7.56689996,7.04810117 7.71671874,6.96721311 7.86454558,6.96721311 C8.01204304,6.96721311 8.15147865,7.05633965 8.28332294,7.23550101 C8.41491627,7.4139204 8.48148148,7.5835896 8.48148148,7.74544247 C8.48148148,7.99199563 8.28082909,8.1147541 7.88021444,8.1147541 C7.61687092,8.1147541 7.42186497,8.05936183 7.29544754,7.94929369 C7.22147922,7.88055867 7.18518519,7.79596073 7.18518519,7.69369612 C7.18526361,7.53236774 7.26144344,7.37103937 7.41433639,7.20918649 L7.41435208,7.20918649 Z M4.27237877,4.41976466 C4.5774214,4.12913646 4.94348164,3.98360656 5.3701056,3.98360656 C5.79682034,3.98360656 6.16289571,4.12913646 6.46830145,4.41976466 C6.77316253,4.71008658 6.92592593,5.06216785 6.92592593,5.47504786 C6.92592593,5.88817846 6.77323818,6.24035719 6.46830145,6.53116639 C6.16286545,6.82236541 5.79682034,6.96721311 5.3701056,6.96721311 C4.94346652,6.96721311 4.5774214,6.82235149 4.27237877,6.53113855 C3.96751769,6.24035719 3.81481481,5.88817846 3.81481481,5.47504786 C3.81481481,5.06216785 3.96751769,4.71012834 4.27237877,4.41976466 Z M12.0796644,14.0819672 L12.1109392,14.0214388 C10.6421943,13.0253363 11.0426704,12.4332446 13.1197752,12.6446647 L13.1481481,12.615917 C10.3387974,12.0734828 6.22232619,10.7087339 3.71337849,9.49180328 L3.68595746,9.53177085 C5.32271366,10.5837983 4.95423394,11.2192934 2.80037787,10.99868 L2.77777778,11.0293468 C5.53498868,11.5543741 9.56110556,12.8836514 12.0796798,14.0819672 L12.0796644,14.0819672 Z M11.7706077,14.7492822 C12.6462815,14.9123513 12.3581283,14.0951212 12.614102,13.6660073 C12.8715069,13.2206319 13.8394099,12.8944525 13.6397426,12.2968078 C13.4490717,11.7356895 13.046324,12.166248 12.667074,12.3082954 C12.2601898,12.4634813 11.8694426,12.3445605 11.0744064,12.2138906 C10.5304367,12.1221961 9.95570305,13.3452484 10.5439471,13.5803386 C11.6422512,14.0132221 11.3458565,14.6692817 11.7706077,14.7492822 Z M3.88844607,9.05451713 C3.01533678,8.88950347 3.29725088,9.70469398 3.04787652,10.1346492 C2.79090471,10.5793502 1.82198665,10.9071635 2.0287021,11.5068868 C2.22002866,12.0668717 2.62637938,11.6374983 2.99889718,11.4967393 C3.39983269,11.3423698 3.79784237,11.4581647 4.59415271,11.5917282 C5.13486524,11.6802171 5.71146362,10.4598937 5.12267698,10.2284602 C4.0182979,9.79006056 4.31282054,9.13295788 3.88844607,9.05451713 L3.88844607,9.05451713 Z M12.8888889,11.1263697 L12.8587407,11.0660034 C10.9174026,11.1661578 10.6917422,10.5231318 12.3906986,9.52795132 L12.3862852,9.49180328 C9.86422237,10.6549307 5.67047625,11.9530719 2.77777778,12.4696794 L2.79272753,12.5133068 C4.90547498,12.3603186 5.19233297,13.0166428 3.42941273,14.0476126 L3.43974701,14.0819672 C5.90859994,12.935127 10.0054369,11.6616026 12.8888889,11.1263697 Z M13.1068174,11.9834085 C13.8670549,11.6054974 12.9674736,11.1695539 12.7841567,10.70922 C12.5880834,10.2361302 12.9976054,9.44675002 12.3476029,9.12169877 C11.7350326,8.81827649 11.8153685,9.3630797 11.6670347,9.68281833 C11.5102381,10.0279146 11.1317158,10.1626786 10.4563401,10.5185683 C9.99227402,10.7603697 10.6245446,11.9844318 11.2420284,11.8226982 C12.3897161,11.5162481 12.7373006,12.1660983 13.1068174,11.9834085 L13.1068174,11.9834085 Z M2.56109248,12.2769167 C1.80150441,12.6250606 2.69241963,13.0290736 2.87976355,13.4518389 C3.07421313,13.8886014 2.66425193,14.6212181 3.31921481,14.9187953 C3.92958414,15.1975535 3.85414631,14.6924604 3.99928647,14.4008134 C4.15306175,14.0849783 4.53367628,13.9537799 5.21215474,13.6248022 C5.67096333,13.3999231 5.04609592,12.2690766 4.43203037,12.422393 C3.27654902,12.7070145 2.92877026,12.1065178 2.56109248,12.2769167 L2.56109248,12.2769167 Z" id="形状" fill="url(#linearGradient-1)" fill-rule="nonzero"></path>
            </g>
        </g>
    </g>
</svg>