<?xml version="1.0" encoding="UTF-8"?>
<svg width="16px" height="16px" viewBox="0 0 16 16" version="1.1" xmlns="http://www.w3.org/2000/svg" xmlns:xlink="http://www.w3.org/1999/xlink">
    <title>企业</title>
    <defs>
        <linearGradient x1="53.8304822%" y1="103.830482%" x2="53.8304822%" y2="-3.83048222%" id="linearGradient-1">
            <stop stop-color="#E13337" offset="0%"></stop>
            <stop stop-color="#FFC8C8" offset="100%"></stop>
        </linearGradient>
        <linearGradient x1="50%" y1="0%" x2="50%" y2="100%" id="linearGradient-2">
            <stop stop-color="#FFFFFF" offset="0%"></stop>
            <stop stop-color="#FFFFFF" stop-opacity="0" offset="100%"></stop>
        </linearGradient>
    </defs>
    <g id="页面-2备份" stroke="none" stroke-width="1" fill="none" fill-rule="evenodd">
        <g id="平时" transform="translate(-534.000000, -622.000000)">
            <g id="企业" transform="translate(534.000000, 622.000000)">
                <rect id="矩形" x="0" y="0" width="16" height="16"></rect>
                <path d="M7.58536999,3.625 C10.5531837,3.625 12.9590721,5.97550506 12.9590721,8.875 L12.9590721,13.25 C13.4537077,13.25 13.8546891,13.6417508 13.8546891,14.125 C13.8546891,14.6082492 13.4537077,15 12.9590721,15 L2.21166791,15 C1.71703229,15 1.3160509,14.6082492 1.3160509,14.125 C1.3160509,13.6417508 1.71703229,13.25 2.21166791,13.25 L2.21166791,8.875 C2.21166791,5.97550506 4.61755628,3.625 7.58536999,3.625 Z M7.564622,6.72054158 L7.53747414,6.75789302 L5.80661707,10.3045021 C5.77358546,10.3744232 5.80936971,10.4533084 5.87573881,10.4776612 L5.9189246,10.4852211 L7.39543816,10.481994 L7.39874131,12.6764382 C7.39874131,12.7922113 7.53277745,12.8388029 7.60611798,12.7686507 L7.63326585,12.7312993 L9.36412291,9.18469018 C9.39715452,9.11476916 9.36137028,9.03588391 9.29500118,9.01153108 L9.25181538,9.00397124 L7.77530182,9.00719836 L7.77199867,6.81275415 C7.77199867,6.69698106 7.63796254,6.65038945 7.564622,6.72054158 Z M2.10349704,3.98241404 L2.44653826,4.26363362 C2.73072291,4.49660354 2.76779068,4.9105369 2.52933144,5.18817965 C2.29087221,5.4658224 1.86718563,5.50203687 1.58300098,5.26906695 L1.23995976,4.98784737 C0.95577511,4.75487744 0.918707337,4.34094408 1.15716657,4.06330133 C1.39562581,3.78565859 1.81931239,3.74944411 2.10349704,3.98241404 Z M14.046512,4.06330133 C14.2632931,4.31570383 14.2523659,4.6807432 14.0350755,4.92006178 L13.9637188,4.98784737 L13.6206776,5.26906695 C13.3364929,5.50203687 12.9128063,5.4658224 12.6743471,5.18817965 C12.457566,4.93577715 12.4684931,4.57073778 12.6857836,4.33141921 L12.7571403,4.26363362 L13.1001815,3.98241404 C13.3843662,3.74944411 13.8080527,3.78565859 14.046512,4.06330133 Z M4.75201874,2.05247472 L4.94127079,2.44898438 C5.09805232,2.77746373 4.95258945,3.16791966 4.61637036,3.3210921 C4.28015128,3.47426454 3.88049531,3.3321502 3.72371378,3.00367085 L3.53446173,2.60716119 C3.37768019,2.27868183 3.52314307,1.88822591 3.85936215,1.73505347 C4.19558124,1.58188103 4.5952372,1.72399537 4.75201874,2.05247472 Z M11.3693226,1.73505347 C11.6775235,1.87546154 11.8254361,2.21525365 11.7271862,2.52392335 L11.6942231,2.60716119 L11.504971,3.00367085 C11.3481895,3.3321502 10.9485335,3.47426454 10.6123144,3.3210921 C10.3041136,3.18068403 10.156201,2.84089192 10.2544509,2.53222221 L10.287414,2.44898438 L10.4766661,2.05247472 C10.6334476,1.72399537 11.0331036,1.58188103 11.3693226,1.73505347 Z M7.58536999,1 C7.9563467,1 8.25708275,1.29381313 8.25708275,1.65625 L8.25708275,2.09375 C8.25708275,2.45618687 7.9563467,2.75 7.58536999,2.75 C7.21439328,2.75 6.91365723,2.45618687 6.91365723,2.09375 L6.91365723,1.65625 C6.91365723,1.29381313 7.21439328,1 7.58536999,1 Z" id="形状结合" stroke="url(#linearGradient-2)" stroke-width="0.5" fill="url(#linearGradient-1)" fill-rule="nonzero"></path>
            </g>
        </g>
    </g>
</svg>