<?xml version="1.0" encoding="UTF-8"?>
<svg width="17px" height="17px" viewBox="0 0 17 17" version="1.1" xmlns="http://www.w3.org/2000/svg" xmlns:xlink="http://www.w3.org/1999/xlink">
    <title>编组 49</title>
    <defs>
        <linearGradient x1="53.8304822%" y1="103.830482%" x2="53.8304822%" y2="-3.83048222%" id="linearGradient-1">
            <stop stop-color="#61E09A" offset="0%"></stop>
            <stop stop-color="#C7F6DC" offset="100%"></stop>
        </linearGradient>
        <linearGradient x1="50%" y1="0%" x2="50%" y2="100%" id="linearGradient-2">
            <stop stop-color="#FFFFFF" offset="0%"></stop>
            <stop stop-color="#FFFFFF" stop-opacity="0" offset="100%"></stop>
        </linearGradient>
    </defs>
    <g id="页面-2备份" stroke="none" stroke-width="1" fill="none" fill-rule="evenodd">
        <g id="平时" transform="translate(-534.000000, -258.000000)">
            <g id="编组-49" transform="translate(534.000000, 258.000000)">
                <rect id="矩形" x="0" y="0" width="16" height="16"></rect>
                <path d="M2.51127049,15.75 C4.88900273,14.8895833 6.82342896,13.9677083 8.31454918,12.984375 C9.88627049,14.0086806 11.8609973,14.8895833 14.2387295,15.6270833 C14.641735,14.8486111 15.1454918,14.0496528 15.75,13.2302083 C13.5737705,12.7795139 11.7602459,12.1034722 10.3094262,11.2020833 C11.6796448,9.85 12.7073087,7.96527778 13.392418,5.54791667 L13.392418,5.54791667 L15.5686475,5.54791667 L15.5686475,3.2125 L9.94672131,3.2125 C9.86612022,2.475 9.76536885,1.7375 9.64446721,1 L9.64446721,1 L6.74282787,1.12291667 C6.82342896,1.32777778 6.90403005,1.67604167 6.98463115,2.16770833 C7.10553279,2.61840278 7.18613388,2.96666667 7.22643443,3.2125 L7.22643443,3.2125 L1.12090164,3.2125 L1.12090164,5.54791667 L3.29713115,5.54791667 C4.02254098,7.80138889 5.03005464,9.68611111 6.31967213,11.2020833 C4.94945355,12.0625 3.17622951,12.8204861 1,13.4760417 C1.32240437,13.8857639 1.78586066,14.5822917 2.39036885,15.565625 C2.4306694,15.6475694 2.47096995,15.7090278 2.51127049,15.75 Z M8.31454918,9.60416667 C7.30703552,8.49791667 6.52117486,7.14583333 5.95696721,5.54791667 L5.95696721,5.54791667 L10.6721311,5.54791667 C10.2288251,7.14583333 9.44296448,8.49791667 8.31454918,9.60416667 Z" id="文" stroke="url(#linearGradient-2)" stroke-width="0.5" fill="url(#linearGradient-1)" fill-rule="nonzero"></path>
            </g>
        </g>
    </g>
</svg>