<?xml version="1.0" encoding="UTF-8"?>
<svg width="16px" height="16px" viewBox="0 0 16 16" version="1.1" xmlns="http://www.w3.org/2000/svg" xmlns:xlink="http://www.w3.org/1999/xlink">
    <title>专家</title>
    <defs>
        <linearGradient x1="53.8304822%" y1="103.830482%" x2="53.8304822%" y2="-3.83048222%" id="linearGradient-1">
            <stop stop-color="#42ECB9" offset="0%"></stop>
            <stop stop-color="#B2F7E3" offset="100%"></stop>
        </linearGradient>
        <linearGradient x1="50%" y1="0%" x2="50%" y2="100%" id="linearGradient-2">
            <stop stop-color="#FFFFFF" offset="0%"></stop>
            <stop stop-color="#FFFFFF" stop-opacity="0" offset="100%"></stop>
        </linearGradient>
    </defs>
    <g id="页面-2备份" stroke="none" stroke-width="1" fill="none" fill-rule="evenodd">
        <g id="平时" transform="translate(-534.000000, -398.000000)">
            <g id="专家" transform="translate(534.000000, 398.000000)">
                <rect id="矩形" x="0" y="0" width="16" height="16"></rect>
                <path d="M11.5981506,9.45990335 C11.6848827,9.48492222 11.7515997,9.54997129 11.8233205,9.60167696 C12.7490187,10.3172167 13.4812377,11.2729376 13.963268,12.3370736 C14.3485586,13.1843794 14.5787322,14.1017381 14.6487851,15.0307722 C14.6554568,15.0974892 14.6571247,15.1658741 14.6354417,15.2309232 C14.5887398,15.3810364 14.4436303,15.4944553 14.2868454,15.4994591 L1.75405838,15.4994591 C1.67900177,15.5027949 1.60227722,15.4911195 1.53722816,15.4527572 C1.4054621,15.3843723 1.32206586,15.2325911 1.33540925,15.0858137 C1.3987904,14.1384324 1.63063195,13.2010587 2.0242622,12.3370736 C2.5079604,11.2712697 3.24184731,10.3138809 4.17088143,9.59667319 C4.2426022,9.54163167 4.31432296,9.47491467 4.40772675,9.45489958 C4.51947771,9.42654486 4.64457208,9.44822788 4.73797586,9.51828072 C5.16329669,9.83351851 5.63031564,10.0920469 6.12568931,10.2771865 C6.72947809,10.5040243 7.37496499,10.620779 8.02045189,10.6157752 C9.03955395,10.6141073 10.0503164,10.3038733 10.9059618,9.75345812 C11.0243845,9.6784015 11.1394713,9.59667319 11.2545581,9.51327695 C11.3529657,9.4432241 11.4830638,9.42320901 11.5981506,9.45990335 Z M8.76935013,12.707353 L7.2949046,12.707353 C7.23819515,12.707353 7.17981778,12.7040171 7.12310834,12.7190284 C6.96799133,12.7557228 6.8445649,12.8941605 6.82955357,13.0526134 C6.80787055,13.2177379 6.90961397,13.3845304 7.06139512,13.4495795 C7.1352008,13.483355 7.21651213,13.483355 7.29688526,13.4826513 L8.76935013,13.482938 C8.90111619,13.482938 9.02787847,13.4095493 9.09626339,13.2977983 C9.17799171,13.1710361 9.17298793,12.9975719 9.08458792,12.8741454 C9.01453507,12.772402 8.89444449,12.707353 8.76935013,12.707353 Z M8.1088519,0.75 C8.46078404,0.760007549 8.8143841,0.790030195 9.15964453,0.866754737 C9.39148608,0.921796255 9.61832386,0.996852872 9.84849748,1.06190194 C11.30126,1.48889069 12.7540225,1.91587944 14.206785,2.34453612 C14.428619,2.41292103 14.6537889,2.50632482 14.8155776,2.67812108 C14.9089813,2.77486072 14.9690266,2.90329093 14.98237,3.03839284 L14.98237,3.1301287 C14.9673587,3.26523061 14.9073134,3.3919929 14.8122417,3.48873254 C14.6554568,3.65385709 14.4386266,3.74559296 14.2251322,3.81230995 L11.8750261,4.50449874 L11.8750261,5.76044613 C11.8867016,6.22579715 11.8283242,6.69615194 11.6798789,7.13981994 C11.3929959,8.01381254 10.7825354,8.77605418 9.99193901,9.24974483 C9.53659554,9.52328449 9.02621055,9.70175245 8.49914631,9.77013737 C7.85699526,9.85353361 7.19316118,9.77680907 6.5893724,9.54163167 C5.73372698,9.21305048 5.00651176,8.5692315 4.57285131,7.7619559 C4.27262484,7.20820486 4.11250406,6.58106513 4.10916821,5.95225748 L4.10916821,4.50449874 L3.25852656,4.25431002 L3.25852656,5.67871781 C3.26019448,5.78379707 3.22016429,5.89054426 3.14343975,5.96393295 C3.05337181,6.05733674 2.91493405,6.09736694 2.78817176,6.07068014 C2.61804343,6.03898957 2.47960567,5.88053671 2.47960567,5.70707253 L2.47960567,4.02747225 C2.2460962,3.95741941 2.01258673,3.89070241 1.77907725,3.82064957 C1.60894892,3.7689439 1.44048852,3.70222691 1.29371113,3.59714765 C1.18863187,3.52209103 1.09689601,3.42201554 1.04519034,3.30192496 C0.988480894,3.17182682 0.985145045,3.01837774 1.03518279,2.88494376 C1.08355261,2.75484562 1.17862432,2.64809843 1.28870736,2.56970597 C1.46217154,2.44461161 1.66565837,2.37455876 1.86914519,2.3161814 C3.43699451,1.85583415 5.00484383,1.39381898 6.57269315,0.933471729 C6.99467813,0.805041519 7.43667821,0.761675474 7.87534243,0.75 L8.1088519,0.75 Z M3.12842842,6.67780477 C3.19848127,6.74618969 3.26519826,6.8145746 3.3352511,6.88295952 C3.41364357,6.95968406 3.45700961,7.0697671 3.45033791,7.17985014 C3.44866999,7.29326902 3.38695677,7.39834829 3.30356053,7.47173698 L3.13701515,7.63717041 C3.10785735,7.66280703 3.07672275,7.68578733 3.04169633,7.70357853 C2.90993027,7.77029552 2.74146987,7.75194835 2.62638306,7.66021248 C2.55799814,7.60183511 2.49795285,7.5334502 2.43290378,7.47173698 C2.38119811,7.42169924 2.33282829,7.36498979 2.30947734,7.29660487 C2.2594396,7.16317089 2.28946225,7.00305011 2.38620188,6.89963877 C2.44624718,6.83625763 2.50962832,6.77621233 2.56967361,6.71449912 C2.62304721,6.65612175 2.69143212,6.60941985 2.76982459,6.58940476 C2.89325103,6.55938211 3.03335671,6.58940476 3.12842842,6.67780477 Z" id="形状结合" stroke="url(#linearGradient-2)" stroke-width="0.5" fill="url(#linearGradient-1)" fill-rule="nonzero"></path>
            </g>
        </g>
    </g>
</svg>