<?xml version="1.0" encoding="UTF-8"?>
<svg width="16px" height="16px" viewBox="0 0 16 16" version="1.1" xmlns="http://www.w3.org/2000/svg" xmlns:xlink="http://www.w3.org/1999/xlink">
    <title>雨量水文一体站</title>
    <defs>
        <linearGradient x1="53.8304822%" y1="103.830482%" x2="53.8304822%" y2="-3.83048222%" id="linearGradient-1">
            <stop stop-color="#46F368" offset="0%"></stop>
            <stop stop-color="#C7FFD2" offset="100%"></stop>
        </linearGradient>
    </defs>
    <g id="页面-2备份" stroke="none" stroke-width="1" fill="none" fill-rule="evenodd">
        <g id="平时" transform="translate(-534.000000, -568.000000)">
            <g id="雨量水文一体站" transform="translate(534.000000, 568.000000)">
                <rect id="矩形" x="0" y="0" width="16" height="16"></rect>
                <path d="M7.98999003,1 L14.9910255,5.36240764 L14.9910255,5.8026908 C14.9960511,5.83039183 14.9990502,5.85840899 15,5.8865285 L15,6.29219479 C15,6.43564731 14.9418142,6.57322439 14.8382428,6.67466064 C14.7346714,6.77609689 14.5941984,6.83308317 14.4477263,6.83308317 C14.4185939,6.83308317 14.3902898,6.82848561 14.3622619,6.82456417 L14.2465606,6.82456417 L14.2465606,11.6728172 C14.2539965,11.8123582 14.2486304,11.9524424 14.2288879,12.090924 L14.227231,12.9405244 C14.227231,12.9405244 14.2012742,13.8275813 13.1946173,14.0052632 L12.9430566,14.0052632 L12.9430566,8.57109278 L3.05680529,8.57109278 L3.05680529,14.0051279 L2.80524462,14.0051279 C1.79858776,13.8274461 1.77263089,12.9403891 1.77263089,12.9403891 L1.77111214,12.0907887 C1.75854792,11.9997843 1.75095415,11.9029652 1.75095415,11.8022248 C1.75095415,11.7582776 1.7524729,11.7151418 1.75357744,11.672682 L1.75357744,6.84376573 L1.7441888,6.82442895 L1.63773805,6.82442895 C1.60971015,6.82875606 1.58195839,6.83294794 1.55227368,6.83294794 C1.24726135,6.83294794 1,6.59078397 1,6.29205957 L1,5.88639328 C1,5.85759098 1.00455626,5.83014088 1.00869831,5.8026908 L1.00869831,5.36240764 L7.98999003,1 Z M12.257685,11.8672666 L12.257685,12.7124047 L3.71470132,12.7124047 L3.71470132,11.8672666 L12.257685,11.8672666 Z M12.2404264,10.4812401 L12.2404264,11.3263782 L3.69744278,11.3263782 L3.69744278,10.4812401 L12.2404264,10.4812401 Z M12.257685,9.09521362 L12.257685,9.94035172 L3.71470132,9.94035172 L3.71470132,9.09521362 L12.257685,9.09521362 Z M4.94516711,5.43285836 L3.6680342,5.43285836 C3.38237065,5.43285836 3.15027762,5.66003149 3.15027762,5.93994123 C3.15035384,6.21996443 3.38211671,6.44694944 3.6680342,6.44702408 L4.94516711,6.44702408 C5.23107733,6.44697029 5.46282423,6.21995732 5.46282423,5.93994122 C5.46282423,5.65992513 5.23107733,5.43291216 4.94516711,5.43285836 Z M8.70753163,5.43285836 L7.43039872,5.43285836 C7.14473517,5.43285836 6.91264214,5.66003149 6.91264214,5.93994123 C6.91271836,6.21996443 7.14448123,6.44694944 7.43039872,6.44702408 L8.70753163,6.44702408 C8.99344185,6.44697029 9.22518875,6.21995732 9.22518875,5.93994122 C9.22518875,5.65992513 8.99344185,5.43291216 8.70753163,5.43285836 Z M12.3318277,5.43285836 L11.0546948,5.43285836 C10.7690313,5.43285836 10.5369382,5.66003149 10.5369382,5.93994123 C10.5370144,6.21996444 10.7687773,6.44694945 11.0546948,6.44702408 L12.3318277,6.44702408 C12.617738,6.44697029 12.8494849,6.21995732 12.8494849,5.93994122 C12.8494849,5.65992513 12.617738,5.43291216 12.3318277,5.43285836 Z" id="形状结合" fill="url(#linearGradient-1)" fill-rule="nonzero"></path>
            </g>
        </g>
    </g>
</svg>