<?xml version="1.0" encoding="UTF-8"?>
<svg width="16px" height="16px" viewBox="0 0 16 16" version="1.1" xmlns="http://www.w3.org/2000/svg" xmlns:xlink="http://www.w3.org/1999/xlink">
    <title>已办结图例</title>
    <defs>
        <linearGradient x1="53.8304822%" y1="103.830482%" x2="53.8304822%" y2="-3.83048222%" id="linearGradient-1">
            <stop stop-color="#BFFF32" offset="0%"></stop>
            <stop stop-color="#E5FFB7" offset="100%"></stop>
        </linearGradient>
    </defs>
    <g id="页面-2备份" stroke="none" stroke-width="1" fill="none" fill-rule="evenodd">
        <g id="平时" transform="translate(-534.000000, -426.000000)">
            <g id="已办结图例" transform="translate(534.000000, 426.000000)">
                <rect id="矩形" x="0" y="0" width="16" height="16"></rect>
                <path d="M8.40671677,6.49435276 C8.53205599,6.75907963 8.60334154,7.0458216 8.60334154,7.34711899 C8.60334154,8.03559081 8.24183493,8.65292296 7.66973665,9.08267203 C7.63200791,9.12088004 7.58992584,9.16072553 7.53986272,9.2025724 C6.31621814,10.2278205 7.65830919,10.6894095 7.65830919,10.6894095 C10.1248255,11.4730375 11.2554179,12.7406334 11.2552365,12.7406334 C11.5449618,13.2999379 11.3324966,13.8074486 11.2708066,13.93296 L11.2554179,13.9625618 C10.9214823,14.4006802 9.32835005,15 9.32835005,15 C9.23910707,14.9499736 8.49118844,14.9173807 7.67344789,14.896459 L7.26148529,14.886944 C6.64299217,14.8740505 6.04042925,14.8671817 5.70221919,14.8639067 C5.36379619,14.8670393 4.76115921,14.8738771 4.14265482,14.8867858 L3.73069318,14.8963169 C2.91296981,14.9172817 2.16514994,14.9499736 2.07590696,15 C2.07590696,15 0.482593298,14.4001344 0.148657683,13.9625618 C0.148657683,13.9625618 -0.185822104,13.3859848 0.148657683,12.7406334 C0.148657658,12.7406334 1.27997565,11.4732194 3.74649196,10.6895915 C3.74649196,10.6895915 5.08822024,10.2280024 3.86511983,9.20275434 C3.6986055,9.06356802 3.60392086,8.94821626 3.55966216,8.85160459 C3.14718545,8.4438706 2.89832089,7.91951126 2.89832089,7.34711899 C2.89832092,7.0458216 2.96942508,6.75907963 3.0947643,6.49435276 Z M12.8182642,5.49466052 C12.9453553,5.75957675 13.0178471,6.04632674 13.0178471,6.34745062 C13.0178472,7.03594171 12.6507768,7.65365505 12.0688134,8.08323419 C12.0300774,8.12144325 11.9874677,8.16092595 11.9361885,8.20313789 C10.6920228,9.22823273 12.0566392,9.68983472 12.0566392,9.68983472 C14.5656298,10.4734846 15.7151688,11.741116 15.7151688,11.741116 C16.0096367,12.3002785 15.7936936,12.8077823 15.7309938,12.9329391 L15.7153532,12.9623508 C15.375767,13.4004815 13.7554926,14 13.7554926,14 C13.6848454,13.9608812 13.2043337,13.9321334 12.6011577,13.9117552 C13.2790389,11.0440734 8.94133694,9.92072667 8.94133694,9.92072667 C8.39276043,9.80573556 8.49734781,9.62124032 8.49734781,9.62124032 C10.2480337,8.46878192 9.67842902,7.06250611 9.67842902,7.06250611 C11.496073,6.98827136 11.3641859,5.90877408 11.2448419,5.49466052 Z M5.70294475,2 C5.92659637,2 6.1070776,2.21560231 6.1070776,2.48196666 L6.1070776,3.33873564 C6.1070776,3.3780353 6.10236149,3.41551553 6.09492458,3.45208605 L6.26524806,3.45208605 L6.26524806,2.61933353 C6.26524809,2.59040463 6.26089476,2.56293124 6.25708561,2.53509399 C7.64579342,2.78708486 8.69875171,3.96589269 8.70528169,5.3859568 C9.3533816,5.48402401 9.74826365,5.61374928 9.74826365,5.75657443 C9.74826365,5.76330633 9.74626838,5.77003823 9.7444545,5.7767701 C10.0751251,5.85336804 10.2634061,5.94051869 10.2626826,6.03294567 C10.2626826,6.10645056 10.1440526,6.17668052 9.9298332,6.24054246 L1.47297269,6.24054246 C1.25911604,6.17631665 1.14030678,6.10645059 1.14030678,6.03294567 C1.14030678,5.94070063 1.32858771,5.85354999 1.65962112,5.7767701 C1.65780724,5.7700382 1.65563058,5.7633063 1.65563058,5.75657443 C1.65563058,5.61393122 2.05033121,5.48402401 2.69861254,5.3859568 C2.70532389,3.96625661 3.7582822,2.78781264 5.1471714,2.53509399 C5.14263669,2.56311319 5.13882753,2.59058655 5.13900892,2.61933353 L5.13900892,3.45208605 L5.31096492,3.45208605 C5.30316523,3.41551553 5.29863051,3.3780353 5.29863051,3.33873564 L5.29863051,2.48196666 C5.29863051,2.21614813 5.4800187,2 5.70294475,2 Z M10.0681877,1 C10.2954393,1 10.4793434,1.2157903 10.4793434,1.48216211 L10.4793434,2.33913702 C10.4793434,2.37807387 10.4745475,2.41591905 10.4668003,2.45230865 L10.6398214,2.45230865 L10.6398214,1.61953282 C10.6398214,1.59042116 10.6352099,1.562947 10.6311519,1.53529092 C12.0440961,1.78710689 13.1145029,2.96612967 13.1213278,4.38605158 C13.7803943,4.48412154 14.1821427,4.61385043 14.1821427,4.75667958 C14.1821427,4.76341167 14.1799292,4.77032571 14.1780846,4.77705777 C14.5147195,4.85329398 14.706002,4.94081094 14.706002,5.03305856 C14.706002,5.10656551 14.5851823,5.17661548 14.3675225,5.24047921 L11.1081589,5.24047921 C10.6953431,4.81526683 9.6780601,4.43481364 9.6780601,4.43481364 C9.459478,2.87733906 8.06774635,2.36333607 7.9330924,2.3171213 C8.36828383,1.91160405 8.91381493,1.63992559 9.50300996,1.53529092 C9.49876746,1.56312895 9.49452493,1.59078503 9.49452493,1.61953282 L9.49452493,2.45230865 L9.66939061,2.45230865 C9.66201228,2.41591905 9.65703194,2.37807387 9.65703194,2.33913702 L9.65703194,1.48216211 C9.65703194,1.21615418 9.84130497,1 10.0681877,1 Z" id="形状结合" fill="url(#linearGradient-1)" fill-rule="nonzero"></path>
            </g>
        </g>
    </g>
</svg>