<?xml version="1.0" encoding="UTF-8"?>
<svg width="16px" height="16px" viewBox="0 0 16 16" version="1.1" xmlns="http://www.w3.org/2000/svg" xmlns:xlink="http://www.w3.org/1999/xlink">
    <title>易涝点</title>
    <defs>
        <linearGradient x1="53.8304822%" y1="103.830482%" x2="53.8304822%" y2="-3.83048222%" id="linearGradient-1">
            <stop stop-color="#FFC326" offset="0%"></stop>
            <stop stop-color="#FFE9AE" offset="100%"></stop>
        </linearGradient>
    </defs>
    <g id="页面-2备份" stroke="none" stroke-width="1" fill="none" fill-rule="evenodd">
        <g id="平时" transform="translate(-534.000000, -540.000000)">
            <g id="易涝点" transform="translate(534.000000, 540.000000)">
                <rect id="矩形" x="0" y="0" width="16" height="16"></rect>
                <path d="M14.9516774,11.7192765 C14.9516774,11.7192765 13.4456855,12.8731725 11.9507928,12.8731725 C10.5286585,12.8731725 9.65658713,11.7192765 8.404174,11.7192765 C6.7747185,11.7192765 5.47705078,12.8731725 4.31196621,12.8731725 C2.89099327,12.8731725 1.03812871,11.4308584 1.03812871,11.4308584 C0.837934237,11.2381098 0.70301512,10.9577431 0.765334211,10.854008 C0.886818166,10.6524963 0.991395988,10.373525 1.31091001,10.5655759 C1.31091001,10.5655759 3.09498865,12.0078901 4.31195301,12.0078901 C5.47951874,12.0078901 6.60633026,10.8539941 8.40416081,10.8539941 C9.63836124,10.8539941 10.6103649,12.0078901 11.9507796,12.0078901 C13.5915059,12.0078901 14.9518226,10.8539941 14.9518226,10.8539941 C15.2020756,10.6612455 15.4498474,10.9088478 15.4973984,11.1424262 C15.5257337,11.2819118 15.3212236,11.5452823 14.951651,11.7192765 L14.9516774,11.7192765 Z M13.4354115,10.4196591 C13.3009666,10.6252541 12.6573949,10.9755117 12.3371101,10.9755117 C10.5522243,10.9755117 9.93502087,9.5861356 8.21818772,9.5861356 C6.50135457,9.5861356 5.51801086,10.9755117 4.648416,10.9755117 C3.77882114,10.9755117 3.27487509,10.4196591 3.27487509,10.4196591 L3.27487509,7.36322256 L1.90234375,7.36322256 L8.21817444,1.25 L10.9648976,3.79716039 L10.9648976,2.36151701 L12.0625215,2.36151701 L12.0625215,4.81603529 L14.8085938,7.36319568 L13.4353982,7.36319568 L13.4354115,10.4196591 Z M1.31092157,12.4633184 C1.31092157,12.4633184 3.09499502,13.9054193 4.31195583,13.9054193 C5.47951815,13.9054193 6.60632639,12.7517386 8.4041517,12.7517386 C9.63834854,12.7517386 10.6103493,13.9054193 11.9507602,13.9054193 C13.5914817,13.9054193 14.9517944,12.7517386 14.9517944,12.7517386 C15.2020467,12.558998 15.4498178,12.80659 15.4973686,13.0401587 C15.5258754,13.1803502 15.3213659,13.4431795 14.9517944,13.6169852 C14.9517944,13.6169852 13.4459785,14.7708333 11.9507602,14.7708333 C10.52863,14.7708333 9.65656118,13.6169852 8.4041517,13.6169852 C6.77470095,13.6169852 5.47703701,14.7708333 4.31195583,14.7708333 C2.89098703,14.7708333 1.03812787,13.3285789 1.03812787,13.3285789 C0.83793398,13.1358383 0.703015257,12.8554833 0.765334166,12.7517525 C0.886646199,12.5500677 0.991395285,12.271108 1.31090837,12.4633323 L1.31092157,12.4633184 Z" id="形状" fill="url(#linearGradient-1)" fill-rule="nonzero"></path>
            </g>
        </g>
    </g>
</svg>