<?xml version="1.0" encoding="UTF-8"?>
<svg width="16px" height="16px" viewBox="0 0 16 16" version="1.1" xmlns="http://www.w3.org/2000/svg" xmlns:xlink="http://www.w3.org/1999/xlink">
    <title>森林火灾隐患点</title>
    <defs>
        <linearGradient x1="53.8304822%" y1="103.830482%" x2="53.8304822%" y2="-3.83048222%" id="linearGradient-1">
            <stop stop-color="#FFC326" offset="0%"></stop>
            <stop stop-color="#FFE9AE" offset="100%"></stop>
        </linearGradient>
    </defs>
    <g id="页面-2备份" stroke="none" stroke-width="1" fill="none" fill-rule="evenodd">
        <g id="平时" transform="translate(-534.000000, -512.000000)">
            <g id="森林火灾隐患点" transform="translate(534.000000, 512.000000)">
                <rect id="矩形" x="0" y="0" width="16" height="16"></rect>
                <path d="M6.01643013,0.75 L7.77295239,3.2094308 L6.89469126,3.2094308 L9.52947465,6.28289621 L8.02231581,6.28289621 L10.7010123,9.55884487 L8.49751782,9.55884487 L11.2859969,13.2446987 L7.18639942,13.2446987 L7.18639942,15.5 L4.84489251,15.5 L4.84489251,13.2446987 L0.75,13.2446987 L3.53847909,9.55884487 L1.33498464,9.55884487 L4.01054444,6.28289621 L2.50495393,6.28289621 L5.13973732,3.2094308 L4.25990787,3.2094308 L6.01643013,0.75 Z M11.5669568,12.1495845 C12.7865286,12.9639878 14.2628871,13.6899703 15.5003957,13.2478656 L15.5,14.6982792 C14.3685296,14.8890822 12.3307224,14.0017704 11.5669568,12.1495845 Z M13.1668737,10.8825752 C13.7993504,11.7934659 14.4952879,12.2805732 15.2545557,12.3438972 C14.2197836,12.9706419 13.2910985,12.8374993 12.4893785,11.7934659 C12.02745,11.0157178 11.4771809,10.5318579 10.5835971,10.5318579 C11.5017127,9.97006075 12.372983,9.97330813 13.1668737,10.8825752 Z M11.075277,6.71537396 C11.3616846,7.77987233 13.9725547,9.53398658 15.0087158,9.591338 L15.0087158,11.0055402 C13.0154623,10.7411641 11.4156861,8.86954936 11.075277,6.71537396 Z M10.829437,4.14127424 C11.9739976,4.18981248 12.7623502,4.73108743 13.1295748,6.04014914 C13.6632309,7.47129188 14.2804306,8.3302717 15.0087158,8.4302899 C13.7282822,8.45970701 12.7548745,7.9272572 12.2306614,6.57554067 C11.9229796,5.26500811 11.5507712,4.6090064 10.829437,4.14127424 Z M13.5928543,3.85526316 C13.7729276,4.87834827 14.4029072,5.71882412 15.2545557,6.0721917 L15.2545557,7.5734072 C14.2267417,7.02845558 13.2853082,5.9088547 13.5928543,3.85526316 Z" id="形状结合" fill="url(#linearGradient-1)" fill-rule="nonzero"></path>
            </g>
        </g>
    </g>
</svg>