<?xml version="1.0" encoding="UTF-8"?>
<svg width="16px" height="16px" viewBox="0 0 16 16" version="1.1" xmlns="http://www.w3.org/2000/svg" xmlns:xlink="http://www.w3.org/1999/xlink">
    <title>装备</title>
    <defs>
        <linearGradient x1="53.8304822%" y1="103.830482%" x2="53.8304822%" y2="-3.83048222%" id="linearGradient-1">
            <stop stop-color="#84EF33" offset="0%"></stop>
            <stop stop-color="#DBFFC8" offset="100%"></stop>
        </linearGradient>
        <linearGradient x1="50%" y1="0%" x2="50%" y2="100%" id="linearGradient-2">
            <stop stop-color="#FFFFFF" offset="0%"></stop>
            <stop stop-color="#FFFFFF" stop-opacity="0" offset="100%"></stop>
        </linearGradient>
    </defs>
    <g id="页面-2备份" stroke="none" stroke-width="1" fill="none" fill-rule="evenodd">
        <g id="平时" transform="translate(-534.000000, -370.000000)">
            <g id="装备" transform="translate(534.000000, 370.000000)">
                <rect id="矩形" x="0" y="0" width="16" height="16"></rect>
                <path d="M8.12509934,7.86644862 C8.12509934,7.67957612 8.23741898,7.50909595 8.415809,7.43696972 L14.9072235,4.89288101 C15.0492748,4.84042557 15.2078437,4.86009636 15.3300739,4.94533644 C15.4523041,5.03057653 15.528285,5.17155052 15.5249815,5.3223599 L15.5249815,11.938302 C15.5249815,12.1153391 15.4258759,12.2792623 15.2640035,12.354667 L8.77589255,15.4823224 C8.63384124,15.5478917 8.46536178,15.5380564 8.33322103,15.4528163 C8.20108028,15.3675762 8.12179583,15.2200453 8.12509934,15.0659574 L8.12509934,7.86644862 Z M1.7616785,3.26797658 L7.97478315,0.759126557 C8.08378499,0.713511102 8.20599917,0.713511102 8.315001,0.759126557 L14.4785594,3.22561937 C14.656926,3.2973008 14.772534,3.46672963 14.772534,3.6524497 C14.772534,3.84142801 14.656926,4.01085685 14.4785594,4.07928003 L7.99460711,6.58813005 C7.88560528,6.63048726 7.7633911,6.63048726 7.65438926,6.58813005 L1.74846616,4.1118625 C1.58000877,4.03366457 1.47431002,3.86749399 1.47761311,3.68503217 C1.47761311,3.50257035 1.59322112,3.33639976 1.7616785,3.26797658 Z M6.69716931,15.3401291 L0.958768219,12.0810808 C0.817201238,11.9985315 0.728310344,11.8499427 0.725018088,11.684844 L0.725018088,5.20306923 C0.721725833,5.04787645 0.797447706,4.9025896 0.925845665,4.81673828 C1.05424362,4.73088696 1.21556414,4.71437709 1.35713112,4.77381262 L7.0955322,7.29652068 C7.26343723,7.37246607 7.37208165,7.54086674 7.37208165,7.72577728 L7.37208165,14.9240804 C7.37866616,15.0891791 7.29635978,15.2443718 7.1547928,15.3302232 C7.01651808,15.4193765 6.84202854,15.4226784 6.69716931,15.3401291 Z M2.45165545,8.73193254 L5.05073035,10.3178078 C5.19291893,10.4037094 5.36817462,10.4037094 5.5136699,10.3211117 C5.65585848,10.2385141 5.74513968,10.0865343 5.74183297,9.921339 C5.74183297,9.75944756 5.65916519,9.61077176 5.52028333,9.52487018 L2.92120842,7.9389949 C2.77901985,7.85309333 2.60376416,7.85309333 2.45826887,7.935691 C2.31608029,8.01498476 2.2267991,8.17026838 2.23010581,8.33546372 C2.23010581,8.49735516 2.31608029,8.64603096 2.45165545,8.73193254 Z" id="形状" stroke="url(#linearGradient-2)" stroke-width="0.5" fill="url(#linearGradient-1)" fill-rule="nonzero"></path>
            </g>
        </g>
    </g>
</svg>