<?xml version="1.0" encoding="UTF-8"?>
<svg width="16px" height="16px" viewBox="0 0 16 16" version="1.1" xmlns="http://www.w3.org/2000/svg" xmlns:xlink="http://www.w3.org/1999/xlink">
    <title>重大基础设施备份 5</title>
    <defs>
        <linearGradient x1="53.8304822%" y1="103.830482%" x2="53.8304822%" y2="-3.83048222%" id="linearGradient-1">
            <stop stop-color="#46F368" offset="0%"></stop>
            <stop stop-color="#C7FFD2" offset="100%"></stop>
        </linearGradient>
    </defs>
    <g id="v4.21.0" stroke="none" stroke-width="1" fill="none" fill-rule="evenodd">
        <g id="画板" transform="translate(-75.000000, -329.000000)">
            <g id="重大基础设施备份-5" transform="translate(75.000000, 329.000000)">
                <rect id="矩形" x="0" y="0" width="16" height="16"></rect>
                <path d="M13.8181818,14.5625909 C13.8181818,14.9642636 13.4925818,15.2898636 13.0909091,15.2898636 L2.90909091,15.2898636 C2.50743273,15.2898636 2.18181818,14.9642636 2.18181818,14.5625909 L2.18181818,8.01713636 L0,8.01713636 L7.51076364,1.18913636 C7.78814545,0.936954545 8.21185455,0.936954545 8.48923636,1.18913636 L16,8.01713636 L13.8181818,8.01713636 L13.8181818,14.5625909 Z M5.52151273,10.0593182 L4.80072,10.4754636 L5.52850909,11.7359 L6.2504,11.3191 C6.53640727,11.5892091 6.88509091,11.7938636 7.27229091,11.9089182 L7.27229091,12.7412091 L8.72778182,12.7412091 L8.72778182,11.9089182 C9.11498182,11.7937909 9.46363636,11.5891364 9.7496,11.3190273 L10.4715636,11.7358273 L11.1992727,10.4753909 L10.4784727,10.0591727 C10.5233455,9.87008182 10.5470545,9.67284545 10.5470545,9.47008182 C10.5470545,9.26724545 10.5233455,9.07000909 10.4784,8.88091818 L11.1992727,8.4647 L10.4714909,7.20422727 L9.74952727,7.62106364 C9.46356364,7.35095455 9.11490909,7.14632909 8.72770909,7.03121636 L8.72770909,6.19894 L7.27221818,6.19894 L7.27221818,7.03121636 C6.88501818,7.14633636 6.53634182,7.35095455 6.25033455,7.62106364 L5.52846545,7.20429273 L4.80072,8.46477273 L5.52149091,8.88091818 C5.47661091,9.07000909 5.45285818,9.26724545 5.45285818,9.47008182 C5.45285818,9.67291818 5.47661818,9.87015455 5.52151273,10.0593182 Z M8,10.5604818 C7.39709091,10.5604818 6.90836364,10.0722636 6.90836364,9.47008182 C6.90836364,8.8679 7.39709091,8.37968182 8,8.37968182 C8.60283636,8.37968182 9.09156364,8.8679 9.09156364,9.47008182 C9.09156364,10.0722636 8.60283636,10.5604818 8,10.5604818 Z" id="形状" fill="url(#linearGradient-1)" fill-rule="nonzero"></path>
            </g>
        </g>
    </g>
</svg>