<?xml version="1.0" encoding="UTF-8"?>
<svg width="16px" height="16px" viewBox="0 0 16 16" version="1.1" xmlns="http://www.w3.org/2000/svg" xmlns:xlink="http://www.w3.org/1999/xlink">
    <title>企业</title>
    <defs>
        <linearGradient x1="53.8304822%" y1="103.830482%" x2="53.8304822%" y2="-3.83048222%" id="linearGradient-1">
            <stop stop-color="#46F368" offset="0%"></stop>
            <stop stop-color="#C7FFD2" offset="100%"></stop>
        </linearGradient>
    </defs>
    <g id="页面-2备份" stroke="none" stroke-width="1" fill="none" fill-rule="evenodd">
        <g id="平时" transform="translate(-534.000000, -596.000000)">
            <g id="企业" transform="translate(534.000000, 596.000000)">
                <rect id="矩形" x="0" y="0" width="16" height="16"></rect>
                <path d="M8,1 L15,6.63888889 L13.8333333,6.83333333 L13.8333333,13.8 C13.8333333,14.4627417 13.296075,15 12.6333333,15 L3.36666667,15 C2.70392497,15 2.16666667,14.4627417 2.16666667,13.8 L2.16666667,6.83333333 L1,6.63888889 L8,1 Z M8.69931185,7.34840594 C7.91482117,7.13938391 7.09145359,7.13938391 6.3069629,7.34840594 C5.65416756,7.84000257 5.10441673,8.46179055 4.69053246,9.17664695 C4.34683166,9.7177407 5.13949661,10.2309599 5.58925822,9.66855036 C5.90310095,9.27035898 6.19413072,8.85372257 6.46087068,8.42075538 C6.52451948,8.27457417 6.6781654,8.1932113 6.83088732,8.22481385 C6.8337489,8.51023267 6.77946012,8.79320462 6.67139739,9.05613062 C6.48862219,9.48709396 6.32889406,9.92800504 6.1929276,10.3768913 C6.10561187,10.6900191 5.97106895,10.9871312 5.79420278,11.2573984 C5.34333728,11.1418544 4.9080874,10.9694751 4.49834709,10.7441792 C4.29519541,10.6556314 4.06037296,10.6984222 3.89920033,10.8533594 C3.73802769,11.0082967 3.68075558,11.2463 3.75307118,11.4606221 C3.82538679,11.6749442 4.0137171,11.8253588 4.23359381,11.8444031 C4.23359381,11.8444031 5.86996049,12.7732807 6.42817525,12.6511247 C6.87474705,12.5535639 7.30138262,11.1352424 7.51270677,11.086052 C7.90309229,11.069277 8.29204499,11.1444285 8.64986998,11.3057689 C8.7001093,11.4041496 9.17857909,13.0667831 9.17857909,13.0667831 C9.17857909,13.0667831 9.20728728,13.5808222 9.89628378,13.4094758 C10.4991557,13.2595477 10.3913505,12.8849069 10.3549793,12.7935894 L10.3460454,12.7732807 C10.3460454,12.7732807 9.79022298,10.597428 9.7375913,10.4014864 C9.29284705,10.1031702 8.78505059,9.91875066 8.2567273,9.86367205 C8.39149629,9.44801367 8.65545212,8.83641376 8.73519709,8.6166969 C8.76829125,8.6228457 8.82122197,8.67024264 8.8877841,8.73635497 L9.03724499,8.88685711 C9.22853046,9.07597755 9.47150893,9.2852073 9.68735197,9.22829681 C10.0573686,9.13073597 11.405856,8.86182877 11.405856,8.86182877 L11.4150415,8.85989599 C11.4923508,8.84270895 12.0273541,8.70529808 11.8548201,8.22645353 C11.7356508,7.92878293 11.4045814,7.78647533 11.1147868,7.90835599 C10.7313208,8.04319975 10.3301332,8.11728621 9.92499197,8.12807285 C9.6121438,7.73527636 9.1808439,7.46092235 8.69931185,7.34840594 Z M8.59888889,4.88888889 C8.03187655,4.88888889 7.57222222,5.34854321 7.57222222,5.91555556 C7.57222222,6.4825679 8.03187655,6.94222222 8.59888889,6.94222222 C9.16590123,6.94222222 9.62555556,6.4825679 9.62555556,5.91555556 C9.62555556,5.34854321 9.16590123,4.88888889 8.59888889,4.88888889 Z" id="形状结合" fill="url(#linearGradient-1)" fill-rule="nonzero"></path>
            </g>
        </g>
    </g>
</svg>