<?xml version="1.0" encoding="UTF-8"?>
<svg width="16px" height="16px" viewBox="0 0 16 16" version="1.1" xmlns="http://www.w3.org/2000/svg" xmlns:xlink="http://www.w3.org/1999/xlink">
    <title>重大危险源</title>
    <defs>
        <linearGradient x1="53.8304822%" y1="103.830482%" x2="53.8304822%" y2="-3.83048222%" id="linearGradient-1">
            <stop stop-color="#C360FD" offset="0%"></stop>
            <stop stop-color="#E9D5FF" offset="100%"></stop>
        </linearGradient>
        <linearGradient x1="50%" y1="0%" x2="50%" y2="100%" id="linearGradient-2">
            <stop stop-color="#FFFFFF" offset="0%"></stop>
            <stop stop-color="#FFFFFF" stop-opacity="0" offset="100%"></stop>
        </linearGradient>
    </defs>
    <g id="页面-2备份" stroke="none" stroke-width="1" fill="none" fill-rule="evenodd">
        <g id="平时" transform="translate(-534.000000, -454.000000)">
            <g id="重大危险源" transform="translate(534.000000, 454.000000)">
                <rect id="矩形" x="0" y="0" width="16" height="16"></rect>
                <path d="M13.8955022,7.4287895 C14.0412135,7.77255072 14.0412135,8.1654207 13.8469317,8.46007317 C14.1869249,8.50918192 14.526918,8.75472565 14.6726293,9.09848688 C14.964052,9.68779183 14.6726293,10.3753143 14.089784,10.6699668 C13.5069386,10.9646192 12.7783819,10.6699668 12.4869592,10.0806618 C12.4383887,10.0315531 12.4383887,9.93333556 12.3898183,9.88422682 L9.66987317,11.1119455 L12.3898183,12.3396641 C12.4869592,12.2905554 12.4869592,12.1923379 12.5355296,12.1432291 C12.8269523,11.5539242 13.555509,11.3083805 14.1383544,11.5539242 C14.7211998,11.8485767 15.0126225,12.5360991 14.7211998,13.1254041 C14.5754884,13.4691653 14.2354953,13.714709 13.8955022,13.7638178 C14.089784,14.0584703 14.089784,14.4513402 13.9440726,14.7951014 C13.6526499,15.3844064 12.9240932,15.6299501 12.3412478,15.3844064 C11.7584024,15.0897539 11.4669798,14.4022315 11.7584024,13.8129265 C11.8069729,13.7638178 11.8555433,13.6656003 11.9041138,13.6164915 L8.01847793,11.8976854 L4.18141253,13.6164915 C4.22998298,13.6656003 4.27855342,13.7638178 4.32712387,13.8129265 C4.61854656,14.4022315 4.32712387,15.0897539 3.74427849,15.3844064 C3.16143312,15.6790589 2.43287639,15.3844064 2.1414537,14.7951014 C1.99574236,14.4513402 1.99574236,14.0584703 2.19002415,13.7638178 C1.85003101,13.714709 1.51003788,13.4691653 1.36432653,13.1254041 C1.07290384,12.5360991 1.36432653,11.8485767 1.94717191,11.5539242 C2.53001729,11.2592717 3.25857401,11.5539242 3.5499967,12.1432291 C3.59856715,12.1923379 3.59856715,12.2905554 3.6471376,12.3396641 L6.3670827,11.1119455 L3.6471376,9.88422682 C3.6471376,9.93333556 3.59856715,10.0315531 3.5499967,10.0806618 C3.25857401,10.6699668 2.53001729,10.9155105 1.94717191,10.6699668 C1.36432653,10.3753143 1.07290384,9.68779183 1.36432653,9.09848688 C1.51003788,8.75472565 1.85003101,8.50918192 2.19002415,8.46007317 C1.99574236,8.1654207 1.99574236,7.77255072 2.1414537,7.4287895 C2.43287639,6.83948454 3.16143312,6.59394081 3.74427849,6.83948454 C4.32712387,7.13413702 4.61854656,7.82165947 4.32712387,8.41096443 C4.27855342,8.46007317 4.22998298,8.55829067 4.18141253,8.60739941 L8.01847793,10.3262055 L11.8555433,8.60739941 C11.8069729,8.55829067 11.7584024,8.46007317 11.709832,8.41096443 C11.4184093,7.82165947 11.709832,7.13413702 12.2926774,6.83948454 C12.8755228,6.54483207 13.6040795,6.83948454 13.8955022,7.4287895 Z M7.96990749,0.75 C10.1070072,0.75 11.9041138,2.32147988 11.9041138,4.23672099 C11.9041138,5.12067842 11.4669798,5.95552711 10.8355639,6.59394081 L10.8355639,7.67433323 C10.8355639,8.26363819 10.3498594,8.7056169 9.76701407,8.7056169 C9.47559138,8.7056169 9.18416869,8.60739941 8.9898869,8.36185568 C8.84417555,8.75472565 8.45561197,9.04937813 7.96990749,9.04937813 C7.53277345,9.04937813 7.14420987,8.75472565 6.94992807,8.36185568 C6.75564628,8.55829067 6.46422359,8.7056169 6.1728009,8.7056169 C5.58995552,8.7056169 5.10425104,8.26363819 5.10425104,7.67433323 L5.10425104,6.59394081 C4.42426477,5.95552711 4.03570118,5.12067842 4.03570118,4.23672099 C4.03570118,2.32147988 5.78423732,0.75 7.96990749,0.75 Z M7.72705524,5.80820087 L7.19278031,6.83948454 C7.09563942,7.08502828 7.19278031,7.28146326 7.43563256,7.28146326 L8.40704152,7.28146326 C8.64989376,7.28146326 8.7956051,7.08502828 8.64989376,6.83948454 L8.11561883,5.80820087 C8.06704838,5.56265714 7.87276659,5.56265714 7.72705524,5.80820087 Z M6.2699418,2.56702361 C5.58995552,2.56702361 5.05568059,3.10721982 5.05568059,3.74563353 C5.05568059,4.38404723 5.58995552,4.92424344 6.2699418,4.92424344 C6.94992807,4.92424344 7.484203,4.38404723 7.484203,3.74563353 C7.484203,3.10721982 6.94992807,2.56702361 6.2699418,2.56702361 Z M9.66987317,2.56702361 C8.9898869,2.56702361 8.45561197,3.10721982 8.45561197,3.74563353 C8.45561197,4.38404723 8.9898869,4.92424344 9.66987317,4.92424344 C10.3498594,4.92424344 10.8841344,4.38404723 10.8841344,3.74563353 C10.8841344,3.10721982 10.301289,2.56702361 9.66987317,2.56702361 Z" id="形状结合" stroke="url(#linearGradient-2)" stroke-width="0.5" fill="url(#linearGradient-1)" fill-rule="nonzero"></path>
            </g>
        </g>
    </g>
</svg>