<?xml version="1.0" encoding="UTF-8"?>
<svg width="16px" height="16px" viewBox="0 0 16 16" version="1.1" xmlns="http://www.w3.org/2000/svg" xmlns:xlink="http://www.w3.org/1999/xlink">
    <title>重大基础设施</title>
    <defs>
        <linearGradient x1="53.8304822%" y1="103.830482%" x2="53.8304822%" y2="-3.83048222%" id="linearGradient-1">
            <stop stop-color="#E13337" offset="0%"></stop>
            <stop stop-color="#FFC8C8" offset="100%"></stop>
        </linearGradient>
        <linearGradient x1="50%" y1="0%" x2="50%" y2="100%" id="linearGradient-2">
            <stop stop-color="#FFFFFF" offset="0%"></stop>
            <stop stop-color="#FFFFFF" stop-opacity="0" offset="100%"></stop>
        </linearGradient>
    </defs>
    <g id="页面-2备份" stroke="none" stroke-width="1" fill="none" fill-rule="evenodd">
        <g id="平时" transform="translate(-534.000000, -342.000000)">
            <g id="重大基础设施" transform="translate(534.000000, 342.000000)">
                <rect id="矩形" x="0" y="0" width="16" height="16"></rect>
                <path d="M7.63292055,1.71942371 C8.7188252,1.72207091 9.59938843,2.57182035 9.60308827,3.62010938 L9.60308827,4.56956981 L12.5574149,4.56956981 C13.6442445,4.57221701 14.5238828,5.42108405 14.5275826,6.46937308 L14.5275826,13.1217729 L15.0196621,13.1217729 C15.1990365,13.117793 15.3664119,13.2074402 15.4562438,13.3556084 C15.5472001,13.5047998 15.5472001,13.6890888 15.4562438,13.8382802 C15.3664119,13.9864484 15.1990365,14.0760956 15.0196621,14.0721157 L1.23033793,14.0721157 C1.05096354,14.0760956 0.883588053,13.9864484 0.793756164,13.8382802 C0.702799908,13.6890888 0.702799908,13.5047998 0.793756164,13.3556084 C0.883588053,13.2074402 1.05096354,13.117793 1.23033793,13.1217729 L1.72334234,13.1217729 L1.72334234,3.61922698 C1.72611723,2.57182035 2.60575549,1.72207091 3.69351007,1.71942371 L7.63292055,1.71942371 Z M7.195509,10.2809145 L4.26002132,10.2809145 C3.99308645,10.289283 3.78154785,10.5064553 3.7831675,10.7704583 C3.7831675,11.0356656 3.9944952,11.2518278 4.26094009,11.2590938 L7.195509,11.2590938 C7.37368378,11.2631902 7.53993991,11.1709171 7.62917103,11.018409 C7.719519,10.8648477 7.719519,10.6751606 7.62917103,10.5215993 C7.53993991,10.3690911 7.37368378,10.2768181 7.195509,10.2809145 L7.195509,10.2809145 Z M12.0939047,10.2809145 L11.1274883,10.2809145 C10.9515131,10.2768182 10.7873094,10.3690886 10.6991799,10.5215922 C10.6099472,10.6751491 10.6099472,10.8648305 10.6991799,11.0183874 C10.7881083,11.170968 10.9514463,11.2636062 11.1274883,11.2590651 L12.0939047,11.2590651 C12.2698799,11.2631614 12.4340836,11.170891 12.5222132,11.0183874 C12.6114458,10.8648305 12.6114458,10.6751491 12.5222132,10.5215922 C12.4340836,10.3690886 12.2698799,10.2768182 12.0939047,10.2809145 L12.0939047,10.2809145 Z M7.19574107,7.3464876 L4.26004958,7.3464876 C3.99345476,7.35484748 3.78204263,7.57147481 3.7831675,7.83512899 C3.7831675,8.10033956 3.99450503,8.31741259 4.26096842,8.32377038 L7.19574107,8.32377038 C7.37392822,8.32786686 7.54019589,8.2355927 7.6294332,8.08308271 C7.71943161,7.92974948 7.71943161,7.7405085 7.6294332,7.58717528 C7.54043359,7.43431555 7.37412019,7.3416677 7.19574107,7.34557935 L7.19574107,7.3464876 Z M12.0940349,7.34648757 L11.1273581,7.34648757 C10.9513355,7.34239122 10.7870876,7.43466253 10.6989343,7.58716782 C10.6100291,7.74049632 10.6100291,7.92973147 10.6989343,8.08305997 C10.7878867,8.23655039 10.9512687,8.32828135 11.1273581,8.32374022 L12.0940349,8.32374022 C12.2700575,8.32783657 12.4343055,8.23556526 12.5224588,8.08305997 C12.6113639,7.92973147 12.6113639,7.74049632 12.5224588,7.58716782 C12.4345403,7.43431281 12.2702472,7.34166782 12.0940349,7.34557935 L12.0940349,7.34648757 Z M7.19574107,4.5325729 L4.26004958,4.5325729 C3.99345476,4.54093278 3.78204263,4.75756011 3.7831675,5.02121429 C3.7831675,5.28642486 3.99450503,5.50349789 4.26096842,5.51076393 L7.19574107,5.51076393 C7.37412019,5.51467558 7.54043359,5.42202774 7.6294332,5.26916801 C7.71943161,5.11583479 7.71943161,4.9265938 7.6294332,4.77326058 C7.54019589,4.62075058 7.37392822,4.52847642 7.19574107,4.5325729 L7.19574107,4.5325729 Z" id="形状" stroke="url(#linearGradient-2)" stroke-width="0.5" fill="url(#linearGradient-1)" fill-rule="nonzero"></path>
            </g>
        </g>
    </g>
</svg>