<svg xmlns="http://www.w3.org/2000/svg" xmlns:xlink="http://www.w3.org/1999/xlink" fill="none" version="1.1" width="120" height="120" viewBox="0 0 120 120"><defs><linearGradient x1="0.8126453161239624" y1="0.8698083162307739" x2="0.13508962094783783" y2="0.17051388323307037" id="master_svg0_7141_001418"><stop offset="0%" stop-color="#1E94FF" stop-opacity="1"/><stop offset="100%" stop-color="#61D4FF" stop-opacity="1"/></linearGradient><linearGradient x1="0.8126453161239624" y1="0.8698083162307739" x2="0.13508962094783783" y2="0.17051388323307037" id="master_svg1_7141_001418"><stop offset="0%" stop-color="#1E94FF" stop-opacity="1"/><stop offset="100%" stop-color="#61D4FF" stop-opacity="1"/></linearGradient><linearGradient x1="0.8126453161239624" y1="0.8698083162307739" x2="0.13508962094783783" y2="0.17051388323307037" id="master_svg2_7141_001418"><stop offset="0%" stop-color="#1E94FF" stop-opacity="1"/><stop offset="100%" stop-color="#61D4FF" stop-opacity="1"/></linearGradient><linearGradient x1="0.8126453161239624" y1="0.8698083162307739" x2="0.13508962094783783" y2="0.17051388323307037" id="master_svg3_7167_005214"><stop offset="0%" stop-color="#1E94FF" stop-opacity="1"/><stop offset="100%" stop-color="#61D4FF" stop-opacity="1"/></linearGradient><filter id="master_svg4_7167_005886" filterUnits="objectBoundingBox" color-interpolation-filters="sRGB" x="-10.880000114440918" y="-10.880000114440918" width="52.260000228881836" height="90.76000022888184"><feFlood flood-opacity="0" result="BackgroundImageFix"/><feBlend mode="normal" in="SourceGraphic" in2="BackgroundImageFix" result="shape"/><feGaussianBlur stdDeviation="2.7200000286102295" result="effect1_foregroundBlur"/></filter><filter id="master_svg5_7167_005891" filterUnits="objectBoundingBox" color-interpolation-filters="sRGB" x="-10.880000114440918" y="-10.880000114440918" width="40.260000228881836" height="63.760000228881836"><feFlood flood-opacity="0" result="BackgroundImageFix"/><feBlend mode="normal" in="SourceGraphic" in2="BackgroundImageFix" result="shape"/><feGaussianBlur stdDeviation="2.7200000286102295" result="effect1_foregroundBlur"/></filter></defs><g><g><g><ellipse cx="60" cy="60" rx="60" ry="60" fill="url(#master_svg0_7141_001418)" fill-opacity="0.1599999964237213"/></g><g><ellipse cx="57.00111770629883" cy="60.000003814697266" rx="53.57143020629883" ry="53.57143020629883" fill="url(#master_svg1_7141_001418)" fill-opacity="0.1599999964237213"/></g><g><ellipse cx="66.00111770629883" cy="62.14285659790039" rx="53.57143020629883" ry="53.57143020629883" fill="url(#master_svg2_7141_001418)" fill-opacity="0.1599999964237213"/></g><g><ellipse cx="60.14285659790039" cy="60.14285659790039" rx="47.14285659790039" ry="47.14285659790039" fill="url(#master_svg3_7167_005214)" fill-opacity="1"/></g><g filter="url(#master_svg4_7167_005886)"><path d="M66.49988207749844,94.9802Q67.20802167089843,94.9521,67.91419267089844,94.8843Q68.62036267089843,94.8164,69.32293267089844,94.7091Q70.02550267089843,94.6017,70.72285267089843,94.4549Q71.42021267089844,94.3082,72.11073267089844,94.1225Q72.80126267089844,93.9368,73.48337267089843,93.7126Q74.16547267089844,93.4883,74.83759267089843,93.2261Q75.50970267089843,92.9638,76.17027267089844,92.664Q76.83086267089844,92.3643,77.47836267089843,92.0278Q78.12586267089844,91.6914,78.75876267089843,91.3189Q79.39176267089843,90.9465,80.00866267089845,90.539Q80.62556267089843,90.1314,81.22506267089844,89.6897Q81.82456267089844,89.24799999999999,82.40526267089844,88.7731Q82.98586267089844,88.2983,83.54636267089845,87.7913Q84.10686267089844,87.2844,84.64596267089844,86.7466Q85.18496267089844,86.2088,85.70136267089843,85.6414Q86.21766267089843,85.07390000000001,86.71016267089844,84.4781Q87.20256267089843,83.8823,87.66996267089844,83.2596Q88.13746267089843,82.6369,88.57876267089844,81.98859999999999Q89.02006267089844,81.3403,89.43426267089843,80.668Q89.84846267089844,79.9957,90.23456267089844,79.3009Q90.62076267089844,78.6061,90.97786267089845,77.8905Q91.33506267089844,77.1748,91.66246267089844,76.4399Q91.98976267089844,75.705,92.28656267089843,74.95259999999999Q92.58346267089844,74.2002,92.84906267089843,73.4319Q93.11456267089844,72.6637,93.34836267089844,71.8815Q93.58206267089844,71.0992,93.78346267089844,70.3047Q93.98486267089844,69.5103,94.15336267089845,68.7054Q94.32186267089844,67.9005,94.45716267089844,67.0872Q94.59246267089844,66.2738,94.69416267089844,65.4537Q94.79596267089843,64.6336,94.86386267089844,63.8088Q94.93186267089844,62.984,94.96586267089845,62.1563Q94.99986267089844,61.3286,94.99986267089844,60.5Q94.99986267089844,59.6714,94.96586267089845,58.8437Q94.93186267089844,58.016,94.86386267089844,57.191199999999995Q94.79596267089843,56.3664,94.69416267089844,55.5463Q94.59246267089844,54.7262,94.45716267089844,53.912800000000004Q94.32186267089844,53.0995,94.15336267089845,52.2946Q93.98486267089844,51.4897,93.78346267089844,50.6953Q93.58206267089844,49.900800000000004,93.34836267089844,49.1185Q93.11456267089844,48.3363,92.84906267089843,47.5681Q92.58346267089844,46.799800000000005,92.28656267089843,46.047399999999996Q91.98976267089844,45.295,91.66246267089844,44.5601Q91.33506267089844,43.825199999999995,90.97786267089845,43.1095Q90.62076267089844,42.3939,90.23456267089844,41.6991Q89.84846267089844,41.0043,89.43426267089843,40.332Q89.02006267089844,39.6597,88.57876267089844,39.0114Q88.13746267089843,38.3631,87.66996267089844,37.7404Q87.20256267089843,37.117599999999996,86.71016267089844,36.5219Q86.21766267089843,35.926069999999996,85.70136267089843,35.35862Q85.18496267089844,34.79118,84.64596267089844,34.253370000000004Q84.10686267089844,33.71557,83.54636267089845,33.20865Q82.98586267089844,32.70173,82.40526267089844,32.22687Q81.82456267089844,31.75201,81.22506267089844,31.310290000000002Q80.62556267089843,30.86858,80.00866267089845,30.46104Q79.39176267089843,30.05349,78.75876267089843,29.68105Q78.12586267089844,29.30862,77.47836267089843,28.97215Q76.83086267089844,28.63568,76.17026267089844,28.33595Q75.50969267089843,28.03623,74.83758267089844,27.77393Q74.16546267089844,27.51164,73.48335267089844,27.28739Q72.80124267089843,27.06314,72.11072267089844,26.877443Q71.42019267089844,26.691747,70.72284267089844,26.545037Q70.02548267089844,26.398326,69.32291267089843,26.290938Q68.62034267089844,26.183551,67.91417267089844,26.115734Q67.20800267089844,26.0479171,66.49986267089837,26.0198276Q66.99971867089843,25.999999999999996,67.49986267089844,26Q68.22404267089844,26,68.94736267089844,26.0415568Q69.67067267089844,26.0831135,70.39137267089843,26.166127Q71.11206267089844,26.24914,71.82841267089844,26.37341Q72.54475267089843,26.49768,73.25502267089844,26.662908Q73.96529267089844,26.828135,74.66777267089844,27.03392Q75.37026267089844,27.23971,76.06326267089844,27.48556Q76.75626267089844,27.73141,77.43806267089843,28.01673Q78.11996267089845,28.30205,78.78906267089843,28.62616Q79.45806267089844,28.95026,80.11276267089843,29.31237Q80.76736267089844,29.67448,81.40606267089844,30.07372Q82.04476267089844,30.47296,82.66586267089843,30.908360000000002Q83.28706267089844,31.34377,83.88916267089843,31.8143Q84.49136267089844,32.28483,85.07296267089843,32.78934Q85.65466267089843,33.29385,86.21446267089844,33.83114Q86.77426267089844,34.36842,87.31086267089844,34.93719Q87.84746267089844,35.50595,88.35946267089844,36.1048Q88.87156267089844,36.7037,89.35796267089844,37.3312Q89.84426267089844,37.9587,90.30366267089843,38.6134Q90.76306267089844,39.268100000000004,91.19446267089845,39.9484Q91.62586267089844,40.6286,92.02826267089844,41.3328Q92.43056267089844,42.037,92.80286267089843,42.7635Q93.17516267089843,43.4899,93.51656267089844,44.2368Q93.85796267089844,44.9837,94.16756267089843,45.749300000000005Q94.47716267089844,46.515,94.75426267089844,47.297399999999996Q95.03146267089843,48.079899999999995,95.27536267089843,48.877300000000005Q95.51936267089843,49.6747,95.72956267089845,50.4852Q95.93986267089844,51.2956,96.11576267089843,52.1172Q96.29176267089844,52.9387,96.43306267089844,53.769400000000005Q96.57426267089843,54.6,96.68056267089844,55.437799999999996Q96.78686267089844,56.2756,96.85786267089844,57.1184Q96.92876267089844,57.9613,96.96436267089844,58.8072Q96.99986267089844,59.6531,96.99986267089844,60.5Q96.99986267089844,61.3469,96.96436267089844,62.1928Q96.92876267089844,63.0387,96.85786267089844,63.8816Q96.78686267089844,64.7244,96.68056267089844,65.56219999999999Q96.57426267089843,66.4,96.43306267089844,67.23060000000001Q96.29176267089844,68.0613,96.11576267089843,68.8828Q95.93986267089844,69.70439999999999,95.72956267089845,70.51480000000001Q95.51936267089843,71.3253,95.27536267089843,72.12270000000001Q95.03146267089843,72.92009999999999,94.75426267089844,73.70259999999999Q94.47716267089844,74.485,94.16756267089843,75.25059999999999Q93.85796267089844,76.0163,93.51656267089844,76.7632Q93.17516267089843,77.5101,92.80286267089843,78.2365Q92.43056267089844,78.963,92.02826267089844,79.66720000000001Q91.62586267089844,80.3714,91.19446267089845,81.05160000000001Q90.76306267089844,81.7319,90.30366267089843,82.3866Q89.84426267089844,83.0412,89.35796267089844,83.6688Q88.87156267089844,84.2963,88.35946267089844,84.8952Q87.84746267089844,85.494,87.31086267089844,86.06280000000001Q86.77426267089844,86.63159999999999,86.21446267089844,87.16890000000001Q85.65466267089843,87.70609999999999,85.07296267089843,88.2107Q84.49136267089844,88.71520000000001,83.88916267089843,89.1857Q83.28706267089844,89.6562,82.66586267089843,90.0916Q82.04476267089844,90.527,81.40606267089844,90.9263Q80.76736267089844,91.3255,80.11276267089843,91.6876Q79.45806267089844,92.0497,78.78906267089843,92.3738Q78.11996267089845,92.6979,77.43806267089843,92.9833Q76.75626267089844,93.2686,76.06326267089844,93.5144Q75.37026267089844,93.7603,74.66777267089844,93.9661Q73.96529267089844,94.1719,73.25502267089844,94.3371Q72.54475267089843,94.5023,71.82841267089844,94.6266Q71.11206267089844,94.7509,70.39137267089843,94.8339Q69.67067267089844,94.9169,68.94736267089844,94.9584Q68.22404267089844,95,67.49986267089844,95Q66.99970967089844,95,66.49988207749844,94.9802Z" fill-rule="evenodd" fill="#FFFFFF" fill-opacity="1"/></g><g filter="url(#master_svg5_7167_005891)"><path d="M72.49945863333028,80.9919Q72.93334831298829,80.9778,73.36615231298828,80.9394Q73.79895831298828,80.90090000000001,74.22966831298828,80.8382Q74.66037831298829,80.77539999999999,75.08799831298828,80.6885Q75.51561831298828,80.6017,75.93915831298828,80.49080000000001Q76.36268831298828,80.38,76.78114831298828,80.24549999999999Q77.19960831298827,80.1109,77.61202831298829,79.953Q78.02443831298828,79.79509999999999,78.42985831298829,79.6142Q78.83526831298828,79.4333,79.23273831298827,79.2298Q79.63020831298829,79.02629999999999,80.01880831298828,78.8007Q80.40740831298828,78.57509999999999,80.78622831298829,78.3279Q81.16505831298828,78.08070000000001,81.53322831298829,77.8125Q81.90140831298828,77.54429999999999,82.25806831298829,77.25569999999999Q82.61475831298829,76.967,82.95905831298828,76.65870000000001Q83.30335831298828,76.35040000000001,83.63455831298828,76.0231Q83.96575831298829,75.6957,84.28305831298829,75.3501Q84.60035831298828,75.00460000000001,84.90295831298828,74.6416Q85.20555831298827,74.27850000000001,85.49285831298828,73.8989Q85.78015831298828,73.5193,86.05135831298828,73.124Q86.32265831298828,72.7286,86.57725831298828,72.3185Q86.83185831298829,71.9084,87.06925831298828,71.4844Q87.30665831298828,71.06049999999999,87.52625831298828,70.6237Q87.74585831298828,70.1868,87.94705831298828,69.7382Q88.14835831298828,69.2895,88.33085831298828,68.8301Q88.51345831298828,68.3706,88.67675831298828,67.9014Q88.84005831298828,67.4322,88.98375831298829,66.95439999999999Q89.12755831298828,66.4766,89.25135831298829,65.99119999999999Q89.37515831298828,65.5059,89.47885831298828,65.0141Q89.58245831298828,64.5224,89.66565831298828,64.0254Q89.74885831298829,63.5283,89.81145831298828,63.0272Q89.87405831298828,62.5261,89.91585831298828,62.022099999999995Q89.95765831298829,61.518,89.97855831298828,61.0122Q89.99945831298828,60.5064,89.99945831298828,60Q89.99945831298828,59.4936,89.97855831298828,58.9878Q89.95765831298829,58.482,89.91585831298828,57.977900000000005Q89.87405831298828,57.4739,89.81145831298828,56.9728Q89.74885831298829,56.4717,89.66565831298828,55.9747Q89.58245831298828,55.477599999999995,89.47885831298828,54.9859Q89.37515831298828,54.4941,89.25135831298829,54.0088Q89.12755831298828,53.5234,88.98375831298829,53.0456Q88.84005831298828,52.5678,88.67675831298828,52.0986Q88.51345831298828,51.629400000000004,88.33085831298828,51.1699Q88.14835831298828,50.710499999999996,87.94705831298828,50.2618Q87.74585831298828,49.8132,87.52625831298828,49.3763Q87.30665831298828,48.93953,87.06925831298828,48.51556Q86.83185831298829,48.0916,86.57725831298828,47.68147Q86.32265831298828,47.27135,86.05135831298828,46.87602Q85.78015831298828,46.4807,85.49285831298828,46.101079999999996Q85.20555831298827,45.72147,84.90295831298828,45.35845Q84.60035831298828,44.99543,84.28305831298829,44.64985Q83.96575831298829,44.30428,83.63455831298828,43.97694Q83.30335831298828,43.64961,82.95905831298828,43.34128Q82.61475831298829,43.03295,82.25806831298829,42.74434Q81.90140831298828,42.45573,81.53322831298829,42.18751Q81.16505831298828,41.9193,80.78622831298829,41.67209Q80.40740831298828,41.42489,80.01880831298828,41.19928Q79.63020831298829,40.97367,79.23273831298827,40.77017Q78.83526831298828,40.56668,78.42985831298829,40.38577Q78.02443831298828,40.20486,77.61202831298829,40.04696Q77.19960831298827,39.889061,76.78114831298828,39.754536Q76.36268831298828,39.620011,75.93914831298828,39.509175Q75.51561831298828,39.398338,75.08799831298828,39.311447Q74.66037831298829,39.224556,74.22966831298828,39.161813Q73.79895831298828,39.0990694,73.36615231298828,39.0606197Q72.93334831298829,39.0221701,72.4994583129883,39.00810342Q72.74941031298827,39,72.99945831298828,39Q73.44133331298828,39,73.88267831298828,39.0252954Q74.32401831298829,39.0505908,74.76376831298828,39.101121Q75.20351831298828,39.151651,75.64060831298828,39.227293Q76.07769831298828,39.302936,76.51107831298827,39.403509Q76.94446831298828,39.504082,77.37309831298828,39.629344Q77.80172831298827,39.754605,78.22457831298829,39.904253Q78.64742831298828,40.0539,79.06347831298828,40.22757Q79.47951831298828,40.40125,79.88775831298828,40.59853Q80.29599831298827,40.79581,80.69544831298828,41.01622Q81.09489831298828,41.23664,81.48459831298828,41.47965Q81.87429831298829,41.72267,82.25330831298828,41.9877Q82.63235831298829,42.25273,82.99975831298828,42.53914Q83.36715831298828,42.82555,83.72205831298828,43.13264Q84.07695831298828,43.43974,84.41855831298828,43.76678Q84.76015831298828,44.09382,85.08755831298828,44.44003Q85.41495831298828,44.78623,85.72735831298829,45.15076Q86.03985831298829,45.51529,86.33655831298827,45.89726Q86.63335831298828,46.27924,86.91365831298828,46.67774Q87.19395831298829,47.07624,87.45715831298828,47.49031Q87.72045831298828,47.90438,87.96595831298828,48.33302Q88.21135831298828,48.76166,88.43855831298828,49.2038Q88.66575831298829,49.646,88.87405831298828,50.1007Q89.08235831298828,50.5553,89.27125831298828,51.0213Q89.46015831298828,51.4874,89.62925831298828,51.9636Q89.79835831298828,52.4399,89.94725831298828,52.9253Q90.09615831298828,53.4107,90.22435831298829,53.903999999999996Q90.35265831298828,54.3973,90.46005831298828,54.8974Q90.56735831298829,55.3975,90.65355831298828,55.903099999999995Q90.73975831298829,56.408699999999996,90.80465831298828,56.9187Q90.86945831298829,57.4286,90.91275831298827,57.9416Q90.95605831298829,58.4547,90.97775831298829,58.9696Q90.99945831298828,59.4845,90.99945831298828,60Q90.99945831298828,60.5155,90.97775831298829,61.0304Q90.95605831298829,61.5453,90.91275831298827,62.0584Q90.86945831298829,62.5714,90.80465831298828,63.0813Q90.73975831298829,63.591300000000004,90.65355831298828,64.0969Q90.56735831298829,64.60249999999999,90.46005831298828,65.1026Q90.35265831298828,65.6027,90.22435831298829,66.096Q90.09615831298828,66.58930000000001,89.94725831298828,67.0747Q89.79835831298828,67.5601,89.62925831298828,68.0363Q89.46015831298828,68.51259999999999,89.27125831298828,68.9787Q89.08235831298828,69.4447,88.87405831298828,69.8993Q88.66575831298829,70.354,88.43855831298828,70.7962Q88.21135831298828,71.23830000000001,87.96595831298828,71.667Q87.72045831298828,72.09559999999999,87.45715831298828,72.50970000000001Q87.19395831298829,72.9238,86.91365831298828,73.3223Q86.63335831298828,73.7208,86.33655831298827,74.1027Q86.03985831298829,74.4847,85.72735831298829,74.8492Q85.41495831298828,75.21379999999999,85.08755831298828,75.56Q84.76015831298828,75.9062,84.41855831298828,76.2332Q84.07695831298828,76.5603,83.72205831298828,76.8673Q83.36715831298828,77.17439999999999,82.99975831298828,77.46090000000001Q82.63235831298829,77.7473,82.25330831298828,78.01230000000001Q81.87429831298829,78.2773,81.48459831298828,78.52029999999999Q81.09489831298828,78.76339999999999,80.69544831298828,78.9838Q80.29599831298827,79.2042,79.88775831298828,79.4015Q79.47951831298828,79.59870000000001,79.06347831298828,79.7724Q78.64742831298828,79.9461,78.22457831298829,80.0957Q77.80173831298828,80.24539999999999,77.37309831298828,80.3707Q76.94446831298828,80.4959,76.51107831298827,80.59649999999999Q76.07769831298828,80.6971,75.64060831298828,80.7727Q75.20351831298828,80.8483,74.76376831298828,80.8989Q74.32401831298829,80.9494,73.88267831298828,80.9747Q73.44133331298828,81,72.99945831298828,81Q72.74941031298827,81,72.49945863333028,80.9919Z" fill-rule="evenodd" fill="#FFFFFF" fill-opacity="1"/></g></g><g><rect x="42" y="42" width="8" height="21" rx="4" fill="#FFFFFF" fill-opacity="1"/></g><g><rect x="71" y="42" width="8" height="21" rx="4" fill="#FFFFFF" fill-opacity="1"/></g></g></svg>